<svg xmlns="http://www.w3.org/2000/svg" width="30" height="30" viewBox="0 0 30 30">
  <g id="Group_13202" data-name="Group 13202" transform="translate(-263.798 -1088.847)">
    <path id="Path_31191" data-name="Path 31191" d="M283.12,1099.525a.75.75,0,0,0,1.061,0l2.121-2.121,2.121,2.121a.75.75,0,0,0,1.061-1.06l-2.121-2.122,2.121-2.121a.75.75,0,1,0-1.061-1.061l-2.121,2.122-2.121-2.122a.75.75,0,0,0-1.061,1.061l2.121,2.121-2.121,2.122A.749.749,0,0,0,283.12,1099.525Z" fill=""/>
    <path id="Path_31192" data-name="Path 31192" d="M281,1101.646a7.5,7.5,0,1,0,0-10.606A7.45,7.45,0,0,0,281,1101.646Zm1.061-9.546a6,6,0,1,1,0,8.486A5.982,5.982,0,0,1,282.06,1092.1Z" fill=""/>
    <path id="Path_31193" data-name="Path 31193" d="M293.048,1103.832a.75.75,0,0,0-.75.75v10.846a1.919,1.919,0,0,1-1.919,1.919H267.217a1.919,1.919,0,0,1-1.919-1.919v-23.162a1.919,1.919,0,0,1,1.919-1.919h10.842a.75.75,0,0,0,0-1.5H267.217a3.419,3.419,0,0,0-3.419,3.419v23.162a3.419,3.419,0,0,0,3.419,3.419h23.162a3.419,3.419,0,0,0,3.419-3.419v-10.846A.75.75,0,0,0,293.048,1103.832Z" fill=""/>
    <path id="Path_31194" data-name="Path 31194" d="M290.048,1113.306h-22.5a.75.75,0,0,0,0,1.5h22.5a.75.75,0,0,0,0-1.5Z" fill=""/>
    <path id="Path_31195" data-name="Path 31195" d="M290.048,1109.306h-22.5a.75.75,0,0,0,0,1.5h22.5a.75.75,0,0,0,0-1.5Z" fill=""/>
    <path id="Path_31196" data-name="Path 31196" d="M267.548,1106.806h13.5a.75.75,0,0,0,0-1.5h-13.5a.75.75,0,0,0,0,1.5Z" fill=""/>
  </g>
</svg>
