<svg xmlns="http://www.w3.org/2000/svg" width="30" height="30" viewBox="0 0 30 30">
  <g id="Group_13203" data-name="Group 13203" transform="translate(-17.375 -1091.806)">
    <path id="Path_31197" data-name="Path 31197" d="M38.275,1098.175a.917.917,0,0,0-1.3,1.3l2.252,2.252a.918.918,0,0,0,1.3,0l6.548-6.548a.916.916,0,0,0-1.3-1.3l-5.9,5.9Z" fill="#f92186"/>
    <path id="Path_31198" data-name="Path 31198" d="M46.625,1106.79a.75.75,0,0,0-.75.75v10.846a1.92,1.92,0,0,1-1.919,1.92H20.794a1.92,1.92,0,0,1-1.919-1.92v-23.161a1.919,1.919,0,0,1,1.919-1.919H31.636a.75.75,0,1,0,0-1.5H20.794a3.419,3.419,0,0,0-3.419,3.419v23.161a3.42,3.42,0,0,0,3.419,3.42H43.956a3.42,3.42,0,0,0,3.419-3.42V1107.54A.75.75,0,0,0,46.625,1106.79Z" fill="#f92186"/>
    <path id="Path_31199" data-name="Path 31199" d="M43.625,1116.264h-22.5a.75.75,0,0,0,0,1.5h22.5a.75.75,0,0,0,0-1.5Z" fill="#f92186"/>
    <path id="Path_31200" data-name="Path 31200" d="M43.625,1112.264h-22.5a.75.75,0,0,0,0,1.5h22.5a.75.75,0,0,0,0-1.5Z" fill="#f92186"/>
    <path id="Path_31201" data-name="Path 31201" d="M21.125,1109.764h13.5a.75.75,0,0,0,0-1.5h-13.5a.75.75,0,0,0,0,1.5Z" fill="#f92186"/>
    <path id="Path_31202" data-name="Path 31202" d="M34.576,1104.6a7.5,7.5,0,0,0,12.519-7.326l-1.289,1.288a5.955,5.955,0,1,1-2.589-4.247l1.074-1.073a7.5,7.5,0,0,0-9.715,11.358Z" fill="#f92186"/>
  </g>
</svg>
