<svg xmlns="http://www.w3.org/2000/svg" width="60" height="60" viewBox="0 0 60 60">
	<path id="Path_31157" data-name="Path 31157" d="M488.577,760.6l-26.731-26.731a3.871,3.871,0,0,0-2.378-1.306h-.583a3.871,3.871,0,0,0-2.378,1.306L429.776,760.6a2.045,2.045,0,0,0,1.446,3.492h4.063v19.759A8.722,8.722,0,0,0,444,792.559h30.357a8.722,8.722,0,0,0,8.713-8.712V764.088h4.063a2.045,2.045,0,0,0,1.446-3.492Zm-29.4,28.963h-7.333V773.393A3.392,3.392,0,0,1,455.232,770h7.888a3.393,3.393,0,0,1,3.39,3.389v16.166Zm23.892-28.471h-3v22.759a5.719,5.719,0,0,1-5.713,5.712H469.51V773.393A6.4,6.4,0,0,0,463.12,767h-7.888a6.4,6.4,0,0,0-6.389,6.389v16.166H444a5.719,5.719,0,0,1-5.713-5.712V761.088h-4.758l25.1-25.1a2.283,2.283,0,0,1,.542-.427h.013a2.284,2.284,0,0,1,.542.427l25.1,25.1Z" transform="translate(-429.176 -732.559)" />
</svg>
