<svg xmlns="http://www.w3.org/2000/svg" width="30" height="30" viewBox="0 0 30 30">
  <g id="Group_13205" data-name="Group 13205" transform="translate(-507.58 -1091.056)">
    <path id="Path_31209" data-name="Path 31209" d="M536.826,1099.28H522.7l2.864-2.821a.754.754,0,1,0-1.059-1.074l-4.174,4.113a.751.751,0,0,0,0,1.074l4.174,4.114a.755.755,0,0,0,1.059-1.076l-2.864-2.82h14.128a.755.755,0,0,0,0-1.51Z"/>
    <path id="Path_31210" data-name="Path 31210" d="M536.83,1107.139a.75.75,0,0,0-.75.75v9.747a1.921,1.921,0,0,1-1.92,1.92H511a1.92,1.92,0,0,1-1.919-1.92v-23.161a1.919,1.919,0,0,1,1.919-1.919H536.83a.75.75,0,0,0,0-1.5H511a3.419,3.419,0,0,0-3.419,3.419v23.161a3.42,3.42,0,0,0,3.419,3.42H534.16a3.42,3.42,0,0,0,3.42-3.42v-9.747A.75.75,0,0,0,536.83,1107.139Z"/>
    <path id="Path_31211" data-name="Path 31211" d="M533.83,1115.514h-22.5a.75.75,0,0,0,0,1.5h22.5a.75.75,0,0,0,0-1.5Z"/>
    <path id="Path_31212" data-name="Path 31212" d="M533.83,1111.514h-22.5a.75.75,0,0,0,0,1.5h22.5a.75.75,0,0,0,0-1.5Z"/>
    <path id="Path_31213" data-name="Path 31213" d="M525.032,1107.514h-13.7a.75.75,0,0,0,0,1.5h13.7a.75.75,0,0,0,0-1.5Z"/>
  </g>
</svg>
