<svg xmlns="http://www.w3.org/2000/svg" width="30" height="30" viewBox="0 0 30 30">
  <g id="Group_13199" data-name="Group 13199" transform="translate(722.941 -1087.788)">
    <path id="Path_31183" data-name="Path 31183" d="M-693.16,1102.88a.751.751,0,0,0-1.062,0l-1.836,1.835v-4.94a12.007,12.007,0,0,0-12-11.987h-11.131a.752.752,0,0,0-.752.751.748.748,0,0,0,.749.748h11.134a10.494,10.494,0,0,1,10.5,10.488v4.939l-1.834-1.831a.753.753,0,0,0-1.065,0,.743.743,0,0,0,0,1.054l2.071,2.068a2.223,2.223,0,0,0,1.869.635,2.348,2.348,0,0,0,1.35-.7l2.007-2A.75.75,0,0,0-693.16,1102.88Z"/>
    <path id="Path_31184" data-name="Path 31184" d="M-696.689,1116.29h-11.134a10.494,10.494,0,0,1-10.5-10.488v-4.94l1.833,1.832a.756.756,0,0,0,1.066,0,.745.745,0,0,0,0-1.054l-2.071-2.069a2.229,2.229,0,0,0-1.869-.635,2.353,2.353,0,0,0-1.35.7l-2.007,2a.747.747,0,0,0,0,1.058.75.75,0,0,0,1.061,0l1.837-1.834v4.94a12.006,12.006,0,0,0,12,11.986h11.13a.751.751,0,0,0,.752-.751A.747.747,0,0,0-696.689,1116.29Z"/>
    <path id="Path_31185" data-name="Path 31185" d="M-711.145,1104.66l0,.249a3.063,3.063,0,0,0,.935,2.268,3.04,3.04,0,0,0,1.515.775v1.307a.75.75,0,0,0,.75.75.749.749,0,0,0,.75-.75v-1.3a3.067,3.067,0,0,0,1.515-.806,2.948,2.948,0,0,0,.939-2.208,2.831,2.831,0,0,0-.73-1.977,3.934,3.934,0,0,0-1.816-1.062l-.764-.227a3.852,3.852,0,0,1-.691-.283,1.126,1.126,0,0,1-.638-1.04,1.308,1.308,0,0,1,.424-1,1.447,1.447,0,0,1,1.046-.4,1.341,1.341,0,0,1,1.01.437,1.433,1.433,0,0,1,.421,1.039v.269h.013a.746.746,0,0,0,.742.712.746.746,0,0,0,.743-.712h.006v-.269a2.767,2.767,0,0,0-.863-2.067,2.816,2.816,0,0,0-1.356-.731v-1.309a.75.75,0,0,0-.75-.75.75.75,0,0,0-.75.75v1.324a2.892,2.892,0,0,0-1.31.693,2.7,2.7,0,0,0-.88,2.057,2.4,2.4,0,0,0,.835,1.956,3.535,3.535,0,0,0,.856.495,8.694,8.694,0,0,0,1,.347c.3.09.556.176.752.257a2.983,2.983,0,0,1,.626.352,1.411,1.411,0,0,1,.576,1.183,1.564,1.564,0,0,1-.49,1.172,1.607,1.607,0,0,1-1.176.469c-1.131,0-1.681-.55-1.731-1.729l-.02-.172a.63.63,0,0,0,.012-.062.75.75,0,0,0-.75-.75.75.75,0,0,0-.749.746h0v0h0Z"/>
  </g>
</svg>
