<svg xmlns="http://www.w3.org/2000/svg" width="30" height="30.001" viewBox="0 0 30 30.001">
  <g id="Group_13200" data-name="Group 13200" transform="translate(474.873 -1087.788)">
    <path id="Path_31186" data-name="Path 31186" d="M-444.973,1108.664a.757.757,0,0,0-.192-.219h0a6.337,6.337,0,0,0-2.455-1.872,3.953,3.953,0,0,0-3.394.005,1.36,1.36,0,0,0-.2.086l-6.2,3.58a2.933,2.933,0,0,0-2.9-2.49h-.51a2.938,2.938,0,0,0-2.909-2.565h-4.211a2.916,2.916,0,0,0-1.473.4,2.186,2.186,0,0,0-2.147-1.8h-1.129a2.188,2.188,0,0,0-2.186,2.185v9.629a2.189,2.189,0,0,0,2.186,2.186h1.129a2.181,2.181,0,0,0,2.064-1.5h12.371a.751.751,0,0,0,.126-.013.745.745,0,0,0,.491-.088l11.258-6.5A.75.75,0,0,0-444.973,1108.664Zm-25.9-.539v7.478a.686.686,0,0,1-.686.686h-1.129a.686.686,0,0,1-.685-.686v-9.629a.685.685,0,0,1,.685-.685h1.129a.686.686,0,0,1,.686.685Zm13.785,6.667c-.012,0-.023,0-.035,0h-12.249v-6.667a1.436,1.436,0,0,1,1.434-1.433h4.211a1.437,1.437,0,0,1,1.435,1.436v1.129h1.984a1.434,1.434,0,0,1,1.435,1.435v.085h-6a.75.75,0,0,0-.75.75.75.75,0,0,0,.75.75h6.75a.744.744,0,0,0,.538-.229.768.768,0,0,0,.179-.072l7.322-4.228a2.441,2.441,0,0,1,1.56.238,6.117,6.117,0,0,1,1.43,1.039Z"/>
    <path id="Path_31187" data-name="Path 31187" d="M-461.708,1096.006a.749.749,0,0,0-.751.748l.005.13a2.456,2.456,0,0,0,.757,1.824,2.437,2.437,0,0,0,1.075.586v.233a.749.749,0,0,0,.75.749.749.749,0,0,0,.75-.749v-.231a2.5,2.5,0,0,0,1.074-.607,2.375,2.375,0,0,0,.762-1.782,2.293,2.293,0,0,0-.6-1.6,3.13,3.13,0,0,0-1.445-.844l-.572-.17a2.752,2.752,0,0,1-.488-.2.672.672,0,0,1-.393-.633.729.729,0,0,1,.266-.63.984.984,0,0,1,1.511.309.773.773,0,0,0,.75.748.749.749,0,0,0,.75-.748,2.237,2.237,0,0,0-1.618-1.878v-.211a.749.749,0,0,0-.75-.748.749.749,0,0,0-.75.748v.246a2.352,2.352,0,0,0-.919.522,2.192,2.192,0,0,0-.717,1.671,1.963,1.963,0,0,0,.693,1.6,2.768,2.768,0,0,0,.683.4,6.565,6.565,0,0,0,.771.27c.222.065.408.128.546.184a2.056,2.056,0,0,1,.435.244.884.884,0,0,1,.367.753,1.007,1.007,0,0,1-.318.757,1.044,1.044,0,0,1-.765.3.957.957,0,0,1-1.112-.944v-.3A.75.75,0,0,0-461.708,1096.006Z"/>
    <path id="Path_31188" data-name="Path 31188" d="M-459.873,1102.788a7.5,7.5,0,0,0,7.5-7.5,7.5,7.5,0,0,0-7.5-7.5,7.5,7.5,0,0,0-7.5,7.5A7.5,7.5,0,0,0-459.873,1102.788Zm0-13.5a6.007,6.007,0,0,1,6,6,6.007,6.007,0,0,1-6,6,6.007,6.007,0,0,1-6-6A6.007,6.007,0,0,1-459.873,1089.288Z"/>
  </g>
</svg>
