<svg xmlns="http://www.w3.org/2000/svg" width="30" height="30" viewBox="0 0 30 30">
  <g id="Group_14149" data-name="Group 14149" transform="translate(-2042.235 -1396.536)">
    <path id="Path_31265" data-name="Path 31265" d="M2067.485,1413.036h-7.5a.75.75,0,0,0,0,1.5h7.5a.75.75,0,0,0,0-1.5Z" fill="#00b5a9"/>
    <path id="Path_31266" data-name="Path 31266" d="M2067.485,1416.536h-7.5a.75.75,0,0,0,0,1.5h7.5a.75.75,0,0,0,0-1.5Z" fill="#00b5a9"/>
    <path id="Path_31267" data-name="Path 31267" d="M2067.485,1420.036h-7.5a.75.75,0,0,0,0,1.5h7.5a.75.75,0,0,0,0-1.5Z" fill="#00b5a9"/>
    <path id="Path_31268" data-name="Path 31268" d="M2070.359,1407.036H2068.6a2.246,2.246,0,0,0-2.112-1.5h-4.75v-5.788l-.751-.25-8.779-2.927a.694.694,0,0,0-.441,0l-8.779,2.927-.75.25v14.122a.7.7,0,0,0,.477.663l8.523,2.84.75.25.75-.25,2.5-.833v8.13a1.873,1.873,0,0,0,1.876,1.865l6.624,0v0h2.5v-.005l4.124.005a1.873,1.873,0,0,0,1.876-1.865V1408.9A1.873,1.873,0,0,0,2070.359,1407.036Zm-9.374,0h5.5a.75.75,0,0,1,0,1.5h-5.5a.75.75,0,0,1,0-1.5Zm-15.063-6.936,5.842-1.947a.692.692,0,0,1,.441,0l1.4.467-6.627,2.209-1.057-.353A.2.2,0,0,1,2045.922,1400.1Zm5.313,14.722a.7.7,0,0,1-.92.663l-6.1-2.034a.7.7,0,0,1-.477-.663V1402.3a.7.7,0,0,1,.919-.663l6.1,2.034a.7.7,0,0,1,.478.663Zm.97-12.4a.694.694,0,0,1-.441,0l-2.413-.8,6.627-2.21,2.069.69a.2.2,0,0,1,0,.377Zm3.03,6.477v6.057l-1.581.527a.7.7,0,0,1-.919-.663v-10.489a.7.7,0,0,1,.477-.663l6.1-2.034a.7.7,0,0,1,.92.663v3.371a2.263,2.263,0,0,0-1.362,1.366h-1.762A1.873,1.873,0,0,0,2055.235,1408.9Zm15.5,15.262a.875.875,0,0,1-.872.872h-12.256a.874.874,0,0,1-.872-.872v-14.756a.875.875,0,0,1,.872-.872h1.266a2.246,2.246,0,0,0,2.112,1.5h5.5a2.246,2.246,0,0,0,2.112-1.5h1.266a.876.876,0,0,1,.872.873Z" fill="#00b5a9"/>
  </g>
</svg>
