<svg xmlns="http://www.w3.org/2000/svg" width="51.911" height="51.911" viewBox="0 0 51.911 51.911"><defs><style></style></defs><g transform="translate(1.201 1.201)"><path class="a" d="M57.993,41.779,48.05,31.836a11.348,11.348,0,0,0-4.067-2.624,11.349,11.349,0,0,0-2.624-4.067L31.416,15.2A11.466,11.466,0,1,0,15.2,31.416l9.943,9.943a11.351,11.351,0,0,0,4.067,2.624,11.348,11.348,0,0,0,2.624,4.067l9.943,9.943A11.466,11.466,0,0,0,57.993,41.779ZM26.249,40.255,16.3,30.312A9.9,9.9,0,0,1,30.311,16.306l9.943,9.943a9.85,9.85,0,0,1,1.781,2.42l-.159-.027-.106-.018c-.138-.022-.277-.042-.416-.06l-.04,0c-.128-.015-.255-.028-.384-.039l-.1-.008c-.125-.01-.25-.017-.375-.023l-.052,0q-.213-.008-.426-.009h-.088q-.2,0-.408.009l-.08,0h-.041a7.837,7.837,0,0,0-.714-.821l-9.754-9.754a7.758,7.758,0,0,0-11.043.073,7.84,7.84,0,0,0,.146,10.971l9.681,9.681a7.812,7.812,0,0,0,.812.705l0,.018.388.258q.116.077.235.15a7.7,7.7,0,0,0,1.742.79l.016.005c.072.022.145.043.217.063l.048.014c.067.018.135.034.2.051l.065.016c.063.014.126.027.189.04l.082.017c.054.01.107.019.161.028l.112.02.13.018.145.02.1.011.173.018.083.005c.065,0,.131.01.2.013l.059,0c.073,0,.146.006.219.007h.005l.8,0v-.026A7.755,7.755,0,0,0,40.878,33.9l.045.006q.1.014.193.031l.072.012c.087.016.173.034.259.054l.008,0c.082.019.164.041.245.063l.073.021q.093.027.186.057l.073.024c.076.026.152.053.227.082l.019.007c.082.032.162.065.243.1l.065.029q.09.04.178.084l.071.035q.1.049.193.1l.032.017a9.9,9.9,0,0,1-8.908,8.486c-.3.027-.6.041-.9.041-.19,0-.379-.007-.568-.018a9.9,9.9,0,0,1-2.612-.5A9.8,9.8,0,0,1,26.249,40.255ZM37.5,28.742A11.455,11.455,0,0,0,28.741,37.5L19.1,27.858a6.272,6.272,0,0,1-.132-8.776,6.2,6.2,0,0,1,8.819-.059ZM33.887,39.306a6.185,6.185,0,0,1,5.419-5.418,6.182,6.182,0,0,1-5.419,5.418Zm10.566-3.614L54.1,45.338a6.271,6.271,0,0,1,.132,8.776,6.2,6.2,0,0,1-8.82.059l-9.719-9.719a11.456,11.456,0,0,0,8.762-8.761Zm12.436,21.2a9.9,9.9,0,0,1-14.006,0l-9.943-9.943a9.843,9.843,0,0,1-1.781-2.42l.158.027.109.019c.136.022.273.042.41.059l.062.007q.177.021.355.036l.126.01q.168.013.336.02l.087,0c.136.005.273.008.409.008h.041l.24,0H33.5c.1,0,.206-.006.309-.011h.028a7.834,7.834,0,0,0,.714.821l9.754,9.754A7.758,7.758,0,0,0,55.348,55.2,7.84,7.84,0,0,0,55.2,44.233l-9.681-9.681a7.812,7.812,0,0,0-.812-.705l0-.018-.388-.258q-.116-.077-.234-.15L44,33.372c-.051-.03-.1-.061-.153-.09l-.125-.068-.118-.064c-.05-.026-.1-.05-.151-.075l-.1-.048c-.053-.025-.107-.049-.161-.073l-.09-.041c-.056-.024-.112-.046-.169-.069l-.086-.035c-.056-.022-.112-.042-.169-.062l-.09-.033c-.056-.02-.113-.038-.169-.056l-.092-.03c-.056-.017-.112-.033-.169-.049l-.1-.028c-.053-.014-.106-.027-.159-.04l-.108-.027-.151-.032-.12-.025-.142-.025-.131-.023-.13-.018-.145-.02-.115-.012-.162-.017-.1-.007c-.059,0-.118-.009-.177-.012l-.09,0-.181-.006h-.118a7.755,7.755,0,0,0-7.721,7.011l-.046-.006c-.064-.009-.127-.019-.191-.03L32,39.244c-.086-.016-.171-.034-.256-.053l-.017,0q-.119-.028-.237-.061l-.076-.022q-.091-.027-.182-.056l-.076-.025c-.075-.025-.149-.052-.222-.08l-.024-.009c-.081-.031-.162-.065-.241-.1l-.067-.03q-.088-.04-.176-.082l-.073-.036q-.1-.048-.19-.1l-.034-.019a9.9,9.9,0,0,1,8.908-8.486c.3-.027.6-.041.9-.041q.407,0,.811.033c.145.012.289.027.433.045a9.865,9.865,0,0,1,5.76,2.822l9.943,9.943A9.916,9.916,0,0,1,56.889,56.89Z" transform="translate(-11.842 -11.843)"/></g><g transform="translate(37.977 6.941)"><g transform="translate(0 0)"><rect class="a" width="8.325" height="1.562" transform="translate(0 5.887) rotate(-45)"/></g></g><g transform="translate(29.01)"><rect class="a" width="1.562" height="8.325"/></g><g transform="translate(43.586 21.339)"><rect class="a" width="8.325" height="1.562"/></g><g transform="translate(6.94 37.976)"><g transform="translate(0 0)"><rect class="a" width="8.325" height="1.562" transform="translate(0 5.887) rotate(-45)"/></g></g><g transform="translate(0 29.01)"><rect class="a" width="8.325" height="1.562"/></g><g transform="translate(21.339 43.586)"><rect class="a" width="1.562" height="8.325"/></g></svg>