<?xml version="1.0" encoding="utf-8"?>
<!-- Generator: Adobe Illustrator 23.0.5, SVG Export Plug-In . SVG Version: 6.00 Build 0)  -->
<svg version="1.0" id="Layer_1" xmlns="http://www.w3.org/2000/svg" xmlns:xlink="http://www.w3.org/1999/xlink" x="0px" y="0px"
	 viewBox="0 0 70 70" style="enable-background:new 0 0 70 70;" xml:space="preserve">
<style type="text/css">
	 
</style>
<g>
	<path class="st0" d="M63.1,16.9c-0.4,0.2-0.6,0.5-0.7,0.9l-1.5,4.8C56,12.4,45.7,5.3,33.7,5.3c-12.3,0-22.8,7.4-27.5,17.9
		c-0.4,1,0.3,2.1,1.4,2.1h0c0.6,0,1.1-0.4,1.4-0.9c4.2-9.5,13.7-16.1,24.7-16.1c10.8,0,20.1,6.3,24.4,15.5l-4.5-1.4
		c-0.4-0.1-0.8-0.1-1.1,0.1v0c-1.2,0.6-1,2.4,0.2,2.8l8.1,2.6c0.8,0.3,1.6-0.2,1.9-1l2.6-8.1C65.6,17.4,64.3,16.3,63.1,16.9z"/>
	<path class="st0" d="M63,45.3L63,45.3c-0.6,0-1.1,0.4-1.4,0.9c-4.2,9.5-13.7,16.1-24.7,16.1c-10.8,0-20.1-6.3-24.4-15.5l4.5,1.4
		c0.4,0.1,0.8,0.1,1.1-0.1c1.2-0.6,1-2.4-0.2-2.8l-8.1-2.6c-0.8-0.3-1.6,0.2-1.9,1l-2.6,8.1c-0.4,1.3,0.9,2.4,2.1,1.8v0
		c0.4-0.2,0.6-0.5,0.7-0.9L9.7,48c4.8,10.2,15.1,17.3,27.1,17.3c12.3,0,22.8-7.4,27.5-17.9C64.8,46.4,64,45.3,63,45.3z"/>
	<path class="st0" d="M9.5,36.5v0.3c0,1,0.3,1.9,0.8,2.6c0.5,0.7,1.3,1.3,2.2,1.7c0.9,0.4,2,0.6,3.1,0.6c1.7,0,3-0.4,4-1.2
		c1-0.8,1.5-1.8,1.5-3.2c0-0.8-0.2-1.5-0.5-2.1c-0.3-0.6-0.9-1.1-1.6-1.6c-0.7-0.5-1.7-0.9-2.9-1.2c-1.1-0.3-1.9-0.7-2.4-1
		c-0.4-0.3-0.7-0.7-0.7-1.2c0-0.6,0.2-1,0.6-1.3c0.4-0.3,1-0.5,1.8-0.5c0.8,0,1.5,0.2,1.9,0.6c0.4,0.4,0.6,0.9,0.6,1.6v0.3h3.1v-0.3
		c0-0.9-0.2-1.7-0.7-2.5c-0.5-0.7-1.2-1.3-2-1.7c-0.8-0.4-1.8-0.6-2.9-0.6c-1.6,0-3,0.4-4,1.2c-1,0.8-1.6,1.9-1.6,3.2
		c0,1.5,0.7,2.7,2.2,3.6c0.7,0.5,1.7,0.9,2.9,1.2c1.2,0.4,2,0.7,2.4,1c0.4,0.3,0.6,0.7,0.6,1.3c0,0.5-0.2,0.9-0.6,1.3
		c-0.4,0.3-1,0.5-1.9,0.5c-1,0-1.7-0.2-2.3-0.6c-0.5-0.4-0.7-1-0.7-1.8v-0.3H9.5z"/>
	<path class="st0" d="M28.2,34.2c-1.7,0-3,0.3-3.9,1c-0.9,0.7-1.4,1.7-1.4,2.9c0,1,0.4,1.9,1.1,2.5c0.7,0.7,1.7,1,2.9,1
		c1.1,0,2-0.3,2.8-1c0.1,0.3,0.1,0.5,0.2,0.7l0.1,0.1h2.9V41l0-0.1c-0.3-0.6-0.4-1.3-0.4-2.3v-5c0-1.3-0.5-2.2-1.3-2.9
		c-0.8-0.7-1.9-1-3.3-1c-0.9,0-1.7,0.2-2.4,0.5c-0.7,0.3-1.3,0.8-1.7,1.3c-0.4,0.6-0.7,1.2-0.7,1.9v0.3h3v-0.3
		c0-0.4,0.1-0.6,0.4-0.9c0.3-0.2,0.7-0.4,1.2-0.4c0.6,0,1,0.1,1.3,0.4c0.3,0.3,0.4,0.7,0.4,1.2v0.5H28.2z M29.4,38.1
		c-0.2,0.3-0.5,0.6-0.9,0.8c-0.4,0.2-0.8,0.3-1.3,0.3c-0.5,0-0.8-0.1-1.1-0.4c-0.3-0.2-0.4-0.5-0.4-1c0-0.5,0.2-0.9,0.6-1.2
		c0.4-0.3,1.1-0.4,1.9-0.4h1.1V38.1z"/>
	<rect x="35.2" y="25.3" class="st0" width="3" height="16.3"/>
	<path class="st0" d="M50.8,35.5c0-1.8-0.4-3.2-1.3-4.3c-0.9-1-2.1-1.5-3.7-1.5c-1,0-1.9,0.3-2.7,0.8s-1.4,1.2-1.9,2.1
		c-0.4,0.9-0.7,1.9-0.7,3.1V36c0,1.7,0.5,3.1,1.5,4.1c1,1,2.4,1.6,4,1.6c1,0,1.8-0.2,2.6-0.6c0.8-0.4,1.4-0.9,1.9-1.6l0.1-0.2
		L49,37.7l-0.2,0.2c-0.7,0.9-1.5,1.3-2.6,1.3c-0.8,0-1.4-0.2-1.8-0.7c-0.4-0.4-0.7-1-0.8-1.7h7.2V35.5z M43.6,34.4
		c0.1-0.7,0.4-1.2,0.7-1.6c0.4-0.4,0.9-0.6,1.5-0.6c0.6,0,1.1,0.2,1.4,0.6c0.3,0.4,0.5,0.9,0.6,1.7H43.6z"/>
	<path class="st0" d="M57.2,39.3c-0.6,0-1.1-0.1-1.5-0.4c-0.4-0.3-0.5-0.7-0.6-1.2l0-0.2h-2.9v0.3c0,0.7,0.2,1.4,0.6,2
		c0.4,0.6,1,1.1,1.8,1.4c0.7,0.3,1.6,0.5,2.5,0.5c1.4,0,2.5-0.3,3.4-1c0.9-0.7,1.3-1.5,1.3-2.6c0-0.6-0.1-1.2-0.4-1.7
		c-0.3-0.5-0.7-0.8-1.3-1.2c-0.6-0.3-1.4-0.6-2.4-0.8c-0.9-0.2-1.6-0.4-1.9-0.6c-0.3-0.2-0.4-0.4-0.4-0.7c0-0.3,0.1-0.6,0.4-0.8
		c0.3-0.2,0.7-0.3,1.2-0.3c0.5,0,0.9,0.1,1.2,0.4c0.3,0.3,0.5,0.6,0.5,1v0.3h3v-0.3c0-1.1-0.4-2-1.3-2.7c-0.9-0.7-2-1-3.4-1
		c-1.3,0-2.4,0.3-3.2,1c-0.9,0.7-1.3,1.6-1.3,2.6c0,1.2,0.7,2.2,2,2.8c0.6,0.3,1.3,0.5,2.2,0.7c0.8,0.2,1.4,0.4,1.7,0.6
		c0.3,0.2,0.4,0.4,0.4,0.8c0,0.3-0.1,0.6-0.4,0.8C58.3,39.2,57.8,39.3,57.2,39.3z"/>
</g>
</svg>
