<svg id="Layer_1" data-name="Layer 1" xmlns="http://www.w3.org/2000/svg" viewBox="0 0 70 70"><defs><style>.cls-1{fill:#var(--ion-color-vh-green);}</style></defs><title>Untitled-1</title><rect class="cls-1" x="16.5" y="20.3" width="22" height="3"/><path class="cls-1" d="M48,31.3a17.53,17.53,0,0,0-3.5.36V17.3H50V5.3H5v12h5.5v28H31.28a17.34,17.34,0,0,0-.28,3,17,17,0,1,0,17-17ZM8,14.3v-6H47v6Zm5.5,28v-25h28V32.6a17.09,17.09,0,0,0-9.39,9.7ZM48,62.3a14,14,0,1,1,14-14A14,14,0,0,1,48,62.3Z"/><path class="cls-1" d="M48.64,46.87a8.18,8.18,0,0,1-2.14-1.28,1.94,1.94,0,0,1-.62-1.49,2.42,2.42,0,0,1,.55-1.63A1.87,1.87,0,0,1,48,41.82a2.19,2.19,0,0,1,1.77.71,3.12,3.12,0,0,1,.61,2.09h3.35l0-.07a5,5,0,0,0-1.52-3.93A5.85,5.85,0,0,0,48,39.16a5.87,5.87,0,0,0-4,1.37,4.5,4.5,0,0,0-1.58,3.56,4.31,4.31,0,0,0,1.38,3.41,12.33,12.33,0,0,0,4.12,2.19,5.56,5.56,0,0,1,2,1.2,2.46,2.46,0,0,1,.54,1.68,2.29,2.29,0,0,1-.56,1.62,2.12,2.12,0,0,1-1.66.61,2.58,2.58,0,0,1-2-.73,3.49,3.49,0,0,1-.68-2.4H42.17l0,.07A5,5,0,0,0,43.88,56a6.75,6.75,0,0,0,4.32,1.41,6.11,6.11,0,0,0,4.11-1.31,4.44,4.44,0,0,0,1.55-3.58A4.72,4.72,0,0,0,52.54,49,10.08,10.08,0,0,0,48.64,46.87Z"/></svg>