<svg id="Layer_1" data-name="Layer 1" xmlns="http://www.w3.org/2000/svg" viewBox="0 0 70 70"><defs><style>.cls-1{fill:#var(--ion-color-vh-green);}</style></defs><title>Untitled-1</title><rect class="cls-1" x="16.5" y="20.3" width="22" height="3"/><path class="cls-1" d="M48,31.3a17.53,17.53,0,0,0-3.5.36V17.3H50V5.3H5v12h5.5v28H31.28a17.34,17.34,0,0,0-.28,3,17,17,0,1,0,17-17ZM8,14.3v-6H47v6Zm5.5,28v-25h28V32.6a17.09,17.09,0,0,0-9.39,9.7ZM48,62.3a14,14,0,1,1,14-14A14,14,0,0,1,48,62.3Z"/><polygon class="cls-1" points="48.16 52.68 48.02 53.39 47.95 53.39 47.8 52.64 44.76 39.41 41.13 39.41 46.2 57.19 49.78 57.19 54.87 39.41 51.24 39.41 48.16 52.68"/></svg>