<svg xmlns="http://www.w3.org/2000/svg" width="58.303" height="61.471" viewBox="0 0 58.303 61.471">
  <g id="Group_17462" data-name="Group 17462" transform="translate(-18 -4.766)">
    <path id="Path_31773" data-name="Path 31773" d="M46.734,99.714a.734.734,0,0,0,.734-.734v-.245a.734.734,0,1,0-1.469,0v.245A.734.734,0,0,0,46.734,99.714Z" transform="translate(-24.573 -81.823)" fill=""/>
    <path id="Path_31774" data-name="Path 31774" d="M46,131.995a.734.734,0,1,0,1.469,0v-11.26a.734.734,0,1,0-1.469,0Z" transform="translate(-24.573 -101.13)" fill=""/>
    <path id="Path_31775" data-name="Path 31775" d="M77,271.576a.78.78,0,0,0,.793.726h7.9a.726.726,0,0,0,.733-.72v-1.307a.734.734,0,0,0-1.469,0v.558H78.469v-6.365h5.844a.734.734,0,0,0,0-1.469h-6.52a.741.741,0,0,0-.793.677Z" transform="translate(-51.779 -226.627)" fill=""/>
    <path id="Path_31776" data-name="Path 31776" d="M112.528,279.128l-2.932,2.458-1-1a.734.734,0,1,0-1.047,1.03l.008.008,1.477,1.477a.734.734,0,0,0,.991.043l3.447-2.89a.735.735,0,1,0-.944-1.126Z" transform="translate(-78.403 -240.631)" fill=""/>
    <path id="Path_31777" data-name="Path 31777" d="M180.275,281.469h10.947a.734.734,0,1,0,0-1.469H180.275a.734.734,0,0,0,0,1.469Z" transform="translate(-141.769 -241.547)" fill=""/>
    <path id="Path_31778" data-name="Path 31778" d="M180.275,310.469h16.6a.734.734,0,0,0,0-1.469h-16.6a.734.734,0,0,0,0,1.469Z" transform="translate(-141.769 -266.997)" fill=""/>
    <path id="Path_31779" data-name="Path 31779" d="M77,385.69a.734.734,0,0,0,.734.734H85.69a.734.734,0,0,0,.734-.734v-7.956A.734.734,0,0,0,85.69,377H77.734a.734.734,0,0,0-.734.734Zm1.469-7.221h6.487v6.487H78.469Z" transform="translate(-51.779 -326.674)" fill=""/>
    <path id="Path_31780" data-name="Path 31780" d="M180.275,396.469h10.947a.734.734,0,1,0,0-1.469H180.275a.734.734,0,0,0,0,1.469Z" transform="translate(-141.769 -342.471)" fill=""/>
    <path id="Path_31781" data-name="Path 31781" d="M84.312,149h-6.52a.831.831,0,0,0-.793.785v7.9a.792.792,0,0,0,.793.741h7.9a.739.739,0,0,0,.733-.741v-1.3a.734.734,0,0,0-1.469,0v.573H78.469v-6.487h5.844a.734.734,0,0,0,0-1.469Z" transform="translate(-51.779 -126.58)" fill=""/>
    <path id="Path_31782" data-name="Path 31782" d="M113.644,166.1a.734.734,0,0,0-1.034-.091l-2.931,2.458-1-1a.734.734,0,0,0-1.038,1.039l1.477,1.478a.734.734,0,0,0,.991.044l3.447-2.89a.734.734,0,0,0,.09-1.035Z" transform="translate(-78.484 -141.358)" fill=""/>
    <path id="Path_31783" data-name="Path 31783" d="M180.275,168.469h10.947a.734.734,0,1,0,0-1.469H180.275a.734.734,0,0,0,0,1.469Z" transform="translate(-141.769 -142.377)" fill=""/>
    <path id="Path_31784" data-name="Path 31784" d="M180.275,197.469h16.6a.734.734,0,0,0,0-1.469h-16.6a.734.734,0,0,0,0,1.469Z" transform="translate(-141.769 -167.828)" fill=""/>
    <path id="Path_31785" data-name="Path 31785" d="M68.544,34.928,63.164,40.3V15.651a4.384,4.384,0,0,0-4.4-4.37H57.534V9.363a4.529,4.529,0,0,0-9.057,0v1.918H32.565V9.295a4.529,4.529,0,1,0-9.057,0v1.987H22.367A4.367,4.367,0,0,0,18,15.649h0v4.2a.734.734,0,1,0,1.469,0v-4.2a2.9,2.9,0,0,1,2.9-2.9h1.138v2.393a.8.8,0,0,0,.752.789h7.531a.818.818,0,0,0,.774-.789V12.75H48.477v2.393a.767.767,0,0,0,.716.789h7.669a.734.734,0,0,0,.673-.789V12.75h1.219A2.913,2.913,0,0,1,61.7,15.634c0,.006,0,.012,0,.017V41.767L51.316,52.124a.738.738,0,0,0-.173.268L49.8,56.078H38.506a.734.734,0,1,0,0,1.469H49.265l-1.231,3.378a.734.734,0,0,0,.941.941l8.532-3.109a.736.736,0,0,0,.268-.171l3.92-3.928v7.172a2.937,2.937,0,0,1-2.937,2.937H22.367a2.9,2.9,0,0,1-2.9-2.9V24.99a.734.734,0,1,0-1.469,0V61.87a4.367,4.367,0,0,0,4.367,4.367H58.753a4.424,4.424,0,0,0,4.411-4.411V53.187L74.971,41.358h0a4.545,4.545,0,0,0-6.427-6.429h0ZM31.1,14.464h-6.12V9.295a3.06,3.06,0,0,1,6.12,0Zm24.969,0h-6.12v-5.1a3.06,3.06,0,0,1,6.12,0Zm10.493,24.52,1.679,1.679L54.563,54.336l-1.692-1.692Zm-16.6,20.962.628-1.724,1.1,1.1ZM53.2,58.763,51.136,56.7l.992-2.723,3.794,3.794Zm4.056-1.736L55.6,55.374,69.275,41.7l1.64,1.641ZM73.932,40.32,71.953,42.3,67.6,37.947l1.982-1.978a3.078,3.078,0,0,1,4.352,4.352Z" fill=""/>
  </g>
</svg>
