<svg id="Layer_1" data-name="Layer 1" xmlns="http://www.w3.org/2000/svg" viewBox="0 0 61 61"><defs><style></style></defs><title>01 ICON</title><path class="cls-1" d="M7.64,26.49A1.5,1.5,0,0,0,9.14,28H22.58a1.5,1.5,0,0,0,0-3H9.14A1.5,1.5,0,0,0,7.64,26.49Z"/><path class="cls-1" d="M31.64,33.49a1.5,1.5,0,0,0-1.5-1.5h-21a1.5,1.5,0,1,0,0,3h21A1.5,1.5,0,0,0,31.64,33.49Z"/><path class="cls-1" d="M9.14,39a1.5,1.5,0,0,0,0,3H19.7a1.5,1.5,0,0,0,0-3Z"/><path class="cls-1" d="M42.5.5c-9.93,0-18,7.18-18,16,0,8.14,6.88,14.86,15.74,15.86a6.63,6.63,0,0,1-2.07,2,1.45,1.45,0,0,0-.86,1.36c0,2.58,2.49,3.75,4.81,3.75,6.17,0,9.2-5.34,10.37-9.73a15.59,15.59,0,0,0,8-13.26C60.5,7.68,52.43.5,42.5.5Zm7.35,27.32h0c-.53,2.74-2.31,8.67-7.73,8.67a4.29,4.29,0,0,1-1.34-.26,11.17,11.17,0,0,0,3.88-6.85v0h0a17.64,17.64,0,0,1-2.19.15c-8.27,0-15-5.83-15-13s6.73-13,15-13,15,5.83,15,13C57.5,21.35,54.41,25.59,49.85,27.82Z"/><path class="cls-1" d="M43.33,42.49h-.65a1.17,1.17,0,0,0-1.17,1.17,4.84,4.84,0,0,1-4.84,4.84H22.05c-.38,0-2.15.39-1.92,1.77a11.19,11.19,0,0,0,3.9,7,4.29,4.29,0,0,1-1.33.26C18,57.5,16,53,15.24,50.06h0v0l0-.11a1.86,1.86,0,0,0-1.92-1.42H8.33a4.84,4.84,0,0,1-4.84-4.84V23.32a4.84,4.84,0,0,1,4.84-4.84h12a1.17,1.17,0,0,0,1.17-1.17v-.65a1.17,1.17,0,0,0-1.17-1.17h-12A7.83,7.83,0,0,0,.5,23.32V43.66a7.84,7.84,0,0,0,7.83,7.83h3.26a1.45,1.45,0,0,1,1.33,1.15,1.56,1.56,0,0,0,.11.26c1.51,3.82,4.47,7.6,9.67,7.6,2.31,0,4.8-1.17,4.8-3.75a1.45,1.45,0,0,0-.86-1.36,7,7,0,0,1-2.68-3c-.25-.89.59-.86.59-.86H36.67a7.82,7.82,0,0,0,7.83-7.83h0A1.17,1.17,0,0,0,43.33,42.49Z"/><path class="cls-1" d="M42.43,7.52A6.34,6.34,0,0,0,38.07,9a5.05,5.05,0,0,0-1.67,2.75.78.78,0,0,0,.7.91l1.13.14c1.27,0,1.36-.81,1.36-.81a3.19,3.19,0,0,1,3-2,3,3,0,0,1,2.07.69,2.11,2.11,0,0,1,.76,1.64A2.05,2.05,0,0,1,45,13.63a14.82,14.82,0,0,1-1.72,1.53,7.34,7.34,0,0,0-1.92,2.11,5.24,5.24,0,0,0-.48,2.39c0,.1,0,.36,0,.79h3a4.78,4.78,0,0,1,.22-1.89,5.07,5.07,0,0,1,1.3-1.39A13.63,13.63,0,0,0,48,14.52a3.8,3.8,0,0,0,.61-2.06A4.48,4.48,0,0,0,46.94,9,6.6,6.6,0,0,0,42.43,7.52Z"/><path class="cls-1" d="M42.34,22.45A1.51,1.51,0,1,0,43.85,24,1.5,1.5,0,0,0,42.34,22.45Z"/></svg>