<svg id="Layer_1" data-name="Layer 1" xmlns="http://www.w3.org/2000/svg" viewBox="0 0 70 70"><defs><style></style></defs><title>Tu dong doi soat dong tien</title><path class="cls-1" d="M36.38,33.64l-1.15-.34a5.29,5.29,0,0,1-1-.4,1.35,1.35,0,0,1-.79-1.27A1.46,1.46,0,0,1,34,30.37,2,2,0,0,1,37,31a1.57,1.57,0,0,0,1.5,1.5A1.5,1.5,0,0,0,40,31a4.48,4.48,0,0,0-3.23-3.77V25.8a1.5,1.5,0,0,0-3,0v1.49A4.72,4.72,0,0,0,32,28.34a4.39,4.39,0,0,0-1.43,3.35A3.94,3.94,0,0,0,31.9,34.9a5.42,5.42,0,0,0,1.37.79,12,12,0,0,0,1.54.54c.44.13.82.26,1.09.37a4.27,4.27,0,0,1,.87.49,1.79,1.79,0,0,1,.74,1.51,2,2,0,0,1-.64,1.52,2.09,2.09,0,0,1-1.53.61,1.91,1.91,0,0,1-2.22-1.9v-.59a1.5,1.5,0,1,0-3,0v.26a4.84,4.84,0,0,0,3.66,4.83V44.8a1.5,1.5,0,0,0,3,0V43.33a5,5,0,0,0,2.15-1.21,4.78,4.78,0,0,0,1.52-3.58,4.62,4.62,0,0,0-1.19-3.21A6.31,6.31,0,0,0,36.38,33.64Z"/><path class="cls-1" d="M63.09,16.91a1.48,1.48,0,0,0-.74.87l-1.51,4.78a30,30,0,0,0-54.6.64,1.5,1.5,0,0,0,1.38,2.1h0A1.51,1.51,0,0,0,9,24.39a27,27,0,0,1,49.08-.62l-4.52-1.43a1.5,1.5,0,0,0-1.14.09h0a1.51,1.51,0,0,0,.23,2.77l8.11,2.57a1.5,1.5,0,0,0,1.88-1l2.57-8.1A1.5,1.5,0,0,0,63.09,16.91Z"/><path class="cls-1" d="M63,45.3h0a1.49,1.49,0,0,0-1.37.91,27,27,0,0,1-49.08.61L17,48.26a1.5,1.5,0,0,0,.91-2.86l-8.1-2.57a1.51,1.51,0,0,0-1.89,1L5.36,51.9a1.5,1.5,0,0,0,2.12,1.79h0a1.5,1.5,0,0,0,.74-.88L9.74,48a30,30,0,0,0,54.6-.64A1.5,1.5,0,0,0,63,45.3Z"/><path class="cls-1" d="M35.29,19.3a16,16,0,1,0,16,16A16,16,0,0,0,35.29,19.3Zm0,29a13,13,0,1,1,13-13A13,13,0,0,1,35.29,48.3Z"/><path class="cls-1" d="M37,12.38A22.94,22.94,0,0,0,12.37,37a1.5,1.5,0,0,0,2.56.95,1.47,1.47,0,0,0,.42-1.18A20,20,0,0,1,36.79,15.37a1.5,1.5,0,1,0,.23-3Z"/><path class="cls-1" d="M33.79,55.23a1.5,1.5,0,1,0-.24,3A23,23,0,0,0,58.21,33.56a1.5,1.5,0,1,0-3,.24A20,20,0,0,1,33.79,55.23Z"/></svg>