<svg id="Layer_1" data-name="Layer 1" xmlns="http://www.w3.org/2000/svg" viewBox="0 0 70 70"><defs><style></style></defs><title>Doi soat hàng</title><path class="cls-1" d="M37.12,37.83,35.5,36.21a.7.7,0,0,0-1,0l-1.62,1.62-2.53,2.52a1.51,1.51,0,0,0,0,2.12,1.49,1.49,0,0,0,2.12,0l1-1v4a1.5,1.5,0,0,0,3,0v-4l1,1a1.49,1.49,0,0,0,2.12,0,1.51,1.51,0,0,0,0-2.12Z"/><path class="cls-1" d="M65,57.05v-3s0,0,0,0a0,0,0,0,0,0,0v-7h0V41a2.93,2.93,0,0,0-.69-1.94L57.63,29.5a3.76,3.76,0,0,0-3-1.5h-1.9V23.06h0V18A2.93,2.93,0,0,0,52,16.06L45.36,6.5a3.77,3.77,0,0,0-3-1.5H27.65a3.77,3.77,0,0,0-3,1.5L18,16.06A2.93,2.93,0,0,0,17.3,18v5.06h0V28h-1.9a3.76,3.76,0,0,0-3,1.5L5.72,39.06A2.93,2.93,0,0,0,5,41v6.06H5v7a0,0,0,0,0,0,.06V57a0,0,0,0,0,0,.06v4.17A3.74,3.74,0,0,0,8.73,65h26L35,65l.23,0h26A3.74,3.74,0,0,0,65,61.25V57.08A0,0,0,0,0,65,57.05ZM52.72,31h1.9a.75.75,0,0,1,.64.35L61,39.85A.7.7,0,0,1,60.48,41H52.74l0-9.92a0,0,0,0,0,0,0S52.72,31,52.72,31ZM21.26,16.85,27,8.35A.75.75,0,0,1,27.65,8c.22,0,2.8,0,5.35,0s9.13,0,9.35,0a.75.75,0,0,1,.64.35l5.75,8.5A.7.7,0,0,1,48.21,18H21.79A.7.7,0,0,1,21.26,16.85Zm-1,14.2V22a1,1,0,0,1,1-1H48.74a1,1,0,0,1,1,1V39.26A1.75,1.75,0,0,1,48,41H46.72a11.73,11.73,0,0,0-23.44,0H22a1.75,1.75,0,0,1-1.75-1.74ZM35,50.25a8.75,8.75,0,1,1,8.75-8.75A8.77,8.77,0,0,1,35,50.25ZM9,39.85l5.75-8.5a.75.75,0,0,1,.64-.35h1.9a0,0,0,0,0,0,0s0,0,0,0l0,9.93H9.52A.7.7,0,0,1,9,39.85ZM33.5,54.06v3h0v3.2A1.75,1.75,0,0,1,31.76,62h-22A1.75,1.75,0,0,1,8,60.26V45a1,1,0,0,1,1-1H23.52a11.75,11.75,0,0,0,10,9.14V54h0Zm28.5-7v13.2A1.75,1.75,0,0,1,60.25,62h-22a1.74,1.74,0,0,1-1.74-1.74v-3.2h0v-3h0v-.9a11.75,11.75,0,0,0,10-9.14H61a1,1,0,0,1,1,1Z"/></svg>