<svg id="Layer_1" data-name="Layer 1" xmlns="http://www.w3.org/2000/svg" viewBox="0 0 60 60"><defs><style></style></defs><title>Excel</title><path class="cls-1" d="M5.29,59.3l34,6V5.3l-34,6Zm3-45.49,28-4.94V61.72l-28-4.94Z" transform="translate(-5.29 -5.3)"/><polygon class="cls-1" points="21.87 16 17 26.45 12.13 16 8.82 16 15.35 30 8.82 44 12.13 44 17 33.55 21.87 44 25.18 44 18.66 30 25.18 16 21.87 16"/><path class="cls-1" d="M42.29,11.3v3h8.5v6h-8.5v3h8.5v6h-8.5v3h8.5v6h-8.5v3h8.5v6h-8.5v3h8.5v6h-8.5v3h23v-48Zm11.5,3h8.5v6h-8.5Zm0,9h8.5v6h-8.5Zm0,9h8.5v6h-8.5Zm0,9h8.5v6h-8.5Zm4.87,15H53.79v-6h8.5v6Z" transform="translate(-5.29 -5.3)"/></svg>