<svg xmlns="http://www.w3.org/2000/svg" width="26.389" height="13.916" viewBox="0 0 26.389 13.916">
  <g id="Group_16698" data-name="Group 16698" transform="translate(0 -121)">
    <g id="Group_16699" data-name="Group 16699" transform="translate(-0.001 121)">
      <g id="Group_16698-2" data-name="Group 16698" transform="translate(0)">
        <path id="Path_31478" data-name="Path 31478" d="M26.191,127.442c-.236-.263-5.9-6.442-13-6.442S.432,127.18.2,127.442a.773.773,0,0,0,0,1.031c.236.263,5.9,6.442,13,6.442s12.762-6.18,13-6.442A.773.773,0,0,0,26.191,127.442Zm-13,5.927a5.412,5.412,0,1,1,5.412-5.412A5.418,5.418,0,0,1,13.194,133.37Z" transform="translate(0.001 -121)" fill="var(--ion-color-vh-red);"/>
      </g>
    </g>
    <g id="Group_16701" data-name="Group 16701" transform="translate(9.328 124.092)">
      <g id="Group_16700" data-name="Group 16700" transform="translate(0 0)">
        <path id="Path_31479" data-name="Path 31479" d="M185.639,183.319a2.312,2.312,0,0,1,.973-1.883,3.816,3.816,0,0,0-1.747-.437,3.866,3.866,0,1,0,3.8,4.517A2.306,2.306,0,0,1,185.639,183.319Z" transform="translate(-181 -181)" fill="var(--ion-color-vh-red);"/>
      </g>
    </g>
  </g>
</svg>
