<svg id="Layer_1" data-name="Layer 1" xmlns="http://www.w3.org/2000/svg" viewBox="0 0 70 70"><defs><style>.cls-1{fill:#var(--ion-color-vh-green);}</style></defs><title>Hang hoa</title><path class="cls-1" d="M5.21,48.43l1.62-1.62,5.35-5.35a1.5,1.5,0,1,1,2.12,2.12l-3.85,3.85H29.5a1.5,1.5,0,1,1,0,3h-19l3.85,3.86a1.49,1.49,0,0,1,0,2.12,1.51,1.51,0,0,1-2.12,0L6.83,51.05,5.21,49.43A.7.7,0,0,1,5.21,48.43Z"/><path class="cls-1" d="M58.5,18A6.5,6.5,0,1,0,52,11.5,6.51,6.51,0,0,0,58.5,18Zm0-3A3.5,3.5,0,1,1,62,11.5,3.5,3.5,0,0,1,58.5,15Z"/><path class="cls-1" d="M23,32.87l4.42,1.65,3,1.13,7,2.62a4.57,4.57,0,0,0,1.53.27c-1.29,3.25-3.17,8.39-3.17,10.84,0,.35,0,.8,0,1.32-.11,5.6,0,11.24,2.06,13.38A3,3,0,0,0,40,65h1.47a3.86,3.86,0,0,0,2.6-1,4.27,4.27,0,0,0,1.17-3.27c-.06-2.62-.84-9.46-1-11.09.33-1,1.36-3.86,2.42-6.36,0,2.35.11,5,.26,6.4C47.16,52.19,52.77,65,56.62,65h1.44a4.41,4.41,0,0,0,3.35-1.52,3.42,3.42,0,0,0,.37-3.2c-1-3.08-5-10.52-5.93-12.15-.25-4.87-.15-12.15.82-13.72l0,0a2.94,2.94,0,0,0,.21-.54l1.47-5.3h0l1.2-4.15c.51-1.23.57-4.13-2.89-6.3-2.36-1.47-4.41-1.81-6.08-1a2.4,2.4,0,0,0-.51.31,1.35,1.35,0,0,0-.25,1.76c.62,1.06,2,.63,2,.63.68-.32,1.82,0,3.21.86,2.07,1.29,1.74,2.5,1.65,2.76l-.94,3.25s0,0,0,.06l-1.68,6.07a.8.8,0,0,1-.3.44A53.79,53.79,0,0,1,47.93,37c-1.65.78-3.66,1.08-4.49.67a.56.56,0,0,1-.35-.46c-.31-1.43.4-1.92.6-2l7.78-4.62a.79.79,0,0,0,.38-.53l1.37-6.31a.84.84,0,0,0-.64-1l-1.32-.28a.82.82,0,0,0-1,.63l-1.08,5a.81.81,0,0,1-.39.53l-3.74,2.23,3.07-8.2a4.49,4.49,0,0,0-2.62-5.76l-14.45-5.4a3.83,3.83,0,0,0-.72-.19,5,5,0,0,0-3,.47,4.42,4.42,0,0,0-2.05,2.34l-1.59,4.25-1.13,3L20.41,27.1A4.49,4.49,0,0,0,23,32.87ZM49.6,39.48A38.76,38.76,0,0,0,53,37.41a82.45,82.45,0,0,0-.11,11.23l0,.35.17.3c0,.08,4.88,8.79,5.86,11.9a1,1,0,0,1,.07.52,1.62,1.62,0,0,1-.94.29L56.8,62c-1.64-.68-6.62-9.81-6.92-12.69C49.66,47.18,49.61,41.66,49.6,39.48Zm-8,.56a3.7,3.7,0,0,0,.47.29,5.31,5.31,0,0,0,2.31.49,60.4,60.4,0,0,0-2.76,8l-.11.32,0,.34c0,.08.59,8.5.65,11.28a1.49,1.49,0,0,1-.25,1,.89.89,0,0,1-.55.2l-1.38,0c-.54-.33-1.42-2.22-1.26-11.26,0-.55,0-1,0-1.38C38.83,47.87,40.26,43.66,41.65,40ZM23.22,28.16l4.9-13a1.48,1.48,0,0,1,1.9-.86l14.45,5.4a1.48,1.48,0,0,1,.86,1.9l-4.9,13a1.48,1.48,0,0,1-1.9.86l-14.45-5.4A1.48,1.48,0,0,1,23.22,28.16Z"/></svg>