<svg id="Layer_1" data-name="Layer 1" xmlns="http://www.w3.org/2000/svg" viewBox="0 0 70 70"><defs><style>.cls-1{fill:#var(--ion-color-vh-green)}</style></defs><title>Phat hang hoa don</title><path class="cls-1" d="M40.32,25.5A6.42,6.42,0,0,0,37,24.8l-1.19,0a6,6,0,0,1-1.05-.07,1.34,1.34,0,0,1-1.14-1,1.47,1.47,0,0,1,.1-1.37,2,2,0,0,1,3.07-.36,1.54,1.54,0,0,0,1.89,1,1.5,1.5,0,0,0,1-1.9,4.48,4.48,0,0,0-4.25-2.56l-.13-.4a1.5,1.5,0,0,0-2.85.94l.15.47a4.63,4.63,0,0,0-1.41,1.57,4.38,4.38,0,0,0-.31,3.63,3.94,3.94,0,0,0,2.32,2.61,5.72,5.72,0,0,0,1.55.33,13.6,13.6,0,0,0,1.63,0,10.51,10.51,0,0,1,1.15,0,4,4,0,0,1,1,.19,1.76,1.76,0,0,1,1.17,1.2,2,2,0,0,1-.12,1.64,2.1,2.1,0,0,1-1.27,1.06,1.91,1.91,0,0,1-2.7-1.1l-.19-.57a1.5,1.5,0,0,0-2.85.94l.09.25a5,5,0,0,0,2.59,3,4.83,4.83,0,0,0,2.41.44l.14.44a1.5,1.5,0,1,0,2.85-.94l-.14-.44a5,5,0,0,0,1.65-1.83,4.76,4.76,0,0,0,.33-3.87A4.66,4.66,0,0,0,40.32,25.5Z"/><path class="cls-1" d="M51.53,35.46,29.69,42.67a1.5,1.5,0,0,0,.94,2.85l21.84-7.21a1.5,1.5,0,0,0-.94-2.85Z"/><path class="cls-1" d="M30.62,50.27a1.5,1.5,0,0,0,1.89.95L54.35,44a1.5,1.5,0,1,0-.94-2.85L31.57,48.37A1.51,1.51,0,0,0,30.62,50.27Z"/><path class="cls-1" d="M64.52,44.5l-1.43-4.32L53.13,10h0a6.55,6.55,0,0,0-.57-1.26A6.81,6.81,0,0,0,48,5.46l-.14,0-.19,0a6.75,6.75,0,0,0-2.49.08l-.16,0-.51.14h0a1.17,1.17,0,0,0-.69,1.55l.19.58a1.14,1.14,0,0,0,1.44.72A3.85,3.85,0,0,1,50.28,11l10,30.17,1.42,4.32a3.84,3.84,0,0,1-2.44,4.85L55,51.7,32.34,59.18a3.85,3.85,0,0,1-4.85-2.44L19.71,33.19a7.5,7.5,0,0,0,6.16-7.37V20.23h0V16a4.89,4.89,0,0,0-.12-1l.85-.28,13.47-4.45a1.5,1.5,0,1,0-.94-2.85l-8.84,2.92a10,10,0,0,0-1.16-1.58l0,0A10.66,10.66,0,0,0,27,7l-.13-.08a11.21,11.21,0,0,0-1.08-.58l-.15-.07a10.53,10.53,0,0,0-1.26-.47l-.19,0a9.93,9.93,0,0,0-1.11-.24l-.34,0a10,10,0,0,0-1.35-.1h0a10.51,10.51,0,0,0-10.48,10,6.9,6.9,0,0,0-2.27.69l-.17.09-.12.07A6.84,6.84,0,0,0,5,20.78a13.66,13.66,0,0,0-.14,1.38V53.32a1.5,1.5,0,0,0,3,0V22.16a3.83,3.83,0,0,1,3-3.74v7.4a7.5,7.5,0,0,0,5.64,7.26l8.13,24.6h0a6.88,6.88,0,0,0,5.15,4.55.7.7,0,0,0,.14,0l.18,0,.3,0H11.71a3.84,3.84,0,0,1-3.84-3.84,1.16,1.16,0,0,0-1.16-1.16H6a1.16,1.16,0,0,0-1.16,1.16,6.84,6.84,0,0,0,6.84,6.84H40a4.71,4.71,0,0,0,.53,0h.17a6.68,6.68,0,0,0,2.39-.7l.17-.09.12-.07a6.84,6.84,0,0,0,3.32-4.56,7,7,0,0,0,.14-1.38h0v-.95l9-3,4.27-1.41A6.83,6.83,0,0,0,64.52,44.5ZM13.87,25.82v-10a7.5,7.5,0,0,1,7.5-7.5h0a7.37,7.37,0,0,1,.82,0l.24,0,.56.1.26.07a4.44,4.44,0,0,1,.52.15l.25.09.5.21.22.11.51.28.16.1c.19.12.38.26.56.39L26,10a8.19,8.19,0,0,1,1.15,1.13h0l.16.23-1.69.56-1.47.49a4.26,4.26,0,0,0-2.37-1,4.51,4.51,0,0,0-4.95,4.48v8a1.5,1.5,0,0,0,1.5,1.5h0a1.5,1.5,0,0,0,1.5-1.5v-8a1.5,1.5,0,1,1,3,0v10a4.5,4.5,0,1,1-9,0ZM40,62.32H32c.21,0,.43-.06.65-.11l.16,0,.51-.15h0l10.58-3.49A3.83,3.83,0,0,1,40,62.32Z"/></svg>