<svg id="Layer_1" data-name="Layer 1" xmlns="http://www.w3.org/2000/svg" viewBox="0 0 70 70"><defs><style>.cls-1{fill:#var(--ion-color-vh-green);}</style></defs><title>Hang hoa</title><path class="cls-1" d="M64.79,48.43l-1.62-1.62-5.35-5.35a1.5,1.5,0,0,0-2.12,2.12l3.85,3.85h-19a1.5,1.5,0,0,0,0,3h19L55.7,54.29a1.49,1.49,0,0,0,0,2.12,1.51,1.51,0,0,0,2.12,0l5.35-5.36,1.62-1.62A.7.7,0,0,0,64.79,48.43Z"/><path class="cls-1" d="M18,11.5A6.5,6.5,0,1,0,11.5,18,6.51,6.51,0,0,0,18,11.5Zm-10,0A3.5,3.5,0,1,1,11.5,15,3.5,3.5,0,0,1,8,11.5Z"/><path class="cls-1" d="M49.59,27.1l-2.18-5.75-1.13-3L44.69,14.1a4.42,4.42,0,0,0-2-2.34,5,5,0,0,0-3-.47,3.83,3.83,0,0,0-.72.19l-14.45,5.4a4.49,4.49,0,0,0-2.62,5.76l3.07,8.2-3.74-2.23a.81.81,0,0,1-.39-.53l-1.08-5a.82.82,0,0,0-1-.63l-1.32.28a.84.84,0,0,0-.64,1L18.15,30a.79.79,0,0,0,.38.53l7.78,4.62c.2.12.91.61.6,2a.56.56,0,0,1-.35.46c-.83.41-2.84.11-4.49-.67a53.79,53.79,0,0,1-5.82-3.74.8.8,0,0,1-.3-.44l-1.68-6.07s0,0,0-.06l-.94-3.25c-.09-.26-.42-1.47,1.65-2.76,1.39-.87,2.53-1.18,3.21-.86,0,0,1.42.43,2-.63A1.35,1.35,0,0,0,20,17.4a2.4,2.4,0,0,0-.51-.31c-1.67-.8-3.72-.46-6.08,1-3.46,2.17-3.4,5.07-2.89,6.3l1.2,4.15h0l1.47,5.3a2.94,2.94,0,0,0,.21.54l0,0c1,1.57,1.07,8.85.82,13.72-.9,1.63-5,9.07-5.93,12.15a3.42,3.42,0,0,0,.37,3.2A4.41,4.41,0,0,0,11.94,65h1.44c3.85,0,9.46-12.81,9.72-15.35.15-1.41.22-4,.26-6.4,1.06,2.5,2.09,5.4,2.42,6.36-.19,1.63-1,8.47-1,11.09A4.27,4.27,0,0,0,25.92,64a3.86,3.86,0,0,0,2.6,1H30a3,3,0,0,0,2.13-.92c2.09-2.14,2.17-7.78,2.06-13.38,0-.52,0-1,0-1.32,0-2.45-1.88-7.59-3.17-10.84a4.57,4.57,0,0,0,1.53-.27l7-2.62,3-1.13L47,32.87A4.49,4.49,0,0,0,49.59,27.1ZM20.12,49.34c-.3,2.88-5.28,12-6.92,12.69L12,62a1.62,1.62,0,0,1-.94-.29,1,1,0,0,1,.07-.52c1-3.11,5.81-11.81,5.86-11.9l.17-.3,0-.35A82.45,82.45,0,0,0,17,37.41a38.76,38.76,0,0,0,3.38,2.07C20.39,41.66,20.34,47.18,20.12,49.34Zm11.05,0c0,.36,0,.83,0,1.38.16,9-.72,10.93-1.26,11.26l-1.38,0a.89.89,0,0,1-.55-.2,1.49,1.49,0,0,1-.25-1c.06-2.78.64-11.2.65-11.28l0-.34-.11-.32a60.4,60.4,0,0,0-2.76-8,5.31,5.31,0,0,0,2.31-.49,3.7,3.7,0,0,0,.47-.29C29.74,43.66,31.17,47.87,31.17,49.38ZM45.92,30.06l-14.45,5.4a1.48,1.48,0,0,1-1.9-.86l-4.9-13a1.48,1.48,0,0,1,.86-1.9L40,14.29a1.48,1.48,0,0,1,1.9.86l4.9,13A1.48,1.48,0,0,1,45.92,30.06Z"/></svg>