<svg id="svg8" xmlns="http://www.w3.org/2000/svg" xmlns:xlink="http://www.w3.org/1999/xlink" viewBox="0 0 1163.01 304.75"><defs><style>.cls-1{fill:#000083;}.cls-2{fill:url(#linear-gradient);}.cls-3{fill:url(#linear-gradient-2);}.cls-4{fill:url(#linear-gradient-3);}</style><linearGradient id="linear-gradient" x1="146.1" y1="664.84" x2="212.86" y2="665.35" gradientTransform="matrix(5.57, 0, 0, -5.57, -798.96, 4124.92)" gradientUnits="userSpaceOnUse"><stop offset="0" stop-color="#ffb900"/><stop offset="0.34" stop-color="#f38000"/><stop offset="0.57" stop-color="#f83c72"/><stop offset="0.78" stop-color="#fc1cbe"/><stop offset="0.93" stop-color="#fe08ed"/><stop offset="1" stop-color="#f0f"/></linearGradient><linearGradient id="linear-gradient-2" x1="164.87" y1="642.98" x2="232.93" y2="680.67" gradientTransform="matrix(5.57, 0, 0, -5.57, -798.96, 4124.92)" gradientUnits="userSpaceOnUse"><stop offset="0" stop-color="#ee0a3f"/><stop offset="1" stop-color="#ee0a3f" stop-opacity="0"/></linearGradient><linearGradient id="linear-gradient-3" x1="245" y1="653.61" x2="278.24" y2="680.39" gradientTransform="translate(1509.09 4083.42) rotate(180) scale(5.51)" gradientUnits="userSpaceOnUse"><stop offset="0" stop-color="#ed6600"/><stop offset="1" stop-color="#f98200"/></linearGradient></defs><title>lazada-seeklogo</title><g id="layer1"><g id="g975"><g id="layer1-5"><g id="layer1-2"><g id="g1006"><g id="g35"><path id="path33" class="cls-1" d="M489.09,311.2h26.34V438h45.42v25H489.2l-.11-151.77" transform="translate(-13.77 -268.57)"/></g><g id="g41"><path id="path39" class="cls-1" d="M621.86,349.22a44.68,44.68,0,0,1,35.77,17.2V351.48H682.2V463.19H657.63V448.26a44.64,44.64,0,0,1-35.77,17.19c-30.65,0-53.9-26.17-53.9-58.14s23.25-58.09,53.9-58.09m4.46,22.38c-19.89,0-33.07,15.65-33.07,35.71s13.39,35.77,33.07,35.77,33.07-15.65,33.07-35.77-13.18-35.71-33.07-35.71" transform="translate(-13.77 -268.57)"/></g><g id="g47"><path id="path45" class="cls-1" d="M701.33,443.8l58.58-70h-57.7V351.48h89.45v19.68l-58.37,69.71H793v22.32H701.33V443.8" transform="translate(-13.77 -268.57)"/></g><g id="g53"><path id="path51" class="cls-1" d="M855.48,349.22a44.64,44.64,0,0,1,35.76,17.2V351.48h24.58V463.19H891.24V448.26a44.61,44.61,0,0,1-35.76,17.19c-30.64,0-53.85-26.17-53.85-58.14s23.21-58.09,53.85-58.09m4.46,22.38c-19.9,0-33.07,15.65-33.07,35.71s13.4,35.77,33.07,35.77S893,427.43,893,407.31s-13.17-35.71-33.07-35.71" transform="translate(-13.77 -268.57)"/></g><g id="g59"><path id="path57" class="cls-1" d="M986,349.22a44.49,44.49,0,0,1,35.71,17.2V302.21h24.58v161h-24.58V448.26A44.45,44.45,0,0,1,986,465.45c-30.64,0-53.9-26.17-53.9-58.14s23.26-58.09,53.9-58.09m4.46,22.38c-19.9,0-33.07,15.65-33.07,35.71s13.45,35.77,33.07,35.77,33.07-15.65,33.07-35.77S1010.4,371.6,990.5,371.6" transform="translate(-13.77 -268.57)"/></g><g id="g65"><path id="path63" class="cls-1" d="M1116.54,349.22a44.48,44.48,0,0,1,35.71,17.2V351.48h24.53V463.19h-24.63V448.26a44.49,44.49,0,0,1-35.72,17.19c-30.64,0-53.9-26.17-53.9-58.14s23.37-58.09,54-58.09M1121,371.6c-19.9,0-33.07,15.65-33.07,35.71s13.45,35.77,33.07,35.77,33.06-15.65,33.06-35.77S1140.9,371.6,1121,371.6" transform="translate(-13.77 -268.57)"/></g></g><g id="g942"><g id="g71"><path id="path69" class="cls-2" d="M201.54,573.32a15.14,15.14,0,0,1-7.61-2C174.07,559.86,27,467.65,21.47,464.84a13.31,13.31,0,0,1-7.61-10.65V324.86a14,14,0,0,1,6.31-12l1.07-.61c14.23-8.82,61.85-37.88,69.38-42.06a11.38,11.38,0,0,1,5.71-1.6,11.85,11.85,0,0,1,5.4,1.37s66.64,43.44,76.83,47.32a52.65,52.65,0,0,0,22.82,4.79,51.22,51.22,0,0,0,25.56-6.24c10-5.25,73.64-45.64,74.33-45.64a10.07,10.07,0,0,1,5.32-1.45,11.13,11.13,0,0,1,5.71,1.6c8.67,4.79,67.71,40.93,70.22,42.52a13.7,13.7,0,0,1,6.61,11.87V454a13.15,13.15,0,0,1-7.6,10.65c-5.56,3-152.15,95.24-172.39,106.5a15.2,15.2,0,0,1-7.6,2.13" transform="translate(-13.77 -268.57)"/></g><g id="g79"><path id="path77" class="cls-3" d="M200.78,573.32h.76a15.13,15.13,0,0,0,7.6-2C229,559.86,376,467.65,381.53,464.84a13.15,13.15,0,0,0,7.6-10.65V324.86a13.8,13.8,0,0,0-1.44-6.31L200.78,421.17V573.32" transform="translate(-13.77 -268.57)"/></g><g id="g970"><path id="path968" class="cls-4" d="M200.13,571.5h-.76a15,15,0,0,1-7.52-2C172.2,558.18,26.79,467,21.3,464.17a13,13,0,0,1-7.53-10.54V325.69a13.8,13.8,0,0,1,1.43-6.25L200.13,421V571.5" transform="translate(-13.77 -268.57)"/></g></g></g></g></g></g></svg>