<svg id="Layer_1" data-name="Layer 1" xmlns="http://www.w3.org/2000/svg" viewBox="0 0 70 70"><defs><style></style></defs><title>Untitled-1</title><path class="cls-1" d="M63.09,16.91a1.48,1.48,0,0,0-.74.87l-1.51,4.78a30,30,0,0,0-54.6.64,1.5,1.5,0,0,0,1.38,2.1h0A1.51,1.51,0,0,0,9,24.39a27,27,0,0,1,49.08-.62l-4.52-1.43a1.5,1.5,0,0,0-1.14.09h0a1.51,1.51,0,0,0,.23,2.77l8.11,2.57a1.5,1.5,0,0,0,1.88-1l2.57-8.1A1.5,1.5,0,0,0,63.09,16.91Z"/><path class="cls-1" d="M63,45.3h0a1.49,1.49,0,0,0-1.37.91,27,27,0,0,1-49.08.61L17,48.26a1.5,1.5,0,0,0,.91-2.86l-8.1-2.57a1.51,1.51,0,0,0-1.89,1L5.36,51.9a1.5,1.5,0,0,0,2.12,1.79h0a1.5,1.5,0,0,0,.74-.88L9.74,48a30,30,0,0,0,54.6-.64A1.5,1.5,0,0,0,63,45.3Z"/><path class="cls-1" d="M35.29,19.3a16,16,0,1,0,16,16A16,16,0,0,0,35.29,19.3ZM43,45.71l-.19-.34a1.51,1.51,0,0,0-2.05-.55,1.5,1.5,0,0,0-.55,2l.2.36a12.77,12.77,0,0,1-3.65,1v-.4a1.5,1.5,0,0,0-3,0v.4a12.84,12.84,0,0,1-3.66-1l.21-.36a1.5,1.5,0,0,0-2.6-1.5l-.2.34A13,13,0,0,1,24.87,43l.34-.19a1.5,1.5,0,1,0-1.5-2.6l-.35.2a12.79,12.79,0,0,1-1-3.65h.41a1.5,1.5,0,0,0,0-3h-.41a12.85,12.85,0,0,1,1-3.66l.35.21a1.5,1.5,0,1,0,1.5-2.6l-.34-.2a13.51,13.51,0,0,1,2.67-2.67l.2.34a1.5,1.5,0,1,0,2.6-1.5l-.21-.35a12.85,12.85,0,0,1,3.66-1v.41a1.5,1.5,0,1,0,3,0v-.41a12.79,12.79,0,0,1,3.65,1l-.2.35a1.5,1.5,0,1,0,2.6,1.5l.19-.34a13,13,0,0,1,2.67,2.67l-.34.2a1.5,1.5,0,0,0,1.5,2.6l.36-.21a12.84,12.84,0,0,1,1,3.66h-.4a1.5,1.5,0,0,0,0,3h.4a12.77,12.77,0,0,1-1,3.65l-.36-.2a1.5,1.5,0,0,0-2,.55,1.51,1.51,0,0,0,.55,2.05l.34.19A12.52,12.52,0,0,1,43,45.71Z"/><path class="cls-1" d="M39.79,33.8h-3v-5a1.5,1.5,0,0,0-3,0v6.5a1.5,1.5,0,0,0,1.5,1.5h4.5a1.5,1.5,0,1,0,0-3Z"/></svg>