<svg xmlns="http://www.w3.org/2000/svg" width="299.111" height="326.767" viewBox="0 0 299.111 326.767"><defs><style>.a{fill:#f5f5f5;}.b{fill:#e0e0e0;}.c{fill:#ebebeb;}.d{fill:#263238;}.e{fill:#00a859;}.f{fill:#fafafa;}.g{opacity:0.3;}.h{fill:#ffbe9d;}.i{fill:#eb996e;}.j{fill:#455a64;}.k{fill:#67c194;}.l{fill:#9de1fc;}</style></defs><g transform="translate(-56.233 -34.047)"><g transform="translate(56.233 50.466)"><g transform="translate(0 166.705)"><path class="a" d="M148.329,398.956c17.663-15.3,19.435-40.494,16.393-62.661-.508-3.7-.5-7.657-2.6-10.733s-6.437-4.876-9.592-2.969c-2.617,1.583-3.486,4.914-4.752,7.726a21.815,21.815,0,0,1-7.83,9.216c-2.232,1.471-5.073,2.523-7.534,1.477-3.376-1.437-4.208-5.822-4.566-9.518q-1-10.332-2-20.662c-.357-3.7-.734-7.468-2.24-10.854s-4.373-6.38-7.978-7-7.731,1.853-8.1,5.544a34.33,34.33,0,0,0,.368,4.609c.056,1.544-.482,3.313-1.89,3.89-1.426.586-3.008-.31-4.22-1.276-4.186-3.335-7.26-7.872-10.163-12.4s-5.746-9.176-9.614-12.887-8.972-6.439-14.278-6.194-10.591,4.092-11.391,9.422c-.8,5.345,2.773,10.313,6.5,14.187a82.687,82.687,0,0,0,18.8,14.591,6.806,6.806,0,0,1,3.181,2.79c1.054,2.379-1.022,5.065-3.363,6.126-2.651,1.2-5.66,1.223-8.5,1.859s-5.818,2.228-6.625,5.062c-1.12,3.931,2.436,7.562,5.8,9.832a70.727,70.727,0,0,0,22.088,9.909c2.812.714,5.753,1.291,8.135,2.973s4.042,4.865,2.99,7.6-4.357,3.924-7.249,3.689-5.591-1.516-8.4-2.26c-5.259-1.392-11.76-.366-14.552,4.355-1.834,3.1-1.608,7.138-.177,10.463a27.083,27.083,0,0,0,6.524,8.55c9.1,8.7,20.273,15.312,32.436,18.18s23.157,2.847,34.387-2.639" transform="translate(-56.233 -274.247)"/><g transform="translate(4.914 3.821)"><path class="b" d="M151.865,416.609a163.389,163.389,0,0,0-9.15-29.814,332.942,332.942,0,0,0-16.769-34.273l-4.855-8.757c-1.6-2.87-3.187-5.718-4.911-8.406a166.167,166.167,0,0,0-10.788-14.879c-3.659-4.566-7.3-8.765-10.729-12.667s-6.716-7.466-9.839-10.593A131.491,131.491,0,0,0,69,283.581c-1.986-1.459-3.564-2.54-4.644-3.257l-1.232-.81a2.788,2.788,0,0,0-.433-.255,2.64,2.64,0,0,0,.393.314c.3.215.693.5,1.195.865,1.053.755,2.605,1.869,4.566,3.358a139.25,139.25,0,0,1,15.636,13.77c3.093,3.139,6.34,6.72,9.756,10.627s7.028,8.122,10.666,12.687a168.04,168.04,0,0,1,10.712,14.844c1.71,2.676,3.281,5.5,4.882,8.379s3.213,5.8,4.851,8.754a341.236,341.236,0,0,1,16.784,34.181,166.213,166.213,0,0,1,9.258,29.668" transform="translate(-62.695 -279.259)"/></g><g transform="translate(58.122 18.728)"><path class="b" d="M132.746,340a7.557,7.557,0,0,0,.2-1.613c.088-1.041.167-2.549.236-4.416.142-3.73.164-8.89.166-14.577s.1-10.835.3-14.553c.094-1.859.185-3.364.262-4.4a7.492,7.492,0,0,0,.041-1.625,7.363,7.363,0,0,0-.3,1.6c-.157,1.032-.322,2.536-.478,4.4-.324,3.723-.5,8.887-.5,14.584.012,5.613.024,10.691.033,14.571-.007,1.753-.014,3.229-.02,4.415A7.419,7.419,0,0,0,132.746,340Z" transform="translate(-132.665 -298.812)"/></g><g transform="translate(9.929 55.429)"><path class="b" d="M69.29,347.462a10.2,10.2,0,0,0,1.913.031c1.227-.017,3-.052,5.194-.024,4.386.021,10.444.262,17.115.822s12.69,1.346,17.025,2.033c2.171.328,3.921.64,5.131.849a10.218,10.218,0,0,0,1.9.264,10.142,10.142,0,0,0-1.843-.528c-1.2-.29-2.938-.676-5.106-1.068-4.327-.812-10.356-1.666-17.048-2.24a167.431,167.431,0,0,0-17.174-.621c-2.2.034-3.978.143-5.2.244A10.156,10.156,0,0,0,69.29,347.462Z" transform="translate(-69.29 -346.952)"/></g><g transform="translate(84.257 47.435)"><path class="b" d="M167.038,399.574a2.461,2.461,0,0,0,.265-.612l.633-1.8c.543-1.567,1.269-3.855,2.13-6.693,1.725-5.676,3.862-13.591,6.1-22.357s4.3-16.694,5.907-22.4c.789-2.774,1.438-5.055,1.92-6.751.205-.736.374-1.342.513-1.84a2.443,2.443,0,0,0,.134-.656,2.549,2.549,0,0,0-.265.615l-.633,1.8c-.543,1.567-1.269,3.855-2.13,6.693-1.725,5.676-3.862,13.591-6.1,22.361s-4.3,16.69-5.906,22.395c-.79,2.772-1.438,5.055-1.92,6.749-.205.736-.374,1.343-.513,1.84A2.477,2.477,0,0,0,167.038,399.574Z" transform="translate(-167.033 -336.466)"/></g><g transform="translate(19.236 96.708)"><path class="b" d="M81.528,401.106a2.551,2.551,0,0,0,.651.194l1.891.425,6.964,1.492c5.881,1.262,13.983,3.1,22.933,5.138s17.079,3.805,22.988,4.945c2.954.571,5.348,1.009,7.009,1.277l1.915.3a2.487,2.487,0,0,0,.676.056,2.6,2.6,0,0,0-.652-.194l-1.89-.424-6.963-1.493c-5.881-1.261-13.984-3.1-22.936-5.139s-17.076-3.8-22.984-4.944c-2.954-.571-5.348-1.009-7.01-1.277l-1.914-.3A2.466,2.466,0,0,0,81.528,401.106Z" transform="translate(-81.528 -401.096)"/></g></g><g transform="translate(61.521 101.102)"><g transform="translate(0 0)"><path class="b" d="M149.633,210.02a1.532,1.532,0,0,1-1.38-.87l-3.3-6.882a1.533,1.533,0,0,1,1.115-2.174,4.75,4.75,0,0,0,3.113-2.135,4.3,4.3,0,0,0,.656-3.337,4.39,4.39,0,0,0-2.141-2.67,4.873,4.873,0,0,0-3.735-.517,5.746,5.746,0,0,0-3.722,6.1,1.529,1.529,0,1,1-3.029.426,8.834,8.834,0,0,1,5.876-9.467,7.873,7.873,0,0,1,6.125.793,7.46,7.46,0,0,1,3.594,4.594,7.376,7.376,0,0,1-1.062,5.749,8,8,0,0,1-3.278,2.886l2.543,5.3a1.535,1.535,0,0,1-.717,2.045A1.518,1.518,0,0,1,149.633,210.02Z" transform="translate(-137.135 -188.196)"/></g><g transform="translate(13.418 23.121)"><path class="b" d="M157.144,219.205a1.252,1.252,0,1,1-1.684-.544A1.256,1.256,0,0,1,157.144,219.205Z" transform="translate(-154.779 -218.523)"/></g></g><g transform="translate(23.497 84.628)"><path class="a" d="M95.86,181.829a1.069,1.069,0,0,1-.963-.607l-2.3-4.806a1.07,1.07,0,0,1,.779-1.519,3.314,3.314,0,0,0,2.174-1.49A3,3,0,0,0,96,171.076a3.066,3.066,0,0,0-1.5-1.865,3.4,3.4,0,0,0-2.608-.361,4.012,4.012,0,0,0-2.6,4.261,1.068,1.068,0,1,1-2.115.3,6.17,6.17,0,0,1,4.1-6.611,5.493,5.493,0,0,1,4.277.554,5.206,5.206,0,0,1,2.51,3.208,5.146,5.146,0,0,1-.741,4.015,5.587,5.587,0,0,1-2.289,2.015l1.776,3.7a1.07,1.07,0,0,1-.963,1.534Z" transform="translate(-87.132 -166.588)"/><g transform="translate(9.37 16.146)"><path class="a" d="M101.106,188.243a.874.874,0,1,1-1.176-.38A.878.878,0,0,1,101.106,188.243Z" transform="translate(-99.454 -187.767)"/></g></g><g transform="translate(209.026 99.449)"><g transform="translate(0 2.4)"><path class="a" d="M344.053,189.788a1.075,1.075,0,0,1-.135,1.134l-3.348,4.142a1.065,1.065,0,0,1-1.7-.056,3.315,3.315,0,0,0-2.274-1.333,2.981,2.981,0,0,0-2.3.582,3.071,3.071,0,0,0-1.041,2.153,3.425,3.425,0,0,0,.79,2.517,3.994,3.994,0,0,0,4.954.532,1.07,1.07,0,0,1,1.173,1.789,6.141,6.141,0,0,1-7.715-.89,5.534,5.534,0,0,1-1.331-4.113,5.219,5.219,0,0,1,1.819-3.646,5.115,5.115,0,0,1,3.937-1.046,5.58,5.58,0,0,1,2.8,1.213l2.58-3.194a1.067,1.067,0,0,1,1.795.215Z" transform="translate(-331.109 -189.176)"/></g><g transform="translate(13.028)"><path class="a" d="M348.423,186.37a.874.874,0,1,1,.16,1.228A.872.872,0,0,1,348.423,186.37Z" transform="translate(-348.242 -186.029)"/></g></g><g transform="translate(197.878)"><g transform="translate(0 2.4)"><path class="a" d="M329.392,59.343a1.075,1.075,0,0,1-.135,1.133l-3.348,4.143a1.066,1.066,0,0,1-1.7-.056,3.317,3.317,0,0,0-2.274-1.332,2.976,2.976,0,0,0-2.3.582,3.065,3.065,0,0,0-1.041,2.152,3.424,3.424,0,0,0,.79,2.518,4,4,0,0,0,4.953.532,1.07,1.07,0,0,1,1.173,1.789,6.143,6.143,0,0,1-7.716-.89,5.534,5.534,0,0,1-1.33-4.113,5.216,5.216,0,0,1,1.818-3.647,5.115,5.115,0,0,1,3.937-1.045,5.576,5.576,0,0,1,2.8,1.212l2.58-3.194a1.069,1.069,0,0,1,1.8.216Z" transform="translate(-316.448 -58.731)"/></g><g transform="translate(13.028)"><path class="a" d="M333.761,55.925a.874.874,0,1,1,.16,1.228A.873.873,0,0,1,333.761,55.925Z" transform="translate(-333.58 -55.583)"/></g></g><g transform="translate(123.293 14.846)"><g transform="translate(0.048 3.454)"><path class="b" d="M221.488,79.586a1.391,1.391,0,0,1,1.252.789l2.992,6.245a1.392,1.392,0,0,1-1.012,1.973,4.31,4.31,0,0,0-2.825,1.937,3.9,3.9,0,0,0-.595,3.029,3.979,3.979,0,0,0,1.944,2.422,4.421,4.421,0,0,0,3.389.47,5.215,5.215,0,0,0,3.377-5.538,1.388,1.388,0,1,1,2.749-.387,8.019,8.019,0,0,1-5.333,8.591,7.144,7.144,0,0,1-5.558-.72,6.769,6.769,0,0,1-3.262-4.169,6.689,6.689,0,0,1,.963-5.217,7.269,7.269,0,0,1,2.976-2.619l-2.308-4.814a1.391,1.391,0,0,1,1.251-1.994Z" transform="translate(-218.429 -79.586)"/></g><path class="b" d="M218.492,76.713a1.136,1.136,0,1,1,1.528.494A1.14,1.14,0,0,1,218.492,76.713Z" transform="translate(-218.366 -75.056)"/></g><g transform="translate(226.454 138.199)"><g transform="translate(0.048 3.453)"><path class="b" d="M357.148,241.385a1.388,1.388,0,0,1,1.252.79l2.992,6.245a1.391,1.391,0,0,1-1.011,1.973,4.307,4.307,0,0,0-2.825,1.937,3.9,3.9,0,0,0-.595,3.028,3.981,3.981,0,0,0,1.943,2.423,4.42,4.42,0,0,0,3.389.469,5.214,5.214,0,0,0,3.377-5.537,1.388,1.388,0,1,1,2.748-.387,8.017,8.017,0,0,1-5.332,8.59,7.144,7.144,0,0,1-5.558-.72,6.77,6.77,0,0,1-3.262-4.169,6.692,6.692,0,0,1,.963-5.218,7.268,7.268,0,0,1,2.976-2.618l-2.308-4.814a1.392,1.392,0,0,1,1.251-1.994Z" transform="translate(-354.089 -241.385)"/></g><g transform="translate(0 0)"><path class="b" d="M354.152,238.513a1.136,1.136,0,1,1,1.528.494A1.14,1.14,0,0,1,354.152,238.513Z" transform="translate(-354.026 -236.855)"/></g></g><g transform="translate(169.88 181.33)"><path class="c" d="M360.067,294.11s-5.846-4.506-14.373,9.672-11.965,22.461-11.965,22.461-2.2,2.941-4.166.775-4.455-8.09-8.118-7.317c-3.8.8-5.322,4.88-5.049,11.052s.38,19.719.385,20.943c.005,1.2-.8,2.916-2.381,1.656s-10.358-12.594-15.473-8.094-1.532,21.569-1.176,23.443-.059,2.633-.963,3.026-3.5-3.7-6.126-6.816-6.224-6.277-8.958-3.434-4.433,15.338,6.03,36.579l5.491,9.524,11.02.175c23.605-1.067,33.7-8.591,34.864-12.364s-3.328-5.405-7.324-6.207-8.819-1.105-8.912-2.088.37-1.714,2.179-2.305,18.45-5.688,19.911-12.351-12.678-8.9-14.54-9.678-.756-2.313.3-2.889c1.072-.587,12.956-7.034,18.481-9.773s8.352-6.045,7.217-9.767c-1.094-3.59-7.468-2.913-10.311-3.6s-1.334-4.031-1.334-4.031,5.576-7.017,13.844-21.348,1.325-17.33,1.325-17.33" transform="translate(-279.631 -293.429)"/><g transform="translate(4.538 13.365)"><path class="b" d="M353.839,310.96s-.049.108-.159.309l-.494.89-1.929,3.4c-1.678,2.955-4.138,7.212-7.2,12.462-6.114,10.5-14.681,24.936-24.193,40.848s-18.116,30.332-24.282,40.8c-3.073,5.228-5.561,9.464-7.29,12.405l-1.985,3.371-.523.872c-.119.2-.189.291-.189.291s.049-.107.158-.309l.494-.889,1.929-3.4c1.678-2.954,4.138-7.211,7.2-12.46,6.114-10.5,14.682-24.938,24.2-40.855s18.112-30.326,24.279-40.8l7.29-12.405,1.985-3.372.524-.873C353.77,311.056,353.839,310.96,353.839,310.96Z" transform="translate(-285.598 -310.96)"/></g><g transform="translate(44.953 34.698)"><path class="b" d="M338.752,338.942a3.567,3.567,0,0,1,.224.764c.124.5.282,1.219.469,2.113.371,1.79.82,4.275,1.267,7.026.43,2.715.819,5.17,1.117,7.047.139.845.257,1.558.351,2.132a3.607,3.607,0,0,1,.1.789,3.549,3.549,0,0,1-.229-.762c-.122-.5-.281-1.22-.459-2.116-.354-1.794-.77-4.284-1.217-7.035-.449-2.709-.855-5.161-1.167-7.036-.144-.845-.265-1.558-.363-2.132A3.587,3.587,0,0,1,338.752,338.942Z" transform="translate(-338.745 -338.942)"/></g><g transform="translate(49.478 50.009)"><path class="b" d="M344.7,363.853c-.02-.092,5.05-1.247,11.321-2.578s11.374-2.336,11.393-2.244-5.049,1.246-11.322,2.578S344.715,363.945,344.7,363.853Z" transform="translate(-344.696 -359.025)"/></g><g transform="translate(33.768 78.603)"><path class="b" d="M324.037,396.544a3.657,3.657,0,0,1,.81.021l2.2.165c1.854.136,4.414.314,7.247.406s5.4.1,7.26.082l2.2-.015a3.681,3.681,0,0,1,.81.033,3.682,3.682,0,0,1-.8.1c-.519.041-1.271.088-2.2.124-1.86.077-4.435.116-7.277.017s-5.406-.309-7.258-.507c-.925-.1-1.673-.194-2.188-.273A3.742,3.742,0,0,1,324.037,396.544Z" transform="translate(-324.037 -396.53)"/></g><g transform="translate(25.68 61.301)"><path class="b" d="M313.4,373.837a3.234,3.234,0,0,1,.385.645q.381.74.935,1.813c.776,1.538,1.827,3.672,2.97,6.038s2.16,4.519,2.881,6.083l.838,1.86a3.186,3.186,0,0,1,.265.7,3.138,3.138,0,0,1-.385-.644l-.935-1.813c-.776-1.538-1.828-3.672-2.97-6.04s-2.159-4.517-2.88-6.082c-.331-.733-.611-1.355-.838-1.86A3.185,3.185,0,0,1,313.4,373.837Z" transform="translate(-313.4 -373.837)"/></g><g transform="translate(9.151 80.527)"><path class="b" d="M291.667,399.055a5.216,5.216,0,0,1,.484.829l1.207,2.319c1.006,1.965,2.375,4.689,3.868,7.708s2.828,5.762,3.779,7.754c.448.955.82,1.751,1.11,2.367a5.2,5.2,0,0,1,.365.889,5.138,5.138,0,0,1-.484-.829c-.314-.6-.72-1.384-1.207-2.319-1.006-1.965-2.375-4.69-3.868-7.71s-2.827-5.761-3.778-7.753l-1.11-2.367A5.223,5.223,0,0,1,291.667,399.055Z" transform="translate(-291.665 -399.055)"/></g><g transform="translate(19.855 101.782)"><path class="b" d="M305.74,426.952a5.834,5.834,0,0,1,1.027,0l2.792.108c2.357.088,5.613.2,9.21.219s6.856-.038,9.214-.1l2.792-.072a5.917,5.917,0,0,1,1.027.013,5.932,5.932,0,0,1-1.02.12c-.658.055-1.611.12-2.79.18-2.357.124-5.62.226-9.225.2s-6.864-.169-9.22-.319c-1.178-.079-2.131-.152-2.788-.217A6.019,6.019,0,0,1,305.74,426.952Z" transform="translate(-305.74 -426.934)"/></g></g></g><g transform="translate(67.074 358.101)"><path class="d" d="M345.89,459.3c0,.109-61.656.2-137.693.2-76.064,0-137.707-.089-137.707-.2s61.643-.2,137.707-.2C284.235,459.1,345.89,459.191,345.89,459.3Z" transform="translate(-70.49 -459.102)"/></g><g transform="translate(107.683 127.399)"><g transform="translate(1.668)"><g transform="translate(0 82.509)"><path class="e" d="M292.463,365.986,280.88,310.605s-6.788-26.691-30.162-35.888l-1.613-.5c-.034-.013-2.217-.682-2.252-.695-.939-.367-4.777-1.588-5.785-1.9-31.515-10.952-39.876-8.1-72.716,3.133,0,0-14.59,3.935-21.66,23.015s-20.607,48.921-20.607,48.921l32.763,11.6,6.28-9.353v63.984H255.24l-2.487-29.453-.434-36.28" transform="translate(-126.085 -264.719)"/><g transform="translate(50.195 13.434)"><path class="f" d="M216.557,282.344a5.023,5.023,0,0,1-.751.7,9.97,9.97,0,0,1-.945.748c-.383.272-.805.605-1.317.9a24.26,24.26,0,0,1-3.689,1.921,25.4,25.4,0,0,1-9.947,1.949,24.284,24.284,0,0,1-4.139-.386c-.586-.084-1.1-.233-1.56-.341a9.995,9.995,0,0,1-1.157-.335,5.088,5.088,0,0,1-.959-.364c.024-.08,1.405.406,3.721.764a26.555,26.555,0,0,0,4.093.3,26.634,26.634,0,0,0,9.81-1.923,26.547,26.547,0,0,0,3.681-1.821C215.408,283.251,216.505,282.279,216.557,282.344Z" transform="translate(-192.093 -282.341)"/></g><g class="g" transform="translate(39.044 107.701)"><path d="M177.428,406.859l7.388,8.553h7.26v9.311l75.1,17.41-.612-7.252L195.91,410.56H184.071l-5.709-4.572Z" transform="translate(-177.428 -405.988)"/></g><g transform="translate(16.432 83.177)"><path class="h" d="M192.419,391.6l-6.264-1.163s-14.847-16.28-17.631-16.512c-2.291-.192-14.921-.068-19.32-.018a1.53,1.53,0,0,0-1.511,1.535h0a1.533,1.533,0,0,0,1.471,1.533l14.922.58.071,1.2-14.943.2c-1.522.117-2.5,2.533,2.373,2.969l12.5.445v.779l-12.673,1.776c-.64.09-2.325.418-2.341,1.066,0,0-.767,1.593,2.844,2.045,1.24.156,12.241-.211,12.241-.211l-.424.992-11.39,2.463a1.623,1.623,0,0,0-1.262,1.812h0a1.621,1.621,0,0,0,1.754,1.391l12.17-1.132,11.942,9.564h15.97Z" transform="translate(-147.693 -373.821)"/></g><g transform="translate(126.235 82.471)"><path class="e" d="M332.23,391.691l-36.446,7.186-3.7-25.983" transform="translate(-292.087 -372.894)"/></g><g transform="translate(57.525 100.061)"><g transform="translate(0 0.01)"><path class="e" d="M269.285,398.168l-67.553-2.188.011,23.409,44.819,8.924,31.471,5.037c19.559,0,35.2-18,32.175-37.37l-.083.022Z" transform="translate(-201.732 -395.98)"/></g><path class="d" d="M287.883,397.734a5.342,5.342,0,0,1-.875.062l-2.511.072-9.236.168c-7.8.114-18.576.246-30.48.133s-22.685-.549-30.47-1.077c-3.893-.261-7.04-.512-9.211-.732l-2.5-.257a5.379,5.379,0,0,1-.868-.125,5.417,5.417,0,0,1,.878.018l2.506.157c2.175.156,5.325.35,9.217.563,7.785.432,18.552.8,30.452.921s22.671.041,30.471.023l9.238,0,2.513.028A5.416,5.416,0,0,1,287.883,397.734Z" transform="translate(-201.732 -395.967)"/></g><g transform="translate(57.37 100.282)"><path class="d" d="M201.686,396.257a2.586,2.586,0,0,1,.026.416c.006.3.014.7.025,1.213.011,1.089.027,2.644.047,4.614.018,4,.045,9.694.076,16.544l-.131-.162c7.629,1.641,16.773,3.67,26.617,5.742,13.5,2.862,25.782,5.122,34.714,6.505,4.466.687,8.089,1.192,10.594,1.524l2.885.38.75.109a1.286,1.286,0,0,1,.254.051,1.242,1.242,0,0,1-.259-.011l-.754-.069-2.895-.307c-2.512-.285-6.143-.747-10.617-1.4-8.949-1.313-21.251-3.531-34.754-6.395-9.847-2.072-18.987-4.125-26.605-5.8l-.132-.029v-.134c.027-6.849.049-12.539.064-16.544.019-1.97.033-3.525.044-4.614.01-.513.018-.916.024-1.213A2.547,2.547,0,0,1,201.686,396.257Z" transform="translate(-201.528 -396.257)"/></g><g transform="translate(45.351 9.204)"><path class="d" d="M192.131,303.848a6.3,6.3,0,0,1,.049-1.142c.046-.733.119-1.792.148-3.1a53.476,53.476,0,0,0-.708-10.194c-.693-3.923-1.568-7.5-2.926-9.721a7.769,7.769,0,0,0-2.018-2.28c-.59-.421-.97-.576-.952-.614.005-.013.1.019.282.092a4.806,4.806,0,0,1,.757.394,7.352,7.352,0,0,1,2.168,2.258,16.487,16.487,0,0,1,1.824,4.272,48.192,48.192,0,0,1,1.256,5.533,47.492,47.492,0,0,1,.6,10.27c-.065,1.317-.181,2.377-.275,3.107A6.313,6.313,0,0,1,192.131,303.848Z" transform="translate(-185.723 -276.792)"/></g><g transform="translate(125.851 15.684)"><path class="d" d="M291.781,285.292c.11,0,.2,15.562.2,34.753s-.088,34.755-.2,34.755-.2-15.558-.2-34.755S291.671,285.292,291.781,285.292Z" transform="translate(-291.583 -285.292)"/></g><g transform="translate(131.34 93.762)"><path class="d" d="M316.823,387.8c0,.074-1.15.038-2.976.265a24.282,24.282,0,0,0-3.166.618,23.782,23.782,0,0,0-7.163,3.249,24.4,24.4,0,0,0-2.553,1.976c-1.376,1.226-2.106,2.115-2.163,2.067a3.145,3.145,0,0,1,.472-.657,15.952,15.952,0,0,1,1.5-1.616,21.137,21.137,0,0,1,2.538-2.072,22.123,22.123,0,0,1,7.277-3.3,21.079,21.079,0,0,1,3.227-.543,15.832,15.832,0,0,1,2.2-.063A3.131,3.131,0,0,1,316.823,387.8Z" transform="translate(-298.801 -387.704)"/></g><g class="g" transform="translate(46.575 21.699)"><path d="M193.149,368.581c11.385-6.815,18.491-18.1,25.435-29.427S232,315.94,241.624,306.8c4.422-4.2,9.594-7.737,11.227-13.618L235.545,306.97l-48.213,55.587Z" transform="translate(-187.332 -293.182)"/></g><g transform="translate(9.869 67.187)"><path class="d" d="M150.33,352.929a31.4,31.4,0,0,0-5.833,1.109,29.153,29.153,0,0,0-3.846,1.7,8.843,8.843,0,0,1-1.586.761,6.944,6.944,0,0,1,1.451-1.006,20.61,20.61,0,0,1,3.854-1.832,15.522,15.522,0,0,1,4.2-.8A6.074,6.074,0,0,1,150.33,352.929Z" transform="translate(-139.063 -352.846)"/></g><g transform="translate(9.869 67.187)"><path class="d" d="M150.33,352.929a31.4,31.4,0,0,0-5.833,1.109,29.153,29.153,0,0,0-3.846,1.7,8.843,8.843,0,0,1-1.586.761,6.944,6.944,0,0,1,1.451-1.006,20.61,20.61,0,0,1,3.854-1.832,15.522,15.522,0,0,1,4.2-.8A6.074,6.074,0,0,1,150.33,352.929Z" transform="translate(-139.063 -352.846)"/></g><g transform="translate(57.771 89.733)"><path class="f" d="M270.044,384.873a10.374,10.374,0,0,0-2.627-1.213,13.492,13.492,0,0,0-7.773.489c-3.225.953-6.568,3.242-10.7,4.965a15.613,15.613,0,0,1-6.872,1.317,18.518,18.518,0,0,1-7.181-2.21c-2.307-1.153-4.453-2.453-6.636-3.47a20.044,20.044,0,0,0-6.618-1.874,21.521,21.521,0,0,0-11.389,2.065,20.672,20.672,0,0,0-6.342,4.67l-.826.934-.548.733-.344.446a.7.7,0,0,1-.129.145.693.693,0,0,1,.1-.167l.313-.47.521-.759.8-.964a20.21,20.21,0,0,1,6.334-4.821,21.692,21.692,0,0,1,11.546-2.176,20.283,20.283,0,0,1,6.746,1.885c2.211,1.024,4.363,2.325,6.649,3.467a18.231,18.231,0,0,0,7.029,2.178,15.3,15.3,0,0,0,6.712-1.269c4.086-1.677,7.471-3.958,10.753-4.893a13.419,13.419,0,0,1,7.9-.369,7.986,7.986,0,0,1,1.975.909l.461.329A.734.734,0,0,1,270.044,384.873Z" transform="translate(-202.056 -382.42)"/></g><g transform="translate(125.466 63.557)"><path class="f" d="M324.4,348.52a6.2,6.2,0,0,0-1.369-.259,6.608,6.608,0,0,0-3.574,1.1c-1.4.789-2.76,2.22-4.676,3.3a6.076,6.076,0,0,1-3.327.839,9.02,9.02,0,0,1-3.5-1.116c-1.116-.565-2.151-1.195-3.224-1.622a14.941,14.941,0,0,0-8.814-.717,14.985,14.985,0,0,0-3.589,1.286c-.809.406-1.226.694-1.248.659-.008-.011.091-.09.287-.229a8.424,8.424,0,0,1,.888-.566,13.743,13.743,0,0,1,3.6-1.423,15.043,15.043,0,0,1,5.734-.267,14.393,14.393,0,0,1,3.291.9c1.109.438,2.156,1.073,3.255,1.628a8.736,8.736,0,0,0,3.347,1.083,5.752,5.752,0,0,0,3.13-.772c1.858-1.018,3.248-2.435,4.709-3.22a6.518,6.518,0,0,1,3.724-1.009,3.559,3.559,0,0,1,1.033.242A1.287,1.287,0,0,1,324.4,348.52Z" transform="translate(-291.076 -348.085)"/></g><g transform="translate(77.064 52.963)"><path class="f" d="M275.708,334.783a2.651,2.651,0,0,1-.518-.09c-.168-.032-.372-.088-.618-.13l-.854-.114a14.586,14.586,0,0,0-5.42.556,33.125,33.125,0,0,0-7.41,3.35,71.577,71.577,0,0,1-8.826,4.808,18.811,18.811,0,0,1-5.044,1.384,12.885,12.885,0,0,1-4.866-.335,22.426,22.426,0,0,1-4.09-1.638c-1.232-.611-2.358-1.211-3.41-1.705a14.515,14.515,0,0,0-5.215-1.582,9.143,9.143,0,0,0-1.487.046,2.753,2.753,0,0,1-.524.034,2.53,2.53,0,0,1,.513-.113,7.608,7.608,0,0,1,1.506-.12,14.01,14.01,0,0,1,5.325,1.481c1.068.481,2.205,1.069,3.436,1.664a22.586,22.586,0,0,0,4.039,1.58,12.617,12.617,0,0,0,4.727.3,18.658,18.658,0,0,0,4.939-1.365,74.691,74.691,0,0,0,8.794-4.759,32.327,32.327,0,0,1,7.518-3.3,14.094,14.094,0,0,1,5.512-.438l.859.151c.246.053.449.123.615.168A2.638,2.638,0,0,1,275.708,334.783Z" transform="translate(-227.426 -334.19)"/></g><g transform="translate(125.962 30.098)"><path class="f" d="M314.662,304.2a4.157,4.157,0,0,1-.813.473c-.537.279-1.318.675-2.31,1.109a21.807,21.807,0,0,1-3.6,1.251,13.216,13.216,0,0,1-4.67.319c-1.656-.174-3.189-.527-4.593-.717a13.363,13.363,0,0,0-3.731-.068,8.126,8.126,0,0,0-3.211,1.189c-.009-.011.05-.071.171-.177a4.038,4.038,0,0,1,.569-.412,6.848,6.848,0,0,1,2.427-.876,12.77,12.77,0,0,1,3.823-.018c1.427.174,2.963.515,4.585.685a16.636,16.636,0,0,0,8.126-1.433c1-.4,1.8-.755,2.352-.99A4.456,4.456,0,0,1,314.662,304.2Z" transform="translate(-291.729 -304.199)"/></g><g transform="translate(16.89 41.75)"><path class="f" d="M181.977,320.529a4.007,4.007,0,0,0-1.346-.325,5.67,5.67,0,0,0-3.485,1.3c-.659.466-1.342,1.044-2.157,1.577a7.948,7.948,0,0,1-2.88,1.157,13.533,13.533,0,0,1-6.972-.834c-2.357-.852-4.468-1.939-6.486-2.651a17.378,17.378,0,0,0-2.915-.8,12.243,12.243,0,0,0-2.619-.159,8.321,8.321,0,0,0-3.643.977c-.786.441-1.15.8-1.177.768-.009-.01.078-.1.253-.268a5.013,5.013,0,0,1,.846-.634,8.059,8.059,0,0,1,3.7-1.125,12.146,12.146,0,0,1,2.689.114,17.156,17.156,0,0,1,2.984.779c2.053.7,4.176,1.782,6.5,2.621a13.391,13.391,0,0,0,6.773.849,7.7,7.7,0,0,0,2.77-1.076c.8-.5,1.491-1.07,2.173-1.53a5.661,5.661,0,0,1,3.654-1.218,2.719,2.719,0,0,1,1.027.277A.991.991,0,0,1,181.977,320.529Z" transform="translate(-148.296 -319.481)"/></g><g transform="translate(89.918 101.188)"><path class="f" d="M247.822,397.447c.009-.009.093.063.243.21a5.335,5.335,0,0,1,.6.7,7.385,7.385,0,0,1,.233,8.068c-1.01,1.643-2.734,2.942-3.7,4.828a4.613,4.613,0,0,0-.379,2.968,11.236,11.236,0,0,0,.988,2.723,11.118,11.118,0,0,1,1.57,4.776,3.852,3.852,0,0,1-1.423,3.04,2.447,2.447,0,0,1-.84.4.889.889,0,0,1-.322.036,3.607,3.607,0,0,0,1.067-.561,3.767,3.767,0,0,0,1.238-2.918,11.2,11.2,0,0,0-1.617-4.615,11.357,11.357,0,0,1-1.041-2.811,4.981,4.981,0,0,1,.4-3.214,11.96,11.96,0,0,1,1.9-2.589,18.639,18.639,0,0,0,1.846-2.263,7.034,7.034,0,0,0,1.04-4.676,7.593,7.593,0,0,0-1.094-3.108C248.109,397.786,247.792,397.475,247.822,397.447Z" transform="translate(-244.33 -397.446)"/></g><g transform="translate(124.112 102.231)"><path class="f" d="M290.47,431.242c-.01.01-.106-.075-.286-.249a3.107,3.107,0,0,1-.588-.916,5.192,5.192,0,0,1,.192-3.936,8.024,8.024,0,0,1,1.477-2.338c.647-.753,1.414-1.478,2.183-2.26a12.494,12.494,0,0,0,2.113-2.662,9.009,9.009,0,0,0,1.017-3.469,43.454,43.454,0,0,0-.325-7.136,12.4,12.4,0,0,1,.737-5.84,6.645,6.645,0,0,1,2.5-3.069,4.6,4.6,0,0,1,.98-.464,1.356,1.356,0,0,1,.367-.086,9.971,9.971,0,0,0-1.263.679,6.743,6.743,0,0,0-2.327,3.049,12.413,12.413,0,0,0-.631,5.706,41.334,41.334,0,0,1,.356,7.2,9.308,9.308,0,0,1-1.072,3.617,12.62,12.62,0,0,1-2.194,2.731c-1.576,1.544-3.053,2.9-3.661,4.45a5.149,5.149,0,0,0-.306,3.771A4.847,4.847,0,0,0,290.47,431.242Z" transform="translate(-289.297 -398.813)"/></g><g transform="translate(38.689 134.951)"><path class="f" d="M267.466,451.553a4.817,4.817,0,0,1-.847.537,7.305,7.305,0,0,1-2.76.79,11.892,11.892,0,0,1-4.515-.509,24.512,24.512,0,0,1-5.465-2.532,36.4,36.4,0,0,0-6.471-3.245,15.449,15.449,0,0,0-8.161-.279,49.453,49.453,0,0,0-8.68,3.01,51.183,51.183,0,0,1-9.392,3.251,16.69,16.69,0,0,1-5.062.284,13.53,13.53,0,0,1-4.724-1.4c-2.91-1.458-5.232-3.57-7.6-5.289a24.173,24.173,0,0,0-3.616-2.267l-.928-.443c-.312-.135-.634-.237-.948-.356a15.228,15.228,0,0,0-1.893-.566,18.941,18.941,0,0,0-7.173-.291,19.93,19.93,0,0,0-5.7,1.7c-.4.177-.765.4-1.128.588a8.48,8.48,0,0,0-1.012.6c-.314.209-.621.4-.9.6l-.771.607a13.518,13.518,0,0,0-1.234,1.093,8.646,8.646,0,0,0-.839.871l-.5.554a1.242,1.242,0,0,1-.181.181,1.2,1.2,0,0,1,.149-.206l.47-.582a7.855,7.855,0,0,1,.816-.9,12.946,12.946,0,0,1,1.219-1.128l.767-.627c.281-.2.588-.4.9-.617a8.586,8.586,0,0,1,1.014-.624c.365-.193.729-.424,1.135-.608a19.926,19.926,0,0,1,5.753-1.782,19.1,19.1,0,0,1,7.289.248,15.746,15.746,0,0,1,1.932.567c.32.12.649.223.968.359l.949.448A24.365,24.365,0,0,1,204,445.873c2.393,1.725,4.713,3.817,7.56,5.236a13.165,13.165,0,0,0,4.594,1.359,16.338,16.338,0,0,0,4.944-.281,51.25,51.25,0,0,0,9.32-3.221,49.342,49.342,0,0,1,8.755-3.008,15.734,15.734,0,0,1,8.34.325,36.152,36.152,0,0,1,6.507,3.315,24.591,24.591,0,0,0,5.388,2.562,11.931,11.931,0,0,0,4.438.567,7.521,7.521,0,0,0,2.738-.708C267.172,451.738,267.452,451.531,267.466,451.553Z" transform="translate(-176.962 -441.731)"/></g></g><g transform="translate(65.775)"><g transform="translate(6.078 14.834)"><path class="h" d="M235.606,261.229h0a15.826,15.826,0,0,0,16.53-14.445c.442-5.033.791-9.331.791-9.331s12.957-.328,14.76-13.038,3.385-42.231,3.385-42.231h0A44.405,44.405,0,0,0,226,182.006l-2.07,1.208-3.335,61.32A15.836,15.836,0,0,0,235.606,261.229Z" transform="translate(-220.575 -175.952)"/></g><g transform="translate(40.222 39.134)"><path class="d" d="M265.475,223.2c.006-.139,1.116-.217,2.906-.233.464.01.836-.047.9-.29a2.513,2.513,0,0,0-.157-1.355c-.3-1.218-.6-2.452-.922-3.743-1.254-5.324-2.052-9.691-1.782-9.755s1.5,4.2,2.758,9.524l.846,3.762a2.96,2.96,0,0,1,0,1.938,1.207,1.207,0,0,1-.884.63,2.92,2.92,0,0,1-.793,0C266.568,223.514,265.47,223.342,265.475,223.2Z" transform="translate(-265.475 -207.825)"/></g><g transform="translate(22.53 69.285)"><path class="i" d="M258.154,254.244a29.729,29.729,0,0,1-15.945-6.87s2.728,9.671,15.548,10.172Z" transform="translate(-242.209 -247.374)"/></g><g transform="translate(5.498 11.361)"><path class="d" d="M270.737,184.339s-7.988,3.345-17.833-2.282c-6.461-3.691-14.116-5.745-15.9-4.5s-2.519,8.088-9.211,9.728c0,0-.268,13.12-5.45,12.365s-.811-20.857-.811-20.857l13.083-5.533,14.048-1.864,13,2.576,9.983,3.343Z" transform="translate(-219.811 -171.397)"/></g><g transform="translate(0 34.65)"><path class="h" d="M221.877,202.78c-.2-.122-8.391-3.722-9.239,5.018s8.079,7.791,8.118,7.542S221.877,202.78,221.877,202.78Z" transform="translate(-212.581 -201.944)"/><g transform="translate(2.234 2.744)"><path class="i" d="M219.118,212.624c-.035-.031-.162.092-.43.185a1.525,1.525,0,0,1-1.138-.088c-.888-.428-1.522-1.97-1.411-3.55a5.064,5.064,0,0,1,.637-2.138,1.767,1.767,0,0,1,1.256-1.057.777.777,0,0,1,.855.505c.093.255.021.425.065.444.023.024.2-.128.167-.5a.979.979,0,0,0-.29-.581,1.153,1.153,0,0,0-.819-.3,2.146,2.146,0,0,0-1.718,1.2,5.206,5.206,0,0,0-.763,2.386c-.116,1.766.624,3.5,1.849,3.99a1.632,1.632,0,0,0,1.411-.1C219.083,212.834,219.147,212.643,219.118,212.624Z" transform="translate(-215.519 -205.543)"/></g></g><g transform="translate(1.138)"><path class="d" d="M232.212,175.42a30.009,30.009,0,0,1-5.8,5.206,10.085,10.085,0,0,1-7.446,1.581,6.177,6.177,0,0,1-4.883-5.4c-.1-2.608,2.439-5.151,4.982-4.593a2.721,2.721,0,1,1,1.6-4.888c-2.208-.415-2.457-3.93-.7-5.331s4.338-1.095,6.421-.249,4,2.159,6.192,2.633c3.446.743,6.982-.695,10.029-2.469s5.944-3.946,9.34-4.887c4.17-1.156,8.674-.311,12.664,1.367a20.428,20.428,0,0,1,8.6,6.29,12.04,12.04,0,0,1,2.258,10.179c-.959,3.469-4.179,6.35-7.769,6.364,0,0-8.072.815-14.64-4.073s-20.416-4.242-20.416-4.242Z" transform="translate(-214.078 -156.495)"/></g><g transform="translate(7.123 8.739)"><path class="j" d="M221.95,167.968c-.017.027.156.165.5.4s.872.567,1.568.961a28.453,28.453,0,0,0,6.285,2.506,30.191,30.191,0,0,0,10,.954c3.82-.252,7.826-1.486,12-2.509s8.293-1.537,11.861-.657a11.366,11.366,0,0,1,7.615,5.44,8.679,8.679,0,0,1,.658,6.343,14.128,14.128,0,0,1-1.006,2.212c.025.02.18-.136.458-.46a6.411,6.411,0,0,0,.893-1.636,8.791,8.791,0,0,0-.411-6.753,11.91,11.91,0,0,0-8-5.982c-3.773-.979-8.077-.454-12.286.585-4.224,1.038-8.154,2.271-11.848,2.559a31.038,31.038,0,0,1-9.772-.736C224.985,169.862,222.036,167.782,221.95,167.968Z" transform="translate(-221.949 -167.957)"/></g><g transform="translate(3.193 22.25)"><path class="j" d="M216.8,185.685c-.1.05.186.9,1.127,1.989a8.87,8.87,0,0,0,10.263,2.224c1.3-.6,1.914-1.258,1.846-1.344-.082-.121-.811.327-2.081.727a9.6,9.6,0,0,1-9.559-2.071C217.4,186.32,216.923,185.61,216.8,185.685Z" transform="translate(-216.78 -185.68)"/></g><g transform="translate(5.888 17.925)"><path class="j" d="M220.365,180.018c-.222.105.446,1.693,2.135,2.855s3.4,1.241,3.418,1c.051-.266-1.4-.717-2.887-1.765C221.529,181.08,220.6,179.877,220.365,180.018Z" transform="translate(-220.324 -180.007)"/></g><g transform="translate(45.876 37.671)"><g transform="translate(2.215 0.737)"><path class="d" d="M279.739,208.9a1.962,1.962,0,0,1-2.132,1.722,1.879,1.879,0,0,1-1.776-2.02,1.964,1.964,0,0,1,2.13-1.724A1.881,1.881,0,0,1,279.739,208.9Z" transform="translate(-275.823 -206.873)"/></g><path class="d" d="M280.586,208.5c-.274.223-1.606-1.063-3.7-1.331-2.088-.3-3.765.58-3.959.294-.1-.129.209-.555.941-.956a5.37,5.37,0,0,1,3.21-.55,5.161,5.161,0,0,1,2.9,1.378C280.562,207.913,280.72,208.4,280.586,208.5Z" transform="translate(-272.91 -205.907)"/></g><g transform="translate(26.646 35.135)"><g transform="translate(2.397 0.619)"><path class="d" d="M254.69,205.422a1.963,1.963,0,0,1-2.132,1.722,1.879,1.879,0,0,1-1.776-2.021,1.965,1.965,0,0,1,2.13-1.724A1.881,1.881,0,0,1,254.69,205.422Z" transform="translate(-250.774 -203.393)"/></g><path class="d" d="M255.3,205.174c-.275.223-1.608-1.064-3.7-1.332-2.087-.3-3.764.58-3.958.294-.1-.128.206-.555.941-.956a5.368,5.368,0,0,1,3.209-.55,5.166,5.166,0,0,1,2.9,1.378C255.271,204.587,255.431,205.075,255.3,205.174Z" transform="translate(-247.622 -202.581)"/></g><g transform="translate(25.161 28.973)"><path class="d" d="M254.023,197.48c-.413.37-1.982-.778-4.1-.977-2.114-.252-3.889.538-4.214.09-.153-.214.129-.756.909-1.275a5.606,5.606,0,0,1,6.785.724C254.055,196.713,254.217,197.3,254.023,197.48Z" transform="translate(-245.668 -194.497)"/></g><g transform="translate(45.574 34.076)"><path class="d" d="M280.356,202.55c.091.249-.269.665-1.031,1a6.184,6.184,0,0,1-6.084-.958c-.624-.55-.839-1.057-.676-1.266.363-.431,1.92.311,3.9.6C278.433,202.256,280.142,202.029,280.356,202.55Z" transform="translate(-272.512 -201.192)"/></g><g transform="translate(38.167 58.003)"><path class="d" d="M263.223,232.576c.219.014.373.409.344.882s-.229.847-.447.834-.373-.409-.344-.882S263.006,232.563,263.223,232.576Z" transform="translate(-262.772 -232.576)"/></g></g></g><g transform="translate(0 73.095)"><g transform="translate(83.441)"><g transform="translate(0.163 0.198)"><path class="h" d="M233.834,282.921s4.243-6.009,6.909-9.384c3.23-4.09,5.155-7.615,5.155-9.526V253.888s4.021-.955,4.6,3.629,0,5.73,0,5.73,16.886-11.4,18.03-10.573c2.012,1.453-1.8,4.5-1.8,4.5l-10.291,9.323,5.86-1.859a2.746,2.746,0,0,1,3.43,1.729h0a2.734,2.734,0,0,1-1.046,3.136l-3.468,3.013,1.745-.7a2.678,2.678,0,0,1,3.394,1.278h0a2.663,2.663,0,0,1-.436,3.018l-3.16,3.377,1.481-.79a1.923,1.923,0,0,1,2.625.835h0a1.912,1.912,0,0,1-.524,2.354l-18.9,14.983Z" transform="translate(-233.834 -252.631)"/></g><path class="i" d="M247.378,296.8s-.08-.069-.236-.223l-.692-.69-2.685-2.71-10.073-10.233-.074-.075.061-.087c1.236-1.754,2.581-3.637,4.039-5.625.729-.994,1.487-2.014,2.284-3.051s1.628-2.081,2.407-3.211a31.057,31.057,0,0,0,2.185-3.584,7.712,7.712,0,0,0,1.079-4.139c0-3-.007-6.127-.011-9.35v-.152l.141-.027a4.252,4.252,0,0,1,3.053.5,3.81,3.81,0,0,1,1.107,1.169,5.456,5.456,0,0,1,.554,1.509,24.1,24.1,0,0,1,.343,3.164c.027.534.037,1.072.014,1.615a5.6,5.6,0,0,1-.261,1.664l-.279-.247c2.607-1.753,5.309-3.527,8.1-5.3,1.4-.884,2.816-1.766,4.266-2.627a43.747,43.747,0,0,1,4.507-2.421,5.73,5.73,0,0,1,.651-.236,1.886,1.886,0,0,1,.368-.071.777.777,0,0,1,.23.016.476.476,0,0,1,.208.133,1.44,1.44,0,0,1,.573,1.34,4.65,4.65,0,0,1-1.355,2.373c-.612.662-1.313,1.2-1.941,1.8l-1.928,1.745-7.509,6.8-.186-.326,3.431-1.087,1.69-.534c.284-.088.551-.18.846-.262a2.762,2.762,0,0,1,.923-.1,2.919,2.919,0,0,1,1.514,5.324l.016-.012-3.471,3.008-.18-.3,1.7-.682a2.907,2.907,0,0,1,1.871-.121,2.832,2.832,0,0,1,1.5,4.446c-.382.456-.764.828-1.14,1.24l-2.214,2.356-.184-.242,1.589-.838a2.06,2.06,0,0,1,2.5,3.13,3.353,3.353,0,0,1-.624.569l-.63.5-1.234.973-2.357,1.856-7.813,6.136-4.95,3.871-1.289,1c-.29.223-.438.326-.438.326s.15-.133.44-.371l1.287-1.043,4.917-3.951,7.727-6.182,2.328-1.858,1.22-.973.624-.5a3.079,3.079,0,0,0,.572-.522,1.771,1.771,0,0,0-2.153-2.685l-1.57.836-.813.433.628-.675,2.2-2.365c.365-.4.777-.811,1.115-1.217a2.5,2.5,0,0,0-1.336-3.92,2.556,2.556,0,0,0-1.652.114l-1.7.686-.971.393.791-.688L264.5,269.3l.008-.008.008-.005a2.55,2.55,0,0,0-1.328-4.651,4.491,4.491,0,0,0-1.638.351l-1.689.537-3.43,1.091-.842.268.656-.594,7.509-6.81,1.928-1.747c.637-.6,1.326-1.136,1.909-1.767a4.339,4.339,0,0,0,1.25-2.142,1.035,1.035,0,0,0-.429-.994c-.046-.114-.244-.05-.449,0a5.512,5.512,0,0,0-.605.22,43.791,43.791,0,0,0-4.458,2.4c-1.446.858-2.862,1.738-4.258,2.62-2.789,1.765-5.493,3.537-8.1,5.283l-.483.324.2-.57a5.645,5.645,0,0,0,.222-1.508c.023-.526.014-1.054-.012-1.58a23.97,23.97,0,0,0-.33-3.1,5.052,5.052,0,0,0-.508-1.4,3.441,3.441,0,0,0-.987-1.047,3.9,3.9,0,0,0-2.766-.46l.141-.178c0,3.223-.008,6.345-.011,9.35,0,.379.011.74-.023,1.138a6.087,6.087,0,0,1-.247,1.114,13.507,13.507,0,0,1-.858,2.038,31.367,31.367,0,0,1-2.22,3.615c-.786,1.133-1.625,2.192-2.428,3.215s-1.559,2.047-2.293,3.036c-1.465,1.979-2.819,3.855-4.064,5.6l-.013-.162L243.8,293.05l2.659,2.771.687.725C247.3,296.71,247.378,296.8,247.378,296.8Z" transform="translate(-233.619 -252.371)"/></g><g transform="translate(0 27.679)"><path class="e" d="M221.092,305.43l-51.813,68.582c-7.864,10.41-22.039,14.218-33.815,8.568-8.608-4.131-14.922-12.806-9.639-30.664l49.634-34.047,30.169-29.192Z" transform="translate(-123.891 -288.677)"/></g><g transform="translate(7.286 27.413)"><path class="d" d="M137.759,382.5s.193.091.56.284l1.62.861a22.087,22.087,0,0,0,6.773,1.82,22.855,22.855,0,0,0,5.075-.092,26.256,26.256,0,0,0,2.862-.506c.492-.112.982-.273,1.487-.412a13.973,13.973,0,0,0,1.519-.5,29.766,29.766,0,0,0,6.227-3.066,24.552,24.552,0,0,0,5.841-5.116c3.537-4.195,7.191-8.983,11.141-14.093s8.1-10.628,12.483-16.424c8.743-11.606,18.3-24.406,28.289-37.875l1.592-2.148.014.252L207.78,288.726l.265.018c-10.562,8.74-20.338,17.085-29.2,24.517s-16.792,13.974-23.5,19.3-12.162,9.473-15.961,12.255c-1.888,1.407-3.381,2.447-4.378,3.169l-1.14.808c-.258.18-.394.265-.394.265s.122-.1.373-.294l1.119-.836c.983-.74,2.464-1.8,4.338-3.221,3.773-2.816,9.2-6.991,15.886-12.343s14.6-11.9,23.441-19.361S197.24,297.2,207.8,288.445l.141-.117.125.134,15.467,16.75.112.12-.1.133-1.592,2.148c-9.988,13.47-19.556,26.264-28.316,37.858-4.388,5.791-8.56,11.293-12.514,16.4s-7.628,9.88-11.19,14.076a24.789,24.789,0,0,1-5.916,5.145,29.938,29.938,0,0,1-6.29,3.063,14.158,14.158,0,0,1-1.533.5c-.509.137-1,.3-1.5.407a26.184,26.184,0,0,1-2.887.493,22.832,22.832,0,0,1-5.112.059,21.691,21.691,0,0,1-6.792-1.9c-.713-.381-1.246-.7-1.607-.9S137.759,382.5,137.759,382.5Z" transform="translate(-133.472 -288.328)"/></g><g transform="translate(0.71 100.608)"><path class="f" d="M174.972,387.444a14.155,14.155,0,0,0-1.811-1.041,10.929,10.929,0,0,0-5.571-.7,19.724,19.724,0,0,0-3.841.8c-1.353.411-2.76.99-4.249,1.578a43.427,43.427,0,0,1-4.76,1.668,14.99,14.99,0,0,1-5.407.528,18.732,18.732,0,0,1-5.235-1.455c-1.619-.673-3.12-1.438-4.573-2.1a17.833,17.833,0,0,0-8.089-2.083,8.707,8.707,0,0,0-5.229,1.9,8.485,8.485,0,0,0-1.382,1.561,2.778,2.778,0,0,1,.256-.484,6.081,6.081,0,0,1,1.024-1.193,8.677,8.677,0,0,1,5.315-2.068c2.474-.177,5.347.694,8.254,2.029,1.467.656,2.969,1.413,4.572,2.073a18.516,18.516,0,0,0,5.127,1.42,14.7,14.7,0,0,0,5.268-.509,44.556,44.556,0,0,0,4.726-1.632c1.492-.579,2.908-1.15,4.287-1.553a19.541,19.541,0,0,1,3.91-.768,10.767,10.767,0,0,1,5.661.843A6.137,6.137,0,0,1,174.972,387.444Z" transform="translate(-124.825 -384.337)"/></g><g transform="translate(41.212 62.086)"><path class="f" d="M206.042,352.441a2.786,2.786,0,0,0,.2-1.359,3.833,3.833,0,0,0-2.287-2.79,12.837,12.837,0,0,0-2.517-.769,13.327,13.327,0,0,1-2.942-.946,19.025,19.025,0,0,1-5.544-4.355,69.836,69.836,0,0,0-4.858-5.042,12.712,12.712,0,0,0-4.872-2.79,8.349,8.349,0,0,0-3.769-.258c-.889.161-1.351.38-1.366.341a1.279,1.279,0,0,1,.328-.169,5.133,5.133,0,0,1,1.008-.323,8.1,8.1,0,0,1,3.874.139,12.7,12.7,0,0,1,5.035,2.783,64.225,64.225,0,0,1,4.908,5.048,19.128,19.128,0,0,0,5.412,4.3c1.9.945,3.925,1.018,5.423,1.793a3.946,3.946,0,0,1,2.319,3.025,2.153,2.153,0,0,1-.16,1.058A.989.989,0,0,1,206.042,352.441Z" transform="translate(-178.086 -333.808)"/></g></g></g><g transform="translate(67.156 34.047)"><g transform="translate(181.829 22.19)"><g transform="translate(13.283 57.928)"><path class="d" d="M334.225,139.43a1.056,1.056,0,0,1,.325.079,2.085,2.085,0,0,1,.379.147,3.271,3.271,0,0,1,.494.258,5.719,5.719,0,0,1,2.665,5.135,4.971,4.971,0,0,1-1,2.658,5.788,5.788,0,0,1-2.491,1.9,5.108,5.108,0,0,1-6.139-1.625,5.8,5.8,0,0,1-1.231-2.885,4.966,4.966,0,0,1,.436-2.808,5.7,5.7,0,0,1,4.847-3.146,3.279,3.279,0,0,1,.557.02,2.049,2.049,0,0,1,.4.06,1.043,1.043,0,0,1,.322.093c-.007.043-.459-.077-1.272-.018a5.611,5.611,0,0,0-3.122,1.292,5.343,5.343,0,0,0-1.436,1.84,4.67,4.67,0,0,0-.371,2.619,5.076,5.076,0,0,0,9.21,2.439,4.662,4.662,0,0,0,.967-2.46,5.352,5.352,0,0,0-.342-2.311,5.629,5.629,0,0,0-2.078-2.67C334.661,139.59,334.209,139.471,334.225,139.43Z" transform="translate(-327.175 -139.136)"/></g><g transform="translate(0 71.59)"><path class="d" d="M314.212,157.266a1.677,1.677,0,0,1,.77.281,3.617,3.617,0,0,1,1.722,3.262,3.178,3.178,0,0,1-.639,1.709,3.479,3.479,0,0,1-6.329-1.676,3.183,3.183,0,0,1,.287-1.8,3.606,3.606,0,0,1,3.1-1.983,1.666,1.666,0,0,1,.808.137c-.007.037-.293-.028-.8.018a3.541,3.541,0,0,0-1.935.826,3.006,3.006,0,0,0-1.1,2.757,3.132,3.132,0,0,0,5.677,1.5,3.009,3.009,0,0,0,.4-2.944,3.56,3.56,0,0,0-1.275-1.676C314.48,157.387,314.2,157.3,314.212,157.266Z" transform="translate(-309.707 -157.056)"/></g><g transform="translate(27.222)"><path class="d" d="M345.834,98.083s.024-.217.089-.635l.3-1.861q.1-.614.227-1.371c.107-.5.274-1.035.428-1.62s.332-1.215.516-1.888a6.773,6.773,0,0,1,.343-1.024l.413-1.071a37.584,37.584,0,0,1,5.569-9.982,39.365,39.365,0,0,1,11.309-10l1.851-1.069c.644-.322,1.316-.607,1.984-.917.678-.287,1.332-.656,2.05-.884l2.159-.739c.364-.122.728-.255,1.1-.37l1.139-.268,2.31-.545c.783-.159,1.589-.226,2.392-.345a20.163,20.163,0,0,1,2.446-.255,36.794,36.794,0,0,1,5.045.018c.852.072,1.717.092,2.577.21l2.589.447c.433.083.874.133,1.3.244l1.288.36c.859.251,1.738.461,2.6.75a41.8,41.8,0,0,1,5.065,2.177l1.249.638c.208.108.42.209.624.325l.595.381,2.4,1.538c.777.553,1.512,1.175,2.275,1.764.372.307.776.58,1.124.919l1.055,1.01a44.558,44.558,0,0,1,4.008,4.346l1.735,2.453.436.617.38.655.756,1.319.758,1.325.636,1.4.633,1.4.318.7c.092.241.168.488.253.731l1,2.947q.356,1.521.715,3.054a39.465,39.465,0,0,1-3.024,24.915l-1.425,2.793-1.677,2.621-.421.65-.477.608-.951,1.21-.952,1.2-1.054,1.1-1.049,1.1-.526.544-.571.494-2.272,1.964a44.4,44.4,0,0,1-4.931,3.256l-1.265.727c-.42.245-.877.412-1.311.621-.884.388-1.745.816-2.632,1.165l-2.694.917-.668.227c-.227.063-.457.11-.684.165l-1.365.319a41.681,41.681,0,0,1-5.438.894c-.9.074-1.807.067-2.7.1l-1.338.039c-.443,0-.884-.053-1.325-.077l-2.62-.189c-.862-.094-1.707-.282-2.552-.417a36.7,36.7,0,0,1-4.9-1.2,20.229,20.229,0,0,1-2.314-.837c-.752-.309-1.519-.568-2.239-.911l-2.113-1.085-1.041-.534-.977-.624-1.919-1.237c-.643-.395-1.189-.91-1.779-1.352-.574-.462-1.158-.9-1.706-1.368l-1.541-1.483a39.447,39.447,0,0,1-8.583-12.433,37.612,37.612,0,0,1-3.015-11.029q-.075-.587-.144-1.139a6.754,6.754,0,0,1-.087-1.076q-.027-1.046-.05-1.956c-.009-.606-.043-1.166-.027-1.676q.059-.764.108-1.385.1-1.227.152-1.879c.036-.422.065-.637.065-.637s0,.218-.025.642-.064,1.06-.113,1.879q-.039.62-.088,1.383c-.009.509.031,1.067.046,1.671s.043,1.254.068,1.949a6.806,6.806,0,0,0,.1,1.071l.153,1.134a37.756,37.756,0,0,0,3.065,10.958,39.342,39.342,0,0,0,8.576,12.322l1.535,1.468c.544.463,1.126.9,1.7,1.353.586.436,1.131.946,1.769,1.336l1.908,1.222.97.617,1.035.528,2.1,1.07c.716.339,1.478.594,2.223.9a20.046,20.046,0,0,0,2.3.825,36.514,36.514,0,0,0,4.864,1.176c.837.132,1.675.318,2.531.409l2.6.181c.436.023.874.079,1.313.075l1.325-.041c.886-.038,1.781-.032,2.676-.107a41.4,41.4,0,0,0,5.387-.894l1.352-.318c.225-.056.454-.1.678-.165l.662-.226,2.668-.911c.878-.347,1.731-.772,2.605-1.157.43-.207.883-.374,1.3-.616l1.253-.722a44.239,44.239,0,0,0,4.881-3.229l2.249-1.947.566-.489.52-.54,1.038-1.089,1.043-1.093.941-1.191.941-1.2.472-.6.416-.643,1.659-2.6,1.41-2.767a39.112,39.112,0,0,0,2.994-24.667q-.355-1.518-.706-3.024-.5-1.465-.989-2.918c-.084-.242-.16-.486-.25-.724l-.315-.7-.627-1.39-.629-1.382-.751-1.312-.747-1.307-.376-.649-.432-.611-1.716-2.43a44.264,44.264,0,0,0-3.966-4.308l-1.043-1c-.345-.335-.744-.606-1.113-.911-.757-.584-1.483-1.2-2.252-1.75L405.2,69.1l-.588-.379c-.2-.115-.413-.215-.618-.322l-1.236-.634a41.41,41.41,0,0,0-5.014-2.164c-.851-.287-1.722-.5-2.573-.747L393.9,64.5c-.426-.11-.864-.161-1.293-.243l-2.566-.448c-.852-.117-1.71-.139-2.554-.212a36.446,36.446,0,0,0-5-.029,19.972,19.972,0,0,0-2.426.248c-.8.117-1.6.181-2.374.337l-2.293.535-1.13.263c-.368.114-.728.244-1.09.364l-2.144.727c-.714.225-1.364.589-2.038.872-.664.306-1.331.587-1.972.9l-1.841,1.055a39.267,39.267,0,0,0-11.276,9.9,37.728,37.728,0,0,0-5.6,9.9q-.216.548-.42,1.064a6.749,6.749,0,0,0-.35,1.018l-.533,1.876c-.159.582-.332,1.115-.445,1.611q-.135.752-.246,1.365-.221,1.209-.34,1.851C345.884,97.87,345.834,98.083,345.834,98.083Z" transform="translate(-345.505 -63.153)"/></g><path class="k" d="M408.571,120.853a.551.551,0,0,0-.55.551v8.8H396.676V119.759a1.288,1.288,0,0,0-1.284-1.288h-6.358a1.288,1.288,0,0,0-1.284,1.288V130.2H376.4v-8.8a.551.551,0,1,0-1.1,0v9.055a.846.846,0,0,0,.844.846h32.13a.846.846,0,0,0,.844-.846V121.4A.551.551,0,0,0,408.571,120.853ZM388.85,130.2V119.759a.184.184,0,0,1,.183-.185h6.358a.184.184,0,0,1,.183.185V130.2Z" transform="translate(-325.422 -76.297)"/><path class="k" d="M413.1,128.39a1.175,1.175,0,0,0,1.172-1.175v-6.021a1.174,1.174,0,0,0-1.172-1.175h-6.811a1.174,1.174,0,0,0-1.172,1.175v6.021a1.175,1.175,0,0,0,1.172,1.175Zm-6.882-1.175v-6.021a.071.071,0,0,1,.071-.072H413.1a.071.071,0,0,1,.072.072v6.021a.071.071,0,0,1-.072.071h-6.811A.071.071,0,0,1,406.216,127.215Z" transform="translate(-332.563 -76.665)"/><path class="k" d="M385.908,128.39a1.175,1.175,0,0,0,1.172-1.175v-6.021a1.175,1.175,0,0,0-1.172-1.175H379.1a1.174,1.174,0,0,0-1.172,1.175v6.021a1.175,1.175,0,0,0,1.172,1.175Zm-6.883-1.175v-6.021a.071.071,0,0,1,.071-.072h6.811a.071.071,0,0,1,.071.072v6.021a.071.071,0,0,1-.071.071H379.1A.071.071,0,0,1,379.025,127.215Z" transform="translate(-326.05 -76.665)"/><path class="k" d="M408.791,99.6a1.069,1.069,0,0,1,1.067-1.069.55.55,0,0,0,.55-.552v-1.35a.55.55,0,0,0-.55-.551h-9.086a.552.552,0,0,0,0,1.1h8.535V97.5a2.18,2.18,0,0,0-1.547,1.549H399.1v-4.9a2.684,2.684,0,0,0-2.678-2.684h-9.605a2.684,2.684,0,0,0-2.678,2.684V96.08H373.385a.551.551,0,0,0-.551.551v1.35a.551.551,0,0,0,.551.552,1.069,1.069,0,0,1,1.067,1.069.554.554,0,0,0,.263.471v3.768h-.991a.846.846,0,0,0-.844.846v3a.846.846,0,0,0,.844.846h.991v4.246a.55.55,0,1,0,1.1,0v-4.246h31.657v4.247a.551.551,0,1,0,1.1,0v-4.247h.99a.846.846,0,0,0,.844-.846v-3a.846.846,0,0,0-.844-.846h-.99v-3.8A.553.553,0,0,0,408.791,99.6Zm-23.549-5.45a1.581,1.581,0,0,1,1.577-1.581h9.605A1.582,1.582,0,0,1,398,94.152v6.021a1.581,1.581,0,0,1-1.577,1.581h-9.605a1.581,1.581,0,0,1-1.577-1.581V94.152Zm24.066,13.283H373.981v-2.489h35.326Zm-33.492-3.593v-3.688h6.674a.552.552,0,0,0,0-1.1h-7.007a2.18,2.18,0,0,0-1.547-1.549v-.318H384.14v2.99a2.684,2.684,0,0,0,2.678,2.684h9.605a2.683,2.683,0,0,0,2.677-2.684v-.019h8.371v3.688Z" transform="translate(-324.83 -69.881)"/><path class="k" d="M394.429,126.165h-.44a.552.552,0,0,0,0,1.1h.44a.552.552,0,0,0,0-1.1Z" transform="translate(-329.766 -78.125)"/><path class="k" d="M392.182,95.46h.674l.692,3.316a1.4,1.4,0,0,0,1.362,1.109h3.268a1.4,1.4,0,0,0,1.3-.9l1.079-2.864a.887.887,0,0,0-.827-1.2h-4.623a.552.552,0,0,0,0,1.1h4.31l-.97,2.572a.291.291,0,0,1-.271.189H394.91a.293.293,0,0,1-.284-.232l-.7-3.329a1.089,1.089,0,0,0-1.062-.865h-.687a.552.552,0,0,0,0,1.1Z" transform="translate(-329.333 -70.567)"/><path class="k" d="M395.848,102.216H395.7a.552.552,0,0,0,0,1.1h.147a.552.552,0,0,0,0-1.1Z" transform="translate(-330.176 -72.435)"/><path class="k" d="M398.984,102.216h-.147a.552.552,0,0,0,0,1.1h.147a.552.552,0,0,0,0-1.1Z" transform="translate(-330.928 -72.435)"/></g><g transform="translate(85.433 70.035)"><g transform="translate(0 0)"><path class="d" d="M187.463,126.041c.01.043-.453.107-1.182.475a5.627,5.627,0,0,0-2.385,2.4,5.354,5.354,0,0,0-.618,2.252,4.672,4.672,0,0,0,.664,2.56,5.075,5.075,0,0,0,9.436-1.305,4.671,4.671,0,0,0-.053-2.645,5.345,5.345,0,0,0-1.2-2,5.626,5.626,0,0,0-2.944-1.661c-.8-.156-1.265-.092-1.266-.136a1.045,1.045,0,0,1,.331-.053,2.072,2.072,0,0,1,.407-.011,3.25,3.25,0,0,1,.555.048,5.7,5.7,0,0,1,4.432,3.71,4.969,4.969,0,0,1,.094,2.841,5.793,5.793,0,0,1-1.57,2.714,5.106,5.106,0,0,1-6.29.87,5.789,5.789,0,0,1-2.245-2.187,4.973,4.973,0,0,1-.676-2.76,5.714,5.714,0,0,1,3.265-4.775,3.28,3.28,0,0,1,.521-.2,2.131,2.131,0,0,1,.395-.1A1.077,1.077,0,0,1,187.463,126.041Z" transform="translate(-182.945 -125.91)"/></g></g><g transform="translate(101.484 82.374)"><path class="d" d="M206.958,142.195c.008.037-.281.087-.732.325a3.563,3.563,0,0,0-1.468,1.509A3.011,3.011,0,0,0,204.8,147a3.131,3.131,0,0,0,5.817-.8,3.011,3.011,0,0,0-.763-2.871,3.553,3.553,0,0,0-1.821-1.054c-.5-.106-.789-.076-.792-.114a1.67,1.67,0,0,1,.818-.038,3.5,3.5,0,0,1,2,1.01,3.542,3.542,0,0,1,.848,1.334,3.181,3.181,0,0,1,.067,1.824,3.478,3.478,0,0,1-6.485.9,3.184,3.184,0,0,1-.428-1.774,3.55,3.55,0,0,1,.456-1.515,3.51,3.51,0,0,1,1.648-1.515A1.67,1.67,0,0,1,206.958,142.195Z" transform="translate(-204.052 -142.095)"/></g><path class="d" d="M156.192,77.012s-.025-.235-.055-.693-.069-1.146-.122-2.033q-.038-.671-.084-1.5c-.056-.548-.172-1.142-.267-1.789s-.211-1.342-.327-2.085a7.35,7.35,0,0,0-.243-1.139q-.152-.581-.312-1.2a40.822,40.822,0,0,0-4.721-11.37A42.531,42.531,0,0,0,139.243,43.1l-1.84-1.375c-.646-.425-1.327-.814-2-1.23l-1.021-.62a8.3,8.3,0,0,0-1.055-.584l-2.208-1.063c-.373-.177-.743-.364-1.123-.534l-1.18-.432-2.393-.875c-.814-.27-1.665-.444-2.506-.674l-1.274-.327c-.214-.052-.426-.116-.643-.158l-.658-.1a39.4,39.4,0,0,0-5.377-.625c-.917-.032-1.841-.123-2.772-.108l-2.814.145c-.471.033-.949.03-1.42.092l-1.418.218c-.947.157-1.909.268-2.861.465a44.9,44.9,0,0,0-5.67,1.667L97.6,37.5c-.235.089-.475.168-.706.266l-.681.329-2.747,1.329c-.9.487-1.759,1.056-2.648,1.584-.435.279-.9.518-1.314.833l-1.252.939a47.935,47.935,0,0,0-4.822,4.108L81.27,49.272l-.544.6c-.168.211-.325.432-.488.648l-.973,1.305-.977,1.311-.856,1.4-.855,1.411-.429.708c-.129.244-.242.5-.363.745l-1.443,3.005q-.575,1.572-1.154,3.156a45.622,45.622,0,0,0-2.194,13.443,45.659,45.659,0,0,0,2.191,13.448q.579,1.584,1.154,3.157l1.444,3.006.363.746.429.708.855,1.411.856,1.4.978,1.311.973,1.306.488.648.544.6,2.162,2.386a47.777,47.777,0,0,0,4.823,4.109l1.252.94c.414.315.879.553,1.314.833.889.528,1.751,1.1,2.649,1.585l2.747,1.328.682.33c.232.1.471.177.706.265l1.41.518a44.95,44.95,0,0,0,5.671,1.667c.952.2,1.915.308,2.862.465l1.417.218c.472.063.95.059,1.421.092l2.814.145c.932.014,1.855-.076,2.773-.108a39.543,39.543,0,0,0,5.378-.625l.657-.1c.217-.043.429-.107.643-.159l1.274-.327c.842-.23,1.693-.4,2.506-.674l2.394-.875,1.18-.432,1.123-.534,2.208-1.064a8.331,8.331,0,0,0,1.054-.584l1.021-.62c.673-.416,1.354-.806,2-1.231l1.839-1.375a42.529,42.529,0,0,0,10.817-12.112c.31-.516.628-1.016.917-1.519l.744-1.542.717-1.482c.113-.244.242-.479.339-.723s.181-.492.27-.734q.536-1.452,1.024-2.779c.3-.892.48-1.773.707-2.59q.161-.616.312-1.2a7.435,7.435,0,0,0,.243-1.138l.326-2.085c.1-.646.211-1.24.267-1.789q.047-.826.084-1.5.08-1.329.122-2.033c.03-.458.055-.693.055-.693s0,.235-.014.694-.046,1.149-.083,2.037l-.066,1.5c-.05.55-.16,1.147-.249,1.8l-.309,2.094a7.371,7.371,0,0,1-.234,1.144q-.148.584-.3,1.2c-.223.821-.4,1.708-.694,2.605l-1.012,2.8-.268.74c-.1.246-.224.483-.337.728l-.713,1.493-.741,1.552c-.287.508-.6,1.012-.914,1.532a42.605,42.605,0,0,1-10.838,12.221l-1.848,1.39c-.649.43-1.333.824-2.01,1.245l-1.026.627a8.5,8.5,0,0,1-1.06.591l-2.221,1.076c-.376.179-.748.369-1.131.541l-1.187.438-2.41.887c-.818.274-1.675.451-2.523.685l-1.284.332c-.215.053-.429.117-.647.161l-.662.1a39.74,39.74,0,0,1-5.419.641c-.924.034-1.855.126-2.794.114l-2.837-.142c-.476-.032-.957-.028-1.433-.09l-1.43-.218c-.954-.156-1.925-.268-2.886-.465a45.192,45.192,0,0,1-5.721-1.673l-1.424-.521c-.237-.089-.478-.169-.713-.267l-.688-.332-2.773-1.337c-.906-.492-1.776-1.064-2.673-1.6-.44-.281-.909-.521-1.327-.839l-1.264-.947a48.242,48.242,0,0,1-4.869-4.142L80.974,105l-.548-.605-.494-.653-.983-1.317-.987-1.323L77.1,99.69l-.863-1.424-.433-.714-.367-.752-1.459-3.034q-.581-1.587-1.165-3.186A45.986,45.986,0,0,1,70.6,77.006a45.979,45.979,0,0,1,2.217-13.568q.584-1.6,1.165-3.184l1.459-3.033c.122-.251.237-.505.367-.752l.433-.714.863-1.424.865-1.414.987-1.323.983-1.317c.165-.217.323-.441.494-.653l.548-.6,2.182-2.405a48.311,48.311,0,0,1,4.868-4.141l1.264-.946c.419-.317.887-.557,1.326-.839.9-.532,1.766-1.1,2.673-1.6l2.772-1.336.688-.332c.234-.1.476-.178.713-.268l1.424-.521a45.266,45.266,0,0,1,5.72-1.673c.96-.2,1.931-.309,2.886-.465l1.43-.217c.476-.063.957-.059,1.433-.091l2.836-.142c.939-.012,1.87.079,2.795.114a39.882,39.882,0,0,1,5.418.64l.662.1c.219.043.432.108.648.161L124,35.4c.848.233,1.7.41,2.523.684l2.41.887,1.188.438c.383.172.755.361,1.13.541l2.221,1.076a8.356,8.356,0,0,1,1.06.591l1.027.627c.676.421,1.36.815,2.01,1.244l1.848,1.39A42.635,42.635,0,0,1,150.252,55.1a40.671,40.671,0,0,1,4.679,11.446q.157.619.3,1.2a7.375,7.375,0,0,1,.235,1.144q.165,1.12.309,2.094c.089.65.2,1.246.249,1.8l.066,1.5q.055,1.332.083,2.037C156.194,76.778,156.192,77.012,156.192,77.012Z" transform="translate(-70.597 -34.047)"/><g transform="translate(19.789 23.016)"><path class="k" d="M141.98,74.122h-44.7a.66.66,0,0,1-.6-.935l3.944-8.568a.658.658,0,0,1,.6-.383h36.814a.657.657,0,0,1,.6.383l3.944,8.568a.657.657,0,0,1-.6.935ZM98.305,72.8h42.648l-3.338-7.249H101.643Z" transform="translate(-96.62 -64.236)"/><path class="k" d="M100.47,84.7a3.859,3.859,0,0,1-3.85-3.86V76.133a.658.658,0,0,1,.657-.659h6.386a.658.658,0,0,1,.658.659v4.708A3.86,3.86,0,0,1,100.47,84.7Zm-2.535-7.909v4.049a2.536,2.536,0,1,0,5.071,0V76.792Z" transform="translate(-96.62 -66.906)"/><path class="k" d="M108.868,84.7a3.859,3.859,0,0,1-3.85-3.86V76.133a.658.658,0,0,1,.657-.659h6.386a.658.658,0,0,1,.657.659v4.708A3.859,3.859,0,0,1,108.868,84.7Zm-2.535-7.909v4.049a2.535,2.535,0,1,0,5.071,0V76.792Z" transform="translate(-98.632 -66.906)"/><path class="k" d="M117.267,84.7a3.86,3.86,0,0,1-3.851-3.86V76.133a.658.658,0,0,1,.658-.659h6.386a.658.658,0,0,1,.657.659v4.708A3.859,3.859,0,0,1,117.267,84.7Zm-2.536-7.909v4.049a2.536,2.536,0,1,0,5.071,0V76.792Z" transform="translate(-100.644 -66.906)"/><path class="k" d="M125.664,84.7a3.859,3.859,0,0,1-3.85-3.86V76.133a.658.658,0,0,1,.658-.659h6.385a.658.658,0,0,1,.658.659v4.708A3.86,3.86,0,0,1,125.664,84.7Zm-2.535-7.909v4.049a2.536,2.536,0,1,0,5.071,0V76.792Z" transform="translate(-102.656 -66.906)"/><path class="k" d="M134.062,84.7a3.859,3.859,0,0,1-3.85-3.86V76.133a.658.658,0,0,1,.657-.659h6.386a.658.658,0,0,1,.657.659v4.708A3.859,3.859,0,0,1,134.062,84.7Zm-2.535-7.909v4.049a2.535,2.535,0,1,0,5.071,0V76.792Z" transform="translate(-104.667 -66.906)"/><path class="k" d="M142.461,84.7a3.86,3.86,0,0,1-3.851-3.86V76.133a.658.658,0,0,1,.658-.659h6.386a.658.658,0,0,1,.657.659v4.708A3.859,3.859,0,0,1,142.461,84.7Zm-2.537-7.909v4.049a2.536,2.536,0,1,0,5.071,0V76.792Z" transform="translate(-106.679 -66.906)"/><path class="k" d="M150.858,84.7a3.859,3.859,0,0,1-3.85-3.86V76.133a.658.658,0,0,1,.658-.659h6.385a.658.658,0,0,1,.658.659v4.708A3.86,3.86,0,0,1,150.858,84.7Zm-2.535-7.909v4.049a2.536,2.536,0,1,0,5.071,0V76.792Z" transform="translate(-108.691 -66.906)"/><path class="k" d="M140.611,110.893H99.793a.658.658,0,0,1-.657-.659V85.848h1.315v23.727h39.5V85.848h1.315v24.386A.658.658,0,0,1,140.611,110.893Z" transform="translate(-97.223 -69.371)"/><path class="k" d="M143.033,112.536H131.857a.658.658,0,0,1-.657-.659V93.423a.658.658,0,0,1,.657-.659h11.176a.658.658,0,0,1,.657.659v18.454A.658.658,0,0,1,143.033,112.536Zm-10.518-1.318h9.861V94.082h-9.861Z" transform="translate(-104.904 -71.015)"/><path class="k" d="M121.492,106.832H105.058a.658.658,0,0,1-.658-.659V92.991a.658.658,0,0,1,.658-.659h16.435a.658.658,0,0,1,.658.659v13.182A.658.658,0,0,1,121.492,106.832Zm-15.778-1.318h15.121V93.65H105.715Z" transform="translate(-98.484 -70.912)"/></g></g><g transform="translate(88.485 63.763)"><g transform="translate(124.966 0)"><path class="l" d="M270.552,101.145h-.03a1.144,1.144,0,0,1-1.112-1.173l.259-10.179a1.147,1.147,0,0,1,.476-.9,1.134,1.134,0,0,1,1-.163,7.221,7.221,0,0,0,5.7-.715,6.618,6.618,0,0,0,3.23-4.137,6.77,6.77,0,0,0-1.048-5.174,7.326,7.326,0,0,0-4.7-3.281,8.459,8.459,0,0,0-9.131,5.564,1.141,1.141,0,1,1-2.155-.749,10.819,10.819,0,0,1,11.7-7.063,9.617,9.617,0,0,1,6.2,4.28A9.07,9.07,0,0,1,282.3,84.4a8.908,8.908,0,0,1-4.316,5.6,9.684,9.684,0,0,1-6.07,1.233l-.224,8.8A1.141,1.141,0,0,1,270.552,101.145Z" transform="translate(-262.979 -73.025)"/><g transform="translate(6.004 31.476)"><path class="l" d="M274.211,115.985a1.668,1.668,0,1,1-1.668-1.673A1.67,1.67,0,0,1,274.211,115.985Z" transform="translate(-270.875 -114.312)"/></g></g><g transform="translate(0 121.164)"><g transform="translate(0 4.416)"><path class="l" d="M106.37,257.627a7.9,7.9,0,0,1-4.757-1.516A7.67,7.67,0,0,1,98.7,250.87a7.224,7.224,0,0,1,1.485-5.438,7.081,7.081,0,0,1,5.06-2.472,7.685,7.685,0,0,1,4.506,1.109l3.007-5.713a1.142,1.142,0,1,1,2.018,1.067l-3.636,6.908a1.139,1.139,0,0,1-1.8.294,5.267,5.267,0,0,0-3.963-1.383,4.8,4.8,0,0,0-3.436,1.645,4.93,4.93,0,0,0-.979,3.712,5.378,5.378,0,0,0,2.016,3.682,6.293,6.293,0,0,0,7.82-.684,1.142,1.142,0,1,1,1.6,1.631A8.635,8.635,0,0,1,106.37,257.627Z" transform="translate(-98.645 -237.746)"/></g><g transform="translate(15.87)"><path class="l" d="M119.648,232.667a1.28,1.28,0,1,1,.578,1.719A1.278,1.278,0,0,1,119.648,232.667Z" transform="translate(-119.515 -231.954)"/></g></g><g transform="translate(223.533 105.754)"><path class="l" d="M407,232.2a1.138,1.138,0,0,1-.925-.473L401.51,225.4a1.145,1.145,0,0,1,.532-1.744,5.288,5.288,0,0,0,2.994-2.948,4.823,4.823,0,0,0,.053-3.818,4.913,4.913,0,0,0-2.886-2.526,5.349,5.349,0,0,0-4.184.179,6.33,6.33,0,0,0-2.856,7.332,1.141,1.141,0,1,1-2.166.714A8.607,8.607,0,0,1,396.99,212.5a7.628,7.628,0,0,1,5.976-.294,7.2,7.2,0,0,1,4.205,3.746,7.117,7.117,0,0,1-.034,5.642,7.731,7.731,0,0,1-2.989,3.557l3.776,5.234A1.143,1.143,0,0,1,407,232.2Z" transform="translate(-392.598 -211.74)"/><g transform="translate(16.045 21.756)"><path class="l" d="M416,240.781a1.281,1.281,0,1,1-1.793-.242A1.284,1.284,0,0,1,416,240.781Z" transform="translate(-413.698 -240.276)"/></g></g></g></g></svg>