<svg xmlns="http://www.w3.org/2000/svg" width="453.434" height="444.144" viewBox="0 0 453.434 444.144"><defs><style>.a{fill:#ebebeb;}.b{fill:#e0e0e0;}.c{fill:#fff;}.d{fill:#f5f5f5;}.e{fill:#263238;}.f{fill:#00a859;}.g{fill:#455a64;}.h{opacity:0.3;}.i{fill:#ff725e;}.j{fill:#ffbe9d;}.k{fill:#eb996e;}</style></defs><g transform="translate(-23.283 -33.07)"><rect class="a" width="39.078" height="10.762" transform="translate(156.487 413.561)"/><path class="b" d="M179.04,434.789a1.28,1.28,0,0,1-.012-.188l-.012-.531q-.011-.729-.03-2.034c-.015-1.785-.038-4.351-.067-7.585l.121.121-39.075.077c.088-.088-.2.2.2-.2V429.7q0,2.589,0,5.085l-.194-.194,27.848.088,8.22.056,2.222.025.582.013a1.211,1.211,0,0,1,.2.013.924.924,0,0,1-.181.012l-.557.013-2.181.025-8.175.056-27.983.088h-.195v-.2q0-2.493,0-5.085v-5.252c.4-.4.112-.111.2-.2l39.075.078h.123v.121c-.029,3.265-.052,5.855-.067,7.657q-.02,1.287-.03,2.007c-.005.209-.009.377-.013.509A.639.639,0,0,1,179.04,434.789Z"/><path class="b" d="M192.674,308.253a1.472,1.472,0,0,1-.01-.2l-.011-.561q-.009-.773-.024-2.154c-.013-1.889-.032-4.6-.055-8.029l.1.128-32.187.083c.072-.094-.166.21.162-.211v1.4q0,.7,0,1.4v2.761q0,2.74,0,5.383l-.16-.206,22.939.093,6.77.059,1.831.027.479.013a.888.888,0,0,1,.17.014.6.6,0,0,1-.149.013l-.46.013-1.8.027-6.734.059-23.05.094h-.161v-.207q0-2.64,0-5.383v-5.56c.328-.421.092-.117.166-.211l32.187.083h.1v.128c-.023,3.457-.042,6.2-.055,8.105q-.015,1.363-.024,2.125c0,.221-.008.4-.01.539A1.206,1.206,0,0,1,192.674,308.253Z"/><path class="b" d="M450.88,442.2a1.173,1.173,0,0,1-.013-.2l-.014-.562c-.007-.514-.017-1.233-.031-2.153-.016-1.889-.04-4.605-.071-8.029l.129.128-41.361.083c.093-.094-.213.21.208-.211v2.8q0,1.391,0,2.761c0,1.826,0,3.623,0,5.382l-.206-.206,29.477.094,8.7.059,2.352.027.616.013a1.447,1.447,0,0,1,.218.014,1.1,1.1,0,0,1-.192.013l-.59.013-2.308.027-8.653.059-29.621.094h-.206V442.2c0-1.759,0-3.556,0-5.382q0-1.369,0-2.761v-2.8c.422-.422.119-.117.214-.211l41.361.083h.129v.128c-.03,3.457-.054,6.2-.071,8.1q-.02,1.362-.031,2.125l-.014.539A.868.868,0,0,1,450.88,442.2Z"/><path class="b" d="M456.488,431.256a1.182,1.182,0,0,1-.016-.208c0-.158-.01-.348-.016-.58q-.014-.809-.038-2.194c-.02-1.919-.047-4.629-.082-7.961l.152.152-24.851.059c-.189.188.255-.257.209-.21v1.432c0,.475,0,.949,0,1.419,0,.94,0,1.87,0,2.785,0,1.83,0,3.6-.007,5.306l-.2-.2,17.779.1,5.178.056,1.4.025a4.164,4.164,0,0,1,.5.025,3.051,3.051,0,0,1-.451.025l-1.355.025-5.133.055-17.914.1h-.2v-.2c0-1.7-.005-3.476-.008-5.306,0-.915,0-1.845,0-2.785v-2.851c-.047.045.4-.4.212-.211l24.851.059h.153l0,.151c-.034,3.371-.061,6.112-.081,8.053q-.024,1.363-.038,2.16A6.312,6.312,0,0,1,456.488,431.256Z"/><rect class="a" width="39.078" height="10.762" transform="translate(391.523 214.323)"/><path class="b" d="M414.077,235.55a1.247,1.247,0,0,1-.012-.188l-.013-.53q-.01-.729-.029-2.034c-.016-1.785-.039-4.351-.067-7.586l.121.121L375,225.411c.088-.088-.2.2.2-.2v2.644q0,1.315,0,2.609,0,2.589,0,5.085l-.2-.2,27.848.089,8.22.055,2.223.026.581.013a1.5,1.5,0,0,1,.206.012.867.867,0,0,1-.181.013l-.558.012-2.18.026-8.175.055L375,235.745h-.2v-.2q0-2.493,0-5.085,0-1.294,0-2.609v-2.644c.4-.4.112-.11.2-.2l39.076.078h.122v.121c-.029,3.266-.051,5.856-.067,7.658q-.02,1.287-.029,2.007c-.006.209-.01.376-.013.509A.76.76,0,0,1,414.077,235.55Z"/><path class="b" d="M452.834,149.938a1.139,1.139,0,0,1-.013-.2c0-.147-.008-.331-.014-.562q-.011-.772-.031-2.153c-.016-1.889-.04-4.6-.071-8.029l.128.128-41.36.082c.093-.093-.213.211.208-.21v2.8q0,1.392,0,2.762c0,1.826,0,3.623,0,5.382l-.206-.206,29.477.094,8.7.059,2.352.027.616.013a1.575,1.575,0,0,1,.218.013.916.916,0,0,1-.192.014l-.59.013-2.308.027-8.653.059-29.621.094h-.206v-.207c0-1.759,0-3.556,0-5.382v-2.762c0-.463,0-.929,0-1.4V139c.422-.422.119-.117.214-.211l41.36.083h.13V139c-.03,3.456-.054,6.2-.071,8.1q-.02,1.362-.031,2.125c-.006.221-.01.4-.014.539A.837.837,0,0,1,452.834,149.938Z"/><path class="b" d="M458.442,139a1.208,1.208,0,0,1-.016-.209c0-.157-.01-.347-.016-.579q-.015-.808-.038-2.194c-.02-1.919-.048-4.629-.082-7.961l.152.152-24.851.059c-.189.188.254-.257.209-.21v1.432q0,.713,0,1.419,0,1.41,0,2.785c0,1.83-.005,3.6-.007,5.306l-.2-.2,17.778.1,5.179.056,1.4.025a3.919,3.919,0,0,1,.5.025,2.994,2.994,0,0,1-.451.024l-1.355.026-5.133.055-17.914.1h-.2V139c0-1.7-.005-3.476-.008-5.306q0-1.374,0-2.785v-2.851c-.046.045.4-.4.213-.212l24.851.06h.153l0,.151c-.034,3.371-.062,6.112-.081,8.053q-.024,1.363-.038,2.16A6.3,6.3,0,0,1,458.442,139Z"/><path class="b" d="M444.753,302.563a1.669,1.669,0,0,1-.01-.2c0-.146-.006-.331-.01-.561q-.009-.773-.025-2.154c-.013-1.889-.031-4.6-.055-8.029l.1.128-32.187.083c.072-.094-.165.21.162-.211v2.8q0,1.391,0,2.761,0,2.74,0,5.383l-.16-.206,22.939.093,6.771.059,1.831.027.478.014a.841.841,0,0,1,.17.013.585.585,0,0,1-.149.013l-.459.013-1.8.028-6.734.058-23.051.094h-.16v-.207q0-2.64,0-5.383,0-1.369,0-2.761v-2.8c.328-.421.092-.116.166-.211l32.187.083h.1v.128c-.024,3.457-.042,6.2-.055,8.106q-.017,1.362-.025,2.124l-.01.539A1.031,1.031,0,0,1,444.753,302.563Z"/><rect class="b" width="95.728" height="158.458" transform="translate(241.347 61.918)"/><rect class="a" width="95.728" height="158.458" transform="translate(238.163 61.918)"/><rect class="c" width="87.576" height="152.031" transform="translate(242.239 65.131)"/><rect class="a" width="53.852" height="112.52" transform="translate(258.912 84.887)"/><path class="b" d="M258.912,157.59c-.125-10.511,9.326-20.772,19.735-22.24,4.963-.7,10.236.286,14.874-1.616,8.278-3.394,10.912-14.393,19.243-17.655l.38,81.328H258.912Z"/><path class="d" d="M189,33.07"/><rect class="d" width="36.137" height="59.963" transform="translate(31.451 88.48)"/><rect class="d" width="39.045" height="59.963" transform="translate(68.977 88.48)"/><rect class="d" width="39.045" height="57.937" transform="translate(68.977 152.632)"/><path class="d" d="M113.027,87.442h41.119V34.25h1.39V87.442H189V33.07H113.027Z"/><rect class="d" width="33.463" height="59.963" transform="translate(155.535 88.48)"/><rect class="d" width="33.463" height="57.937" transform="translate(155.535 152.632)"/><rect class="d" width="36.137" height="57.937" transform="translate(31.451 152.632)"/><rect class="d" width="41.119" height="57.937" transform="translate(113.027 152.632)"/><rect class="d" width="36.137" height="52.208" transform="translate(31.451 211.606)"/><rect class="d" width="33.463" height="52.208" transform="translate(155.535 211.606)"/><path class="d" d="M67.588,87.442V34.25h1.389V87.442h39.045V33.07H31.451V87.442Z"/><rect class="d" width="41.119" height="52.208" transform="translate(113.027 211.606)"/><rect class="d" width="39.045" height="52.208" transform="translate(68.977 211.606)"/><rect class="d" width="41.119" height="59.963" transform="translate(113.027 88.48)"/><path class="b" d="M256.523,45.118a1.467,1.467,0,0,1-.01-.2l-.011-.562c-.006-.514-.014-1.233-.024-2.153-.013-1.889-.032-4.6-.055-8.029l.1.128-32.187.083c.072-.094-.166.21.162-.211v1.4q0,.7,0,1.4v2.761q0,2.74,0,5.383l-.16-.207,22.939.094,6.77.059,1.831.027.479.013a.89.89,0,0,1,.17.014.6.6,0,0,1-.149.013l-.46.013-1.8.027-6.734.059-23.05.094h-.161v-.206q0-2.64,0-5.383v-5.56c.328-.422.092-.117.166-.211l32.187.083h.1v.128c-.024,3.457-.043,6.2-.056,8.1q-.015,1.364-.024,2.125c0,.221-.008.4-.01.539A1.21,1.21,0,0,1,256.523,45.118Z"/><path class="e" d="M476.717,470.367c0,.144-101.513.261-226.706.261-125.237,0-226.728-.117-226.728-.261s101.491-.26,226.728-.26C375.2,470.107,476.717,470.224,476.717,470.367Z"/><circle class="f" cx="35.107" cy="35.107" r="35.107" transform="translate(379.565 41.119)"/><circle class="c" cx="31.149" cy="31.149" r="31.149" transform="translate(383.631 45.077)"/><path class="e" d="M445.928,76.225s-.023-.17-.047-.5-.055-.839-.1-1.478l-.065-1.088c-.042-.4-.128-.831-.2-1.3a22.7,22.7,0,0,0-.649-3.213,29.7,29.7,0,0,0-3.451-8.26,31.118,31.118,0,0,0-20.926-14.575,28.818,28.818,0,0,0-3.915-.452c-.668-.023-1.34-.088-2.018-.078l-2.049.107c-.343.024-.691.021-1.034.067l-1.032.159c-.689.114-1.39.195-2.083.338a32.618,32.618,0,0,0-4.126,1.212,32.11,32.11,0,0,0-4.036,1.774c-.653.354-1.28.767-1.927,1.151-.316.2-.654.375-.956.6l-.911.682a28.358,28.358,0,0,0-6.541,6.57l-.711.952-.623,1.018-.622,1.024a7.75,7.75,0,0,0-.576,1.055l-1.051,2.182q-.417,1.142-.839,2.291a33.014,33.014,0,0,0-1.6,9.759,33.077,33.077,0,0,0,1.594,9.763q.422,1.149.839,2.291l1.051,2.183a7.58,7.58,0,0,0,.576,1.055l.622,1.025.622,1.018.712.952a28.315,28.315,0,0,0,6.542,6.571l.911.683c.3.229.64.4.956.6.647.384,1.274.8,1.927,1.152a32.121,32.121,0,0,0,4.037,1.774,32.632,32.632,0,0,0,4.127,1.212c.693.143,1.393.224,2.082.338l1.033.159c.343.046.691.043,1.034.067l2.049.107c.678.01,1.351-.055,2.018-.078a28.815,28.815,0,0,0,3.916-.452,31.129,31.129,0,0,0,20.925-14.577,29.71,29.71,0,0,0,3.45-8.259,22.7,22.7,0,0,0,.649-3.213c.07-.47.156-.9.2-1.3l.065-1.088c.042-.639.074-1.13.1-1.478s.047-.505.047-.505.006.171,0,.505c-.013.35-.03.843-.053,1.483q-.021.492-.045,1.093c-.035.4-.114.836-.178,1.308a22.263,22.263,0,0,1-.613,3.236,29.543,29.543,0,0,1-3.4,8.342A31.309,31.309,0,0,1,420.563,107a29.3,29.3,0,0,1-3.96.469c-.676.025-1.357.092-2.043.083l-2.074-.1c-.347-.023-.7-.021-1.047-.065l-1.045-.159c-.7-.114-1.408-.194-2.11-.338a34.278,34.278,0,0,1-8.275-3.009c-.663-.359-1.3-.776-1.955-1.164-.321-.2-.664-.38-.97-.611l-.924-.69a28.662,28.662,0,0,1-6.638-6.653l-.722-.965-.632-1.031-.632-1.039a7.844,7.844,0,0,1-.584-1.069q-.533-1.1-1.067-2.213l-.852-2.323a33.46,33.46,0,0,1-1.619-9.9,33.436,33.436,0,0,1,1.621-9.9q.428-1.166.853-2.322.534-1.11,1.066-2.212a7.688,7.688,0,0,1,.585-1.069l.631-1.038.633-1.032.721-.964a28.675,28.675,0,0,1,6.637-6.651l.924-.69c.306-.231.649-.406.97-.611.656-.388,1.292-.805,1.954-1.163a32.564,32.564,0,0,1,4.092-1.79,32.969,32.969,0,0,1,4.183-1.219c.7-.144,1.411-.224,2.109-.338l1.045-.158c.348-.046.7-.043,1.047-.066l2.074-.1c.686-.009,1.367.058,2.042.083a29.126,29.126,0,0,1,3.96.469A31.3,31.3,0,0,1,441.63,60.257a29.553,29.553,0,0,1,3.406,8.343,22.263,22.263,0,0,1,.613,3.236c.064.473.142.907.178,1.308q.024.6.045,1.094c.023.64.04,1.133.053,1.483C445.934,76.055,445.928,76.225,445.928,76.225Z"/><path class="e" d="M429.3,75.347a7.808,7.808,0,0,1-1.257.359l-3.474.83c-2.945.685-7.034,1.606-11.6,2.608l-.264.058V78.025c0-4.881.024-9.3.064-12.5.028-1.542.051-2.819.069-3.787a8.563,8.563,0,0,1,.084-1.389,8.474,8.474,0,0,1,.085,1.389c.017.968.041,2.244.069,3.787.039,3.2.063,7.616.063,12.5v.907l-.263-.211c4.566-1,8.665-1.869,11.626-2.477l3.5-.7A7.725,7.725,0,0,1,429.3,75.347Z"/><path class="e" d="M450.631,88.015a2.39,2.39,0,0,1,.138-.5c.1-.329.28-.8.454-1.423a37.766,37.766,0,0,0,1.216-5.342A36.032,36.032,0,0,0,440.8,48.131a37.712,37.712,0,0,0-4.324-3.363c-.53-.374-.971-.62-1.253-.814a2.385,2.385,0,0,1-.426-.3,2.361,2.361,0,0,1,.47.229c.3.17.753.393,1.3.747A33.067,33.067,0,0,1,441,47.9a35.464,35.464,0,0,1,11.743,32.893,33.038,33.038,0,0,1-1.36,5.345c-.2.62-.41,1.082-.532,1.4A2.361,2.361,0,0,1,450.631,88.015Z"/><path class="e" d="M456.6,72.684c-.069,0-.111-1.241-.365-3.225A37.805,37.805,0,0,0,451.219,54.8c-1.018-1.722-1.748-2.728-1.691-2.769a3.227,3.227,0,0,1,.58.657c.348.442.826,1.1,1.372,1.951a33.051,33.051,0,0,1,5.063,14.784c.089,1,.116,1.82.114,2.383A3.245,3.245,0,0,1,456.6,72.684Z"/><path class="e" d="M381.363,59.424a2.366,2.366,0,0,1-.216.477c-.146.31-.4.743-.674,1.333a37.584,37.584,0,0,0-2.051,5.08,36.028,36.028,0,0,0,6.311,34.05,37.5,37.5,0,0,0,3.735,4.008c.464.454.859.766,1.107,1a2.4,2.4,0,0,1,.373.369,2.363,2.363,0,0,1-.429-.3c-.266-.215-.68-.507-1.164-.944a32.962,32.962,0,0,1-3.859-3.939,35.452,35.452,0,0,1-6.365-34.341,33.031,33.031,0,0,1,2.191-5.061c.3-.581.577-1,.749-1.3A2.34,2.34,0,0,1,381.363,59.424Z"/><path class="e" d="M373.031,73.611c.069.01-.088,1.243-.153,3.242A37.811,37.811,0,0,0,375.5,92.121c.731,1.862,1.292,2.971,1.23,3a3.233,3.233,0,0,1-.468-.741c-.274-.492-.641-1.221-1.045-2.145a33.028,33.028,0,0,1-2.648-15.4c.071-1.006.174-1.816.265-2.371A3.244,3.244,0,0,1,373.031,73.611Z"/><path class="e" d="M439.808,81.37c-1.176-.241-2.126-.446-2.124-.458s.957.173,2.133.414,2.125.445,2.122.457S440.982,81.61,439.808,81.37Z"/><path class="e" d="M439.808,81.37a3.281,3.281,0,0,1,1.283.07l.635.09.17.023.039,0h.015c0-.028-.223.041-.225.151a.229.229,0,0,0,.109.274c.041.018-.03,0-.046-.005l-.368-.071-1.656-.327-1.651-.35-.367-.08c-.008,0-.1-.011-.029-.014a.227.227,0,0,0,.194-.223c.033-.119-.169-.241-.148-.212l.014,0,.038.011.166.045.619.167c.759.209,1.222.369,1.208.44a3.2,3.2,0,0,1-1.284-.08l-.638-.105-.177-.034-.049-.011-.03-.008c.014.028-.2-.1-.17-.22-.021-.065.081-.22.21-.224a.88.88,0,0,1,.153.012l.38.059c.515.086,1.077.191,1.665.312s1.147.244,1.654.368l.373.095a.971.971,0,0,1,.131.041c.111.033.169.231.126.281-.011.111-.241.179-.248.151l-.03-.005-.05-.009-.177-.039-.627-.153C440.256,81.6,439.793,81.44,439.808,81.37Z"/><path class="e" d="M436.788,89.22c-1.034-.609-1.867-1.111-1.861-1.121s.849.476,1.882,1.085,1.866,1.111,1.86,1.121S437.821,89.829,436.788,89.22Z"/><path class="e" d="M436.788,89.221c.036-.063.488.129,1.19.483l.572.291.153.078.036.017.014.007c.011-.026-.225-.036-.263.069a.228.228,0,0,0,.016.3c.031.029-.028-.014-.043-.021l-.326-.187c-.485-.28-.962-.557-1.46-.846l-1.449-.868-.321-.194c-.006-.008-.1-.045-.022-.023a.23.23,0,0,0,.257-.148c.069-.1-.085-.285-.073-.249l.012.009.033.023.142.1.532.359c.65.443,1.036.745,1,.808s-.489-.128-1.189-.492l-.569-.307-.156-.089-.043-.026-.025-.016c.005.031-.154-.156-.09-.264a.232.232,0,0,1,.271-.144.842.842,0,0,1,.14.061l.34.18c.459.248.956.531,1.474.835s1.005.6,1.445.885l.321.21a1.309,1.309,0,0,1,.11.081.238.238,0,0,1,.029.307c-.045.1-.288.091-.284.062l-.027-.014-.044-.025-.154-.094c-.179-.114-.359-.23-.543-.349C437.136,89.586,436.751,89.282,436.788,89.221Z"/><path class="e" d="M431.374,95.656c-.779-.912-1.4-1.658-1.395-1.665s.648.726,1.427,1.638,1.4,1.657,1.394,1.665S432.153,96.568,431.374,95.656Z"/><path class="e" d="M431.374,95.656c.055-.047.42.282.969.844l.445.462.12.124.029.028.011.01c.018-.021-.2-.107-.273-.019a.228.228,0,0,0-.079.285c.019.036-.023-.023-.035-.034l-.247-.283c-.368-.423-.729-.839-1.106-1.275s-.727-.863-1.087-1.292l-.241-.289c0-.009-.075-.073-.013-.029a.23.23,0,0,0,.292-.057c.1-.076.011-.3.011-.259l.009.013.023.032.1.138.387.512c.47.631.737,1.042.682,1.089s-.42-.28-.964-.851l-.438-.475-.119-.136-.032-.038-.018-.023c-.005.032-.1-.2,0-.278a.232.232,0,0,1,.3-.049.789.789,0,0,1,.112.1l.263.28c.353.384.731.813,1.122,1.27s.754.9,1.078,1.306l.236.3a1.264,1.264,0,0,1,.077.111c.07.092-.006.289-.071.3-.076.082-.3-.007-.29-.034l-.021-.022-.033-.038-.115-.139-.4-.506C431.585,96.115,431.32,95.7,431.374,95.656Z"/><path class="e" d="M424.172,99.991c-.443-1.115-.793-2.022-.783-2.026s.378.9.821,2.011S425,102,424.992,102,424.614,101.106,424.172,99.991Z"/><path class="e" d="M424.172,99.991c.067-.026.306.4.644,1.112.092.2.182.39.272.581l.074.156.017.036.007.013c.026-.013-.155-.166-.25-.107-.064-.007-.2.14-.169.244.007.042-.014-.028-.022-.042l-.142-.348-.635-1.564-.612-1.574-.134-.351c0-.01-.047-.093,0-.032a.23.23,0,0,0,.3.041c.118-.039.107-.278.1-.242l0,.015.011.038.054.164.2.61c.242.748.362,1.224.295,1.25s-.308-.4-.638-1.117c-.088-.2-.175-.4-.261-.59l-.069-.167-.018-.047-.01-.028c-.015.029-.027-.217.09-.264a.233.233,0,0,1,.3.054.868.868,0,0,1,.072.134l.158.35c.21.477.43,1.006.652,1.564s.424,1.093.6,1.584l.125.363c.013.044.013.032.038.131s-.1.271-.167.261c-.1.053-.284-.106-.262-.126l-.012-.027-.019-.047-.064-.168-.216-.609C424.223,100.494,424.105,100.018,424.172,99.991Z"/><path class="e" d="M415.952,101.756c-.055-1.2-.091-2.17-.079-2.17s.065.97.12,2.168.09,2.17.079,2.171S416.007,102.954,415.952,101.756Z"/><path class="e" d="M415.952,101.756c.072,0,.158.48.246,1.261l.068.638.019.172.005.039,0,.015c.028,0-.092-.208-.2-.182a.228.228,0,0,0-.239.174c-.007.043,0-.031-.007-.046l-.021-.375c-.03-.56-.059-1.11-.09-1.686s-.044-1.127-.065-1.687l-.013-.376c0-.009-.013-.1.007-.033a.229.229,0,0,0,.264.137c.125,0,.194-.227.17-.2v.055l0,.173c0,.21-.007.423-.01.641a3.3,3.3,0,0,1-.129,1.278c-.072,0-.16-.479-.239-1.264q-.027-.327-.054-.643l-.011-.18,0-.05v-.03c-.024.021.047-.216.172-.22.058-.038.236.026.27.15a1.012,1.012,0,0,1,.024.15l.035.382c.043.52.078,1.091.106,1.691s.044,1.172.049,1.693v.384a1.128,1.128,0,0,1-.007.137c0,.116-.183.222-.242.192-.112.018-.234-.195-.207-.205l0-.03,0-.05-.006-.18c0-.213,0-.427-.005-.646C415.836,102.248,415.88,101.76,415.952,101.756Z"/><path class="e" d="M407.6,100.748c.335-1.152.616-2.083.627-2.079s-.25.939-.585,2.091-.616,2.083-.628,2.079S407.261,101.9,407.6,100.748Z"/><path class="e" d="M407.6,100.748a3.31,3.31,0,0,1-.175,1.273c-.047.213-.094.42-.141.626l-.037.168-.008.039,0,.014c.028,0-.023-.226-.133-.237a.229.229,0,0,0-.282.088c-.02.037.007-.03.009-.046l.1-.362c.153-.539.3-1.069.46-1.624l.483-1.617.109-.36c.006-.007.02-.1.017-.026a.228.228,0,0,0,.207.211c.117.041.254-.151.223-.131l-.006.014-.014.037-.059.162-.217.6c-.269.739-.466,1.188-.535,1.168s0-.505.183-1.273l.157-.627.048-.174.015-.048.009-.029c-.028.013.113-.186.232-.151.067-.017.214.1.208.226a.761.761,0,0,1-.025.152l-.09.374c-.127.506-.278,1.058-.445,1.635s-.337,1.123-.5,1.618l-.124.364c-.017.042-.009.033-.051.126s-.245.151-.291.1c-.11-.019-.16-.255-.131-.26l.007-.029.014-.049.052-.173.2-.613C407.327,101.176,407.527,100.728,407.6,100.748Z"/><path class="e" d="M400.019,97.091c.693-.98,1.262-1.768,1.271-1.762s-.544.806-1.237,1.786-1.261,1.768-1.27,1.761S399.327,98.07,400.019,97.091Z"/><path class="e" d="M400.019,97.091c.059.041-.169.475-.58,1.146l-.338.546-.09.146-.02.034-.008.014c.026.012.054-.222-.048-.269a.229.229,0,0,0-.3-.007c-.03.027.017-.028.025-.042l.213-.309.964-1.386c.337-.468.658-.916.985-1.371l.22-.3c.009-.005.053-.091.025-.02a.229.229,0,0,0,.128.268c.1.078.29-.062.253-.052l-.01.011-.026.031-.108.134-.4.5c-.5.61-.829.971-.888.929s.168-.477.588-1.144l.353-.541.1-.149.03-.041.018-.023c-.032,0,.166-.141.269-.069a.234.234,0,0,1,.123.283.989.989,0,0,1-.074.135l-.207.323c-.285.437-.608.909-.955,1.4s-.684.952-1,1.367l-.236.3a1.308,1.308,0,0,1-.088.1.24.24,0,0,1-.31,0c-.1-.053-.067-.295-.038-.289l.016-.025.029-.041.106-.146.393-.513C399.626,97.408,399.961,97.05,400.019,97.091Z"/><path class="e" d="M394.051,91.167c.973-.7,1.767-1.263,1.774-1.254s-.777.586-1.75,1.287-1.766,1.264-1.772,1.254S393.079,91.869,394.051,91.167Z"/><path class="e" d="M394.051,91.167c.043.059-.314.395-.92.9l-.5.406-.133.109-.03.026-.012.01c.02.021.123-.193.042-.27a.229.229,0,0,0-.278-.1c-.037.016.025-.02.037-.031l.3-.224,1.361-1,1.377-.977.307-.217c.01,0,.08-.069.03-.011a.229.229,0,0,0,.034.3c.068.1.3.035.257.032l-.014.008-.034.021-.146.092-.542.343c-.667.417-1.1.65-1.141.591s.314-.4.928-.891l.509-.4.144-.107.041-.029.025-.017c-.032-.007.2-.079.277.022a.233.233,0,0,1,.024.308.8.8,0,0,1-.113.1l-.3.239c-.411.321-.87.663-1.357,1.015s-.956.678-1.39.968l-.321.21a1.262,1.262,0,0,1-.117.068c-.1.061-.287-.029-.294-.1-.076-.082.032-.3.058-.286l.023-.019.04-.03.148-.1.538-.358C393.576,91.34,394.009,91.109,394.051,91.167Z"/><path class="e" d="M390.319,83.63c1.148-.349,2.08-.624,2.084-.613s-.924.3-2.072.652-2.08.624-2.084.613S389.172,83.979,390.319,83.63Z"/><path class="e" d="M390.319,83.63c.021.069-.426.272-1.161.55l-.6.224-.161.06-.037.015-.014.006c.008.027.178-.139.127-.24a.228.228,0,0,0-.229-.189c-.043,0,.03-.012.044-.018l.358-.114,1.611-.5,1.619-.479.361-.106c.01,0,.1-.038.034,0a.228.228,0,0,0-.067.29c.028.121.267.131.233.115l-.015,0-.039.009-.168.039-.623.15c-.766.179-1.25.259-1.271.19s.425-.273,1.166-.543l.61-.212.172-.055.048-.014.029-.008c-.027-.017.22-.007.256.113a.234.234,0,0,1-.08.3.955.955,0,0,1-.139.06l-.362.129c-.493.17-1.037.345-1.612.52s-1.124.333-1.628.467l-.373.1c-.045.009-.031.01-.133.027s-.262-.124-.247-.188c-.044-.105.132-.275.148-.251l.028-.01.048-.015.173-.05.625-.164A3.2,3.2,0,0,1,390.319,83.63Z"/><path class="e" d="M389.241,75.288c1.2.045,2.17.09,2.17.1s-.973-.015-2.172-.06-2.169-.09-2.169-.1S388.043,75.243,389.241,75.288Z"/><path class="e" d="M389.241,75.288a3.3,3.3,0,0,1-1.278.141l-.641.015-.172,0-.04,0H387.1c0,.028.215-.076.2-.186a.23.23,0,0,0-.156-.253c-.039-.01.032,0,.049,0l.375.009,1.687.05,1.687.076.375.018c.009,0,.1-.005.031.01a.23.23,0,0,0-.156.253c-.012.124.211.21.183.184l-.015,0-.04-.005-.172-.017-.638-.063c-.782-.081-1.266-.163-1.263-.235a3.193,3.193,0,0,1,1.279-.133h.646l.18,0,.05,0,.03,0c-.02-.025.209.063.205.189.033.061-.044.232-.171.257a.989.989,0,0,1-.152.012l-.384,0c-.522,0-1.094-.012-1.694-.034s-1.171-.053-1.691-.091l-.383-.032c-.045-.006-.035,0-.134-.018-.116-.012-.209-.2-.173-.258-.009-.112.211-.217.221-.189h.03l.05,0,.181.009.644.049A3.2,3.2,0,0,1,389.241,75.288Z"/><path class="e" d="M390.93,67.044c1.12.428,2.025.785,2.021.8s-.916-.327-2.036-.756-2.025-.785-2.021-.8S389.81,66.615,390.93,67.044Z"/><path class="e" d="M390.93,67.044c-.026.067-.5-.047-1.255-.279l-.611-.192-.165-.051-.038-.011-.014,0c0,.028.228-.005.248-.114a.227.227,0,0,0-.066-.287c-.034-.023.03.009.046.013l.352.13,1.581.592,1.572.615.349.138c.007.007.1.029.025.019a.229.229,0,0,0-.227.19c-.051.113.131.265.112.232l-.013-.007-.036-.017-.156-.072-.584-.265c-.715-.33-1.146-.563-1.12-.63s.5.044,1.254.287l.611.208.17.062.047.019.027.012c-.011-.031.177.126.133.243.01.069-.114.205-.243.189a.829.829,0,0,1-.15-.038l-.365-.12c-.494-.168-1.031-.364-1.592-.579s-1.092-.427-1.572-.632l-.352-.154a1.043,1.043,0,0,1-.122-.061.241.241,0,0,1-.08-.3c.027-.107.267-.139.271-.109l.028.01.048.017.167.067.6.253C390.525,66.741,390.955,66.977,390.93,67.044Z"/><path class="e" d="M395.2,59.8c.919.771,1.657,1.4,1.65,1.412s-.758-.609-1.677-1.38-1.657-1.4-1.65-1.412S394.283,59.027,395.2,59.8Z"/><path class="e" d="M395.2,59.8c-.047.055-.46-.209-1.1-.673l-.515-.382-.139-.1-.032-.023-.013-.009c-.014.025.218.072.272-.026a.227.227,0,0,0,.031-.294c-.024-.031.026.019.04.028l.291.238,1.3,1.076,1.285,1.1.285.245c0,.008.086.06.017.026a.229.229,0,0,0-.278.1c-.085.092.039.295.032.257l-.011-.011-.028-.028-.125-.119-.466-.442c-.567-.544-.9-.906-.852-.961s.461.207,1.091.681l.51.4.14.114.038.033.022.02c0-.034.127.176.047.273a.233.233,0,0,1-.292.1.861.861,0,0,1-.129-.084l-.3-.233c-.412-.321-.856-.681-1.316-1.067s-.892-.761-1.279-1.111l-.283-.26c-.031-.032-.027-.022-.094-.1a.24.24,0,0,1,.021-.309c.06-.094.3-.044.291-.015l.024.019.039.031.136.118.479.434C394.918,59.38,395.248,59.743,395.2,59.8Z"/><path class="e" d="M401.6,54.338c.62,1.027,1.115,1.864,1.105,1.87s-.52-.822-1.14-1.849-1.114-1.864-1.105-1.87S400.976,53.311,401.6,54.338Z"/><path class="e" d="M401.6,54.338c-.062.037-.368-.346-.818-.991-.123-.18-.244-.355-.364-.529l-.1-.141-.023-.033-.01-.012c-.021.019.183.138.266.064a.228.228,0,0,0,.125-.269c-.013-.038.019.027.029.04l.2.319.883,1.439.862,1.452.19.324c0,.009.062.085.009.031a.23.23,0,0,0-.3.009c-.11.059-.059.291-.053.253l-.007-.014-.017-.036-.08-.153-.3-.568c-.361-.7-.558-1.148-.5-1.185s.37.344.813,1l.355.539.1.154.025.043.015.026c.009-.032.063.208-.045.274a.233.233,0,0,1-.309,0,.961.961,0,0,1-.094-.121l-.213-.319c-.286-.437-.589-.922-.9-1.436s-.6-1.009-.851-1.465l-.183-.337a1.164,1.164,0,0,1-.058-.122c-.054-.1.053-.285.12-.286.088-.068.3.056.28.081l.016.025.027.043.091.156.312.565C401.462,53.85,401.656,54.3,401.6,54.338Z"/><path class="e" d="M409.409,51.238c.254,1.172.45,2.125.439,2.127s-.225-.946-.479-2.118-.45-2.125-.439-2.127S409.156,50.066,409.409,51.238Z"/><path class="e" d="M409.409,51.238c-.07.015-.235-.447-.452-1.2l-.173-.618-.047-.165-.012-.039-.005-.014c-.027.008.127.19.231.147.061.017.222-.1.205-.213,0-.042.009.03.015.045l.084.367c.122.546.243,1.084.369,1.647s.23,1.1.344,1.653l.075.368c0,.01.031.1,0,.033a.229.229,0,0,0-.284-.089c-.124.019-.152.256-.134.223v-.016l-.006-.039-.025-.171-.1-.634a3.3,3.3,0,0,1-.085-1.282c.07-.015.238.446.446,1.207.054.212.107.419.16.625l.041.176.01.049.005.029c.019-.026-.009.219-.132.246a.234.234,0,0,1-.291-.1.913.913,0,0,1-.049-.144l-.1-.371c-.128-.506-.258-1.063-.385-1.65s-.239-1.148-.331-1.661l-.063-.379a.973.973,0,0,1-.016-.135c-.017-.115.143-.25.206-.231.107-.036.264.152.239.168l.007.029.011.049.036.177c.037.209.074.42.112.636A3.189,3.189,0,0,1,409.409,51.238Z"/><path class="e" d="M417.812,50.853c-.143,1.191-.268,2.156-.279,2.154s.1-.968.238-2.159.268-2.155.279-2.153S417.955,49.663,417.812,50.853Z"/><path class="e" d="M417.812,50.853a3.3,3.3,0,0,1-.035-1.284l.038-.641.009-.172,0-.039V48.7c-.028,0,.059.221.17.214a.23.23,0,0,0,.264-.134c.013-.039,0,.031,0,.048l-.04.373c-.063.557-.124,1.1-.189,1.678s-.142,1.119-.213,1.674l-.049.373c-.005.008,0,.105-.013.029a.228.228,0,0,0-.239-.175c-.123-.022-.226.192-.2.166l0-.015.008-.039.031-.169.115-.631c.145-.773.267-1.249.338-1.24a3.2,3.2,0,0,1,.028,1.286c-.018.219-.036.432-.053.644l-.019.179-.006.05-.005.03c.027-.019-.08.2-.2.188-.063.027-.226-.062-.242-.191a.866.866,0,0,1,0-.153l.028-.383c.043-.52.1-1.089.173-1.685s.149-1.163.23-1.679l.063-.379c.01-.044,0-.034.03-.132.021-.114.216-.19.27-.151.111,0,.2.227.171.236l0,.03-.006.05-.024.179c-.033.21-.067.421-.1.638C418.007,50.387,417.883,50.862,417.812,50.853Z"/><path class="e" d="M425.891,53.21c-.52,1.081-.95,1.953-.961,1.948s.4-.886.923-1.967.949-1.953.96-1.947S426.411,52.129,425.891,53.21Z"/><path class="e" d="M425.891,53.21c-.065-.032.088-.5.381-1.227l.243-.594.064-.16.014-.037.005-.014c-.026-.008-.015.227.092.256a.228.228,0,0,0,.293-.041c.026-.033-.012.029-.017.045l-.159.34-.72,1.526-.743,1.516-.166.337c-.008.006-.037.1-.022.024a.229.229,0,0,0-.169-.243c-.109-.061-.277.108-.242.093l.008-.013.02-.034.085-.15.313-.56c.387-.685.655-1.1.72-1.064s-.086.5-.39,1.226l-.257.592-.077.163-.022.046-.014.026c.031-.008-.142.166-.255.112-.069.005-.194-.132-.167-.259a.883.883,0,0,1,.05-.144l.15-.354c.209-.479.448-1,.709-1.539s.516-1.053.759-1.514l.183-.338a1.3,1.3,0,0,1,.071-.117.239.239,0,0,1,.3-.054c.106.036.115.279.086.278l-.012.027-.021.046-.081.162-.3.571C426.226,52.831,425.956,53.241,425.891,53.21Z"/><path class="e" d="M432.758,58.065c-.844.853-1.535,1.537-1.543,1.529s.669-.705,1.514-1.558,1.534-1.536,1.542-1.528S433.6,57.213,432.758,58.065Z"/><path class="e" d="M432.758,58.065c-.051-.05.246-.441.761-1.035.143-.164.284-.324.423-.482l.113-.13.026-.031.009-.012c-.021-.018-.09.209,0,.273a.229.229,0,0,0,.291.057c.035-.023-.021.024-.031.036l-.261.27-1.179,1.209-1.2,1.19-.267.264c-.009,0-.067.08-.029.017a.229.229,0,0,0-.08-.287c-.082-.093-.3.012-.259.01l.012-.01.03-.026.129-.114.478-.428c.589-.521.977-.822,1.028-.771s-.244.443-.768,1.032l-.437.476-.125.13-.036.035-.021.02c.032,0-.19.112-.278.023a.233.233,0,0,1-.073-.3.939.939,0,0,1,.094-.119l.257-.285c.354-.384.75-.8,1.172-1.224s.832-.826,1.212-1.183l.283-.26a1.049,1.049,0,0,1,.105-.087.239.239,0,0,1,.306.047c.088.07.015.3-.011.291l-.02.022-.035.036-.129.127-.472.441C433.2,57.817,432.809,58.116,432.758,58.065Z"/><path class="e" d="M437.677,64.883c-1.074.535-1.949.959-1.954.949s.861-.451,1.936-.985,1.948-.959,1.953-.948S438.751,64.35,437.677,64.883Z"/><path class="e" d="M437.677,64.883c-.032-.064.375-.338,1.054-.734l.557-.319.149-.087.034-.02.013-.009c-.016-.023-.153.17-.086.26a.229.229,0,0,0,.258.147c.04-.01-.028.016-.042.025l-.334.171-1.506.763-1.517.74-.339.164c-.01,0-.089.054-.032.006a.229.229,0,0,0,.016-.3c-.049-.115-.285-.084-.248-.075l.014,0,.037-.015.159-.067.591-.25c.726-.3,1.19-.462,1.222-.4s-.374.34-1.06.729l-.567.309-.161.083-.045.022-.027.012c.031.012-.214.045-.27-.068a.233.233,0,0,1,.027-.307.876.876,0,0,1,.128-.083l.336-.187c.459-.249.967-.512,1.5-.779s1.054-.514,1.529-.729l.352-.155a1.237,1.237,0,0,1,.127-.048c.106-.045.278.077.274.143.061.094-.082.292-.1.273l-.026.014-.045.023-.162.078-.589.265C438.174,64.791,437.709,64.948,437.677,64.883Z"/><path class="e" d="M440.124,72.926c-1.19.156-2.155.273-2.156.262s.961-.147,2.151-.3,2.154-.273,2.155-.262S441.313,72.771,440.124,72.926Z"/><path class="e" d="M440.124,72.926c-.009-.071.465-.2,1.236-.351l.63-.122.169-.033.039-.008.015,0c-.007-.027-.2.111-.165.218-.023.06.085.23.2.222.041,0-.031.007-.047.011l-.372.053-1.672.232-1.676.206-.373.045c-.009,0-.1.022-.032,0a.231.231,0,0,0,.112-.276c-.009-.124-.242-.172-.211-.151h.015l.04,0,.172-.012.64-.044a3.317,3.317,0,0,1,1.285.021c.009.071-.464.2-1.239.344l-.637.109-.179.025-.049.006-.03,0c.024.022-.217-.027-.233-.151a.234.234,0,0,1,.125-.283,1.221,1.221,0,0,1,.148-.037l.378-.067c.515-.086,1.081-.17,1.676-.248s1.164-.143,1.683-.191l.383-.033c.046,0,.034,0,.136,0s.238.163.213.224c.027.11-.173.25-.187.224l-.03,0-.049.008-.18.021-.643.059A3.184,3.184,0,0,1,440.124,72.926Z"/><path class="e" d="M458.8,69a22.842,22.842,0,0,1-1.784,4.061l-.048.1-.169.338-.207-.316a22.08,22.08,0,0,1-2.193-3.73,21.96,21.96,0,0,1,2.556,3.492l-.376.022.049-.1A22.744,22.744,0,0,1,458.8,69Z"/><path class="e" d="M281.667,426.483c-.087.115-13.965-10.211-30.995-23.06s-30.77-23.362-30.684-23.477,13.962,10.208,31,23.062S281.753,426.368,281.667,426.483Z"/><path class="e" d="M213.672,427.68c-.087-.114,13.774-10.893,30.957-24.073s31.19-23.775,31.278-23.661-13.772,10.891-30.961,24.075S213.76,427.794,213.672,427.68Z"/><path class="e" d="M223.9,368.119l-2.458,13.286h3.646l3.767-13.286Z"/><path class="g" d="M217.573,377.525c-3.225,16.187-15.729,76.624-18.888,91.882a2.885,2.885,0,0,0,2.755,3.516h0a2.832,2.832,0,0,0,2.714-2.133l24.389-90.911a4.982,4.982,0,0,0-4.676-6.352h-1.542A4.89,4.89,0,0,0,217.573,377.525Z"/><path class="e" d="M272.261,368.119l2.458,13.286h-3.646l-3.767-13.286Z"/><path class="b" d="M297.991,351c-7.094-13.175-15.54-53.377-19.256-66.215q-.154-.534-.324-1.045a20.712,20.712,0,0,0-19.753-14.008H237.237a20.713,20.713,0,0,0-19.754,14.008q-.168.51-.323,1.045C213.444,297.625,205,337.827,197.9,351c0,0-9.46,5.572-6.757,10.894,2.606,5.132,26.894,8.77,56.8,7.81,29.906.96,54.194-2.678,56.8-7.81C307.45,356.574,297.991,351,297.991,351Z"/><path class="e" d="M297.991,351a18.184,18.184,0,0,1,2.348,1.584,19.5,19.5,0,0,1,2.556,2.321,9.089,9.089,0,0,1,2.332,4.086,4.751,4.751,0,0,1-.337,2.808,5.186,5.186,0,0,1-2.258,2.155,18.277,18.277,0,0,1-3.118,1.4c-1.114.4-2.3.754-3.53,1.072a111.933,111.933,0,0,1-17.156,2.71c-6.437.594-13.545.9-21.214.92q-2.876.011-5.856-.049c-1.986-.03-4-.136-6.045-.027-4.1.109-8.34.13-12.695.049a188.178,188.178,0,0,1-27.391-2.275,69.936,69.936,0,0,1-7.109-1.585,30.618,30.618,0,0,1-3.509-1.207,11.8,11.8,0,0,1-3.267-1.916,3.692,3.692,0,0,1-1.053-1.663c-.053-.156-.122-.308-.161-.468l-.059-.493-.056-.495c.005-.164.03-.328.045-.493a7.4,7.4,0,0,1,1.507-3.563,21.5,21.5,0,0,1,5.809-5.088l-.1.1a102.982,102.982,0,0,0,5.991-15.8c1.691-5.488,3.24-11.11,4.728-16.817,1.56-5.978,3.025-11.9,4.467-17.747q1.09-4.38,2.163-8.7c.746-2.872,1.422-5.726,2.347-8.518a20.7,20.7,0,0,1,11.65-12.183,22.087,22.087,0,0,1,8.2-1.633l8.129,0,7.929.005,3.887,0a31.945,31.945,0,0,1,3.851.148,21.558,21.558,0,0,1,7.228,2.128,21.273,21.273,0,0,1,5.853,4.364,20.267,20.267,0,0,1,3.881,5.891l.615,1.619c.171.547.345,1.091.488,1.636.3,1.089.6,2.164.873,3.236,1.115,4.281,2.111,8.4,3.078,12.336,3.818,15.736,7.134,28.419,9.91,37.037,1.352,4.321,2.631,7.6,3.537,9.8.45,1.1.88,1.9,1.125,2.459s.382.848.382.848-.605-1.09-1.6-3.265c-.939-2.192-2.251-5.462-3.634-9.778-2.838-8.607-6.21-21.285-10.075-37.011-.978-3.929-1.985-8.05-3.108-12.321-.272-1.071-.58-2.142-.879-3.227-.145-.545-.317-1.079-.486-1.618L277.6,282.2a19.877,19.877,0,0,0-3.812-5.759,20.859,20.859,0,0,0-5.738-4.262,21.146,21.146,0,0,0-7.08-2.071,31.409,31.409,0,0,0-3.8-.139l-3.887,0-7.929.006c-5.318.162-10.979-.673-16.138,1.608a20.2,20.2,0,0,0-11.359,11.892c-.906,2.737-1.588,5.613-2.33,8.475l-2.159,8.693c-1.44,5.844-2.9,11.773-4.466,17.754-1.489,5.712-3.041,11.34-4.737,16.839a103.052,103.052,0,0,1-6.036,15.888l-.03.058-.066.041a21.053,21.053,0,0,0-5.66,4.947,6.916,6.916,0,0,0-1.414,3.311c-.013.148-.037.3-.043.443l.052.44.05.44c.034.142.1.277.146.417a3.18,3.18,0,0,0,.918,1.458,11.383,11.383,0,0,0,3.12,1.825,30.269,30.269,0,0,0,3.453,1.19,69.447,69.447,0,0,0,7.056,1.581,188.426,188.426,0,0,0,27.316,2.307q6.524.134,12.679-.025c2.053-.105,4.077.006,6.06.041s3.933.065,5.848.062c7.658,0,14.756-.286,21.184-.856a112.812,112.812,0,0,0,17.121-2.63c1.231-.311,2.407-.652,3.514-1.048a18.143,18.143,0,0,0,3.088-1.36,5,5,0,0,0,2.187-2.049,4.566,4.566,0,0,0,.342-2.69A8.987,8.987,0,0,0,302.793,355a20.017,20.017,0,0,0-2.511-2.34c-.727-.577-1.3-.986-1.7-1.252S297.991,351,297.991,351Z"/><path class="g" d="M278.322,377.525c3.225,16.187,15.729,76.624,18.888,91.882a2.886,2.886,0,0,1-2.755,3.516h0a2.832,2.832,0,0,1-2.714-2.133l-24.389-90.911a4.982,4.982,0,0,1,4.676-6.352h1.542A4.89,4.89,0,0,1,278.322,377.525Z"/><path class="e" d="M293.6,358.27a.769.769,0,0,1-.227.058l-.671.117-2.59.4c-2.25.347-5.517.773-9.562,1.231-8.087.92-19.312,1.817-31.736,2.03s-23.677-.323-31.791-.974c-4.058-.322-7.337-.64-9.6-.911l-2.6-.315-.675-.1a.767.767,0,0,1-.228-.05.779.779,0,0,1,.234,0l.68.044,2.611.217c2.264.21,5.546.471,9.6.746,8.112.556,19.345,1.02,31.756.82s23.616-1.05,31.706-1.876c4.045-.409,7.316-.78,9.573-1.065l2.6-.3.679-.066A.791.791,0,0,1,293.6,358.27Z"/><g class="h"><path d="M287.258,353.654c-.775-1.924-3.886-2.4-6.436-2.525a412.823,412.823,0,0,0-71.6,2.758,4.6,4.6,0,0,0-1.937.54c-.531.352-.767,1.045-.3,1.453l-.111,1.192c23.6,5.192,48.675,4.112,72.959,1.552a15.305,15.305,0,0,0,5.321-1.216C286.711,356.607,287.822,355.056,287.258,353.654Z"/></g><path class="e" d="M216.521,301.177s-12.928,11.609-15.625,24.686c-3.963,19.216,6.352,34.22,6.352,34.22,19.924,1.059,37.541,2.163,71.547,0l.57-49.9Z"/><path class="i" d="M248.346,275.448c-.156-.548-4.757-16.672-4.757-16.672l19.042-10.6,5.357,21.146Z"/><path class="f" d="M298.387,236.15c-1.936-4.346-5.111-7.1-10.1-8.845l-15.145-4.324H237.885s-16.248.614-22.073,8.891l3.2,48.39s.884,8.526-8.356,27.188c0,0,6.991,9.036,18.334,9.036s49.972-4.9,49.972-4.9l3.866-21.164s9.632-21.425,11.471-25.528a80.6,80.6,0,0,0,5.357-17.009A20.3,20.3,0,0,0,298.387,236.15Z"/><path class="e" d="M252.321,289.378a3.4,3.4,0,0,1-.2-.562l-.51-1.652c-.441-1.487-1.066-3.6-1.854-6.256l-6.394-22.068-.052-.179.164-.091L262.5,247.95l.3-.165.083.329c.145.574.3,1.193.46,1.815,1.726,6.837,3.376,13.375,4.88,19.336l-.456-.041,10.689-23.247,3.105-6.65.844-1.762a4.184,4.184,0,0,1,.317-.6,4.33,4.33,0,0,1-.243.63c-.189.44-.447,1.036-.774,1.793-.708,1.6-1.715,3.864-2.978,6.709-2.6,5.763-6.248,13.854-10.518,23.324l-.286.633-.171-.674c-1.515-5.958-3.176-12.493-4.914-19.327-.157-.622-.314-1.241-.46-1.815l.379.163L243.7,258.981l.112-.27,6.213,22.12c.733,2.672,1.316,4.8,1.726,6.292.185.7.331,1.259.439,1.672A3.567,3.567,0,0,1,252.321,289.378Z"/><path class="f" d="M217.651,229.789a19.865,19.865,0,0,0-6.986,15.353c.239,9.794,11.138,59.81,18.632,64.018,7.854,4.409,11.683,3.237,16.149,3.241,4.587.005,37.386-2.841,37.386-2.841l-.118-21.158-36.457,1.17-12.9-46.144Z"/><path class="e" d="M213.271,261.964s.059.174.15.518l.394,1.532c.346,1.368.847,3.351,1.489,5.895,1.31,5.115,3.162,12.533,5.77,21.608.651,2.269,1.377,4.633,2.2,7.069a26.723,26.723,0,0,0,3.5,7.134,14.9,14.9,0,0,0,6.591,5.162,21.267,21.267,0,0,0,8.88,1.239c6.234-.242,12.781-.725,19.564-1.206l21-1.614-.239.26c0-.171,0-.357,0-.544-.038-7.064-.075-13.964-.11-20.613l.263.254-36.458,1.133-.172.005-.045-.165c-3.847-13.9-7.039-25.441-9.276-33.527-1.1-4.02-1.96-7.181-2.554-9.359q-.424-1.6-.656-2.466c-.145-.558-.2-.851-.2-.851s.1.28.268.833q.252.861.718,2.448l2.67,9.328c2.279,8.073,5.533,19.594,9.453,33.476l-.217-.159,36.456-1.207.262-.009v.263c.039,6.649.079,13.55.12,20.614,0,.186,0,.372,0,.544l0,.242-.241.019-21.006,1.6c-6.788.475-13.331.947-19.587,1.177a21.711,21.711,0,0,1-9.063-1.293,15.353,15.353,0,0,1-6.77-5.332,27.084,27.084,0,0,1-3.528-7.258c-.821-2.452-1.537-4.823-2.178-7.1-2.565-9.1-4.363-16.53-5.613-21.661l-1.4-5.92c-.147-.663-.261-1.176-.343-1.543C213.3,262.146,213.271,261.964,213.271,261.964Z"/><g class="h"><path d="M232.206,310.857a11.915,11.915,0,0,1-5.266-4.608c-4.06-6.039-6.3-14.811-7.711-21.111l-.5-.644a79.9,79.9,0,0,0,3.613,18.208c1.089,3.09,2.463,6.246,5.009,8.307a13.483,13.483,0,0,0,8.374,2.664,40.143,40.143,0,0,0,8.85-1.234C242.079,312.4,236.1,312.587,232.206,310.857Z"/></g><g class="h"><path d="M235.327,250.47l13.387,36.407,31.53,1.6-33.987,1.091Z"/></g><path class="f" d="M313.171,399.9l3.349,24.318s25.843,4.763,26.9,9.2L296.5,441.605l-6.773-37.676Z"/><path class="b" d="M301.657,424.72a1.945,1.945,0,0,0-.943,2.418,1.869,1.869,0,0,0,2.388.955,2.05,2.05,0,0,0,.986-2.565,1.94,1.94,0,0,0-2.6-.719"/><path class="b" d="M296.64,442.6l-.66-3.65,45.172-7.587s2.247.545,2.268,2.057Z"/><path class="e" d="M317.239,423.85c.032.23-1.1.534-2.094,1.467-1.023.908-1.431,2-1.658,1.948-.219-.008-.116-1.437,1.113-2.546S317.252,423.631,317.239,423.85Z"/><path class="e" d="M322.515,425.027c.091.212-.833.775-1.442,1.88-.642,1.087-.655,2.169-.885,2.2-.209.073-.6-1.241.182-2.6S322.472,424.809,322.515,425.027Z"/><path class="e" d="M326.338,430.429c-.2.085-.718-1-.349-2.362s1.354-2.043,1.484-1.869c.162.165-.416.96-.7,2.079C326.459,429.389,326.562,430.366,326.338,430.429Z"/><path class="e" d="M315.861,418.392c-.06.226-1.166.093-2.446.407-1.286.288-2.217.9-2.371.723-.162-.142.674-1.162,2.187-1.511S315.942,418.193,315.861,418.392Z"/><path class="f" d="M282.418,424.016l3.5,25.411,20.633,21.606a3.337,3.337,0,0,1-.342,4.866h0a3.313,3.313,0,0,1-2.991.624c-6.634-1.858-37.282-13.2-37.282-13.2-1.191-5.148-5.388-29.235-5.388-29.235Z"/><path class="b" d="M265.175,460.176,306.208,475.9c-.847.725-2,1.555-3.068,1.25l-36.526-13.116a1.1,1.1,0,0,1-.7-.778Z"/><path class="c" d="M272.327,454.373a2.02,2.02,0,0,1,1.732,2.065,1.942,1.942,0,0,1-2.031,1.735,2.131,2.131,0,0,1-1.823-2.2,2.014,2.014,0,0,1,2.313-1.571"/><path class="e" d="M288.648,462.582c.2.04.47-1.8,2.1-3.186,1.593-1.437,3.45-1.458,3.438-1.663.007-.085-.457-.223-1.222-.13a5.322,5.322,0,0,0-4.286,3.751C288.488,462.1,288.563,462.577,288.648,462.582Z"/><path class="e" d="M293.916,466.754c.2.051.625-1.376,1.883-2.6,1.231-1.249,2.661-1.659,2.612-1.863,0-.191-1.7-.061-3.116,1.355C293.869,465.049,293.725,466.757,293.916,466.754Z"/><path class="e" d="M282.437,458.615c.183.117,1.378-1.836,3.65-3.361,2.249-1.561,4.5-1.962,4.46-2.176.013-.181-2.448-.082-4.863,1.585C283.252,456.3,282.263,458.561,282.437,458.615Z"/><path class="e" d="M280.54,211.491c-.591-2.843.036-5.777.5-8.643s.747-5.928-.461-8.568c-1.52-3.321-5.035-5.236-7.222-8.16s-2.919-6.682-3.793-10.245-2.1-7.287-4.925-9.624c-3.576-2.958-11.6-2.311-14.916.939,2.7,20.618,1.161,42.177,8.759,61.534a55.3,55.3,0,0,0,27.766-11.509C283.349,217.09,281.131,214.334,280.54,211.491Z"/><path class="j" d="M241.325,230.2,228.047,182.08a4.448,4.448,0,0,1,3.073-5.173l22.089-10.25c7.281-2.191,13.95,6.023,15.83,13.39,2.088,8.185,4.315,18.26,4.5,24.627.376,12.8-8.85,16.183-8.85,16.183l1.774,13.524-3.87,13.541-11.843,6.5Z"/><path class="e" d="M265.944,190.063a1.623,1.623,0,0,1-1.233,1.9,1.553,1.553,0,0,1-1.915-1.127,1.624,1.624,0,0,1,1.231-1.9A1.552,1.552,0,0,1,265.944,190.063Z"/><path class="e" d="M267.523,185.141c-.158.246-1.535-.419-3.249-.091-1.717.3-2.809,1.425-3.035,1.25-.109-.076.022-.489.494-.992a4.45,4.45,0,0,1,2.381-1.257,4.274,4.274,0,0,1,2.635.332C267.353,184.688,267.6,185.03,267.523,185.141Z"/><path class="e" d="M250.3,193.186a1.621,1.621,0,0,1-1.233,1.9,1.551,1.551,0,0,1-1.914-1.126,1.623,1.623,0,0,1,1.231-1.9A1.553,1.553,0,0,1,250.3,193.186Z"/><path class="e" d="M251.883,189.272c-.159.245-1.537-.42-3.25-.091-1.717.3-2.809,1.424-3.035,1.249-.108-.076.02-.488.495-.991a4.447,4.447,0,0,1,2.38-1.258,4.284,4.284,0,0,1,2.636.332C251.711,188.819,251.962,189.16,251.883,189.272Z"/><path class="e" d="M259.7,200.815a11.547,11.547,0,0,1,2.69-1.03c.43-.128.828-.293.845-.606a2.264,2.264,0,0,0-.538-1.243l-1.925-3.09c-2.7-4.408-4.737-8.066-4.559-8.173s2.51,3.379,5.206,7.787q.981,1.633,1.875,3.12a2.577,2.577,0,0,1,.552,1.676,1.12,1.12,0,0,1-.6.777,3.023,3.023,0,0,1-.724.244A11.4,11.4,0,0,1,259.7,200.815Z"/><path class="k" d="M264.72,220.887a32.177,32.177,0,0,1-17.484-1.293s5.853,8.068,18.071,4.554Z"/><path class="b" d="M250.491,182.068c-.081.5-1.835.6-3.8,1.224-1.98.583-3.491,1.479-3.837,1.111-.157-.177.043-.67.614-1.245a6.947,6.947,0,0,1,5.819-1.78C250.081,181.536,250.522,181.832,250.491,182.068Z"/><path class="e" d="M266.147,179.976c-.228.446-1.486.266-2.91.515-1.433.2-2.575.758-2.929.4-.159-.175-.043-.6.413-1.069a4.278,4.278,0,0,1,4.7-.74C266,179.39,266.244,179.76,266.147,179.976Z"/><path class="e" d="M255.948,165.923c-3.015-5.111-7.731-4.848-12.792-4.617s-12.094,3.593-15.744,7.106c-2.848,2.741-6,6.139-7.8,9.659-1.723,3.375-2.157,6.99-2.965,10.693-1.258,5.767-.167,11.746.464,17.615a112.15,112.15,0,0,1,.173,22.2c-.243,2.646-.42,5.8,3.2,6.716a7.409,7.409,0,0,0,2.052.192c5.374-.165,10.747.835,16.658.3l3.61-.586c4.573-.731,6.411-4.23,5.621-8.174-2.385-11.908-11.032-30.71-12.24-34.389C236.184,192.639,230.047,166.424,255.948,165.923Z"/><path class="e" d="M254.31,166.307a7.445,7.445,0,0,0-1.8,5.574c.049,2.01.484,4,.429,6.012a12.573,12.573,0,0,1-5.716,10.08c-1.08.687-2.644,1.146-3.527.219a6.942,6.942,0,0,1-3.13,7.2c-1.73,1.039-3.823,1.253-5.7,2s-3.706,2.412-3.487,4.418l-3.035-13.73,1.938-12.88,10.843-9.046Z"/><path class="g" d="M236.73,192.551a8.773,8.773,0,0,0,1-1.11,8.456,8.456,0,0,0,1.331-3.795,29.029,29.029,0,0,0-.108-6.038,48.74,48.74,0,0,1-.32-7.437,14.114,14.114,0,0,1,2.22-7.069,8.281,8.281,0,0,1,2.317-2.3,8.124,8.124,0,0,1,2.619-1.108,6.546,6.546,0,0,1,4.055.3,3.839,3.839,0,0,1,.576.294,2.356,2.356,0,0,1,.394.26,2.3,2.3,0,0,1,.3.245,9.023,9.023,0,0,0-1.308-.712,6.576,6.576,0,0,0-3.98-.225,7.975,7.975,0,0,0-4.793,3.367,14.046,14.046,0,0,0-2.162,6.959,50.445,50.445,0,0,0,.3,7.4,28.22,28.22,0,0,1,.056,6.08A8.326,8.326,0,0,1,237.8,191.5,4.454,4.454,0,0,1,236.73,192.551Z"/><path class="g" d="M226.052,192.544a7.236,7.236,0,0,0,1.759-.748,9.639,9.639,0,0,0,3.286-3.975,18.3,18.3,0,0,0,1.263-3.377,14.068,14.068,0,0,0,.349-4.106c-.056-1.461-.239-2.992-.324-4.592a21.5,21.5,0,0,1,0-2.448,13.327,13.327,0,0,1,.413-2.5,12.973,12.973,0,0,1,5.666-7.523,12.287,12.287,0,0,1,7.53-1.731,12.623,12.623,0,0,1,5.025,1.512,9.226,9.226,0,0,1,1.6,1.08.479.479,0,0,1-.11-.064l-.31-.206c-.134-.092-.3-.207-.508-.324s-.436-.271-.716-.4a12.857,12.857,0,0,0-4.994-1.425,12.191,12.191,0,0,0-7.4,1.75,12.807,12.807,0,0,0-5.55,7.4,13.186,13.186,0,0,0-.406,2.447,21.24,21.24,0,0,0,0,2.42c.081,1.589.259,3.122.309,4.6a14.152,14.152,0,0,1-.377,4.165,18.11,18.11,0,0,1-1.3,3.4,9.544,9.544,0,0,1-3.39,3.979,5.66,5.66,0,0,1-1.318.565l-.364.083A.512.512,0,0,1,226.052,192.544Z"/><path class="g" d="M243.691,188.192a.447.447,0,0,1,.015.118c.005.091.012.206.021.35s.026.345.021.572-.021.491-.034.784a8.139,8.139,0,0,1-.48,2.108,6.968,6.968,0,0,1-1.551,2.427,11.338,11.338,0,0,1-6.907,2.927,21.352,21.352,0,0,1-4.562.02,18.2,18.2,0,0,1-4.837-1.1l-.311-.123.321-.1a17.7,17.7,0,0,0,4.959-2.45l.082-.057.108.212a16.793,16.793,0,0,1-11.107-.211l-.235-.089.224-.114a20.764,20.764,0,0,0,5.888-4.266,10.436,10.436,0,0,0,2.63-4.98,10.554,10.554,0,0,0-.029-3.7l-.231-.967c-.022-.1-.041-.183-.055-.25a.044.044,0,1,1,.017-.006c.02.066.044.146.073.246q.1.35.266.962a10.292,10.292,0,0,1,.092,3.745,10.5,10.5,0,0,1-2.625,5.08,20.773,20.773,0,0,1-5.925,4.339l-.012-.2a16.643,16.643,0,0,0,10.953.191l.783-.262-.675.474-.082.058a17.878,17.878,0,0,1-5.029,2.479l.009-.222a18.042,18.042,0,0,0,4.77,1.1,21.231,21.231,0,0,0,4.517,0,11.235,11.235,0,0,0,6.82-2.829,6.926,6.926,0,0,0,1.549-2.363,8.3,8.3,0,0,0,.509-2.072q.03-.437.054-.777c.011-.225,0-.416,0-.57v-.349A.484.484,0,0,1,243.691,188.192Z"/><path class="g" d="M224.121,230.2c-.066,0-.442-7.21-.838-16.107s-.664-16.117-.6-16.12.442,7.208.838,16.109S224.188,230.193,224.121,230.2Z"/><path class="g" d="M231.467,230.789a1.513,1.513,0,0,1-.09-.291c-.054-.218-.124-.5-.212-.846-.18-.735-.424-1.8-.709-3.127-.572-2.646-1.286-6.32-1.928-10.4s-1.085-7.8-1.352-10.494c-.134-1.347-.229-2.438-.283-3.194-.023-.357-.042-.646-.057-.869a1.537,1.537,0,0,1,0-.3,1.385,1.385,0,0,1,.052.3c.027.223.061.51.1.866.088.781.209,1.862.358,3.184.31,2.688.782,6.4,1.421,10.475s1.328,7.751,1.857,10.4c.263,1.3.478,2.371.634,3.142.069.351.125.635.168.855A1.406,1.406,0,0,1,231.467,230.789Z"/><path class="k" d="M261.631,203.608a2.665,2.665,0,0,0-.941-.472l.056,0a2.435,2.435,0,0,0-2.755.341,2.878,2.878,0,0,0-.468,3.318,2.318,2.318,0,0,0,1.431.952,4.209,4.209,0,0,0,1.749-.011,2.554,2.554,0,0,0,1.478-.706,1.968,1.968,0,0,0,.448-1.241A2.734,2.734,0,0,0,261.631,203.608Z"/><path class="e" d="M262.867,206.243c-.035-.021.017-.132-.006-.313a.87.87,0,0,0-.415-.6,2.943,2.943,0,0,0-1.188-.165,4.854,4.854,0,0,0-1.53.223,12.9,12.9,0,0,0-2.684,1.07c-.7.312-1.169.413-1.194.351s.385-.291,1.024-.678a8.885,8.885,0,0,1,2.723-1.247c.293-.074.545-.136.853-.184a5.081,5.081,0,0,1,.822-.014,2.744,2.744,0,0,1,1.385.342,1.008,1.008,0,0,1,.407.91C263.017,206.185,262.888,206.263,262.867,206.243Z"/><path class="j" d="M282.721,291.438s12.248-1.8,15.267-.623,18.284,8.555,19.961,11.742,5.7,8.89,6.207,11.742,1.006,11.406,1.006,11.406a4.045,4.045,0,0,1-3.858-3.858L320.13,325.7s-3.187.839-3.69-1.342c0,0-1.845,2.348-2.684-3.019a56.806,56.806,0,0,1-.839-7.045l-2.516-3.691,1.342,4.929-.671,7.484s-2.684,0-2.851-2.348a22.96,22.96,0,0,0-1.175-5.136l-3.354-5.264s-8.484-4.419-10.378-6.542a10.481,10.481,0,0,1-2.119-2.877l-8.363,2.788Z"/><path class="k" d="M318.806,325.886a3.072,3.072,0,0,1-1.575-.363,1.741,1.741,0,0,1-.8-1.107,1.211,1.211,0,0,1-1.1.457c-.722-.188-1.257-1.374-1.593-3.525a59.163,59.163,0,0,1-.84-7.041l-2.428-3.562,1.3,4.789v0l-.673,7.508h-.022c-.027,0-2.709-.027-2.877-2.371a23.116,23.116,0,0,0-1.172-5.13l-3.349-5.253c-.266-.139-8.525-4.465-10.379-6.545a11.253,11.253,0,0,1-2.116-2.861l-8.372,2.79v-.034l-.11-12.226.021,0c.123-.017,12.294-1.781,15.281-.622,1.529.6,6.142,2.76,10.486,5.118,3.829,2.079,8.583,4.918,9.488,6.636.527,1,1.287,2.255,2.094,3.582,1.767,2.91,3.769,6.207,4.114,8.168.5,2.82,1,11.324,1.008,11.408v.028h-.026a4.06,4.06,0,0,1-3.868-3.768l-1.145,3.763-.013,0A5.937,5.937,0,0,1,318.806,325.886Zm-2.353-1.58.011.051a1.707,1.707,0,0,0,.793,1.124,4.4,4.4,0,0,0,2.854.2l1.2-3.956.015.115a4.262,4.262,0,0,0,2.1,3.358,4.17,4.17,0,0,0,1.7.478c-.032-.534-.522-8.639-1-11.377-.344-1.95-2.343-5.244-4.108-8.149-.807-1.328-1.568-2.583-2.1-3.585-.5-.943-2.541-2.856-9.466-6.616-4.342-2.357-8.954-4.52-10.481-5.115-2.922-1.137-14.651.538-15.233.621l.109,12.149,8.356-2.785.007.025a10.665,10.665,0,0,0,2.114,2.866c1.869,2.1,10.286,6.492,10.371,6.536l.006,0,0,.006,3.355,5.264a23.215,23.215,0,0,1,1.178,5.148c.155,2.184,2.543,2.317,2.8,2.324l.668-7.457-1.38-5.066,2.606,3.819v.008a57.8,57.8,0,0,0,.838,7.041c.414,2.653,1.075,3.36,1.556,3.486a.8.8,0,0,0,.185.023,1.352,1.352,0,0,0,.9-.5Z"/><rect class="e" width="3.487" height="11.947" transform="translate(287.619 290.424)"/><rect class="g" width="8.222" height="2.355" transform="translate(285.252 288.069)"/><path class="j" d="M252.811,221.934s-4.034,1.929-4.034,5.083-.663,28.795-.663,28.795l14.448-8.127-2.355-17.011,15.632-9.581s3.043-5.33,2.707-7.01-3.38-4.924-4.892-4.755a3.507,3.507,0,0,0-2.354,1.512l-4.706,1.009s.336,3.025,2.353,2.857l1.345-.168-.168,1.177-2.353,1.681Z"/><path class="k" d="M252.811,221.934a1.107,1.107,0,0,1,.249-.1l.75-.251,2.925-.933,10.987-3.413-.048.024,2.346-1.691-.073.119c.05-.357.106-.764.163-1.177l.205.208-1.3.168a1.892,1.892,0,0,1-1.4-.4,4.227,4.227,0,0,1-1.22-2.613l-.029-.179.188-.041,4.7-1.022-.138.1a3.893,3.893,0,0,1,1.623-1.377,2.589,2.589,0,0,1,1.1-.241,2.5,2.5,0,0,1,1.084.349,9.9,9.9,0,0,1,3.152,3.058,5.963,5.963,0,0,1,.546,1.018,2.168,2.168,0,0,1,.161,1.211,9.625,9.625,0,0,1-.659,2.238,38.865,38.865,0,0,1-2.065,4.235l-.031.054-.056.034L260.343,230.9l.122-.258c.074.538.155,1.119.235,1.7.729,5.277,1.437,10.411,2.114,15.31l.023.172-.15.084-14.461,8.106-.352.2.011-.4c.283-10.612.52-19.5.688-25.771q.034-1.169.066-2.213a7.186,7.186,0,0,1,.215-1.968,5.957,5.957,0,0,1,1.794-2.524,7.772,7.772,0,0,1,2.163-1.4.643.643,0,0,1-.139.092l-.417.257a10.708,10.708,0,0,0-1.512,1.154,5.9,5.9,0,0,0-1.69,2.479,7.019,7.019,0,0,0-.174,1.906q-.018,1.044-.036,2.214c-.122,6.274-.294,15.166-.5,25.782l-.342-.2,14.437-8.149-.127.256c-.68-4.9-1.393-10.032-2.126-15.309-.081-.583-.162-1.164-.236-1.7l-.023-.169.145-.089,15.638-9.571-.086.089a38.485,38.485,0,0,0,2.047-4.168,9.211,9.211,0,0,0,.635-2.114,2.821,2.821,0,0,0-.626-1.916,9.5,9.5,0,0,0-2.974-2.918,2.088,2.088,0,0,0-.885-.3,2.178,2.178,0,0,0-.9.2,3.478,3.478,0,0,0-1.432,1.2l-.055.079-.083.017-4.709,1,.158-.219a3.875,3.875,0,0,0,1.062,2.358,1.5,1.5,0,0,0,1.116.328l1.3-.157.239-.029-.035.237c-.06.412-.12.819-.172,1.176l-.012.076-.062.044-2.36,1.67-.023.017-.025.007L256.8,220.818l-2.953.851-.766.209A1.267,1.267,0,0,1,252.811,221.934Z"/><path class="k" d="M272.222,218.925c-.053-.062.432-.5,1.13-1.246a5.962,5.962,0,0,0,1.005-1.434,3.784,3.784,0,0,0,.306-2.051,10.592,10.592,0,0,0-.4-2.119,1.228,1.228,0,0,0-1.228-.816,5.163,5.163,0,0,1-1.245-.133c-.3-.1-.417-.237-.4-.26s.168.032.442.062a9.76,9.76,0,0,0,1.212-.037,1.947,1.947,0,0,1,.92.171,1.611,1.611,0,0,1,.74.826,9.184,9.184,0,0,1,.475,2.26,4.043,4.043,0,0,1-.4,2.308,5.443,5.443,0,0,1-1.174,1.482A4.3,4.3,0,0,1,272.222,218.925Z"/><path class="e" d="M272.522,335.018c-6.068-7.972-18.943-8.7-25.546-1.093a13.877,13.877,0,0,0-3.441,9.4c0,15.8,8.523,58.488,10.4,70.96,2.014,13.4,7.561,36.335,7.561,36.335l27.285-3.878s-10.242-80.215-11.51-89.615c-1.264-9.374-3.22-17.477-3.22-17.477Z"/><path class="e" d="M227.263,320.575c.832-.554,39.019-14.754,45.673-16.141s12.892-2.155,20.378,4.783c9.135,8.466,25.792,109.794,25.792,109.794s-28.16,4.768-28.154,4.214S271.7,340.27,271.7,340.27L237.869,361.9l-18.853-28Z"/><path class="g" d="M279.836,372.6a1.052,1.052,0,0,1-.064-.255c-.037-.2-.082-.449-.138-.757l-.475-2.918c-.385-2.582-.932-6.244-1.606-10.753-.7-4.53-1.584-9.929-3.05-15.8a29.73,29.73,0,0,0-3.529-8.713,16.2,16.2,0,0,0-7.537-6.414,14.187,14.187,0,0,0-9.831,0,16.491,16.491,0,0,0-7.542,5.35,14.841,14.841,0,0,0-2.612,7.951c-.174,2.67-.064,5.2.01,7.478.278,4.566.93,8.239,1.115,10.8.118,1.28.158,2.278.181,2.954,0,.313,0,.566.005.769a.95.95,0,0,1-.016.263,1.02,1.02,0,0,1-.037-.261c-.015-.2-.034-.454-.057-.766-.056-.673-.129-1.666-.278-2.939-.246-2.552-.953-6.2-1.281-10.8a72.63,72.63,0,0,1-.072-7.53,15.224,15.224,0,0,1,2.657-8.206,16.922,16.922,0,0,1,7.759-5.546,14.662,14.662,0,0,1,10.188,0,16.647,16.647,0,0,1,7.777,6.623A30.016,30.016,0,0,1,274.968,342c1.448,5.912,2.294,11.324,2.949,15.869.605,4.518,1.1,8.19,1.443,10.777.16,1.241.286,2.221.377,2.932.036.311.064.562.087.764A.97.97,0,0,1,279.836,372.6Z"/><path class="g" d="M256.274,309.907a1.758,1.758,0,0,1-.446.222l-1.316.544c-1.146.463-2.813,1.109-4.878,1.9-4.129,1.573-9.862,3.669-16.189,5.99s-12.038,4.471-16.138,6.109l-4.85,1.955-1.322.526a1.809,1.809,0,0,1-.475.152,1.78,1.78,0,0,1,.433-.248l1.283-.616c1.12-.523,2.754-1.253,4.791-2.11,4.07-1.728,9.766-3.938,16.1-6.257s12.08-4.362,16.241-5.847l4.934-1.74,1.35-.452A1.789,1.789,0,0,1,256.274,309.907Z"/></g></svg>