<svg xmlns="http://www.w3.org/2000/svg" width="56.545" height="56.435" viewBox="0 0 56.545 56.435"><defs><style></style></defs><g transform="translate(0 -0.499)"><g transform="translate(0 0.499)"><path class="a" d="M384.018,407.595l2.631,3.538a28.449,28.449,0,0,0,3.577-3.161l-3.187-3.046A24.028,24.028,0,0,1,384.018,407.595Z" transform="translate(-341.607 -360.261)"/><path class="a" d="M319.227,449.836l1.3,4.212a28.13,28.13,0,0,0,4.427-1.793l-2-3.931A23.719,23.719,0,0,1,319.227,449.836Z" transform="translate(-283.972 -398.867)"/><path class="a" d="M434.284,348.166l3.653,2.468a28.267,28.267,0,0,0,2.329-4.171l-4.018-1.815A23.848,23.848,0,0,1,434.284,348.166Z" transform="translate(-386.322 -306.641)"/><path class="a" d="M137.1,93.987H124.756V98.4H141.51V76.351H137.1Z" transform="translate(-110.978 -67.974)"/><path class="a" d="M52.136,5.569v8.165a28.221,28.221,0,1,0-23.919,43.2,28.58,28.58,0,0,0,3.671-.237l-.568-4.372a24.153,24.153,0,0,1-3.1.2,23.808,23.808,0,1,1,20.5-35.933h-7.6V21H56.545V5.569Z" transform="translate(0 -0.499)"/><path class="a" d="M464.878,273.965q-.029.353-.069.7h0a23.8,23.8,0,0,1-.609,3.3l4.268,1.106a28.228,28.228,0,0,0,.8-4.708h0c.012-.135.023-.269.033-.4Z" transform="translate(-412.936 -243.764)"/></g></g></svg>