<svg id="Layer_1" data-name="Layer 1" xmlns="http://www.w3.org/2000/svg" viewBox="0 0 70 70"><defs><style>.cls-1{fill:#var(--ion-color-vh-green)}</style></defs><title>san pham tren san</title><path class="cls-1" d="M63.79,33H16.63l-.14-1.43h0l-.3-3h0L14.92,16.09A2.33,2.33,0,0,0,12.6,14H6.79a1.5,1.5,0,0,0,0,3h4a1.32,1.32,0,0,1,1.32,1.19l1.34,13.38h0l1.86,18.56A4.29,4.29,0,0,0,19.59,54h8.63a5.5,5.5,0,1,0,5.5,5.5,5.5,5.5,0,0,0-5.5-5.5h23a5.5,5.5,0,1,0,5.5,5.5,5.5,5.5,0,0,0-5.5-5.5h8.2a4.3,4.3,0,0,0,4.27-3.87l1.55-15.3a1.86,1.86,0,0,0,0-.33A1.5,1.5,0,0,0,63.79,33ZM24.52,51H19.59a1.27,1.27,0,0,1-1.27-1.16L17.83,45h6.69Zm0-9h-7l-.6-6h7.59Zm4.33,15.07a2.5,2.5,0,1,1-3.05,3A2.49,2.49,0,0,1,28.85,57.06ZM33.52,51h-6V45h6Zm0-9h-6V36h6Zm9,9h-6V45h6Zm0-9h-6V36h6Zm9.33,15.07a2.5,2.5,0,1,1-3.05,3A2.49,2.49,0,0,1,51.85,57.06ZM51.52,51h-6V45h6Zm0-9h-6V36h6Zm9.19,7.84A1.28,1.28,0,0,1,59.43,51H54.52V45H61.2Zm.8-7.84h-7V36h7.59Z"/><path class="cls-1" d="M39.46,29a12,12,0,1,0-12-12A12,12,0,0,0,39.46,29Zm0-21a9,9,0,1,1-9,9A9,9,0,0,1,39.46,8Z"/><path class="cls-1" d="M36,18.49h2v2a1.5,1.5,0,1,0,3,0v-2h2a1.5,1.5,0,1,0,0-3H41v-2a1.5,1.5,0,0,0-3,0v2H36a1.5,1.5,0,0,0,0,3Z"/></svg>