<svg xmlns="http://www.w3.org/2000/svg" width="56.261" height="56.261" viewBox="0 0 56.261 56.261"><defs><style></style></defs><path class="a" d="M45.053,0A1.648,1.648,0,0,1,46.7,1.648v21.87A17.282,17.282,0,1,1,23.518,46.7H1.648A1.648,1.648,0,0,1,0,45.053V1.648A1.648,1.648,0,0,1,1.648,0ZM31.207,3.3v9.237a1.646,1.646,0,0,1-2.5,1.411L23.35,11.223,17.882,14A1.646,1.646,0,0,1,15.5,12.534l0-9.237H3.3V43.4H22.274A17.287,17.287,0,0,1,43.4,22.274V3.3Zm2.527,42.965h7.691a6.428,6.428,0,0,0,0-12.856h-4.58l.968-.969a1.644,1.644,0,0,0-2.331-2.318L31.7,33.9a1.643,1.643,0,0,0,.006,2.324l3.788,3.78a1.644,1.644,0,0,0,2.318-2.331l-.98-.977h4.592a3.132,3.132,0,0,1,0,6.263H33.734a1.648,1.648,0,1,0,0,3.3Zm-4.64-17.167a13.983,13.983,0,1,0,19.775,0A13.983,13.983,0,0,0,29.094,29.094ZM27.911,3.3H18.79V9.852l3.816-1.939a1.642,1.642,0,0,1,1.485,0l3.82,1.941Z"/></svg>