<svg id="Layer_1" data-name="Layer 1" xmlns="http://www.w3.org/2000/svg" viewBox="0 0 212.52 50.87"><defs><style>.cls-1{fill:#ed1c24;}</style></defs><title>Sendo</title><path class="cls-1" d="M8.79,120.27a22.33,22.33,0,0,0,11.22,3c3.95,0,7.55-1.84,7.55-5.51,0-2.75-2-4.44-6.42-6.77-5-2.68-9.81-6.42-9.81-12.56C11.33,88.8,19.66,83,30,83c5.79,0,9.18,1.27,11.22,2.32l-3.17,8.47a19.1,19.1,0,0,0-8.82-2c-4.8,0-7.27,2.32-7.27,4.93s2.89,4.52,6.91,6.78c5.79,3,9.46,6.84,9.46,12.56,0,10.58-8.75,16-19.33,16-6.64-.07-11.37-1.77-13.62-3.39Z" transform="translate(-5.41 -81.18)"/><path class="cls-1" d="M67.43,129.3a29.75,29.75,0,0,1-12.91,2.76c-9.81,0-14.89-5.58-14.89-14.61C39.63,106.94,47.25,96,59.74,96c7,0,12,4,12,10.37,0,8.75-8.53,11.93-22.43,11.57a7.71,7.71,0,0,0,1.12,3.53c1.34,1.77,3.67,2.68,6.64,2.68A21.67,21.67,0,0,0,66.72,122Zm-9-25.89c-4.73,0-7.48,4-8.19,7.12,8,.08,11.93-1,11.93-4.23C62.21,104.61,60.8,103.41,58.47,103.41Z" transform="translate(-5.41 -81.18)"/><path class="cls-1" d="M69.62,131.28,74,108c.92-4.37,1.61-8.89,2.11-12h9l-.84,6.49h.14C87.61,98.05,91.84,96,96.43,96c5.64,0,8.89,3.46,8.89,9.45a42.41,42.41,0,0,1-.56,5.79l-3.81,20H90.71l3.67-19.12a22.68,22.68,0,0,0,.36-3.81c0-2.47-.85-4.17-3.46-4.17-3.32,0-7.2,4.17-8.61,11.79l-2.89,15.31Z" transform="translate(-5.41 -81.18)"/><path class="cls-1" d="M145.68,81.18l-7,36.69a92.21,92.21,0,0,0-1.62,13.41h-9.31l.49-5.57h-.14a13.29,13.29,0,0,1-11.36,6.35c-5.86,0-10.65-4.66-10.65-13.06,0-12,8.67-23.07,21.73-23.07a14.17,14.17,0,0,1,4.73.85l3-15.6Zm-14.54,23.71a6.58,6.58,0,0,0-4-1.2c-6.14,0-10.44,7.06-10.44,13.69,0,4.16,1.83,6.49,4.73,6.49s6.56-3.1,7.9-9.74Z" transform="translate(-5.41 -81.18)"/><path class="cls-1" d="M176.87,110.18c0,12.63-8.68,21.88-20.61,21.88-8.75,0-14.6-5.72-14.6-14.33,0-11.92,8.32-21.8,20.6-21.8C171.51,95.93,176.87,102.28,176.87,110.18Zm-24.7,7.41c0,4,2,6.7,5.58,6.7,5.43,0,8.6-8.18,8.6-14,0-3.17-1.41-6.56-5.43-6.56C155.06,103.69,152.17,112.23,152.17,117.59Z" transform="translate(-5.41 -81.18)"/><path class="cls-1" d="M174.87,128.77a3.39,3.39,0,0,1,3.34-3.52,2.78,2.78,0,0,1,2.86,3,3.28,3.28,0,0,1-3.44,3.4A2.68,2.68,0,0,1,174.87,128.77Z" transform="translate(-5.41 -81.18)"/><path class="cls-1" d="M188.09,114.06l.83,7.69c.18,2.15.35,3.48.46,4.77h.11c.47-1.25,1-2.58,2-4.74l3.51-7.72h5.79L191,131.62h-5.28l-2.95-17.56Z" transform="translate(-5.41 -81.18)"/><path class="cls-1" d="M199.78,131.62,202,119.79c.46-2.22.71-4.12,1-5.7h4.55l-.32,2.91h.07a7.4,7.4,0,0,1,6.13-3.3c2.87,0,4.52,1.75,4.52,4.8a22,22,0,0,1-.29,2.94l-1.94,10.18h-5.19l1.86-9.71a11.2,11.2,0,0,0,.18-1.94c0-1.25-.43-2.11-1.76-2.11-1.68,0-3.66,2.11-4.37,6L205,131.62Z" transform="translate(-5.41 -81.18)"/></svg>