<svg xmlns="http://www.w3.org/2000/svg" width="55.523" height="55.523" viewBox="0 0 55.523 55.523"><defs><style></style></defs><path class="a" d="M29.5,55.523H26.019a5.117,5.117,0,0,1-5.111-5.111V49.233a22.415,22.415,0,0,1-3.481-1.445l-.835.835a5.111,5.111,0,0,1-7.229,0L6.9,46.16a5.111,5.111,0,0,1,0-7.229l.835-.835A22.417,22.417,0,0,1,6.29,34.615H5.111A5.117,5.117,0,0,1,0,29.5V26.019a5.117,5.117,0,0,1,5.111-5.111H6.29a22.421,22.421,0,0,1,1.445-3.481L6.9,16.592a5.111,5.111,0,0,1,0-7.229L9.363,6.9a5.111,5.111,0,0,1,7.229,0l.835.835A22.436,22.436,0,0,1,20.908,6.29V5.111A5.117,5.117,0,0,1,26.019,0H29.5a5.117,5.117,0,0,1,5.111,5.111V6.29A22.415,22.415,0,0,1,38.1,7.735l.835-.835a5.111,5.111,0,0,1,7.229,0l2.463,2.463a5.111,5.111,0,0,1,0,7.229l-.835.835a22.417,22.417,0,0,1,1.445,3.481h1.179a5.117,5.117,0,0,1,5.111,5.111V29.5a5.117,5.117,0,0,1-5.111,5.111H49.233A22.421,22.421,0,0,1,47.788,38.1l.835.835a5.111,5.111,0,0,1,0,7.229L46.16,48.624a5.111,5.111,0,0,1-7.229,0l-.835-.835a22.437,22.437,0,0,1-3.481,1.445v1.179A5.117,5.117,0,0,1,29.5,55.523ZM17.971,44.372a19.174,19.174,0,0,0,4.97,2.063,1.627,1.627,0,0,1,1.22,1.575v2.4a1.86,1.86,0,0,0,1.858,1.858H29.5a1.86,1.86,0,0,0,1.858-1.858v-2.4a1.627,1.627,0,0,1,1.22-1.575,19.174,19.174,0,0,0,4.97-2.063,1.627,1.627,0,0,1,1.978.25l1.7,1.7a1.857,1.857,0,0,0,2.627,0l2.465-2.465a1.858,1.858,0,0,0,0-2.627l-1.7-1.7a1.627,1.627,0,0,1-.25-1.978,19.171,19.171,0,0,0,2.063-4.97,1.627,1.627,0,0,1,1.575-1.22h2.4A1.86,1.86,0,0,0,52.27,29.5V26.019a1.86,1.86,0,0,0-1.858-1.858h-2.4a1.627,1.627,0,0,1-1.575-1.22,19.174,19.174,0,0,0-2.063-4.97,1.627,1.627,0,0,1,.25-1.978l1.7-1.7a1.857,1.857,0,0,0,0-2.627L43.86,9.2a1.858,1.858,0,0,0-2.627,0l-1.7,1.7a1.627,1.627,0,0,1-1.978.25,19.174,19.174,0,0,0-4.97-2.063,1.627,1.627,0,0,1-1.22-1.575v-2.4A1.86,1.86,0,0,0,29.5,3.253H26.02a1.86,1.86,0,0,0-1.858,1.858v2.4a1.627,1.627,0,0,1-1.22,1.575,19.174,19.174,0,0,0-4.97,2.063,1.627,1.627,0,0,1-1.978-.25l-1.7-1.7a1.857,1.857,0,0,0-2.627,0L9.2,11.664a1.858,1.858,0,0,0,0,2.627l1.7,1.7a1.627,1.627,0,0,1,.25,1.978,19.171,19.171,0,0,0-2.063,4.97,1.627,1.627,0,0,1-1.575,1.22h-2.4a1.86,1.86,0,0,0-1.858,1.858V29.5a1.86,1.86,0,0,0,1.858,1.858h2.4a1.627,1.627,0,0,1,1.575,1.22,19.175,19.175,0,0,0,2.063,4.97,1.627,1.627,0,0,1-.25,1.978l-1.7,1.7a1.857,1.857,0,0,0,0,2.627l2.464,2.464a1.858,1.858,0,0,0,2.627,0l1.7-1.7a1.634,1.634,0,0,1,1.978-.25Z"/><path class="a" d="M156.681,168.761a12.081,12.081,0,1,1,12.081-12.081A12.094,12.094,0,0,1,156.681,168.761Zm0-20.908a8.827,8.827,0,1,0,8.827,8.827,8.837,8.837,0,0,0-8.827-8.827Z" transform="translate(-128.919 -128.919)"/></svg>