<svg id="Layer_1" data-name="Layer 1" xmlns="http://www.w3.org/2000/svg" viewBox="0 0 62 62"><defs><style>.cls-1{fill:var(--ion-color-vh-green)}</style></defs><path class="cls-1" d="M50.94,33.57V28.13A7.51,7.51,0,0,0,57,20.77V15.86a1.58,1.58,0,0,0-.44-1.06L50.94,9.17V2.5A1.5,1.5,0,0,0,49.44,1H8.55A1.5,1.5,0,0,0,7.06,2.5V9.32L1.59,14.8a1.63,1.63,0,0,0-.33.49,1.6,1.6,0,0,0-.11.57H1l.15,4.91A7.49,7.49,0,0,0,7.06,28.1V51h-4a1.5,1.5,0,0,0,0,3H34.89a14,14,0,1,0,16-20.43Zm3.13-12.8a4.5,4.5,0,1,1-9,0V17.36h9ZM10.05,4H48V8H10.05Zm-.44,7H48.54l3.35,3.36H6.26Zm32.46,6.36v3.41a4.5,4.5,0,0,1-4.5,4.5H35a4.5,4.5,0,0,1-4.5-4.5V17.36H42.07Zm-14.57,0v3.41A4.49,4.49,0,0,1,23,25.27H20.6a4.5,4.5,0,0,1-4.49-4.5V17.36H27.5ZM4.14,20.77,4,17.36h9.11v3.41a4.49,4.49,0,1,1-9,0ZM19,37.29V51H10.05V28.1a7.47,7.47,0,0,0,4.56-2.87,7.45,7.45,0,0,0,6,3H23a7.34,7.34,0,0,0,5.1-2.09,6.68,6.68,0,0,0,.89-.95,6.68,6.68,0,0,0,.89.95A7.32,7.32,0,0,0,35,28.27h2.57a7.43,7.43,0,0,0,6-3A7.5,7.5,0,0,0,48,28.08v5c-.32,0-.63,0-1,0a14,14,0,0,0-8.25,2.71,5.1,5.1,0,0,0-4.83-3.53H24.08A5.11,5.11,0,0,0,19,37.29ZM22,51V37.29a2.11,2.11,0,0,1,2.11-2.11h9.84A2.11,2.11,0,0,1,36,37.29v1A13.9,13.9,0,0,0,33.59,51Zm25,7A11,11,0,1,1,58,47,11,11,0,0,1,47,58Z"/><path class="cls-1" d="M52.5,45.5h-4v-4a1.5,1.5,0,0,0-3,0v4h-4a1.5,1.5,0,0,0,0,3h4v4a1.5,1.5,0,0,0,3,0v-4h4a1.5,1.5,0,0,0,0-3Z"/></svg>