<?xml version="1.0" encoding="utf-8"?>
<!-- Generator: Adobe Illustrator 24.0.0, SVG Export Plug-In . SVG Version: 6.00 Build 0)  -->
<svg width="100px" version="1.1" id="Layer_1" xmlns="http://www.w3.org/2000/svg" xmlns:xlink="http://www.w3.org/1999/xlink" x="0px" y="0px"
	 viewBox="0 0 889 281" style="enable-background:new 0 0 889 281;" xml:space="preserve">
<style type="text/css">
	.st0{fill:#EA501F;}
</style>
<path class="st0" d="M162.9,199.1c2.5-20.8-10.9-34.1-46.3-45.4c-17.2-5.9-25.2-13.5-25-24.1c0.7-11.7,11.6-20.2,26.1-20.5
	c10,0.2,21.1,2.6,32,9.9c1.3,0.8,2.2,0.7,2.9-0.4c1-1.6,3.5-5.5,4.3-6.9c0.6-0.9,0.7-2.1-0.8-3.1c-2.1-1.5-7.8-4.6-10.9-5.9
	c-8.4-3.5-17.8-5.7-27.9-5.7c-21.2,0.1-37.8,13.5-39.2,31.3c-0.9,12.9,5.5,23.4,19.2,31.3c2.9,1.7,18.6,7.9,24.9,9.9
	c19.7,6.1,29.9,17.1,27.5,29.9c-2.2,11.6-14.4,19.1-31.2,19.3c-13.4-0.5-25.4-6-34.7-13.2c-0.2-0.2-1.4-1.1-1.6-1.2
	c-1.2-0.9-2.4-0.8-3.2,0.3c-0.6,0.9-4.2,6.1-5.1,7.4c-0.9,1.2-0.4,1.9,0.5,2.6c3.9,3.2,9.1,6.8,12.6,8.6c9.7,4.9,20.2,7.6,31.4,8.1
	c7.2,0.5,16.2-1.1,23-3.9C153.5,222.3,161.3,212,162.9,199.1z M119.2,15.5c-22.9,0-41.6,21.6-42.5,48.7h85
	C160.8,37.1,142.1,15.5,119.2,15.5z M206.2,266l-0.9,0l-175,0h0C18.5,265.6,9.7,255.9,8.5,244l-0.1-2.2L0.6,69.7l0,0
	c0-0.1,0-0.3,0-0.4c0-2.8,2.2-5,5-5.1v0h55.2C62.1,28.5,87.7,0,119.2,0s57.1,28.5,58.5,64.2h55h0.1c2.8,0,5.1,2.3,5.1,5.1
	c0,0.1,0,0.2,0,0.3v0l-8.6,172.8l-0.1,1.5C228.2,255.9,218.4,265.7,206.2,266z M332.4,151.4c37.7,11.3,52.5,25.4,50.1,48
	c-1.5,14-9.8,25.3-22.9,31.1c-7.2,3.2-16.9,5-24.6,4.6c-11.9-0.2-23.1-2.9-33.4-8c-3.7-1.8-9.3-5.4-13.6-8.9l0,0
	c-2-1.7-2.2-2.8-0.9-4.8c0.4-0.6,1-1.5,2.5-3.8c1.3-1.9,2.6-3.9,2.6-4c1.6-2.4,3.3-2.4,5.7-0.8c0,0,0.2,0.2,0.8,0.6
	c0.5,0.4,0.8,0.6,0.8,0.6c10.7,8,23,12.5,35.3,12.7c16.8-0.5,28.7-8.1,30.6-19.3c2.1-12.3-8.1-22.9-28-28.7c-7-2-22.1-7.7-26.4-10
	c-14.9-8.3-22.1-19.6-21.3-33.7c1.2-19.5,19-34.3,41.8-34.8c10-0.2,20.1,1.7,29.7,5.5c3.5,1.4,9.6,4.5,11.8,6.1
	c2.6,1.8,2.6,3.1,1.3,5.4c-0.2,0.3-0.8,1.3-2.6,3.7l0,0c-1.8,2.6-2.4,3.4-2.5,3.6c-1.5,1.9-2.7,2.5-5.3,1
	c-10.1-6.4-20.3-9.5-31.8-9.5c-14.2,0.5-24.7,9-25.2,20.1C307.1,138.5,315,145.8,332.4,151.4z M438.1,145.7c23,0,42,18.6,42.1,41.3
	v44.4c0,2.6-0.7,3.2-3.2,3.2h-10.6c-2.5,0-3.2-0.6-3.2-3.2v-44.3c-0.1-13.7-11.3-24.8-25.1-24.8c-13.8,0-25,11-25.1,24.7v44.4
	c0,2.2-0.9,3.2-3.2,3.2h-10.6c-2.5,0-3.2-0.9-3.2-3.2V95.5c0-2.3,0.7-3.2,3.2-3.2h10.6c2.3,0,3.2,0.9,3.2,3.2V154
	C420.2,148.7,428.9,145.7,438.1,145.7z M539.1,218.6c15.9,0,28.8-12.6,28.8-28.2s-12.9-28.2-28.8-28.2c-15.9,0-28.8,12.6-28.8,28.2
	S523.2,218.6,539.1,218.6z M539.1,145.8c25.1,0,45.5,20,45.5,44.6c0,24.6-20.4,44.6-45.5,44.6c-25.1,0-45.5-20-45.5-44.6
	C493.6,165.8,514,145.8,539.1,145.8z M820.2,180.1h50.4c-3.6-10.3-14.2-18-25.4-18C833.5,162.1,823.5,169.3,820.2,180.1z
	 M883.1,196.4c-0.1,0-0.2,0-0.2,0h-63.7c1.6,8.2,7.2,15.2,15,19.1c2,1,4.2,1.8,6.5,2.4c11.4,2.4,24.5,0.6,34.4-8.2
	c0.1-0.2,0.4-0.3,0.7-0.6c1.7-1.5,2.8-1.1,4.2,0.5c0,0,1.9,2.6,5.2,7.9c1.4,2.2,1.3,3.3-1.1,5.8c-0.1,0.1-0.3,0.3-0.6,0.5
	c-0.5,0.4-1,0.8-1.6,1.3c-1.8,1.4-4,2.7-6.5,4c-9.3,4.7-20.8,6.9-34.5,5.3c-0.5-0.1-0.8-0.1-1.2-0.2v0l-0.8-0.1
	c-10-1.9-19-6.8-25.6-14.1c0,0,0,0,0-0.1c-5.9-6.5-9.7-14.7-10.9-23.6h0l-0.1-0.6c-0.2-1.8-0.3-3.6-0.3-5.5
	c0-24.6,19.3-44.6,43.1-44.6c23.8,0,43.1,20,43.1,44.6c0,0.2,0,0.3,0,0.3c0,0.1,0,0.2,0,0.4c0,2.9-2.2,5.2-5,5.4
	C883.3,196.4,883.2,196.4,883.1,196.4z M643.3,218.4c15.6,0,28.3-12.6,28.3-28.2c0-15.6-12.7-28.2-28.3-28.2
	c-15.4,0-27.9,12.2-28.3,27.5v1.5C615.4,206.2,627.9,218.4,643.3,218.4z M643.3,145.6c24.7,0,44.7,20,44.7,44.6
	c0,24.6-20,44.6-44.7,44.6c-10.5,0-20.4-3.6-28.3-10.1v52.4c0,2.4-0.7,3.2-3.2,3.2h-10.1c-2.5,0-3.2-0.8-3.2-3.2V148.8
	c0-2.5,0.7-3.2,3.2-3.2h10.1c2.5,0,3.2,0.8,3.2,3.2v6.9C622.9,149.2,632.8,145.6,643.3,145.6z M720.3,180.1h50.4
	c-3.6-10.3-14.2-18-25.4-18C733.6,162.1,723.6,169.3,720.3,180.1z M788.4,190.4c0,0.2,0,0.3,0,0.3c0,0.1,0,0.2,0,0.4
	c0,2.9-2.2,5.2-5,5.4c-0.1,0-0.2,0-0.2,0c-0.1,0-0.2,0-0.2,0h-63.7c1.6,8.2,7.2,15.2,15,19.1c2,1,4.2,1.8,6.5,2.4
	c11.4,2.4,24.5,0.6,34.4-8.2c0.1-0.2,0.4-0.3,0.7-0.6c1.7-1.5,2.8-1.1,4.2,0.5c0,0,1.9,2.6,5.2,7.9c1.4,2.2,1.3,3.3-1.1,5.8
	c-0.1,0.1-0.3,0.3-0.6,0.5c-0.5,0.4-1,0.8-1.6,1.3c-1.8,1.4-4,2.7-6.5,4c-9.3,4.7-20.8,6.9-34.5,5.3c-0.5-0.1-0.8-0.1-1.2-0.2v0
	l-0.8-0.1c-10-1.9-19-6.8-25.6-14.1c0,0,0,0,0-0.1c-5.9-6.5-9.7-14.7-10.9-23.6h0l-0.1-0.6c-0.2-1.8-0.3-3.6-0.3-5.5
	c0-24.6,19.3-44.6,43.1-44.6C769.1,145.8,788.4,165.7,788.4,190.4z"/>
</svg>
