<svg id="Layer_1" data-name="Layer 1" xmlns="http://www.w3.org/2000/svg" viewBox="0 0 70 70"><defs><style> </style></defs><title>so sanh gia</title><path class="cls-1" d="M52.23,60.51h-34a3,3,0,0,0-3,3v2h40v-2A3,3,0,0,0,52.23,60.51Z"/><path class="cls-1" d="M55.38,29.32,54.24,29a5,5,0,0,1-1-.4,1.33,1.33,0,0,1-.78-1.26A1.46,1.46,0,0,1,53,26.05a2,2,0,0,1,3,.62,1.54,1.54,0,0,0,1.5,1.5,1.5,1.5,0,0,0,1.5-1.5A4.48,4.48,0,0,0,55.8,22.9v-.42a1.5,1.5,0,0,0-3,0V23A4.69,4.69,0,0,0,51,24a4.42,4.42,0,0,0-1.44,3.35,4,4,0,0,0,1.39,3.21,5.75,5.75,0,0,0,1.37.8,13.74,13.74,0,0,0,1.54.54,10.43,10.43,0,0,1,1.09.37,3.85,3.85,0,0,1,.87.49,1.76,1.76,0,0,1,.73,1.51,2,2,0,0,1-.63,1.51,2.09,2.09,0,0,1-1.53.61,1.92,1.92,0,0,1-2.23-1.89v-.6a1.5,1.5,0,0,0-3,0v.26a4.94,4.94,0,0,0,1.52,3.66A4.72,4.72,0,0,0,52.8,39v.47a1.5,1.5,0,1,0,3,0V39a5,5,0,0,0,2.14-1.22,4.77,4.77,0,0,0,1.53-3.57A4.59,4.59,0,0,0,58.28,31,6.27,6.27,0,0,0,55.38,29.32Z"/><path class="cls-1" d="M63.25,21.09l-6.33-4.75a4.29,4.29,0,0,0-1.12-.59V9.65L64,8.49A1.49,1.49,0,0,0,65.21,6.8h0a1.49,1.49,0,0,0-1.68-1.28L40.16,8.83a5.49,5.49,0,0,0-10.34,1.46L6.51,13.59a1.52,1.52,0,0,0-1.27,1.7,1.49,1.49,0,0,0,1.68,1.27l7.31-1v5.74a4.19,4.19,0,0,0-1.13.59L6.77,26.61a3.74,3.74,0,0,0-1.54,3v18.5A4,4,0,0,0,9.4,52H22.06a4,4,0,0,0,4.17-3.87V29.63a3.74,3.74,0,0,0-1.54-3l-6.33-4.75a4.35,4.35,0,0,0-1.13-.59V15.11l12.89-1.83a5.52,5.52,0,0,0,3.61,3.25V55h-12a1.5,1.5,0,1,0,0,3h27a1.5,1.5,0,0,0,0-3h-12V16.53a5.51,5.51,0,0,0,4-4.75l12.1-1.71v5.68a3.93,3.93,0,0,0-1.13.59l-6.33,4.75a3.74,3.74,0,0,0-1.54,3V42.6A4,4,0,0,0,48,46.48H60.63A4,4,0,0,0,64.8,42.6V24.11A3.75,3.75,0,0,0,63.25,21.09ZM22.89,29a.8.8,0,0,1,.34.62v18.5c0,.48-.53.87-1.17.87H9.4c-.65,0-1.17-.39-1.17-.87V29.63A.78.78,0,0,1,8.57,29l6.33-4.75a1.45,1.45,0,0,1,1.66,0ZM35.23,13.74a2.5,2.5,0,1,1,2.5-2.5A2.5,2.5,0,0,1,35.23,13.74ZM61.8,42.6c0,.49-.53.88-1.17.88H48c-.65,0-1.17-.39-1.17-.88V24.11a.76.76,0,0,1,.34-.62l6.33-4.75a1.44,1.44,0,0,1,1.65,0l6.33,4.75a.77.77,0,0,1,.35.62Z"/><path class="cls-1" d="M14.23,28v.5a4.69,4.69,0,0,0-1.84,1A4.41,4.41,0,0,0,11,32.89a3.94,3.94,0,0,0,1.38,3.21,5.75,5.75,0,0,0,1.37.8,13.74,13.74,0,0,0,1.54.54,9.67,9.67,0,0,1,1.09.37,3.85,3.85,0,0,1,.87.49A1.77,1.77,0,0,1,18,39.81a2,2,0,0,1-.64,1.51,2.09,2.09,0,0,1-1.53.61A1.91,1.91,0,0,1,13.56,40v-.6a1.5,1.5,0,0,0-3,0v.26a4.84,4.84,0,0,0,3.66,4.84V45a1.5,1.5,0,0,0,3,0v-.46a5,5,0,0,0,2.15-1.22,4.76,4.76,0,0,0,1.52-3.57,4.59,4.59,0,0,0-1.19-3.21,6.24,6.24,0,0,0-2.89-1.7l-1.15-.34a4.66,4.66,0,0,1-1-.4,1.32,1.32,0,0,1-.79-1.26,1.46,1.46,0,0,1,.53-1.27,2,2,0,0,1,3,.62,1.56,1.56,0,0,0,1.5,1.5,1.5,1.5,0,0,0,1.5-1.5,4.48,4.48,0,0,0-3.23-3.77V28a1.5,1.5,0,0,0-3,0Z"/></svg>