<svg id="Layer_1" data-name="Layer 1" xmlns="http://www.w3.org/2000/svg" viewBox="0 0 223.25 154.43"><defs><style>.cls-1{fill:#41b9eb;}</style></defs><title>Tiki</title><path class="cls-1" d="M71.3,103.44a9.83,9.83,0,0,1-9.82,9.82h-15v70.09a9.82,9.82,0,0,1-19.63,0V113.26H11.2a9.82,9.82,0,1,1,0-19.63H61.48A9.82,9.82,0,0,1,71.3,103.44Z" transform="translate(-1.39 -38.73)"/><rect class="cls-1" x="73.35" y="54.89" width="20.32" height="99.54" rx="10.16"/><path class="cls-1" d="M182,190.21l-.53.5a8.66,8.66,0,0,1-12.26-.18L133,153.28l-5.6-5.79V183a10.16,10.16,0,0,1-10.16,10.16h0A10.16,10.16,0,0,1,107.11,183V103.79a10.16,10.16,0,0,1,10.16-10.16h0a10.16,10.16,0,0,1,10.16,10.16v27.9l34.86-34.86a10.54,10.54,0,0,1,14.93,0h0a8.64,8.64,0,0,1,0,12.26l-30.57,30.59,35.53,36.61A9.85,9.85,0,0,1,182,190.21Z" transform="translate(-1.39 -38.73)"/><path class="cls-1" d="M84.89,38.73A24.29,24.29,0,1,0,109.17,63,24.29,24.29,0,0,0,84.89,38.73Zm0,43A18.71,18.71,0,0,1,66.18,63a19,19,0,0,1,.48-4.29h36.46a17.44,17.44,0,0,1,.51,4.29A18.74,18.74,0,0,1,84.89,81.73Z" transform="translate(-1.39 -38.73)"/><rect class="cls-1" x="188.82" y="54.89" width="20.32" height="99.54" rx="10.16"/><path class="cls-1" d="M200.36,38.73A24.29,24.29,0,1,0,224.64,63,24.29,24.29,0,0,0,200.36,38.73Zm0,43A18.72,18.72,0,0,1,181.64,63a18.44,18.44,0,0,1,.49-4.29h36.46a17.93,17.93,0,0,1,.5,4.29A18.73,18.73,0,0,1,200.36,81.73Z" transform="translate(-1.39 -38.73)"/></svg>