<svg xmlns="http://www.w3.org/2000/svg" width="67.052" height="54.987" viewBox="0 0 67.052 54.987"><defs><style></style></defs><g transform="translate(-942.563 -489.897)"><path class="a" d="M-5718.354,8091.369h-51.658a.63.63,0,0,1-.6-.66v-23.879a.69.69,0,0,1,.185-.5l4.806-4.821a.71.71,0,0,1,.5-.2h15.015v-18.322a.69.69,0,0,1,.209-.483l4.833-4.933a.7.7,0,0,1,.506-.189h25.81a.626.626,0,0,1,.585.66v23.267h4.614a.694.694,0,0,1,.692.693v23.878a.663.663,0,0,1-.187.487l-4.809,4.817a.684.684,0,0,1-.468.184Zm-9.467-7.853a.7.7,0,0,1,.7.707v5.73h8.015V8067.56h-7.779v3.727a.738.738,0,0,1-.7.751h-7.251a.7.7,0,0,1-.656-.751v-3.727h-7.9v4.125a.708.708,0,0,1-.708.708.708.708,0,0,1-.707-.708v-4.125h-7.9v3.727a.773.773,0,0,1-.737.751h-7.254a.766.766,0,0,1-.731-.751v-3.727h-7.779v22.394h8.015v-5.73a.723.723,0,0,1,.22-.5.727.727,0,0,1,1.027.01l.6.631.632-.656a.728.728,0,0,1,.505-.233h0a.726.726,0,0,1,.506.229l.625.662.625-.656a.726.726,0,0,1,.505-.235h0a.724.724,0,0,1,.506.233l.636.666.609-.636a.719.719,0,0,1,.5-.219.727.727,0,0,1,.748.707v5.73h8.131V8076.4a.707.707,0,0,1,.707-.707.707.707,0,0,1,.708.707v13.555h8.133v-5.73a.689.689,0,0,1,.42-.66.666.666,0,0,1,.751.167l.6.631.634-.656a.72.72,0,0,1,.5-.233h0a.723.723,0,0,1,.506.229l.625.662.625-.656a.73.73,0,0,1,.505-.235h0a.724.724,0,0,1,.506.233l.631.666.6-.636a.7.7,0,0,1,.507-.219Zm-6.021,6.437h5.3v-3.98a.7.7,0,0,1-.392.124.694.694,0,0,1-.505-.211l-.638-.652-.627.648a.131.131,0,0,1-.019.018.7.7,0,0,1-1-.018l-.625-.648-.634.652a.692.692,0,0,1-.5.211.643.643,0,0,1-.372-.124Zm-25.93,0h5.422v-3.98a.79.79,0,0,1-.414.124.744.744,0,0,1-.526-.211l-.64-.652-.627.648-.015.014a.709.709,0,0,1-1-.014l-.629-.648-.642.652a.738.738,0,0,1-.518.211.766.766,0,0,1-.408-.124Zm42.08-22.831v21.832l3.417-3.365v-21.838Zm-16.385,3.5h5.775v-3.064h-5.775Zm-25.93,0h5.893v-3.064h-5.893Zm37.841-4.484,3.519,0,3.4-3.417h-3.414Zm-10.947-6.585a.7.7,0,0,1,.687.708v5.881h8.133v-22.512h-7.9v3.736a.657.657,0,0,1-.684.625h-7.3a.644.644,0,0,1-.615-.668v-3.694h-7.9v22.512h8.133v-5.881a.69.69,0,0,1,.426-.658.676.676,0,0,1,.757.168l.6.636.634-.648a.713.713,0,0,1,.5-.219h0a.7.7,0,0,1,.505.221l.625.648.627-.648a.714.714,0,0,1,.5-.221h0a.709.709,0,0,1,.5.219l.634.65.6-.636a.694.694,0,0,1,.509-.221Zm-6.031,6.589h5.3v-4.132a.664.664,0,0,1-.384.126.706.706,0,0,1-.5-.213l-.638-.649-.627.647a.176.176,0,0,1-.016.017.707.707,0,0,1-1-.017l-.625-.647-.634.649a.706.706,0,0,1-.5.213.658.658,0,0,1-.376-.126Zm-16.227,0h5.264v-3.417h-1.852Zm-12.872,0h10.872l3.412-3.417h-10.87Zm45.365-22.981v21.878l3.3-3.412v-21.878Zm-16.5,3.416h5.775v-2.946h-5.775Zm4.571-4.362h10.871l3.413-3.417h-10.87Zm-12.785,0h10.785l3.412-3.417h-10.866Zm-19.84,38.433v-7.78a.707.707,0,0,1,.707-.707.706.706,0,0,1,.707.707v7.78a.706.706,0,0,1-.707.707A.707.707,0,0,1-5767.434,8080.649Zm0-10.02v-.741a.706.706,0,0,1,.707-.707.7.7,0,0,1,.707.707v.741a.707.707,0,0,1-.707.709A.708.708,0,0,1-5767.434,8070.63Zm-10.032-13.713v-4.34a.723.723,0,0,1,.5-.688l4.342-1.448a.724.724,0,0,1,.916.459.724.724,0,0,1-.459.916l-3.2,1.068a7.952,7.952,0,0,0,5.869,2.585,7.956,7.956,0,0,0,7.958-7.957.725.725,0,0,1,.725-.725.725.725,0,0,1,.723.725,9.384,9.384,0,0,1-2.642,6.547,9.386,9.386,0,0,1-13.274.215v2.642a.725.725,0,0,1-.723.725A.725.725,0,0,1-5777.465,8056.917Zm-1.446-9.4a9.387,9.387,0,0,1,2.642-6.549,9.388,9.388,0,0,1,13.274-.213v-2.644a.723.723,0,0,1,.723-.723.723.723,0,0,1,.723.723v4.341a.719.719,0,0,1-.493.688l-4.342,1.448a.726.726,0,0,1-.916-.459.725.725,0,0,1,.459-.916l3.2-1.07a7.969,7.969,0,0,0-5.869-2.585,7.963,7.963,0,0,0-7.96,7.958.722.722,0,0,1-.723.723A.722.722,0,0,1-5778.911,8047.513Z" transform="translate(6721.975 -7546.986)"/></g></svg>