<svg xmlns="http://www.w3.org/2000/svg" width="62.105" height="66.627" viewBox="0 0 62.105 66.627"><defs><style></style></defs><path class="a" d="M-5778,7889.061l-14.035-30.1,1.7-.794,13.638,29.253,14.221-6.631-25.376-25.378a.935.935,0,0,1-.264-.808l2.438-15.43-7.34,13.246.988,2.115-1.7.794-1.188-2.548a.938.938,0,0,1,.03-.849l7.09-12.8c-.132-.126-.263-.255-.394-.386-5.227-5.227-7.247-11.092-4.7-13.64s8.415-.533,13.64,4.695a22.429,22.429,0,0,1,2.047,2.257l13.815-2.182a.943.943,0,0,1,.81.263l28.307,28.307a.94.94,0,0,1,0,1.325l-23.953,23.952a.935.935,0,0,1-.661.275.937.937,0,0,1-.664-.275l-1.522-1.521-15.684,7.312a.96.96,0,0,1-.4.093A.936.936,0,0,1-5778,7889.061Zm-5.1-54.18-3.087,19.541,27.309,27.309,22.626-22.628-27.3-27.307-12.419,1.96a22.469,22.469,0,0,1,1.845,3.5c.123.321.23.636.319.942a4.787,4.787,0,0,1,3.388,4.58,4.778,4.778,0,0,1-1.4,3.38,4.771,4.771,0,0,1-3.384,1.4,4.788,4.788,0,0,1-4.782-4.788,4.783,4.783,0,0,1,4.15-4.738c-.012-.038-.028-.073-.04-.111a20.443,20.443,0,0,0-2.139-3.841Zm7.893,10.8a2.91,2.91,0,0,0,2.911-2.913,2.912,2.912,0,0,0-.852-2.058,3.017,3.017,0,0,0-.305-.267,4.06,4.06,0,0,1-1.093,2.992,4.015,4.015,0,0,1-2.952,1.091l-.034,0A2.906,2.906,0,0,0-5775.207,7845.685Zm-2.909-3.073a2.726,2.726,0,0,0,2.243-.5,2.641,2.641,0,0,0,.5-2.245A2.911,2.911,0,0,0-5778.116,7842.611Zm-13.443-16.187c-1.489,1.487.076,6.372,4.7,10.989a.067.067,0,0,0,.012.014l2.075-3.748a.937.937,0,0,1,.709-.542l4.716-.745q-.579-.662-1.218-1.273c-3.495-3.495-7.136-5.239-9.35-5.239A2.257,2.257,0,0,0-5791.559,7826.425Zm23.485,39.781v-4.34a.722.722,0,0,1,.5-.689l4.34-1.447a.724.724,0,0,1,.917.459.723.723,0,0,1-.459.915l-3.206,1.069a7.97,7.97,0,0,0,5.871,2.586,7.96,7.96,0,0,0,7.96-7.958.722.722,0,0,1,.723-.723.722.722,0,0,1,.723.723,9.386,9.386,0,0,1-2.641,6.548,9.387,9.387,0,0,1-13.274.214v2.644a.725.725,0,0,1-.725.725A.723.723,0,0,1-5768.073,7866.206Zm-1.447-9.405a9.388,9.388,0,0,1,2.643-6.548,9.389,9.389,0,0,1,13.274-.214V7847.4a.722.722,0,0,1,.723-.723.723.723,0,0,1,.725.723v4.34a.724.724,0,0,1-.5.689l-4.34,1.448a.724.724,0,0,1-.915-.459.722.722,0,0,1,.458-.915l3.206-1.069a7.96,7.96,0,0,0-5.869-2.584,7.957,7.957,0,0,0-7.96,7.956.723.723,0,0,1-.723.723A.723.723,0,0,1-5769.521,7856.8Z" transform="translate(5795.509 -7823.475)"/></svg>