<svg xmlns="http://www.w3.org/2000/svg" width="150" height="38.612" viewBox="0 0 150 38.612">
  <g id="Group_7981" data-name="Group 7981" transform="translate(-436.765 -141.373)">
    <path id="Path_7025" data-name="Path 7025" d="M460.17,162.655l-9.162-15.743a3.165,3.165,0,0,0-2.557-1.507H446.11L458.153,166.1Z" fill="#f17423" fill-rule="evenodd"/>
    <path id="Path_7026" data-name="Path 7026" d="M454.358,149.438l6.756,11.607,1.839-3.14-4.153-7.13a3.179,3.179,0,0,0-2.45-1.337h-1.992Z" fill="#f17423" fill-rule="evenodd"/>
    <path id="Path_7027" data-name="Path 7027" d="M458.148,169.32l13.742-23.454a8.824,8.824,0,0,1,7.378-4.493H488.1c-3.535,6.07-5.983,10.272-8.089,13.885a4.42,4.42,0,0,0-8.8.62v14.448l-4.393,7.518a3.563,3.563,0,0,1-2.786,1.611h-3.256a3.606,3.606,0,0,1-2.769-1.61l-21.245-36.472H440.2a3.166,3.166,0,0,1,2.557,1.507Z" fill="#00a44f" fill-rule="evenodd"/>
    <path id="Path_7029" data-name="Path 7029" d="M541.719,179.455v-9.888a14.431,14.431,0,0,0-.466-3.815,7.456,7.456,0,0,0-1.443-2.831,6.267,6.267,0,0,0-2.5-1.783,10.154,10.154,0,0,0-3.783-.636,7.305,7.305,0,0,0-2.473.423,13.068,13.068,0,0,0-2.225,1.034l-.707.417.04-7.961h-5.742v25.04H528.2v-9.568a6.175,6.175,0,0,1,.258-1.8,4.457,4.457,0,0,1,.777-1.5,3.707,3.707,0,0,1,1.274-1.017,3.759,3.759,0,0,1,1.663-.366,5.5,5.5,0,0,1,1.451.178,2.733,2.733,0,0,1,1.236.731,3.379,3.379,0,0,1,.784,1.421,7.762,7.762,0,0,1,.258,2.168v9.75Zm33.788-5.328-5.771-.016a6.458,6.458,0,0,0,.409,1.791,5.454,5.454,0,0,0,1.364,2.008,7.3,7.3,0,0,0,2.5,1.491,11.062,11.062,0,0,0,3.826.584,15.911,15.911,0,0,0,3.62-.388,8.7,8.7,0,0,0,2.829-1.175,5.547,5.547,0,0,0,1.822-1.971,5.936,5.936,0,0,0,.656-2.882,4.88,4.88,0,0,0-.516-2.377,4.276,4.276,0,0,0-1.443-1.515,8.338,8.338,0,0,0-2.277-.976c-.969-.27-1.949-.487-2.929-.672-.476-.07-.948-.147-1.411-.239a7.564,7.564,0,0,1-1-.241,1.746,1.746,0,0,1-.7-.393,1.032,1.032,0,0,1-.307-.766,1.3,1.3,0,0,1,.632-1.125,2.65,2.65,0,0,1,1.518-.4,2.071,2.071,0,0,1,1.506.519,1.868,1.868,0,0,1,.473.766l5.926.017a6.047,6.047,0,0,0-.479-2.059,5.3,5.3,0,0,0-1.423-1.93,6.757,6.757,0,0,0-2.328-1.264,10.277,10.277,0,0,0-3.18-.453c-2.092,0-4.657.276-6.394,1.556a5.16,5.16,0,0,0-2.039,4.435,6.165,6.165,0,0,0,.248,1.822,4.348,4.348,0,0,0,.643,1.313,4.394,4.394,0,0,0,.928.929,5.938,5.938,0,0,0,1.11.645,8.021,8.021,0,0,0,1.148.415c.356.1.715.193,1.077.269l.018,0q1.011.258,2.032.464c.5.1,1.005.212,1.508.347a3.613,3.613,0,0,1,1.015.428,1.09,1.09,0,0,1,.511.94,1.354,1.354,0,0,1-.693,1.194,3.84,3.84,0,0,1-1.845.349,3.31,3.31,0,0,1-1.792-.449,1.9,1.9,0,0,1-.8-1ZM507.63,154.415v6.1h-2.9v4.667h2.9v7.071a11.537,11.537,0,0,0,.286,2.767,6.544,6.544,0,0,0,.786,1.917,4.476,4.476,0,0,0,1.174,1.248,5.713,5.713,0,0,0,1.539.8,8.669,8.669,0,0,0,1.867.374c.7.066,1.41.1,2.117.1h3.265l.047-4.443h-2.667a3.91,3.91,0,0,1-.988-.116,2.056,2.056,0,0,1-.887-.471,2.182,2.182,0,0,1-.577-.921,4.242,4.242,0,0,1-.18-1.325v-7H518.5v-4.667H513.43v-6.1Zm-5.514,19.576h-6.371a3.756,3.756,0,0,1-1.119,1.032,3.887,3.887,0,0,1-2.074.527,4.421,4.421,0,0,1-1.414-.237,4.655,4.655,0,0,1-1.28-.669,5.14,5.14,0,0,1-1.054-1.06,5,5,0,0,1-.726-1.4l-.207-.614h14.886c.022-.121.043-.243.063-.364a5.9,5.9,0,0,0,.057-.968,9.707,9.707,0,0,0-.741-3.777,9.417,9.417,0,0,0-2.1-3.1,9.871,9.871,0,0,0-3.267-2.1,11.292,11.292,0,0,0-4.247-.774,10.971,10.971,0,0,0-4.212.779,10.093,10.093,0,0,0-3.246,2.107,9.239,9.239,0,0,0-2.075,3.089,9.825,9.825,0,0,0-.735,3.779,9.64,9.64,0,0,0,.74,3.765,9.37,9.37,0,0,0,2.089,3.086,10.1,10.1,0,0,0,3.24,2.1,10.909,10.909,0,0,0,4.2.785,11.158,11.158,0,0,0,3.7-.581,10.551,10.551,0,0,0,2.892-1.523,9.068,9.068,0,0,0,3.006-3.884Zm-9.564-8.776a3.642,3.642,0,0,1,2.18.62,4.139,4.139,0,0,1,1.346,1.672h-7.3a4.2,4.2,0,0,1,1.459-1.672,4.12,4.12,0,0,1,2.317-.62Zm-19.837-4.726v18.966h5.838V160.489Zm88.322,18.966h4.993V160.5h-4.993v2.076l-.732-.508a9.7,9.7,0,0,0-2.216-1.11,8.369,8.369,0,0,0-2.859-.46,10.493,10.493,0,0,0-4.144.776,9.2,9.2,0,0,0-3.078,2.1,9.019,9.019,0,0,0-1.917,3.086,10.75,10.75,0,0,0-.666,3.782,10.563,10.563,0,0,0,.677,3.786,9.182,9.182,0,0,0,1.925,3.089,9.073,9.073,0,0,0,3.064,2.084,10.9,10.9,0,0,0,5.551.667,8.2,8.2,0,0,0,4.395-2.432v2.018Zm-9.345-9.224a5.286,5.286,0,0,1,.319-1.9,4.183,4.183,0,0,1,.883-1.434,3.9,3.9,0,0,1,1.321-.909,4.236,4.236,0,0,1,1.659-.319,4.186,4.186,0,0,1,1.641.319,3.91,3.91,0,0,1,1.334.915,4.371,4.371,0,0,1,.9,1.44,5.158,5.158,0,0,1,.331,1.885,5.369,5.369,0,0,1-.319,1.929,4.268,4.268,0,0,1-.889,1.446,3.912,3.912,0,0,1-1.321.915,4.157,4.157,0,0,1-1.635.319,4.2,4.2,0,0,1-1.64-.319,3.95,3.95,0,0,1-1.34-.927,4.313,4.313,0,0,1-.908-1.453A5.25,5.25,0,0,1,551.692,170.231Z" fill="#00a44f" fill-rule="evenodd"/>
    <path id="Path_7030" data-name="Path 7030" d="M475.634,152.8a3.08,3.08,0,1,0,3.08,3.08A3.08,3.08,0,0,0,475.634,152.8Z" fill="#f17423" fill-rule="evenodd"/>
  </g>
</svg>
