<svg id="Layer_1" data-name="Layer 1" xmlns="http://www.w3.org/2000/svg" viewBox="0 0 61 61"><defs><style></style></defs><title>Icon</title><path class="cls-1" d="M54.5,45.65V38.82h-.07A5,5,0,0,0,49.5,34.5H43.94l6.34-22.27,5.29,1.5a3.51,3.51,0,0,0,4.33-2.41l.41-1.44A5,5,0,0,0,56.87,3.7L46.29.69a5,5,0,0,0-6.18,3.44L39.7,5.57A3.51,3.51,0,0,0,42.11,9.9l5.29,1.5L37.7,45.5H32.45a4.23,4.23,0,0,0,0-.5V29A3.5,3.5,0,0,0,29,25.5,3.5,3.5,0,0,0,32.5,22V6A3.5,3.5,0,0,0,29,2.5H10A3.5,3.5,0,0,0,6.5,6V22A3.5,3.5,0,0,0,10,25.5,3.5,3.5,0,0,0,6.5,29V45a4.23,4.23,0,0,0,0,.5H5a4.5,4.5,0,0,0,0,9H6.78A4.39,4.39,0,0,0,6.5,56a4.5,4.5,0,0,0,9,0,4.39,4.39,0,0,0-.28-1.5H45.65a7.5,7.5,0,1,0,8.85-8.85ZM42.93,7a.48.48,0,0,1-.34-.61L43,5a2,2,0,0,1,2.47-1.37l10.58,3a2,2,0,0,1,1.37,2.47L57,10.5a.5.5,0,0,1-.62.35L51.1,9.34l-2.88-.82ZM22.5,29.5v4a1,1,0,0,1-1,1h-4a1,1,0,0,1-1-1v-4a1,1,0,0,1,1-1h4A1,1,0,0,1,22.5,29.5Zm-6-23a1,1,0,0,1,1-1h4a1,1,0,0,1,1,1v4a1,1,0,0,1-1,1h-4a1,1,0,0,1-1-1ZM9.5,22V6a.5.5,0,0,1,.5-.5h3.64a4.09,4.09,0,0,0-.14,1v4a4,4,0,0,0,4,4h4a4,4,0,0,0,4-4v-4a4.09,4.09,0,0,0-.14-1H29a.5.5,0,0,1,.5.5V22a.5.5,0,0,1-.5.5H10A.5.5,0,0,1,9.5,22Zm0,23V29a.5.5,0,0,1,.5-.5h3.64a4.09,4.09,0,0,0-.14,1v4a4,4,0,0,0,4,4h4a4,4,0,0,0,4-4v-4a4.09,4.09,0,0,0-.14-1H29a.5.5,0,0,1,.5.5V45a.5.5,0,0,1-.5.5H10A.5.5,0,0,1,9.5,45ZM11,57.5A1.5,1.5,0,1,1,12.5,56,1.5,1.5,0,0,1,11,57.5Zm34.65-6H5a1.5,1.5,0,0,1,0-3H40l3.13-11H49.5a2,2,0,0,1,2,2v6.15A7.54,7.54,0,0,0,45.65,51.5Zm7.35,6A4.5,4.5,0,1,1,57.5,53,4.51,4.51,0,0,1,53,57.5Z"/></svg>