<svg xmlns="http://www.w3.org/2000/svg" viewBox="0 0 61 61"><defs><style></style></defs><title>quan ly lo - han su dung</title><g id="Layer_2" data-name="Layer 2"><path class="cls-1" d="M60.47,41.53a3,3,0,0,0-3-3h-9.2l0-16a3,3,0,0,0-3-3H41.5V6.5a3,3,0,0,0-3-3H33V2a1.5,1.5,0,0,0-3,0V3.5H26V2a1.5,1.5,0,0,0-3,0V3.5H19V2a1.5,1.5,0,0,0-3,0V3.5H12V2A1.5,1.5,0,0,0,9,2V3.5H3.5a3,3,0,0,0-3,3V40.33A5.17,5.17,0,0,0,5.67,45.5H8.52l0,11.25a3.74,3.74,0,0,0,3.73,3.75h22a1.6,1.6,0,0,0,.23,0,1.6,1.6,0,0,0,.23,0h22a3.74,3.74,0,0,0,3.73-3.75Zm-57-35H9V8a1.5,1.5,0,0,0,3,0V6.5h4V8a1.5,1.5,0,0,0,3,0V6.5h4V8a1.5,1.5,0,0,0,3,0V6.5h4V8a1.5,1.5,0,0,0,3,0V6.5h5.5v6H3.5Zm2.17,36A2.17,2.17,0,0,1,3.5,40.33V15.5h35v3h0v1H23.81a3,3,0,0,0-3,3l-.05,16h-9.2a3,3,0,0,0-3,3v1ZM33,44.56v7h0v1h0v3.2a1.74,1.74,0,0,1-1.74,1.74h-18a1.75,1.75,0,0,1-1.74-1.74V42.49a1,1,0,0,1,1-1H32a1,1,0,0,1,1,1Zm-.5-6.06h-7a1.75,1.75,0,0,1-1.75-1.74V23.49a1,1,0,0,1,1-1H44.24a1,1,0,0,1,1,1V36.76a1.75,1.75,0,0,1-1.75,1.74h-11Zm25,6.06v11.2a1.75,1.75,0,0,1-1.74,1.74h-18A1.74,1.74,0,0,1,36,55.76v-3.2h0v-1h0v-9a1,1,0,0,1,1-1H56.51a1,1,0,0,1,1,1Z"/></g></svg>