<svg xmlns="http://www.w3.org/2000/svg" viewBox="0 0 22 22"><defs><style>.cls-1{fill:#00a858;}</style></defs><title>Asset 5</title><g id="Layer_2" data-name="Layer 2"><g id="Layer_1-2" data-name="Layer 1"><path class="cls-1" d="M8.25,8.75H3.75a.75.75,0,0,0,0,1.5h4.5a.75.75,0,0,0,0-1.5Z"/><path class="cls-1" d="M8.25,11.75H3.75a.75.75,0,0,0,0,1.5h4.5a.75.75,0,0,0,0-1.5Z"/><path class="cls-1" d="M8.25,14.75H3.75a.75.75,0,0,0,0,1.5h4.5a.75.75,0,0,0,0-1.5Z"/><path class="cls-1" d="M8.25,17.75H3.75a.75.75,0,0,0,0,1.5h4.5a.75.75,0,0,0,0-1.5Z"/><path class="cls-1" d="M19.5,0h-7A2.5,2.5,0,0,0,10,2.5V3H7.5A2.5,2.5,0,0,0,5,5.5V6H2.5A2.5,2.5,0,0,0,0,8.5v11A2.5,2.5,0,0,0,2.5,22h7A2.5,2.5,0,0,0,12,19.5V19h2.5A2.5,2.5,0,0,0,17,16.5V16h2.5A2.5,2.5,0,0,0,22,13.5V2.5A2.5,2.5,0,0,0,19.5,0Zm-9,19.5a1,1,0,0,1-1,1h-7a1,1,0,0,1-1-1V8.5a1,1,0,0,1,1-1h7a1,1,0,0,1,1,1Zm5-3a1,1,0,0,1-1,1H12v-9A2.5,2.5,0,0,0,9.5,6h-3V5.5a1,1,0,0,1,1-1h7a1,1,0,0,1,1,1Zm5-3a1,1,0,0,1-1,1H17v-9A2.5,2.5,0,0,0,14.5,3h-3V2.5a1,1,0,0,1,1-1h7a1,1,0,0,1,1,1Z"/></g></g></svg>