<svg id="Layer_1" data-name="Layer 1" xmlns="http://www.w3.org/2000/svg" viewBox="0 0 61 61"><defs><style></style></defs><title>Icon</title><path class="cls-1" d="M49.92,35.08a1.49,1.49,0,0,0-2.12,0l-5.3,5.3-5.3-5.3a1.5,1.5,0,0,0-2.13,2.12l5.31,5.3-5.3,5.3a1.5,1.5,0,0,0,2.12,2.12l5.3-5.3,5.3,5.31a1.5,1.5,0,0,0,2.12-2.13l-5.3-5.3,5.3-5.3A1.49,1.49,0,0,0,49.92,35.08Z"/><path class="cls-1" d="M48.2,25.44V13.5a2.93,2.93,0,0,0-.69-1.94L40.86,2a3.77,3.77,0,0,0-3-1.5H23.15a3.77,3.77,0,0,0-3,1.5l-6.65,9.56a2.93,2.93,0,0,0-.69,1.94v5.06h0V23.5h-1.9a3.76,3.76,0,0,0-3,1.5L1.22,34.56A2.93,2.93,0,0,0,.53,36.5v6.06h0v7a0,0,0,0,0,0,.06v2.94a0,0,0,0,0,0,.06v4.17A3.74,3.74,0,0,0,4.23,60.5H42.5a18,18,0,0,0,5.7-35.06ZM16.76,12.35l5.75-8.5a.75.75,0,0,1,.64-.35c.22,0,2.8,0,5.35,0s9.13,0,9.35,0a.75.75,0,0,1,.64.35l5.75,8.5a.7.7,0,0,1-.53,1.15H17.29A.7.7,0,0,1,16.76,12.35Zm-1,14.2V17.49a1,1,0,0,1,1-1H44.24a1,1,0,0,1,1,1v7.24a17.54,17.54,0,0,0-2.73-.23,18,18,0,0,0-16.95,12h-8a1.75,1.75,0,0,1-1.74-1.74ZM4.49,35.35l5.75-8.5a.75.75,0,0,1,.64-.35h1.9s0,0,0,0a0,0,0,0,0,0,0l0,9.92H5A.7.7,0,0,1,4.49,35.35ZM22,57.5H5.24A1.75,1.75,0,0,1,3.5,55.76V40.49a1,1,0,0,1,1-1H24.77a18.59,18.59,0,0,0-.27,3,18,18,0,0,0,8.07,15Zm20.5,0a15,15,0,1,1,15-15A15,15,0,0,1,42.5,57.5Z"/></svg>