<svg xmlns="http://www.w3.org/2000/svg" width="18" height="18" viewBox="0 0 18 18">
	<g id="Group_13877" data-name="Group 13877" transform="translate(-322.265 -950.277)">
		<path id="Path_31280" data-name="Path 31280" d="M336.015,958.527h-4v-4a.75.75,0,0,0-.75-.75h0a.75.75,0,0,0-.75.75v4h-4a.75.75,0,0,0,0,1.5h4v4a.75.75,0,0,0,.75.75h0a.75.75,0,0,0,.75-.75v-4h4a.75.75,0,0,0,0-1.5Z" />
		<path id="Path_31281" data-name="Path 31281" d="M337.152,950.277H325.378a3.113,3.113,0,0,0-3.113,3.113v11.774a3.112,3.112,0,0,0,3.113,3.113h11.774a3.113,3.113,0,0,0,3.113-3.113V953.39A3.113,3.113,0,0,0,337.152,950.277Zm1.613,14.887a1.613,1.613,0,0,1-1.613,1.613H325.378a1.613,1.613,0,0,1-1.613-1.613V953.39a1.613,1.613,0,0,1,1.613-1.613h11.774a1.613,1.613,0,0,1,1.613,1.613Z" />
	</g>
</svg>
