<svg id="Layer_1" data-name="Layer 1" xmlns="http://www.w3.org/2000/svg" viewBox="0 0 66 50"><defs><style>.cls-1{fill:#dd3341;}</style></defs><title>01 ICON</title><path class="cls-1" d="M57.66.5H19.16a5.32,5.32,0,0,0-3.77,9.1L26.21,20.38c-3,5.18-8.8,11.44-19.75,15.16a5.11,5.11,0,0,0-3.46,5,5.3,5.3,0,0,0,3.92,5A44.93,44.93,0,0,0,18.43,47a51.16,51.16,0,0,0,26.85-7.6l8.61,8.57a5.27,5.27,0,0,0,3.75,1.56,5.41,5.41,0,0,0,3.68-1.44A5.29,5.29,0,0,0,63,44.17V5.83A5.34,5.34,0,0,0,57.66.5ZM60,44.16a2.34,2.34,0,0,1-4,1.65L45.68,35.54a47.52,47.52,0,0,1-38,7.12,2.26,2.26,0,0,1-.28-4.28C20.56,33.92,26.88,26,29.91,19.83l-2.17-2.16L17.5,7.48a2.33,2.33,0,0,1,1.66-4h38.5A2.33,2.33,0,0,1,60,5.83Z"/></svg>