<?xml version="1.0" encoding="utf-8"?>
<!-- Generator: Adobe Illustrator 23.0.5, SVG Export Plug-In . SVG Version: 6.00 Build 0)  -->
<svg version="1.0" id="Layer_1" xmlns="http://www.w3.org/2000/svg" xmlns:xlink="http://www.w3.org/1999/xlink" x="0px" y="0px"
	 viewBox="0 0 1194 307" style="enable-background:new 0 0 1194 307;" xml:space="preserve">
<style type="text/css">
	.st0{fill-rule:evenodd;clip-rule:evenodd;fill:#FFFFFF;}
</style>
<g>
	<path class="st0" d="M185.96,169.4l-73-125.42c-6.86-11.77-19.96-12-20.37-12h-0.01H73.94l95.95,164.85L185.96,169.4z"/>
	<path class="st0" d="M208.13,131.56l-33.09-56.8C168,64.32,155.92,64.11,155.53,64.1h-0.01h-4.66h-11.21l53.82,92.47L208.13,131.56
		z"/>
	<path class="st0" d="M338.11-0.14c-21.85,0-45.48,12.97-58.78,35.79L169.85,222.5L47.25,11.86c-6.87-11.77-19.96-12-20.37-12h-0.01
		H-0.5l169.25,290.56c0.08,0.13,8.19,12.82,22.06,12.82h25.94c13.56,0,21.62-11.81,22.2-12.83l35-59.89V115.56v-0.15
		c0-19.44,15.77-35.21,35.21-35.21c17.76,0,32.46,13.17,34.86,30.27c16.78-28.78,36.28-62.26,64.44-110.61H338.11z"/>
	<path class="st0" d="M1190.38,237.41c-2.8-4.99-6.68-8.97-11.5-12.07c-5.54-3.56-11.82-6.02-18.14-7.77
		c-7.72-2.15-15.53-3.88-23.33-5.35c-3.79-0.56-7.55-1.18-11.25-1.9c-2.67-0.48-5.35-1.08-7.93-1.92c-2.07-0.67-4.11-1.64-5.6-3.13
		c-1.7-1.62-2.43-3.79-2.45-6.1c-0.14-3.82,1.97-6.84,5.04-8.97c3.49-2.42,7.92-3.16,12.09-3.16c4.35,0,8.83,0.95,12,4.13
		c1.77,1.77,3.05,3.82,3.77,6.11l47.21,0.13c-0.35-5.64-1.53-11.16-3.82-16.4c-2.61-5.98-6.38-11.13-11.34-15.38
		c-5.42-4.64-11.78-7.86-18.54-10.07c-8.15-2.66-16.79-3.61-25.34-3.61c-16.66,0-37.09,2.2-50.93,12.4
		c-11.74,8.65-16.25,20.99-16.25,35.33c0,4.87,0.53,9.85,1.98,14.51c1.16,3.72,2.79,7.32,5.12,10.46c2.09,2.81,4.56,5.33,7.4,7.4
		c2.77,2.02,5.71,3.75,8.84,5.14c2.96,1.31,6.02,2.45,9.15,3.3c2.84,0.77,5.7,1.54,8.58,2.15l0.15,0.04
		c5.36,1.37,10.76,2.6,16.19,3.7c4,0.81,8.01,1.69,12.02,2.77c2.72,0.79,5.8,1.83,8.09,3.4c2.62,1.72,4.07,4.36,4.07,7.49
		c0,4.11-2.04,7.39-5.53,9.51c-3.99,2.42-10.15,2.78-14.7,2.78c-4.95,0-10.04-0.87-14.27-3.58c-3.08-1.97-5.23-4.67-6.34-7.95
		l-45.98-0.13c0.38,4.89,1.5,9.65,3.26,14.27c2.34,6.16,6.11,11.46,10.86,16c5.65,5.39,12.67,9.16,19.94,11.88
		c9.56,3.58,20.33,4.65,30.48,4.65c9.68,0,19.4-0.88,28.84-3.1c7.96-1.87,15.71-4.82,22.54-9.36c6.1-4.06,10.99-9.28,14.52-15.71
		c3.86-7.04,5.23-15,5.23-22.96C1194.5,249.94,1193.57,243.08,1190.38,237.41z"/>
	<rect x="285.9" y="152.15" class="st0" width="46.51" height="151.09"/>
	<path class="st0" d="M623.21,266.92c-2.63-0.69-5.05-1.91-7.06-3.75c-2.18-2-3.66-4.54-4.6-7.34c-1.12-3.33-1.44-7.06-1.44-10.56
		v-55.73h40.51v-37.18h-40.36v-48.6h-46.21v48.6h-23.1v37.18h23.1v56.33c0,7.29,0.5,14.95,2.28,22.05
		c1.33,5.32,3.3,10.63,6.26,15.27c2.49,3.9,5.58,7.26,9.35,9.95c3.75,2.67,7.88,4.93,12.26,6.34c4.83,1.56,9.82,2.51,14.87,2.98
		c5.61,0.52,11.24,0.79,16.87,0.79h26.01l0.37-35.4h-21.25C628.44,267.84,625.78,267.59,623.21,266.92z"/>
	<path class="st0" d="M503.55,175.03c-7.47-7.35-16.33-12.81-26.03-16.72c-10.77-4.35-22.26-6.16-33.83-6.16
		c-11.5,0-22.9,1.8-33.56,6.2c-9.62,3.97-18.4,9.48-25.86,16.78c-7.18,7.04-12.68,15.31-16.53,24.61
		c-3.97,9.6-5.86,19.72-5.86,30.11c0,10.37,1.88,20.43,5.9,30c3.9,9.28,9.45,17.53,16.64,24.58c7.44,7.29,16.21,12.76,25.81,16.73
		c10.64,4.4,21.97,6.26,33.45,6.26c9.98,0,20.01-1.31,29.45-4.63c8.24-2.89,16.07-6.85,23.04-12.13c6.27-4.74,11.84-10.3,16.29-16.8
		c3.04-4.44,5.67-9.16,7.65-14.15h-50.75c-2.33,3.35-5.42,6.06-8.91,8.22c-4.98,3.09-10.73,4.2-16.52,4.2
		c-3.85,0-7.62-0.66-11.26-1.89c-3.66-1.24-7.1-3.02-10.2-5.33c-3.2-2.38-6.02-5.25-8.4-8.45c-2.52-3.38-4.43-7.11-5.78-11.11
		l-1.65-4.89h118.59c0.18-0.97,0.34-1.93,0.5-2.9c0.42-2.45,0.45-5.23,0.45-7.71c0-10.39-1.88-20.5-5.9-30.09
		C516.36,190.41,510.77,182.14,503.55,175.03z M413.85,208.06c2.74-5.54,6.58-9.99,11.62-13.32c4.98-3.29,11.18-4.94,18.46-4.94
		c6.93,0,12.75,1.62,17.36,4.94c4.6,3.31,8.18,7.79,10.72,13.32H413.85z"/>
	<path class="st0" d="M820.43,171.52c-5.38-6.44-12.19-11.06-19.95-14.2c-9.43-3.82-20.03-5.07-30.14-5.07
		c-6.75,0-13.35,1.1-19.7,3.37c-6.15,2.2-12.1,4.92-17.73,8.23l-5.63,3.32l0.31-63.42h-45.74v199.48h46.06v-76.23
		c0-4.87,0.64-9.69,2.06-14.35c1.32-4.33,3.36-8.38,6.19-11.91c2.76-3.45,6.18-6.16,10.15-8.1c4.15-2.03,8.65-2.92,13.25-2.92
		c3.9,0,7.8,0.39,11.56,1.43c3.78,1.04,7.1,3.02,9.85,5.82c3.06,3.13,5.01,7.16,6.24,11.32c1.62,5.47,2.05,11.6,2.05,17.27v77.67
		h46.36v-78.77c0-10.19-1-20.56-3.71-30.4C829.64,185.81,825.93,178.12,820.43,171.52z"/>
	<path class="st0" d="M989.53,168.81l-5.83-4.05c-5.4-3.75-11.49-6.6-17.66-8.84c-7.27-2.65-15.06-3.67-22.78-3.67
		c-11.28,0-22.6,1.72-33.01,6.18c-9.24,3.96-17.57,9.42-24.52,16.71c-6.76,7.1-11.84,15.4-15.27,24.59
		c-3.62,9.68-5.3,19.8-5.3,30.13c0,10.36,1.7,20.47,5.39,30.16c3.5,9.18,8.56,17.49,15.33,24.61c6.92,7.26,15.19,12.69,24.41,16.61
		c12.81,5.44,29.88,7.49,44.23,5.31c21.43-3.69,35.01-19.37,35.01-19.37v3.38v12.69h39.78c0-50,0-100.97,0-150.98h-39.78V168.81z
		 M979.33,245.12c-1.71,4.5-4.06,8.35-7.08,11.52c-3.02,3.17-6.53,5.6-10.53,7.29c-4.04,1.7-8.33,2.54-13.02,2.54
		c-4.69,0-9.03-0.85-13.07-2.54c-4.04-1.7-7.61-4.17-10.68-7.38c-3.07-3.22-5.49-7.04-7.23-11.58c-1.75-4.54-2.65-9.58-2.65-15.21
		c0-5.54,0.82-10.59,2.54-15.12c1.72-4.5,4.05-8.32,7.03-11.42c3.01-3.13,6.49-5.54,10.53-7.24c4.04-1.7,8.43-2.54,13.22-2.54
		c4.69,0,9.03,0.85,13.07,2.54c4.04,1.69,7.61,4.12,10.63,7.29c3.02,3.17,5.38,6.99,7.13,11.47c1.74,4.44,2.64,9.48,2.64,15.01
		C981.88,235.5,981.06,240.6,979.33,245.12z"/>
	<path class="st0" d="M309.15,90.87c-13.55,0-24.54,10.99-24.54,24.54c0,13.55,10.99,24.54,24.54,24.54
		c13.55,0,24.54-10.99,24.54-24.54C333.69,101.86,322.7,90.87,309.15,90.87z"/>
</g>
</svg>
