<svg id="Layer_1" data-name="Layer 1" xmlns="http://www.w3.org/2000/svg" viewBox="0 0 180 58.18"><defs><style>.cls-1{fill:#f27321;}.cls-1,.cls-2{fill-rule:evenodd;}.cls-2{fill:#00a551;}</style></defs><title>logoViethasSVG</title><path class="cls-1" d="M38.09,41.45l-11-18.9A3.78,3.78,0,0,0,24,20.75H21.21L35.67,45.58Z" transform="translate(-10 -15.91)"/><path class="cls-1" d="M31.11,25.58l8.11,13.93,2.21-3.76-5-8.56a3.87,3.87,0,0,0-2.94-1.61H31.11Z" transform="translate(-10 -15.91)"/><path class="cls-2" d="M35.66,49.44,52.15,21.3A10.57,10.57,0,0,1,61,15.91H71.6L61.89,32.57a5.3,5.3,0,0,0-10.55.74V50.65l-5.27,9a4.27,4.27,0,0,1-3.35,1.94h-3.9a4.36,4.36,0,0,1-3.33-1.94L10,15.91h4.13a3.76,3.76,0,0,1,3.06,1.81Z" transform="translate(-10 -15.91)"/><path class="cls-2" d="M92.31,71v3h-.75V66.66h2.55a2.56,2.56,0,0,1,1.8.6,2.05,2.05,0,0,1,.64,1.57,2.08,2.08,0,0,1-.64,1.59,2.59,2.59,0,0,1-1.8.59Zm6.39,3H98V68.5h.75V74Zm0-6.85H98v-1h.75v1Zm1.38,4a3,3,0,0,1,.66-2,2.41,2.41,0,0,1,3.55,0,3,3,0,0,1,.66,2v.16a3,3,0,0,1-.66,2,2.41,2.41,0,0,1-3.55,0,3,3,0,0,1-.66-2v-.16Zm6.9-1.93a2.1,2.1,0,0,1,.59-.56,2,2,0,0,1,1.07-.28A1.74,1.74,0,0,1,110,69a2.68,2.68,0,0,1,.47,1.7V74h-.76V70.67a1.93,1.93,0,0,0-.32-1.24,1.16,1.16,0,0,0-.91-.35,1.5,1.5,0,0,0-1,.29,1.66,1.66,0,0,0-.52.78V74h-.76V68.5h.68l0,.74Zm5.59,2.08v.08a2.29,2.29,0,0,0,.44,1.46,1.44,1.44,0,0,0,1.2.57,2.35,2.35,0,0,0,.87-.16,1.79,1.79,0,0,0,.65-.41l.07-.07.34.54,0,0a2.17,2.17,0,0,1-.76.51,2.93,2.93,0,0,1-1.13.2,2.22,2.22,0,0,1-1.74-.76,2.8,2.8,0,0,1-.66-1.93v-.27a2.88,2.88,0,0,1,.67-1.95,2.13,2.13,0,0,1,1.68-.78,2,2,0,0,1,1.56.65,2.63,2.63,0,0,1,.55,1.73v.54Zm5.43,0v.08a2.29,2.29,0,0,0,.44,1.46,1.44,1.44,0,0,0,1.2.57,2.35,2.35,0,0,0,.87-.16,1.79,1.79,0,0,0,.65-.41l.07-.07.34.54,0,0a2.21,2.21,0,0,1-.77.51,2.85,2.85,0,0,1-1.12.2,2.22,2.22,0,0,1-1.74-.76,2.8,2.8,0,0,1-.66-1.93v-.27a2.88,2.88,0,0,1,.67-1.95,2.13,2.13,0,0,1,1.68-.78,2,2,0,0,1,1.56.65,2.63,2.63,0,0,1,.55,1.73v.54Zm5.72-1.08V74H123V68.5h.67l.07.74a1.75,1.75,0,0,1,.5-.55,1.68,1.68,0,0,1,1-.29l.23,0,.17,0,.07,0-.1.7-.49,0a1.24,1.24,0,0,0-.85.29,1.66,1.66,0,0,0-.49.81Zm5.85.93a3,3,0,0,1,.67-2,2.4,2.4,0,0,1,3.54,0,3,3,0,0,1,.67,2v.16a3,3,0,0,1-.66,2,2.41,2.41,0,0,1-3.55,0,3,3,0,0,1-.67-2v-.16Zm6.59-2h-.88V68.5h.88v-.69a1.89,1.89,0,0,1,.42-1.3,1.56,1.56,0,0,1,1.19-.46l.34,0,.35.07.07,0-.1.65-.09,0-.23-.05h-.28a.87.87,0,0,0-.68.27,1.26,1.26,0,0,0-.23.81v.69h1.2v.65h-1.2V74h-.76V69.15Zm10.5,3a1,1,0,0,0-.4-.84,4.59,4.59,0,0,0-1.46-.66,5,5,0,0,1-1.77-.8,1.63,1.63,0,0,1-.63-1.34,1.78,1.78,0,0,1,.7-1.42,2.77,2.77,0,0,1,1.76-.54,2.58,2.58,0,0,1,1.81.62,2,2,0,0,1,.67,1.58h0l0,.1h-.69v-.09a1.44,1.44,0,0,0-.49-1.11,1.83,1.83,0,0,0-1.27-.44,2,2,0,0,0-1.26.37,1.16,1.16,0,0,0-.44.91,1,1,0,0,0,.4.83,4.61,4.61,0,0,0,1.49.64,5.13,5.13,0,0,1,1.75.83,1.63,1.63,0,0,1,.63,1.34,1.7,1.7,0,0,1-.73,1.42,3,3,0,0,1-1.81.52,3.26,3.26,0,0,1-1.89-.55,1.81,1.81,0,0,1-.8-1.64v0l0-.09h.69v.08a1.31,1.31,0,0,0,.58,1.17,2.51,2.51,0,0,0,1.38.39,2.16,2.16,0,0,0,1.29-.36,1.08,1.08,0,0,0,.48-.91Zm2.86-3a1.93,1.93,0,0,1,.57-.53,2,2,0,0,1,1-.27,1.81,1.81,0,0,1,1.07.31,1.61,1.61,0,0,1,.55.74,2.07,2.07,0,0,1,.63-.72,1.91,1.91,0,0,1,1.12-.33,1.69,1.69,0,0,1,1.38.6,2.91,2.91,0,0,1,.48,1.8V74h-.75v-3.2a2.21,2.21,0,0,0-.33-1.33,1.12,1.12,0,0,0-.91-.38,1.28,1.28,0,0,0-1,.38,1.92,1.92,0,0,0-.44,1V74h-.76v-3.2a2.16,2.16,0,0,0-.33-1.32,1.11,1.11,0,0,0-.9-.39,1.4,1.4,0,0,0-.93.29,1.6,1.6,0,0,0-.49.79V74h-.76V68.5h.69l0,.7Zm11.73,4a2.29,2.29,0,0,1-.65.55,2.45,2.45,0,0,1-1.18.29,1.81,1.81,0,0,1-1.28-.44,1.61,1.61,0,0,1-.45-1.19,1.44,1.44,0,0,1,.66-1.22,2.8,2.8,0,0,1,1.67-.46h1.22v-.57a1.08,1.08,0,0,0-.33-.84,1.43,1.43,0,0,0-1-.3,1.48,1.48,0,0,0-.93.28.81.81,0,0,0-.34.67v.09H158l0-.1h0a1.36,1.36,0,0,1,.54-1.12A2.25,2.25,0,0,1,160,68.4a2.21,2.21,0,0,1,1.46.47,1.69,1.69,0,0,1,.56,1.35v2.61a4.89,4.89,0,0,0,0,.54,3.06,3.06,0,0,0,.1.51l0,.11h-.79v-.07a3.86,3.86,0,0,1-.09-.49c0-.06,0-.12,0-.18Zm3.15-3V74h-.76V68.5h.68l.06.74a1.91,1.91,0,0,1,.51-.55,1.68,1.68,0,0,1,1-.29l.22,0,.18,0,.06,0-.09.7-.49,0a1.26,1.26,0,0,0-.86.29,1.72,1.72,0,0,0-.48.81Zm4.1-1.74h1.17v.65H168.5v3.38a1.1,1.1,0,0,0,.17.69.55.55,0,0,0,.44.19h.2l.23,0,.08,0,.12.58-.06,0a1.12,1.12,0,0,1-.31.1,1.5,1.5,0,0,1-.37,0,1.19,1.19,0,0,1-.93-.38,1.81,1.81,0,0,1-.33-1.18V69.15h-.92V68.5h.92V67.14h.76V68.5Zm6.55,4.82h3.69V74h-4.45V66.66h.76v6.66Zm5.72.67H180V68.5h.75V74Zm0-6.85H180v-1h.75v1Zm2.11,2H182V68.5h.88v-.69a1.89,1.89,0,0,1,.42-1.3,1.56,1.56,0,0,1,1.19-.46l.34,0,.35.07.08,0-.11.65-.09,0-.23-.05h-.28a.87.87,0,0,0-.68.27,1.26,1.26,0,0,0-.23.81v.69h1.2v.65h-1.2V74h-.76V69.15Zm3.42,2.17v.08a2.36,2.36,0,0,0,.44,1.46,1.44,1.44,0,0,0,1.2.57,2.35,2.35,0,0,0,.87-.16,1.79,1.79,0,0,0,.65-.41l.07-.07.34.54,0,0a2.17,2.17,0,0,1-.76.51,2.93,2.93,0,0,1-1.13.2,2.19,2.19,0,0,1-1.73-.76,2.81,2.81,0,0,1-.67-1.93v-.27a2.88,2.88,0,0,1,.67-1.95,2.13,2.13,0,0,1,1.68-.78,2,2,0,0,1,1.56.65,2.63,2.63,0,0,1,.55,1.73v.54Zm-94-1h1.8a1.77,1.77,0,0,0,1.27-.43,1.48,1.48,0,0,0,.41-1.08,1.49,1.49,0,0,0-.41-1.08,1.73,1.73,0,0,0-1.27-.43h-1.8v3Zm8.52,1a2.5,2.5,0,0,0,.45,1.5,1.45,1.45,0,0,0,1.24.6,1.42,1.42,0,0,0,1.22-.6,2.44,2.44,0,0,0,.46-1.5v-.16a2.42,2.42,0,0,0-.46-1.5,1.56,1.56,0,0,0-2.46,0,2.5,2.5,0,0,0-.45,1.5v.16Zm11.79-.68h2.89v0a1.71,1.71,0,0,0-.35-1.11,1.23,1.23,0,0,0-1-.43,1.35,1.35,0,0,0-1,.46,2,2,0,0,0-.49,1.12Zm5.43,0h2.89v0a1.71,1.71,0,0,0-.35-1.11,1.23,1.23,0,0,0-1-.43,1.39,1.39,0,0,0-1.06.46,2,2,0,0,0-.48,1.12Zm12.28.68a2.44,2.44,0,0,0,.45,1.5,1.45,1.45,0,0,0,1.24.6,1.42,1.42,0,0,0,1.22-.6,2.44,2.44,0,0,0,.46-1.5v-.16a2.42,2.42,0,0,0-.46-1.5,1.56,1.56,0,0,0-2.46,0,2.5,2.5,0,0,0-.45,1.5v.16Zm30.91,1V71.4H160a1.89,1.89,0,0,0-1.13.33.9.9,0,0,0-.43.75.85.85,0,0,0,.27.67,1.08,1.08,0,0,0,.76.25,2,2,0,0,0,1.13-.31,1.49,1.49,0,0,0,.63-.77Zm25.11-1.67h2.89v0a1.71,1.71,0,0,0-.35-1.11,1.23,1.23,0,0,0-1-.43,1.35,1.35,0,0,0-1,.46A2,2,0,0,0,186.35,70.65Z" transform="translate(-10 -15.91)"/><path class="cls-2" d="M135.94,61.61V49.74a17.67,17.67,0,0,0-.55-4.58,9.16,9.16,0,0,0-1.74-3.4,7.44,7.44,0,0,0-3-2.13,12.12,12.12,0,0,0-4.54-.77,8.83,8.83,0,0,0-3,.51,15.76,15.76,0,0,0-2.67,1.24l-.85.5,0-9.55h-6.89V61.61h6.94V50.12A7.52,7.52,0,0,1,120,48a5.46,5.46,0,0,1,.93-1.79,4.42,4.42,0,0,1,3.53-1.66,6.85,6.85,0,0,1,1.74.21,3.29,3.29,0,0,1,1.48.88,4,4,0,0,1,.94,1.7,9.19,9.19,0,0,1,.31,2.61v11.7Zm40.55-6.4-6.92,0a7.23,7.23,0,0,0,.49,2.15,6.52,6.52,0,0,0,1.63,2.41,8.76,8.76,0,0,0,3,1.79,13.23,13.23,0,0,0,4.59.7,19.16,19.16,0,0,0,4.34-.46,10.7,10.7,0,0,0,3.4-1.41A6.61,6.61,0,0,0,189.21,58a7.15,7.15,0,0,0,.79-3.46,5.85,5.85,0,0,0-.62-2.85,5.2,5.2,0,0,0-1.73-1.82,10.47,10.47,0,0,0-2.73-1.17c-1.17-.32-2.34-.58-3.52-.81-.57-.08-1.14-.17-1.69-.28a10,10,0,0,1-1.2-.29,2.1,2.1,0,0,1-.84-.47,1.23,1.23,0,0,1-.37-.92,1.57,1.57,0,0,1,.76-1.35,3.15,3.15,0,0,1,1.82-.48,2.52,2.52,0,0,1,1.81.62,2.29,2.29,0,0,1,.57.92l7.11,0a7.3,7.3,0,0,0-.58-2.47,6.28,6.28,0,0,0-1.71-2.31,8,8,0,0,0-2.79-1.52,12.34,12.34,0,0,0-3.82-.54c-2.51,0-5.58.33-7.67,1.86A6.21,6.21,0,0,0,170.35,46a7.31,7.31,0,0,0,.3,2.18,5,5,0,0,0,1.89,2.69,6.82,6.82,0,0,0,1.33.78,9.85,9.85,0,0,0,1.38.49c.43.12.86.24,1.29.33h0c.81.21,1.62.39,2.44.56.6.12,1.21.25,1.81.42A4.38,4.38,0,0,1,182,54a1.32,1.32,0,0,1,.61,1.13,1.63,1.63,0,0,1-.83,1.43,4.65,4.65,0,0,1-2.21.42,3.92,3.92,0,0,1-2.15-.54,2.26,2.26,0,0,1-1-1.2ZM95,31.56v7.32H91.56v5.6H95V53a13.8,13.8,0,0,0,.34,3.33,7.79,7.79,0,0,0,.94,2.29,5.46,5.46,0,0,0,1.41,1.5,6.65,6.65,0,0,0,1.85,1,10.72,10.72,0,0,0,2.24.45c.84.08,1.69.12,2.54.12h3.92l0-5.34h-3.2a4.28,4.28,0,0,1-1.18-.14,2.45,2.45,0,0,1-1.07-.56,2.61,2.61,0,0,1-.69-1.11,5,5,0,0,1-.21-1.59V44.48h6.1v-5.6H102V31.56ZM88.42,55.05H80.78a4.49,4.49,0,0,1-3.84,1.87,5.13,5.13,0,0,1-1.69-.29,5.38,5.38,0,0,1-1.54-.8,6.07,6.07,0,0,1-1.26-1.27,5.91,5.91,0,0,1-.87-1.67l-.25-.74H89.19c0-.15,0-.29.08-.44a7.45,7.45,0,0,0,.06-1.16A11.54,11.54,0,0,0,88.44,46a11.28,11.28,0,0,0-2.52-3.73A11.74,11.74,0,0,0,82,39.78a13.43,13.43,0,0,0-5.09-.93,13.28,13.28,0,0,0-5.06.93A12.09,12.09,0,0,0,68,42.31,11.12,11.12,0,0,0,65.47,46a12.07,12.07,0,0,0,0,9A11.28,11.28,0,0,0,68,58.77a12.07,12.07,0,0,0,3.89,2.52,13,13,0,0,0,5,.94,13.33,13.33,0,0,0,4.43-.69,12.68,12.68,0,0,0,3.47-1.83,10.74,10.74,0,0,0,2.46-2.53,11,11,0,0,0,1.15-2.13ZM76.94,44.52a4.38,4.38,0,0,1,2.62.74,5.05,5.05,0,0,1,1.62,2H72.41a5.1,5.1,0,0,1,1.75-2,5,5,0,0,1,2.78-.74Zm-23.8-5.67V61.61h7V38.85Zm106,22.76h6V38.86h-6v2.5l-.88-.61a11.65,11.65,0,0,0-2.66-1.34,10.27,10.27,0,0,0-3.43-.55,12.66,12.66,0,0,0-5,.93,11.12,11.12,0,0,0-3.69,2.52,10.86,10.86,0,0,0-2.3,3.7,13,13,0,0,0-.8,4.54,12.75,12.75,0,0,0,.81,4.54,11,11,0,0,0,2.31,3.71,10.88,10.88,0,0,0,3.68,2.5,13,13,0,0,0,6.66.8,9.83,9.83,0,0,0,5.28-2.92v2.43ZM147.91,50.54a6.34,6.34,0,0,1,.38-2.28,5.21,5.21,0,0,1,1.06-1.72,4.7,4.7,0,0,1,1.59-1.09,5,5,0,0,1,2-.38,4.94,4.94,0,0,1,2,.38,4.54,4.54,0,0,1,1.6,1.1,5.14,5.14,0,0,1,1.08,1.73,6.15,6.15,0,0,1,.39,2.26,6.43,6.43,0,0,1-.38,2.31,5.1,5.1,0,0,1-1.07,1.74,4.66,4.66,0,0,1-1.58,1.09,5.15,5.15,0,0,1-3.93,0,4.56,4.56,0,0,1-1.61-1.11,5.15,5.15,0,0,1-1.09-1.74A6.4,6.4,0,0,1,147.91,50.54Z" transform="translate(-10 -15.91)"/><path class="cls-1" d="M56.64,29.62a3.7,3.7,0,1,0,3.7,3.69A3.69,3.69,0,0,0,56.64,29.62Z" transform="translate(-10 -15.91)"/></svg>