<svg id="svg" version="1.1" xmlns="http://www.w3.org/2000/svg" xmlns:xlink="http://www.w3.org/1999/xlink" width="400" height="405.6737588652482" viewBox="0, 0, 400,405.6737588652482"><g id="svgg"><path id="path0" d="M232.400 12.833 C 231.630 13.026,229.406 13.290,227.458 13.420 C 225.510 13.550,222.630 13.924,221.058 14.252 C 219.486 14.580,217.324 15.010,216.254 15.208 C 215.183 15.405,213.473 15.823,212.454 16.137 C 209.720 16.978,195.918 20.062,191.434 20.834 C 190.352 21.020,189.281 21.359,189.054 21.586 C 188.826 21.814,188.249 22.000,187.771 22.000 C 187.293 22.000,184.979 22.630,182.628 23.400 C 180.277 24.170,178.015 24.800,177.601 24.800 C 177.186 24.800,176.751 24.955,176.634 25.145 C 176.517 25.335,175.561 25.721,174.510 26.002 C 173.460 26.284,171.790 26.827,170.800 27.209 C 169.810 27.591,167.740 28.388,166.200 28.980 C 164.660 29.572,162.680 30.377,161.800 30.770 C 157.304 32.775,156.447 33.169,154.600 34.079 C 151.398 35.658,147.089 38.030,145.938 38.846 C 145.354 39.261,144.686 39.600,144.452 39.600 C 144.219 39.600,143.437 40.117,142.714 40.748 C 141.991 41.380,140.246 42.641,138.836 43.550 C 134.094 46.606,126.083 53.692,123.271 57.315 C 122.682 58.074,121.192 59.935,119.961 61.450 C 117.898 63.988,117.185 65.060,115.638 67.950 C 115.329 68.528,114.962 69.090,114.823 69.200 C 113.800 70.006,110.215 79.806,109.701 83.200 C 109.064 87.402,108.509 116.345,108.467 147.538 C 108.438 168.472,108.698 167.200,104.453 167.200 C 100.598 167.200,100.194 167.710,100.219 172.541 C 100.258 179.944,101.309 193.827,102.034 196.519 C 102.259 197.354,102.512 198.974,102.596 200.119 C 103.109 207.103,106.271 215.036,110.429 219.772 C 111.251 220.708,111.745 221.818,111.988 223.271 C 112.184 224.442,112.635 226.210,112.990 227.200 C 113.871 229.657,115.600 238.334,115.600 240.299 C 115.600 241.681,116.865 246.023,118.961 251.835 C 121.431 258.682,126.379 266.367,132.118 272.272 L 134.521 274.744 133.649 281.472 C 133.169 285.172,132.608 290.900,132.402 294.200 C 132.196 297.500,131.762 302.180,131.438 304.600 C 131.114 307.020,130.731 310.292,130.587 311.872 C 130.278 315.252,129.834 315.786,127.000 316.181 C 121.635 316.928,120.272 317.781,118.597 321.443 C 116.979 324.982,115.645 330.299,115.617 333.322 C 115.601 335.162,115.119 336.587,113.024 341.000 C 111.029 345.201,110.347 346.825,109.247 349.999 L 108.112 353.276 103.756 355.078 C 101.360 356.069,98.680 357.087,97.800 357.340 C 96.920 357.593,95.755 358.115,95.211 358.500 C 94.667 358.885,93.946 359.200,93.608 359.200 C 93.270 359.200,92.148 359.650,91.115 360.200 C 90.082 360.750,88.971 361.200,88.646 361.200 C 88.322 361.200,86.889 361.740,85.463 362.400 C 84.037 363.060,82.732 363.600,82.562 363.600 C 82.258 363.600,80.543 364.365,76.621 366.249 C 75.533 366.772,74.406 367.200,74.116 367.200 C 73.826 367.200,73.277 367.370,72.895 367.577 C 71.527 368.318,66.941 370.311,63.600 371.615 C 61.730 372.345,58.760 373.608,57.000 374.422 C 55.240 375.236,52.360 376.501,50.600 377.233 C 48.840 377.964,47.130 378.782,46.800 379.050 C 46.470 379.318,45.660 379.664,45.000 379.818 C 44.340 379.972,42.180 380.871,40.200 381.815 C 38.220 382.760,34.890 384.287,32.800 385.208 C 28.114 387.276,26.150 388.178,20.800 390.723 C 18.490 391.823,15.160 393.371,13.400 394.165 C 11.640 394.958,9.930 395.778,9.600 395.986 C 8.504 396.679,0.703 400.400,0.349 400.400 C 0.157 400.400,0.000 401.570,0.000 403.000 L 0.000 405.600 200.000 405.600 C 397.675 405.600,400.000 405.591,400.000 404.824 C 400.000 404.040,399.047 403.524,387.600 398.105 C 382.373 395.630,381.111 395.055,377.200 393.365 C 375.330 392.557,373.516 391.649,373.169 391.348 C 372.821 391.047,372.318 390.800,372.050 390.800 C 371.781 390.800,369.654 389.900,367.322 388.800 C 364.990 387.700,362.932 386.800,362.749 386.800 C 362.565 386.800,360.927 386.104,359.108 385.253 C 355.485 383.559,350.915 381.563,347.800 380.314 C 346.700 379.873,344.900 379.087,343.800 378.568 C 342.700 378.049,340.540 377.156,339.000 376.584 C 334.181 374.794,331.828 373.840,331.000 373.340 C 330.560 373.074,328.760 372.303,327.000 371.627 C 325.240 370.951,323.080 370.043,322.200 369.610 C 321.320 369.177,318.827 368.178,316.660 367.390 C 314.493 366.602,312.423 365.788,312.060 365.582 C 311.474 365.249,307.463 363.643,298.600 360.192 C 297.060 359.593,295.080 358.795,294.200 358.419 C 293.320 358.044,291.070 357.223,289.200 356.594 C 283.256 354.597,281.096 353.281,280.539 351.319 C 280.033 349.536,279.334 347.831,275.570 339.200 C 273.377 334.170,273.186 333.485,272.781 329.200 C 272.296 324.055,271.909 322.888,269.481 319.237 C 268.236 317.366,265.659 316.000,263.374 316.000 C 261.478 316.000,261.536 316.765,261.683 293.779 C 261.821 272.118,261.824 272.084,263.798 270.000 C 264.957 268.777,268.223 263.932,269.031 262.238 C 269.356 261.557,270.232 259.920,270.978 258.600 C 271.724 257.280,272.355 255.930,272.380 255.600 C 272.405 255.270,272.868 254.100,273.409 253.000 C 273.950 251.900,274.400 250.730,274.410 250.400 C 274.419 250.070,274.775 249.080,275.200 248.200 C 275.625 247.320,275.983 246.330,275.995 246.000 C 276.007 245.670,276.462 244.140,277.007 242.600 C 277.551 241.060,278.005 239.350,278.016 238.800 C 278.026 238.250,278.310 237.080,278.646 236.200 C 278.983 235.320,279.521 233.430,279.843 232.000 C 280.165 230.570,280.602 228.725,280.814 227.900 C 281.297 226.022,281.959 223.089,281.983 222.726 C 281.992 222.575,282.991 221.315,284.203 219.926 C 285.652 218.264,286.759 216.477,287.437 214.703 C 288.004 213.219,288.633 211.903,288.834 211.779 C 289.035 211.655,289.200 211.068,289.200 210.476 C 289.200 209.884,289.587 208.410,290.060 207.200 C 290.596 205.829,291.036 203.493,291.227 201.000 C 291.395 198.800,291.741 195.560,291.995 193.800 C 292.405 190.958,292.790 185.890,293.440 174.800 C 293.729 169.859,293.025 168.800,289.449 168.800 C 287.480 168.800,286.829 168.653,286.643 168.167 C 286.509 167.819,286.391 152.744,286.381 134.667 C 286.357 94.666,286.074 85.298,284.780 81.600 C 283.736 78.620,280.941 72.678,279.887 71.200 C 274.308 63.375,270.813 59.363,263.986 52.945 C 260.317 49.496,248.267 40.005,244.729 37.778 C 235.630 32.050,235.571 31.989,235.375 28.108 L 235.221 25.055 238.310 22.108 C 240.010 20.487,242.030 18.740,242.800 18.226 C 246.281 15.901,247.176 13.918,245.196 12.916 C 244.042 12.332,234.641 12.271,232.400 12.833 " stroke="none" fill="#fbfbfb" fill-rule="evenodd"></path><path id="path1" d="M0.000 199.600 C 0.000 309.380,0.087 399.200,0.192 399.200 C 0.436 399.200,5.468 396.871,6.800 396.141 C 7.780 395.605,14.040 392.534,18.400 390.451 C 19.610 389.873,21.050 389.110,21.600 388.756 C 22.150 388.401,23.313 387.880,24.183 387.597 C 25.054 387.314,26.944 386.495,28.383 385.777 C 32.085 383.930,36.635 382.000,37.287 382.000 C 37.591 382.000,38.011 381.832,38.220 381.627 C 38.777 381.080,43.208 378.800,43.714 378.800 C 43.953 378.800,44.969 378.421,45.974 377.957 C 46.978 377.493,49.060 376.531,50.600 375.818 C 52.140 375.105,54.210 374.202,55.200 373.810 C 56.190 373.418,58.080 372.601,59.400 371.994 C 63.559 370.082,64.555 369.652,66.300 369.018 C 70.593 367.458,71.407 367.107,72.431 366.378 C 73.032 365.950,73.917 365.600,74.399 365.600 C 74.880 365.600,75.731 365.240,76.291 364.800 C 76.850 364.360,77.639 364.000,78.043 364.000 C 78.447 364.000,79.728 363.573,80.889 363.050 C 85.255 361.086,87.915 360.000,88.355 360.000 C 88.606 360.000,89.123 359.820,89.505 359.600 C 90.378 359.098,93.638 357.688,96.000 356.791 C 106.599 352.768,106.785 352.644,108.195 348.706 C 108.804 347.005,109.549 345.408,109.851 345.157 C 110.153 344.907,110.400 344.477,110.400 344.203 C 110.400 343.928,111.238 341.835,112.261 339.552 C 114.176 335.279,114.580 333.816,115.169 329.000 C 116.246 320.193,118.946 316.128,124.075 315.594 C 129.701 315.008,129.720 314.948,131.195 292.800 C 131.423 289.390,131.784 285.430,131.999 284.000 C 132.214 282.570,132.501 279.960,132.637 278.200 L 132.884 275.000 130.112 272.200 C 128.588 270.660,126.910 268.680,126.383 267.800 C 125.856 266.920,125.287 266.020,125.118 265.800 C 120.996 260.438,117.989 254.122,115.785 246.200 C 115.418 244.880,114.971 243.350,114.791 242.800 C 114.610 242.250,114.268 240.180,114.030 238.200 C 113.792 236.220,113.227 233.160,112.775 231.400 C 112.323 229.640,111.772 227.390,111.551 226.400 C 110.661 222.413,110.052 221.169,107.834 218.800 C 104.641 215.391,101.601 205.116,100.910 195.400 C 100.801 193.860,100.561 192.413,100.377 192.185 C 100.194 191.957,99.934 189.167,99.800 185.985 C 99.667 182.803,99.278 178.693,98.937 176.851 C 97.462 168.880,99.253 165.610,105.100 165.602 C 106.449 165.600,106.802 165.455,106.808 164.900 C 106.812 164.515,106.888 156.010,106.977 146.000 C 107.398 98.543,108.072 81.467,109.650 78.288 C 110.062 77.456,110.400 76.528,110.400 76.225 C 110.400 75.288,114.624 66.156,115.231 65.781 C 115.440 65.652,115.950 64.883,116.364 64.073 C 116.779 63.263,117.631 62.054,118.259 61.387 C 118.886 60.720,120.085 59.282,120.922 58.193 C 124.583 53.429,133.124 45.573,138.000 42.485 C 139.210 41.719,140.563 40.764,141.007 40.364 C 141.450 39.964,142.663 39.174,143.702 38.610 C 144.741 38.046,146.408 37.140,147.405 36.598 C 148.403 36.056,150.208 34.980,151.417 34.206 C 152.626 33.433,153.837 32.794,154.108 32.787 C 154.378 32.781,155.500 32.332,156.600 31.791 C 157.700 31.250,158.739 30.806,158.909 30.804 C 159.078 30.802,159.888 30.371,160.709 29.846 C 161.529 29.321,163.460 28.483,165.000 27.982 C 166.540 27.482,168.160 26.918,168.600 26.730 C 170.825 25.779,176.544 23.839,179.200 23.136 C 180.850 22.698,182.371 22.174,182.580 21.970 C 182.789 21.767,183.457 21.600,184.065 21.600 C 184.673 21.600,186.122 21.252,187.285 20.827 C 188.448 20.402,190.660 19.768,192.200 19.418 C 193.740 19.069,195.573 18.599,196.274 18.375 C 196.975 18.150,198.865 17.814,200.474 17.626 C 202.083 17.439,204.210 17.009,205.200 16.671 C 206.190 16.332,207.720 15.934,208.600 15.786 C 209.480 15.638,211.010 15.251,212.000 14.925 C 212.990 14.600,214.790 14.161,216.000 13.951 C 217.210 13.741,219.730 13.289,221.600 12.946 C 223.470 12.603,227.070 12.163,229.600 11.969 C 232.130 11.775,234.993 11.478,235.961 11.308 C 246.198 9.517,251.303 14.070,244.254 18.704 C 242.883 19.606,241.140 21.083,240.381 21.988 C 239.621 22.892,238.415 23.999,237.700 24.449 C 236.440 25.240,236.400 25.350,236.400 27.993 L 236.400 30.721 242.700 34.979 C 259.084 46.052,274.494 59.947,278.800 67.530 C 279.130 68.111,279.600 68.770,279.844 68.993 C 281.199 70.233,284.800 76.915,284.800 78.189 C 284.800 78.540,285.057 79.227,285.370 79.714 C 287.192 82.545,287.271 84.296,287.485 126.800 C 287.634 156.251,287.810 167.079,288.144 167.294 C 288.395 167.456,289.320 167.593,290.200 167.599 C 294.675 167.632,295.486 169.321,294.615 176.796 C 294.277 179.700,294.000 183.254,294.000 184.693 C 294.000 188.317,293.236 196.061,292.562 199.279 C 292.253 200.752,291.994 202.732,291.987 203.679 C 291.980 204.626,291.626 206.390,291.200 207.600 C 290.774 208.810,290.420 210.117,290.413 210.504 C 290.406 210.892,290.055 211.972,289.633 212.904 C 289.212 213.837,288.519 215.410,288.094 216.400 C 287.669 217.390,286.709 218.964,285.961 219.897 C 283.154 223.397,282.800 223.948,282.800 224.817 C 282.800 225.920,281.982 228.867,281.533 229.380 C 281.350 229.589,281.200 230.281,281.200 230.918 C 281.200 232.272,280.073 236.428,279.556 236.980 C 279.360 237.189,279.200 237.969,279.200 238.713 C 279.200 240.312,277.333 246.175,275.961 248.883 C 275.771 249.258,275.493 250.338,275.345 251.283 C 275.196 252.227,274.852 253.360,274.579 253.800 C 274.306 254.240,273.954 255.050,273.795 255.600 C 273.637 256.150,273.078 257.173,272.554 257.873 C 272.029 258.574,271.600 259.446,271.600 259.812 C 271.600 260.177,271.244 260.976,270.810 261.586 C 270.375 262.196,269.852 263.124,269.646 263.648 C 269.441 264.171,268.536 265.578,267.636 266.772 C 266.736 267.967,266.000 269.127,266.000 269.350 C 266.000 269.574,265.540 270.237,264.977 270.824 C 263.297 272.578,262.750 275.948,262.742 284.600 C 262.739 288.780,262.652 297.285,262.550 303.500 L 262.364 314.800 263.931 314.800 C 267.195 314.800,269.501 316.346,271.390 319.800 C 271.992 320.900,272.674 322.033,272.906 322.318 C 273.364 322.881,274.349 329.551,274.381 332.305 C 274.391 333.243,274.549 334.323,274.730 334.705 C 274.912 335.087,275.902 337.045,276.930 339.056 C 277.959 341.067,278.800 342.923,278.800 343.182 C 278.800 343.440,279.268 344.675,279.841 345.926 C 280.413 347.177,280.973 348.763,281.085 349.452 C 281.429 351.565,285.524 354.738,288.000 354.810 C 288.330 354.819,289.320 355.175,290.200 355.600 C 291.080 356.025,292.044 356.379,292.342 356.386 C 292.640 356.394,293.780 356.850,294.875 357.400 C 295.970 357.950,297.083 358.400,297.348 358.400 C 297.614 358.400,298.537 358.760,299.400 359.200 C 300.263 359.640,301.246 359.999,301.585 359.997 C 301.923 359.995,303.730 360.647,305.600 361.446 C 307.470 362.245,309.360 363.043,309.800 363.221 C 311.168 363.773,315.493 365.555,317.900 366.559 C 319.165 367.086,320.650 367.650,321.200 367.813 C 321.750 367.975,322.555 368.354,322.989 368.654 C 323.423 368.954,324.050 369.200,324.383 369.200 C 324.949 369.200,326.506 369.872,331.406 372.233 C 332.510 372.765,333.590 373.206,333.806 373.214 C 334.023 373.221,334.920 373.575,335.800 374.000 C 336.680 374.425,337.765 374.779,338.211 374.786 C 338.657 374.794,339.418 375.078,339.903 375.417 C 340.387 375.756,342.362 376.657,344.292 377.418 C 347.403 378.646,349.738 379.700,353.262 381.467 C 353.846 381.760,354.536 382.000,354.796 382.000 C 355.056 382.000,356.378 382.520,357.734 383.156 C 362.619 385.447,364.754 386.400,365.004 386.400 C 365.443 386.400,374.190 390.521,374.400 390.826 C 374.510 390.986,375.320 391.311,376.200 391.549 C 377.080 391.786,378.160 392.229,378.600 392.533 C 379.040 392.837,380.120 393.318,381.000 393.601 C 381.880 393.885,383.029 394.450,383.554 394.858 C 384.079 395.266,384.688 395.600,384.909 395.600 C 385.129 395.600,386.770 396.302,388.555 397.160 C 394.923 400.220,399.600 402.400,399.798 402.400 C 399.909 402.400,400.000 311.860,400.000 201.200 L 400.000 0.000 200.000 0.000 L 0.000 0.000 0.000 199.600 " stroke="none" fill="#c3ccdb" fill-rule="evenodd"></path><path id="path2" d="M238.100 11.894 C 239.145 11.976,240.855 11.976,241.900 11.894 C 242.945 11.812,242.090 11.744,240.000 11.744 C 237.910 11.744,237.055 11.812,238.100 11.894 M227.705 12.687 C 228.314 12.779,229.214 12.777,229.705 12.682 C 230.197 12.587,229.700 12.511,228.600 12.514 C 227.500 12.517,227.097 12.595,227.705 12.687 M246.854 14.420 C 246.825 14.981,246.665 15.612,246.500 15.823 C 246.335 16.033,246.441 16.002,246.735 15.754 C 247.029 15.506,247.188 14.874,247.089 14.351 C 246.911 13.410,246.908 13.410,246.854 14.420 M214.200 14.819 C 213.642 15.071,213.885 15.107,215.000 14.938 C 215.880 14.804,216.675 14.628,216.767 14.547 C 217.110 14.244,214.968 14.471,214.200 14.819 M211.400 15.600 C 210.896 15.817,210.822 15.944,211.200 15.944 C 211.530 15.944,212.160 15.789,212.600 15.600 C 213.104 15.383,213.178 15.256,212.800 15.256 C 212.470 15.256,211.840 15.411,211.400 15.600 M208.000 16.418 C 207.562 16.715,207.724 16.752,208.600 16.556 C 210.071 16.227,210.390 15.998,209.367 16.006 C 208.945 16.009,208.330 16.195,208.000 16.418 M198.200 18.410 C 197.666 18.647,197.998 18.686,199.200 18.527 C 200.190 18.396,201.075 18.224,201.167 18.144 C 201.514 17.843,198.964 18.072,198.200 18.410 M169.000 27.014 C 168.340 27.317,168.070 27.566,168.400 27.568 C 168.730 27.570,169.450 27.314,170.000 27.000 C 171.265 26.277,170.589 26.287,169.000 27.014 M164.800 28.600 C 164.250 28.914,163.980 29.172,164.200 29.172 C 164.420 29.172,165.050 28.914,165.600 28.600 C 166.150 28.286,166.420 28.028,166.200 28.028 C 165.980 28.028,165.350 28.286,164.800 28.600 M160.600 30.400 C 159.940 30.837,159.580 31.192,159.800 31.188 C 160.201 31.182,162.376 29.623,162.000 29.612 C 161.890 29.608,161.260 29.963,160.600 30.400 M238.000 32.521 C 238.000 32.612,239.035 33.351,240.300 34.163 C 241.565 34.975,242.108 35.221,241.506 34.710 C 240.318 33.700,238.000 32.253,238.000 32.521 M242.800 35.775 C 242.800 35.885,243.835 36.631,245.100 37.432 C 246.365 38.233,247.850 39.268,248.400 39.733 L 249.400 40.577 248.400 39.527 C 247.402 38.479,242.800 35.396,242.800 35.775 M146.011 37.820 C 144.184 39.109,144.813 39.092,146.714 37.800 C 147.523 37.250,148.009 36.809,147.793 36.820 C 147.577 36.830,146.775 37.280,146.011 37.820 M250.764 41.326 C 251.381 42.103,253.600 43.773,253.600 43.461 C 253.600 43.354,252.835 42.671,251.900 41.941 C 250.965 41.212,250.454 40.935,250.764 41.326 M139.354 42.068 C 137.729 43.291,137.263 43.773,138.200 43.260 C 139.240 42.691,141.072 41.220,140.754 41.209 C 140.619 41.204,139.989 41.591,139.354 42.068 M131.800 47.860 C 130.595 48.936,130.505 49.085,131.436 48.463 C 132.541 47.724,133.932 46.376,133.549 46.415 C 133.467 46.423,132.680 47.073,131.800 47.860 M127.578 51.500 L 126.200 53.000 127.700 51.622 C 128.525 50.863,129.200 50.188,129.200 50.122 C 129.200 49.816,128.862 50.104,127.578 51.500 M123.375 56.100 L 122.200 57.400 123.500 56.225 C 124.712 55.130,124.984 54.800,124.675 54.800 C 124.606 54.800,124.021 55.385,123.375 56.100 M270.783 58.900 C 271.764 59.945,272.619 60.800,272.683 60.800 C 272.984 60.800,272.666 60.441,270.900 58.783 L 269.000 57.000 270.783 58.900 M119.961 60.100 C 119.019 61.255,117.984 62.515,117.662 62.900 C 117.340 63.285,117.174 63.600,117.293 63.600 C 117.412 63.600,118.528 62.340,119.772 60.800 C 121.016 59.260,121.953 58.000,121.854 58.000 C 121.755 58.000,120.903 58.945,119.961 60.100 M272.800 61.325 C 272.800 61.394,273.385 61.979,274.100 62.625 L 275.400 63.800 274.225 62.500 C 273.130 61.288,272.800 61.016,272.800 61.325 M277.194 66.603 C 278.787 68.521,278.921 68.645,278.486 67.796 C 278.259 67.353,277.652 66.634,277.137 66.198 C 276.233 65.434,276.235 65.448,277.194 66.603 M114.294 68.503 L 113.588 69.800 114.394 68.856 C 115.080 68.052,115.446 67.194,115.100 67.203 C 115.045 67.204,114.682 67.789,114.294 68.503 M286.559 92.000 C 286.559 95.190,286.621 96.495,286.697 94.900 C 286.773 93.305,286.773 90.695,286.697 89.100 C 286.621 87.505,286.559 88.810,286.559 92.000 M107.378 142.000 C 107.378 148.710,107.432 151.455,107.499 148.100 C 107.566 144.745,107.566 139.255,107.499 135.900 C 107.432 132.545,107.378 135.290,107.378 142.000 M107.071 165.359 C 106.934 165.717,106.162 166.013,105.122 166.106 L 103.400 166.260 105.051 166.330 C 106.570 166.394,108.088 165.555,107.506 164.973 C 107.392 164.859,107.196 165.032,107.071 165.359 M288.900 168.287 C 289.505 168.378,290.495 168.378,291.100 168.287 C 291.705 168.195,291.210 168.120,290.000 168.120 C 288.790 168.120,288.295 168.195,288.900 168.287 M99.293 175.200 C 99.293 175.970,99.375 176.285,99.476 175.900 C 99.576 175.515,99.576 174.885,99.476 174.500 C 99.375 174.115,99.293 174.430,99.293 175.200 M100.093 180.400 C 100.093 181.170,100.175 181.485,100.276 181.100 C 100.376 180.715,100.376 180.085,100.276 179.700 C 100.175 179.315,100.093 179.630,100.093 180.400 M292.493 194.800 C 292.493 195.570,292.575 195.885,292.676 195.500 C 292.776 195.115,292.776 194.485,292.676 194.100 C 292.575 193.715,292.493 194.030,292.493 194.800 M285.577 219.100 C 283.715 221.670,283.277 222.500,284.663 220.834 C 285.952 219.286,287.360 217.200,287.116 217.200 C 287.027 217.200,286.334 218.055,285.577 219.100 M111.641 225.454 C 111.618 225.924,111.880 226.914,112.222 227.654 C 112.837 228.985,112.804 228.697,112.011 225.800 C 111.762 224.894,111.672 224.809,111.641 225.454 M117.228 249.800 C 117.228 250.020,117.486 250.650,117.800 251.200 C 118.114 251.750,118.372 252.020,118.372 251.800 C 118.372 251.580,118.114 250.950,117.800 250.400 C 117.486 249.850,117.228 249.580,117.228 249.800 M270.113 261.324 C 269.635 262.026,269.121 262.960,268.971 263.400 C 268.821 263.840,269.270 263.324,269.970 262.254 C 271.373 260.105,271.499 259.290,270.113 261.324 M267.693 265.500 C 266.520 267.193,266.234 267.914,267.177 266.800 C 268.153 265.646,268.913 264.400,268.641 264.400 C 268.539 264.400,268.112 264.895,267.693 265.500 M264.529 270.100 C 264.084 270.595,263.576 271.270,263.400 271.600 C 263.225 271.930,263.648 271.583,264.341 270.828 C 265.033 270.073,265.600 269.398,265.600 269.328 C 265.600 269.031,265.291 269.253,264.529 270.100 M131.652 273.000 C 132.450 273.880,133.201 274.870,133.320 275.200 C 133.508 275.721,133.541 275.718,133.568 275.181 C 133.586 274.841,132.835 273.851,131.900 272.981 L 130.200 271.400 131.652 273.000 M133.314 277.800 C 133.317 278.900,133.395 279.303,133.487 278.695 C 133.579 278.086,133.577 277.186,133.482 276.695 C 133.387 276.203,133.311 276.700,133.314 277.800 M262.170 284.400 C 262.170 289.130,262.228 291.065,262.298 288.700 C 262.369 286.335,262.369 282.465,262.298 280.100 C 262.228 277.735,262.170 279.670,262.170 284.400 M131.701 293.000 C 131.705 293.880,131.787 294.193,131.883 293.695 C 131.979 293.198,131.975 292.478,131.875 292.095 C 131.775 291.713,131.696 292.120,131.701 293.000 M131.293 298.400 C 131.293 299.170,131.375 299.485,131.476 299.100 C 131.576 298.715,131.576 298.085,131.476 297.700 C 131.375 297.315,131.293 297.630,131.293 298.400 M129.709 312.400 C 129.709 313.390,129.787 313.795,129.882 313.300 C 129.978 312.805,129.978 311.995,129.882 311.500 C 129.787 311.005,129.709 311.410,129.709 312.400 M262.360 315.320 C 262.546 315.506,263.306 315.596,264.049 315.519 C 265.367 315.383,265.358 315.375,263.710 315.180 C 262.781 315.071,262.173 315.133,262.360 315.320 M125.300 315.876 C 125.685 315.976,126.315 315.976,126.700 315.876 C 127.085 315.775,126.770 315.693,126.000 315.693 C 125.230 315.693,124.915 315.775,125.300 315.876 M267.144 316.409 C 268.103 316.844,269.003 317.192,269.144 317.183 C 269.649 317.150,266.587 315.633,266.000 315.626 C 265.670 315.621,266.185 315.974,267.144 316.409 M269.202 317.622 C 269.201 317.745,269.650 318.455,270.200 319.200 C 270.750 319.945,271.194 320.385,271.186 320.178 C 271.170 319.776,269.205 317.245,269.202 317.622 M272.893 326.000 C 272.893 326.770,272.975 327.085,273.076 326.700 C 273.176 326.315,273.176 325.685,273.076 325.300 C 272.975 324.915,272.893 325.230,272.893 326.000 M277.228 341.400 C 277.228 341.620,277.486 342.250,277.800 342.800 C 278.114 343.350,278.372 343.620,278.372 343.400 C 278.372 343.180,278.114 342.550,277.800 342.000 C 277.486 341.450,277.228 341.180,277.228 341.400 M278.426 344.400 C 278.433 344.987,279.950 348.049,279.983 347.544 C 279.992 347.403,279.644 346.503,279.209 345.544 C 278.774 344.585,278.421 344.070,278.426 344.400 M284.400 354.200 C 284.950 354.514,285.580 354.772,285.800 354.772 C 286.020 354.772,285.750 354.514,285.200 354.200 C 284.650 353.886,284.020 353.628,283.800 353.628 C 283.580 353.628,283.850 353.886,284.400 354.200 M89.800 359.826 C 88.700 360.356,88.032 360.792,88.316 360.795 C 88.902 360.801,92.000 359.285,92.000 358.992 C 92.000 358.751,92.156 358.692,89.800 359.826 M303.200 361.400 C 303.750 361.714,304.380 361.972,304.600 361.972 C 304.820 361.972,304.550 361.714,304.000 361.400 C 303.450 361.086,302.820 360.828,302.600 360.828 C 302.380 360.828,302.650 361.086,303.200 361.400 M76.015 365.454 C 75.034 365.974,74.494 366.399,74.815 366.398 C 75.137 366.397,76.120 365.952,77.000 365.410 C 79.014 364.170,78.384 364.198,76.015 365.454 M326.000 370.600 C 326.550 370.914,327.180 371.172,327.400 371.172 C 327.620 371.172,327.350 370.914,326.800 370.600 C 326.250 370.286,325.620 370.028,325.400 370.028 C 325.180 370.028,325.450 370.286,326.000 370.600 M42.200 380.000 C 40.636 381.036,41.192 381.037,42.890 380.001 C 43.611 379.562,44.020 379.204,43.800 379.204 C 43.580 379.205,42.860 379.563,42.200 380.000 M347.233 379.349 C 347.645 379.717,350.000 380.800,350.000 380.621 C 350.000 380.390,347.782 379.200,347.353 379.200 C 347.196 379.200,347.142 379.267,347.233 379.349 M37.400 382.226 C 36.300 382.756,35.632 383.192,35.916 383.195 C 36.502 383.201,39.600 381.685,39.600 381.392 C 39.600 381.151,39.756 381.092,37.400 382.226 M356.800 383.396 C 356.800 383.670,359.249 384.884,359.432 384.701 C 359.519 384.614,358.962 384.244,358.195 383.878 C 357.428 383.512,356.800 383.295,356.800 383.396 M361.200 385.600 C 361.970 386.022,362.780 386.366,363.000 386.366 C 363.220 386.366,362.770 386.022,362.000 385.600 C 361.230 385.178,360.420 384.834,360.200 384.834 C 359.980 384.834,360.430 385.178,361.200 385.600 M388.433 397.749 C 388.845 398.117,391.200 399.200,391.200 399.021 C 391.200 398.790,388.982 397.600,388.553 397.600 C 388.396 397.600,388.342 397.667,388.433 397.749 " stroke="none" fill="#dce4eb" fill-rule="evenodd"></path><path id="path3" d="M239.440 12.374 C 245.266 12.607,246.400 12.937,246.400 14.398 C 246.400 15.058,243.175 18.385,242.509 18.413 C 242.339 18.420,240.630 19.921,238.711 21.749 L 235.221 25.072 235.375 28.116 C 235.571 31.988,235.633 32.052,244.729 37.778 C 248.267 40.005,260.317 49.496,263.986 52.945 C 270.813 59.363,274.308 63.375,279.887 71.200 C 280.941 72.678,283.736 78.620,284.780 81.600 C 286.074 85.298,286.357 94.666,286.381 134.667 C 286.391 152.744,286.509 167.819,286.643 168.167 C 286.829 168.653,287.480 168.800,289.449 168.800 C 292.968 168.800,293.709 169.873,293.456 174.600 C 293.013 182.873,292.372 191.258,291.988 193.800 C 291.755 195.340,291.497 198.310,291.413 200.400 L 291.261 204.200 291.590 201.200 C 291.771 199.550,292.217 196.040,292.581 193.400 C 293.265 188.430,294.120 177.648,294.171 173.329 C 294.213 169.730,293.330 168.666,290.079 168.400 C 288.737 168.290,287.467 168.020,287.257 167.800 C 287.022 167.554,286.793 151.675,286.663 126.600 C 286.433 82.441,286.517 84.098,284.215 78.400 C 280.367 68.877,270.396 57.015,257.800 46.975 C 250.506 41.161,250.400 41.083,242.950 36.055 C 235.901 31.298,236.146 31.568,235.857 28.229 L 235.617 25.458 238.708 22.509 C 240.409 20.887,242.430 19.143,243.200 18.633 C 249.539 14.435,248.033 11.968,239.200 12.080 L 233.800 12.148 239.440 12.374 M229.200 12.659 C 223.548 13.188,219.474 13.922,211.800 15.792 C 206.960 16.972,202.190 18.059,201.200 18.209 C 200.210 18.358,196.880 19.108,193.800 19.874 C 190.720 20.641,187.170 21.505,185.910 21.794 C 183.622 22.320,180.668 23.247,175.400 25.092 C 169.650 27.105,168.536 27.510,165.892 28.542 C 164.403 29.124,162.963 29.604,162.692 29.609 C 162.421 29.614,161.750 29.970,161.200 30.400 C 160.650 30.830,159.854 31.186,159.431 31.191 C 159.009 31.196,158.379 31.442,158.031 31.738 C 157.684 32.034,156.680 32.556,155.800 32.897 C 154.920 33.239,152.400 34.548,150.200 35.805 C 148.000 37.063,145.390 38.546,144.400 39.101 C 135.089 44.324,120.662 57.792,116.657 65.000 C 115.870 66.415,115.266 67.431,114.397 68.800 C 113.749 69.821,111.305 75.474,110.419 78.000 C 108.410 83.731,108.259 87.260,107.734 141.000 C 107.472 167.754,107.630 166.400,104.777 166.400 C 101.077 166.400,99.819 167.505,99.448 171.081 C 99.247 173.024,100.078 179.811,100.578 180.312 C 100.702 180.436,100.668 179.651,100.502 178.568 C 99.206 170.113,100.218 167.200,104.453 167.200 C 108.698 167.200,108.438 168.472,108.467 147.538 C 108.509 116.345,109.064 87.402,109.701 83.200 C 110.215 79.806,113.800 70.006,114.823 69.200 C 114.962 69.090,115.329 68.528,115.638 67.950 C 117.185 65.060,117.898 63.988,119.961 61.450 C 121.192 59.935,122.682 58.074,123.271 57.315 C 126.083 53.692,134.094 46.606,138.836 43.550 C 140.246 42.641,141.991 41.380,142.714 40.748 C 143.437 40.117,144.219 39.600,144.452 39.600 C 144.686 39.600,145.354 39.261,145.938 38.846 C 147.089 38.030,151.398 35.658,154.600 34.079 C 156.447 33.169,157.304 32.775,161.800 30.770 C 162.680 30.377,164.660 29.572,166.200 28.980 C 167.740 28.388,169.810 27.591,170.800 27.209 C 171.790 26.827,173.460 26.284,174.510 26.002 C 175.561 25.721,176.517 25.335,176.634 25.145 C 176.751 24.955,177.186 24.800,177.601 24.800 C 178.015 24.800,180.277 24.170,182.628 23.400 C 184.979 22.630,187.293 22.000,187.771 22.000 C 188.249 22.000,188.826 21.814,189.054 21.586 C 189.281 21.359,190.352 21.020,191.434 20.834 C 195.918 20.062,209.720 16.978,212.454 16.137 C 213.473 15.823,215.183 15.405,216.254 15.208 C 217.324 15.010,219.486 14.580,221.058 14.252 C 222.630 13.924,225.510 13.550,227.458 13.420 C 229.406 13.290,231.630 13.026,232.400 12.833 L 233.800 12.482 232.200 12.505 C 231.320 12.518,229.970 12.587,229.200 12.659 M100.166 183.630 C 100.329 185.679,101.124 193.045,101.957 200.231 C 102.793 207.435,105.541 214.623,109.219 219.224 C 110.317 220.597,111.294 222.099,111.390 222.560 C 112.007 225.530,112.448 227.353,113.190 230.000 C 113.653 231.650,114.381 235.430,114.809 238.400 C 116.303 248.794,120.102 257.958,126.589 266.816 C 128.790 269.822,129.087 270.165,131.500 272.492 C 134.000 274.904,134.025 275.114,132.836 283.811 C 132.415 286.885,131.955 291.470,131.812 294.000 C 131.670 296.530,131.397 299.680,131.206 301.000 C 131.014 302.320,130.644 305.740,130.383 308.600 C 129.884 314.062,129.409 315.429,127.910 315.716 C 127.072 315.877,127.082 315.895,128.038 315.946 C 129.615 316.028,130.294 314.925,130.590 311.800 C 130.736 310.260,131.119 307.020,131.442 304.600 C 131.764 302.180,132.196 297.500,132.402 294.200 C 132.608 290.900,133.169 285.172,133.649 281.472 L 134.521 274.744 132.118 272.272 C 126.379 266.367,121.431 258.682,118.961 251.835 C 116.865 246.023,115.600 241.681,115.600 240.299 C 115.600 238.334,113.871 229.657,112.990 227.200 C 112.635 226.210,112.184 224.442,111.988 223.271 C 111.745 221.818,111.251 220.708,110.429 219.772 C 106.271 215.036,103.109 207.103,102.596 200.119 C 102.512 198.974,102.259 197.354,102.034 196.519 C 101.809 195.683,101.423 192.660,101.177 189.800 C 100.537 182.380,100.487 181.953,100.227 181.694 C 100.099 181.565,100.071 182.437,100.166 183.630 M290.100 206.954 C 289.605 208.382,289.200 210.001,289.200 210.551 C 289.200 211.102,289.035 211.655,288.834 211.779 C 288.633 211.903,288.004 213.219,287.437 214.703 C 286.759 216.477,285.652 218.264,284.203 219.926 C 282.991 221.315,281.992 222.575,281.983 222.726 C 281.961 223.065,281.372 225.664,280.832 227.800 C 280.610 228.680,280.165 230.570,279.843 232.000 C 279.521 233.430,278.983 235.320,278.646 236.200 C 278.310 237.080,278.026 238.250,278.016 238.800 C 278.005 239.350,277.551 241.060,277.007 242.600 C 276.462 244.140,276.007 245.670,275.995 246.000 C 275.983 246.330,275.625 247.320,275.200 248.200 C 274.775 249.080,274.419 250.070,274.410 250.400 C 274.400 250.730,273.950 251.900,273.409 253.000 C 272.868 254.100,272.405 255.270,272.380 255.600 C 272.355 255.930,271.724 257.280,270.978 258.600 C 270.232 259.920,269.356 261.557,269.031 262.238 C 268.223 263.932,264.957 268.777,263.798 270.000 C 261.824 272.084,261.821 272.118,261.683 293.779 C 261.536 316.765,261.478 316.000,263.374 316.000 C 265.659 316.000,268.236 317.366,269.481 319.237 C 271.909 322.888,272.296 324.055,272.781 329.200 C 273.186 333.485,273.377 334.170,275.570 339.200 C 279.334 347.831,280.033 349.536,280.539 351.319 C 281.096 353.281,283.256 354.597,289.200 356.594 C 291.070 357.223,293.320 358.044,294.200 358.419 C 295.080 358.795,297.060 359.593,298.600 360.192 C 307.463 363.643,311.474 365.249,312.060 365.582 C 312.423 365.788,314.493 366.602,316.660 367.390 C 318.827 368.178,321.320 369.177,322.200 369.610 C 323.080 370.043,325.240 370.951,327.000 371.627 C 328.760 372.303,330.560 373.074,331.000 373.340 C 331.828 373.840,334.181 374.794,339.000 376.584 C 340.540 377.156,342.700 378.049,343.800 378.568 C 344.900 379.087,346.700 379.873,347.800 380.314 C 350.915 381.563,355.485 383.559,359.108 385.253 C 360.927 386.104,362.565 386.800,362.749 386.800 C 362.932 386.800,364.990 387.700,367.322 388.800 C 369.654 389.900,371.781 390.800,372.050 390.800 C 372.318 390.800,372.821 391.047,373.169 391.348 C 373.516 391.649,375.330 392.557,377.200 393.365 C 382.001 395.440,385.516 397.079,395.400 401.851 C 397.600 402.913,399.535 403.846,399.700 403.925 C 399.865 404.003,400.000 403.899,400.000 403.693 C 400.000 403.355,395.202 400.962,387.200 397.309 C 385.550 396.556,383.120 395.430,381.800 394.808 C 380.480 394.185,378.590 393.314,377.600 392.872 C 376.610 392.430,374.360 391.401,372.600 390.585 C 365.486 387.287,363.485 386.400,363.158 386.400 C 362.970 386.400,361.327 385.702,359.508 384.848 C 357.688 383.995,355.120 382.836,353.800 382.275 C 352.480 381.713,349.298 380.338,346.729 379.221 C 344.159 378.103,340.228 376.464,337.992 375.577 C 333.411 373.762,324.223 369.921,321.800 368.810 C 320.920 368.406,319.120 367.684,317.800 367.204 C 316.480 366.724,314.140 365.792,312.600 365.133 C 308.792 363.502,308.739 363.481,304.200 361.768 C 302.000 360.937,300.020 360.133,299.800 359.982 C 299.580 359.830,298.435 359.391,297.255 359.006 C 296.075 358.621,294.635 358.058,294.055 357.755 C 293.475 357.453,292.730 357.203,292.400 357.200 C 292.070 357.197,291.327 356.948,290.748 356.646 C 290.169 356.344,288.549 355.712,287.148 355.242 C 282.614 353.720,281.537 352.900,280.789 350.400 C 280.427 349.190,279.741 347.442,279.265 346.516 C 278.789 345.590,278.400 344.634,278.400 344.392 C 278.400 344.150,277.716 342.478,276.879 340.676 C 276.043 338.874,275.063 336.741,274.703 335.936 C 274.342 335.130,273.749 332.160,273.385 329.336 C 272.205 320.182,269.619 316.330,264.200 315.651 L 262.200 315.400 262.082 296.400 C 261.945 274.410,262.169 272.181,264.759 269.837 C 265.222 269.418,265.600 268.916,265.600 268.721 C 265.600 268.526,266.320 267.391,267.200 266.200 C 268.080 265.009,268.800 263.874,268.800 263.677 C 268.800 263.481,269.337 262.528,269.993 261.560 C 270.649 260.592,271.189 259.585,271.193 259.323 C 271.197 259.060,271.605 258.162,272.100 257.326 C 273.031 255.754,273.646 254.290,274.674 251.200 C 275.004 250.210,275.425 249.040,275.610 248.600 C 276.230 247.125,278.104 241.023,278.620 238.800 C 278.901 237.590,279.483 235.340,279.913 233.800 C 280.343 232.260,281.111 229.200,281.620 227.000 C 282.440 223.453,282.764 222.728,284.481 220.600 C 285.547 219.280,286.759 217.480,287.175 216.600 C 288.824 213.112,289.600 211.218,289.600 210.685 C 289.600 210.377,289.965 209.064,290.411 207.768 C 290.857 206.471,291.172 205.174,291.111 204.885 C 291.050 204.595,290.595 205.527,290.100 206.954 M121.732 316.717 C 119.002 318.188,115.532 325.539,115.651 329.600 L 115.692 331.000 116.011 329.600 C 118.030 320.751,119.984 317.588,123.933 316.777 C 127.159 316.115,127.232 316.065,125.000 316.048 C 123.849 316.040,122.462 316.324,121.732 316.717 M115.161 333.400 C 115.030 334.500,114.287 336.750,113.509 338.400 C 112.732 340.050,111.827 342.030,111.499 342.800 C 109.904 346.542,108.831 349.174,108.178 350.940 C 107.747 352.106,107.129 353.007,106.630 353.197 C 106.174 353.370,104.990 353.820,104.000 354.197 C 103.010 354.573,101.153 355.403,99.873 356.040 C 98.593 356.678,97.262 357.200,96.917 357.200 C 96.287 357.200,94.223 358.089,90.746 359.857 C 89.726 360.376,88.673 360.800,88.406 360.800 C 88.139 360.800,87.354 361.061,86.660 361.380 C 85.404 361.959,82.318 363.191,79.530 364.229 C 78.721 364.529,77.461 365.140,76.730 365.586 C 75.998 366.032,75.157 366.398,74.860 366.399 C 74.564 366.399,73.754 366.652,73.060 366.960 C 70.546 368.078,66.123 369.965,62.600 371.424 C 59.228 372.821,50.190 376.739,46.600 378.361 C 45.720 378.758,44.190 379.449,43.200 379.896 C 42.210 380.344,40.282 381.270,38.916 381.955 C 37.550 382.640,36.249 383.200,36.023 383.200 C 35.798 383.200,33.856 384.019,31.707 385.020 C 29.558 386.022,27.260 387.081,26.600 387.375 C 25.940 387.669,23.491 388.830,21.159 389.955 C 18.826 391.080,16.796 392.000,16.647 392.000 C 16.416 392.000,11.605 394.378,2.000 399.240 C 0.790 399.852,0.002 400.364,0.249 400.377 C 0.665 400.398,8.257 396.834,9.600 395.986 C 9.930 395.778,11.640 394.958,13.400 394.165 C 15.160 393.371,18.490 391.823,20.800 390.723 C 26.150 388.178,28.114 387.276,32.800 385.208 C 34.890 384.287,38.220 382.760,40.200 381.815 C 42.180 380.871,44.340 379.972,45.000 379.818 C 45.660 379.664,46.470 379.318,46.800 379.050 C 47.130 378.782,48.840 377.964,50.600 377.233 C 52.360 376.501,55.240 375.236,57.000 374.422 C 58.760 373.608,61.730 372.345,63.600 371.615 C 66.941 370.311,71.527 368.318,72.895 367.577 C 73.277 367.370,73.826 367.200,74.116 367.200 C 74.406 367.200,75.533 366.772,76.621 366.249 C 80.543 364.365,82.258 363.600,82.562 363.600 C 82.732 363.600,84.037 363.060,85.463 362.400 C 86.889 361.740,88.322 361.200,88.646 361.200 C 88.971 361.200,90.082 360.750,91.115 360.200 C 92.148 359.650,93.270 359.200,93.608 359.200 C 93.946 359.200,94.667 358.885,95.211 358.500 C 95.755 358.115,96.920 357.593,97.800 357.340 C 98.680 357.087,101.360 356.069,103.756 355.078 L 108.112 353.276 109.247 349.999 C 110.347 346.825,111.029 345.201,113.024 341.000 C 115.291 336.226,115.641 335.142,115.521 333.276 L 115.400 331.400 115.161 333.400 " stroke="none" fill="#e4e4ee" fill-rule="evenodd"></path><path id="path4" d="M235.552 11.307 C 232.019 11.824,232.795 12.065,237.052 11.771 C 248.045 11.014,250.263 13.698,243.026 19.000 C 242.161 19.634,240.226 21.310,238.726 22.725 L 236.000 25.297 236.000 27.979 C 236.000 31.172,235.771 30.914,242.600 35.395 C 245.240 37.127,247.940 38.967,248.600 39.483 C 264.638 52.027,269.623 56.621,276.127 64.851 C 280.184 69.985,281.005 71.224,282.946 75.141 C 283.966 77.198,284.800 78.582,284.800 78.215 C 284.800 76.919,281.215 70.248,279.844 68.993 C 279.600 68.770,279.130 68.111,278.800 67.530 C 274.494 59.947,259.084 46.052,242.700 34.979 L 236.400 30.721 236.400 27.993 C 236.400 25.350,236.440 25.240,237.700 24.449 C 238.415 23.999,239.621 22.892,240.381 21.988 C 241.140 21.083,242.883 19.606,244.254 18.704 C 251.456 13.969,246.449 9.712,235.552 11.307 M223.400 12.598 C 222.080 12.870,219.650 13.315,218.000 13.588 C 216.350 13.860,213.920 14.404,212.600 14.796 C 211.280 15.188,209.480 15.632,208.600 15.782 C 207.720 15.933,206.190 16.332,205.200 16.671 C 204.210 17.009,202.083 17.439,200.474 17.626 C 198.865 17.814,196.975 18.150,196.274 18.375 C 195.573 18.599,193.740 19.069,192.200 19.418 C 190.660 19.768,188.448 20.402,187.285 20.827 C 186.122 21.252,184.673 21.600,184.065 21.600 C 183.457 21.600,182.789 21.767,182.580 21.970 C 182.371 22.174,180.850 22.699,179.200 23.137 C 175.359 24.157,169.119 26.377,168.600 26.908 C 168.328 27.186,168.457 27.219,169.000 27.010 C 171.481 26.057,183.362 22.287,185.400 21.805 C 186.720 21.493,190.140 20.589,193.000 19.794 C 195.860 19.000,199.370 18.199,200.800 18.015 C 202.230 17.830,204.480 17.374,205.800 17.002 C 207.120 16.629,208.920 16.169,209.800 15.978 C 210.680 15.788,212.030 15.436,212.800 15.195 C 215.549 14.337,224.626 12.820,229.400 12.421 L 233.000 12.121 229.400 12.112 C 227.420 12.107,224.720 12.326,223.400 12.598 M164.035 28.247 C 162.625 28.792,160.977 29.589,160.374 30.019 C 159.770 30.448,159.124 30.802,158.938 30.804 C 158.752 30.806,157.700 31.250,156.600 31.791 C 155.500 32.332,154.378 32.781,154.108 32.787 C 153.837 32.794,152.626 33.433,151.417 34.206 C 150.208 34.980,148.360 36.079,147.310 36.649 C 146.259 37.219,144.593 38.125,143.607 38.661 C 142.620 39.197,141.450 39.964,141.007 40.364 C 140.563 40.764,139.210 41.719,138.000 42.485 C 133.124 45.573,124.583 53.429,120.922 58.193 C 120.085 59.282,118.886 60.720,118.259 61.387 C 117.631 62.054,116.779 63.263,116.364 64.073 C 115.950 64.883,115.440 65.652,115.231 65.781 C 114.624 66.156,110.400 75.288,110.400 76.225 C 110.400 76.528,110.062 77.456,109.650 78.288 C 108.072 81.467,107.398 98.543,106.977 146.000 C 106.888 156.010,106.812 164.515,106.808 164.900 C 106.802 165.455,106.449 165.600,105.100 165.602 C 99.253 165.610,97.462 168.880,98.937 176.851 C 99.278 178.693,99.667 182.803,99.800 185.985 C 99.934 189.167,100.190 191.957,100.369 192.185 C 100.548 192.413,100.816 194.040,100.964 195.800 C 101.391 200.849,101.873 203.814,101.944 201.824 C 101.975 200.957,101.822 199.247,101.606 198.024 C 101.099 195.166,100.378 188.258,99.975 182.400 C 99.802 179.870,99.535 176.156,99.383 174.147 C 98.925 168.090,99.839 166.614,104.340 166.143 C 107.638 165.798,107.396 167.268,107.427 147.400 C 107.479 113.601,108.686 81.399,110.005 78.600 C 110.212 78.160,110.677 76.900,111.038 75.800 C 115.696 61.593,130.984 45.766,149.600 35.878 C 151.250 35.001,152.870 34.062,153.200 33.790 C 153.530 33.517,154.250 33.163,154.800 33.001 C 155.350 32.840,156.430 32.397,157.200 32.016 C 160.882 30.196,163.215 29.143,165.600 28.224 C 167.030 27.673,167.840 27.230,167.400 27.239 C 166.960 27.248,165.446 27.702,164.035 28.247 M284.997 79.800 C 286.734 84.213,286.764 85.014,286.781 126.723 C 286.799 171.032,286.578 168.000,289.792 168.000 C 293.442 168.000,294.208 168.991,294.170 173.665 C 294.110 180.992,292.881 195.536,291.999 199.357 C 291.790 200.261,291.615 201.826,291.610 202.835 C 291.585 207.514,287.220 218.319,284.090 221.448 C 282.882 222.657,281.567 226.590,280.751 231.438 C 280.563 232.559,280.137 234.246,279.804 235.188 C 279.108 237.161,279.060 237.510,279.556 236.980 C 280.073 236.428,281.200 232.272,281.200 230.918 C 281.200 230.281,281.350 229.589,281.533 229.380 C 281.982 228.867,282.800 225.920,282.800 224.817 C 282.800 223.948,283.154 223.397,285.961 219.897 C 286.709 218.964,287.669 217.390,288.094 216.400 C 288.519 215.410,289.212 213.837,289.633 212.904 C 290.055 211.972,290.406 210.892,290.413 210.504 C 290.420 210.117,290.774 208.810,291.200 207.600 C 291.626 206.390,291.980 204.626,291.987 203.679 C 291.994 202.732,292.253 200.752,292.562 199.279 C 293.236 196.061,294.000 188.317,294.000 184.693 C 294.000 183.254,294.277 179.700,294.615 176.796 C 295.479 169.387,294.656 167.622,290.333 167.605 C 287.339 167.594,287.603 170.820,287.576 133.857 C 287.543 90.291,287.143 81.261,285.162 79.441 C 284.796 79.105,284.757 79.190,284.997 79.800 M102.030 204.230 C 101.946 206.556,106.076 216.923,107.834 218.800 C 109.938 221.047,111.025 223.101,111.324 225.400 C 111.467 226.499,111.485 226.478,111.540 225.149 C 111.617 223.279,110.697 221.103,109.082 219.338 C 106.873 216.924,104.367 211.722,102.947 206.600 C 102.459 204.840,102.046 203.773,102.030 204.230 M111.806 227.600 C 113.172 232.822,113.652 235.082,114.013 238.000 C 114.515 242.051,114.774 243.359,115.025 243.108 C 115.645 242.488,113.041 228.936,111.986 227.288 C 111.619 226.716,111.589 226.769,111.806 227.600 M278.864 238.400 C 278.829 238.950,278.249 241.084,277.576 243.143 C 276.903 245.201,276.449 246.982,276.567 247.100 C 276.685 247.218,276.863 247.064,276.963 246.757 C 277.063 246.451,277.618 244.790,278.195 243.067 C 278.785 241.307,279.176 239.378,279.087 238.667 C 278.961 237.667,278.915 237.611,278.864 238.400 M115.237 243.925 C 115.217 244.214,115.484 245.384,115.831 246.525 C 118.413 255.011,121.082 260.550,125.118 265.800 C 125.287 266.020,125.856 266.920,126.383 267.800 C 126.910 268.680,128.588 270.660,130.112 272.200 L 132.884 275.000 132.637 278.200 C 132.501 279.960,132.214 282.570,131.998 284.000 C 131.783 285.430,131.427 289.300,131.207 292.600 C 130.674 300.567,130.417 305.682,130.623 304.200 C 130.924 302.036,131.571 295.072,131.812 291.400 C 131.942 289.420,132.304 286.000,132.617 283.800 C 133.725 276.011,133.624 275.128,131.346 272.702 C 124.007 264.887,119.533 257.060,116.084 246.000 C 115.638 244.570,115.257 243.636,115.237 243.925 M275.637 248.711 C 275.353 249.398,275.214 250.193,275.328 250.480 C 275.446 250.774,275.551 250.644,275.568 250.180 C 275.586 249.729,275.800 249.160,276.045 248.915 C 276.290 248.670,276.414 248.243,276.322 247.966 C 276.230 247.689,275.921 248.024,275.637 248.711 M274.275 252.944 C 273.876 253.855,273.160 255.410,272.684 256.400 C 271.443 258.981,271.430 259.142,272.574 257.800 C 273.136 257.140,273.597 256.432,273.598 256.226 C 273.599 256.021,273.974 255.080,274.431 254.136 C 274.888 253.191,275.203 252.164,275.131 251.853 C 275.059 251.542,274.674 252.033,274.275 252.944 M270.951 260.513 C 269.550 263.283,267.887 266.005,267.035 266.925 C 266.500 267.502,265.955 268.311,265.825 268.722 C 265.694 269.134,265.090 270.027,264.482 270.708 C 262.583 272.835,262.408 274.844,262.299 295.793 L 262.200 314.986 264.190 315.272 C 267.575 315.761,271.200 318.366,271.200 320.311 C 271.200 320.477,271.577 321.315,272.037 322.174 C 272.608 323.238,273.093 325.469,273.558 329.168 C 274.150 333.878,275.148 337.766,275.188 335.524 C 275.195 335.152,275.020 334.736,274.800 334.600 C 274.580 334.464,274.391 333.508,274.381 332.476 C 274.351 329.592,273.379 322.899,272.906 322.318 C 272.674 322.033,271.992 320.900,271.390 319.800 C 269.501 316.346,267.195 314.800,263.931 314.800 L 262.364 314.800 262.550 303.500 C 262.652 297.285,262.739 288.780,262.742 284.600 C 262.750 275.948,263.297 272.578,264.977 270.824 C 265.540 270.237,266.000 269.574,266.000 269.350 C 266.000 269.127,266.736 267.967,267.636 266.772 C 268.536 265.578,269.441 264.171,269.646 263.648 C 269.852 263.124,270.390 262.176,270.841 261.542 C 271.293 260.907,271.604 260.217,271.531 260.007 C 271.459 259.798,271.198 260.025,270.951 260.513 M130.032 306.600 C 129.990 306.820,129.736 308.696,129.467 310.768 L 128.979 314.536 127.590 315.037 C 126.653 315.376,126.464 315.549,127.011 315.570 C 128.473 315.624,129.600 314.486,129.600 312.954 C 129.600 312.184,129.796 310.778,130.035 309.828 C 130.274 308.879,130.388 307.675,130.289 307.151 C 130.190 306.628,130.074 306.380,130.032 306.600 M121.362 315.990 C 120.112 316.495,117.700 319.494,117.042 321.360 C 115.760 324.998,115.203 327.216,115.254 328.475 C 115.299 329.548,115.341 329.610,115.479 328.800 C 116.735 321.417,119.680 316.728,123.534 315.977 L 125.000 315.692 123.600 315.671 C 122.830 315.660,121.823 315.803,121.362 315.990 M114.652 332.100 C 114.519 332.595,114.408 333.395,114.405 333.878 C 114.402 334.361,113.768 336.143,112.995 337.839 C 112.222 339.535,111.667 341.000,111.761 341.094 C 112.146 341.479,114.863 334.983,115.079 333.162 C 115.320 331.132,115.075 330.523,114.652 332.100 M275.212 336.500 C 275.205 336.664,275.811 338.014,276.558 339.500 C 278.197 342.758,280.647 348.921,280.994 350.659 C 281.336 352.369,282.070 352.938,285.801 354.387 C 287.561 355.070,289.591 355.893,290.314 356.215 C 291.036 356.537,291.853 356.800,292.129 356.800 C 292.405 356.800,293.329 357.156,294.183 357.591 C 295.036 358.026,296.379 358.580,297.167 358.821 C 297.955 359.063,299.140 359.498,299.800 359.788 C 300.460 360.078,302.530 360.902,304.400 361.618 C 308.599 363.226,309.484 363.584,313.000 365.098 C 314.540 365.762,316.880 366.708,318.200 367.200 C 321.659 368.492,323.669 369.317,328.367 371.374 C 330.660 372.377,332.616 373.117,332.716 373.018 C 332.815 372.918,332.020 372.443,330.948 371.961 C 329.877 371.479,328.097 370.661,326.994 370.143 C 325.891 369.624,324.716 369.200,324.383 369.200 C 324.050 369.200,323.423 368.954,322.989 368.654 C 322.555 368.354,321.750 367.975,321.200 367.813 C 320.650 367.650,319.165 367.086,317.900 366.559 C 315.493 365.555,311.168 363.773,309.800 363.221 C 309.360 363.043,307.470 362.245,305.600 361.446 C 303.730 360.647,301.923 359.995,301.585 359.997 C 301.246 359.999,300.263 359.640,299.400 359.200 C 298.537 358.760,297.614 358.400,297.348 358.400 C 297.083 358.400,295.970 357.950,294.875 357.400 C 293.780 356.850,292.640 356.394,292.342 356.386 C 292.044 356.379,291.080 356.025,290.200 355.600 C 289.320 355.175,288.330 354.819,288.000 354.810 C 285.524 354.738,281.429 351.565,281.085 349.452 C 280.973 348.763,280.413 347.177,279.841 345.926 C 279.268 344.675,278.797 343.415,278.794 343.126 C 278.787 342.567,275.232 335.991,275.212 336.500 M110.865 342.617 C 110.609 343.178,110.400 343.840,110.400 344.087 C 110.400 344.335,110.141 344.823,109.824 345.174 C 109.507 345.524,108.722 347.248,108.080 349.005 C 107.229 351.331,106.652 352.320,105.956 352.642 C 105.430 352.885,102.890 353.965,100.310 355.042 C 97.731 356.119,95.804 357.062,96.027 357.139 C 96.250 357.215,97.731 356.735,99.317 356.071 C 100.902 355.407,103.190 354.469,104.400 353.986 C 107.248 352.850,107.372 352.735,108.172 350.494 C 108.787 348.773,110.273 345.192,111.322 342.901 C 111.549 342.406,111.644 341.910,111.532 341.799 C 111.421 341.688,111.121 342.056,110.865 342.617 M93.200 357.829 C 91.623 358.706,88.687 360.000,88.275 360.000 C 87.906 360.000,85.032 361.187,80.889 363.050 C 79.728 363.573,78.447 364.000,78.043 364.000 C 77.639 364.000,76.850 364.360,76.291 364.800 C 75.731 365.240,74.880 365.600,74.399 365.600 C 73.917 365.600,73.032 365.950,72.431 366.378 C 71.407 367.107,70.593 367.458,66.300 369.018 C 64.555 369.652,63.559 370.082,59.400 371.994 C 58.080 372.601,56.190 373.418,55.200 373.810 C 54.210 374.202,52.140 375.105,50.600 375.818 C 49.060 376.531,46.978 377.493,45.974 377.957 C 44.969 378.421,43.953 378.800,43.714 378.800 C 43.196 378.800,38.770 381.086,38.200 381.648 C 37.701 382.139,41.513 380.486,42.589 379.744 C 43.023 379.445,43.633 379.200,43.945 379.200 C 44.257 379.200,45.252 378.850,46.156 378.421 C 48.478 377.322,57.855 373.221,62.600 371.232 C 64.800 370.309,67.320 369.204,68.200 368.776 C 69.080 368.348,69.960 367.998,70.156 367.999 C 70.352 368.000,71.252 367.657,72.156 367.238 C 75.754 365.569,78.257 364.476,79.400 364.074 C 80.060 363.842,83.030 362.639,86.000 361.400 C 88.970 360.161,91.940 358.951,92.600 358.711 C 94.174 358.139,95.587 357.187,94.789 357.237 C 94.465 357.257,93.750 357.523,93.200 357.829 M334.800 374.039 C 335.790 374.491,338.220 375.484,340.200 376.246 C 344.121 377.755,344.174 377.777,348.057 379.572 C 349.519 380.247,350.869 380.799,351.057 380.799 C 351.854 380.795,348.507 379.093,345.088 377.762 C 343.060 376.973,340.839 375.984,340.153 375.564 C 339.467 375.144,338.567 374.794,338.153 374.786 C 337.739 374.779,336.680 374.425,335.800 374.000 C 334.920 373.575,333.930 373.225,333.600 373.222 C 333.270 373.220,333.810 373.587,334.800 374.039 M352.400 381.400 C 353.715 382.152,354.364 382.160,353.376 381.413 C 352.949 381.090,352.330 380.826,352.000 380.827 C 351.652 380.828,351.820 381.068,352.400 381.400 M33.800 383.249 C 32.260 383.922,29.823 385.061,28.383 385.778 C 26.944 386.496,25.054 387.314,24.183 387.597 C 23.313 387.880,22.150 388.401,21.600 388.756 C 21.050 389.110,19.610 389.873,18.400 390.451 C 13.907 392.597,7.769 395.611,6.800 396.146 C 6.250 396.450,4.482 397.302,2.872 398.040 C 1.262 398.778,0.115 399.438,0.324 399.508 C 0.533 399.578,2.120 398.931,3.852 398.071 C 5.583 397.211,8.620 395.699,10.600 394.712 C 12.580 393.725,15.460 392.343,17.000 391.639 C 20.542 390.022,24.800 388.028,25.666 387.580 C 26.032 387.391,28.822 386.125,31.866 384.767 C 34.910 383.409,37.475 382.231,37.567 382.149 C 38.143 381.634,36.183 382.207,33.800 383.249 M354.433 382.142 C 354.525 382.220,358.740 384.125,363.800 386.375 C 368.860 388.625,373.315 390.632,373.700 390.836 C 374.085 391.040,374.400 391.061,374.400 390.883 C 374.400 390.557,373.792 390.264,366.800 387.221 C 362.000 385.131,361.199 384.772,357.934 383.246 C 355.704 382.203,353.803 381.604,354.433 382.142 M377.200 392.452 C 378.630 393.138,380.860 394.217,382.156 394.850 C 383.452 395.482,384.676 396.000,384.875 396.000 C 385.075 396.000,388.402 397.538,392.269 399.417 C 396.136 401.296,399.462 402.779,399.660 402.713 C 399.858 402.647,398.531 401.889,396.710 401.029 C 394.890 400.169,391.576 398.596,389.346 397.533 C 387.116 396.470,385.116 395.600,384.900 395.600 C 384.684 395.600,384.079 395.266,383.554 394.858 C 383.029 394.450,381.895 393.886,381.033 393.605 C 380.170 393.324,378.910 392.779,378.233 392.394 C 377.555 392.009,376.460 391.584,375.800 391.449 C 375.093 391.306,375.668 391.717,377.200 392.452 " stroke="none" fill="#d9dbec" fill-rule="evenodd"></path></g></svg>