<svg xmlns="http://www.w3.org/2000/svg" width="18" height="18" viewBox="0 0 18 18">
  <g id="Group_13385" data-name="Group 13385" transform="translate(-243.443 -623.34)">
    <path id="Path_31239" data-name="Path 31239" d="M249.355,632.4a.78.78,0,0,0-.231.554.77.77,0,0,0,.224.545l2.543,2.6a.775.775,0,0,0,1.106,0l2.543-2.6a.777.777,0,1,0-1.106-1.092l-1.213,1.257v-9.55a.777.777,0,1,0-1.555,0v9.55l-1.213-1.257A.777.777,0,0,0,249.355,632.4Z" fill="#373737"/>
    <path id="Path_31240" data-name="Path 31240" d="M259.371,627.089h-4.148a.5.5,0,0,0-.5.5v.5a.5.5,0,0,0,.5.5h4.148a.573.573,0,0,1,.573.573v10.1a.574.574,0,0,1-.573.573H245.517a.574.574,0,0,1-.573-.573v-10.1a.573.573,0,0,1,.573-.573h4.149a.5.5,0,0,0,.5-.5v-.5a.5.5,0,0,0-.5-.5h-4.149a2.073,2.073,0,0,0-2.073,2.073v10.1a2.073,2.073,0,0,0,2.073,2.073h13.854a2.073,2.073,0,0,0,2.073-2.073v-10.1A2.073,2.073,0,0,0,259.371,627.089Z" fill="#373737"/>
  </g>
</svg>
