<svg xmlns="http://www.w3.org/2000/svg" width="18" height="18" viewBox="0 0 18 18">
	<g id="Group_13876" data-name="Group 13876" transform="translate(-350.941 -950.277)">
		<path id="Path_31278" data-name="Path 31278" d="M365.828,950.277H354.054a3.113,3.113,0,0,0-3.113,3.113v11.774a3.113,3.113,0,0,0,3.113,3.113h11.774a3.113,3.113,0,0,0,3.113-3.113V953.39A3.113,3.113,0,0,0,365.828,950.277Zm1.613,14.887a1.613,1.613,0,0,1-1.613,1.613H354.054a1.613,1.613,0,0,1-1.613-1.613V953.39a1.613,1.613,0,0,1,1.613-1.613h11.774a1.613,1.613,0,0,1,1.613,1.613Z" />
		<path id="Path_31279" data-name="Path 31279" d="M364.691,958.527h-9.5a.75.75,0,0,0,0,1.5h9.5a.75.75,0,0,0,0-1.5Z" />
	</g>
</svg>
