<svg xmlns="http://www.w3.org/2000/svg" width="60" height="60" viewBox="0 0 60 60">
  <g id="Group_16639" data-name="Group 16639" transform="translate(-2.999 -21.321)">
    <g id="Group_57694" data-name="Group 57694" transform="translate(-157.354 -351.326)">
      <path id="Path_141607" data-name="Path 141607" d="M176.13,413.837a3.359,3.359,0,0,0,4.876-3.54l-.721-4.207,3.053-2.976a3.359,3.359,0,0,0-1.859-5.731l-4.223-.614-1.888-3.825a3.359,3.359,0,0,0-6.025,0l-1.888,3.827-4.227.614a3.359,3.359,0,0,0-1.858,5.729l3.056,2.978-.721,4.206a3.357,3.357,0,0,0,4.873,3.541l3.777-1.985Zm-3.942-5.287-5.006,2.632a.359.359,0,0,1-.521-.378l.957-5.575a.36.36,0,0,0-.1-.317l-4.05-3.949a.358.358,0,0,1,.2-.611l5.6-.813a.359.359,0,0,0,.27-.2l2.5-5.072a.359.359,0,0,1,.643,0l2.5,5.072a.359.359,0,0,0,.27.2l5.6.813a.358.358,0,0,1,.2.611l-4.05,3.949a.356.356,0,0,0-.1.317l.956,5.575a.358.358,0,0,1-.52.378l-5.007-2.632A.359.359,0,0,0,172.188,408.55Z" />
      <path id="Path_141608" data-name="Path 141608" d="M205.857,397.53h4.992a1.5,1.5,0,0,0,0-3h-4.992a1.5,1.5,0,0,0,0,3Z" />
      <path id="Path_141609" data-name="Path 141609" d="M217.353,384.647h-2.517a1.349,1.349,0,0,0-.927.369l-.477.45a7.281,7.281,0,0,1-10.158,0l-.477-.45a1.349,1.349,0,0,0-.927-.369h-2.517a3,3,0,0,0-3,3v30a3,3,0,0,0,3,3h2.517a1.349,1.349,0,0,0,.927-.369l.477-.45a7.281,7.281,0,0,1,10.159,0l.477.45a1.351,1.351,0,0,0,.927.368h2.516a3,3,0,0,0,3-3v-30A3,3,0,0,0,217.353,384.647Zm0,9.883h-1.489a1.5,1.5,0,0,0,0,3h1.489V416.3a1.344,1.344,0,0,1-2.239,1.01,10.262,10.262,0,0,0-13.522,0,1.363,1.363,0,0,1-.888.341h0a1.351,1.351,0,0,1-1.351-1.351V397.53h1.489a1.5,1.5,0,0,0,0-3h-1.489V389a1.351,1.351,0,0,1,1.351-1.351h0a1.363,1.363,0,0,1,.888.341,10.261,10.261,0,0,0,13.521,0,1.366,1.366,0,0,1,.889-.341h0A1.351,1.351,0,0,1,217.353,389Z" />
      <path id="Path_141610" data-name="Path 141610" d="M211.356,400.935a1.5,1.5,0,0,0-2.052.538l-4.542,7.77a1.5,1.5,0,1,0,2.59,1.513l4.542-7.77A1.5,1.5,0,0,0,211.356,400.935Z" />
      <path id="Path_141611" data-name="Path 141611" d="M206.442,402.986a1.5,1.5,0,1,0-2.052.539A1.5,1.5,0,0,0,206.442,402.986Z" />
      <path id="Path_141612" data-name="Path 141612" d="M212.316,408.7a1.5,1.5,0,1,0,.538,2.051A1.5,1.5,0,0,0,212.316,408.7Z" />
      <path id="Path_141613" data-name="Path 141613" d="M171.734,386.819l1.62,1.621a.71.71,0,0,0,1,0l1.62-1.621,2.525-2.525a1.5,1.5,0,0,0-2.121-2.121l-1.025,1.025,0-5.683a1.866,1.866,0,0,1,1.867-1.868h26.265a1.868,1.868,0,0,1,1.868,1.868v5.509a1.5,1.5,0,0,0,3,0v-5.509a4.868,4.868,0,0,0-4.868-4.868H177.218a4.865,4.865,0,0,0-4.865,4.868l0,5.683-1.025-1.025a1.5,1.5,0,0,0-2.121,2.121Z" />
      <path id="Path_141614" data-name="Path 141614" d="M208.972,422.475l-1.62-1.62a.709.709,0,0,0-1,0l-1.62,1.62L202.2,425a1.5,1.5,0,1,0,2.121,2.121l1.026-1.025,0,1.681a1.868,1.868,0,0,1-1.868,1.87H177.221a1.868,1.868,0,0,1-1.868-1.868V417.271a1.5,1.5,0,0,0-3,0v10.508a4.867,4.867,0,0,0,4.868,4.868h26.264a4.867,4.867,0,0,0,4.868-4.874l0-1.677,1.025,1.025A1.5,1.5,0,1,0,211.5,425Z" />
    </g>
  </g>
</svg>
