<svg id="Layer_1" data-name="Layer 1" xmlns="http://www.w3.org/2000/svg" viewBox="0 0 62 62"><defs><style>.cls-1{}</style></defs><title>02 ICON</title><path class="cls-1" d="M54.28,24H49V8.71C49,4.46,46,1,42.28,1H7.72C4,1,1,4.46,1,8.71V30.29C1,34.53,4,38,7.72,38H13V53.29c0,4.24,3,7.7,6.72,7.71H54.29C58,61,61,57.53,61,53.29V31.71C61,27.46,58,24,54.28,24ZM46,11.5v5H4v-5ZM7.72,4H42.28c2,0,3.61,2,3.7,4.5H4C4.11,6,5.72,4,7.72,4ZM13,31.71V35H7.72C5.67,35,4,32.89,4,30.29V19.5H46V24H19.72C16,24,13,27.46,13,31.71ZM58,53.29c0,2.6-1.67,4.71-3.72,4.71H19.72c-2,0-3.72-2.11-3.72-4.71V31.71c0-2.6,1.67-4.71,3.72-4.71H54.28c2,0,3.72,2.11,3.72,4.71Z"/><path class="cls-1" d="M23.26,42h2.48A4.27,4.27,0,0,0,30,37.73V35.26A4.26,4.26,0,0,0,25.74,31H23.26A4.26,4.26,0,0,0,19,35.26v2.47A4.27,4.27,0,0,0,23.26,42ZM22,35.26A1.27,1.27,0,0,1,23.26,34h2.48A1.27,1.27,0,0,1,27,35.26v2.47A1.27,1.27,0,0,1,25.74,39H23.26A1.27,1.27,0,0,1,22,37.73Z"/><path class="cls-1" d="M34.37,37.25a.14.14,0,0,1,0,.12l-.32,1.83a.14.14,0,0,0,.21.14l1.64-.86a.15.15,0,0,1,.13,0l1.63.86a.14.14,0,0,0,.21-.14l-.32-1.83a.17.17,0,0,1,0-.12L39,36a.14.14,0,0,0-.08-.24l-1.83-.27a.12.12,0,0,1-.11-.07l-.81-1.66a.14.14,0,0,0-.26,0l-.81,1.66a.12.12,0,0,1-.11.07l-1.83.27A.14.14,0,0,0,33,36Z"/><path class="cls-1" d="M45.63,37.25,47,36a.14.14,0,0,0-.08-.24l-1.83-.27a.12.12,0,0,1-.11-.07l-.81-1.66a.14.14,0,0,0-.26,0l-.81,1.66a.12.12,0,0,1-.11.07l-1.83.27A.14.14,0,0,0,41,36l1.33,1.29a.14.14,0,0,1,0,.12l-.32,1.83a.14.14,0,0,0,.21.14l1.64-.86a.15.15,0,0,1,.13,0l1.63.86a.14.14,0,0,0,.21-.14l-.32-1.83A.17.17,0,0,1,45.63,37.25Z"/><path class="cls-1" d="M50.37,37.25a.14.14,0,0,1,0,.12l-.32,1.83a.14.14,0,0,0,.21.14l1.64-.86a.15.15,0,0,1,.13,0l1.63.86a.14.14,0,0,0,.21-.14l-.32-1.83a.17.17,0,0,1,0-.12L55,36a.14.14,0,0,0-.08-.24l-1.83-.27a.12.12,0,0,1-.11-.07l-.81-1.66a.14.14,0,0,0-.26,0l-.81,1.66a.12.12,0,0,1-.11.07l-1.83.27A.14.14,0,0,0,49,36Z"/><path class="cls-1" d="M20.5,48h8a1.5,1.5,0,0,0,0-3h-8a1.5,1.5,0,0,0,0,3Z"/><path class="cls-1" d="M41.5,45h-7a1.5,1.5,0,0,0,0,3h7a1.5,1.5,0,0,0,0-3Z"/><path class="cls-1" d="M53.5,45h-6a1.5,1.5,0,0,0,0,3h6a1.5,1.5,0,0,0,0-3Z"/><path class="cls-1" d="M41.5,50.89h-21a1.5,1.5,0,0,0,0,3h21a1.5,1.5,0,0,0,0-3Z"/></svg>