<svg id="Layer_1" data-name="Layer 1" xmlns="http://www.w3.org/2000/svg" viewBox="0 0 62 62"><defs><style>.cls-1{}</style></defs><title>02 ICON</title><path class="cls-1" d="M43.59,40.84l-1.14-.34a5.75,5.75,0,0,1-1-.4,1.35,1.35,0,0,1-.79-1.27,1.48,1.48,0,0,1,.53-1.26,2,2,0,0,1,3,.62,1.54,1.54,0,0,0,1.5,1.5,1.5,1.5,0,0,0,1.5-1.5A4.5,4.5,0,0,0,44,34.42V33a1.5,1.5,0,0,0-3,0v1.49a4.72,4.72,0,0,0-1.84,1,4.39,4.39,0,0,0-1.43,3.35,3.94,3.94,0,0,0,1.38,3.21,5.42,5.42,0,0,0,1.37.79,12.56,12.56,0,0,0,1.54.54c.45.14.82.26,1.1.37a4.57,4.57,0,0,1,.87.49,1.81,1.81,0,0,1,.73,1.51,2,2,0,0,1-.64,1.52,2.09,2.09,0,0,1-1.53.61A1.91,1.91,0,0,1,40.33,46v-.6a1.5,1.5,0,0,0-3,0v.26a4.93,4.93,0,0,0,1.51,3.66A5,5,0,0,0,41,50.53V52a1.5,1.5,0,0,0,3,0V50.54a5.1,5.1,0,0,0,2.15-1.22,4.78,4.78,0,0,0,1.52-3.58,4.62,4.62,0,0,0-1.19-3.21A6.31,6.31,0,0,0,43.59,40.84Z"/><path class="cls-1" d="M42.5,24V5.13A4.13,4.13,0,0,0,38.37,1H15.83a1.47,1.47,0,0,0-1.05.45L11.33,4.91,8.13,8.1l-.74.75h0l-.48.48L1.4,14.85a1.45,1.45,0,0,0-.4,1v41A4.13,4.13,0,0,0,5.13,61H38.37a4,4,0,0,0,1.34-.23A18.32,18.32,0,0,0,42.5,61a18.5,18.5,0,0,0,0-37ZM14.33,6.24v6.3a1.8,1.8,0,0,1-1.8,1.79H6.24ZM5.13,58A1.14,1.14,0,0,1,4,56.87V17.33H14.33a3,3,0,0,0,3-3V4H36.9a2.61,2.61,0,0,1,2.6,2.6V24.27A18.47,18.47,0,0,0,32.43,58ZM42.5,58A15.5,15.5,0,1,1,58,42.5,15.51,15.51,0,0,1,42.5,58Z"/><path class="cls-1" d="M22.91,10h11a1.5,1.5,0,0,0,0-3h-11a1.5,1.5,0,0,0,0,3Z"/><path class="cls-1" d="M22.91,16h11a1.5,1.5,0,0,0,0-3h-11a1.5,1.5,0,0,0,0,3Z"/><path class="cls-1" d="M8.49,23.29h17a1.5,1.5,0,1,0,0-3h-17a1.5,1.5,0,0,0,0,3Z"/><path class="cls-1" d="M19.49,26.29h-11a1.5,1.5,0,0,0,0,3h11a1.5,1.5,0,1,0,0-3Z"/><path class="cls-1" d="M19.49,32.29h-11a1.5,1.5,0,0,0,0,3h11a1.5,1.5,0,1,0,0-3Z"/><path class="cls-1" d="M19.49,38.29h-11a1.5,1.5,0,0,0,0,3h11a1.5,1.5,0,1,0,0-3Z"/><path class="cls-1" d="M19.49,44.29h-11a1.5,1.5,0,0,0,0,3h11a1.5,1.5,0,1,0,0-3Z"/><path class="cls-1" d="M19.49,50.29h-11a1.5,1.5,0,0,0,0,3h11a1.5,1.5,0,1,0,0-3Z"/></svg>