<svg id="Layer_1" data-name="Layer 1" xmlns="http://www.w3.org/2000/svg" viewBox="0 0 62 62"><defs><style>.cls-1{}</style></defs><title>02 ICON</title><path class="cls-1" d="M21.83,14a1.5,1.5,0,0,0,0,3h3.51a4.4,4.4,0,0,0-.07.73V57.27A3.75,3.75,0,0,0,29,61H57.25A3.74,3.74,0,0,0,61,57.27V17.73A3.74,3.74,0,0,0,57.25,14H51.72a4.49,4.49,0,0,0-4.22-3H38.77a4.41,4.41,0,0,0-2.27.64V5.13A4.13,4.13,0,0,0,32.37,1H15.83a1.47,1.47,0,0,0-1.05.45L11.33,4.91,8.13,8.1l-.74.75h0l-.48.48L1.4,14.85a1.45,1.45,0,0,0-.4,1v29A4.13,4.13,0,0,0,5.13,49H21a1.5,1.5,0,1,0,0-3H5.13A1.14,1.14,0,0,1,4,44.87V17.33H14.33a3,3,0,0,0,3-3V4H30.9a2.61,2.61,0,0,1,2.6,2.6V14Zm-7.5-5.15v3.69a1.8,1.8,0,0,1-1.8,1.79H6.24l8.09-8.09ZM38.77,14H47.5a1.5,1.5,0,0,1,0,3H38.77a1.5,1.5,0,0,1,0-3ZM58,56.26A1.75,1.75,0,0,1,56.26,58H30a1.75,1.75,0,0,1-1.75-1.74V18.74A1.75,1.75,0,0,1,30,17h4.53a4.49,4.49,0,0,0,4.22,3H47.5a4.49,4.49,0,0,0,4.22-3h4.54A1.75,1.75,0,0,1,58,18.74Z"/><path class="cls-1" d="M53.5,51H47.77a1.5,1.5,0,0,0,0,3H53.5a1.5,1.5,0,0,0,0-3Z"/><path class="cls-1" d="M38.9,42H35.64a4.37,4.37,0,0,0-4.37,4.37v3.26A4.37,4.37,0,0,0,35.64,54H38.9a4.37,4.37,0,0,0,4.37-4.37V46.33A4.37,4.37,0,0,0,38.9,42Zm1.37,7.63A1.37,1.37,0,0,1,38.9,51H35.64a1.37,1.37,0,0,1-1.37-1.37V46.33A1.37,1.37,0,0,1,35.64,45H38.9a1.37,1.37,0,0,1,1.37,1.37Z"/><path class="cls-1" d="M53.5,35H47.77a1.5,1.5,0,0,0,0,3H53.5a1.5,1.5,0,0,0,0-3Z"/><path class="cls-1" d="M42.21,24.48l-4.28,4.29a.93.93,0,0,1-1.31,0l-1.29-1.29a1.5,1.5,0,1,0-2.12,2.12l2.71,2.72a1.92,1.92,0,0,0,2.7,0l5.71-5.72a1.49,1.49,0,0,0,0-2.12A1.51,1.51,0,0,0,42.21,24.48Z"/><path class="cls-1" d="M41.77,35H35.64a1.37,1.37,0,0,1-1.37-1.37v-.43a1.5,1.5,0,1,0-3,0v.42A4.37,4.37,0,0,0,35.64,38h6.13a1.5,1.5,0,0,0,0-3Z"/><path class="cls-1" d="M21.83,10H29a1.5,1.5,0,0,0,0-3H21.83a1.5,1.5,0,0,0,0,3Z"/><path class="cls-1" d="M20.92,21.34H8.34a1.51,1.51,0,0,0,0,3H20.92a1.51,1.51,0,0,0,0-3Z"/><path class="cls-1" d="M20.92,27.23H8.34a1.51,1.51,0,0,0,0,3H20.92a1.51,1.51,0,0,0,0-3Z"/><path class="cls-1" d="M20.92,33.11H8.34a1.51,1.51,0,0,0,0,3H20.92a1.51,1.51,0,0,0,0-3Z"/><path class="cls-1" d="M20.92,39H8.34a1.51,1.51,0,0,0,0,3H20.92a1.51,1.51,0,0,0,0-3Z"/></svg>