<svg id="Layer_1" data-name="Layer 1" xmlns="http://www.w3.org/2000/svg" viewBox="0 0 62 62"><defs><style>.cls-1{}</style></defs><title>02 ICON</title><path class="cls-1" d="M20.71,46.47a1.5,1.5,0,0,0-1.5,1.5V52.3a1.5,1.5,0,0,0,3,0V48A1.5,1.5,0,0,0,20.71,46.47Z"/><path class="cls-1" d="M20.71,37.81a1.5,1.5,0,0,0-1.5,1.5v4.33a1.5,1.5,0,0,0,3,0V39.31A1.5,1.5,0,0,0,20.71,37.81Z"/><path class="cls-1" d="M33.93,41.3v-.94A3.8,3.8,0,0,0,33,37.73a3.29,3.29,0,0,0-2.6-1,3.27,3.27,0,0,0-2.59,1.05,3.84,3.84,0,0,0-.92,2.62v.94a3.8,3.8,0,0,0,.93,2.62,3.32,3.32,0,0,0,2.6,1,3.27,3.27,0,0,0,2.59-1A3.84,3.84,0,0,0,33.93,41.3Zm-2.27,0a2.11,2.11,0,0,1-.32,1.22,1,1,0,0,1-.91.49,1.06,1.06,0,0,1-.94-.49,2.16,2.16,0,0,1-.33-1.22v-.94a2.24,2.24,0,0,1,.32-1.22,1.09,1.09,0,0,1,1.85,0,2.16,2.16,0,0,1,.33,1.22Z"/><polygon class="cls-1" points="38.11 38.59 30.64 52.48 32.27 53.37 39.74 39.48 38.11 38.59"/><path class="cls-1" d="M40,46.7a3.3,3.3,0,0,0-2.6,1,3.79,3.79,0,0,0-.92,2.61v.94a3.76,3.76,0,0,0,.92,2.62A3.31,3.31,0,0,0,40,55a3.23,3.23,0,0,0,2.58-1,3.81,3.81,0,0,0,.92-2.62v-.94a3.84,3.84,0,0,0-.92-2.62A3.28,3.28,0,0,0,40,46.7Zm1.25,4.6A2.51,2.51,0,0,1,41,52.56,1,1,0,0,1,40,53a1.09,1.09,0,0,1-.92-.51,2.07,2.07,0,0,1-.37-1.21v-.94a2.16,2.16,0,0,1,.33-1.22,1.08,1.08,0,0,1,.94-.5,1.06,1.06,0,0,1,.93.5,2.24,2.24,0,0,1,.32,1.22Z"/><path class="cls-1" d="M61,35.82V33.41a2.77,2.77,0,0,0-2.76-2.76H55.11L26.27,1.81a2.76,2.76,0,0,0-3.91,0l-1.7,1.7A10,10,0,0,1,6.51,17.66l-1.7,1.7a2.76,2.76,0,0,0,0,3.91l7.38,7.38H3.76A2.77,2.77,0,0,0,1,33.41v2.41a10,10,0,0,1,0,20v2.42A2.77,2.77,0,0,0,3.76,61H58.24A2.77,2.77,0,0,0,61,58.24V55.82a10,10,0,0,1,0-20ZM8.2,22.42A13,13,0,0,0,25.42,5.2l9.65,9.65-.94,1a1.49,1.49,0,0,0,0,2.12,1.51,1.51,0,0,0,2.12,0l.94-1L50.87,30.65H16.43ZM48,45.82A13,13,0,0,0,56.44,58H22.21V56.63a1.5,1.5,0,0,0-3,0V58H5.56a13,13,0,0,0,0-24.35H19.21V35a1.5,1.5,0,0,0,3,0V33.65H56.44A13,13,0,0,0,48,45.82Z"/><path class="cls-1" d="M24.94,25,21.88,28A1.5,1.5,0,1,0,24,30.16l3.06-3.06A1.5,1.5,0,1,0,24.94,25Z"/><path class="cls-1" d="M31.06,18.86,28,21.92A1.5,1.5,0,0,0,30.12,24L33.19,21a1.5,1.5,0,0,0-2.13-2.12Z"/></svg>