<svg id="Layer_1" data-name="Layer 1" xmlns="http://www.w3.org/2000/svg" viewBox="0 0 62 62"><defs><style>.cls-1{}</style></defs><title>02 ICON</title><path class="cls-1" d="M23.5,25h-12a1.5,1.5,0,0,0,0,3h12a1.5,1.5,0,0,0,0-3Z"/><path class="cls-1" d="M18.5,31h-7a1.5,1.5,0,0,0,0,3h7a1.5,1.5,0,0,0,0-3Z"/><path class="cls-1" d="M43.59,40.84l-1.14-.34a5.75,5.75,0,0,1-1-.4,1.35,1.35,0,0,1-.79-1.27,1.48,1.48,0,0,1,.53-1.26,2,2,0,0,1,3,.62,1.54,1.54,0,0,0,1.5,1.5,1.5,1.5,0,0,0,1.5-1.5A4.5,4.5,0,0,0,44,34.42V33a1.5,1.5,0,0,0-3,0v1.49a4.72,4.72,0,0,0-1.84,1,4.39,4.39,0,0,0-1.43,3.35,3.94,3.94,0,0,0,1.38,3.21,5.42,5.42,0,0,0,1.37.79,11.07,11.07,0,0,0,1.54.54c.45.14.82.26,1.1.37a4.57,4.57,0,0,1,.87.49,1.81,1.81,0,0,1,.73,1.51,2,2,0,0,1-.64,1.52,2.09,2.09,0,0,1-1.53.61A1.91,1.91,0,0,1,40.33,46v-.6a1.5,1.5,0,0,0-3,0v.26A4.81,4.81,0,0,0,41,50.53V52a1.5,1.5,0,0,0,3,0V50.54a5.1,5.1,0,0,0,2.15-1.22,4.78,4.78,0,0,0,1.52-3.57,4.63,4.63,0,0,0-1.19-3.22A6.31,6.31,0,0,0,43.59,40.84Z"/><path class="cls-1" d="M54,28V10.94A10,10,0,0,0,44.06,1H10.94A10,10,0,0,0,1,10.94V31.06A10,10,0,0,0,10.94,41H24.08c0,.5-.08,1-.08,1.5A18.5,18.5,0,1,0,54,28ZM10.94,4H44.06a6.92,6.92,0,0,1,6.84,6H4.09A6.93,6.93,0,0,1,10.94,4ZM4,13H51v5H4Zm6.94,25A6.94,6.94,0,0,1,4,31.06V21H51v5.08A18.46,18.46,0,0,0,24.57,38ZM42.5,58A15.5,15.5,0,1,1,58,42.5,15.51,15.51,0,0,1,42.5,58Z"/></svg>