<svg id="Layer_1" data-name="Layer 1" xmlns="http://www.w3.org/2000/svg" viewBox="0 0 62 62"><defs><style>.cls-1{}</style></defs><title>ICON</title><path class="cls-1" d="M52,46H42a1.5,1.5,0,0,0-1.47,1.2,1.53,1.53,0,0,0,0,.3v6a1.51,1.51,0,0,0,.11.56v0a1.59,1.59,0,0,0,.26.41l.06.07.07.06a1.43,1.43,0,0,0,.41.26h0A1.51,1.51,0,0,0,42,55H52a1.53,1.53,0,0,0,.3,0,1.5,1.5,0,0,0,1.2-1.47v-6A1.5,1.5,0,0,0,52,46Zm-1.5,6h-7V49h7Z"/><path class="cls-1" d="M53.5,24.32V19.58a7.09,7.09,0,0,0-7.08-7.08H46V8.08A7.09,7.09,0,0,0,38.92,1H8.08A7.09,7.09,0,0,0,1,8.08V30.92A7.09,7.09,0,0,0,8.08,38H8.5v4.42a7.09,7.09,0,0,0,7.08,7.08H16v.56C16,56.54,20.46,61,25.94,61H51.06A10,10,0,0,0,61,51.06V33.94A9.94,9.94,0,0,0,53.5,24.32ZM57.9,33H19.09a6.93,6.93,0,0,1,6.85-6H51.06A6.92,6.92,0,0,1,57.9,33Zm.1,3v4H19V36ZM8.5,19.58V35H8.08A4.08,4.08,0,0,1,4,30.92V8.08A4.08,4.08,0,0,1,8.08,4H38.92A4.08,4.08,0,0,1,43,8.08V12.5H15.58A7.09,7.09,0,0,0,8.5,19.58ZM16,32.94V46.5h-.42a4.08,4.08,0,0,1-4.08-4.08V19.58a4.08,4.08,0,0,1,4.08-4.08H46.42a4.08,4.08,0,0,1,4.08,4.08V24H25.94C20.46,24,16,28.46,16,32.94ZM58,51.06A6.94,6.94,0,0,1,51.06,58H25.94A6.94,6.94,0,0,1,19,51.06V43H58v5.32h0Z"/></svg>