<svg id="Layer_1" data-name="Layer 1" xmlns="http://www.w3.org/2000/svg" viewBox="0 0 62 62"><defs><style>.cls-1{}</style></defs><title>ICON</title><path class="cls-1" d="M24.5,36.5H9.5a1.5,1.5,0,0,0,0,3h15a1.5,1.5,0,0,0,0-3Z"/><path class="cls-1" d="M30,41.32A3.68,3.68,0,0,0,33.68,45H50.32A3.68,3.68,0,0,0,54,41.32V36.89a3.39,3.39,0,0,0-3.39-3.39H49.43a3.82,3.82,0,0,0,.07-.68V28.39A3.39,3.39,0,0,0,46.11,25H37.89a3.39,3.39,0,0,0-3.39,3.39v4.43a3.82,3.82,0,0,0,.07.68H33.39A3.39,3.39,0,0,0,30,36.89ZM50.61,36.5a.38.38,0,0,1,.39.39v4.43a.69.69,0,0,1-.68.68H44.18a.69.69,0,0,1-.68-.68V40.08h0V38.41h0V36.89a.38.38,0,0,1,.39-.39ZM37.5,32.79V31.58h0V30.41h0v-2a.38.38,0,0,1,.39-.39h8.22a.38.38,0,0,1,.39.39v4.43a.69.69,0,0,1-.68.68H38.18a.69.69,0,0,1-.68-.68ZM33,41.29V40.08h0V38.41h0V36.89a.38.38,0,0,1,.39-.39h6.72a.38.38,0,0,1,.39.39v4.43a.69.69,0,0,1-.68.68H33.68a.69.69,0,0,1-.68-.68Z"/><path class="cls-1" d="M53.92,11H39.8L32.36,2.92a6,6,0,0,0-2.85-1.71A5.79,5.79,0,0,0,28,1a5.94,5.94,0,0,0-4.05,1.58L14.77,11H8.08C4.18,11,1,14.18,1,16.08V41.92C1,47.82,4.18,51,8.08,51H22.2l7.45,8.08a5.89,5.89,0,0,0,2.83,1.71,5.34,5.34,0,0,0,1.32.2H34a5.94,5.94,0,0,0,4.05-1.58L47.23,51h6.69c3.9,0,7.08-3.18,7.08-8.08V17.08C61,14.18,57.82,11,53.92,11Zm-28-6.21a3,3,0,0,1,2.8-.69A2.94,2.94,0,0,1,30.15,5l5.57,6H19.2ZM36.06,57.21a3,3,0,0,1-2.14.79,3.63,3.63,0,0,1-.66-.1A3,3,0,0,1,31.85,57l-5.57-6H42.8ZM58,24.15V43.92A4.08,4.08,0,0,1,53.92,48H8.08A4.08,4.08,0,0,1,4,43.92V28H28.5a1.5,1.5,0,0,0,0-3H4V22H58ZM58,19H4v-.92A4.08,4.08,0,0,1,8.08,14H53.92A4.08,4.08,0,0,1,58,18.08Z"/></svg>