<svg id="Layer_1" data-name="Layer 1" xmlns="http://www.w3.org/2000/svg" viewBox="0 0 62 62"><defs><style>.cls-1{}</style></defs><title>02 ICON</title><path class="cls-1" d="M41.41,28h12a1.5,1.5,0,0,0,0-3h-12a1.5,1.5,0,0,0,0,3Z"/><path class="cls-1" d="M53.41,31h-7a1.5,1.5,0,0,0,0,3h7a1.5,1.5,0,0,0,0-3Z"/><path class="cls-1" d="M19.5,35A7.5,7.5,0,1,0,27,42.5,7.5,7.5,0,0,0,19.5,35Zm0,12A4.5,4.5,0,1,1,24,42.5,4.51,4.51,0,0,1,19.5,47Z"/><path class="cls-1" d="M51.06,1H14.94A10,10,0,0,0,5,10.94v20A4.34,4.34,0,0,0,5.17,36l.5.77-.9.19A4.26,4.26,0,0,0,1,41v3a4.26,4.26,0,0,0,3.77,4l.9.19-.5.77a4.25,4.25,0,0,0,.18,5.51l2.14,2.14a3.88,3.88,0,0,0,2.74,1.09A5,5,0,0,0,13,56.83l.77-.5c.07.28.13.59.19.9A4.27,4.27,0,0,0,18,61h3a4.27,4.27,0,0,0,4-3.77c.06-.31.13-.62.19-.9l.78.5a4.91,4.91,0,0,0,2.76.91,3.91,3.91,0,0,0,2.75-1.09l2.13-2.13A4.27,4.27,0,0,0,33.83,49l-.5-.77.9-.19A4.26,4.26,0,0,0,38,44H51.06A10,10,0,0,0,61,34.06V10.94A10,10,0,0,0,51.06,1ZM14.94,4H51.06a6.93,6.93,0,0,1,6.85,6H8.1A6.92,6.92,0,0,1,14.94,4ZM35,42.12V44s0,.82-1.35,1.08c-1.16.23-2.26.52-2.26.52a2.49,2.49,0,0,0-.8.39,11,11,0,0,1-.77,1.84,2.69,2.69,0,0,0,.29.86s.57,1,1.23,2c.77,1.15.19,1.72.19,1.72l-.8.8-.27.27-.27.27-.8.8a.88.88,0,0,1-.62.21,2.05,2.05,0,0,1-1.1-.4c-1-.66-2-1.23-2-1.23a2.69,2.69,0,0,0-.86-.29,11.91,11.91,0,0,1-1.84.77,2.49,2.49,0,0,0-.39.8s-.29,1.1-.52,2.26C21.83,58,21,58,21,58H18s-.82,0-1.08-1.35c-.23-1.16-.52-2.26-.52-2.26a2.49,2.49,0,0,0-.39-.8,11.91,11.91,0,0,1-1.84-.77,2.69,2.69,0,0,0-.86.29s-1,.57-2,1.23a2.05,2.05,0,0,1-1.1.4.91.91,0,0,1-.62-.21l-.8-.8-.27-.27-.27-.27-.8-.8s-.57-.57.19-1.72c.66-1,1.23-2,1.23-2a2.69,2.69,0,0,0,.29-.86A13,13,0,0,1,8.41,46a2.49,2.49,0,0,0-.8-.39s-1.1-.29-2.26-.52C4,44.83,4,44,4,44V41s0-.82,1.35-1.08c1.16-.23,2.26-.52,2.26-.52a2.49,2.49,0,0,0,.8-.39,13,13,0,0,1,.77-1.84,2.69,2.69,0,0,0-.29-.86s-.57-1-1.23-2c-.76-1.15-.19-1.72-.19-1.72l.8-.8.27-.27.27-.27.8-.8a.91.91,0,0,1,.62-.21,2.05,2.05,0,0,1,1.1.4c1,.66,2,1.23,2,1.23a2.69,2.69,0,0,0,.86.29A11.91,11.91,0,0,1,16,31.41a2.49,2.49,0,0,0,.39-.8s.29-1.1.52-2.26C17.17,27,18,27,18,27h3s.82,0,1.08,1.35c.23,1.16.52,2.26.52,2.26a2.49,2.49,0,0,0,.39.8,11.91,11.91,0,0,1,1.84.77,2.69,2.69,0,0,0,.86-.29s1-.57,2-1.23a2.05,2.05,0,0,1,1.1-.4.88.88,0,0,1,.62.21l.8.8.27.27.27.27.8.8s.58.57-.19,1.72c-.66,1-1.23,2-1.23,2a2.69,2.69,0,0,0-.29.86A11,11,0,0,1,30.59,39a2.49,2.49,0,0,0,.8.39s1.1.29,2.26.52C35,40.17,35,41,35,41Zm23-8.06A6.94,6.94,0,0,1,51.06,41H38a4.26,4.26,0,0,0-3.77-4l-.9-.19.5-.77a4.25,4.25,0,0,0-.18-5.51l-2.13-2.14a3.87,3.87,0,0,0-2.75-1.09,5,5,0,0,0-2.77.91l-.77.5c-.06-.28-.13-.59-.19-.9A4.27,4.27,0,0,0,21,24H18a4.27,4.27,0,0,0-4,3.77c-.06.31-.12.62-.19.9l-.77-.5a5,5,0,0,0-2.77-.91A4,4,0,0,0,8,27.93V21H58ZM58,18H8V13H58Z"/></svg>