<svg id="Layer_1" data-name="Layer 1" xmlns="http://www.w3.org/2000/svg" viewBox="0 0 62 62"><defs><style>.cls-1{}</style></defs><title>ICON</title><path class="cls-1" d="M53.92,11H39.8L32.36,2.92a6,6,0,0,0-2.85-1.71A5.79,5.79,0,0,0,28,1a5.94,5.94,0,0,0-4.05,1.58L14.77,11H8.08C4.18,11,1,14.18,1,16.08V41.92C1,47.82,4.18,51,8.08,51H22.2l7.45,8.08a5.89,5.89,0,0,0,2.83,1.71,5.34,5.34,0,0,0,1.32.2H34a5.94,5.94,0,0,0,4.05-1.58L47.23,51h6.69c3.9,0,7.08-3.18,7.08-8.08V17.08C61,14.18,57.82,11,53.92,11Zm-28-6.21a3,3,0,0,1,2.8-.69A2.94,2.94,0,0,1,30.15,5l5.57,6H19.2ZM22,48H8.08A4.08,4.08,0,0,1,4,43.92V28H45.33v2A4.72,4.72,0,0,0,43.49,31a4.39,4.39,0,0,0-1.43,3.35,3.94,3.94,0,0,0,1.38,3.21,5.42,5.42,0,0,0,1.37.79,10.62,10.62,0,0,0,1.54.54c.44.14.82.26,1.09.37a4.27,4.27,0,0,1,.87.49,1.79,1.79,0,0,1,.74,1.51,2,2,0,0,1-.64,1.52,2.09,2.09,0,0,1-1.53.61,1.91,1.91,0,0,1-2.22-1.89v-.6a1.5,1.5,0,0,0-3,0v.26a4.93,4.93,0,0,0,1.51,3.66A4.87,4.87,0,0,0,45.33,46v2Zm14.06,9.21a3,3,0,0,1-2.14.79,3.63,3.63,0,0,1-.66-.1A3,3,0,0,1,31.85,57l-5.57-6H42.8ZM58,31V43.92A4.08,4.08,0,0,1,53.92,48H48.33V46a5.1,5.1,0,0,0,2.15-1.22A4.78,4.78,0,0,0,52,41.25,4.63,4.63,0,0,0,50.81,38a6.31,6.31,0,0,0-2.89-1.69L46.77,36a5.29,5.29,0,0,1-1-.4A1.35,1.35,0,0,1,45,34.33a1.46,1.46,0,0,1,.53-1.26,2,2,0,0,1,3,.62,1.56,1.56,0,0,0,1.5,1.5,1.5,1.5,0,0,0,1.5-1.5,4.48,4.48,0,0,0-3.23-3.77V28H58Zm0-6H4V22H58Zm0-6H4v-.92A4.08,4.08,0,0,1,8.08,14H53.92A4.08,4.08,0,0,1,58,18.08Z"/><path class="cls-1" d="M34.16,36.5H11.5a1.5,1.5,0,0,0,0,3H34.16a1.5,1.5,0,0,0,0-3Z"/></svg>