<svg id="Layer_1" data-name="Layer 1" xmlns="http://www.w3.org/2000/svg" viewBox="0 0 62 62"><defs><style>.cls-1{}</style></defs><title>ICON</title><path class="cls-1" d="M53.92,22H47.13V18.1L43,11.8V4h2.5a1.5,1.5,0,0,0,0-3h-29a1.5,1.5,0,0,0,0,3H19v7.8L12.31,22H8.08A7.09,7.09,0,0,0,1,29.08V53.92A7.09,7.09,0,0,0,8.08,61H53.92A7.09,7.09,0,0,0,61,53.92V29.08A7.09,7.09,0,0,0,53.92,22ZM21.75,13.07a1.45,1.45,0,0,0,.24-1S22,12,22,12V4H40v8s0,.08,0,.12a1.5,1.5,0,0,0,.23,1l3.65,5.56a1.45,1.45,0,0,1,.24.81V22H36.08a6.22,6.22,0,0,0,.44-2.29V17.5a1.5,1.5,0,0,0-3,0v2.21A3.29,3.29,0,0,1,30.23,23H27a1.5,1.5,0,0,0-1.39.94,1.6,1.6,0,0,0-.13.62V32.5a.5.5,0,0,1-.5.5H24a2,2,0,0,1-2-2V22.5A1.5,1.5,0,0,0,20.5,21h0a1.51,1.51,0,0,0-1.41,1H15.9ZM4,29.08A4.08,4.08,0,0,1,8.08,25H19v6H4ZM58,45v8.92A4.08,4.08,0,0,1,53.92,58H8.08A4.08,4.08,0,0,1,4,53.92V42H58Zm0-6H4V34H20.06A5.34,5.34,0,0,0,22,35.58,4.94,4.94,0,0,0,24,36h1a3.49,3.49,0,0,0,3.15-2H58Zm0-8H28.5V26h1.73a6.24,6.24,0,0,0,3.39-1h20.3A4.08,4.08,0,0,1,58,29.08Z"/><path class="cls-1" d="M27.5,48.5h23a1.5,1.5,0,0,0,0-3h-23a1.5,1.5,0,0,0,0,3Z"/><path class="cls-1" d="M50.5,51.5h-17a1.5,1.5,0,0,0,0,3h17a1.5,1.5,0,0,0,0-3Z"/></svg>