<svg id="Layer_1" data-name="Layer 1" xmlns="http://www.w3.org/2000/svg" viewBox="0 0 62 62"><defs><style>.cls-1{}</style></defs><title>ICON</title><path class="cls-1" d="M29,21h6a1.5,1.5,0,0,0,1.5-1.5V9.5A1.5,1.5,0,0,0,35.34,8,1.45,1.45,0,0,0,35,8H29a1.42,1.42,0,0,0-.55.11h0a1.59,1.59,0,0,0-.41.26L28,8.44l-.06.07a1.43,1.43,0,0,0-.26.41v0a1.51,1.51,0,0,0-.11.56v10a1.53,1.53,0,0,0,0,.3A1.5,1.5,0,0,0,29,21Zm1.5-10h3v7h-3Z"/><path class="cls-1" d="M55.09,1H24.91A5.92,5.92,0,0,0,19,6.91V17.65c-3,1.23-18,8-18,19V59.5A1.5,1.5,0,0,0,2.5,61H27.15a1.5,1.5,0,0,0,1.5-1.5V57.07A17.2,17.2,0,0,0,34.12,49h21A5.92,5.92,0,0,0,61,43.09V6.91A5.92,5.92,0,0,0,55.09,1ZM26.31,55.08l-.66.44V58H4V36.62c0-8.06,10.87-13.8,15-15.69v8.36L8.46,39.43a1.5,1.5,0,0,0,2.08,2.17L24.25,28.4A1.4,1.4,0,0,1,25.39,28a1.26,1.26,0,0,1,.92.52,5.51,5.51,0,0,1,.69,3,6.57,6.57,0,0,1-2.76,5.76,5.94,5.94,0,0,0-2.16,2.9,17.76,17.76,0,0,0-.28,1.76c-.43,3.28-1.14,8.76-6.69,10.13a1.5,1.5,0,0,0,.36,3,1.47,1.47,0,0,0,.36,0,10.49,10.49,0,0,0,7.36-6.22,5.73,5.73,0,0,0,1.72.26h6A14,14,0,0,1,26.31,55.08ZM41.08,46H24.91a2.74,2.74,0,0,1-.76-.11,31.27,31.27,0,0,0,.62-3.59c.08-.6.15-1.13.22-1.42s.63-.84,1.24-1.38A9.52,9.52,0,0,0,29.92,33a6.39,6.39,0,0,0,0-3,7.14,7.14,0,0,0-1.13-3.19A4.25,4.25,0,0,0,25.68,25a4.42,4.42,0,0,0-3.51,1.22L22,26.4V6.91A2.91,2.91,0,0,1,24.91,4H41.08ZM50,46H44.08V4H50Zm8-16V43.09A2.91,2.91,0,0,1,55.09,46H53V4h2.09A2.91,2.91,0,0,1,58,6.91Z"/></svg>