<svg xmlns="http://www.w3.org/2000/svg" viewBox="0 0 62 62"><defs><style>.cls-1{}</style></defs><title>ICON</title><g id="Layer_2" data-name="Layer 2"><path class="cls-1" d="M16.78,42.19a3.4,3.4,0,0,0,1.56.39,3.36,3.36,0,0,0,2.57-1.2,3.33,3.33,0,0,0,.74-2.73l-.72-4.21,3.05-3a3.35,3.35,0,0,0-1.85-5.73l-4.23-.62L16,21.3a3.35,3.35,0,0,0-6,0L8.1,25.12l-4.22.62A3.35,3.35,0,0,0,2,31.46l3.05,3-.72,4.21a3.36,3.36,0,0,0,3.31,3.93,3.37,3.37,0,0,0,1.56-.39l3.78-2ZM12.84,36.9l-5,2.64a.36.36,0,0,1-.52-.38l1-5.58a.36.36,0,0,0-.1-.32l-4-3.94a.36.36,0,0,1,.2-.61l5.6-.82a.38.38,0,0,0,.27-.19l2.5-5.08a.36.36,0,0,1,.64,0l2.51,5.08a.36.36,0,0,0,.27.19l5.59.82a.35.35,0,0,1,.2.61l-4.05,3.94a.39.39,0,0,0-.1.32l1,5.58a.36.36,0,0,1-.52.38l-5-2.64A.38.38,0,0,0,12.84,36.9Z"/><path class="cls-1" d="M12.38,15.17,14,16.79a.7.7,0,0,0,1,0l1.62-1.62,2.53-2.52a1.51,1.51,0,0,0,0-2.12,1.49,1.49,0,0,0-2.12,0l-1,1V5.87A1.87,1.87,0,0,1,17.87,4H44.13A1.87,1.87,0,0,1,46,5.87V6.5a1.5,1.5,0,0,0,3,0V5.87A4.87,4.87,0,0,0,44.13,1H17.87A4.87,4.87,0,0,0,13,5.87v5.68l-1-1a1.5,1.5,0,0,0-2.12,2.12Z"/><path class="cls-1" d="M49.62,51.83,48,50.21a.7.7,0,0,0-1,0l-1.62,1.62-2.53,2.52a1.51,1.51,0,0,0,0,2.12,1.49,1.49,0,0,0,2.12,0l1-1v.68A1.87,1.87,0,0,1,44.13,58H17.87A1.87,1.87,0,0,1,16,56.13V45.62a1.5,1.5,0,0,0-3,0V56.13A4.87,4.87,0,0,0,17.87,61H44.13A4.87,4.87,0,0,0,49,56.13v-.68l1,1a1.5,1.5,0,0,0,2.12-2.12Z"/><path class="cls-1" d="M55,11H40a6,6,0,0,0-6,6V41a6,6,0,0,0,6,6H55a6,6,0,0,0,6-6V17A6,6,0,0,0,55,11ZM40,14h6V27H37V17A3,3,0,0,1,40,14Zm6,16v6H37V30ZM40,44a3,3,0,0,1-3-3V39h9v5Zm12,0H49V14h3Zm6-3a3,3,0,0,1-3,3h0V14h0a3,3,0,0,1,3,3Z"/></g></svg>