<svg id="Layer_1" data-name="Layer 1" xmlns="http://www.w3.org/2000/svg" viewBox="0 0 62 62"><defs><style>.cls-1{}</style></defs><title>h</title><path class="cls-1" d="M59.5,1h-13a1.5,1.5,0,0,0,0,3H58V15.25H53.5a1.5,1.5,0,0,0,0,3H58V29.5H46.5a1.5,1.5,0,0,0,0,3H58V43.74H53.5a1.5,1.5,0,0,0,0,3H58V58H46.5a1.5,1.5,0,0,0,0,3h13A1.5,1.5,0,0,0,61,59.5V2.5A1.5,1.5,0,0,0,59.5,1Z"/><path class="cls-1" d="M18,34.14a.21.21,0,0,1,.06.2l-.58,3.4a.22.22,0,0,0,.32.23l3.06-1.6a.18.18,0,0,1,.2,0L24.16,38a.22.22,0,0,0,.32-.23l-.58-3.4a.21.21,0,0,1,.06-.2l2.47-2.41a.22.22,0,0,0-.12-.37l-3.42-.5a.22.22,0,0,1-.16-.12l-1.53-3.1a.23.23,0,0,0-.4,0l-1.53,3.1a.22.22,0,0,1-.16.12l-3.42.5a.22.22,0,0,0-.12.37Z"/><path class="cls-1" d="M11,47.63a.2.2,0,0,1,.06.19l-.58,3.41a.22.22,0,0,0,.32.23l3.06-1.61a.23.23,0,0,1,.2,0l3.06,1.61a.22.22,0,0,0,.32-.23l-.58-3.41a.2.2,0,0,1,.06-.19l2.47-2.42a.22.22,0,0,0-.12-.37l-3.42-.5a.2.2,0,0,1-.16-.12l-1.53-3.1a.23.23,0,0,0-.4,0l-1.53,3.1a.2.2,0,0,1-.16.12l-3.42.5a.22.22,0,0,0-.12.37Z"/><path class="cls-1" d="M26.11,44.34l-3.42.5a.22.22,0,0,0-.12.37L25,47.63a.2.2,0,0,1,.06.19l-.58,3.41a.22.22,0,0,0,.32.23l3.06-1.61a.23.23,0,0,1,.2,0l3.06,1.61a.22.22,0,0,0,.32-.23l-.58-3.41a.2.2,0,0,1,.06-.19l2.47-2.42a.22.22,0,0,0-.12-.37l-3.42-.5a.2.2,0,0,1-.16-.12l-1.53-3.1a.23.23,0,0,0-.4,0l-1.53,3.1A.2.2,0,0,1,26.11,44.34Z"/><path class="cls-1" d="M33.28,1H8.72A7.71,7.71,0,0,0,1,8.72V53.28A7.71,7.71,0,0,0,8.72,61H33.28A7.71,7.71,0,0,0,41,53.28V8.72A7.71,7.71,0,0,0,33.28,1ZM38,53.28A4.73,4.73,0,0,1,33.28,58H8.72A4.73,4.73,0,0,1,4,53.28V23H38ZM38,20H4V15H38Zm0-8H4V8.72A4.73,4.73,0,0,1,8.72,4H33.28A4.73,4.73,0,0,1,38,8.72Z"/></svg>