<svg id="Layer_1" data-name="Layer 1" xmlns="http://www.w3.org/2000/svg" viewBox="0 0 62 62"><defs><style>.cls-1{}</style></defs><title>h</title><path class="cls-1" d="M59.5,1h-13a1.5,1.5,0,0,0,0,3H58V15.25H53.5a1.5,1.5,0,0,0,0,3H58V29.5H46.5a1.5,1.5,0,0,0,0,3H58V43.74H53.5a1.5,1.5,0,0,0,0,3H58V58H46.5a1.5,1.5,0,0,0,0,3h13A1.5,1.5,0,0,0,61,59.5V2.5A1.5,1.5,0,0,0,59.5,1Z"/><path class="cls-1" d="M33.92,1H8.08A7.09,7.09,0,0,0,1,8.08V53.92A7.09,7.09,0,0,0,8.08,61H33.92A7.09,7.09,0,0,0,41,53.92V8.08A7.09,7.09,0,0,0,33.92,1ZM17,58H8.08A4.08,4.08,0,0,1,4,53.92V22H15.08c-2,2.49-4.11,6-4.11,9.8,0,.32,0,.65,0,1a1.5,1.5,0,1,0,3-.28c-.28-3,1.3-5.86,3-8.07Zm0-41.42c-1.69-2.21-3.27-5.11-3-8.07a1.5,1.5,0,1,0-3-.28c0,.32,0,.65,0,1,0,3.82,2.08,7.31,4.11,9.8H4V8.08A4.08,4.08,0,0,1,8.08,4H17ZM38,53.92A4.08,4.08,0,0,1,33.92,58H20V24.49c4.56,9.16,8.69,10.15,11.44,9.24s4.09-3.85,3.38-6.92a7.11,7.11,0,0,0-2.51-4A9.85,9.85,0,0,0,31.07,22H38ZM24.21,22a41.62,41.62,0,0,1,6.22,3.16c4.34,3.49-.95,12.63-8.3-3.16Zm-2.08-3c7.35-15.79,12.64-6.65,8.3-3.16A41.62,41.62,0,0,1,24.21,19ZM38,19H31.07a9.85,9.85,0,0,0,1.24-.82,7.15,7.15,0,0,0,2.51-4c.71-3.07-.75-6-3.38-6.92S24.56,7.35,20,16.51V4H33.92A4.08,4.08,0,0,1,38,8.08Z"/></svg>