<svg id="Layer_1" data-name="Layer 1" xmlns="http://www.w3.org/2000/svg" viewBox="0 0 62 62"><defs><style>.cls-1{}</style></defs><title>h</title><path class="cls-1" d="M59.5,1h-13a1.5,1.5,0,0,0,0,3H58V15.25H53.5a1.5,1.5,0,0,0,0,3H58V29.5H46.5a1.5,1.5,0,0,0,0,3H58V43.75H53.5a1.5,1.5,0,0,0,0,3H58V58H46.5a1.5,1.5,0,0,0,0,3h13A1.5,1.5,0,0,0,61,59.5V2.5A1.5,1.5,0,0,0,59.5,1Z"/><path class="cls-1" d="M28.45,36.5a1.5,1.5,0,1,0,0-3h-15a1.5,1.5,0,0,0,0,3Z"/><path class="cls-1" d="M13.45,24.5h15a1.5,1.5,0,1,0,0-3h-15a1.5,1.5,0,0,0,0,3Z"/><path class="cls-1" d="M31.45,39.5h-21a1.5,1.5,0,0,0,0,3h21a1.5,1.5,0,1,0,0-3Z"/><path class="cls-1" d="M31.45,27.5h-21a1.5,1.5,0,0,0,0,3h21a1.5,1.5,0,1,0,0-3Z"/><path class="cls-1" d="M31.45,51.5h-21a1.5,1.5,0,0,0,0,3h21a1.5,1.5,0,1,0,0-3Z"/><path class="cls-1" d="M25.45,48.5a1.5,1.5,0,1,0,0-3h-9a1.5,1.5,0,0,0,0,3Z"/><path class="cls-1" d="M36.86,1H14.91a4.58,4.58,0,0,0-3.26,1.35L3,11A6.78,6.78,0,0,0,1,15.8V56.86A4.14,4.14,0,0,0,5.14,61H36.86A4.14,4.14,0,0,0,41,56.86V5.14A4.14,4.14,0,0,0,36.86,1ZM5.11,13.14l8.66-8.67A1.61,1.61,0,0,1,14.91,4H15v8.17A2.83,2.83,0,0,1,12.18,15H4.09A3.69,3.69,0,0,1,5.11,13.14ZM38,56.86A1.14,1.14,0,0,1,36.86,58H5.14A1.14,1.14,0,0,1,4,56.86V18h8.18A5.83,5.83,0,0,0,18,12.17V4H36.86A1.14,1.14,0,0,1,38,5.14Z"/></svg>