<svg id="Layer_1" data-name="Layer 1" xmlns="http://www.w3.org/2000/svg" viewBox="0 0 62 62"><defs><style>.cls-1{}</style></defs><title>02 ICON</title><path class="cls-1" d="M25.2,14.67l-2.94-.42-1.32-2.67a3.28,3.28,0,0,0-5.88,0l-1.31,2.67-2.94.42A3.28,3.28,0,0,0,9,20.27l2.13,2.07-.5,2.92a3.28,3.28,0,0,0,3.23,3.84,3.2,3.2,0,0,0,1.52-.38L18,27.34l2.63,1.38a3.28,3.28,0,0,0,4.76-3.46l-.5-2.92L27,20.27a3.29,3.29,0,0,0-1.81-5.6Zm-.28,3.45-3.15,3.07a.25.25,0,0,0-.08.25l.74,4.33a.28.28,0,0,1-.4.3L18.13,24a.3.3,0,0,0-.26,0L14,26.07a.29.29,0,0,1-.41-.3l.75-4.33a.31.31,0,0,0-.08-.25l-3.15-3.07a.28.28,0,0,1,.15-.48L15.6,17a.29.29,0,0,0,.21-.15l1.94-3.95a.28.28,0,0,1,.5,0l1.95,3.95a.27.27,0,0,0,.21.15l4.35.63A.29.29,0,0,1,24.92,18.12Z"/><path class="cls-1" d="M25.2,37.82l-2.94-.43-1.32-2.66a3.28,3.28,0,0,0-5.88,0l-1.31,2.66-2.94.43A3.28,3.28,0,0,0,9,43.41l2.13,2.07-.5,2.93a3.27,3.27,0,0,0,3.23,3.83,3.31,3.31,0,0,0,1.52-.37L18,50.49l2.63,1.38a3.31,3.31,0,0,0,4-.79,3.3,3.3,0,0,0,.72-2.67l-.5-2.93L27,43.42a3.29,3.29,0,0,0-1.81-5.6Zm-.28,3.44-3.15,3.08a.24.24,0,0,0-.08.24l.74,4.34a.27.27,0,0,1-.4.29l-3.9-2a.24.24,0,0,0-.26,0l-3.89,2a.28.28,0,0,1-.41-.29l.75-4.34a.3.3,0,0,0-.08-.24l-3.15-3.08a.27.27,0,0,1,.15-.47l4.36-.63a.31.31,0,0,0,.21-.16l1.94-3.94a.28.28,0,0,1,.5,0L20.2,40a.29.29,0,0,0,.21.16l4.35.63A.28.28,0,0,1,24.92,41.26Z"/><path class="cls-1" d="M59.37,39.65v0A19.89,19.89,0,0,1,50.5,42.8c-.7.07-1.36.1-2,.12-.38,0-2.86-.18-3.75-1.84-.15-.87,3-2,5.44-2.65,3-.74,3.5-3.9,3.38-5.47l-1.14-1.8,3.79-8c1.21,0,2.31.06,3.18.12a1.5,1.5,0,1,0,.21-3c-.58-.05-1.25-.08-2-.1l3-6.32a4.1,4.1,0,0,0-1.93-5.48L57.1,7.62a4.1,4.1,0,0,0-5.52,1.91l-3,6.25L46,21.34c-.34.09-.67.2-1,.31V7.71A6.72,6.72,0,0,0,38.29,1H7.71A6.72,6.72,0,0,0,1,7.71V54.29A6.71,6.71,0,0,0,7.71,61H38.29A6.71,6.71,0,0,0,45,54.29V46.87l.64-1.36a25,25,0,0,0,3.89.34l.25,0a16.18,16.18,0,0,0,2.5-.22l.12,0,.51-.1a25.12,25.12,0,0,0,7.32-2.92A1.54,1.54,0,0,0,61,41.29v-.77C61,38.7,59.37,39.65,59.37,39.65ZM44.21,25.13l-6.6,14c-.47-1.46-.58-4.31,1.76-9.53A9.12,9.12,0,0,1,44.21,25.13ZM42,54.29A3.72,3.72,0,0,1,38.29,58H7.71A3.72,3.72,0,0,1,4,54.29V7.71A3.72,3.72,0,0,1,7.71,4H38.29A3.72,3.72,0,0,1,42,7.71v15.2a11.46,11.46,0,0,0-5.36,5.42c-3.16,7-2.48,10.91-1.36,12.93a5.57,5.57,0,0,0,.8,1.09l-.82,1.73a2,2,0,0,0-.17,1.16l-1.24,6.81A2,2,0,0,0,35,53.58l2.15,1A2,2,0,0,0,39,54.5L42,51Zm-.18-14a2.62,2.62,0,0,0,.18,2V46.2l-.28.6L38,51.66l-1.21-.57,1.36-6,.42-.9,2.14-4.52,7.61-16.11,3.92-8.3.17-.36.07-.16,1.84-3.89a1.11,1.11,0,0,1,1.55-.52l1.49.71a1.09,1.09,0,0,1,.58,1.52l-1.5,3.17-4.54,9.61L46.61,36.47C44.68,37.26,42.39,38.54,41.82,40.27Z"/></svg>