<svg id="Layer_1" data-name="Layer 1" xmlns="http://www.w3.org/2000/svg" viewBox="0 0 62 62"><defs><style>.cls-1{}</style></defs><title>02 ICON</title><path class="cls-1" d="M21,47.9a1.5,1.5,0,0,0,1.5-1.5V41.9H27a1.5,1.5,0,0,0,1.5-1.5h0A1.5,1.5,0,0,0,27,38.9h-4.5V34.4a1.5,1.5,0,0,0-3,0v4.5H15a1.5,1.5,0,0,0-1.5,1.5h0A1.5,1.5,0,0,0,15,41.9h4.5v4.5A1.5,1.5,0,0,0,21,47.9Z"/><path class="cls-1" d="M60.83,46.45a3.32,3.32,0,0,0-2.71-2.29l-4.22-.62L52,39.72a3.36,3.36,0,0,0-6,0L44.1,43.54l-4.23.62A3.36,3.36,0,0,0,38,49.89l3.06,3-.72,4.2a3.33,3.33,0,0,0,.74,2.73A3.36,3.36,0,0,0,43.66,61a3.28,3.28,0,0,0,1.56-.39l3.78-2,3.77,2a3.32,3.32,0,0,0,1.57.39,3.35,3.35,0,0,0,3.31-3.93l-.72-4.2,3-3A3.34,3.34,0,0,0,60.83,46.45Zm-2.94,1.29-4,3.95a.33.33,0,0,0-.1.31l.95,5.58a.36.36,0,0,1-.52.38l-5-2.63a.32.32,0,0,0-.33,0l-5,2.63a.36.36,0,0,1-.52-.38l1-5.58a.36.36,0,0,0-.1-.31l-4-3.95a.35.35,0,0,1,.2-.61l5.59-.82a.34.34,0,0,0,.27-.19l2.51-5.07a.35.35,0,0,1,.64,0l2.5,5.07a.37.37,0,0,0,.27.19l5.6.82A.36.36,0,0,1,57.89,47.74Z"/><path class="cls-1" d="M35,17.59a1.5,1.5,0,0,0-1.5-1.5h-25a1.5,1.5,0,0,0,0,3h25A1.5,1.5,0,0,0,35,17.59Z"/><path class="cls-1" d="M33.51,10.09h-25a1.5,1.5,0,0,0,0,3h25a1.5,1.5,0,0,0,0-3Z"/><path class="cls-1" d="M26,23.59a1.5,1.5,0,0,0-1.5-1.5h-16a1.5,1.5,0,0,0,0,3h16A1.5,1.5,0,0,0,26,23.59Z"/><path class="cls-1" d="M38,4.63V38.29a1.27,1.27,0,0,0,1.29,1.26h.13l.39,0A1.28,1.28,0,0,0,41,38.25V3.34l-.75-.75a5.45,5.45,0,0,0-7-.57,1.21,1.21,0,0,1-1.36,0,5.45,5.45,0,0,0-6.35,0,1.21,1.21,0,0,1-1.36,0,5.45,5.45,0,0,0-6.35,0,1.19,1.19,0,0,1-1.35,0,5.45,5.45,0,0,0-6.35,0A1.21,1.21,0,0,1,8.75,2a5.43,5.43,0,0,0-7,.57L1,3.34V58.66l.75.75a5.42,5.42,0,0,0,7,.57,1.21,1.21,0,0,1,1.36,0,5.45,5.45,0,0,0,6.35,0,1.19,1.19,0,0,1,1.35,0,5.45,5.45,0,0,0,6.35,0,1.21,1.21,0,0,1,1.36,0,5.45,5.45,0,0,0,6.35,0,1.21,1.21,0,0,1,1.36,0,5.15,5.15,0,0,0,1.65.8A.9.9,0,0,0,36,59.89a3.22,3.22,0,0,0-1.15-2.47,1.07,1.07,0,0,1-.16-.14,3,3,0,0,0-4.26,0,2.43,2.43,0,0,1-3.44,0,3,3,0,0,0-4.27,0,2.42,2.42,0,0,1-3.43,0,3.06,3.06,0,0,0-2.14-.88,3,3,0,0,0-2.13.89,2.45,2.45,0,0,1-3.44,0,3,3,0,0,0-4.27,0,2.38,2.38,0,0,1-3.3.08V4.63a2.39,2.39,0,0,1,3.3.08,3,3,0,0,0,4.27,0,2.43,2.43,0,0,1,3.44,0,3,3,0,0,0,4.27,0,2.42,2.42,0,0,1,3.43,0,3,3,0,0,0,4.27,0,2.43,2.43,0,0,1,3.44,0,3,3,0,0,0,4.26,0A2.42,2.42,0,0,1,38,4.63Z"/></svg>