<svg id="Layer_1" data-name="Layer 1" xmlns="http://www.w3.org/2000/svg" viewBox="0 0 62 62"><defs><style>.cls-1{}</style></defs><title>02 ICON</title><path class="cls-1" d="M60.83,46.45a3.32,3.32,0,0,0-2.71-2.29l-4.22-.61L52,39.72a3.36,3.36,0,0,0-6,0L44.1,43.55l-4.23.61A3.36,3.36,0,0,0,38,49.89l3.06,3-.72,4.2A3.35,3.35,0,0,0,43.66,61a3.28,3.28,0,0,0,1.56-.39l3.78-2,3.77,2a3.36,3.36,0,0,0,4.14-.8,3.38,3.38,0,0,0,.74-2.74l-.72-4.2,3-3A3.34,3.34,0,0,0,60.83,46.45Zm-2.94,1.29-4,3.95a.34.34,0,0,0-.1.32l.95,5.57a.36.36,0,0,1-.52.38l-5-2.63a.32.32,0,0,0-.33,0l-5,2.63a.36.36,0,0,1-.52-.38l1-5.57a.37.37,0,0,0-.1-.32l-4-3.95a.35.35,0,0,1,.2-.61l5.59-.82a.34.34,0,0,0,.27-.19l2.51-5.07a.35.35,0,0,1,.64,0l2.5,5.07a.37.37,0,0,0,.27.19l5.6.82A.36.36,0,0,1,57.89,47.74Z"/><path class="cls-1" d="M32.5,37.5V33H37a1.5,1.5,0,0,0,1.5-1.5h0A1.5,1.5,0,0,0,37,30H32.5V25.5a1.5,1.5,0,0,0-3,0V30H25a1.5,1.5,0,0,0-1.5,1.5h0A1.5,1.5,0,0,0,25,33h4.5v4.5a1.5,1.5,0,0,0,3,0Z"/><path class="cls-1" d="M35.49,58H6.09A2.1,2.1,0,0,1,4,55.91V41.34A1.34,1.34,0,0,1,5.34,40h7.92a3,3,0,0,0,3-3V18.34A1.34,1.34,0,0,1,17.61,17H44.39a1.34,1.34,0,0,1,1.34,1.33v14a1.5,1.5,0,1,0,3,0,.36.36,0,0,0,0-.1V14A2.93,2.93,0,0,0,48,12.06L41.36,2.5a3.76,3.76,0,0,0-3-1.5H23.65a3.77,3.77,0,0,0-3,1.5L14,12.06A2.93,2.93,0,0,0,13.3,14v5.06h0v4.6a.35.35,0,0,1-.35.34H11.38a3.76,3.76,0,0,0-3,1.5L1.72,35.06A2.93,2.93,0,0,0,1,37v6.06H1v7a0,0,0,0,0,0,.06V53a0,0,0,0,0,0,.06v4.17A3.74,3.74,0,0,0,4.73,61H35.5a1.5,1.5,0,1,0,0-3ZM17.26,12.85,23,4.35A.75.75,0,0,1,23.65,4c.22,0,2.8,0,5.35,0s9.13,0,9.35,0a.75.75,0,0,1,.64.35l5.75,8.5A.7.7,0,0,1,44.21,14H17.79A.7.7,0,0,1,17.26,12.85ZM5,35.85l5.75-8.5a.75.75,0,0,1,.64-.35h1.9s0,0,0,0,0,0,0,0l0,8.43a1.51,1.51,0,0,1-1.5,1.5H5.52A.7.7,0,0,1,5,35.85Z"/><path class="cls-1" d="M8.5,55h21a1.5,1.5,0,0,0,0-3H8.5a1.5,1.5,0,0,0,0,3Z"/><path class="cls-1" d="M8.5,48.93h12a1.5,1.5,0,1,0,0-3H8.5a1.5,1.5,0,0,0,0,3Z"/></svg>