<svg id="Layer_1" data-name="Layer 1" xmlns="http://www.w3.org/2000/svg" viewBox="0 0 62 62"><defs><style>.cls-1{}</style></defs><title>02 ICON</title><path class="cls-1" d="M39.55,17.24l-.83,4.84a3.4,3.4,0,0,0,4.93,3.59L48,23.38l4.35,2.29a3.4,3.4,0,0,0,4.93-3.58l-.83-4.85L60,13.81A3.4,3.4,0,0,0,58.09,8L53.22,7.3,51.05,2.89a3.41,3.41,0,0,0-6.1,0L42.77,7.3,37.91,8a3.41,3.41,0,0,0-2.75,2.32A3.37,3.37,0,0,0,36,13.81ZM38.34,11l6.22-.9a.4.4,0,0,0,.3-.22l2.78-5.64a.41.41,0,0,1,.72,0l2.78,5.64a.38.38,0,0,0,.3.22l6.22.9a.4.4,0,0,1,.22.68l-4.5,4.39a.38.38,0,0,0-.12.35l1.06,6.19a.39.39,0,0,1-.57.42l-5.57-2.92a.4.4,0,0,0-.37,0L42.25,23a.4.4,0,0,1-.58-.42l1.06-6.19a.38.38,0,0,0-.11-.35l-4.5-4.39A.4.4,0,0,1,38.34,11Z"/><path class="cls-1" d="M59.5,32.06a1.5,1.5,0,0,0-1.5,1.5V38.8H4V22.18A6.18,6.18,0,0,1,10.18,16H30.5a1.5,1.5,0,0,0,0-3H8.62A7.62,7.62,0,0,0,1,20.62V53.38A7.62,7.62,0,0,0,8.62,61H53.38A7.62,7.62,0,0,0,61,53.38V33.56A1.5,1.5,0,0,0,59.5,32.06ZM58,41.8v7H4v-7ZM51.82,58H10.18A6.18,6.18,0,0,1,4,51.82v0H58v0A6.18,6.18,0,0,1,51.82,58Z"/><path class="cls-1" d="M21.25,34.9a1.5,1.5,0,0,0,1.5-1.5V28.9h4.5a1.5,1.5,0,0,0,1.5-1.5h0a1.5,1.5,0,0,0-1.5-1.5h-4.5V21.4a1.5,1.5,0,0,0-3,0v4.5h-4.5a1.5,1.5,0,0,0-1.5,1.5h0a1.5,1.5,0,0,0,1.5,1.5h4.5v4.5A1.5,1.5,0,0,0,21.25,34.9Z"/></svg>