<svg id="Layer_1" data-name="Layer 1" xmlns="http://www.w3.org/2000/svg" viewBox="0 0 62 62"><defs><style>.cls-1{}</style></defs><title>02 ICON</title><path class="cls-1" d="M40,36.5A1.5,1.5,0,0,0,38.5,38v3a1.5,1.5,0,0,0,3,0V38A1.5,1.5,0,0,0,40,36.5Z"/><path class="cls-1" d="M46,36.5A1.5,1.5,0,0,0,44.5,38v3a1.5,1.5,0,0,0,3,0V38A1.5,1.5,0,0,0,46,36.5Z"/><path class="cls-1" d="M52,36.5A1.5,1.5,0,0,0,50.5,38v3a1.5,1.5,0,0,0,3,0V38A1.5,1.5,0,0,0,52,36.5Z"/><path class="cls-1" d="M55.09,1H24.91A5.92,5.92,0,0,0,19,6.91V17.65c-3,1.23-18,8-18,19V59.5H1A1.5,1.5,0,0,0,2.5,61H27.15a1.5,1.5,0,0,0,1.5-1.5V57.07A17.2,17.2,0,0,0,34.12,49h21A5.92,5.92,0,0,0,61,43.09V6.91A5.92,5.92,0,0,0,55.09,1Zm0,3A2.91,2.91,0,0,1,58,6.91V30H47.5V4ZM22,6.91A2.91,2.91,0,0,1,24.91,4H44.5V30H29.9a7.14,7.14,0,0,0-1.13-3.19A4.25,4.25,0,0,0,25.68,25a4.42,4.42,0,0,0-3.51,1.22L22,26.4Zm4.31,48.17-.66.44V58H4V36.62c0-8.06,10.87-13.8,15-15.69v8.36L8.46,39.43a1.5,1.5,0,0,0,2.08,2.17L24.25,28.4A1.4,1.4,0,0,1,25.39,28a1.26,1.26,0,0,1,.92.52,5.51,5.51,0,0,1,.69,3,6.57,6.57,0,0,1-2.76,5.76,5.94,5.94,0,0,0-2.16,2.9,17.76,17.76,0,0,0-.28,1.76c-.43,3.28-1.14,8.76-6.69,10.13a1.5,1.5,0,0,0,.36,3,1.47,1.47,0,0,0,.36,0,10.49,10.49,0,0,0,7.36-6.22,5.73,5.73,0,0,0,1.72.26h6A14.05,14.05,0,0,1,26.31,55.08ZM55.09,46H24.91a2.74,2.74,0,0,1-.76-.11,31.27,31.27,0,0,0,.62-3.59c.08-.6.15-1.13.22-1.42s.63-.84,1.24-1.38A9.52,9.52,0,0,0,29.92,33H58V43.09A2.91,2.91,0,0,1,55.09,46Z"/></svg>