<svg id="Layer_1" data-name="Layer 1" xmlns="http://www.w3.org/2000/svg" viewBox="0 0 62 62"><defs><style></style></defs><title>02 ICON</title><path class="cls-1" d="M53.92,11H39.8L32.36,2.92a6,6,0,0,0-2.85-1.71A5.79,5.79,0,0,0,28,1a5.94,5.94,0,0,0-4.05,1.58L14.77,11H8.08A7.09,7.09,0,0,0,1,18.08V43.92A7.09,7.09,0,0,0,8.08,51H22.2l7.45,8.08a5.89,5.89,0,0,0,2.83,1.71,5.34,5.34,0,0,0,1.32.2H34a5.94,5.94,0,0,0,4.05-1.58L47.23,51h6.69A7.09,7.09,0,0,0,61,43.92V18.08A7.09,7.09,0,0,0,53.92,11Zm-28-6.21a3,3,0,0,1,2.8-.69A2.94,2.94,0,0,1,30.15,5l5.57,6H19.2ZM22,27.79a41.62,41.62,0,0,1,3.16-6.22c3.49-4.34,12.63.95-3.16,8.3ZM19,48H8.08A4.08,4.08,0,0,1,4,43.92V35H16.58c-2.21,1.69-5.11,3.27-8.07,3a1.5,1.5,0,1,0-.28,3c.32,0,.65.05,1,.05C13,41,16.51,39,19,36.92Zm0-18.13c-15.79-7.35-6.65-12.64-3.16-8.3A41.62,41.62,0,0,1,19,27.79Zm0-8.94a9.85,9.85,0,0,0-.82-1.24,7.15,7.15,0,0,0-4-2.51c-3.07-.71-6,.75-6.92,3.38S7.35,27.44,16.51,32H4V18.08A4.08,4.08,0,0,1,8.08,14H19ZM36.06,57.21a3,3,0,0,1-2.14.79,3.63,3.63,0,0,1-.66-.1A3,3,0,0,1,31.85,57l-5.57-6H42.8ZM58,43.92A4.08,4.08,0,0,1,53.92,48H22V36.92C24.49,39,28,41,31.8,41c.32,0,.65,0,1-.05a1.5,1.5,0,1,0-.28-3c-3,.28-5.86-1.3-8.07-3H58ZM58,32H24.49c9.16-4.56,10.15-8.69,9.24-11.44s-3.85-4.09-6.92-3.38a7.15,7.15,0,0,0-4,2.51A9.85,9.85,0,0,0,22,20.93V14H53.92A4.08,4.08,0,0,1,58,18.08Z"/><path class="cls-1" d="M40,17a1.5,1.5,0,0,0-1.5,1.5v6a1.5,1.5,0,0,0,3,0v-6A1.5,1.5,0,0,0,40,17Z"/><path class="cls-1" d="M46,17a1.5,1.5,0,0,0-1.5,1.5v9a1.5,1.5,0,0,0,3,0v-9A1.5,1.5,0,0,0,46,17Z"/><path class="cls-1" d="M52,20a1.5,1.5,0,0,0-1.5,1.5v6a1.5,1.5,0,0,0,3,0v-6A1.5,1.5,0,0,0,52,20Z"/><path class="cls-1" d="M40,44.5A1.5,1.5,0,0,0,41.5,43V40a1.5,1.5,0,0,0-3,0v3A1.5,1.5,0,0,0,40,44.5Z"/><path class="cls-1" d="M46,44.5A1.5,1.5,0,0,0,47.5,43V40a1.5,1.5,0,0,0-3,0v3A1.5,1.5,0,0,0,46,44.5Z"/><path class="cls-1" d="M52,44.5A1.5,1.5,0,0,0,53.5,43V40a1.5,1.5,0,0,0-3,0v3A1.5,1.5,0,0,0,52,44.5Z"/></svg>
