<svg id="Layer_1" data-name="Layer 1" xmlns="http://www.w3.org/2000/svg" viewBox="0 0 62 62"><defs><style>.cls-1{}</style></defs><title>02 ICON</title><path class="cls-1" d="M14,23.91a.13.13,0,0,0-.08-.23l-1.83-.27a.16.16,0,0,1-.1-.08l-.82-1.66a.14.14,0,0,0-.25,0l-.82,1.66a.15.15,0,0,1-.11.08l-1.83.27a.13.13,0,0,0-.07.23l1.32,1.3a.13.13,0,0,1,0,.12l-.31,1.82a.14.14,0,0,0,.2.15L11,26.44a.15.15,0,0,1,.13,0l1.64.86a.14.14,0,0,0,.2-.15l-.31-1.82a.11.11,0,0,1,0-.12Z"/><path class="cls-1" d="M22,23.91a.13.13,0,0,0-.08-.23l-1.83-.27a.16.16,0,0,1-.1-.08l-.82-1.66a.14.14,0,0,0-.25,0l-.82,1.66a.15.15,0,0,1-.11.08l-1.83.27a.13.13,0,0,0-.07.23l1.32,1.3a.13.13,0,0,1,0,.12l-.31,1.82a.14.14,0,0,0,.2.15L19,26.44a.15.15,0,0,1,.13,0l1.64.86a.14.14,0,0,0,.2-.15l-.31-1.82a.11.11,0,0,1,0-.12Z"/><path class="cls-1" d="M28,33.4a1.5,1.5,0,0,0-1.5,1.5V49.4H23.37V39.9a1.5,1.5,0,0,0-3,0v9.5H17.19V45.9a1.5,1.5,0,0,0-3,0v3.5H11V34.9a1.5,1.5,0,0,0-3,0v16a1.5,1.5,0,0,0,1.5,1.5h25a1.5,1.5,0,0,0,0-3h-5V34.9A1.5,1.5,0,0,0,28,33.4Z"/><path class="cls-1" d="M9.51,12.6h16a1.5,1.5,0,0,0,0-3h-16a1.5,1.5,0,0,0,0,3Z"/><path class="cls-1" d="M9.51,18.6h13a1.5,1.5,0,0,0,0-3h-13a1.5,1.5,0,0,0,0,3Z"/><path class="cls-1" d="M61,19A16,16,0,1,0,43.5,34.93v6.35a4.49,4.49,0,0,0-3,4.22v11a4.5,4.5,0,0,0,9,0v-11a4.49,4.49,0,0,0-3-4.22V34.93A16,16,0,0,0,61,19ZM45,58a1.5,1.5,0,0,1-1.5-1.5v-11a1.5,1.5,0,0,1,3,0v11A1.5,1.5,0,0,1,45,58Zm0-26A13,13,0,1,1,58,19,13,13,0,0,1,45,32Z"/><path class="cls-1" d="M36.16,58a2.38,2.38,0,0,1-1.47-.69,3,3,0,0,0-4.26,0,2.43,2.43,0,0,1-3.44,0,3,3,0,0,0-4.27,0,2.42,2.42,0,0,1-3.43,0,3.06,3.06,0,0,0-2.14-.88,3,3,0,0,0-2.13.89,2.45,2.45,0,0,1-3.44,0,3,3,0,0,0-4.27,0,2.38,2.38,0,0,1-3.3.08V4.62a2.38,2.38,0,0,1,3.3.09,3,3,0,0,0,4.27,0,2.43,2.43,0,0,1,3.44,0,3,3,0,0,0,2.13.89,3,3,0,0,0,2.14-.89,2.44,2.44,0,0,1,3.43,0,3,3,0,0,0,4.27,0,2.45,2.45,0,0,1,3.44,0v0a1.27,1.27,0,0,0,2.12-1c0-1.36-.69-1.76-.69-1.76a5.48,5.48,0,0,0-6.35,0,1.17,1.17,0,0,1-1.36,0,5.48,5.48,0,0,0-6.35,0,1.16,1.16,0,0,1-1.35,0,5.48,5.48,0,0,0-6.35,0A1.17,1.17,0,0,1,8.75,2a5.44,5.44,0,0,0-7,.58L1,3.33V58.66l.75.75a5.42,5.42,0,0,0,7,.57,1.21,1.21,0,0,1,1.36,0,5.45,5.45,0,0,0,6.35,0,1.19,1.19,0,0,1,1.35,0,5.45,5.45,0,0,0,6.35,0,1.21,1.21,0,0,1,1.36,0,5.45,5.45,0,0,0,6.35,0,1.21,1.21,0,0,1,1.36,0,5.38,5.38,0,0,0,2.64,1,1.55,1.55,0,0,0,1.64-1.57A1.46,1.46,0,0,0,36.16,58Z"/><path class="cls-1" d="M49.34,14.8l-5,5a.93.93,0,0,1-1.31,0l-1.63-1.64a1.5,1.5,0,0,0-2.13,2.12l3.07,3.07a1.92,1.92,0,0,0,2.7,0l6.42-6.42a1.5,1.5,0,0,0-2.13-2.12Z"/></svg>