<svg xmlns="http://www.w3.org/2000/svg" width="50.268" height="34.436" viewBox="0 0 50.268 34.436">
  <g id="Group_13940" data-name="Group 13940" transform="translate(-963.178 -616.543)">
    <path id="Path_31263" data-name="Path 31263" d="M-.091,18.01a8.1,8.1,0,0,0,5.959,3.236,8.264,8.264,0,0,0,6.39-2.41L17.2,13.9A8.152,8.152,0,1,0,5.667,2.369L2.837,5.185" transform="translate(997.407 619.943) rotate(45)" fill="none" stroke="#00a859" stroke-linecap="round" stroke-linejoin="round" stroke-width="3"/>
    <path id="Path_31264" data-name="Path 31264" d="M19.648,3.187A8.1,8.1,0,0,0,13.689-.048,8.264,8.264,0,0,0,7.3,2.362L2.361,7.3A8.152,8.152,0,1,0,13.89,18.829L16.7,16.013" transform="translate(980.376 618.761) rotate(45)" fill="none" stroke="#00a859" stroke-linecap="round" stroke-linejoin="round" stroke-width="3"/>
  </g>
</svg>
