<svg id="Layer_1" data-name="Layer 1" xmlns="http://www.w3.org/2000/svg" viewBox="0 0 14 14"><defs><style>.cls-1{fill:#006894;}</style></defs><title>icon</title><path class="cls-1" d="M12.63,7a.89.89,0,0,0-.77-.78.86.86,0,0,0,0-.16c-.06-.56-.65-.93-1.46-1,.32-.75.29-1.45-.16-1.78l-.14-.07a.87.87,0,0,0-.3-1.05.88.88,0,0,0-1.06.27.57.57,0,0,0-.13-.08c-.51-.23-1.13.09-1.62.74-.49-.65-1.11-1-1.62-.74a.57.57,0,0,0-.13.08.88.88,0,0,0-1.06-.27.87.87,0,0,0-.3,1.05l-.14.07c-.45.33-.48,1-.16,1.78-.81.1-1.4.47-1.46,1a.86.86,0,0,0,0,.16A.89.89,0,0,0,1.37,7a.89.89,0,0,0,.77.78.86.86,0,0,0,0,.16c.06.56.65.93,1.46,1-.32.75-.29,1.45.16,1.78l.14.07a.87.87,0,0,0,.3,1,.88.88,0,0,0,1.06-.27.57.57,0,0,0,.13.08c.51.23,1.13-.09,1.62-.74.49.65,1.11,1,1.62.74a.57.57,0,0,0,.13-.08.88.88,0,0,0,1.06.27.87.87,0,0,0,.3-1l.14-.07c.45-.33.48-1,.16-1.78.81-.1,1.4-.47,1.46-1a.86.86,0,0,0,0-.16A.89.89,0,0,0,12.63,7Z"/></svg>