<svg xmlns="http://www.w3.org/2000/svg" width="174" height="295"><defs><filter id="a" x="0" y="0" width="174" height="295" filterUnits="userSpaceOnUse"><feOffset dy="3"/><feGaussianBlur stdDeviation="3" result="blur"/><feFlood flood-opacity=".161"/><feComposite operator="in" in2="blur"/><feComposite in="SourceGraphic"/></filter><filter id="c" x="20" y="22" width="42" height="42" filterUnits="userSpaceOnUse"><feOffset dy="3"/><feGaussianBlur stdDeviation="3" result="blur-2"/><feFlood flood-opacity=".161"/><feComposite operator="in" in2="blur-2"/><feComposite in="SourceGraphic"/></filter><filter id="d" x="20" y="128" width="42" height="42" filterUnits="userSpaceOnUse"><feOffset dy="3"/><feGaussianBlur stdDeviation="3" result="blur-3"/><feFlood flood-opacity=".161"/><feComposite operator="in" in2="blur-3"/><feComposite in="SourceGraphic"/></filter><filter id="e" x="20" y="75" width="42" height="42" filterUnits="userSpaceOnUse"><feOffset dy="3"/><feGaussianBlur stdDeviation="3" result="blur-4"/><feFlood flood-opacity=".161"/><feComposite operator="in" in2="blur-4"/><feComposite in="SourceGraphic"/></filter><filter id="f" x="20" y="181" width="42" height="42" filterUnits="userSpaceOnUse"><feOffset dy="3"/><feGaussianBlur stdDeviation="3" result="blur-5"/><feFlood flood-opacity=".161"/><feComposite operator="in" in2="blur-5"/><feComposite in="SourceGraphic"/></filter><filter id="g" x="20" y="234" width="42" height="42" filterUnits="userSpaceOnUse"><feOffset dy="3"/><feGaussianBlur stdDeviation="3" result="blur-6"/><feFlood flood-opacity=".161"/><feComposite operator="in" in2="blur-6"/><feComposite in="SourceGraphic"/></filter><linearGradient id="b" x1=".8" y1="1" x2=".807" gradientUnits="objectBoundingBox"><stop offset="0" stop-color="#00df62"/><stop offset=".171" stop-color="#00d36c"/><stop offset="1" stop-color="#00b586"/></linearGradient></defs><g data-name="Group 5053" transform="translate(-7 -73)"><g transform="translate(7 73)" filter="url(#a)"><rect data-name="Rectangle 2540" width="156" height="277" rx="5" transform="translate(9 6)" fill="url(#b)"/></g><rect data-name="Rectangle 2541" width="136" height="38" rx="3" transform="translate(26 94)" fill="rgba(255,255,255,0.5)"/><rect data-name="Rectangle 2546" width="136" height="38" rx="3" transform="translate(26 200)" fill="rgba(255,255,255,0.5)"/><rect data-name="Rectangle 2544" width="136" height="38" rx="3" transform="translate(26 147)" fill="rgba(255,255,255,0.5)"/><rect data-name="Rectangle 2547" width="136" height="38" rx="3" transform="translate(26 253)" fill="rgba(255,255,255,0.5)"/><rect data-name="Rectangle 2550" width="136" height="38" rx="3" transform="translate(26 306)" fill="rgba(255,255,255,0.5)"/><g transform="translate(7 73)" filter="url(#c)"><rect data-name="Rectangle 2543" width="24" height="24" rx="3" transform="translate(29 28)" fill="rgba(255,255,255,0.5)"/></g><g transform="translate(7 73)" filter="url(#d)"><rect data-name="Rectangle 2548" width="24" height="24" rx="3" transform="translate(29 134)" fill="rgba(255,255,255,0.5)"/></g><g transform="translate(7 73)" filter="url(#e)"><rect data-name="Rectangle 2545" width="24" height="24" rx="3" transform="translate(29 81)" fill="rgba(255,255,255,0.5)"/></g><g transform="translate(7 73)" filter="url(#f)"><rect data-name="Rectangle 2549" width="24" height="24" rx="3" transform="translate(29 187)" fill="rgba(255,255,255,0.5)"/></g><g transform="translate(7 73)" filter="url(#g)"><rect data-name="Rectangle 2551" width="24" height="24" rx="3" transform="translate(29 240)" fill="rgba(255,255,255,0.5)"/></g></g></svg>