<svg xmlns="http://www.w3.org/2000/svg" width="174" height="295"><defs><filter id="a" x="0" y="0" width="174" height="295" filterUnits="userSpaceOnUse"><feOffset dy="3"/><feGaussianBlur stdDeviation="3" result="blur"/><feFlood flood-opacity=".161"/><feComposite operator="in" in2="blur"/><feComposite in="SourceGraphic"/></filter><filter id="c" x="20" y="22" width="61" height="44" filterUnits="userSpaceOnUse"><feOffset dy="3"/><feGaussianBlur stdDeviation="3" result="blur-2"/><feFlood flood-opacity=".161"/><feComposite operator="in" in2="blur-2"/><feComposite in="SourceGraphic"/></filter><filter id="d" x="20" y="109" width="61" height="44" filterUnits="userSpaceOnUse"><feOffset dy="3"/><feGaussianBlur stdDeviation="3" result="blur-3"/><feFlood flood-opacity=".161"/><feComposite operator="in" in2="blur-3"/><feComposite in="SourceGraphic"/></filter><filter id="e" x="20" y="196" width="61" height="44" filterUnits="userSpaceOnUse"><feOffset dy="3"/><feGaussianBlur stdDeviation="3" result="blur-4"/><feFlood flood-opacity=".161"/><feComposite operator="in" in2="blur-4"/><feComposite in="SourceGraphic"/></filter><filter id="f" x="93" y="22" width="61" height="44" filterUnits="userSpaceOnUse"><feOffset dy="3"/><feGaussianBlur stdDeviation="3" result="blur-5"/><feFlood flood-opacity=".161"/><feComposite operator="in" in2="blur-5"/><feComposite in="SourceGraphic"/></filter><filter id="g" x="93" y="109" width="61" height="44" filterUnits="userSpaceOnUse"><feOffset dy="3"/><feGaussianBlur stdDeviation="3" result="blur-6"/><feFlood flood-opacity=".161"/><feComposite operator="in" in2="blur-6"/><feComposite in="SourceGraphic"/></filter><filter id="h" x="93" y="196" width="61" height="44" filterUnits="userSpaceOnUse"><feOffset dy="3"/><feGaussianBlur stdDeviation="3" result="blur-7"/><feFlood flood-opacity=".161"/><feComposite operator="in" in2="blur-7"/><feComposite in="SourceGraphic"/></filter><linearGradient id="b" x1=".8" y1="1" x2=".807" gradientUnits="objectBoundingBox"><stop offset="0" stop-color="#00df62"/><stop offset=".171" stop-color="#00d36c"/><stop offset="1" stop-color="#00b586"/></linearGradient></defs><g data-name="Group 5054" transform="translate(-179 -73)"><g transform="translate(179 73)" filter="url(#a)"><rect data-name="Rectangle 2552" width="156" height="277" rx="5" transform="translate(9 6)" fill="url(#b)"/></g><rect data-name="Rectangle 2553" width="63" height="72" rx="3" transform="translate(198 94)" fill="rgba(255,255,255,0.5)"/><rect data-name="Rectangle 2560" width="63" height="72" rx="3" transform="translate(198 181)" fill="rgba(255,255,255,0.5)"/><rect data-name="Rectangle 2564" width="63" height="72" rx="3" transform="translate(198 268)" fill="rgba(255,255,255,0.5)"/><rect data-name="Rectangle 2557" width="63" height="72" rx="3" transform="translate(271 94)" fill="rgba(255,255,255,0.5)"/><rect data-name="Rectangle 2559" width="63" height="72" rx="3" transform="translate(271 181)" fill="rgba(255,255,255,0.5)"/><rect data-name="Rectangle 2563" width="63" height="72" rx="3" transform="translate(271 268)" fill="rgba(255,255,255,0.5)"/><g transform="translate(179 73)" filter="url(#c)"><rect data-name="Rectangle 2556" width="43" height="26" rx="3" transform="translate(29 28)" fill="rgba(255,255,255,0.5)"/></g><g transform="translate(179 73)" filter="url(#d)"><rect data-name="Rectangle 2561" width="43" height="26" rx="3" transform="translate(29 115)" fill="rgba(255,255,255,0.5)"/></g><g transform="translate(179 73)" filter="url(#e)"><rect data-name="Rectangle 2565" width="43" height="26" rx="3" transform="translate(29 202)" fill="rgba(255,255,255,0.5)"/></g><g transform="translate(179 73)" filter="url(#f)"><rect data-name="Rectangle 2558" width="43" height="26" rx="3" transform="translate(102 28)" fill="rgba(255,255,255,0.5)"/></g><g transform="translate(179 73)" filter="url(#g)"><rect data-name="Rectangle 2562" width="43" height="26" rx="3" transform="translate(102 115)" fill="rgba(255,255,255,0.5)"/></g><g transform="translate(179 73)" filter="url(#h)"><rect data-name="Rectangle 2566" width="43" height="26" rx="3" transform="translate(102 202)" fill="rgba(255,255,255,0.5)"/></g></g></svg>