<svg xmlns="http://www.w3.org/2000/svg" width="18" height="18" viewBox="0 0 18 18">
  <path id="Path_31241" data-name="Path 31241" d="M252.831,646.331H238.764A1.97,1.97,0,0,0,236.8,648.3v1.565a1.948,1.948,0,0,0,.152.754.866.866,0,0,0,.227.452l6.121,6.121v5.325a1.818,1.818,0,0,0,1.816,1.815h1.37a1.816,1.816,0,0,0,1.814-1.815v-5.325l6.122-6.121a.866.866,0,0,0,.227-.452,1.951,1.951,0,0,0,.151-.754V648.3A1.969,1.969,0,0,0,252.831,646.331ZM246.8,656.57v3.386h0v2.561a.315.315,0,0,1-.315.315h-1.37a.315.315,0,0,1-.315-.315V656.57h0l-4.738-4.739h11.477Zm6.5-6.706a.467.467,0,0,1-.467.467H238.765a.468.468,0,0,1-.468-.467V648.3a.469.469,0,0,1,.468-.468H252.83a.468.468,0,0,1,.467.468Z" transform="translate(-236.797 -646.33)" fill="#1a1818"/>
</svg>
