<svg id="Layer_1" enable-background="new 0 0 512 512" height="512" viewBox="0 0 512 512" width="512" xmlns="http://www.w3.org/2000/svg"><g><path d="m155.754 442.571 57.524-143.813 48.182 48.182c7.163 7.594 20.939 4.768 24.534-5.035l55.818-139.545 48.182 48.181c7.412 7.868 21.728 4.492 24.836-5.863l64.267-192.8c2.62-7.859-1.628-16.354-9.487-18.974-7.861-2.619-16.354 1.629-18.974 9.487l-56.591 169.774-47.105-47.104c-7.164-7.596-20.938-4.767-24.534 5.035l-55.818 139.546-48.182-48.182c-7.163-7.593-20.939-4.768-24.534 5.035l-62.201 155.505h-71.671v30h81.827c6.133 0 11.649-3.734 13.927-9.429z"/><path d="m497 482h-467v-467c0-8.284-6.716-15-15-15s-15 6.716-15 15v482c0 8.284 6.716 15 15 15h482c8.284 0 15-6.716 15-15s-6.716-15-15-15z"/></g></svg>