<svg xmlns="http://www.w3.org/2000/svg" width="20" height="20" viewBox="0 0 20 20">
                            
                            <g transform="translate(-547 -455.441)">
                                <path fill="var(--ion-color-vh-green)"
                                    d="M557.746,463.933A2.746,2.746,0,1,0,555,461.187,2.749,2.749,0,0,0,557.746,463.933Zm0-4.119a1.373,1.373,0,1,1-1.373,1.373A1.373,1.373,0,0,1,557.746,459.814Z"
                                    transform="translate(-0.746 -0.254)" />
                                <path fill="var(--ion-color-vh-green)"
                                    d="M557.415,471.435v.023l.009-.012.009.012v-.023c5.406-6.419,5.441-9.9,5.411-10.425,0-.027,0-.051,0-.078a5.424,5.424,0,1,0-10.847,0c0,.026,0,.052,0,.078C551.974,461.535,552.011,465.019,557.415,471.435Zm.009-14.621a4.1,4.1,0,0,1,4.068,4.089l0,.05v.089l0,.048c.007.122.108,2.841-4.066,8.194-4.172-5.352-4.073-8.073-4.066-8.194l0-.05v-.051c0-.029,0-.058,0-.088A4.1,4.1,0,0,1,557.424,456.814Z"
                                    transform="translate(-0.424)" />
                                <path fill="var(--ion-color-vh-green)"
                                    d="M561.4,468.9c-.242.4-.516.812-.807,1.239,3.194.544,5.045,1.728,5.045,2.456,0,.968-3.279,2.746-8.636,2.746s-8.636-1.777-8.636-2.746c0-.728,1.852-1.912,5.046-2.456-.292-.427-.566-.845-.808-1.239-3.315.671-5.6,2.071-5.6,3.7,0,2.274,4.477,4.119,10,4.119s10-1.844,10-4.119C567,470.975,564.713,469.575,561.4,468.9Z"
                                    transform="translate(0 -1.277)" />
                            </g>
                        </svg>