<svg xmlns="http://www.w3.org/2000/svg" width="60" height="60" viewBox="0 0 60 60">
  <g id="Group_15085" data-name="Group 15085" transform="translate(-182.614 -249)">
    <g id="Group_57638" data-name="Group 57638" transform="translate(363.373 19.882)">
      <path id="Path_141518" data-name="Path 141518" d="M-141.764,282.618a1.5,1.5,0,0,0,1.5-1.5v-3a1.5,1.5,0,0,0-1.5-1.5,1.5,1.5,0,0,0-1.5,1.5v3A1.5,1.5,0,0,0-141.764,282.618Z"  />
      <path id="Path_141519" data-name="Path 141519" d="M-147.793,276.618a1.5,1.5,0,0,0-1.5,1.5v3a1.5,1.5,0,0,0,1.5,1.5,1.5,1.5,0,0,0,1.5-1.5v-3A1.5,1.5,0,0,0-147.793,276.618Z"  />
      <path id="Path_141520" data-name="Path 141520" d="M-135.764,282.618a1.5,1.5,0,0,0,1.5-1.5v-3a1.5,1.5,0,0,0-1.5-1.5,1.5,1.5,0,0,0-1.5,1.5v3A1.5,1.5,0,0,0-135.764,282.618Z"  />
      <path id="Path_141521" data-name="Path 141521" d="M-129.764,282.618a1.5,1.5,0,0,0,1.5-1.5v-3a1.5,1.5,0,0,0-1.5-1.5,1.5,1.5,0,0,0-1.5,1.5v3A1.5,1.5,0,0,0-129.764,282.618Z"  />
      <path id="Path_141522" data-name="Path 141522" d="M-127.841,250.118h-6.786v-3.9l-4.133-6.308v-7.8h2.5a1.5,1.5,0,0,0,1.5-1.5,1.5,1.5,0,0,0-1.5-1.5h-29a1.5,1.5,0,0,0-1.5,1.5,1.5,1.5,0,0,0,1.5,1.5h2.5v7.8l-6.685,10.2h-4.232a7.089,7.089,0,0,0-7.082,7.082v24.835a7.09,7.09,0,0,0,7.082,7.083h45.836a7.091,7.091,0,0,0,7.082-7.083V257.2A7.089,7.089,0,0,0-127.841,250.118Zm-32.164-8.934a1.487,1.487,0,0,0,.233-.949c0-.039.012-.077.012-.117v-8h18v8c0,.04.009.078.012.118a1.479,1.479,0,0,0,.234.948l3.645,5.563a1.489,1.489,0,0,1,.242.814v2.557h-8.051a6.269,6.269,0,0,0,.436-2.29v-2.21a1.5,1.5,0,0,0-1.5-1.5,1.5,1.5,0,0,0-1.5,1.5v2.21a3.29,3.29,0,0,1-3.289,3.29h-3.211a1.5,1.5,0,0,0-1.39.942,1.545,1.545,0,0,0-.127.613v7.944a.5.5,0,0,1-.5.5h-1a2,2,0,0,1-2-2v-8.5a1.5,1.5,0,0,0-1.5-1.5h0a1.494,1.494,0,0,0-1.408,1h-3.192Zm-2.754,33.857v11.077h-10.918a4.087,4.087,0,0,1-4.082-4.083v-8.917h15Zm0-9.129v4.206h-15V257.2a4.086,4.086,0,0,1,4.082-4.082h10.918v12.794Zm39,16.123a4.087,4.087,0,0,1-4.082,4.083h-31.918v-13h36Zm0-11.917h-36V263.7a4.963,4.963,0,0,0,2,.423h1a3.5,3.5,0,0,0,3.5-3.5v-6.5h1.728a6.255,6.255,0,0,0,3.394-1h20.3a4.086,4.086,0,0,1,4.082,4.082Z"  />
    </g>
  </g>
</svg>
