<svg id="Layer_1" data-name="Layer 1" xmlns="http://www.w3.org/2000/svg" viewBox="0 0 65 65"><defs> </defs><title>em va may</title><path class="cls-1" d="M61,59.5H4a1.5,1.5,0,0,0,0,3H61a1.5,1.5,0,0,0,0-3Z"/><circle class="cls-1" cx="32.5" cy="45" r="2"/><path class="cls-1" d="M7,53.54a4.26,4.26,0,0,0,4.1,3H53.87a4.25,4.25,0,0,0,4.1-3l4.37-14.85a3.92,3.92,0,0,0-.64-3.48,4.33,4.33,0,0,0-3.46-1.7H6.76A4.33,4.33,0,0,0,3.3,35.2a3.92,3.92,0,0,0-.64,3.48Zm-.27-17H58.24a1.12,1.12,0,0,1,1.22,1.33L55.09,52.69a1.23,1.23,0,0,1-1.22.81H11.13a1.23,1.23,0,0,1-1.22-.81L5.54,37.83A1.12,1.12,0,0,1,6.76,36.5Z"/><path class="cls-1" d="M32.24,21.42h.26A13.41,13.41,0,0,1,45.26,30.5h3.83A16.11,16.11,0,0,0,38.37,19.37,9.45,9.45,0,0,0,32.52,2.5h-.2a9.43,9.43,0,0,0-5.7,16.87A16.08,16.08,0,0,0,15.92,30.5h3.81A13.43,13.43,0,0,1,32.24,21.42ZM26,11.79A6.43,6.43,0,0,1,32.37,5.5h.13a6.46,6.46,0,0,1,.18,12.92h-.36A6.47,6.47,0,0,1,26,11.79Z"/></svg>