<svg id="Layer_1" data-name="Layer 1" xmlns="http://www.w3.org/2000/svg" viewBox="0 0 61 61"><defs><style>.cls-1{fill:}</style></defs><title>in tem</title><path class="cls-1" d="M55.7.5H20.3a4.8,4.8,0,0,0-4.8,4.8V8H12.8A4.8,4.8,0,0,0,8,12.8v2.7H5.3A4.8,4.8,0,0,0,.5,20.3V55.7a4.8,4.8,0,0,0,4.8,4.8H40.7a4.8,4.8,0,0,0,4.8-4.8V53h2.7A4.8,4.8,0,0,0,53,48.2V45.5h2.7a4.8,4.8,0,0,0,4.8-4.8V5.3A4.8,4.8,0,0,0,55.7.5ZM42.5,55.7a1.81,1.81,0,0,1-1.8,1.8H5.3a1.81,1.81,0,0,1-1.8-1.8V20.3a1.81,1.81,0,0,1,1.8-1.8H40.7a1.81,1.81,0,0,1,1.8,1.8ZM50,48.2A1.81,1.81,0,0,1,48.2,50H45.5V20.3a4.8,4.8,0,0,0-4.8-4.8H11V12.8A1.81,1.81,0,0,1,12.8,11H48.2A1.81,1.81,0,0,1,50,12.8Zm7.5-7.5a1.81,1.81,0,0,1-1.8,1.8H53V12.8A4.8,4.8,0,0,0,48.2,8H18.5V5.3a1.81,1.81,0,0,1,1.8-1.8H55.7a1.81,1.81,0,0,1,1.8,1.8Z"/><path class="cls-1" d="M20.5,24A1.5,1.5,0,0,0,19,22.5H17A1.5,1.5,0,0,0,15.5,24V38.5h5Z"/><path class="cls-1" d="M35,22.5H34A1.5,1.5,0,0,0,32.5,24V38.5h4V24A1.5,1.5,0,0,0,35,22.5Z"/><path class="cls-1" d="M11.5,24a1.5,1.5,0,0,0-3,0V38.5h3Z"/><path class="cls-1" d="M28.5,24a1.5,1.5,0,0,0-3,0V38.5h3Z"/><path class="cls-1" d="M8.5,52a1.5,1.5,0,0,0,3,0V47.5h-3Z"/><path class="cls-1" d="M32.5,52A1.5,1.5,0,0,0,34,53.5h1A1.5,1.5,0,0,0,36.5,52V47.5h-4Z"/><path class="cls-1" d="M15.5,52A1.5,1.5,0,0,0,17,53.5h2A1.5,1.5,0,0,0,20.5,52V47.5h-5Z"/><path class="cls-1" d="M25.5,52a1.5,1.5,0,0,0,3,0V47.5h-3Z"/><rect class="cls-1" x="8.5" y="41.5" width="28" height="3" rx="1"/></svg>
