<svg xmlns="http://www.w3.org/2000/svg" width="53.906" height="60" viewBox="0 0 53.906 60"><defs><style>.a{fill:#00a859;}</style></defs><g transform="translate(-26)"><path class="a" d="M78.734,14.063H56.469V1.172A1.172,1.172,0,0,0,55.3,0H27.172A1.172,1.172,0,0,0,26,1.172V58.828A1.172,1.172,0,0,0,27.172,60H78.734a1.172,1.172,0,0,0,1.172-1.172V15.235A1.172,1.172,0,0,0,78.734,14.063ZM56.469,16.407H77.563V45.937H56.469ZM37.719,57.656V48.281H44.75v9.375Zm8.2-11.719H36.547a1.172,1.172,0,0,0-1.172,1.172V57.656H28.344V2.344H54.125V57.656H47.094V47.109A1.172,1.172,0,0,0,45.922,45.937ZM56.469,57.656V48.281H77.562v9.375Z"/><path class="a" d="M137.162,44.652h2.325a1.163,1.163,0,0,0,1.163-1.163V41.164A1.163,1.163,0,0,0,139.487,40h-2.325A1.163,1.163,0,0,0,136,41.164v2.325A1.163,1.163,0,0,0,137.162,44.652Z" transform="translate(-97.099 -35.35)"/><path class="a" d="M137.162,114.652h2.325a1.163,1.163,0,0,0,1.163-1.163v-2.325A1.163,1.163,0,0,0,139.487,110h-2.325A1.163,1.163,0,0,0,136,111.164v2.325A1.163,1.163,0,0,0,137.162,114.652Z" transform="translate(-97.099 -97.102)"/><path class="a" d="M137.162,184.652h2.325a1.163,1.163,0,0,0,1.163-1.163v-2.325A1.163,1.163,0,0,0,139.487,180h-2.325A1.163,1.163,0,0,0,136,181.164v2.325A1.163,1.163,0,0,0,137.162,184.652Z" transform="translate(-97.099 -158.893)"/><path class="a" d="M137.162,254.651h2.325a1.163,1.163,0,0,0,1.163-1.163v-2.325A1.163,1.163,0,0,0,139.487,250h-2.325A1.163,1.163,0,0,0,136,251.163v2.325A1.163,1.163,0,0,0,137.162,254.651Z" transform="translate(-97.099 -220.684)"/><path class="a" d="M137.162,324.651h2.325a1.163,1.163,0,0,0,1.163-1.163v-2.325A1.163,1.163,0,0,0,139.487,320h-2.325A1.163,1.163,0,0,0,136,321.163v2.325A1.163,1.163,0,0,0,137.162,324.651Z" transform="translate(-97.099 -282.475)"/><path class="a" d="M67.164,44.652h2.325a1.163,1.163,0,0,0,1.163-1.163V41.164A1.163,1.163,0,0,0,69.489,40H67.164A1.163,1.163,0,0,0,66,41.164v2.325A1.163,1.163,0,0,0,67.164,44.652Z" transform="translate(-35.35 -35.35)"/><path class="a" d="M67.164,114.652h2.325a1.163,1.163,0,0,0,1.163-1.163v-2.325A1.163,1.163,0,0,0,69.489,110H67.164A1.163,1.163,0,0,0,66,111.164v2.325A1.163,1.163,0,0,0,67.164,114.652Z" transform="translate(-35.35 -97.102)"/><path class="a" d="M67.164,184.652h2.325a1.163,1.163,0,0,0,1.163-1.163v-2.325A1.163,1.163,0,0,0,69.489,180H67.164A1.163,1.163,0,0,0,66,181.164v2.325A1.163,1.163,0,0,0,67.164,184.652Z" transform="translate(-35.35 -158.893)"/><path class="a" d="M67.164,254.651h2.325a1.163,1.163,0,0,0,1.163-1.163v-2.325A1.163,1.163,0,0,0,69.489,250H67.164A1.163,1.163,0,0,0,66,251.163v2.325A1.163,1.163,0,0,0,67.164,254.651Z" transform="translate(-35.35 -220.684)"/><path class="a" d="M67.164,324.651h2.325a1.163,1.163,0,0,0,1.163-1.163v-2.325A1.163,1.163,0,0,0,69.489,320H67.164A1.163,1.163,0,0,0,66,321.163v2.325A1.163,1.163,0,0,0,67.164,324.651Z" transform="translate(-35.35 -282.475)"/><path class="a" d="M209.489,40h-2.325A1.163,1.163,0,0,0,206,41.164v2.325a1.163,1.163,0,0,0,1.163,1.163h2.325a1.163,1.163,0,0,0,1.163-1.163V41.164A1.163,1.163,0,0,0,209.489,40Z" transform="translate(-158.891 -35.35)"/><path class="a" d="M209.489,110h-2.325A1.163,1.163,0,0,0,206,111.163v2.325a1.163,1.163,0,0,0,1.163,1.163h2.325a1.163,1.163,0,0,0,1.163-1.163v-2.325A1.163,1.163,0,0,0,209.489,110Z" transform="translate(-158.891 -97.101)"/><path class="a" d="M209.489,180h-2.325A1.163,1.163,0,0,0,206,181.163v2.325a1.163,1.163,0,0,0,1.163,1.163h2.325a1.163,1.163,0,0,0,1.163-1.163v-2.325A1.163,1.163,0,0,0,209.489,180Z" transform="translate(-158.891 -158.892)"/><path class="a" d="M209.489,250h-2.325A1.163,1.163,0,0,0,206,251.163v2.325a1.163,1.163,0,0,0,1.163,1.163h2.325a1.163,1.163,0,0,0,1.163-1.163v-2.325A1.163,1.163,0,0,0,209.489,250Z" transform="translate(-158.891 -220.684)"/><path class="a" d="M209.489,320h-2.325A1.163,1.163,0,0,0,206,321.163v2.325a1.163,1.163,0,0,0,1.163,1.163h2.325a1.163,1.163,0,0,0,1.163-1.163v-2.325A1.163,1.163,0,0,0,209.489,320Z" transform="translate(-158.891 -282.475)"/><path class="a" d="M394.488,180h-2.325A1.163,1.163,0,0,0,391,181.163v2.325a1.163,1.163,0,0,0,1.163,1.163h2.325a1.163,1.163,0,0,0,1.163-1.163v-2.325A1.163,1.163,0,0,0,394.488,180Z" transform="translate(-322.139 -158.892)"/><path class="a" d="M394.488,250h-2.325A1.163,1.163,0,0,0,391,251.163v2.325a1.163,1.163,0,0,0,1.163,1.163h2.325a1.163,1.163,0,0,0,1.163-1.163v-2.325A1.163,1.163,0,0,0,394.488,250Z" transform="translate(-322.139 -220.684)"/><path class="a" d="M394.488,320h-2.325A1.163,1.163,0,0,0,391,321.163v2.325a1.163,1.163,0,0,0,1.163,1.163h2.325a1.163,1.163,0,0,0,1.163-1.163v-2.325A1.163,1.163,0,0,0,394.488,320Z" transform="translate(-322.139 -282.475)"/><path class="a" d="M324.49,180h-2.325A1.163,1.163,0,0,0,321,181.163v2.325a1.163,1.163,0,0,0,1.163,1.163h2.325a1.163,1.163,0,0,0,1.163-1.163v-2.325A1.163,1.163,0,0,0,324.49,180Z" transform="translate(-260.406 -158.892)"/><path class="a" d="M324.49,250h-2.325A1.163,1.163,0,0,0,321,251.163v2.325a1.163,1.163,0,0,0,1.163,1.163h2.325a1.163,1.163,0,0,0,1.163-1.163v-2.325A1.163,1.163,0,0,0,324.49,250Z" transform="translate(-260.406 -220.684)"/><path class="a" d="M324.49,320h-2.325A1.163,1.163,0,0,0,321,321.163v2.325a1.163,1.163,0,0,0,1.163,1.163h2.325a1.163,1.163,0,0,0,1.163-1.163v-2.325A1.163,1.163,0,0,0,324.49,320Z" transform="translate(-260.406 -282.475)"/></g></svg>