<svg xmlns="http://www.w3.org/2000/svg" width="60" height="60" viewBox="0 0 60 60">
  <g id="Line_stroke_cut_Ex" data-name="Line stroke cut Ex" transform="translate(-15.999 -16.451)">
    <g id="Group_57639" data-name="Group 57639" transform="translate(11.457 -223.667)">
      <path id="Path_141523" data-name="Path 141523" d="M43.537,275.618a1.5,1.5,0,0,0-1.5,1.5v3a1.5,1.5,0,0,0,3,0v-3A1.5,1.5,0,0,0,43.537,275.618Z"  />
      <path id="Path_141524" data-name="Path 141524" d="M49.537,275.618a1.5,1.5,0,0,0-1.5,1.5v3a1.5,1.5,0,0,0,3,0v-3A1.5,1.5,0,0,0,49.537,275.618Z"  />
      <path id="Path_141525" data-name="Path 141525" d="M55.537,275.618a1.5,1.5,0,0,0-1.5,1.5v3a1.5,1.5,0,0,0,3,0v-3A1.5,1.5,0,0,0,55.537,275.618Z"  />
      <path id="Path_141526" data-name="Path 141526" d="M58.63,240.118H28.453a5.918,5.918,0,0,0-5.911,5.912v10.737c-2.974,1.226-18,7.963-18,18.968v22.883h0a1.5,1.5,0,0,0,1.5,1.5h24.65a1.5,1.5,0,0,0,1.5-1.5c0-.011,0-.021,0-.031v-2.4a17.19,17.19,0,0,0,5.471-8.067H58.63a5.919,5.919,0,0,0,5.912-5.913V246.03A5.919,5.919,0,0,0,58.63,240.118Zm0,3a2.911,2.911,0,0,1,2.912,2.911v23.089H51.037v-26Zm-33.088,2.911a2.911,2.911,0,0,1,2.911-2.911H48.037v26h-14.6a7.124,7.124,0,0,0-1.13-3.194,4.253,4.253,0,0,0-3.084-1.785,4.424,4.424,0,0,0-3.515,1.221l-.167.161ZM29.853,294.2l-.664.445v2.477H7.542V275.735c0-8.055,10.87-13.8,15-15.689v8.362L12,278.551a1.5,1.5,0,0,0,2.08,2.162l13.707-13.191a1.426,1.426,0,0,1,1.145-.4,1.257,1.257,0,0,1,.917.521,5.453,5.453,0,0,1,.69,2.959,6.562,6.562,0,0,1-2.763,5.765,5.926,5.926,0,0,0-2.152,2.9,16.479,16.479,0,0,0-.284,1.762c-.426,3.277-1.137,8.763-6.69,10.132a1.5,1.5,0,1,0,.718,2.913,10.443,10.443,0,0,0,7.359-6.216,5.883,5.883,0,0,0,1.724.26h6.03A14.017,14.017,0,0,1,29.853,294.2Zm28.777-9.078H28.453a2.793,2.793,0,0,1-.764-.109,32.272,32.272,0,0,0,.628-3.6c.078-.6.145-1.122.219-1.417.1-.376.622-.842,1.232-1.383a9.483,9.483,0,0,0,3.7-6.5H61.542v10.088A2.912,2.912,0,0,1,58.63,285.118Z" />
    </g>
  </g>
</svg>
