<svg xmlns="http://www.w3.org/2000/svg" width="60" height="60" viewBox="0 0 60 60"><defs><style>.a{fill:#00a859;}</style></defs><g transform="translate(0 0)"><path class="a" d="M51.213,8.787A30,30,0,0,0,8.787,51.213a30.012,30.012,0,0,0,36.736,4.463,2.344,2.344,0,1,0-2.428-4.009,25.537,25.537,0,1,1,7.926-7.618,2.344,2.344,0,1,0,3.9,2.605,29.926,29.926,0,0,0-3.7-37.868Z" transform="translate(0 0)"/></g><g transform="translate(18.384 8.893)"><path class="a" d="M168.411,76a2.34,2.34,0,0,0-2.34,2.34V96.092l-8.581,8.581a2.34,2.34,0,1,0,3.309,3.309l9.267-9.267a2.34,2.34,0,0,0,.685-1.655V78.34A2.34,2.34,0,0,0,168.411,76Z" transform="translate(-156.804 -76)"/></g></svg>