<svg xmlns="http://www.w3.org/2000/svg" width="60" height="60" viewBox="0 0 60 60"><defs><style>.a{fill:#00a859;}</style></defs><g transform="translate(12.857)"><path class="a" d="M104.543,0A2.143,2.143,0,0,0,102.4,2.143V6.429h4.286V2.143A2.143,2.143,0,0,0,104.543,0Z" transform="translate(-102.4)"/></g><g transform="translate(42.857)"><path class="a" d="M343.476,0a2.143,2.143,0,0,0-2.143,2.143V6.429h4.286V2.143A2.143,2.143,0,0,0,343.476,0Z" transform="translate(-341.333)"/></g><g transform="translate(0 6.429)"><path class="a" d="M53.572,51.2H47.143v8.571a2.143,2.143,0,0,1-4.286,0V51.2H17.143v8.571a2.143,2.143,0,0,1-4.286,0V51.2H6.429A6.429,6.429,0,0,0,0,57.629V98.343a6.429,6.429,0,0,0,6.429,6.429H53.572A6.429,6.429,0,0,0,60,98.343V57.629A6.429,6.429,0,0,0,53.572,51.2Zm2.143,47.143a2.143,2.143,0,0,1-2.143,2.143H6.429a2.143,2.143,0,0,1-2.143-2.143V70.486H55.714Z" transform="translate(0 -51.2)"/></g><g transform="translate(15 30.001)"><path class="a" d="M148.836,239.566a2.143,2.143,0,0,0-3.031,0l-15.628,15.628-7.057-7.056a2.143,2.143,0,1,0-3.03,3.032l8.571,8.571a2.143,2.143,0,0,0,3.03,0L148.835,242.6A2.143,2.143,0,0,0,148.836,239.566Z" transform="translate(-119.463 -238.938)"/></g></svg>