<svg xmlns="http://www.w3.org/2000/svg" width="86.545" height="60" viewBox="0 0 86.545 60"><defs><style>.a{}</style></defs><g transform="translate(0 -78.521)"><g transform="translate(54.535 116.757)"><path class="a" d="M333.033,304.4a10.882,10.882,0,1,0,10.882,10.882A10.894,10.894,0,0,0,333.033,304.4Zm0,16.323a5.441,5.441,0,1,1,5.441-5.441A5.446,5.446,0,0,1,333.033,320.726Z" transform="translate(-322.151 -304.403)"/></g><g transform="translate(17.196 116.757)"><path class="a" d="M112.529,304.4a10.882,10.882,0,1,0,10.882,10.882A10.894,10.894,0,0,0,112.529,304.4Zm0,16.323a5.441,5.441,0,1,1,5.441-5.441A5.446,5.446,0,0,1,112.529,320.726Z" transform="translate(-101.647 -304.403)"/></g><g transform="translate(55.986 83.962)"><path class="a" d="M347.515,112.288a2.722,2.722,0,0,0-2.431-1.5H330.756v5.441h12.65l7.408,14.734,4.862-2.445Z" transform="translate(-330.756 -110.79)"/></g><g transform="translate(36.574 125.01)"><rect class="a" width="20.585" height="5.441"/></g><g transform="translate(7.708 125.01)"><path class="a" d="M57.866,353.345H48.435a2.72,2.72,0,1,0,0,5.441h9.431a2.72,2.72,0,1,0,0-5.441Z" transform="translate(-45.715 -353.345)"/></g><g transform="translate(7.708 78.521)"><path class="a" d="M123.98,108.314l-5.366-6.912a2.724,2.724,0,0,0-2.154-1.055H96.637v-19.1a2.728,2.728,0,0,0-2.728-2.728H48.443a2.728,2.728,0,0,0,0,5.457H91.181v19.1a2.728,2.728,0,0,0,2.728,2.728h21.215l3.973,5.118v14.071h-7.547a2.728,2.728,0,0,0,0,5.457h10.275a2.728,2.728,0,0,0,2.728-2.728V109.988A2.732,2.732,0,0,0,123.98,108.314Z" transform="translate(-45.715 -78.521)"/></g><g transform="translate(4.443 111.166)"><path class="a" d="M41.588,271.6H29.073a2.72,2.72,0,1,0,0,5.441H41.587a2.72,2.72,0,0,0,0-5.441Z" transform="translate(-26.353 -271.597)"/></g><g transform="translate(0 100.436)"><path class="a" d="M25.935,208.134H2.72a2.72,2.72,0,0,0,0,5.441H25.935a2.72,2.72,0,0,0,0-5.441Z" transform="translate(0 -208.134)"/></g><g transform="translate(4.443 89.706)"><path class="a" d="M52.288,144.672H29.073a2.72,2.72,0,1,0,0,5.441H52.288a2.72,2.72,0,1,0,0-5.441Z" transform="translate(-26.353 -144.672)"/></g></g></svg>