<svg xmlns="http://www.w3.org/2000/svg" width="60" height="60" viewBox="0 0 60 60">
  <path id="Path_4974" data-name="Path 4974" d="M799.961,603.887l-16.678-9.629a4.376,4.376,0,0,0-5.971,1.6l-1.629,2.821a4.377,4.377,0,0,0,1.6,5.971l.329.19-7.2,2.967L767,611.227A27.534,27.534,0,0,0,761.557,610l-2.8-.4.115-.43a4.376,4.376,0,0,0-3.09-5.354l-3.147-.843a4.377,4.377,0,0,0-5.354,3.091l-4.984,18.6a4.376,4.376,0,0,0,3.091,5.353l3.147.843a4.35,4.35,0,0,0,3.837-.81l3.213,3.213a4.467,4.467,0,0,0-.987,1.488,4.522,4.522,0,0,0,0,3.388,4.455,4.455,0,0,0,3.936,2.782,4.691,4.691,0,0,0,.111.8,4.4,4.4,0,0,0,3.334,3.334,4.685,4.685,0,0,0,.8.111,4.609,4.609,0,0,0,.361,1.57,4.375,4.375,0,0,0,.933,1.379,4.431,4.431,0,0,1,4.243,4.243,4.5,4.5,0,0,0,6.364,0l2.121-2.121a4.459,4.459,0,0,0,.882-1.288,5,5,0,0,0,1.178.737,4.811,4.811,0,0,0,1.314.376,4.5,4.5,0,0,0,1.356-.02,4.245,4.245,0,0,0,1.306-.451,6.133,6.133,0,0,1,7.4-2.891,4.363,4.363,0,0,0,.55-.673,4.685,4.685,0,0,0,.4-.744,4.537,4.537,0,0,0,2.487.594,4.477,4.477,0,0,0,3.664-2.256,4.2,4.2,0,0,0,.573-2.143,4.73,4.73,0,0,0-.529-2.15,4.977,4.977,0,0,0-.4-.644,4.83,4.83,0,0,0-.5-.583l-5.572-5.573a15.191,15.191,0,0,0,2.739-5.951l2.07-11.742a4.37,4.37,0,0,0,4.212-2.155l1.629-2.821A4.376,4.376,0,0,0,799.961,603.887Zm-48.973,23.107a1.371,1.371,0,0,1-1.679.97l-3.147-.843a1.371,1.371,0,0,1-.97-1.68l4.985-18.6a1.371,1.371,0,0,1,1.679-.97l3.147.843a1.372,1.372,0,0,1,.969,1.68Zm8.342,10.842a1.512,1.512,0,0,1-.565.11,1.5,1.5,0,0,1-1.06-.439h0a1.5,1.5,0,0,1,0-2.122l1.06-1.06,1.061-1.061h0a1.5,1.5,0,0,1,2.121,0h0a1.5,1.5,0,0,1,0,2.121h0l-2.121,2.121A1.5,1.5,0,0,1,759.33,637.836Zm3.224,4.265a1.467,1.467,0,0,1-.606-.351h0a1.5,1.5,0,0,1,0-2.122l2.121-2.121a1.5,1.5,0,0,1,2.121,0h0a1.5,1.5,0,0,1,0,2.121h0l-2.121,2.121A1.487,1.487,0,0,1,762.554,642.1Zm4.7,4.331a1.493,1.493,0,0,1-1.06-.439h0a1.5,1.5,0,0,1,0-2.122l2.121-2.121a1.5,1.5,0,0,1,2.121,0h0a1.5,1.5,0,0,1,0,2.121h0l-2.121,2.121A1.5,1.5,0,0,1,767.251,646.432Zm7.425,1.682-2.121,2.122a1.5,1.5,0,0,1-2.121,0h0a1.5,1.5,0,0,1,0-2.122l2.121-2.121a1.5,1.5,0,0,1,2.121,0h0A1.5,1.5,0,0,1,774.676,648.114Zm19.8-7.779a1.5,1.5,0,1,1-2.121,2.122l-2.121-2.122-4.95-4.949-4.246-4.247a1.5,1.5,0,0,0-2.114,0,1.5,1.5,0,0,0,0,2.13l9.188,9.188a1.5,1.5,0,1,1-2.121,2.121l-2.122-2.121-8.131-8.132-1.055-1.055a1.508,1.508,0,0,0-2.133,0,1.493,1.493,0,0,0,0,2.111l9.2,9.2a1.5,1.5,0,0,1-2.121,2.121l-2.829-2.828a4.464,4.464,0,0,0-2.949-1.294,4.531,4.531,0,0,0-.754-2.294,4.407,4.407,0,0,0-1.919-1.588,4.609,4.609,0,0,0-1.57-.361,4.531,4.531,0,0,0-.754-2.294,4.38,4.38,0,0,0-.54-.655,4.464,4.464,0,0,0-2.949-1.294,4.7,4.7,0,0,0-.111-.8,4.406,4.406,0,0,0-1.183-2.15,4.5,4.5,0,0,0-6.364,0l-3.724-3.724,3.993-14.9,3.221.462a26.047,26.047,0,0,1,3.406.661l-.39.391a4.636,4.636,0,0,0-.443,6.172,4.5,4.5,0,0,0,6.666.333l2.121-2.122Zm-3.78-14.28a11.585,11.585,0,0,1-1.935,4.321l-4.463-4.463-3.3-3.3a11.332,11.332,0,0,0,2.5-8.636,1.5,1.5,0,0,0-2.962.473,8.47,8.47,0,0,1-1.662,6.041l-4.2-4.2-1.059-1.06h0a1.5,1.5,0,0,0-2.122,0l-3.182,3.182a1.5,1.5,0,0,1-2.122,0h0a1.5,1.5,0,0,1,0-2.121l5.924-5.944,8.777-3.617,11.991,6.923Zm8.268-17.7-1.629,2.822a1.371,1.371,0,0,1-1.873.5l-16.677-9.628a1.371,1.371,0,0,1-.5-1.873l1.628-2.822a1.374,1.374,0,0,1,1.874-.5l16.677,9.629A1.371,1.371,0,0,1,798.963,608.357Z" transform="translate(-742.146 -593.673)"/>
</svg>
