<svg xmlns="http://www.w3.org/2000/svg" width="60" height="60" viewBox="0 0 60 60">
  <g id="Group_12489" data-name="Group 12489" transform="translate(-1628 -332.395)">
    <path id="Path_30904" data-name="Path 30904" d="M1654.45,354.41v0l.649-.648V358.3a1.555,1.555,0,0,0,3.11,0V353.76l.649.648h0a1.5,1.5,0,0,0,2.122-2.122l-1.1-1.1a4.569,4.569,0,0,0-6.455,0l-1.1,1.1a1.5,1.5,0,0,0,2.121,2.122Z" />
    <path id="Path_30905" data-name="Path 30905" d="M1667.981,354.41v0l.648-.648V358.3a1.555,1.555,0,0,0,3.11,0V353.76l.649.648h0a1.5,1.5,0,0,0,2.121-2.122l-1.1-1.1a4.569,4.569,0,0,0-6.455,0l-1.1,1.1a1.5,1.5,0,0,0,2.122,2.122Z" />
    <path id="Path_30906" data-name="Path 30906" d="M1665.089,375.686l-1.143-.34a5.364,5.364,0,0,1-.977-.4,1.345,1.345,0,0,1-.786-1.268,1.461,1.461,0,0,1,.532-1.262,1.964,1.964,0,0,1,3.022.617,1.548,1.548,0,0,0,1.5,1.5,1.5,1.5,0,0,0,1.5-1.5,4.486,4.486,0,0,0-3.237-3.765v-.423a1.5,1.5,0,1,0-3,0v.494a4.715,4.715,0,0,0-1.836,1.047,4.4,4.4,0,0,0-1.434,3.35,3.944,3.944,0,0,0,1.385,3.209,5.6,5.6,0,0,0,1.367.794,12.9,12.9,0,0,0,1.542.54c.443.132.813.257,1.092.371a4.06,4.06,0,0,1,.87.488,1.778,1.778,0,0,1,.732,1.51,2.021,2.021,0,0,1-.634,1.518,2.089,2.089,0,0,1-1.531.609,1.917,1.917,0,0,1-2.225-1.893v-.6a1.5,1.5,0,1,0-3,0l.01.261a4.832,4.832,0,0,0,3.662,4.834v.467a1.5,1.5,0,0,0,3,0v-.464a4.963,4.963,0,0,0,2.149-1.218,4.763,4.763,0,0,0,1.522-3.572,4.61,4.61,0,0,0-1.19-3.212A6.287,6.287,0,0,0,1665.089,375.686Z" />
    <path id="Path_30907" data-name="Path 30907" d="M1685.3,364.817a4.817,4.817,0,0,0-3.3-2.378V338.4a3.006,3.006,0,0,0-3.005-3.006H1674.5v-1.5a1.5,1.5,0,0,0-3,0v1.5h-6v-1.5a1.5,1.5,0,0,0-3,0v1.5h-6v-1.5a1.5,1.5,0,0,0-3,0v1.5h-6v-1.5a1.5,1.5,0,0,0-3,0v1.5h-6v-1.5a1.5,1.5,0,0,0-3,0v1.5h-4.495A3.005,3.005,0,0,0,1628,338.4v38.823a5.171,5.171,0,0,0,5.171,5.171H1640v7.422h2.7a4.814,4.814,0,0,0,3.85,2.487c.732.087,6.037.091,8.947.091,5.1,0,25.6-.078,25.615-.078a4.8,4.8,0,0,0,4.192-2.5h2.7v-25Zm-54.3-26.422h4.495v1.5a1.5,1.5,0,0,0,3,0v-1.5h6v1.5a1.5,1.5,0,0,0,3,0v-1.5h6v1.5a1.5,1.5,0,0,0,3,0v-1.5h6v1.5a1.5,1.5,0,0,0,3,0v-1.5h6v1.5a1.5,1.5,0,0,0,3,0v-1.5h4.495l.005.006v5.994h-47.995ZM1640,364.817v14.578h-6.829a2.174,2.174,0,0,1-2.171-2.171l0-29.829h48v14.922h-32.111a4.8,4.8,0,0,0-4.19,2.5Zm6.89,24.5a1.846,1.846,0,0,1-1.641-1.092,2.5,2.5,0,0,0-2.249-1.408v-19a2.5,2.5,0,0,0,2.249-1.409,1.845,1.845,0,0,1,1.641-1.091h8.147a14.945,14.945,0,0,0,.1,24.077C1647.268,389.4,1647.006,389.382,1646.89,389.318Zm17.11,0a12,12,0,0,1-.022-24h.044a12,12,0,0,1-.022,24Zm21-2.5a2.5,2.5,0,0,0-2.25,1.408,1.843,1.843,0,0,1-1.64,1.092s-.282.023-8.21.045a14.943,14.943,0,0,0,.062-24.045h8.148a1.842,1.842,0,0,1,1.64,1.091,2.5,2.5,0,0,0,2.25,1.409Z" />
  </g>
</svg>
