<svg xmlns="http://www.w3.org/2000/svg" width="60" height="60.001" viewBox="0 0 60 60.001">
  <g id="Group_12475" data-name="Group 12475" transform="translate(-828 -332.395)">
    <path id="Path_30847" data-name="Path 30847" d="M859.089,360.735l-1.142-.34a5.532,5.532,0,0,1-.978-.4,1.347,1.347,0,0,1-.785-1.269,1.46,1.46,0,0,1,.531-1.262,1.965,1.965,0,0,1,3.023.617,1.547,1.547,0,0,0,1.5,1.5,1.5,1.5,0,0,0,1.5-1.5,4.485,4.485,0,0,0-3.238-3.765V353.9a1.5,1.5,0,0,0-3,0v.494a4.714,4.714,0,0,0-1.836,1.047,4.4,4.4,0,0,0-1.434,3.35A3.947,3.947,0,0,0,854.615,362a5.593,5.593,0,0,0,1.368.794,12.894,12.894,0,0,0,1.541.54c.444.132.814.257,1.092.37a4.144,4.144,0,0,1,.871.489,1.776,1.776,0,0,1,.731,1.51,2.023,2.023,0,0,1-.634,1.518,2.087,2.087,0,0,1-1.531.609,1.918,1.918,0,0,1-2.225-1.893v-.6a1.5,1.5,0,0,0-3,0l.011.26a4.833,4.833,0,0,0,3.661,4.834v.467a1.5,1.5,0,0,0,3,0v-.464a4.958,4.958,0,0,0,2.149-1.218,4.764,4.764,0,0,0,1.523-3.572,4.611,4.611,0,0,0-1.191-3.212A6.286,6.286,0,0,0,859.089,360.735Z"/>
    <path id="Path_30848" data-name="Path 30848" d="M885.3,349.866a4.807,4.807,0,0,0-4.192-2.5H834.89a4.8,4.8,0,0,0-4.191,2.5H828v25h2.7a4.816,4.816,0,0,0,3.85,2.488c.732.087,12.037.09,14.947.09,5.1,0,31.6-.078,31.615-.078a4.8,4.8,0,0,0,4.192-2.5H888v-25Zm-.3,22a2.5,2.5,0,0,0-2.249,1.408,1.844,1.844,0,0,1-1.64,1.092s-45.905.176-46.221,0a1.843,1.843,0,0,1-1.64-1.092,2.5,2.5,0,0,0-2.25-1.408v-19a2.5,2.5,0,0,0,2.25-1.409,1.844,1.844,0,0,1,1.64-1.091h46.221a1.845,1.845,0,0,1,1.64,1.091A2.5,2.5,0,0,0,885,352.867Z"/>
    <path id="Path_30849" data-name="Path 30849" d="M879.547,380.395h-.941a1.153,1.153,0,0,0-.842.371,26.888,26.888,0,0,1-36.182,3.016c-.2-.315.054-.378.211-.387H844a1.5,1.5,0,0,0,0-3h-5.84a2.66,2.66,0,0,0-2.66,2.661v5.839a1.5,1.5,0,0,0,3,0v-1.33c0-1.892,1.083-1.489,1.855-.924a29.967,29.967,0,0,0,40.074-4.324A1.162,1.162,0,0,0,879.547,380.395Z"/>
    <path id="Path_30850" data-name="Path 30850" d="M836.67,344.395h.942a1.147,1.147,0,0,0,.841-.371,26.892,26.892,0,0,1,36.183-3.016c.2.316-.055.379-.211.387h-2.207a1.5,1.5,0,0,0,0,3h5.839a2.661,2.661,0,0,0,2.661-2.66v-5.84a1.5,1.5,0,0,0-3,0v1.331c0,1.892-1.083,1.488-1.856.924a29.968,29.968,0,0,0-40.074,4.323A1.162,1.162,0,0,0,836.67,344.395Z"/>
    <path id="Path_30851" data-name="Path 30851" d="M838.5,353.406a1.5,1.5,0,0,0-1.5,1.5v15a1.5,1.5,0,0,0,3,0v-15A1.5,1.5,0,0,0,838.5,353.406Z"/>
    <path id="Path_30852" data-name="Path 30852" d="M877.5,353.406a1.5,1.5,0,0,0-1.5,1.5v15a1.5,1.5,0,0,0,3,0v-15A1.5,1.5,0,0,0,877.5,353.406Z"/>
    <circle id="Ellipse_884" data-name="Ellipse 884" cx="1.5" cy="1.5" r="1.5" transform="translate(844.914 360.905)"/>
    <circle id="Ellipse_885" data-name="Ellipse 885" cx="1.5" cy="1.5" r="1.5" transform="translate(867.882 360.905)"/>
    <path id="Path_30853" data-name="Path 30853" d="M847.609,341.31a1.5,1.5,0,0,0,0,3h9a1.5,1.5,0,0,0,0-3Z"/>
    <path id="Path_30854" data-name="Path 30854" d="M868.609,383.395a1.5,1.5,0,0,0,0-3h-9a1.5,1.5,0,0,0,0,3Z"/>
  </g>
</svg>
