<svg xmlns="http://www.w3.org/2000/svg" width="60" height="60.001" viewBox="0 0 60 60.001">
  <path id="Path_30926" data-name="Path 30926" d="M1288,584.449c0-.01-.005-.018-.006-.028v-2.944c0-.01.006-.018.006-.028a.1.1,0,0,0-.006-.028V574.46h-.019l-.007-6.059a2.912,2.912,0,0,0-.691-1.943l-6.648-9.553a3.735,3.735,0,0,0-3.006-1.5h-1.9v-4.942h-.019l-.008-5.059a2.907,2.907,0,0,0-.69-1.943l-6.649-9.553a3.736,3.736,0,0,0-3.005-1.5h-14.7a3.736,3.736,0,0,0-3.005,1.5l-6.649,9.553a2.907,2.907,0,0,0-.69,1.943l-.008,5.059h-.019V555.4h-1.9a3.735,3.735,0,0,0-3.006,1.5l-6.648,9.553a2.912,2.912,0,0,0-.691,1.943l-.007,6.059h-.019v6.961a.1.1,0,0,0-.006.028c0,.01.005.018.006.028v2.944c0,.01-.006.018-.006.028a.089.089,0,0,0,.006.028v2.835l-.006,1.337a3.746,3.746,0,0,0,3.73,3.752h26.041c.088,0,.149-.021.229-.027s.141.027.229.027h26.041a3.746,3.746,0,0,0,3.73-3.752l-.006-1.337v-2.835A.089.089,0,0,0,1288,584.449Zm-12.277-25.974a.077.077,0,0,0,.006-.026c0-.01-.005-.018-.006-.028v-.012l1.63-.008h.27a.745.745,0,0,1,.634.348l5.757,8.5a.7.7,0,0,1-.534,1.152h-7.743Zm-31.465-14.228,5.756-8.5a.748.748,0,0,1,.634-.348c.223.029,2.806.029,5.352.022s9.129.007,9.352-.022a.748.748,0,0,1,.634.348l5.756,8.5a.7.7,0,0,1-.533,1.153h-26.418A.7.7,0,0,1,1244.258,544.247Zm-.987,14.2v-9.058a.992.992,0,0,1,.992-.991h27.474a.992.992,0,0,1,.992.991v17.265a1.75,1.75,0,0,1-1.745,1.744h-25.968a1.75,1.75,0,0,1-1.745-1.744Zm-2.994-.028-.024,9.979h-7.733a.7.7,0,0,1-.534-1.152l5.757-8.5a.745.745,0,0,1,.634-.348h.27l1.63.008v.012c0,.01-.006.018-.006.028a.077.077,0,0,0,.006.026M1256.5,574.46v13.2a1.749,1.749,0,0,1-1.744,1.744h-22.011a1.75,1.75,0,0,1-1.745-1.745V572.392a.992.992,0,0,1,.992-.992h23.517a.991.991,0,0,1,.991.992Zm28.5,0v13.2a1.75,1.75,0,0,1-1.745,1.745h-22.011a1.749,1.749,0,0,1-1.744-1.744V572.392a.991.991,0,0,1,.991-.992h23.517a.992.992,0,0,1,.992.992Z" transform="translate(-1228 -532.4)"/>
</svg>
