<svg xmlns="http://www.w3.org/2000/svg" viewBox="0 0 61 61"><defs><style></style></defs><title>01 ICON</title><g id="Layer_2" data-name="Layer 2"><path class="cls-1" d="M8.83,22.3a1.5,1.5,0,0,0-1.5,1.5v.26A4.84,4.84,0,0,0,11,28.9v1.46a1.5,1.5,0,0,0,3,0V28.9a5,5,0,0,0,2.15-1.22,4.76,4.76,0,0,0,1.52-3.57,4.59,4.59,0,0,0-1.19-3.21,6.24,6.24,0,0,0-2.89-1.7l-1.14-.34a5.84,5.84,0,0,1-1-.39,1.35,1.35,0,0,1-.79-1.27,1.49,1.49,0,0,1,.53-1.27,2,2,0,0,1,3,.62,1.54,1.54,0,0,0,1.5,1.5,1.5,1.5,0,0,0,1.5-1.5A4.49,4.49,0,0,0,14,12.79V11.36a1.5,1.5,0,0,0-3,0v1.5a4.82,4.82,0,0,0-1.84,1,4.41,4.41,0,0,0-1.43,3.35,3.94,3.94,0,0,0,1.38,3.21,5.75,5.75,0,0,0,1.37.8A14.51,14.51,0,0,0,12,21.8c.45.13.82.26,1.1.37a4.08,4.08,0,0,1,.87.49,1.78,1.78,0,0,1,.73,1.51,2,2,0,0,1-.64,1.52,2.12,2.12,0,0,1-1.53.6c-1.39,0-2.07-.57-2.22-1.89v-.6A1.5,1.5,0,0,0,8.83,22.3Z"/><path class="cls-1" d="M41,15.5v-14L39.84,2.62,37.72.5,35.6,2.62,33.48.5,31.36,2.62,29.24.5,27.11,2.62,25,.5,22.87,2.62,20.75.5,18.63,2.62,16.51.5,14.39,2.62,12.26.5,10.14,2.62,8,.5,5.9,2.62,3.78.5,1.66,2.62.5,1.46V59.54l1.16-1.16L3.78,60.5,5.9,58.38,8,60.5l2.12-2.12,2.12,2.12,2.13-2.12,2.12,2.12,2.12-2.12,2.12,2.12,2.12-2.12L25,60.5l2.12-2.12,2.13,2.12,2.12-2.12,2.12,2.12,2.12-2.12,2.12,2.12,2.12-2.12L41,59.54v-5a19.5,19.5,0,0,0,0-39ZM38,56l-.28.28L35.6,54.14l-2.12,2.12-2.12-2.12-2.12,2.12-2.13-2.12L25,56.26l-2.12-2.12-2.12,2.12-2.12-2.12-2.12,2.12-2.12-2.12-2.13,2.12-2.12-2.12L8,56.26,5.9,54.14,3.78,56.26,3.5,56V5l.28-.28L5.9,6.86,8,4.74l2.12,2.12,2.12-2.12,2.13,2.12,2.12-2.12,2.12,2.12,2.12-2.12,2.12,2.12L25,4.74l2.12,2.12,2.13-2.12,2.12,2.12,2.12-2.12L35.6,6.86l2.12-2.12L38,5V15.76a19.47,19.47,0,0,0,0,38.48Zm3-4.48A16.5,16.5,0,1,1,57.5,35,16.5,16.5,0,0,1,41,51.5Z"/><path class="cls-1" d="M37.82,31.82a4.5,4.5,0,1,0-6.37,0,4.52,4.52,0,0,0,3.19,1.32A4.47,4.47,0,0,0,37.82,31.82Zm-4.68-3.18a1.5,1.5,0,1,1,1.5,1.5A1.5,1.5,0,0,1,33.14,28.64Z"/><path class="cls-1" d="M47.37,36.86a4.51,4.51,0,0,0-4.51,4.51,4.5,4.5,0,1,0,4.51-4.51Zm0,6a1.5,1.5,0,1,1,1.5-1.5A1.5,1.5,0,0,1,47.36,42.86Z"/><path class="cls-1" d="M49.84,26.16a1.49,1.49,0,0,0-2.12,0L32.16,41.72a1.5,1.5,0,0,0,2.12,2.12L49.84,28.28A1.51,1.51,0,0,0,49.84,26.16Z"/><path class="cls-1" d="M15,48.06H8a1.5,1.5,0,0,0,0,3h7a1.5,1.5,0,0,0,0-3Z"/><path class="cls-1" d="M17,42.06H8a1.5,1.5,0,0,0,0,3h9a1.5,1.5,0,0,0,0-3Z"/><path class="cls-1" d="M8,39.06h7a1.5,1.5,0,0,0,0-3H8a1.5,1.5,0,0,0,0,3Z"/></g></svg>