<svg xmlns="http://www.w3.org/2000/svg" viewBox="0 0 61 61"><defs><style></style></defs><title>01 ICON</title><g id="Layer_2" data-name="Layer 2"><path class="cls-1" d="M23.67,24a4.5,4.5,0,1,0-3.19,1.32A4.46,4.46,0,0,0,23.67,24ZM19,20.78a1.5,1.5,0,1,1,1.5,1.5A1.5,1.5,0,0,1,19,20.78Z"/><path class="cls-1" d="M33.22,29a4.49,4.49,0,1,0,3.17,1.31A4.47,4.47,0,0,0,33.22,29Zm0,6a1.5,1.5,0,1,1,1.5-1.5A1.5,1.5,0,0,1,33.21,35Z"/><path class="cls-1" d="M35.69,18.3a1.51,1.51,0,0,0-2.12,0L18,33.86A1.5,1.5,0,1,0,20.13,36L35.69,20.42A1.51,1.51,0,0,0,35.69,18.3Z"/><path class="cls-1" d="M58.31,22.68l-5.18-5.44.09-8.47a7.91,7.91,0,0,0-1.36-4.55L53,3.06A1.5,1.5,0,0,0,50.9.94L49.74,2.1A7.91,7.91,0,0,0,45.19.74L30.89.9a8.12,8.12,0,0,0-5.68,2.39L2.89,25.61A8.06,8.06,0,0,0,2.82,37L17,51.14a8,8,0,0,0,9.54,1.31v.14a7.8,7.8,0,0,0,7.67,7.91H52.83a7.8,7.8,0,0,0,7.67-7.91V28.22A8,8,0,0,0,58.31,22.68ZM26.23,49a5.06,5.06,0,0,1-7.15.07L4.94,34.88A5.06,5.06,0,0,1,5,27.73L27.33,5.41A5.18,5.18,0,0,1,30.92,3.9l14.3-.16a5,5,0,0,1,2.32.56L43.48,8.36,41.35,6.24a1.5,1.5,0,0,0-2.12,2.12l6.37,6.37a1.5,1.5,0,0,0,2.12-2.12L45.6,10.49l4.06-4.06a5,5,0,0,1,.56,2.31L50.07,23a5.19,5.19,0,0,1-1.52,3.59ZM57.5,52.6a4.79,4.79,0,0,1-4.67,4.9H34.17a4.79,4.79,0,0,1-4.67-4.9V49.92L50.67,28.75a8.1,8.1,0,0,0,2.39-5.68l0-1.53,3.05,3.21a5,5,0,0,1,1.37,3.47Z"/></g></svg>