<svg xmlns="http://www.w3.org/2000/svg" viewBox="0 0 61 61"><defs><style></style></defs><title>01 ICON</title><g id="Layer_2" data-name="Layer 2"><path class="cls-1" d="M24.22,17.13a5,5,0,1,0-5-5A5,5,0,0,0,24.22,17.13Zm0-7a2,2,0,1,1-2,2A2,2,0,0,1,24.22,10.14Z"/><path class="cls-1" d="M41.78,24.7a5,5,0,1,0-5,5A5,5,0,0,0,41.78,24.7Zm-5,2a2,2,0,1,1,2-2A2,2,0,0,1,36.78,26.7Z"/><path class="cls-1" d="M41.46,7.46a1.49,1.49,0,0,0-2.12,0l-19.8,19.8a1.5,1.5,0,0,0,2.12,2.12l19.8-19.8A1.49,1.49,0,0,0,41.46,7.46Z"/><path class="cls-1" d="M59.1,33.34H50V2.5a2,2,0,0,0-2-2H13a2,2,0,0,0-2,2V33.34H1.9a1.23,1.23,0,0,0-1,2.13l27.5,24.27a3.23,3.23,0,0,0,4.16,0l27.5-24.27A1.23,1.23,0,0,0,59.1,33.34ZM30.61,57.48a.42.42,0,0,1-.11,0h-.09l-24-21.15H14V3.5H47V36.34h7.59Z"/><path class="cls-1" d="M24.54,33.34a5.18,5.18,0,0,0-4.38,2.12,4.77,4.77,0,0,0-.68,1.16,6.07,6.07,0,0,0-.4,2.22,4.93,4.93,0,0,0,1.63,3.74,5.62,5.62,0,0,0,7.7,0,5.4,5.4,0,0,0,0-7.67A5.34,5.34,0,0,0,24.54,33.34Zm2.06,7.49a2.56,2.56,0,0,1-2,.93,2.61,2.61,0,0,1-2.07-.92,3.16,3.16,0,0,1-.79-2.16,3.07,3.07,0,0,1,.78-2.12,2.75,2.75,0,0,1,4.1,0,3.14,3.14,0,0,1,.76,2.13A3.09,3.09,0,0,1,26.6,40.83Z"/><path class="cls-1" d="M33.7,33.81a2.12,2.12,0,0,0-.88,1.9v.41H32v1.76h.86v6h2.33v-6h1V36.12h-1a1.29,1.29,0,0,1,.18-.84c.11-.13.38-.19.8-.19V33.34h-.34A3.78,3.78,0,0,0,33.7,33.81Z"/><path class="cls-1" d="M39.49,33.81a2.12,2.12,0,0,0-.87,1.9v.41h-.87v1.76h.87v6h2.32v-6h1V36.12h-1a1.29,1.29,0,0,1,.18-.84,1.14,1.14,0,0,1,.8-.19V33.34h-.33A3.82,3.82,0,0,0,39.49,33.81Z"/></g></svg>