<svg xmlns="http://www.w3.org/2000/svg" viewBox="0 0 62 62"><defs><style></style></defs><title>01 ICON</title><g id="Layer_2" data-name="Layer 2"><path class="cls-1" d="M55.54,1H6.46A5.45,5.45,0,0,0,1,6.46V55.54A5.45,5.45,0,0,0,6.46,61H55.54A5.45,5.45,0,0,0,61,55.54V6.46A5.45,5.45,0,0,0,55.54,1ZM58,55.54A2.46,2.46,0,0,1,55.54,58H6.46A2.46,2.46,0,0,1,4,55.54V6.46A2.46,2.46,0,0,1,6.46,4H55.54A2.46,2.46,0,0,1,58,6.46Z"/><path class="cls-1" d="M50.35,7H11.65A4.65,4.65,0,0,0,7,11.65v2.7A4.65,4.65,0,0,0,11.65,19h38.7A4.65,4.65,0,0,0,55,14.35v-2.7A4.65,4.65,0,0,0,50.35,7ZM52,14.35A1.65,1.65,0,0,1,50.35,16H11.65A1.65,1.65,0,0,1,10,14.35v-2.7A1.65,1.65,0,0,1,11.65,10h38.7A1.65,1.65,0,0,1,52,11.65Z"/><path class="cls-1" d="M47,29.23H37a1.5,1.5,0,0,0,0,3H47a1.5,1.5,0,1,0,0-3Z"/><path class="cls-1" d="M25,29.23H21.5v-3.5a1.5,1.5,0,0,0-3,0v3.5H15a1.5,1.5,0,0,0,0,3h3.5v3.5a1.5,1.5,0,0,0,3,0v-3.5H25a1.5,1.5,0,1,0,0-3Z"/><path class="cls-1" d="M24.6,43.14a1.5,1.5,0,0,0-2.13,0L20,45.61l-2.48-2.47a1.49,1.49,0,0,0-2.12,0,1.51,1.51,0,0,0,0,2.12l2.48,2.47L15.4,50.21a1.5,1.5,0,0,0,2.12,2.12L20,49.85l2.47,2.48a1.5,1.5,0,0,0,2.13-2.12l-2.48-2.48,2.48-2.47A1.51,1.51,0,0,0,24.6,43.14Z"/><path class="cls-1" d="M44.47,43.14,37.4,50.21a1.5,1.5,0,0,0,2.12,2.12l7.08-7.07a1.5,1.5,0,0,0-2.13-2.12Z"/><circle class="cls-1" cx="38.46" cy="44.2" r="1.5"/><circle class="cls-1" cx="45.54" cy="51.27" r="1.5"/></g></svg>