<svg xmlns="http://www.w3.org/2000/svg" width="60" height="60" viewBox="0 0 60 60">
  <g id="Group_12744" data-name="Group 12744" transform="translate(-229.176 -732.559)">
    <path id="Path_31148" data-name="Path 31148" d="M278.165,779.559H236.187a4.01,4.01,0,0,1-4.01-4.011V749.57a4.01,4.01,0,0,1,4.01-4.011h41.978a4.011,4.011,0,0,1,4.011,4.011v14.268a27.193,27.193,0,0,1,3,2.838V749.57a7,7,0,0,0-2.532-5.39L275.086,733.8a3.016,3.016,0,0,0-2.438-1.24H241.705a3.016,3.016,0,0,0-2.438,1.24l-7.558,10.381a7,7,0,0,0-2.533,5.39v25.978a7.019,7.019,0,0,0,7.011,7.011h41.979a6.969,6.969,0,0,0,4.563-1.7,17.827,17.827,0,0,0-1.1-3.328A3.993,3.993,0,0,1,278.165,779.559Zm-5.505-43.994,5.092,6.994H258.676v-7h13.972Zm-30.968,0,.013-.006h13.971v7H236.6Z" />
    <path id="Path_31149" data-name="Path 31149" d="M265.176,760.794h-9.891l3.673-3.673a1.5,1.5,0,0,0-2.12-2.123l-4.013,4.013a4.714,4.714,0,0,0-1.4,2.7,4.453,4.453,0,0,0,1.271,3.738l4.142,4.142a1.493,1.493,0,0,0,2.111,0,1.508,1.508,0,0,0,0-2.132l-3.666-3.666h9.889a21,21,0,0,1,21,21V791.1a1.454,1.454,0,0,0,1.454,1.454h.1a1.451,1.451,0,0,0,1.451-1.452v-6.313A24,24,0,0,0,265.176,760.794Z" />
  </g>
</svg>
