<svg xmlns="http://www.w3.org/2000/svg" width="60" height="60" viewBox="0 0 60 60">
  <g id="Group_12521" data-name="Group 12521" transform="translate(-928 -532.401)">
    <path id="Path_31040" data-name="Path 31040" d="M965.328,552.838a1.5,1.5,0,0,0-1.5,1.5l.01.261a4.835,4.835,0,0,0,3.662,4.834V561.4a1.5,1.5,0,0,0,3,0v-1.964a4.963,4.963,0,0,0,2.149-1.218,4.764,4.764,0,0,0,1.523-3.572,4.611,4.611,0,0,0-1.191-3.212,6.292,6.292,0,0,0-2.892-1.694l-1.142-.34a5.568,5.568,0,0,1-.978-.4,1.347,1.347,0,0,1-.785-1.269,1.46,1.46,0,0,1,.531-1.262,1.965,1.965,0,0,1,3.023.617,1.547,1.547,0,0,0,1.5,1.5,1.5,1.5,0,0,0,1.5-1.5,4.487,4.487,0,0,0-3.238-3.766V541.4a1.5,1.5,0,0,0-3,0V543.4a4.7,4.7,0,0,0-1.835,1.047,4.394,4.394,0,0,0-1.435,3.35A3.944,3.944,0,0,0,965.615,551a5.6,5.6,0,0,0,1.367.794,12.913,12.913,0,0,0,1.542.54c.443.132.814.257,1.092.37a4.19,4.19,0,0,1,.871.489,1.776,1.776,0,0,1,.731,1.51,2.023,2.023,0,0,1-.634,1.518,2.087,2.087,0,0,1-1.531.609,1.918,1.918,0,0,1-2.225-1.893v-.6A1.5,1.5,0,0,0,965.328,552.838Z" />
    <path id="Path_31041" data-name="Path 31041" d="M973.679,585.372v0l-3.123,3.123V574.955a1.555,1.555,0,0,0-3.11,0V588.5l-3.123-3.122h0a1.5,1.5,0,0,0-2.122,2.121l3.574,3.572a4.571,4.571,0,0,0,6.455,0l3.573-3.572a1.5,1.5,0,0,0-2.122-2.122Z" />
    <path id="Path_31042" data-name="Path 31042" d="M960.479,572.145a1.553,1.553,0,0,0-2.124.569l-4.521,7.831-.885-3.3v0a1.5,1.5,0,1,0-2.9.776l1.048,3.915a4.572,4.572,0,0,0,5.591,3.227l3.431-.918a1.5,1.5,0,0,0-.776-2.9h0l-2.818.753,4.521-7.83A1.552,1.552,0,0,0,960.479,572.145Z" />
    <path id="Path_31043" data-name="Path 31043" d="M986.888,576.181a1.5,1.5,0,0,0-1.837,1.061v0l-.885,3.3-4.521-7.831a1.555,1.555,0,0,0-2.693,1.554l4.521,7.83-2.818-.753h0a1.5,1.5,0,0,0-.776,2.9l3.431.918a4.571,4.571,0,0,0,5.591-3.227l1.048-3.915A1.5,1.5,0,0,0,986.888,576.181Z" />
    <path id="Path_31044" data-name="Path 31044" d="M956.991,566.079a18.867,18.867,0,0,0,14.14,4.2A19,19,0,0,0,969,532.4a18.881,18.881,0,0,0-11.138,3.639l-8.67-3.223a6.685,6.685,0,0,0-5.558.419l-13.585,7.5A3.966,3.966,0,0,0,928,544.206v19.418a3.216,3.216,0,0,0,3.216,3.216H953.9A6.789,6.789,0,0,0,956.991,566.079Zm27.913-12.9a16.065,16.065,0,0,1-13.88,14.1A15.9,15.9,0,0,1,959.3,564.1a5.976,5.976,0,0,0,1.1-2.607,6.067,6.067,0,0,0-5.987-7H953.32A15.621,15.621,0,0,1,953,551.4a16,16,0,1,1,31.9,1.776Zm-34.637,1.31h-5.7a.853.853,0,0,1-.642-1.414l4.669-5.335,1.717.331A18.951,18.951,0,0,0,950,551.4,18.469,18.469,0,0,0,950.267,554.487ZM931,545.428a3.036,3.036,0,0,1,1.568-2.657l12.516-6.909a3.684,3.684,0,0,1,3.068-.231l7.145,2.643a19,19,0,0,0-4.22,6.881l-3.612-.684-6.67,7.624a3.251,3.251,0,0,0,2.446,5.392h11.171a3.065,3.065,0,0,1,2.958,3.852,3.44,3.44,0,0,1-3.371,2.5H933.245A2.245,2.245,0,0,1,931,561.595Z" />
  </g>
</svg>
