<svg xmlns="http://www.w3.org/2000/svg" width="60" height="60" viewBox="0 0 60 60">
  <g id="Group_2211" data-name="Group 2211" transform="translate(-1127.876 -811.838)">
    <path id="Path_2139" data-name="Path 2139" d="M1173.555,864.81h0l-3.124,3.124V854.392a1.555,1.555,0,0,0-3.109,0v13.542l-3.124-3.122h0a1.5,1.5,0,1,0-2.121,2.121l3.574,3.572a4.571,4.571,0,0,0,6.455,0l3.572-3.573a1.5,1.5,0,0,0-2.121-2.121Z"/>
    <path id="Path_2140" data-name="Path 2140" d="M1160.355,851.582a1.554,1.554,0,0,0-2.124.569l-4.521,7.831-.885-3.3v0a1.5,1.5,0,0,0-2.9.777l1.049,3.914a4.57,4.57,0,0,0,5.59,3.228l3.432-.918a1.5,1.5,0,1,0-.776-2.9h0l-2.817.754,4.521-7.83A1.555,1.555,0,0,0,1160.355,851.582Z"/>
    <path id="Path_2141" data-name="Path 2141" d="M1186.764,855.619a1.5,1.5,0,0,0-1.838,1.06v0l-.884,3.3-4.521-7.831a1.555,1.555,0,1,0-2.693,1.555l4.521,7.83-2.818-.754h0a1.5,1.5,0,0,0-.777,2.9l3.432.918a4.57,4.57,0,0,0,5.59-3.228l1.049-3.914A1.5,1.5,0,0,0,1186.764,855.619Z"/>
    <path id="Path_2142" data-name="Path 2142" d="M1156.866,845.516a18.87,18.87,0,0,0,14.141,4.2,19,19,0,0,0-2.131-37.882,18.871,18.871,0,0,0-11.138,3.64l-8.67-3.224a6.691,6.691,0,0,0-5.559.419l-13.584,7.5a3.966,3.966,0,0,0-2.049,3.472v19.418a3.215,3.215,0,0,0,3.215,3.216h22.687A6.774,6.774,0,0,0,1156.866,845.516Zm12.01-30.678a16,16,0,1,1-9.7,28.7,5.984,5.984,0,0,0,1.1-2.606,6.067,6.067,0,0,0-5.987-7H1153.2a15.536,15.536,0,0,1-.32-3.086A16.018,16.018,0,0,1,1168.876,814.838Zm-38,26.194V824.866a3.034,3.034,0,0,1,1.568-2.657l12.516-6.91a3.687,3.687,0,0,1,3.068-.23l7.144,2.643a19.011,19.011,0,0,0-4.22,6.88l-3.611-.684-6.671,7.624a3.251,3.251,0,0,0,2.447,5.392h11.171a3.066,3.066,0,0,1,2.958,3.853,3.442,3.442,0,0,1-3.372,2.5h-20.753A2.246,2.246,0,0,1,1130.876,841.032Zm19.267-7.108h-5.7a.852.852,0,0,1-.641-1.413l4.668-5.335,1.718.33a18.969,18.969,0,0,0-.311,3.332A18.473,18.473,0,0,0,1150.143,833.924Z"/>
    <path id="Path_2143" data-name="Path 2143" d="M1165.649,839a4.571,4.571,0,0,0,6.455,0l3.572-3.573a1.5,1.5,0,0,0-2.121-2.121v0l-3.124,3.123V822.893a1.555,1.555,0,1,0-3.109,0v13.541l-3.124-3.122h0a1.5,1.5,0,1,0-2.121,2.121Z"/>
  </g>
</svg>
