<svg xmlns="http://www.w3.org/2000/svg" width="60" height="60" viewBox="0 0 60 60">
  <path id="Path_4973" data-name="Path 4973" d="M1262.951,780.116h10.366a5.8,5.8,0,0,1,5.791,5.792V787.8a16.539,16.539,0,0,1,3.695-3.843,9.735,9.735,0,1,1,15.005-9.651c.005.021.008.043.011.064.014.088.035.173.046.261h-.019a1.5,1.5,0,0,1-.9,1.374,8.731,8.731,0,0,1-4.021,7.208c.123.32.305.829.509,1.493a4.5,4.5,0,0,1,1.227.3l5.324,2.145.016,0h4.408l10.715-1.969h0l.03-.005c.042-.008.082-.006.124-.01a1.384,1.384,0,0,1,.146-.015l.016,0a1.341,1.341,0,0,1,.168.017,1.113,1.113,0,0,1,.131.016,1.144,1.144,0,0,1,.13.04,1.456,1.456,0,0,1,.15.049c.033.014.062.035.094.051a1.523,1.523,0,0,1,.159.088c.03.021.055.047.084.07a1.477,1.477,0,0,1,.135.114c.029.029.052.063.078.094a1.448,1.448,0,0,1,.1.13c.021.031.036.066.054.1a1.706,1.706,0,0,1,.084.16c.012.031.019.064.029.1a1.53,1.53,0,0,1,.056.192l0,.013c.007.041.005.081.009.121a1.481,1.481,0,0,1,.015.148v8a1.5,1.5,0,0,1-1.5,1.5h-5.095l2.741,14.99a8,8,0,1,1-11.652,8.974h-20.6a7.994,7.994,0,1,1-15.183-4.914c.049-1.865.455-5.214,2.569-7.525a7.4,7.4,0,0,1,.975-.88,1.345,1.345,0,0,1-.019-.181v-4.5h-6.211a5.8,5.8,0,0,1-5.792-5.791V785.908A5.8,5.8,0,0,1,1262.951,780.116Zm13.729,22.938-.03-.117c-.058-.279-.1-.549-.152-.821h-4.336v3.337a9.547,9.547,0,0,1,1.861-.2v-.006h3.717A8.852,8.852,0,0,1,1276.68,803.054Zm2.461-3.938h10.828a13.92,13.92,0,0,0,1.56-5.672l-.1-.04a4.658,4.658,0,0,1-2.056-1.524,4.489,4.489,0,0,1,1.138-6.454c-.14-.45-.264-.808-.353-1.049a8.556,8.556,0,0,1-1.288.2,13.168,13.168,0,0,0-3.882,1.472C1284.7,786.218,1278.539,789.826,1279.141,799.116Zm17.162,1.5v10.5h1.607a15.465,15.465,0,0,0,2.165-14.964h-1.819l-.016,0-3.8-1.532a17.055,17.055,0,0,1-1.147,4.5h.885a2.68,2.68,0,0,1,.362.027,1.445,1.445,0,0,1,.265-.027A1.5,1.5,0,0,1,1296.3,800.616Zm-3,1.5h-13.757c.009.046.016.09.025.136.123.37,1.028,2.864,3.142,2.864v.009c.03,0,.059-.009.09-.009h5a1.5,1.5,0,0,1,1.5,1.5v4.5h4Zm-5.1-33a6.744,6.744,0,0,0-2.242,13.107V774.63a1.5,1.5,0,0,1,1.5-1.5h6.883A6.736,6.736,0,0,0,1288.2,769.116Zm5.737,7.014h-4.979v5.43A5.75,5.75,0,0,0,1293.939,776.13Zm8.959,14.022h-3.478l-.017,0-5.865-2.364a1.5,1.5,0,0,0-2.019,1.039,1.582,1.582,0,0,0,1.005,1.787l6.3,2.538.016,0h4.078c.439-.441,1-1.139.928-1.747A2.142,2.142,0,0,0,1302.9,790.152Zm11.029,3v-4.7s-4.812.777-7.512,1.287a4.026,4.026,0,0,1,.4,1.266,4.132,4.132,0,0,1-.3,2.148h7.412Zm-4.768,29.964a5,5,0,1,0-5-5A5.006,5.006,0,0,0,1309.159,823.116Zm-7.931-6a8,8,0,0,1,7.931-7c.23,0,.457.015.683.034l-2.56-14h-4.057c1.173,3.858,2.447,12.781-6.767,20.964h4.77Zm-20.215,0h10.593a29.719,29.719,0,0,0,3.683-3h-7.618a1.35,1.35,0,0,1-1.368-1.5v-4.5h-12.144a4.856,4.856,0,0,0-3.732,1.578,5.34,5.34,0,0,0-.825,1.227,7.979,7.979,0,0,1,11.411,6.2Zm-12.931,1a5,5,0,1,0,5-5A5.006,5.006,0,0,0,1268.082,818.116Zm-7.923-21.791a2.792,2.792,0,0,0,2.792,2.791h10.368a2.791,2.791,0,0,0,2.79-2.791v-4.266h-15.95Zm0-6.394h15.95v-4.023a2.792,2.792,0,0,0-2.792-2.792h-10.366a2.792,2.792,0,0,0-2.792,2.792Z" transform="translate(-1257.159 -766.116)"/>
</svg>
