<svg xmlns="http://www.w3.org/2000/svg" width="20" height="22.387" viewBox="0 0 20 22.387">
<path d="M45.372,4.64H45.2l1.1-1.1A2.091,2.091,0,0,0,43.339.593L39.306,4.64H29.212a1.922,1.922,0,0,0-1.92,1.92v9.286a1.922,1.922,0,0,0,1.92,1.92h5.755l-.25,3.3H33.6a.658.658,0,1,0,0,1.317h7.383a.658.658,0,1,0,0-1.317H39.867l-.25-3.3h5.755a1.922,1.922,0,0,0,1.92-1.92V6.559a1.922,1.922,0,0,0-1.92-1.92Zm.6,11.206a.6.6,0,0,1-.6.6H29.212a.6.6,0,0,1-.6-.6V6.559a.6.6,0,0,1,.6-.6h8.782L36.478,7.477a3.293,3.293,0,0,0-2.7.95C32.757,9.45,32.248,12.68,32.1,14.065a.659.659,0,0,0,.726.726c1.425-.155,4.619-.661,5.637-1.682a3.294,3.294,0,0,0,.95-2.7L43.88,5.956h1.492a.6.6,0,0,1,.6.6v9.286ZM38.546,21.07H36.038l.25-3.3H38.3ZM44.266,1.529a.774.774,0,0,1,1.094,1.094l-6.424,6.4a3.345,3.345,0,0,0-1.072-1.072l6.4-6.424ZM33.516,13.372c.131-.869.581-3.4,1.2-4.014a1.993,1.993,0,0,1,2.818,2.818C36.913,12.794,34.379,13.243,33.516,13.372Z" transform="translate(-27.292)" /></svg>