<svg xmlns="http://www.w3.org/2000/svg" width="60" height="60.001" viewBox="0 0 60 60.001">
  <g id="Group_12492" data-name="Group 12492" transform="translate(-1628 -232.392)">
    <path id="Path_30921" data-name="Path 30921" d="M1683.826,232.392l-1.738,0a4.1,4.1,0,0,0-4.088,4.129v47.165a2.023,2.023,0,0,0,.339,1.121l1.789,6.684a2.023,2.023,0,0,0,1.683.9h2.378a2.024,2.024,0,0,0,1.683-.9l1.789-6.683a2.023,2.023,0,0,0,.339-1.12V236.48A4.1,4.1,0,0,0,1683.826,232.392Zm1.174,51-1.333,6h-1.333l-1.334-6v-1h4Zm0-6a2,2,0,0,1-4,0v-29a2,2,0,1,1,4,0Zm0-36a2,2,0,0,1-4,0v-4.871a1.1,1.1,0,0,1,1.175-1.129h1.651a1.1,1.1,0,0,1,1.174,1.129Z" />
    <path id="Path_30922" data-name="Path 30922" d="M1666.809,232.392h-34.765a4.044,4.044,0,0,0-4.044,4.044v51.913a4.044,4.044,0,0,0,4.044,4.044h34.562A5.4,5.4,0,0,0,1672,287V237.583A5.191,5.191,0,0,0,1666.809,232.392ZM1631,288.349V236.436a1.045,1.045,0,0,1,1.044-1.044h2.1v54h-2.1A1.045,1.045,0,0,1,1631,288.349ZM1669,287a2.4,2.4,0,0,1-2.394,2.4h-29.459v-54h29.662a2.194,2.194,0,0,1,2.191,2.191Z" />
    <path id="Path_30923" data-name="Path 30923" d="M1661.575,274.392h-17a1.5,1.5,0,0,0,0,3h17a1.5,1.5,0,0,0,0-3Z" />
    <path id="Path_30924" data-name="Path 30924" d="M1661.575,280.392h-17a1.5,1.5,0,0,0,0,3h17a1.5,1.5,0,0,0,0-3Z" />
    <path id="Path_30925" data-name="Path 30925" d="M1659.083,241.393h-12.015a3.993,3.993,0,0,0-3.993,3.993V249.4a3.993,3.993,0,0,0,3.993,3.993h12.015a3.992,3.992,0,0,0,3.992-3.993v-4.014A3.992,3.992,0,0,0,1659.083,241.393Zm.992,8.007a.993.993,0,0,1-.992.993h-12.015a.994.994,0,0,1-.993-.993v-4.014a.994.994,0,0,1,.993-.993h12.015a.993.993,0,0,1,.992.993Z" />
  </g>
</svg>
