<svg id="Layer_1" data-name="Layer 1" xmlns="http://www.w3.org/2000/svg" viewBox="0 0 60 60"><defs><style>.cls-1{fill:var(--ion-color-vh-green);}</style></defs><title>icon 01 Web</title><path class="cls-1" d="M30,15A15,15,0,1,0,45,30,15,15,0,0,0,30,15Zm0,27A12,12,0,1,1,42,30,12,12,0,0,1,30,42Z"/><path class="cls-1" d="M32.47,54.53h0l-.92.92V49.61a1.59,1.59,0,0,0-1.15-1.56,1.56,1.56,0,0,0-1.95,1.51v5.89l-.92-.91h0a1.5,1.5,0,1,0-2.12,2.13l2.47,2.47a3,3,0,0,0,4.24,0l2.47-2.47a1.49,1.49,0,0,0,0-2.12A1.51,1.51,0,0,0,32.47,54.53Z"/><path class="cls-1" d="M27.53,5.47h0l.92-.91v5.89A1.56,1.56,0,0,0,30.4,12a1.59,1.59,0,0,0,1.15-1.56V4.55l.92.92h0a1.51,1.51,0,0,0,2.12,0,1.49,1.49,0,0,0,0-2.12L32.12.88a3,3,0,0,0-4.24,0L25.41,3.34a1.5,1.5,0,1,0,2.12,2.13Z"/><path class="cls-1" d="M59.12,27.88l-2.47-2.47a1.49,1.49,0,0,0-2.12,0,1.51,1.51,0,0,0,0,2.12h0l.92.92H49.61a1.59,1.59,0,0,0-1.56,1.15,1.56,1.56,0,0,0,1.51,1.95h5.89l-.91.92h0a1.5,1.5,0,0,0,2.13,2.12l2.47-2.47A3,3,0,0,0,59.12,27.88Z"/><path class="cls-1" d="M5.46,32.47l-.91-.92h5.9A1.55,1.55,0,0,0,12,29.6a1.59,1.59,0,0,0-1.56-1.15H4.55l.92-.92h0a1.51,1.51,0,0,0,0-2.12,1.49,1.49,0,0,0-2.12,0L.88,27.88a3,3,0,0,0,0,4.24l2.47,2.47a1.5,1.5,0,0,0,2.13-2.12Z"/><path class="cls-1" d="M12.48,25.94A18,18,0,0,1,26,12.48a4.52,4.52,0,0,1-.5-2V9.51A21,21,0,0,0,9.51,25.45h.88A4.73,4.73,0,0,1,12.48,25.94Z"/><path class="cls-1" d="M34.55,10.39a4.73,4.73,0,0,1-.49,2.09A18,18,0,0,1,47.52,25.94a4.73,4.73,0,0,1,2.09-.49h.88A21,21,0,0,0,34.55,9.51Z"/><path class="cls-1" d="M25.45,49.56a4.52,4.52,0,0,1,.5-2A18,18,0,0,1,12.48,34.07a4.4,4.4,0,0,1-2,.48H9.51A21,21,0,0,0,25.45,50.49Z"/><path class="cls-1" d="M47.52,34.07A18,18,0,0,1,34.06,47.52a4.73,4.73,0,0,1,.49,2.09v.88A21,21,0,0,0,50.49,34.55h-.94A4.4,4.4,0,0,1,47.52,34.07Z"/><path class="cls-1" d="M31.09,28.34,30,28a5.75,5.75,0,0,1-1-.4,1.35,1.35,0,0,1-.79-1.27,1.48,1.48,0,0,1,.53-1.26,2,2,0,0,1,3,.62,1.54,1.54,0,0,0,1.5,1.5,1.5,1.5,0,0,0,1.5-1.5,4.5,4.5,0,0,0-3.24-3.77V21.5a1.5,1.5,0,0,0-3,0V22A4.72,4.72,0,0,0,26.66,23a4.39,4.39,0,0,0-1.43,3.35,3.94,3.94,0,0,0,1.38,3.21,5.42,5.42,0,0,0,1.37.79,11.07,11.07,0,0,0,1.54.54c.45.14.82.26,1.1.37a4.57,4.57,0,0,1,.87.49,1.81,1.81,0,0,1,.73,1.51,2,2,0,0,1-.64,1.52,2.09,2.09,0,0,1-1.53.61,1.91,1.91,0,0,1-2.22-1.89v-.6a1.5,1.5,0,0,0-3,0v.26A4.81,4.81,0,0,0,28.5,38v.47a1.5,1.5,0,0,0,3,0V38a5.1,5.1,0,0,0,2.15-1.22,4.78,4.78,0,0,0,1.52-3.57A4.63,4.63,0,0,0,34,30,6.31,6.31,0,0,0,31.09,28.34Z"/></svg>