<svg id="Layer_1" data-name="Layer 1" xmlns="http://www.w3.org/2000/svg" viewBox="0 0 60 60"><defs><style></style></defs><title>icon 01 Web</title><path class="cls-1" d="M28.3,30.36a1.53,1.53,0,0,0,0,2.18L36.71,41a1.54,1.54,0,0,0,1.1.46A1.51,1.51,0,0,0,38.9,41l2.76-2.76a1.54,1.54,0,0,0,0-2.19,1.56,1.56,0,0,0-2.19,0l-1.66,1.67-7.33-7.32A1.53,1.53,0,0,0,28.3,30.36Z"/><path class="cls-1" d="M58.68,52.32l-3.53-3.54A4.5,4.5,0,0,0,50,47.92L46.23,44.1A10.5,10.5,0,0,0,32.91,28.54l2.27,2.27a7.5,7.5,0,1,1-2.66,12.32,7.43,7.43,0,0,1-2.11-4.23L27.5,36A10.47,10.47,0,0,0,44.1,46.22L47.92,50a4.5,4.5,0,0,0,.86,5.11l3.54,3.53a4.5,4.5,0,0,0,6.36-6.36Zm-2.12,4.24a1.49,1.49,0,0,1-2.12,0L50.91,53A1.5,1.5,0,0,1,53,50.91l3.53,3.53A1.49,1.49,0,0,1,56.56,56.56Z"/><path class="cls-1" d="M37.68,20.65a2.56,2.56,0,0,0,1.76-.89L46.89,11a1.5,1.5,0,1,0-2.28-1.94l-7.12,8.36-5-4.68a2.53,2.53,0,0,0-1.88-.66A2.56,2.56,0,0,0,28.8,13L18.59,25.38a1.5,1.5,0,0,0,.21,2.11,1.43,1.43,0,0,0,.95.35,1.51,1.51,0,0,0,1.16-.55l9.88-12,5,4.67A2.62,2.62,0,0,0,37.68,20.65Z"/><path class="cls-1" d="M42.91,51.3H18.09a3.84,3.84,0,0,1-3.84-3.84V6.84A3.84,3.84,0,0,1,18.09,3H47.41a3.84,3.84,0,0,1,3.84,3.84V42.91a1.5,1.5,0,0,0,3,0V6.84A6.84,6.84,0,0,0,47.41,0H18.09a6.84,6.84,0,0,0-6.84,6.84V47.46a6.84,6.84,0,0,0,6.84,6.84H42.91a1.5,1.5,0,0,0,0-3Z"/><path class="cls-1" d="M6.84,6A6.84,6.84,0,0,0,0,12.84V41.46A6.84,6.84,0,0,0,6.84,48.3a1.41,1.41,0,0,0,1.41-1.41v-.18A1.41,1.41,0,0,0,6.84,45.3,3.84,3.84,0,0,1,3,41.46V12.84A3.84,3.84,0,0,1,6.84,9,1.41,1.41,0,0,0,8.25,7.59V7.41A1.41,1.41,0,0,0,6.84,6Z"/></svg>