<svg xmlns="http://www.w3.org/2000/svg" width="60" height="60" viewBox="0 0 60 60">
  <g id="Group_12490" data-name="Group 12490" transform="translate(-1328 -132.39)">
    <path id="Path_30908" data-name="Path 30908" d="M1366.089,169.724l-1.143-.339a5.4,5.4,0,0,1-.977-.4,1.342,1.342,0,0,1-.786-1.265,1.457,1.457,0,0,1,.532-1.259,1.967,1.967,0,0,1,3.023.616,1.545,1.545,0,0,0,1.5,1.5,1.5,1.5,0,0,0,1.5-1.5,4.475,4.475,0,0,0-3.238-3.755V162.9a1.5,1.5,0,0,0-3,0v.492a4.723,4.723,0,0,0-1.836,1.045,4.377,4.377,0,0,0-1.434,3.341,3.931,3.931,0,0,0,1.385,3.2,5.6,5.6,0,0,0,1.367.792,13.125,13.125,0,0,0,1.542.538c.443.132.814.257,1.092.37a4.144,4.144,0,0,1,.871.487,1.77,1.77,0,0,1,.731,1.506,2.014,2.014,0,0,1-.634,1.514,2.092,2.092,0,0,1-1.531.608,1.916,1.916,0,0,1-2.225-1.888v-.6a1.5,1.5,0,0,0-3,0l.01.26a4.823,4.823,0,0,0,3.662,4.821v.466a1.5,1.5,0,0,0,3,0V179.4a4.968,4.968,0,0,0,2.149-1.215,4.746,4.746,0,0,0,1.523-3.562,4.593,4.593,0,0,0-1.191-3.2A6.286,6.286,0,0,0,1366.089,169.724Z"/>
    <path id="Path_30909" data-name="Path 30909" d="M1385.3,158.884a4.809,4.809,0,0,0-4.192-2.494h-32.221a4.806,4.806,0,0,0-4.19,2.494H1342v24.935h2.7a4.819,4.819,0,0,0,3.85,2.481c.732.086,5.037.09,7.947.09,5.1,0,24.6-.078,24.615-.078a4.806,4.806,0,0,0,4.192-2.493h2.7V158.884ZM1348.89,183.32a1.842,1.842,0,0,1-1.64-1.089,2.5,2.5,0,0,0-2.25-1.4V161.876a2.5,2.5,0,0,0,2.25-1.4,1.842,1.842,0,0,1,1.64-1.089h7.147a14.884,14.884,0,0,0,.1,24.015C1348.269,183.4,1349.006,183.385,1348.89,183.32Zm16.11,0a11.968,11.968,0,1,1-.021-23.936h.043a11.968,11.968,0,1,1-.022,23.936Zm20-2.492a2.5,2.5,0,0,0-2.25,1.4,1.842,1.842,0,0,1-1.64,1.089s.718.024-7.21.046a14.881,14.881,0,0,0,.062-23.983h7.148a1.842,1.842,0,0,1,1.64,1.089,2.5,2.5,0,0,0,2.25,1.4Z"/>
    <path id="Path_30910" data-name="Path 30910" d="M1369.368,189.39H1333.1a2.17,2.17,0,0,1-2.114-2.162v-38.5h10.337a3,3,0,0,0,3-2.991V135.378h19.016a3.667,3.667,0,0,1,3.667,3.667V151.9l0,.012a1.554,1.554,0,0,0,2.653,1.111l11.7-11.7v3.917h0a1.5,1.5,0,1,0,3,0l0-4.552a4.57,4.57,0,0,0-4.564-4.565h-4.553a1.5,1.5,0,0,0,0,3h3.919L1370,148.285v-9.238a6.657,6.657,0,0,0-6.658-6.657h-20.516a1.448,1.448,0,0,0-1.044.452l-3.456,3.458-3.2,3.195-.741.742h.01l-.485.486-5.515,5.518a1.432,1.432,0,0,0-.4.982v38.51a6.657,6.657,0,0,0,6.657,6.657h34.755v-.009a1.5,1.5,0,0,0-.044-2.991Zm-28.041-51.758v5.1a3,3,0,0,1-2.995,3h-5.089Z"/>
    <path id="Path_30911" data-name="Path 30911" d="M1337.495,176.924h-2a1.5,1.5,0,0,0,0,3h2a1.5,1.5,0,0,0,0-3Z"/>
    <path id="Path_30912" data-name="Path 30912" d="M1337.495,169.94h-2a1.5,1.5,0,0,0,0,3h2a1.5,1.5,0,0,0,0-3Z"/>
    <path id="Path_30913" data-name="Path 30913" d="M1337.495,162.957h-2a1.5,1.5,0,0,0,0,3h2a1.5,1.5,0,0,0,0-3Z"/>
    <path id="Path_30914" data-name="Path 30914" d="M1359.934,150.474h-11a1.5,1.5,0,0,0,0,3h11a1.5,1.5,0,0,0,0-3Z"/>
    <path id="Path_30915" data-name="Path 30915" d="M1359.934,144.491h-11a1.5,1.5,0,0,0,0,3h11a1.5,1.5,0,0,0,0-3Z"/>
    <path id="Path_30916" data-name="Path 30916" d="M1359.934,138.677h-11a1.5,1.5,0,0,0,0,3h11a1.5,1.5,0,0,0,0-3Z"/>
  </g>
</svg>
