<svg id="Layer_1" data-name="Layer 1" xmlns="http://www.w3.org/2000/svg" viewBox="0 0 61 61"><defs><style>.cls-1{}</style></defs><title>SP</title><path class="cls-1" d="M51,34H42a1.5,1.5,0,0,0,0,3h9a1.5,1.5,0,0,0,0-3Z"/><path class="cls-1" d="M51,40H42a1.5,1.5,0,0,0,0,3h9a1.5,1.5,0,0,0,0-3Z"/><path class="cls-1" d="M51,46H42a1.5,1.5,0,0,0,0,3h9a1.5,1.5,0,0,0,0-3Z"/><path class="cls-1" d="M51,52H42a1.5,1.5,0,0,0,0,3h9a1.5,1.5,0,0,0,0-3Z"/><path class="cls-1" d="M56.75,25.5H55.22a4.49,4.49,0,0,0-4.22-3H42a4.49,4.49,0,0,0-4.22,3H36.25a3.74,3.74,0,0,0-3.75,3.73V56.77a3.74,3.74,0,0,0,3.75,3.73h20.5a3.74,3.74,0,0,0,3.75-3.73V29.23A3.74,3.74,0,0,0,56.75,25.5ZM42,25.5h9a1.5,1.5,0,0,1,0,3H42a1.5,1.5,0,0,1,0-3ZM57.5,55.76a1.75,1.75,0,0,1-1.74,1.74H37.24a1.74,1.74,0,0,1-1.74-1.74V30.24a1.74,1.74,0,0,1,1.74-1.74h.54a4.49,4.49,0,0,0,4.22,3h9a4.49,4.49,0,0,0,4.22-3h.54a1.75,1.75,0,0,1,1.74,1.74Z"/><path class="cls-1" d="M3.5,52.55V40.49a1,1,0,0,1,1-1H28a1.5,1.5,0,0,0,0-3H17.51a1.75,1.75,0,0,1-1.74-1.74V17.49a1,1,0,0,1,1-1H44.24a1,1,0,0,1,1,1V18a1.5,1.5,0,1,0,3,0,.29.29,0,0,0,0-.09V13.5a2.93,2.93,0,0,0-.69-1.94L40.86,2a3.76,3.76,0,0,0-3-1.5H23.15a3.77,3.77,0,0,0-3,1.5l-6.65,9.56a2.93,2.93,0,0,0-.69,1.94v5.06h0V23.5h-1.9a3.76,3.76,0,0,0-3,1.5L1.22,34.56A2.93,2.93,0,0,0,.53,36.5v6.06h0v7a0,0,0,0,0,0,.06v2.94a0,0,0,0,0,0,.06v4.17A3.74,3.74,0,0,0,4.23,60.5H28a1.5,1.5,0,0,0,0-3H5.24A1.75,1.75,0,0,1,3.5,55.76V52.55Zm13.26-40.2,5.75-8.5a.75.75,0,0,1,.64-.35c.22,0,2.8,0,5.35,0s9.13,0,9.35,0a.75.75,0,0,1,.64.35l5.75,8.5a.7.7,0,0,1-.53,1.15H17.29A.7.7,0,0,1,16.76,12.35Zm-12.27,23,5.75-8.5a.75.75,0,0,1,.64-.35h1.9s0,0,0,0a0,0,0,0,0,0,0l0,9.92H5A.7.7,0,0,1,4.49,35.35Z"/></svg>
