<svg xmlns="http://www.w3.org/2000/svg" width="60" height="60" viewBox="0 0 60 60">
  <g id="Group_12505" data-name="Group 12505" transform="translate(-1328 -232.393)">
    <path id="Path_30974" data-name="Path 30974" d="M1368.989,268.787l0,0a1.5,1.5,0,1,1,2.121,2.121h0l-2.988,2.987h9.125a1.5,1.5,0,0,1,0,3h-9.125l2.987,2.987h0a1.5,1.5,0,0,1-2.121,2.121l0,0-5.129-5.129a2.1,2.1,0,0,1,0-2.955Z" />
    <path id="Path_30975" data-name="Path 30975" d="M1373,258.522V241.029a1.9,1.9,0,0,0-1.3-1.807l-19.8-6.6a4.391,4.391,0,0,0-2.787,0l-19.8,6.6a1.912,1.912,0,0,0-1.308,1.814v29.03a4.386,4.386,0,0,0,3.006,4.171l18.9,6.3a1.861,1.861,0,0,0,1.18,0l3.407-1.136a16.991,16.991,0,1,0,18.5-20.878Zm-40.622-17.2c4.313-1.477,17.251-5.714,17.251-5.714a2.75,2.75,0,0,1,1.743,0l5.45,1.817-19.517,6.5-4.911-1.637A.507.507,0,0,1,1332.378,241.323ZM1349,276.364a.509.509,0,0,1-.67.483l-15.1-5.033a3.263,3.263,0,0,1-2.232-3.1V247.573a1.866,1.866,0,0,1,2.457-1.77l15.195,5.063a.51.51,0,0,1,.348.483Zm.468-28.388-7.414-2.472,19.516-6.495,6.982,2.327a.509.509,0,0,1,0,.966l-17.019,5.674A3.27,3.27,0,0,1,1349.468,247.976ZM1352,277.07h0V251.349a.51.51,0,0,1,.348-.483l15.195-5.065a1.866,1.866,0,0,1,2.457,1.77v10.873a17.007,17.007,0,0,0-16,16.949c0,.335.031.663.05.994Zm19,12.323a14,14,0,1,1,14-14A14,14,0,0,1,1371,289.393Z" />
  </g>
</svg>
