<svg xmlns="http://www.w3.org/2000/svg" width="60" height="60" viewBox="0 0 60 60">
  <g id="Group_12500" data-name="Group 12500" transform="translate(-1128 -32.387)">
    <path id="Path_30949" data-name="Path 30949" d="M1177.332,75.886A3.672,3.672,0,0,0,1181,72.217V59.055a3.672,3.672,0,0,0-3.668-3.668h-6.664A3.672,3.672,0,0,0,1167,59.055V72.218a3.672,3.672,0,0,0,3.668,3.668ZM1170,72.218V59.055a.668.668,0,0,1,.668-.668h6.664a.668.668,0,0,1,.668.668V72.217a.668.668,0,0,1-.668.669h-6.665A.668.668,0,0,1,1170,72.218Z" />
    <path id="Path_30950" data-name="Path 30950" d="M1186.448,47.15,1161.408,33.6a5.39,5.39,0,0,0-6.816,0l-25.04,13.549A3,3,0,0,0,1128,49.777v.169h.016a1.493,1.493,0,0,0,2.984-.081c0-.028-.014-.051-.016-.079L1156.02,36.24l.233-.127.208-.165a2.391,2.391,0,0,1,3.078,0l.208.165.233.127,24.234,13.112a1.5,1.5,0,0,1,.786,1.319V87.887a1.5,1.5,0,0,1-1.5,1.5h-18a1.5,1.5,0,0,0,0,3h18a4.5,4.5,0,0,0,4.5-4.5V49.777A3,3,0,0,0,1186.448,47.15Z" />
    <path id="Path_30951" data-name="Path 30951" d="M1164,81.886h16.5a1.5,1.5,0,0,0,0-3H1164v-22a1.5,1.5,0,1,0-3,0V69.939a3.551,3.551,0,0,0-.529-.053h-7.851l-7.265-11.851c-1.878-3.612-4.617-3.568-4.865-3.56H1129.5a1.5,1.5,0,0,0-1.5,1.5V84.357a3.534,3.534,0,0,0,3.529,3.529h1.684a5.971,5.971,0,0,0,11.575,0h2.425a5.971,5.971,0,0,0,11.575,0h1.683A3.534,3.534,0,0,0,1164,84.357Zm-33-24.411h9.51c.049,0,1.2.062,2.236,2.036l6.356,10.376h-17.573a3.551,3.551,0,0,0-.529.053Zm8,31.912a3,3,0,1,1,3-3A3,3,0,0,1,1139,89.387Zm14,0a3,3,0,1,1,3-3A3,3,0,0,1,1153,89.387Zm8-15.376V84.357a.53.53,0,0,1-.529.529h-1.684a5.971,5.971,0,0,0-11.574,0h-2.426a5.971,5.971,0,0,0-11.574,0h-1.684a.53.53,0,0,1-.529-.529V79.112h0v-5.1h0v-.6a.53.53,0,0,1,.529-.529h28.942a.53.53,0,0,1,.529.529Z" />
  </g>
</svg>
