<svg xmlns="http://www.w3.org/2000/svg" width="60" height="60" viewBox="0 0 60 60">
  <g id="Group_1895" data-name="Group 1895" transform="translate(-1084.703 -148.018)">
    <path id="Path_1877" data-name="Path 1877" d="M1135.931,181.518H1126.2a1.5,1.5,0,0,0,0,3h9.728a1.5,1.5,0,0,0,0-3Z" />
    <path id="Path_1878" data-name="Path 1878" d="M1135.931,187.517H1126.2a1.5,1.5,0,0,0,0,3h9.728a1.5,1.5,0,0,0,0-3Z" />
    <path id="Path_1879" data-name="Path 1879" d="M1135.931,193.517H1126.2a1.5,1.5,0,0,0,0,3h9.728a1.5,1.5,0,0,0,0-3Z" />
    <path id="Path_1880" data-name="Path 1880" d="M1135.931,199.516H1126.2a1.5,1.5,0,0,0,0,3h9.728a1.5,1.5,0,0,0,0-3Z" />
    <path id="Path_1881" data-name="Path 1881" d="M1140.951,173.018l-1.524,0a4.492,4.492,0,0,0-4.224-3h-9.728a4.493,4.493,0,0,0-4.224,3l-1.525,0a3.746,3.746,0,0,0-3.752,3.731v27.539a3.746,3.746,0,0,0,3.752,3.73l9.248-.007v.007h5.729v-.011l6.248.011a3.746,3.746,0,0,0,3.752-3.73V176.749A3.746,3.746,0,0,0,1140.951,173.018Zm-15.477,0h9.729a1.5,1.5,0,0,1,0,3h-9.729a1.5,1.5,0,0,1,0-3Zm16.229,30.254a1.75,1.75,0,0,1-1.745,1.744h-19.24a1.749,1.749,0,0,1-1.744-1.744V177.762a1.749,1.749,0,0,1,1.744-1.744h.532a4.5,4.5,0,0,0,4.225,3h9.728a4.494,4.494,0,0,0,4.224-3h.531a1.75,1.75,0,0,1,1.745,1.744Z" fill="#"/>
    <path id="Path_1882" data-name="Path 1882" d="M1108.8,170.02h-1.738a4.1,4.1,0,0,0-4.088,4.13v29.162a2.023,2.023,0,0,0,.339,1.121l1.789,2.684a2.023,2.023,0,0,0,1.683.9h2.378a2.024,2.024,0,0,0,1.683-.9l1.789-2.683a2.023,2.023,0,0,0,.339-1.121V174.107A4.1,4.1,0,0,0,1108.8,170.02Zm1.175,4.46v28.538l-1.333,2h-1.334l-1.333-2v-1h0v-5h0v-7h0V174.149a1.1,1.1,0,0,1,1.174-1.129h1.651a1.1,1.1,0,0,1,1.175,1.129Z" fill="#"/>
    <path id="Path_1883" data-name="Path 1883" d="M1128.1,164.017a1.336,1.336,0,0,1,1.335,1.336v.17a1.5,1.5,0,1,0,2.994,0c0-.035-.017-.064-.019-.1l-.007-4.407a2.911,2.911,0,0,0-.691-1.944l-6.648-9.552a3.735,3.735,0,0,0-3.006-1.5h-14.7a3.735,3.735,0,0,0-3.006,1.5l-6.648,9.552a2.911,2.911,0,0,0-.691,1.944l-.008,5.059h-.018v4.6a.344.344,0,0,1-.344.344h-1.557a3.736,3.736,0,0,0-3.005,1.5l-6.649,9.553a2.907,2.907,0,0,0-.69,1.943l-.008,6.059h-.019v6.962a.131.131,0,0,0-.005.027c0,.01.005.018.005.028v2.944c0,.01-.005.018-.005.028a.085.085,0,0,0,.005.028v2.836l-.005,1.336a3.745,3.745,0,0,0,3.73,3.752h10.041a1.5,1.5,0,0,0,0-3h-8.683a2.1,2.1,0,0,1-2.088-2.088V188.353a1.336,1.336,0,0,1,1.336-1.335h7.929a3.006,3.006,0,0,0,3.006-3.007V165.353a1.336,1.336,0,0,1,1.336-1.336H1128.1Zm-31.117,10.022a.22.22,0,0,0-.005.027.074.074,0,0,0,.005.026l-.02,8.431a1.5,1.5,0,0,1-1.5,1.5h-6.238a.7.7,0,0,1-.534-1.153l5.756-8.5a.75.75,0,0,1,.635-.348h.269l1.63.008Zm3.981-14.174,5.756-8.5a.751.751,0,0,1,.635-.349c.222.03,2.806.03,5.352.023s9.129.007,9.351-.023a.751.751,0,0,1,.635.349l5.756,8.5a.7.7,0,0,1-.534,1.152h-26.417A.7.7,0,0,1,1100.96,159.865Z" />
  </g>
</svg>
