<svg xmlns="http://www.w3.org/2000/svg" width="60" height="60" viewBox="0 0 60 60">
  <g id="Group_12472" data-name="Group 12472" transform="translate(-728 -332.395)">
    <path id="Path_30832" data-name="Path 30832" d="M746.1,353.163h8a1.5,1.5,0,0,0,0-3h-8a1.5,1.5,0,0,0,0,3Z"/>
    <circle id="Ellipse_880" data-name="Ellipse 880" cx="1.5" cy="1.5" r="1.5" transform="translate(739.601 350.163)"/>
    <path id="Path_30833" data-name="Path 30833" d="M761.1,357.516h-15a1.5,1.5,0,0,0,0,3h15a1.5,1.5,0,0,0,0-3Z"/>
    <circle id="Ellipse_881" data-name="Ellipse 881" cx="1.5" cy="1.5" r="1.5" transform="translate(739.601 357.516)"/>
    <path id="Path_30834" data-name="Path 30834" d="M761.1,364.869h-15a1.5,1.5,0,0,0,0,3h15a1.5,1.5,0,0,0,0-3Z"/>
    <circle id="Ellipse_882" data-name="Ellipse 882" cx="1.5" cy="1.5" r="1.5" transform="translate(739.601 364.869)"/>
    <path id="Path_30835" data-name="Path 30835" d="M761.1,372.222h-15a1.5,1.5,0,0,0,0,3h15a1.5,1.5,0,0,0,0-3Z"/>
    <circle id="Ellipse_883" data-name="Ellipse 883" cx="1.5" cy="1.5" r="1.5" transform="translate(739.601 372.222)"/>
    <path id="Path_30836" data-name="Path 30836" d="M773.5,332.395a14.5,14.5,0,0,0-12.943,8H739.5a6.526,6.526,0,0,0-6.5,6.51v35.084h-3.566A1.434,1.434,0,0,0,728,383.423v2.472s-.064,6.5,3.185,6.5H762.7a6.522,6.522,0,0,0,6.5-6.509V360.745a14.5,14.5,0,1,0,4.3-28.35Zm-41.461,57c-1.039-.619-1.037-2.214-1.039-3.5v-.9h25.189v.9c0,1.291-.039,2.71,1.039,3.5Zm34.163-3.509a3.507,3.507,0,1,1-7.013,0v-1.892a1.965,1.965,0,0,0-2.006-2H736V346.9a3.518,3.518,0,0,1,3.507-3.509h19.938A14.376,14.376,0,0,0,766.2,359.4Zm7.3-27.491a11.5,11.5,0,1,1,11.5-11.5A11.513,11.513,0,0,1,773.5,358.395Z"/>
    <path id="Path_30837" data-name="Path 30837" d="M774.589,345.235l-1.142-.34a5.451,5.451,0,0,1-.978-.4,1.345,1.345,0,0,1-.785-1.268,1.462,1.462,0,0,1,.531-1.263,1.965,1.965,0,0,1,3.023.618,1.547,1.547,0,0,0,1.5,1.5,1.5,1.5,0,0,0,1.5-1.5A4.487,4.487,0,0,0,775,338.818v-.923a1.5,1.5,0,0,0-3,0v1a4.724,4.724,0,0,0-1.836,1.046,4.4,4.4,0,0,0-1.434,3.351,3.949,3.949,0,0,0,1.385,3.209,5.593,5.593,0,0,0,1.368.794,13.251,13.251,0,0,0,1.541.54c.444.132.814.257,1.092.37a4.144,4.144,0,0,1,.871.489,1.775,1.775,0,0,1,.731,1.509,2.025,2.025,0,0,1-.634,1.519,2.087,2.087,0,0,1-1.531.609,1.918,1.918,0,0,1-2.225-1.893v-.6a1.5,1.5,0,0,0-3,0l.011.261A4.833,4.833,0,0,0,772,354.928v.967a1.5,1.5,0,0,0,3,0v-.964a4.958,4.958,0,0,0,2.149-1.218,4.766,4.766,0,0,0,1.523-3.572,4.611,4.611,0,0,0-1.191-3.212A6.269,6.269,0,0,0,774.589,345.235Z"/>
  </g>
</svg>
