<svg id="Layer_1" data-name="Layer 1" xmlns="http://www.w3.org/2000/svg" viewBox="0 0 62 62"><path class="cls-1" d="M51.33,44.36l-4.49,4.49-1.67-1.66A1.55,1.55,0,0,0,43,49.38l2.76,2.76a1.56,1.56,0,0,0,2.19,0l5.59-5.59a1.55,1.55,0,0,0-2.19-2.19Z"/><path class="cls-1" d="M7.84,7A6.84,6.84,0,0,0,1,13.84V42.46A6.84,6.84,0,0,0,7.84,49.3a1.41,1.41,0,0,0,1.41-1.41v-.18A1.41,1.41,0,0,0,7.84,46.3,3.84,3.84,0,0,1,4,42.46V13.84A3.84,3.84,0,0,1,7.84,10,1.41,1.41,0,0,0,9.25,8.59V8.41A1.41,1.41,0,0,0,7.84,7Z"/><path class="cls-1" d="M19.09,52.3a3.84,3.84,0,0,1-3.84-3.84V7.84A3.84,3.84,0,0,1,19.09,4H48.41a3.84,3.84,0,0,1,3.84,3.84V32.59a15.56,15.56,0,0,1,3,1.17V7.84A6.84,6.84,0,0,0,48.41,1H19.09a6.84,6.84,0,0,0-6.84,6.84V48.46a6.84,6.84,0,0,0,6.84,6.84H33.78a16.27,16.27,0,0,1-1.18-3Z"/><path class="cls-1" d="M48,35A13,13,0,1,0,61,48,13,13,0,0,0,48,35Zm0,23A10,10,0,1,1,58,48,10,10,0,0,1,48,58Z"/><path class="cls-1" d="M38.34,8.5A1.5,1.5,0,0,0,36.84,7h-17a1.5,1.5,0,0,0,0,3h17A1.5,1.5,0,0,0,38.34,8.5Z"/><path class="cls-1" d="M27.84,13h-8a1.5,1.5,0,0,0,0,3h8a1.5,1.5,0,1,0,0-3Z"/><path class="cls-1" d="M27.84,19h-8a1.5,1.5,0,0,0,0,3h8a1.5,1.5,0,1,0,0-3Z"/><path class="cls-1" d="M27.84,25h-8a1.5,1.5,0,0,0,0,3h8a1.5,1.5,0,1,0,0-3Z"/><path class="cls-1" d="M47.63,13H33.84a1.5,1.5,0,0,0,0,3H47.63a1.5,1.5,0,0,0,0-3Z"/><path class="cls-1" d="M47.63,19H33.84a1.5,1.5,0,0,0,0,3H47.63a1.5,1.5,0,0,0,0-3Z"/><path class="cls-1" d="M49.13,26.5a1.5,1.5,0,0,0-1.5-1.5H33.84a1.5,1.5,0,0,0,0,3H47.63A1.5,1.5,0,0,0,49.13,26.5Z"/><path class="cls-1" d="M27.84,31h-8a1.5,1.5,0,0,0,0,3h8a1.5,1.5,0,1,0,0-3Z"/><path class="cls-1" d="M27.84,37h-8a1.5,1.5,0,0,0,0,3h8a1.5,1.5,0,1,0,0-3Z"/><path class="cls-1" d="M27.84,43h-8a1.5,1.5,0,0,0,0,3h8a1.5,1.5,0,1,0,0-3Z"/></svg>