<svg id="Layer_1" data-name="Layer 1" xmlns="http://www.w3.org/2000/svg" viewBox="0 0 62 62"><defs><style></style></defs><title>icon</title><path class="cls-1" d="M31,1A30,30,0,1,0,61,31,30,30,0,0,0,31,1ZM52.77,15.09A26.91,26.91,0,0,1,57.94,29.5H49a46.54,46.54,0,0,0-1.71-11.36A31.43,31.43,0,0,0,52.77,15.09ZM31,46H17.44c-.37,0-.43-.23-.44-.3V44.05C17.17,37.39,23.38,32,30.85,32h.3C38.62,32,44.83,37.39,45,44.05v1.61c0,.07-.07.3-.44.3ZM15.74,32.5H20.2A16.09,16.09,0,0,0,16.13,37,42.79,42.79,0,0,1,15.74,32.5ZM24.13,29c.17.18.36.32.54.49H15.74a43.29,43.29,0,0,1,1.59-10.36,38.7,38.7,0,0,0,4.45,1.2,10,10,0,0,0-.24,1.9A9.4,9.4,0,0,0,24.13,29Zm6.75-13H31A6.46,6.46,0,0,1,31.18,29h-.36A6.46,6.46,0,0,1,30.88,16Zm9.34,4.3a38.15,38.15,0,0,0,4.45-1.2A42.8,42.8,0,0,1,46.25,29.5H37.33a6.28,6.28,0,0,0,.54-.49,9.4,9.4,0,0,0,2.59-6.77A9.15,9.15,0,0,0,40.22,20.34ZM41.81,32.5h4.44c0,1.51-.18,3-.37,4.43A16.17,16.17,0,0,0,41.81,32.5Zm9-19.77a28.38,28.38,0,0,1-4.53,2.51,28.66,28.66,0,0,0-5.43-9.33A27.31,27.31,0,0,1,50.82,12.73Zm-7.1,3.52a34.68,34.68,0,0,1-4.67,1.26,9.35,9.35,0,0,0-6.55-4.35v-9C37.13,5,41.22,9.64,43.72,16.25ZM29.5,4.15v9A9.39,9.39,0,0,0,23,17.52a35.81,35.81,0,0,1-4.69-1.27C20.78,9.64,24.87,5,29.5,4.15ZM21.14,5.91a28.68,28.68,0,0,0-5.44,9.33,28.27,28.27,0,0,1-4.52-2.51A27.31,27.31,0,0,1,21.14,5.91ZM9.23,15.09a31.43,31.43,0,0,0,5.53,3.05A46.06,46.06,0,0,0,13.05,29.5h-9A26.91,26.91,0,0,1,9.23,15.09Zm0,31.82A26.84,26.84,0,0,1,4.06,32.5h9a47.28,47.28,0,0,0,1.19,9.31A15,15,0,0,0,14,44.05v.17A29.87,29.87,0,0,0,9.24,46.91Zm1.93,2.36a26.63,26.63,0,0,1,3.31-1.94,3.36,3.36,0,0,0,2.08,1.51,27.16,27.16,0,0,0,4.58,7.25A27.34,27.34,0,0,1,11.17,49.27ZM19.7,49h9.8v8.89C25.67,57.15,22.2,53.84,19.7,49Zm12.8,8.89V49h9.8C39.8,53.84,36.33,57.15,32.5,57.85Zm8.36-1.76a27.16,27.16,0,0,0,4.58-7.25,3.33,3.33,0,0,0,2.08-1.51,27.89,27.89,0,0,1,3.31,1.93A27.16,27.16,0,0,1,40.86,56.09Zm11.9-9.17A30.69,30.69,0,0,0,48,44.22V44a13.11,13.11,0,0,0-.24-2.19A46.44,46.44,0,0,0,49,32.5h9A26.84,26.84,0,0,1,52.76,46.92Z"/></svg>