<svg id="Layer_1" data-name="Layer 1" xmlns="http://www.w3.org/2000/svg" viewBox="0 0 113.39 85.04"><defs><style>.cls-1{fill:none;stroke:#000;stroke-miterlimit:10;stroke-width:0.14px;}</style></defs><title>in tem 40x30</title><rect class="cls-1" width="113.39" height="85.04"/><path d="M12.48,68.4l.26.2a1.66,1.66,0,0,0-.37.72l-.06.35h-.47l0-.29A1.53,1.53,0,0,1,12.48,68.4Zm.8,0,.26.2a1.53,1.53,0,0,0-.36.72l-.07.35h-.47l0-.29A1.52,1.52,0,0,1,13.28,68.4Z"/><path d="M16.55,69.08H15.36l-.6,3.41h-.49l.59-3.41H13.67l.08-.42h2.87Z"/><path d="M17.9,72.49a.77.77,0,0,1,0-.15v-.15a1.22,1.22,0,0,1-.83.36.89.89,0,0,1-.61-.24.74.74,0,0,1-.22-.59.87.87,0,0,1,.4-.7,1.66,1.66,0,0,1,1-.26h.5l0-.23a.52.52,0,0,0-.1-.4.5.5,0,0,0-.38-.16.8.8,0,0,0-.43.12.58.58,0,0,0-.23.33h-.48a.77.77,0,0,1,.2-.45,1.08,1.08,0,0,1,.44-.3,1.49,1.49,0,0,1,.55-.1,1,1,0,0,1,.69.27.81.81,0,0,1,.21.69L18.37,72v.2a.72.72,0,0,0,0,.29v0Zm-.75-.37a.73.73,0,0,0,.43-.11,1.06,1.06,0,0,0,.36-.31l.1-.59h-.36a1.42,1.42,0,0,0-.69.14.53.53,0,0,0-.27.4.4.4,0,0,0,.09.34A.46.46,0,0,0,17.15,72.12Zm.61-3.59h.39l.62.69h-.46L18,68.81l-.51.42h-.55Zm1.39-.45h.54l-.63.68h-.4Z"/><path d="M20.28,69l-.12.69h.52l-.06.37H20.1l-.3,1.77v.13a.19.19,0,0,0,.22.2,1,1,0,0,0,.23,0l0,.4a1.39,1.39,0,0,1-.35,0,.49.49,0,0,1-.43-.21.82.82,0,0,1-.11-.54L19.62,70h-.5l.07-.37h.5l.12-.69Z"/><path d="M23.28,72.15a.75.75,0,0,0,.46-.15.69.69,0,0,0,.27-.4h.45a1.18,1.18,0,0,1-.21.49,1.27,1.27,0,0,1-1,.46,1,1,0,0,1-.6-.19,1.1,1.1,0,0,1-.36-.5,1.59,1.59,0,0,1-.08-.73V71a2.09,2.09,0,0,1,.24-.73,1.36,1.36,0,0,1,.5-.51,1.26,1.26,0,0,1,.67-.17,1,1,0,0,1,.72.3,1.09,1.09,0,0,1,.26.74h-.44a.69.69,0,0,0-.16-.46.56.56,0,0,0-.4-.18.79.79,0,0,0-.62.28,1.46,1.46,0,0,0-.3.79v.07c0,.11,0,.23,0,.35a.74.74,0,0,0,.18.48A.52.52,0,0,0,23.28,72.15Z"/><path d="M26.58,72.49a.77.77,0,0,1,0-.15v-.15a1.22,1.22,0,0,1-.83.36.91.91,0,0,1-.61-.24.7.7,0,0,1-.21-.59.84.84,0,0,1,.39-.7,1.68,1.68,0,0,1,1-.26h.5l0-.23a.48.48,0,0,0-.1-.4.49.49,0,0,0-.37-.16.75.75,0,0,0-.43.12.55.55,0,0,0-.24.33H25.2a.76.76,0,0,1,.19-.45,1.08,1.08,0,0,1,.44-.3,1.49,1.49,0,0,1,.55-.1,1,1,0,0,1,.7.27.83.83,0,0,1,.2.69L27.05,72v.2a1.43,1.43,0,0,0,0,.29v0Zm-.74-.37a.75.75,0,0,0,.43-.11,1.14,1.14,0,0,0,.35-.31l.1-.59h-.36a1.42,1.42,0,0,0-.69.14.53.53,0,0,0-.27.4.47.47,0,0,0,.09.34A.48.48,0,0,0,25.84,72.12Zm.54-2.93.06-.41h.11c.18,0,.29-.08.3-.2s-.1-.18-.38-.18l0-.28a1,1,0,0,1,.53.13.41.41,0,0,1,.18.34c0,.23-.16.37-.45.42l0,.19Z"/><path d="M30,69.64l-.06.37a1.11,1.11,0,0,1,.87-.42.69.69,0,0,1,.59.28,1.1,1.1,0,0,1,.15.76l-.31,1.86h-.48L31,70.62a1.93,1.93,0,0,0,0-.24.39.39,0,0,0-.44-.37.87.87,0,0,0-.75.45l-.35,2H29l.49-2.84Z"/><path d="M32.83,70a1.08,1.08,0,0,1,.86-.39.68.68,0,0,1,.59.27,1,1,0,0,1,.14.76l-.31,1.86h-.47L34,70.62a1,1,0,0,0,0-.24.38.38,0,0,0-.43-.37.86.86,0,0,0-.75.45l-.35,2h-.48l.7-4h.48Z"/><path d="M38.33,69.42a1,1,0,0,1-.25.65.91.91,0,0,1-.64.22l-.4,2.2h-.45l.06-.28a1.11,1.11,0,0,1-.84.34.72.72,0,0,1-.61-.3,1.07,1.07,0,0,1-.15-.76l.31-1.84h.47l-.3,1.84a1.85,1.85,0,0,0,0,.23.54.54,0,0,0,.11.3.38.38,0,0,0,.28.11.83.83,0,0,0,.79-.41l.36-2.07h.47l-.06.35a.54.54,0,0,0,.35-.13.74.74,0,0,0,.17-.45Zm-.8-.83a.81.81,0,0,1-.19.46.54.54,0,0,1-.41.18.39.39,0,0,1-.18,0l-.16-.09L36.43,69a.33.33,0,0,0-.17,0c-.15,0-.25.11-.31.3l-.32,0a.81.81,0,0,1,.2-.47.47.47,0,0,1,.41-.18.3.3,0,0,1,.13,0,.84.84,0,0,1,.2.11l.2.11.14,0c.15,0,.25-.1.31-.3Z"/><path d="M39,69.64,39,70a1.11,1.11,0,0,1,.87-.42.69.69,0,0,1,.59.28,1.1,1.1,0,0,1,.15.76l-.31,1.86H39.8l.31-1.87a1.93,1.93,0,0,0,0-.24.39.39,0,0,0-.44-.37.89.89,0,0,0-.75.45l-.35,2H38.1l.5-2.84Z"/><path d="M41.15,71.06a2.09,2.09,0,0,1,.25-.8,1.36,1.36,0,0,1,.46-.51,1.09,1.09,0,0,1,.59-.16.89.89,0,0,1,.75.37l.09-.31h.44l-.48,2.78a1.35,1.35,0,0,1-.44.87,1.23,1.23,0,0,1-.9.32,1.32,1.32,0,0,1-.55-.14,1.06,1.06,0,0,1-.42-.36l.27-.29a.83.83,0,0,0,.68.39.88.88,0,0,0,.58-.19,1,1,0,0,0,.31-.57l0-.25a1.1,1.1,0,0,1-.81.34.87.87,0,0,1-.46-.15.81.81,0,0,1-.31-.39,1.7,1.7,0,0,1-.12-.57C41.13,71.33,41.14,71.21,41.15,71.06Zm.46.27a1,1,0,0,0,.13.59.49.49,0,0,0,.42.21.84.84,0,0,0,.73-.42l.22-1.3a.57.57,0,0,0-.57-.4.71.71,0,0,0-.63.31,1.62,1.62,0,0,0-.3.88Z"/><path d="M46.23,69.64l-.07.37a1.14,1.14,0,0,1,.88-.42.7.7,0,0,1,.59.28,1,1,0,0,1,.14.76l-.31,1.86H47l.31-1.87a1,1,0,0,0,0-.24.39.39,0,0,0-.43-.37.86.86,0,0,0-.75.45l-.36,2h-.47l.49-2.84Z"/><path d="M48.34,71.06a2.09,2.09,0,0,1,.25-.8,1.28,1.28,0,0,1,.46-.51,1.09,1.09,0,0,1,.59-.16.87.87,0,0,1,.74.37l.1-.31h.43l-.47,2.78a1.35,1.35,0,0,1-.44.87,1.26,1.26,0,0,1-.9.32,1.36,1.36,0,0,1-.56-.14,1.1,1.1,0,0,1-.41-.36l.27-.29a.83.83,0,0,0,.68.39.85.85,0,0,0,.57-.19.94.94,0,0,0,.31-.57l.06-.25a1.13,1.13,0,0,1-.82.34.9.9,0,0,1-.46-.15.85.85,0,0,1-.3-.39,1.7,1.7,0,0,1-.12-.57A2.69,2.69,0,0,1,48.34,71.06Zm.46.27a1,1,0,0,0,.13.59.48.48,0,0,0,.41.21.86.86,0,0,0,.74-.42l.22-1.3a.57.57,0,0,0-.57-.4.7.7,0,0,0-.63.31,1.62,1.62,0,0,0-.3.88Z"/><path d="M54.65,69.42a1.05,1.05,0,0,1-.25.65,1,1,0,0,1-.65.22l-.4,2.2H52.9l.06-.28a1.09,1.09,0,0,1-.84.34.72.72,0,0,1-.61-.3,1.07,1.07,0,0,1-.14-.76l.3-1.84h.48l-.31,1.84a1.85,1.85,0,0,0,0,.23A.48.48,0,0,0,52,72a.36.36,0,0,0,.28.11.84.84,0,0,0,.79-.41l.35-2.07h.48l-.07.35a.59.59,0,0,0,.36-.13.81.81,0,0,0,.16-.45Z"/><path d="M56,69.59a1.1,1.1,0,0,1,.83.37.49.49,0,0,0,.31-.16,1.09,1.09,0,0,0,.16-.46h.38a1.18,1.18,0,0,1-.21.6.8.8,0,0,1-.46.3,1.75,1.75,0,0,1,0,.4,2.11,2.11,0,0,1-.16,1,1.53,1.53,0,0,1-.54.7,1.33,1.33,0,0,1-.78.24,1.11,1.11,0,0,1-.61-.2,1.08,1.08,0,0,1-.37-.51,1.56,1.56,0,0,1-.07-.72v-.06A1.81,1.81,0,0,1,55.05,70,1.31,1.31,0,0,1,56,69.59Zm-1,1.76a1,1,0,0,0,.16.58.58.58,0,0,0,.45.22.78.78,0,0,0,.63-.28,1.54,1.54,0,0,0,.34-.83c0-.11,0-.23,0-.35a.9.9,0,0,0-.18-.5A.57.57,0,0,0,56,70a.7.7,0,0,0-.51.18,1.11,1.11,0,0,0-.35.51A1.93,1.93,0,0,0,55,71.35Zm1.36-2.13H56l-.54-.78H56Z"/><path d="M57.94,72.49h-.47L58,69.65h.48Zm.39-3.88a.24.24,0,0,1,.2.07.24.24,0,0,1,.08.2.27.27,0,0,1-.28.29.27.27,0,0,1-.2-.07.28.28,0,0,1-.08-.2.39.39,0,0,1,.08-.21A.28.28,0,0,1,58.33,68.61Z"/><path d="M61.8,71.72c0-.19-.08-.33-.32-.41l-.5-.15c-.41-.14-.62-.38-.6-.71a.8.8,0,0,1,.34-.62,1.26,1.26,0,0,1,.77-.24,1,1,0,0,1,.7.26.8.8,0,0,1,.26.64H62a.42.42,0,0,0-.13-.34.51.51,0,0,0-.37-.14.63.63,0,0,0-.43.12.45.45,0,0,0-.19.31q0,.24.3.36l.24.06a1.69,1.69,0,0,1,.7.33.63.63,0,0,1,.18.5.77.77,0,0,1-.17.47,1,1,0,0,1-.42.3,1.47,1.47,0,0,1-.56.1,1.18,1.18,0,0,1-.75-.27.82.82,0,0,1-.28-.67h.48a.5.5,0,0,0,.15.38.57.57,0,0,0,.42.15.94.94,0,0,0,.45-.11A.46.46,0,0,0,61.8,71.72Z"/><path d="M63.27,72.49H62.8l.5-2.84h.47Zm.4-3.88a.25.25,0,0,1,.2.07.28.28,0,0,1,.08.2.3.3,0,0,1-.08.21.28.28,0,0,1-.2.08.3.3,0,0,1-.21-.07.27.27,0,0,1-.07-.2.32.32,0,0,1,.08-.21A.26.26,0,0,1,63.67,68.61Z"/><path d="M65,69.64l-.07.37a1.13,1.13,0,0,1,.87-.42.72.72,0,0,1,.6.28,1.16,1.16,0,0,1,.14.76l-.31,1.86h-.48l.31-1.87a.65.65,0,0,0,0-.24.39.39,0,0,0-.44-.37.89.89,0,0,0-.75.45l-.35,2h-.48l.5-2.84Z"/><path d="M67.85,70a1.1,1.1,0,0,1,.86-.39.67.67,0,0,1,.59.27,1.1,1.1,0,0,1,.15.76l-.31,1.86h-.48L69,70.62a2.09,2.09,0,0,0,0-.24.39.39,0,0,0-.44-.37.86.86,0,0,0-.75.45l-.35,2H67l.7-4h.48Z"/><path d="M73,70.08l-.23,0a.81.81,0,0,0-.72.41l-.35,2h-.47l.49-2.84h.46l-.07.34a.83.83,0,0,1,.71-.39.79.79,0,0,1,.23,0Z"/><path d="M74.61,72.49a.76.76,0,0,1,0-.15v-.15a1.2,1.2,0,0,1-.83.36.91.91,0,0,1-.61-.24.7.7,0,0,1-.21-.59.89.89,0,0,1,.39-.7,1.68,1.68,0,0,1,1-.26h.5l0-.23a.46.46,0,0,0-.47-.56.77.77,0,0,0-.43.12.53.53,0,0,0-.23.33h-.48a.76.76,0,0,1,.19-.45,1.15,1.15,0,0,1,.44-.3,1.54,1.54,0,0,1,.56-.1,1,1,0,0,1,.69.27.87.87,0,0,1,.21.69L75.09,72l0,.2a1.43,1.43,0,0,0,0,.29v0Zm-.74-.37A.75.75,0,0,0,74.3,72a1,1,0,0,0,.35-.31l.1-.59h-.36a1.42,1.42,0,0,0-.69.14.56.56,0,0,0-.27.4.43.43,0,0,0,.1.34A.46.46,0,0,0,73.87,72.12Z"/><path d="M78.32,69l-.12.69h.52l-.07.37h-.51l-.3,1.77a.28.28,0,0,0,0,.13.19.19,0,0,0,.22.2,1.06,1.06,0,0,0,.23,0l0,.4a1.32,1.32,0,0,1-.34,0,.49.49,0,0,1-.43-.21.82.82,0,0,1-.11-.54L77.66,70h-.5l.06-.37h.51l.12-.69Z"/><path d="M80.57,70.08l-.23,0a.81.81,0,0,0-.72.41l-.35,2H78.8l.49-2.84h.46l-.07.34a.83.83,0,0,1,.71-.39.74.74,0,0,1,.23,0Z"/><path d="M82.12,69.59a1,1,0,0,1,.61.2,1.12,1.12,0,0,1,.38.52,1.6,1.6,0,0,1,.08.73v.06a2.14,2.14,0,0,1-.25.75,1.49,1.49,0,0,1-.51.52,1.37,1.37,0,0,1-.69.18,1,1,0,0,1-.61-.2,1.06,1.06,0,0,1-.37-.51,1.7,1.7,0,0,1-.09-.72,2.08,2.08,0,0,1,.24-.8,1.56,1.56,0,0,1,.51-.54A1.29,1.29,0,0,1,82.12,69.59Zm-1,1.53a1.93,1.93,0,0,0,0,.34.84.84,0,0,0,.19.5.52.52,0,0,0,.42.19A.7.7,0,0,0,82.2,72a1,1,0,0,0,.33-.37,1.75,1.75,0,0,0,.18-.56,3,3,0,0,0,0-.41.84.84,0,0,0-.2-.5.53.53,0,0,0-.42-.2.8.8,0,0,0-.63.29,1.46,1.46,0,0,0-.32.78Z"/><path d="M84.49,69.64l-.07.37a1.12,1.12,0,0,1,.87-.42.72.72,0,0,1,.6.28,1.16,1.16,0,0,1,.14.76l-.31,1.86h-.48l.31-1.87a1,1,0,0,0,0-.24.39.39,0,0,0-.44-.37.89.89,0,0,0-.75.45l-.35,2h-.48l.5-2.84Z"/><path d="M86.59,71.06a2.28,2.28,0,0,1,.25-.8,1.36,1.36,0,0,1,.46-.51,1.11,1.11,0,0,1,.59-.16.89.89,0,0,1,.75.37l.09-.31h.44l-.48,2.78a1.31,1.31,0,0,1-.44.87,1.23,1.23,0,0,1-.9.32,1.32,1.32,0,0,1-.55-.14,1.06,1.06,0,0,1-.42-.36l.27-.29a.83.83,0,0,0,.68.39.88.88,0,0,0,.58-.19,1,1,0,0,0,.31-.57l0-.25a1.1,1.1,0,0,1-.81.34A.87.87,0,0,1,87,72.4a1,1,0,0,1-.31-.39,1.7,1.7,0,0,1-.12-.57C86.57,71.33,86.58,71.21,86.59,71.06Zm.46.27a1.1,1.1,0,0,0,.13.59.49.49,0,0,0,.42.21.84.84,0,0,0,.73-.42l.23-1.3A.59.59,0,0,0,88,70a.72.72,0,0,0-.63.31,1.61,1.61,0,0,0-.29.88Z"/><path d="M91.67,69.64l-.06.37a1.11,1.11,0,0,1,.87-.42.69.69,0,0,1,.59.28,1.1,1.1,0,0,1,.15.76l-.32,1.86h-.47l.31-1.87a1,1,0,0,0,0-.24.39.39,0,0,0-.43-.37.86.86,0,0,0-.75.45l-.35,2h-.48l.49-2.84Z"/><path d="M93.78,71.06a2.09,2.09,0,0,1,.25-.8,1.28,1.28,0,0,1,.46-.51,1.09,1.09,0,0,1,.59-.16.86.86,0,0,1,.74.37l.1-.31h.44l-.48,2.78a1.35,1.35,0,0,1-.44.87,1.23,1.23,0,0,1-.9.32,1.4,1.4,0,0,1-.56-.14,1.1,1.1,0,0,1-.41-.36l.27-.29a.85.85,0,0,0,1.25.2,1,1,0,0,0,.32-.57l0-.25a1.1,1.1,0,0,1-.81.34.84.84,0,0,1-.46-.15.81.81,0,0,1-.31-.39,1.7,1.7,0,0,1-.12-.57A2.69,2.69,0,0,1,93.78,71.06Zm.46.27a1,1,0,0,0,.13.59.49.49,0,0,0,.42.21.85.85,0,0,0,.73-.42l.22-1.3a.57.57,0,0,0-.57-.4.7.7,0,0,0-.63.31,1.62,1.62,0,0,0-.3.88Z"/><path d="M98.34,72.49a.77.77,0,0,1,0-.15v-.15a1.22,1.22,0,0,1-.83.36.89.89,0,0,1-.61-.24.74.74,0,0,1-.22-.59.87.87,0,0,1,.4-.7,1.66,1.66,0,0,1,1-.26h.5l0-.23a.56.56,0,0,0-.1-.4.5.5,0,0,0-.38-.16.8.8,0,0,0-.43.12.58.58,0,0,0-.23.33H97a.77.77,0,0,1,.2-.45,1.08,1.08,0,0,1,.44-.3,1.49,1.49,0,0,1,.55-.1,1,1,0,0,1,.69.27.81.81,0,0,1,.21.69L98.81,72v.2a.72.72,0,0,0,0,.29v0Zm-.75-.37A.73.73,0,0,0,98,72a1.06,1.06,0,0,0,.36-.31l.1-.59h-.36a1.42,1.42,0,0,0-.69.14.53.53,0,0,0-.27.4.4.4,0,0,0,.09.34A.46.46,0,0,0,97.59,72.12Zm1-2.9h-.37l-.54-.78h.54Z"/><path d="M100.45,71.77l1-2.12H102L100.3,73a1,1,0,0,1-.91.68,1.38,1.38,0,0,1-.28-.05l0-.39h.12a.63.63,0,0,0,.39-.1.9.9,0,0,0,.29-.36l.17-.33-.49-2.78h.5Z"/><path d="M9.31,77.08a1.11,1.11,0,0,1,.86-.4.72.72,0,0,1,.59.28,1,1,0,0,1,.14.75l-.31,1.87h-.47l.31-1.87a1,1,0,0,0,0-.24.39.39,0,0,0-.43-.38.87.87,0,0,0-.75.46l-.36,2H8.42l.7-4H9.6Z"/><path d="M12.9,76.68a1,1,0,0,1,.61.2,1.07,1.07,0,0,1,.38.52,1.59,1.59,0,0,1,.08.73v.05a1.85,1.85,0,0,1-.25.75,1.44,1.44,0,0,1-.51.53,1.27,1.27,0,0,1-.69.17,1.05,1.05,0,0,1-.61-.19,1.1,1.1,0,0,1-.37-.52,1.7,1.7,0,0,1-.09-.72,2,2,0,0,1,.24-.79,1.53,1.53,0,0,1,.52-.55A1.27,1.27,0,0,1,12.9,76.68Zm-1,1.53a1.93,1.93,0,0,0,0,.34.87.87,0,0,0,.19.5.57.57,0,0,0,.42.19.83.83,0,0,0,.44-.12,1,1,0,0,0,.34-.38,1.47,1.47,0,0,0,.17-.56,1.85,1.85,0,0,0,0-.4.87.87,0,0,0-.19-.51.6.6,0,0,0-.43-.19.75.75,0,0,0-.62.29,1.38,1.38,0,0,0-.32.78Zm1.83-1.95v0h-.39l-.3-.45-.46.44h-.4v0l.73-.71h.28Z"/><path d="M15.27,76.73l-.07.32a1.12,1.12,0,0,1,.87-.37,1,1,0,0,1,.46.12.68.68,0,0,1,.26.34,1.16,1.16,0,0,1,.94-.46.74.74,0,0,1,.63.29,1,1,0,0,1,.15.74l-.31,1.87h-.48L18,77.7a1,1,0,0,0,0-.25.41.41,0,0,0-.46-.36.77.77,0,0,0-.48.16.75.75,0,0,0-.27.44l-.32,1.89H16l.32-1.87a.61.61,0,0,0-.09-.45.47.47,0,0,0-.38-.17.8.8,0,0,0-.71.41l-.36,2.08h-.48l.5-2.85Z"/><path d="M21.2,76.73l-.07.36a1.09,1.09,0,0,1,.87-.41.69.69,0,0,1,.59.28,1.08,1.08,0,0,1,.15.75l-.31,1.87H22l.31-1.87a2.09,2.09,0,0,0,0-.24.4.4,0,0,0-.44-.38.92.92,0,0,0-.75.46l-.35,2h-.48l.5-2.85Z"/><path d="M24.9,79.58a.77.77,0,0,1,0-.15v-.15a1.16,1.16,0,0,1-.83.35.82.82,0,0,1-.61-.24.72.72,0,0,1-.22-.58.86.86,0,0,1,.4-.7,1.68,1.68,0,0,1,1-.26h.5l0-.22a.54.54,0,0,0-.1-.41.49.49,0,0,0-.37-.15.81.81,0,0,0-.44.12.52.52,0,0,0-.23.33h-.47a.76.76,0,0,1,.19-.44,1.08,1.08,0,0,1,.44-.3,1.31,1.31,0,0,1,.55-.1,1,1,0,0,1,.7.27.83.83,0,0,1,.2.69l-.23,1.41v.2a1.33,1.33,0,0,0,0,.28v0Zm-.75-.37a.85.85,0,0,0,.44-.11,1.14,1.14,0,0,0,.35-.31l.1-.59h-.36a1.32,1.32,0,0,0-.69.14.51.51,0,0,0-.27.4.42.42,0,0,0,.09.33A.44.44,0,0,0,24.15,79.21Z"/><path d="M27,78.86l1-2.13h.53l-1.69,3.32a1,1,0,0,1-.9.69l-.29,0,0-.4.12,0a.72.72,0,0,0,.4-.1,1.16,1.16,0,0,0,.29-.37l.17-.32-.5-2.79h.5Z"/><path d="M33.07,76.34h-.48L32,79.58h-.44l.05-.31a1,1,0,0,1-.82.36.81.81,0,0,1-.6-.27,1.25,1.25,0,0,1-.28-.73v-.12a2.7,2.7,0,0,1,0-.37,2.16,2.16,0,0,1,.23-.77,1.43,1.43,0,0,1,.46-.53,1.09,1.09,0,0,1,.61-.16A.89.89,0,0,1,32,77l.13-.69h-.67l.07-.4h.67l.07-.4h.48l-.07.4h.48ZM30.4,78.42a1,1,0,0,0,.14.59.46.46,0,0,0,.41.21.88.88,0,0,0,.74-.41l.22-1.32a.58.58,0,0,0-.57-.4.76.76,0,0,0-.5.17,1.06,1.06,0,0,0-.32.5A1.84,1.84,0,0,0,30.4,78.42Z"/><path d="M34.18,79.63a1,1,0,0,1-.83-.39,1.36,1.36,0,0,1-.25-1v-.11a1.85,1.85,0,0,1,.26-.77,1.35,1.35,0,0,1,.5-.53,1.2,1.2,0,0,1,.64-.17,1,1,0,0,1,.69.29,1.18,1.18,0,0,1,.27.77,2,2,0,0,1,0,.34l0,.22H33.57a1,1,0,0,0,.13.65.59.59,0,0,0,.52.28,1,1,0,0,0,.78-.37l.28.23a1.31,1.31,0,0,1-.47.4A1.27,1.27,0,0,1,34.18,79.63Zm-.29-3.77h-.33l-.39-.68h.48Zm1.6.46H35l-.37-.41-.5.41h-.55l.86-.69h.39Zm-1,.76a.68.68,0,0,0-.52.2,1.51,1.51,0,0,0-.35.62H35v0a.76.76,0,0,0-.11-.55A.48.48,0,0,0,34.49,77.08Z"/><path d="M37.55,79.3a1.07,1.07,0,0,1-.85.33.68.68,0,0,1-.6-.29,1.14,1.14,0,0,1-.15-.77l.31-1.84h.48l-.31,1.85a1.77,1.77,0,0,0,0,.23.45.45,0,0,0,.12.29.38.38,0,0,0,.27.12.86.86,0,0,0,.79-.41L38,76.73h.48l-.5,2.85h-.45Z"/><path d="M41.17,79.24a.75.75,0,0,0,.46-.15.68.68,0,0,0,.27-.41h.45a1,1,0,0,1-.21.49,1.27,1.27,0,0,1-.44.35,1.18,1.18,0,0,1-.55.11,1,1,0,0,1-.6-.18,1.08,1.08,0,0,1-.36-.51,1.67,1.67,0,0,1-.08-.72l0-.13a2,2,0,0,1,.23-.74,1.49,1.49,0,0,1,.5-.5,1.2,1.2,0,0,1,.67-.17,1,1,0,0,1,.72.3,1,1,0,0,1,.27.73h-.45a.68.68,0,0,0-.15-.45.58.58,0,0,0-.41-.18.78.78,0,0,0-.62.27,1.49,1.49,0,0,0-.3.8v.07c0,.11,0,.22,0,.34a.87.87,0,0,0,.18.49A.56.56,0,0,0,41.17,79.24Z"/><path d="M46.22,76.51a.9.9,0,0,1-.25.64.91.91,0,0,1-.64.23l-.4,2.2h-.45l.06-.28a1.07,1.07,0,0,1-.84.33.69.69,0,0,1-.61-.29,1.15,1.15,0,0,1-.15-.77l.31-1.84h.48l-.31,1.85a1.77,1.77,0,0,0,0,.23.45.45,0,0,0,.12.29.4.4,0,0,0,.27.12.84.84,0,0,0,.79-.41L45,76.73h.47l-.06.36a.6.6,0,0,0,.35-.13.8.8,0,0,0,.17-.45Zm-2.81,3.72a.28.28,0,0,1,.08-.2.24.24,0,0,1,.2-.09.26.26,0,0,1,.28.28.27.27,0,0,1-.28.28.24.24,0,0,1-.2-.07A.23.23,0,0,1,43.41,80.23Z"/><path d="M47.19,79.24a.75.75,0,0,0,.46-.15.68.68,0,0,0,.27-.41h.45a1,1,0,0,1-.21.49,1.36,1.36,0,0,1-.44.35,1.18,1.18,0,0,1-.55.11,1,1,0,0,1-.6-.18,1.08,1.08,0,0,1-.36-.51,1.67,1.67,0,0,1-.08-.72v-.13a2.15,2.15,0,0,1,.24-.74,1.41,1.41,0,0,1,.5-.5,1.2,1.2,0,0,1,.67-.17,1,1,0,0,1,.72.3,1,1,0,0,1,.27.73h-.45a.68.68,0,0,0-.15-.45.58.58,0,0,0-.41-.18.78.78,0,0,0-.62.27,1.49,1.49,0,0,0-.3.8v.07c0,.11,0,.22,0,.34a.8.8,0,0,0,.18.49A.56.56,0,0,0,47.19,79.24Z"/><path d="M51.09,78.27l-.37.33-.17,1h-.47l.7-4h.47L50.83,78l.3-.29,1-.93h.61L51.45,78l.9,1.63h-.52Z"/><path d="M53.77,78.86l1-2.13h.53l-1.69,3.32a1,1,0,0,1-.91.69l-.28,0,0-.4.12,0a.71.71,0,0,0,.39-.1.94.94,0,0,0,.29-.37l.17-.32L53,76.73h.5Zm.75-2.55h-.38l-.54-.77h.54Z"/><path d="M57.82,76.05l-.12.68h.52l-.06.38h-.52l-.3,1.77V79a.2.2,0,0,0,.22.2l.24,0,0,.4a1.41,1.41,0,0,1-.35,0,.49.49,0,0,1-.43-.21.85.85,0,0,1-.11-.55l.29-1.76h-.5l.07-.38h.5l.12-.68Z"/><path d="M60.11,79.3a1.1,1.1,0,0,1-.85.33.7.7,0,0,1-.61-.29,1.09,1.09,0,0,1-.14-.77l.3-1.84h.48L59,78.58a.89.89,0,0,0,0,.23.4.4,0,0,0,.11.29.43.43,0,0,0,.28.12.87.87,0,0,0,.79-.41l.35-2.08H61l-.49,2.85h-.45Z"/><path d="M62.23,78.86l1-2.13h.52l-1.68,3.32a1,1,0,0,1-.91.69l-.28,0,0-.4.12,0a.71.71,0,0,0,.39-.1.94.94,0,0,0,.29-.37l.17-.32-.49-2.79h.5Z"/><path d="M64.9,79.63a1,1,0,0,1-.83-.39,1.36,1.36,0,0,1-.25-1v-.11a1.84,1.84,0,0,1,.25-.77,1.45,1.45,0,0,1,.51-.53,1.18,1.18,0,0,1,.64-.17,1,1,0,0,1,.69.29,1.29,1.29,0,0,1,.27.77c0,.11,0,.22,0,.34l0,.22H64.29a.94.94,0,0,0,.13.65.58.58,0,0,0,.52.28,1,1,0,0,0,.78-.37l.27.23a1.27,1.27,0,0,1-.46.4A1.33,1.33,0,0,1,64.9,79.63Zm.3-2.55a.68.68,0,0,0-.51.2,1.41,1.41,0,0,0-.35.62h1.38v0a.76.76,0,0,0-.1-.55A.49.49,0,0,0,65.2,77.08Zm-.81,3.15a.27.27,0,0,1,.07-.2.27.27,0,0,1,.2-.09.31.31,0,0,1,.21.07.29.29,0,0,1,.08.21.33.33,0,0,1-.08.2.3.3,0,0,1-.21.08.23.23,0,0,1-.19-.07A.23.23,0,0,1,64.39,80.23Zm1.69-4v0h-.39l-.29-.45-.46.44h-.41v0l.73-.71h.28Z"/><path d="M67.72,76.05l-.12.68h.52l-.07.38h-.51l-.3,1.77a.29.29,0,0,0,0,.13.19.19,0,0,0,.22.2l.23,0,0,.4a1.33,1.33,0,0,1-.34,0,.49.49,0,0,1-.43-.21.85.85,0,0,1-.11-.55l.29-1.76h-.5l.06-.38h.51l.12-.68Z"/><path d="M70.55,78.91l1-2.18h.5l-1.44,2.85h-.36l-.56-2.85h.47Z"/><path d="M73.65,76.68a1.1,1.1,0,0,1,.83.37.5.5,0,0,0,.3-.17.84.84,0,0,0,.16-.46h.38a1.26,1.26,0,0,1-.2.61.88.88,0,0,1-.47.3,2.63,2.63,0,0,1,.06.39,2.27,2.27,0,0,1-.16,1,1.67,1.67,0,0,1-.54.7,1.31,1.31,0,0,1-.79.23,1,1,0,0,1-.61-.19,1.09,1.09,0,0,1-.36-.52,1.5,1.5,0,0,1-.08-.71v-.06a1.81,1.81,0,0,1,.49-1.07A1.26,1.26,0,0,1,73.65,76.68Zm-1,1.76a.9.9,0,0,0,.16.57.53.53,0,0,0,.44.23.79.79,0,0,0,.64-.29,1.5,1.5,0,0,0,.33-.82,1.37,1.37,0,0,0,0-.35.83.83,0,0,0-.18-.51.56.56,0,0,0-.42-.19.72.72,0,0,0-.52.18,1.13,1.13,0,0,0-.35.51A1.72,1.72,0,0,0,72.64,78.44ZM74,76.31h-.37l-.54-.77h.54Z"/><path d="M75.56,79.58h-.47l.5-2.85h.47ZM76,75.7a.24.24,0,0,1,.2.07.29.29,0,0,1,0,.4.29.29,0,0,1-.2.09.3.3,0,0,1-.21-.07.27.27,0,0,1-.07-.2.3.3,0,0,1,.08-.21A.26.26,0,0,1,76,75.7Z"/><path d="M76.24,80.34,76,80.15a1.67,1.67,0,0,0,.38-.75l.07-.4h.47l-.06.36A1.5,1.5,0,0,1,76.24,80.34Z"/><path d="M79.66,76.73l-.07.36a1.12,1.12,0,0,1,.87-.41.72.72,0,0,1,.6.28,1.08,1.08,0,0,1,.14.75l-.31,1.87h-.48l.32-1.87a1,1,0,0,0,0-.24.39.39,0,0,0-.43-.38.92.92,0,0,0-.76.46l-.35,2h-.47l.49-2.85Z"/><path d="M82.51,77.08a1.14,1.14,0,0,1,.86-.4A.72.72,0,0,1,84,77a1.08,1.08,0,0,1,.14.75l-.31,1.87h-.48l.32-1.87a1,1,0,0,0,0-.24.4.4,0,0,0-.44-.38.87.87,0,0,0-.75.46l-.35,2h-.48l.71-4h.47Z"/><path d="M86.27,79.58a.77.77,0,0,1,0-.15v-.15a1.16,1.16,0,0,1-.83.35.81.81,0,0,1-.61-.24.72.72,0,0,1-.22-.58.86.86,0,0,1,.4-.7,1.66,1.66,0,0,1,1-.26h.5l0-.22a.54.54,0,0,0-.1-.41.51.51,0,0,0-.38-.15.8.8,0,0,0-.43.12.52.52,0,0,0-.23.33h-.48a.77.77,0,0,1,.2-.44,1.08,1.08,0,0,1,.44-.3,1.28,1.28,0,0,1,.55-.1,1,1,0,0,1,.69.27.81.81,0,0,1,.21.69l-.23,1.41v.2a.67.67,0,0,0,0,.28v0Zm-.75-.37A.81.81,0,0,0,86,79.1a1.06,1.06,0,0,0,.36-.31l.1-.59h-.36a1.32,1.32,0,0,0-.69.14.51.51,0,0,0-.27.4.38.38,0,0,0,.09.33A.43.43,0,0,0,85.52,79.21Zm.61-3.59h.39l.62.69h-.46l-.36-.41-.51.41h-.55Zm1.39-.45h.54l-.63.68H87Z"/><path d="M88.65,76.05l-.12.68h.52l-.07.38h-.51l-.3,1.77V79a.2.2,0,0,0,.22.2l.23,0,0,.4a1.41,1.41,0,0,1-.35,0,.49.49,0,0,1-.43-.21.85.85,0,0,1-.11-.55L88,77.11h-.5l.07-.38h.5l.12-.68Z"/><path d="M91,79.58h-.48l.7-4h.48Z"/><path d="M93.48,79.58a.76.76,0,0,1,0-.15v-.15a1.14,1.14,0,0,1-.83.35.82.82,0,0,1-.61-.24.68.68,0,0,1-.21-.58.87.87,0,0,1,.39-.7,1.7,1.7,0,0,1,1-.26h.49l0-.22a.5.5,0,0,0-.1-.41.47.47,0,0,0-.37-.15.77.77,0,0,0-.43.12.49.49,0,0,0-.23.33H92.1a.76.76,0,0,1,.19-.44,1.15,1.15,0,0,1,.44-.3,1.35,1.35,0,0,1,.56-.1A1,1,0,0,1,94,77a.87.87,0,0,1,.21.69L94,79.05l0,.2a1.33,1.33,0,0,0,0,.28v0Zm-.74-.37a.84.84,0,0,0,.43-.11,1,1,0,0,0,.35-.31l.1-.59h-.36a1.32,1.32,0,0,0-.69.14.54.54,0,0,0-.27.4.42.42,0,0,0,.1.33A.43.43,0,0,0,92.74,79.21Zm1-2.9h-.38l-.53-.77h.53Z"/><path d="M97.16,79.63a1,1,0,0,1-.83-.39,1.36,1.36,0,0,1-.25-1v-.11a1.85,1.85,0,0,1,.26-.77,1.35,1.35,0,0,1,.5-.53,1.2,1.2,0,0,1,.64-.17,1,1,0,0,1,.69.29,1.18,1.18,0,0,1,.27.77,2,2,0,0,1,0,.34l0,.22H96.55a.94.94,0,0,0,.13.65.59.59,0,0,0,.52.28,1,1,0,0,0,.78-.37l.28.23a1.31,1.31,0,0,1-.47.4A1.27,1.27,0,0,1,97.16,79.63Zm.31-2.55a.68.68,0,0,0-.52.2,1.51,1.51,0,0,0-.35.62H98v0a.76.76,0,0,0-.11-.55A.48.48,0,0,0,97.47,77.08Z"/><path d="M99.67,76.73l-.06.32a1.09,1.09,0,0,1,.86-.37,1,1,0,0,1,.46.12.68.68,0,0,1,.26.34,1.16,1.16,0,0,1,.94-.46.74.74,0,0,1,.63.29,1,1,0,0,1,.15.74l-.31,1.87h-.48l.31-1.88a1,1,0,0,0,0-.25.41.41,0,0,0-.46-.36.77.77,0,0,0-.48.16.75.75,0,0,0-.27.44l-.32,1.89h-.48l.32-1.87a.61.61,0,0,0-.09-.45.47.47,0,0,0-.38-.17.79.79,0,0,0-.71.41l-.36,2.08h-.48l.5-2.85Z"/><path d="M103.63,76.83l-.26-.2a1.65,1.65,0,0,0,.37-.75l.06-.34h.47l0,.32A1.47,1.47,0,0,1,103.63,76.83Zm.78,0-.26-.2a1.55,1.55,0,0,0,.37-.75l.06-.34h.47l0,.32A1.47,1.47,0,0,1,104.41,76.83Z"/><path d="M9.31,10.48v0a2.2,2.2,0,0,1-.59,1.74A2.46,2.46,0,0,1,7,12.83a2.51,2.51,0,0,1-1.86-.69,2.65,2.65,0,0,1-.69-2V8a2.74,2.74,0,0,1,.67-2,2.34,2.34,0,0,1,1.8-.7A2.58,2.58,0,0,1,8.71,6,2.18,2.18,0,0,1,9.33,7.7v0H8a1.52,1.52,0,0,0-.25-1,1,1,0,0,0-.82-.28.92.92,0,0,0-.8.38A2.16,2.16,0,0,0,5.83,8v2.16a2,2,0,0,0,.28,1.18,1,1,0,0,0,.86.38.9.9,0,0,0,.75-.28,1.51,1.51,0,0,0,.23-1Z"/><path d="M12.8,12.73a3.56,3.56,0,0,1-.13-.39,3,3,0,0,1-.07-.43,2,2,0,0,1-.48.67,1,1,0,0,1-.71.25,1.44,1.44,0,0,1-1.13-.43,1.64,1.64,0,0,1-.4-1.18A1.5,1.5,0,0,1,10.4,10,2.4,2.4,0,0,1,12,9.56h.61V9.11a1.09,1.09,0,0,0-.15-.62A.52.52,0,0,0,12,8.27a.46.46,0,0,0-.4.18.8.8,0,0,0-.13.5H10.09v0a1.43,1.43,0,0,1,.53-1.18,2.1,2.1,0,0,1,1.46-.49,1.93,1.93,0,0,1,1.38.49A1.8,1.8,0,0,1,14,9.12v2.21a4.07,4.07,0,0,0,0,.72,4.23,4.23,0,0,0,.17.68Zm-1-.94a.74.74,0,0,0,.5-.17.8.8,0,0,0,.3-.41v-.85H12a.58.58,0,0,0-.52.23,1,1,0,0,0-.16.58.73.73,0,0,0,.13.45A.45.45,0,0,0,11.77,11.79Z"/><path d="M15.2,12.73V8.34h-.67v-1h.67V6.73a2,2,0,0,1,.47-1.39A1.76,1.76,0,0,1,17,4.85l.33,0,.38.08L17.6,6l-.2,0h-.23a.5.5,0,0,0-.42.2.92.92,0,0,0-.14.57v.61h.86v1h-.86v4.39Z"/><path d="M20,12.83a2,2,0,0,1-1.65-.73,3,3,0,0,1-.59-1.9V10a3.23,3.23,0,0,1,.57-2,1.85,1.85,0,0,1,1.59-.77,1.76,1.76,0,0,1,1.46.65,2.83,2.83,0,0,1,.51,1.78v.76H19.17a1.81,1.81,0,0,0,.27,1,.81.81,0,0,0,.73.36,2,2,0,0,0,.7-.1,2.46,2.46,0,0,0,.6-.31l.37.88a2.07,2.07,0,0,1-.78.44A3.06,3.06,0,0,1,20,12.83Zm-.08-4.49a.56.56,0,0,0-.53.31,2.25,2.25,0,0,0-.21.86h1.33V9.38a1.81,1.81,0,0,0-.13-.77A.49.49,0,0,0,19.92,8.34Z"/><path d="M27.16,10.88l.06.3h0l.06-.29,1.26-5.42h1.48L28,12.73H26.51L24.44,5.47h1.48Z"/><path d="M32,6h-1.4V5H32Zm0,6.7h-1.4V7.34H32Z"/><path d="M35.09,12.83a2,2,0,0,1-1.65-.73,3,3,0,0,1-.59-1.9V10a3.23,3.23,0,0,1,.57-2A1.83,1.83,0,0,1,35,7.24a1.76,1.76,0,0,1,1.46.65A2.83,2.83,0,0,1,37,9.67v.76H34.26a1.81,1.81,0,0,0,.27,1,.81.81,0,0,0,.73.36,2,2,0,0,0,.7-.1,2.46,2.46,0,0,0,.6-.31l.37.88a2.24,2.24,0,0,1-.78.44A3.06,3.06,0,0,1,35.09,12.83ZM35,8.34a.56.56,0,0,0-.53.31,2.25,2.25,0,0,0-.21.86H35.6V9.38a1.66,1.66,0,0,0-.14-.77A.47.47,0,0,0,35,8.34Z"/><path d="M39.34,6V7.34h.74v1h-.74v2.75a.93.93,0,0,0,.1.48.32.32,0,0,0,.28.15h.16l.16-.05.11,1a2,2,0,0,1-.38.1,2.54,2.54,0,0,1-.41,0,1.37,1.37,0,0,1-1.06-.41,2,2,0,0,1-.36-1.33V8.34h-.65v-1h.65V6Z"/><path d="M42.23,8a1.6,1.6,0,0,1,.51-.55,1.17,1.17,0,0,1,.67-.2,1.34,1.34,0,0,1,1.14.57A3,3,0,0,1,45,9.56v3.17H43.56V9.55a2.11,2.11,0,0,0-.14-.94A.49.49,0,0,0,43,8.34a.93.93,0,0,0-.42.1.84.84,0,0,0-.31.28v4h-1.4V5h1.4Z"/><path d="M48.58,12.73a2.24,2.24,0,0,1-.14-.39,3,3,0,0,1-.07-.43,2.07,2.07,0,0,1-.47.67,1.07,1.07,0,0,1-.72.25,1.44,1.44,0,0,1-1.13-.43,1.64,1.64,0,0,1-.4-1.18A1.53,1.53,0,0,1,46.17,10a2.4,2.4,0,0,1,1.56-.44h.61V9.11a1.09,1.09,0,0,0-.15-.62.51.51,0,0,0-.44-.22.46.46,0,0,0-.39.18.8.8,0,0,0-.14.5H45.87v0a1.42,1.42,0,0,1,.52-1.18,2.1,2.1,0,0,1,1.46-.49,1.93,1.93,0,0,1,1.38.49,1.8,1.8,0,0,1,.53,1.39v2.21a5.31,5.31,0,0,0,0,.72,5.63,5.63,0,0,0,.17.68Zm-1-.94a.74.74,0,0,0,.5-.17.8.8,0,0,0,.3-.41v-.85h-.61a.58.58,0,0,0-.52.23,1,1,0,0,0-.16.58.73.73,0,0,0,.14.45A.44.44,0,0,0,47.54,11.79Z"/><path d="M53.05,11.32a.53.53,0,0,0-.18-.4,3.07,3.07,0,0,0-.72-.42,3.59,3.59,0,0,1-1.23-.69,1.29,1.29,0,0,1-.42-1A1.45,1.45,0,0,1,51,7.7a2,2,0,0,1,1.39-.46,2.1,2.1,0,0,1,1.45.48,1.5,1.5,0,0,1,.52,1.21V9H53a.89.89,0,0,0-.15-.54.52.52,0,0,0-.45-.21.56.56,0,0,0-.41.16.54.54,0,0,0-.17.39.5.5,0,0,0,.16.38,3.2,3.2,0,0,0,.72.41,3.63,3.63,0,0,1,1.27.69,1.36,1.36,0,0,1,.42,1,1.41,1.41,0,0,1-.55,1.13,2.3,2.3,0,0,1-1.46.43,2.09,2.09,0,0,1-1.49-.53,1.59,1.59,0,0,1-.52-1.22l0,0h1.27a.91.91,0,0,0,.21.63.8.8,0,0,0,.55.19.61.61,0,0,0,.45-.15A.51.51,0,0,0,53.05,11.32Z"/><path d="M7.55,25.86H9.84v.87H6.47V21.49H7.55Z"/><path d="M12.67,26.33a1.27,1.27,0,0,1-1.06.47,1.24,1.24,0,0,1-1-.36,1.55,1.55,0,0,1-.34-1.05V22.84h1v2.51c0,.41.19.61.56.61a.77.77,0,0,0,.73-.36V22.84h1v3.89h-1Zm-1.61,1.24a.46.46,0,0,1,.16-.36.62.62,0,0,1,.42-.13.64.64,0,0,1,.42.13.5.5,0,0,1,.16.36.46.46,0,0,1-.16.36.64.64,0,0,1-.42.14.65.65,0,0,1-.43-.14A.49.49,0,0,1,11.06,27.57Z"/><path d="M16.08,26a.65.65,0,0,0,.47-.16.56.56,0,0,0,.19-.42h1a1.32,1.32,0,0,1-.21.73,1.44,1.44,0,0,1-.58.51,1.86,1.86,0,0,1-.82.18,1.68,1.68,0,0,1-1.32-.53,2.1,2.1,0,0,1-.48-1.47v-.06a2.09,2.09,0,0,1,.48-1.44,1.86,1.86,0,0,1,2.49-.12,1.48,1.48,0,0,1,.44,1.11h-1a.75.75,0,0,0-.19-.5.65.65,0,0,0-.47-.19.61.61,0,0,0-.55.27,1.46,1.46,0,0,0-.19.86v.11a1.48,1.48,0,0,0,.19.86A.6.6,0,0,0,16.08,26Z"/><path d="M23.94,22.36H22.33v4.37H21.25V22.36H19.67v-.87h4.27Z"/><path d="M26.44,23.81l-.37,0a.78.78,0,0,0-.78.4v2.55h-1V22.84h1l0,.46a1,1,0,0,1,.87-.54,1.2,1.2,0,0,1,.33,0Z"/><path d="M29.09,26.73a1.31,1.31,0,0,1-.11-.35,1.24,1.24,0,0,1-1,.42,1.39,1.39,0,0,1-.95-.33,1.06,1.06,0,0,1-.37-.83,1.08,1.08,0,0,1,.46-.95,2.14,2.14,0,0,1,1.32-.34h.48v-.22a.59.59,0,0,0-.14-.43.54.54,0,0,0-.43-.17.66.66,0,0,0-.42.13.43.43,0,0,0-.15.35h-1a1,1,0,0,1,.21-.63,1.43,1.43,0,0,1,.59-.45,2.16,2.16,0,0,1,.86-.17,1.65,1.65,0,0,1,1.14.37,1.26,1.26,0,0,1,.42,1v1.69a2,2,0,0,0,.16.84v.06Zm-.16-4.41h-.85l-1-1.12h1.13ZM28.23,26a.88.88,0,0,0,.42-.11.64.64,0,0,0,.29-.27V25h-.39c-.52,0-.8.18-.83.54v.06a.41.41,0,0,0,.13.32A.58.58,0,0,0,28.23,26Z"/><path d="M34.1,21.49l1.34,3.8,1.34-3.8H38.2v5.24H37.12V25.3l.11-2.47-1.42,3.9h-.74l-1.41-3.9.11,2.47v1.43H32.69V21.49Z"/><path d="M41.33,26.73a1,1,0,0,1-.1-.35,1.26,1.26,0,0,1-1,.42,1.37,1.37,0,0,1-.94-.33,1.07,1.07,0,0,1-.38-.83,1.08,1.08,0,0,1,.46-.95,2.2,2.2,0,0,1,1.33-.34h.47v-.22a.63.63,0,0,0-.13-.43.56.56,0,0,0-.44-.17.63.63,0,0,0-.41.13.43.43,0,0,0-.15.35H39a1,1,0,0,1,.21-.63,1.31,1.31,0,0,1,.59-.45,2.11,2.11,0,0,1,.85-.17,1.65,1.65,0,0,1,1.14.37,1.24,1.24,0,0,1,.43,1v1.69a1.85,1.85,0,0,0,.15.84v.06ZM40.47,26a.89.89,0,0,0,.43-.11.61.61,0,0,0,.28-.27V25H40.8c-.53,0-.8.18-.84.54v.06a.42.42,0,0,0,.14.32A.54.54,0,0,0,40.47,26Z"/><path d="M44.65,26a.65.65,0,0,0,.46-.16.52.52,0,0,0,.19-.42h1a1.42,1.42,0,0,1-.22.73,1.44,1.44,0,0,1-.58.51,1.86,1.86,0,0,1-.82.18,1.66,1.66,0,0,1-1.31-.53,2.1,2.1,0,0,1-.49-1.47v-.06a2.09,2.09,0,0,1,.48-1.44,1.68,1.68,0,0,1,1.32-.54,1.65,1.65,0,0,1,1.17.42,1.52,1.52,0,0,1,.45,1.11h-1a.7.7,0,0,0-.19-.5.63.63,0,0,0-.47-.19.62.62,0,0,0-.55.27,1.54,1.54,0,0,0-.19.86v.11a1.56,1.56,0,0,0,.19.86A.62.62,0,0,0,44.65,26Z"/><path d="M48.49,26A.67.67,0,0,0,49,25.8a.52.52,0,0,0,.18-.42h1a1.33,1.33,0,0,1-.22.73,1.37,1.37,0,0,1-.58.51,1.82,1.82,0,0,1-.81.18,1.67,1.67,0,0,1-1.32-.53,2.1,2.1,0,0,1-.48-1.47v-.06a2.09,2.09,0,0,1,.48-1.44,1.65,1.65,0,0,1,1.31-.54,1.61,1.61,0,0,1,1.17.42,1.52,1.52,0,0,1,.45,1.11h-1a.7.7,0,0,0-.18-.5.66.66,0,0,0-.48-.19.63.63,0,0,0-.55.27,1.55,1.55,0,0,0-.18.86v.11a1.57,1.57,0,0,0,.18.86A.62.62,0,0,0,48.49,26Z"/><path d="M51.73,23.26a1.29,1.29,0,0,1,1-.5c.84,0,1.27.5,1.28,1.48v2.49H53V24.26a.75.75,0,0,0-.14-.49.62.62,0,0,0-.48-.16.71.71,0,0,0-.66.35v2.77h-1V21.2h1Z"/><path d="M54.83,21.83a.5.5,0,0,1,.16-.39.57.57,0,0,1,.42-.15.61.61,0,0,1,.43.15.56.56,0,0,1,0,.78.61.61,0,0,1-.43.15.6.6,0,0,1-.42-.15A.5.5,0,0,1,54.83,21.83Zm1.1,4.9h-1V22.84h1Z"/><path d="M59.05,26.73a1,1,0,0,1-.11-.35,1.26,1.26,0,0,1-1,.42,1.39,1.39,0,0,1-1-.33,1.06,1.06,0,0,1-.37-.83,1.08,1.08,0,0,1,.46-.95,2.14,2.14,0,0,1,1.32-.34h.48v-.22a.63.63,0,0,0-.14-.43.54.54,0,0,0-.44-.17.65.65,0,0,0-.41.13.43.43,0,0,0-.15.35h-1a1,1,0,0,1,.21-.63,1.43,1.43,0,0,1,.59-.45,2.16,2.16,0,0,1,.86-.17,1.65,1.65,0,0,1,1.14.37,1.26,1.26,0,0,1,.42,1v1.69a2,2,0,0,0,.16.84v.06ZM58.19,26a.88.88,0,0,0,.42-.11.64.64,0,0,0,.29-.27V25h-.39c-.52,0-.8.18-.83.54v.06a.41.41,0,0,0,.13.32A.56.56,0,0,0,58.19,26Z"/><path d="M62,21.88v1h.66v.76H62v1.94a.48.48,0,0,0,.08.31.43.43,0,0,0,.32.1,1.39,1.39,0,0,0,.3,0v.79a2.18,2.18,0,0,1-.63.09A1,1,0,0,1,61,25.7V23.6h-.57v-.76H61v-1Z"/><path d="M63,24.75a2.34,2.34,0,0,1,.23-1,1.61,1.61,0,0,1,.64-.7,1.92,1.92,0,0,1,1-.25,1.74,1.74,0,0,1,1.29.49,1.89,1.89,0,0,1,.55,1.31v.26a2.05,2.05,0,0,1-.5,1.44,1.73,1.73,0,0,1-1.34.54,1.77,1.77,0,0,1-1.35-.54,2.09,2.09,0,0,1-.5-1.47Zm1,.07a1.46,1.46,0,0,0,.21.85.76.76,0,0,0,1.19,0,1.58,1.58,0,0,0,.21-.92,1.46,1.46,0,0,0-.21-.85.74.74,0,0,0-1.19,0A1.62,1.62,0,0,0,64,24.82Z"/><path d="M69.17,24.6A5.78,5.78,0,0,1,69.39,23,4.28,4.28,0,0,1,70,21.71a2.53,2.53,0,0,1,.93-.8l.2.57a2.44,2.44,0,0,0-.82,1.2,5.46,5.46,0,0,0-.29,1.9v.11a5.56,5.56,0,0,0,.29,1.91,2.58,2.58,0,0,0,.82,1.22l-.2.55a2.43,2.43,0,0,1-.91-.78,4,4,0,0,1-.65-1.28,5.49,5.49,0,0,1-.24-1.52Z"/><path d="M73.19,21.49l1.35,3.8,1.34-3.8H77.3v5.24H76.21V25.3l.11-2.47-1.41,3.9h-.75l-1.41-3.9.11,2.47v1.43H71.78V21.49Z"/><path d="M80,24.68a5.47,5.47,0,0,1-.23,1.57,4.49,4.49,0,0,1-.67,1.33,2.59,2.59,0,0,1-.94.79l-.21-.55a2.54,2.54,0,0,0,.81-1.19A5.51,5.51,0,0,0,79,24.78v-.19a5.47,5.47,0,0,0-.3-1.89,2.58,2.58,0,0,0-.82-1.24l.21-.55a2.57,2.57,0,0,1,.92.77,4.33,4.33,0,0,1,.67,1.3A5,5,0,0,1,80,24.52Z"/><path d="M10.34,35h1.38v.62H10.34v1.58H9.66V35.64H8.27V35H9.66V33.56h.68Z"/><path d="M17.89,33.23H16.23v4.5h-.68v-4.5H13.91v-.54h4Z"/><path d="M19.2,34.49a1.44,1.44,0,0,1,.47-.42,1.33,1.33,0,0,1,.63-.15,1.2,1.2,0,0,1,.93.36,1.57,1.57,0,0,1,.33,1.1v2.35h-.68V35.38a1,1,0,0,0-.2-.69.74.74,0,0,0-.59-.22,1.12,1.12,0,0,0-.53.12,1,1,0,0,0-.36.33v2.81h-.68v-5.4h.68Z"/><path d="M24.84,37.73c0-.11,0-.21-.05-.3a2.28,2.28,0,0,1,0-.26,1.56,1.56,0,0,1-.5.45,1.26,1.26,0,0,1-.66.18,1.23,1.23,0,0,1-.89-.3,1.1,1.1,0,0,1-.3-.82,1,1,0,0,1,.43-.84,2,2,0,0,1,1.18-.3h.74v-.37a.72.72,0,0,0-.2-.53.83.83,0,0,0-.57-.19.85.85,0,0,0-.54.17.51.51,0,0,0-.2.4h-.65v0a.87.87,0,0,1,.38-.74A1.56,1.56,0,0,1,24,33.92a1.52,1.52,0,0,1,1,.32,1.15,1.15,0,0,1,.39.93V37c0,.13,0,.26,0,.38a1.53,1.53,0,0,0,.08.37Zm-1.13-.5a1.19,1.19,0,0,0,.67-.19.9.9,0,0,0,.39-.44V36H24a1.06,1.06,0,0,0-.66.2.64.64,0,0,0-.24.49.54.54,0,0,0,.15.4A.7.7,0,0,0,23.71,37.23Zm.47,1.67h-.75v-.7h.75Z"/><path d="M27.93,37.27a.81.81,0,0,0,.55-.21.68.68,0,0,0,.23-.51h.62v0a1.07,1.07,0,0,1-.42.86,1.43,1.43,0,0,1-1,.37,1.49,1.49,0,0,1-1.22-.53,2.07,2.07,0,0,1-.43-1.34v-.14a2.07,2.07,0,0,1,.43-1.34,1.49,1.49,0,0,1,1.22-.53,1.41,1.41,0,0,1,1,.38,1.23,1.23,0,0,1,.39,1v0h-.62a.83.83,0,0,0-.22-.59.74.74,0,0,0-.56-.24.77.77,0,0,0-.73.39,1.78,1.78,0,0,0-.23.95v.14a1.86,1.86,0,0,0,.22,1A.79.79,0,0,0,27.93,37.27Z"/><path d="M30.83,34.49a1.38,1.38,0,0,1,.48-.42,1.26,1.26,0,0,1,.62-.15,1.2,1.2,0,0,1,.93.36,1.53,1.53,0,0,1,.34,1.1v2.35h-.68V35.38a1,1,0,0,0-.2-.69.76.76,0,0,0-.6-.22,1.12,1.12,0,0,0-.53.12,1,1,0,0,0-.36.33v2.81h-.68v-5.4h.68Z"/><path d="M36,37.73v-5h1.59a2.11,2.11,0,0,1,1.58.61,2.13,2.13,0,0,1,.6,1.57v.69a2.06,2.06,0,0,1-2.18,2.17Zm.68-4.5v4h.91a1.42,1.42,0,0,0,1.1-.46,1.72,1.72,0,0,0,.4-1.18v-.7a1.71,1.71,0,0,0-.4-1.17,1.38,1.38,0,0,0-1.1-.46Z"/><path d="M45,33.48v0a1.27,1.27,0,0,1-.3.94,1.38,1.38,0,0,1-1,.38v2.9h-.61l0-.55a1.17,1.17,0,0,1-.45.46,1.22,1.22,0,0,1-.64.16,1.18,1.18,0,0,1-1-.39,1.81,1.81,0,0,1-.35-1.22V34h.69V36.2a1.37,1.37,0,0,0,.17.82.66.66,0,0,0,.55.23,1.11,1.11,0,0,0,.6-.15.93.93,0,0,0,.36-.42V34h.68v.39h0a.63.63,0,0,0,.5-.25,1.3,1.3,0,0,0,.14-.66Zm-2.48-.1H42l-.86-.9v0h.79Z"/><path d="M47.2,37.73c0-.11,0-.21-.05-.3a2.28,2.28,0,0,1,0-.26,1.56,1.56,0,0,1-.5.45,1.26,1.26,0,0,1-.66.18,1.23,1.23,0,0,1-.89-.3,1.1,1.1,0,0,1-.3-.82,1,1,0,0,1,.43-.84,2,2,0,0,1,1.18-.3h.74v-.37a.72.72,0,0,0-.2-.53.83.83,0,0,0-.57-.19.85.85,0,0,0-.54.17.51.51,0,0,0-.2.4H45v0a.87.87,0,0,1,.38-.74,1.56,1.56,0,0,1,1-.34,1.52,1.52,0,0,1,1,.32,1.15,1.15,0,0,1,.39.93V37c0,.13,0,.26,0,.38a1.53,1.53,0,0,0,.08.37Zm-1.13-.5a1.19,1.19,0,0,0,.67-.19.9.9,0,0,0,.39-.44V36h-.77a1.06,1.06,0,0,0-.66.2.64.64,0,0,0-.24.49.54.54,0,0,0,.15.4A.7.7,0,0,0,46.07,37.23Z"/><path d="M10.34,45h1.38v.62H10.34v1.58H9.66V45.64H8.27V45H9.66V43.56h.68Z"/><path d="M17.89,43.23H16.23v4.5h-.68v-4.5H13.91v-.54h4Z"/><path d="M20,44.59l-.35,0a.78.78,0,0,0-.46.13.76.76,0,0,0-.28.35v2.68h-.68V44h.61l.06.54a1.44,1.44,0,0,1,.39-.45.93.93,0,0,1,.54-.16H20l.11,0Z"/><path d="M23,47.73l-.06-.3a2.28,2.28,0,0,1,0-.26,1.52,1.52,0,0,1-.49.45,1.31,1.31,0,0,1-.66.18,1.21,1.21,0,0,1-.89-.3,1.07,1.07,0,0,1-.31-.82,1,1,0,0,1,.43-.84,2.06,2.06,0,0,1,1.18-.3H23v-.37a.69.69,0,0,0-.2-.53.81.81,0,0,0-.57-.19.8.8,0,0,0-.53.17.49.49,0,0,0-.21.4h-.64v0a.87.87,0,0,1,.38-.74,1.56,1.56,0,0,1,1.05-.34,1.53,1.53,0,0,1,1,.32,1.18,1.18,0,0,1,.38.93V47a2.34,2.34,0,0,0,0,.38,1.51,1.51,0,0,0,.07.37Zm.19-4.51v.08h-.56l-.51-.51-.5.51H21.1v-.09l.86-.82h.41Zm-1.32,4a1.16,1.16,0,0,0,.66-.19A.9.9,0,0,0,23,46.6V46H22.2a1,1,0,0,0-.66.2.62.62,0,0,0-.25.49.51.51,0,0,0,.16.4A.67.67,0,0,0,21.91,47.23Z"/><path d="M25.24,44l.05.55a1.38,1.38,0,0,1,.47-.46,1.24,1.24,0,0,1,.64-.16,1.2,1.2,0,0,1,.94.35,1.57,1.57,0,0,1,.33,1.1v2.36H27V45.38a1,1,0,0,0-.2-.7.76.76,0,0,0-.59-.21,1,1,0,0,0-.54.13,1,1,0,0,0-.35.35v2.78h-.68V44Z"/><path d="M34.11,46.12v0a1.5,1.5,0,0,1-.5,1.18,1.89,1.89,0,0,1-1.35.48,1.8,1.8,0,0,1-1.4-.6,2.29,2.29,0,0,1-.53-1.54v-.9a2.24,2.24,0,0,1,.53-1.53,1.78,1.78,0,0,1,1.4-.61,2,2,0,0,1,1.36.45,1.54,1.54,0,0,1,.49,1.21v0h-.65a1.17,1.17,0,0,0-.31-.84,1.22,1.22,0,0,0-.88-.3,1.06,1.06,0,0,0-.91.46A1.82,1.82,0,0,0,31,44.76v.9a1.87,1.87,0,0,0,.34,1.15,1.06,1.06,0,0,0,.91.46,1.18,1.18,0,0,0,.88-.31,1.14,1.14,0,0,0,.31-.84Z"/><path d="M35.59,44.49a1.38,1.38,0,0,1,.48-.42,1.29,1.29,0,0,1,.62-.15,1.24,1.24,0,0,1,.94.36,1.57,1.57,0,0,1,.33,1.1v2.35h-.68V45.38a1,1,0,0,0-.2-.69.75.75,0,0,0-.6-.22,1.08,1.08,0,0,0-.52.12,1,1,0,0,0-.37.33v2.81h-.68v-5.4h.68Z"/><path d="M41.24,47.73c0-.11,0-.21-.05-.3a2.3,2.3,0,0,1,0-.26,1.52,1.52,0,0,1-.49.45,1.31,1.31,0,0,1-.66.18,1.21,1.21,0,0,1-.89-.3,1.07,1.07,0,0,1-.31-.82,1,1,0,0,1,.43-.84,2.06,2.06,0,0,1,1.18-.3h.74v-.37a.69.69,0,0,0-.2-.53.93.93,0,0,0-1.1,0,.49.49,0,0,0-.21.4H39v0a.87.87,0,0,1,.38-.74,1.56,1.56,0,0,1,1-.34,1.53,1.53,0,0,1,1,.32,1.14,1.14,0,0,1,.38.93V47a2.34,2.34,0,0,0,0,.38,1.51,1.51,0,0,0,.07.37Zm.19-4.51v.08h-.56l-.51-.51-.5.51h-.55v-.09l.85-.82h.41Zm-1.32,4a1.21,1.21,0,0,0,.67-.19.92.92,0,0,0,.38-.44V46H40.4a1,1,0,0,0-.66.2.62.62,0,0,0-.25.49.51.51,0,0,0,.16.4A.67.67,0,0,0,40.11,47.23Z"/><path d="M45.21,47.18a1.32,1.32,0,0,1-.45.46,1.24,1.24,0,0,1-.64.16,1.21,1.21,0,0,1-1-.39,1.87,1.87,0,0,1-.34-1.22V44h.68V46.2a1.36,1.36,0,0,0,.18.82.66.66,0,0,0,.55.23,1.11,1.11,0,0,0,.6-.15.93.93,0,0,0,.36-.42V44h.68v3.74h-.61Z"/><path d="M72.43,59.65H73a.78.78,0,0,0,.58-.2.71.71,0,0,0,.19-.52.63.63,0,0,0-.19-.5.76.76,0,0,0-.52-.17.79.79,0,0,0-.5.16.54.54,0,0,0-.2.43h-1a1.34,1.34,0,0,1,.22-.74,1.49,1.49,0,0,1,.62-.51,2.13,2.13,0,0,1,.88-.18,1.93,1.93,0,0,1,1.3.4,1.33,1.33,0,0,1,.47,1.09,1.07,1.07,0,0,1-.22.66A1.32,1.32,0,0,1,74,60a1.31,1.31,0,0,1,.66.47,1.33,1.33,0,0,1,.22.75,1.37,1.37,0,0,1-.51,1.12A2.06,2.06,0,0,1,73,62.8a2,2,0,0,1-1.28-.41,1.34,1.34,0,0,1-.5-1.1h1a.61.61,0,0,0,.22.49.84.84,0,0,0,.54.18.85.85,0,0,0,.59-.19.69.69,0,0,0,.21-.52c0-.53-.29-.79-.87-.79h-.55Z"/><path d="M79,58.88a1.29,1.29,0,0,1-.19.68,1.42,1.42,0,0,1-.53.47,1.46,1.46,0,0,1,.61.51,1.33,1.33,0,0,1,.22.75,1.38,1.38,0,0,1-.48,1.11,2.26,2.26,0,0,1-2.58,0,1.35,1.35,0,0,1-.48-1.1,1.31,1.31,0,0,1,.22-.76,1.55,1.55,0,0,1,.6-.5,1.32,1.32,0,0,1-.52-.47,1.2,1.2,0,0,1-.19-.68,1.34,1.34,0,0,1,.45-1.06,1.72,1.72,0,0,1,1.21-.4,1.78,1.78,0,0,1,1.21.39A1.35,1.35,0,0,1,79,58.88Zm-.93,2.34a.77.77,0,0,0-.2-.55.69.69,0,0,0-.53-.2.67.67,0,0,0-.53.2.72.72,0,0,0-.2.55.76.76,0,0,0,.19.54.73.73,0,0,0,.54.2.67.67,0,0,0,.53-.2A.73.73,0,0,0,78.09,61.22ZM78,58.93a.73.73,0,0,0-.17-.49.55.55,0,0,0-.45-.18.59.59,0,0,0-.46.18.74.74,0,0,0-.16.49.82.82,0,0,0,.16.51.61.61,0,0,0,.46.19.59.59,0,0,0,.46-.19A.82.82,0,0,0,78,58.93Z"/><path d="M79.93,62.22a.48.48,0,0,1,.17-.4.56.56,0,0,1,.41-.16.57.57,0,0,1,.43.16.51.51,0,0,1,.17.4.54.54,0,0,1-.17.4.61.61,0,0,1-.43.15.6.6,0,0,1-.42-.15A.54.54,0,0,1,79.93,62.22Z"/><path d="M85.5,60.56a2.68,2.68,0,0,1-.45,1.67,1.81,1.81,0,0,1-2.63,0A2.56,2.56,0,0,1,82,60.62v-1A2.63,2.63,0,0,1,82.41,58,1.8,1.8,0,0,1,85,58a2.56,2.56,0,0,1,.47,1.62Zm-1-1.06a1.92,1.92,0,0,0-.18-1,.61.61,0,0,0-.56-.29.59.59,0,0,0-.54.28,1.78,1.78,0,0,0-.18.88V60.7a2.09,2.09,0,0,0,.17.95.6.6,0,0,0,.56.31.57.57,0,0,0,.55-.3,1.92,1.92,0,0,0,.18-.91Z"/><path d="M89.73,60.56a2.68,2.68,0,0,1-.45,1.67,1.81,1.81,0,0,1-2.63,0,2.56,2.56,0,0,1-.46-1.62v-1A2.63,2.63,0,0,1,86.64,58,1.57,1.57,0,0,1,88,57.42a1.6,1.6,0,0,1,1.31.56,2.62,2.62,0,0,1,.47,1.62Zm-1-1.06a1.92,1.92,0,0,0-.18-1,.62.62,0,0,0-.56-.29.59.59,0,0,0-.54.28,1.68,1.68,0,0,0-.18.88V60.7a2,2,0,0,0,.17.95.66.66,0,0,0,1.11,0,2,2,0,0,0,.18-.91Z"/><path d="M94,60.56a2.68,2.68,0,0,1-.45,1.67,1.81,1.81,0,0,1-2.63,0,2.62,2.62,0,0,1-.47-1.62v-1A2.63,2.63,0,0,1,90.87,58a1.57,1.57,0,0,1,1.31-.57,1.6,1.6,0,0,1,1.31.56A2.62,2.62,0,0,1,94,59.6Zm-1-1.06a1.92,1.92,0,0,0-.18-1,.62.62,0,0,0-.56-.29.59.59,0,0,0-.54.28,1.77,1.77,0,0,0-.19.88V60.7a2,2,0,0,0,.18.95.66.66,0,0,0,1.11,0,2,2,0,0,0,.18-.91Z"/><path d="M98,61.46l.73-2.62H99.8l-1.31,3.89h-1l-1.32-3.89h1.09Z"/><path d="M101.22,58.84l0,.45a1.36,1.36,0,0,1,1.12-.53,1.11,1.11,0,0,1,.92.37,1.66,1.66,0,0,1,.31,1.08v2.52h-1V60.24a.71.71,0,0,0-.14-.48.66.66,0,0,0-.48-.15.72.72,0,0,0-.66.37v2.75h-1V58.84Z"/><path d="M108.3,58.35h-.57v4.38h-.93l-.06-.41a1.21,1.21,0,0,1-1,.48,1.33,1.33,0,0,1-1.1-.54,2.4,2.4,0,0,1-.41-1.51,2.37,2.37,0,0,1,.4-1.45,1.34,1.34,0,0,1,1.12-.54,1.21,1.21,0,0,1,.94.43v-.84h-.91v-.66h.91V57.2h1v.49h.57Zm-3,2.48a1.49,1.49,0,0,0,.19.84A.6.6,0,0,0,106,62a.69.69,0,0,0,.68-.4V60a.69.69,0,0,0-.67-.41C105.52,59.61,105.27,60,105.27,60.83Z"/><path d="M93.86,12.73h-1V8.37l-1,0V7.62l2-.21Z"/><path d="M97.28,7.41a2,2,0,0,1,.5.06,2.22,2.22,0,0,1,.47.17l-.18.75a2.2,2.2,0,0,0-.79-.17.77.77,0,0,0-.65.36,1.72,1.72,0,0,0-.25,1v.15a1.32,1.32,0,0,1,.44-.3,1.58,1.58,0,0,1,.58-.11,1.07,1.07,0,0,1,.94.48,2.18,2.18,0,0,1,.34,1.26,1.78,1.78,0,0,1-.45,1.26,1.63,1.63,0,0,1-2.39-.06,2.31,2.31,0,0,1-.47-1.53V9.59A2.24,2.24,0,0,1,95.91,8,1.74,1.74,0,0,1,97.28,7.41Zm-.22,2.68a.86.86,0,0,0-.41.09.67.67,0,0,0-.27.23v.33a2,2,0,0,0,.19.94.55.55,0,0,0,.49.33.5.5,0,0,0,.44-.27,1.46,1.46,0,0,0,.16-.69,1.25,1.25,0,0,0-.17-.7A.49.49,0,0,0,97.06,10.09Z"/><path d="M100.39,12.73h-1v-.91h1Z"/><path d="M104.44,10.83a2.15,2.15,0,0,1-.44,1.45,1.43,1.43,0,0,1-1.16.52,1.46,1.46,0,0,1-1.18-.52,2.15,2.15,0,0,1-.45-1.45V9.39A2.14,2.14,0,0,1,101.66,8a1.42,1.42,0,0,1,1.17-.54A1.45,1.45,0,0,1,104,8a2.14,2.14,0,0,1,.44,1.44Zm-1-1.53a1.74,1.74,0,0,0-.16-.8.5.5,0,0,0-.44-.29.48.48,0,0,0-.44.29,1.62,1.62,0,0,0-.16.8v1.61a1.68,1.68,0,0,0,.16.82.49.49,0,0,0,.45.28.47.47,0,0,0,.43-.28,1.8,1.8,0,0,0,.16-.82Z"/><path d="M107,7.41a2,2,0,0,1,.5.06,2.44,2.44,0,0,1,.47.17l-.18.75a1.81,1.81,0,0,0-.38-.12,1.64,1.64,0,0,0-.41,0,.76.76,0,0,0-.65.36,1.72,1.72,0,0,0-.25,1v.15a1.23,1.23,0,0,1,.44-.3,1.54,1.54,0,0,1,.58-.11,1.08,1.08,0,0,1,.94.48,2.18,2.18,0,0,1,.33,1.26,1.78,1.78,0,0,1-.44,1.26,1.63,1.63,0,0,1-2.39-.06,2.31,2.31,0,0,1-.47-1.53V9.59A2.29,2.29,0,0,1,105.6,8,1.77,1.77,0,0,1,107,7.41Zm-.22,2.68a.86.86,0,0,0-.41.09.67.67,0,0,0-.27.23v.33a1.89,1.89,0,0,0,.19.94.55.55,0,0,0,.49.33.48.48,0,0,0,.43-.27,1.36,1.36,0,0,0,.17-.69,1.25,1.25,0,0,0-.17-.7A.5.5,0,0,0,106.76,10.09Z"/><rect x="3.75" y="52.38" width="104.88" height="0.28" rx="0.14"/></svg>