<svg id="Layer_1" data-name="Layer 1" xmlns="http://www.w3.org/2000/svg" viewBox="0 0 113.39 85.04"><defs><style>.cls-1{fill:none;stroke:#000;stroke-miterlimit:10;stroke-width:0.14px;}</style></defs><title>in tem 40x30</title><rect class="cls-1" width="113.39" height="85.04"/><path d="M4.56,12.73V5.47H6.64A2.79,2.79,0,0,1,8.4,6,1.75,1.75,0,0,1,9,7.45a1.85,1.85,0,0,1-.23.92A1.48,1.48,0,0,1,8.12,9a1.32,1.32,0,0,1,.9.59,1.89,1.89,0,0,1,.3,1.07,2,2,0,0,1-.6,1.57A2.53,2.53,0,0,1,7,12.73ZM6,8.54H6.7a.94.94,0,0,0,.69-.25,1,1,0,0,0,.24-.71,1,1,0,0,0-.25-.76,1,1,0,0,0-.74-.24H6Zm0,1v2.11H7a.87.87,0,0,0,.69-.25,1.08,1.08,0,0,0,.24-.76,1.28,1.28,0,0,0-.22-.81A.83.83,0,0,0,7,9.52H6Z"/><path d="M12.85,12.73a2.23,2.23,0,0,1-.13-.39,3,3,0,0,1-.08-.43,2.07,2.07,0,0,1-.47.67,1,1,0,0,1-.72.25,1.44,1.44,0,0,1-1.13-.43,1.68,1.68,0,0,1-.4-1.18A1.53,1.53,0,0,1,10.44,10,2.4,2.4,0,0,1,12,9.56h.61V9.11a1.19,1.19,0,0,0-.14-.62A.52.52,0,0,0,12,8.27a.46.46,0,0,0-.39.18.8.8,0,0,0-.14.5H10.14v0a1.42,1.42,0,0,1,.52-1.18,2.11,2.11,0,0,1,1.46-.49,1.93,1.93,0,0,1,1.38.49A1.8,1.8,0,0,1,14,9.12v2.21a5.31,5.31,0,0,0,.05.72,5.63,5.63,0,0,0,.17.68Zm-.11-6.37H11.52L10.28,5.07l0,0h1.55Zm-.92,5.43a.78.78,0,0,0,.5-.17.84.84,0,0,0,.29-.41v-.85H12a.56.56,0,0,0-.51.23,1,1,0,0,0-.17.58.73.73,0,0,0,.14.45A.45.45,0,0,0,11.82,11.79Z"/><path d="M16.21,7.34l.06.75a1.92,1.92,0,0,1,.56-.63,1.36,1.36,0,0,1,1.82.31A2.91,2.91,0,0,1,19,9.46v3.27h-1.4V9.46a1.75,1.75,0,0,0-.15-.86A.49.49,0,0,0,17,8.34a.88.88,0,0,0-.42.11,1,1,0,0,0-.31.31v4H14.9V7.34Z"/><path d="M26.65,10.1a3,3,0,0,1-.61,2,2.19,2.19,0,0,1-3.25,0,3,3,0,0,1-.61-2v-2a3,3,0,0,1,.61-2A2.17,2.17,0,0,1,26,6.1a3,3,0,0,1,.61,2ZM25.24,8A2.32,2.32,0,0,0,25,6.87a.67.67,0,0,0-1.22,0A2.45,2.45,0,0,0,23.59,8v2.22a2.31,2.31,0,0,0,.22,1.13.66.66,0,0,0,.61.4.65.65,0,0,0,.6-.4,2.31,2.31,0,0,0,.22-1.13Z"/><path d="M30.78,12.73H29.37v-6l-1.32,0V5.65l2.73-.28Z"/><path d="M37.89,10.17H35.37V9.07h2.52Z"/><path d="M43.21,9.68h-.38v3.05H41.42V5.47h1.41v3h.28l1.54-3H46.4L44.31,8.79l2.24,3.94H44.76Z"/><path d="M48.39,8a1.6,1.6,0,0,1,.51-.55,1.13,1.13,0,0,1,.67-.2,1.34,1.34,0,0,1,1.14.57,3,3,0,0,1,.42,1.75v3.17H49.72V9.55a2.08,2.08,0,0,0-.15-.94.47.47,0,0,0-.45-.27,1,1,0,0,0-.43.1.89.89,0,0,0-.3.28v4H47V5h1.4Z"/><path d="M54.85,12a1.67,1.67,0,0,1-.54.65,1.24,1.24,0,0,1-.74.22,1.3,1.3,0,0,1-1.14-.58,3.1,3.1,0,0,1-.42-1.8V7.34h1.4v3.12a2.33,2.33,0,0,0,.15,1,.46.46,0,0,0,.44.27,1,1,0,0,0,.43-.09.8.8,0,0,0,.31-.27v-4h1.41v5.39H55Z"/><path d="M62.63,11.16H60.82l-.41,1.57H58.94L61,5.47h1.46l2.06,7.26H63.05Zm-1.52-1.11h1.23l-.6-2.3h0Z"/><path d="M10.41,24.36H8.81v4.37H7.73V24.36H6.14v-.87h4.27Z"/><path d="M12.91,25.81l-.37,0a.77.77,0,0,0-.77.4v2.55h-1V24.84h1l0,.46a.94.94,0,0,1,.86-.54,1.14,1.14,0,0,1,.33,0Z"/><path d="M15.56,28.73a1,1,0,0,1-.1-.35,1.28,1.28,0,0,1-1,.42,1.37,1.37,0,0,1-.94-.33,1.07,1.07,0,0,1-.38-.83,1.08,1.08,0,0,1,.46-.95,2.18,2.18,0,0,1,1.33-.34h.47v-.22a.59.59,0,0,0-.14-.43.52.52,0,0,0-.43-.17.63.63,0,0,0-.41.13.43.43,0,0,0-.15.35h-1a1,1,0,0,1,.21-.63,1.31,1.31,0,0,1,.59-.45,2.11,2.11,0,0,1,.85-.17,1.65,1.65,0,0,1,1.14.37,1.24,1.24,0,0,1,.43,1v1.69a1.85,1.85,0,0,0,.15.84v.06Zm-.15-4.41h-.86l-1-1.12h1.13ZM14.7,28a.89.89,0,0,0,.43-.11.61.61,0,0,0,.28-.27V27H15c-.52,0-.79.18-.83.54v.06a.42.42,0,0,0,.14.32A.54.54,0,0,0,14.7,28Z"/><path d="M21.88,27.35a.55.55,0,0,0-.22-.47,3,3,0,0,0-.78-.34,5.41,5.41,0,0,1-.89-.36,1.45,1.45,0,0,1-.89-1.3,1.24,1.24,0,0,1,.24-.75,1.48,1.48,0,0,1,.69-.52,2.69,2.69,0,0,1,2,0,1.62,1.62,0,0,1,.68.58A1.48,1.48,0,0,1,23,25H21.88a.68.68,0,0,0-.23-.56.88.88,0,0,0-.63-.2,1,1,0,0,0-.62.17.53.53,0,0,0-.22.44.49.49,0,0,0,.26.42,2.63,2.63,0,0,0,.76.33,3.15,3.15,0,0,1,1.34.69,1.36,1.36,0,0,1,.42,1,1.28,1.28,0,0,1-.51,1.07,2.34,2.34,0,0,1-1.39.38,2.64,2.64,0,0,1-1.1-.22A1.79,1.79,0,0,1,19.2,28a1.55,1.55,0,0,1-.26-.89H20c0,.58.35.87,1,.87a1,1,0,0,0,.6-.16A.5.5,0,0,0,21.88,27.35Z"/><path d="M28,24.49a1.52,1.52,0,0,1-.26,1,1.15,1.15,0,0,1-.81.38v2.89H26l0-.4a1.27,1.27,0,0,1-1.06.47,1.24,1.24,0,0,1-1-.36,1.5,1.5,0,0,1-.33-1.05V24.84h1v2.51c0,.41.18.61.55.61a.76.76,0,0,0,.73-.36V24.84h1v.5a.5.5,0,0,0,.35-.23,1.46,1.46,0,0,0,.09-.62Zm-1.38-1.17a1,1,0,0,1-.24.69.74.74,0,0,1-.58.27.88.88,0,0,1-.24,0,1.31,1.31,0,0,1-.29-.13A1.23,1.23,0,0,0,25,24a.57.57,0,0,0-.18,0,.29.29,0,0,0-.22.09.36.36,0,0,0-.09.26l-.6,0a1.07,1.07,0,0,1,.23-.68.72.72,0,0,1,.58-.28.76.76,0,0,1,.21,0l.31.13.3.13.17,0a.31.31,0,0,0,.22-.09.33.33,0,0,0,.09-.25Z"/><path d="M30.37,28.73a1.34,1.34,0,0,1-.1-.35,1.26,1.26,0,0,1-1,.42,1.37,1.37,0,0,1-.95-.33,1.07,1.07,0,0,1-.38-.83,1.08,1.08,0,0,1,.46-.95,2.2,2.2,0,0,1,1.33-.34h.48v-.22a.63.63,0,0,0-.14-.43.56.56,0,0,0-.44-.17.65.65,0,0,0-.41.13.43.43,0,0,0-.15.35h-1a1,1,0,0,1,.21-.63,1.37,1.37,0,0,1,.59-.45,2.11,2.11,0,0,1,.85-.17,1.69,1.69,0,0,1,1.15.37,1.26,1.26,0,0,1,.42,1v1.69a1.85,1.85,0,0,0,.15.84v.06ZM29.51,28a.89.89,0,0,0,.43-.11.69.69,0,0,0,.29-.27V27h-.39c-.52,0-.8.18-.83.54v.06a.42.42,0,0,0,.14.32A.55.55,0,0,0,29.51,28Z"/><path d="M37.7,24.36H36.1v4.37H35V24.36H33.43v-.87H37.7Z"/><path d="M40.2,25.81l-.37,0a.78.78,0,0,0-.78.4v2.55H38V24.84h1l0,.46a1,1,0,0,1,.87-.54,1.2,1.2,0,0,1,.33,0Z"/><path d="M42.85,28.73a1,1,0,0,1-.1-.35,1.28,1.28,0,0,1-1,.42,1.41,1.41,0,0,1-.95-.33,1.06,1.06,0,0,1-.37-.83,1.08,1.08,0,0,1,.46-.95,2.16,2.16,0,0,1,1.32-.34h.48v-.22a.59.59,0,0,0-.14-.43.52.52,0,0,0-.43-.17.66.66,0,0,0-.42.13.43.43,0,0,0-.15.35h-1a1,1,0,0,1,.21-.63,1.43,1.43,0,0,1,.59-.45,2.16,2.16,0,0,1,.86-.17,1.65,1.65,0,0,1,1.14.37,1.24,1.24,0,0,1,.43,1v1.69a1.85,1.85,0,0,0,.15.84v.06Zm.71-4.52v0h-.83l-.55-.52-.56.52h-.81v-.06l1.06-1h.61ZM42,28a.88.88,0,0,0,.42-.11.64.64,0,0,0,.29-.27V27h-.39c-.52,0-.79.18-.83.54v.06a.39.39,0,0,0,.14.32A.54.54,0,0,0,42,28Z"/><path d="M45.5,24.84l0,.45a1.37,1.37,0,0,1,1.12-.53,1.1,1.1,0,0,1,.92.37,1.6,1.6,0,0,1,.31,1.08v2.52h-1V26.24a.53.53,0,0,0-.62-.63.72.72,0,0,0-.66.37v2.75h-1V24.84Z"/><path d="M54.69,27a1.86,1.86,0,0,1-.63,1.34,2.2,2.2,0,0,1-1.48.48A1.93,1.93,0,0,1,51,28.12a2.74,2.74,0,0,1-.58-1.86v-.32a3.25,3.25,0,0,1,.26-1.33,2,2,0,0,1,.76-.88,2.12,2.12,0,0,1,1.16-.31,2.16,2.16,0,0,1,1.46.48,2,2,0,0,1,.64,1.37H53.62a1.08,1.08,0,0,0-.29-.74,1,1,0,0,0-.73-.23.91.91,0,0,0-.81.39,2.21,2.21,0,0,0-.28,1.2v.4a2.34,2.34,0,0,0,.26,1.24.9.9,0,0,0,.81.39,1.1,1.1,0,0,0,.75-.23,1,1,0,0,0,.28-.71Z"/><path d="M56.34,25.26a1.32,1.32,0,0,1,1-.5c.85,0,1.28.5,1.29,1.48v2.49h-1V26.26a.75.75,0,0,0-.14-.49.62.62,0,0,0-.48-.16.73.73,0,0,0-.67.35v2.77h-1V23.2h1Z"/><path d="M61.71,28.73a1,1,0,0,1-.1-.35,1.28,1.28,0,0,1-1,.42,1.37,1.37,0,0,1-.94-.33,1,1,0,0,1-.38-.83,1.08,1.08,0,0,1,.46-.95,2.16,2.16,0,0,1,1.32-.34h.48v-.22a.59.59,0,0,0-.14-.43.52.52,0,0,0-.43-.17.66.66,0,0,0-.42.13.45.45,0,0,0-.14.35h-1a1,1,0,0,1,.2-.63,1.43,1.43,0,0,1,.59-.45,2.16,2.16,0,0,1,.86-.17,1.65,1.65,0,0,1,1.14.37,1.24,1.24,0,0,1,.43,1v1.69a1.85,1.85,0,0,0,.15.84v.06Zm.71-4.52v0h-.83L61,23.73l-.56.52h-.81v-.06l1.06-1h.61ZM60.85,28a.85.85,0,0,0,.42-.11.64.64,0,0,0,.29-.27V27h-.39c-.52,0-.79.18-.83.54v.06a.39.39,0,0,0,.14.32A.54.54,0,0,0,60.85,28Z"/><path d="M65.74,28.33a1.29,1.29,0,0,1-1.07.47,1.21,1.21,0,0,1-1-.36,1.5,1.5,0,0,1-.34-1.05V24.84h1v2.51c0,.41.19.61.55.61a.75.75,0,0,0,.73-.36V24.84h1v3.89h-1Z"/><path d="M71.39,26.91h-2v-.84h2Z"/><path d="M75.54,23.49l1.34,3.8,1.34-3.8h1.42v5.24H78.56V27.3l.1-2.47-1.41,3.9h-.74l-1.41-3.9.11,2.47v1.43H74.13V23.49Z"/><path d="M10.61,74.07a1.9,1.9,0,0,1-.82.54,3.44,3.44,0,0,1-1.18.19,2.41,2.41,0,0,1-1.19-.29,2,2,0,0,1-.8-.87,3,3,0,0,1-.28-1.33V72A3.33,3.33,0,0,1,6.6,70.6a2,2,0,0,1,.77-.88,2.2,2.2,0,0,1,1.16-.3,2.23,2.23,0,0,1,1.46.44,1.89,1.89,0,0,1,.62,1.3h-1a1,1,0,0,0-.32-.66,1,1,0,0,0-.67-.21,1,1,0,0,0-.84.41,2.11,2.11,0,0,0-.29,1.23v.34a2,2,0,0,0,.31,1.24,1.07,1.07,0,0,0,.92.42,1.15,1.15,0,0,0,.86-.26v-.9h-1V72h2.06Z"/><path d="M11.41,69.83a.5.5,0,0,1,.16-.39.57.57,0,0,1,.42-.15.61.61,0,0,1,.43.15.56.56,0,0,1,0,.78.61.61,0,0,1-.43.15.6.6,0,0,1-.42-.15A.53.53,0,0,1,11.41,69.83Zm1.11,4.9h-1V70.84h1Z"/><path d="M15.63,74.73a1.31,1.31,0,0,1-.11-.35,1.24,1.24,0,0,1-1,.42,1.41,1.41,0,0,1-.95-.33,1.06,1.06,0,0,1-.37-.83,1.08,1.08,0,0,1,.46-1A2.16,2.16,0,0,1,15,72.35h.48v-.22a.59.59,0,0,0-.14-.43.52.52,0,0,0-.43-.17.66.66,0,0,0-.42.13.45.45,0,0,0-.14.35h-1a1,1,0,0,1,.2-.63,1.43,1.43,0,0,1,.59-.45,2.16,2.16,0,0,1,.86-.17,1.65,1.65,0,0,1,1.14.37,1.24,1.24,0,0,1,.43,1v1.69a1.85,1.85,0,0,0,.15.84v.06ZM14.77,74a.88.88,0,0,0,.42-.11.64.64,0,0,0,.29-.27V73h-.39c-.52,0-.79.18-.83.54v.06a.39.39,0,0,0,.14.32A.54.54,0,0,0,14.77,74Zm.4-4.81H16.3l-1,1.12h-.84Z"/><path d="M17.37,71.27a.53.53,0,0,1,.17-.4.63.63,0,0,1,.84,0,.5.5,0,0,1,.17.4.52.52,0,0,1-.16.4.63.63,0,0,1-.43.15.6.6,0,0,1-.42-.15A.53.53,0,0,1,17.37,71.27Zm0,3a.51.51,0,0,1,.17-.4.63.63,0,0,1,.84,0,.48.48,0,0,1,.17.4.54.54,0,0,1-.16.4.63.63,0,0,1-.43.15.6.6,0,0,1-.42-.15A.54.54,0,0,1,17.37,74.22Z"/><path d="M22.25,71.65h.56a.81.81,0,0,0,.59-.2.75.75,0,0,0,.19-.52.67.67,0,0,0-.19-.5.77.77,0,0,0-.52-.17.75.75,0,0,0-.5.16.51.51,0,0,0-.2.43h-1a1.26,1.26,0,0,1,.22-.74A1.37,1.37,0,0,1,22,69.6a2.05,2.05,0,0,1,.87-.18,1.91,1.91,0,0,1,1.3.4,1.33,1.33,0,0,1,.48,1.09,1.14,1.14,0,0,1-.22.66,1.41,1.41,0,0,1-.58.47,1.23,1.23,0,0,1,.66.47,1.25,1.25,0,0,1,.22.75,1.37,1.37,0,0,1-.51,1.12,2.06,2.06,0,0,1-1.35.42,2,2,0,0,1-1.28-.41,1.37,1.37,0,0,1-.5-1.1h1a.64.64,0,0,0,.22.49.85.85,0,0,0,.55.18.83.83,0,0,0,.58-.19.69.69,0,0,0,.21-.52c0-.53-.29-.79-.86-.79h-.56Z"/><path d="M29,72.56a2.68,2.68,0,0,1-.45,1.67,1.8,1.8,0,0,1-2.62,0,2.56,2.56,0,0,1-.47-1.62v-1A2.57,2.57,0,0,1,25.87,70a1.57,1.57,0,0,1,1.31-.57,1.6,1.6,0,0,1,1.31.56A2.62,2.62,0,0,1,29,71.6Zm-1-1.06a1.92,1.92,0,0,0-.18-1,.61.61,0,0,0-.55-.29.57.57,0,0,0-.54.28,1.77,1.77,0,0,0-.19.88V72.7a2,2,0,0,0,.18,1,.58.58,0,0,0,.56.31.59.59,0,0,0,.55-.3,1.93,1.93,0,0,0,.17-.91Z"/><path d="M29.75,74.22a.51.51,0,0,1,.17-.4.63.63,0,0,1,.84,0,.51.51,0,0,1,.17.4.54.54,0,0,1-.17.4.66.66,0,0,1-.84,0A.54.54,0,0,1,29.75,74.22Z"/><path d="M35.32,72.56a2.68,2.68,0,0,1-.45,1.67,1.57,1.57,0,0,1-1.31.57,1.62,1.62,0,0,1-1.32-.56,2.62,2.62,0,0,1-.46-1.62v-1A2.57,2.57,0,0,1,32.24,70a1.57,1.57,0,0,1,1.31-.57,1.6,1.6,0,0,1,1.31.56,2.62,2.62,0,0,1,.46,1.62Zm-1-1.06a1.92,1.92,0,0,0-.18-1,.61.61,0,0,0-.55-.29.57.57,0,0,0-.54.28,1.77,1.77,0,0,0-.19.88V72.7a2,2,0,0,0,.18,1,.58.58,0,0,0,.56.31.59.59,0,0,0,.55-.3,1.93,1.93,0,0,0,.17-.91Z"/><path d="M39.55,72.56a2.68,2.68,0,0,1-.45,1.67,1.58,1.58,0,0,1-1.32.57,1.61,1.61,0,0,1-1.31-.56A2.62,2.62,0,0,1,36,72.62v-1A2.63,2.63,0,0,1,36.46,70a1.81,1.81,0,0,1,2.63,0,2.62,2.62,0,0,1,.46,1.62Zm-1-1.06a1.92,1.92,0,0,0-.18-1,.61.61,0,0,0-.55-.29.6.6,0,0,0-.55.28,1.9,1.9,0,0,0-.18.88V72.7a2.09,2.09,0,0,0,.17,1,.6.6,0,0,0,.56.31.57.57,0,0,0,.55-.3,1.8,1.8,0,0,0,.18-.91Z"/><path d="M43.78,72.56a2.68,2.68,0,0,1-.45,1.67,1.81,1.81,0,0,1-2.63,0,2.56,2.56,0,0,1-.46-1.62v-1A2.63,2.63,0,0,1,40.69,70a1.8,1.8,0,0,1,2.62,0,2.56,2.56,0,0,1,.47,1.62Zm-1-1.06a1.92,1.92,0,0,0-.18-1,.61.61,0,0,0-.56-.29.59.59,0,0,0-.54.28,1.78,1.78,0,0,0-.18.88V72.7a2.09,2.09,0,0,0,.17,1A.6.6,0,0,0,42,74a.57.57,0,0,0,.55-.3,1.92,1.92,0,0,0,.18-.91Z"/><path d="M47.82,73.46l.72-2.62h1.09l-1.32,3.89h-1L46,70.84h1.08Z"/><path d="M51,70.84l0,.45a1.37,1.37,0,0,1,1.12-.53,1.1,1.1,0,0,1,.92.37,1.66,1.66,0,0,1,.31,1.08v2.52h-1V72.24a.53.53,0,0,0-.62-.63.72.72,0,0,0-.66.37v2.75h-1V70.84Z"/><path d="M58.13,70.35h-.57v4.38h-.94l0-.41a1.23,1.23,0,0,1-1,.48,1.31,1.31,0,0,1-1.1-.54,2.4,2.4,0,0,1-.42-1.51,2.38,2.38,0,0,1,.41-1.45,1.31,1.31,0,0,1,1.11-.54,1.2,1.2,0,0,1,.94.43v-.84h-.9v-.66h.9V69.2h1.05v.49h.57Zm-3,2.48a1.49,1.49,0,0,0,.19.84.61.61,0,0,0,.55.29.68.68,0,0,0,.68-.4V72a.68.68,0,0,0-.67-.41C55.34,71.61,55.09,72,55.09,72.83Z"/><path d="M10.46,39.73H9.77V35.32H8.67v-.52l1.79-.19Z"/><path d="M15.52,37.37,16.31,36h.8l-1.22,1.85,1.25,1.89h-.78l-.83-1.42-.83,1.42h-.79l1.25-1.89L13.94,36h.79Z"/><path d="M23.19,35.23H21.53v4.5h-.69v-4.5H19.2v-.54h4Z"/><path d="M24.49,36.49a1.38,1.38,0,0,1,.48-.42,1.26,1.26,0,0,1,.62-.15,1.2,1.2,0,0,1,.93.36,1.53,1.53,0,0,1,.34,1.1v2.35h-.68V37.38a1,1,0,0,0-.2-.69.76.76,0,0,0-.6-.22,1.05,1.05,0,0,0-.52.12.91.91,0,0,0-.37.33v2.81h-.68v-5.4h.68Z"/><path d="M30.14,39.73q0-.16-.06-.3a2.28,2.28,0,0,1,0-.26,1.52,1.52,0,0,1-.49.45,1.31,1.31,0,0,1-.66.18,1.21,1.21,0,0,1-.89-.3,1.07,1.07,0,0,1-.31-.82,1,1,0,0,1,.43-.84,2.06,2.06,0,0,1,1.18-.3h.74v-.37a.69.69,0,0,0-.2-.53.81.81,0,0,0-.57-.19.8.8,0,0,0-.53.17.49.49,0,0,0-.21.4h-.64v0a.87.87,0,0,1,.38-.74,1.56,1.56,0,0,1,1-.34,1.53,1.53,0,0,1,1,.32,1.18,1.18,0,0,1,.38.93V39a2.34,2.34,0,0,0,0,.38,1.51,1.51,0,0,0,.07.37ZM29,39.23a1.16,1.16,0,0,0,.66-.19.9.9,0,0,0,.39-.44V38H29.3a1,1,0,0,0-.66.2.62.62,0,0,0-.25.49.51.51,0,0,0,.16.4A.67.67,0,0,0,29,39.23Zm.46,1.67h-.75v-.7h.75Z"/><path d="M33.22,39.27a.81.81,0,0,0,.55-.21.65.65,0,0,0,.24-.51h.61v0a1.09,1.09,0,0,1-.41.86,1.48,1.48,0,0,1-1,.37A1.49,1.49,0,0,1,32,39.27a2.13,2.13,0,0,1-.43-1.34v-.14A2.08,2.08,0,0,1,32,36.45a1.47,1.47,0,0,1,1.21-.53,1.45,1.45,0,0,1,1,.38,1.26,1.26,0,0,1,.38,1v0H34a.84.84,0,0,0-.23-.59.73.73,0,0,0-.56-.24.79.79,0,0,0-.73.39,1.88,1.88,0,0,0-.23.95v.14a1.76,1.76,0,0,0,.23,1A.77.77,0,0,0,33.22,39.27Z"/><path d="M36.12,36.49a1.38,1.38,0,0,1,.48-.42,1.33,1.33,0,0,1,.63-.15,1.21,1.21,0,0,1,.93.36,1.57,1.57,0,0,1,.33,1.1v2.35h-.68V37.38a1,1,0,0,0-.2-.69.74.74,0,0,0-.59-.22,1.09,1.09,0,0,0-.53.12,1.06,1.06,0,0,0-.37.33v2.81h-.68v-5.4h.68Z"/><path d="M42.18,35.08V36h.71v.5h-.71v2.27a.51.51,0,0,0,.11.37.36.36,0,0,0,.29.11h.13a.34.34,0,0,0,.12,0l.09.47a.5.5,0,0,1-.22.1,1,1,0,0,1-.3,0,.89.89,0,0,1-.66-.25,1.11,1.11,0,0,1-.24-.79V36.49h-.6V36h.6v-.91Z"/><path d="M44.3,36.49a1.38,1.38,0,0,1,.48-.42,1.29,1.29,0,0,1,.62-.15,1.2,1.2,0,0,1,.93.36,1.53,1.53,0,0,1,.34,1.1v2.35H46V37.38a1,1,0,0,0-.2-.69.76.76,0,0,0-.6-.22,1.12,1.12,0,0,0-.53.12,1,1,0,0,0-.36.33v2.81h-.68v-5.4h.68Z"/><path d="M50,39.18a1.17,1.17,0,0,1-.45.46,1.22,1.22,0,0,1-.64.16,1.18,1.18,0,0,1-1-.39,1.81,1.81,0,0,1-.35-1.22V36h.68V38.2a1.36,1.36,0,0,0,.18.82.66.66,0,0,0,.55.23,1.11,1.11,0,0,0,.6-.15.93.93,0,0,0,.36-.42V36h.68v3.74h-.61Zm-1.09-3.73v-.54a1,1,0,0,0,.37-.07.17.17,0,0,0,.12-.18.21.21,0,0,0-.15-.2,1.16,1.16,0,0,0-.41-.07l0-.37a1.41,1.41,0,0,1,.78.18.55.55,0,0,1,.27.47.44.44,0,0,1-.15.37.66.66,0,0,1-.37.16v.25Z"/><path d="M52.82,38.34l.12.47h0L53.88,36h.76L53.07,40.3a1.94,1.94,0,0,1-.41.66.94.94,0,0,1-.72.28.9.9,0,0,1-.21,0l-.19,0,.07-.54h.3a.44.44,0,0,0,.36-.2A2,2,0,0,0,52.5,40l.16-.39L51.27,36H52Z"/><path d="M58,35.08V36h.71v.5H58v2.27a.47.47,0,0,0,.11.37.36.36,0,0,0,.29.11h.13a.34.34,0,0,0,.12,0l.09.47a.5.5,0,0,1-.22.1,1,1,0,0,1-.3,0,.89.89,0,0,1-.66-.25,1.11,1.11,0,0,1-.24-.79V36.49h-.6V36h.6v-.91Z"/><path d="M60.13,35h-.69v-.7h.69Zm0,4.7h-.69V36h.69Z"/><path d="M61.78,36l0,.55a1.38,1.38,0,0,1,.47-.46,1.24,1.24,0,0,1,.64-.16,1.2,1.2,0,0,1,.94.35,1.57,1.57,0,0,1,.33,1.1v2.36h-.68V37.38a1,1,0,0,0-.2-.7.76.76,0,0,0-.59-.21,1,1,0,0,0-.54.13.88.88,0,0,0-.34.35v2.78h-.69V36Z"/><path d="M65.88,36.49a1.38,1.38,0,0,1,.48-.42,1.32,1.32,0,0,1,.62-.15,1.24,1.24,0,0,1,.94.36,1.57,1.57,0,0,1,.33,1.1v2.35h-.68V37.38a1,1,0,0,0-.2-.69.74.74,0,0,0-.59-.22,1.09,1.09,0,0,0-.53.12,1.06,1.06,0,0,0-.37.33v2.81H65.2v-5.4h.68Z"/><path d="M10.46,49.73H9.77V45.32H8.67v-.52l1.79-.19Z"/><path d="M15.52,47.37,16.31,46h.8l-1.22,1.85,1.25,1.89h-.78l-.83-1.42-.83,1.42h-.79l1.25-1.89L13.94,46h.79Z"/><path d="M22.35,48.46a.76.76,0,0,0-.25-.58,2.1,2.1,0,0,0-.86-.39,2.91,2.91,0,0,1-1.2-.56,1.17,1.17,0,0,1-.43-.93,1.25,1.25,0,0,1,.46-1,1.81,1.81,0,0,1,1.21-.39,1.74,1.74,0,0,1,1.26.45,1.34,1.34,0,0,1,.46,1v0h-.65a.91.91,0,0,0-.3-.7,1.23,1.23,0,0,0-1.5,0,.79.79,0,0,0-.25.6.67.67,0,0,0,.28.55,2.68,2.68,0,0,0,.9.38,2.48,2.48,0,0,1,1.16.59,1.23,1.23,0,0,1,.4.94,1.16,1.16,0,0,1-.48,1,2,2,0,0,1-1.25.37A2.07,2.07,0,0,1,20,49.39a1.24,1.24,0,0,1-.54-1.09v0h.65a.84.84,0,0,0,.36.73,1.37,1.37,0,0,0,.81.26,1.21,1.21,0,0,0,.77-.22A.69.69,0,0,0,22.35,48.46Z"/><path d="M28.18,45.48v0a1.31,1.31,0,0,1-.29.94,1.42,1.42,0,0,1-1,.38v2.9h-.62l0-.55a1.32,1.32,0,0,1-.45.46,1.24,1.24,0,0,1-.64.16,1.21,1.21,0,0,1-1-.39,1.81,1.81,0,0,1-.34-1.22V46h.68V48.2a1.36,1.36,0,0,0,.18.82.65.65,0,0,0,.55.23,1.11,1.11,0,0,0,.6-.15.93.93,0,0,0,.36-.42V46h.68v.39h0a.61.61,0,0,0,.49-.25,1.19,1.19,0,0,0,.15-.66Z"/><path d="M27.91,47.82a2.07,2.07,0,0,1,.45-1.37,1.53,1.53,0,0,1,1.22-.53,1.71,1.71,0,0,1,.65.12,1.47,1.47,0,0,1,.51.34.66.66,0,0,0,.43-.29,1.17,1.17,0,0,0,.13-.59h.62a1.42,1.42,0,0,1-.23.82,1.12,1.12,0,0,1-.68.43,2.15,2.15,0,0,1,.19.5,2.69,2.69,0,0,1,.06.57v.08a2.06,2.06,0,0,1-.45,1.37,1.49,1.49,0,0,1-1.22.53,1.54,1.54,0,0,1-1.23-.53,2.06,2.06,0,0,1-.45-1.37Zm.68.08a1.82,1.82,0,0,0,.25,1,.91.91,0,0,0,1.49,0,1.74,1.74,0,0,0,.25-1v-.08a1.76,1.76,0,0,0-.25-1,.91.91,0,0,0-1.49,0,1.85,1.85,0,0,0-.25,1Z"/><path d="M32.74,46l0,.55a1.38,1.38,0,0,1,.47-.46,1.24,1.24,0,0,1,.64-.16,1.2,1.2,0,0,1,.94.35,1.57,1.57,0,0,1,.33,1.1v2.36h-.68V47.38a1,1,0,0,0-.19-.7.78.78,0,0,0-.6-.21,1,1,0,0,0-.54.13.88.88,0,0,0-.34.35v2.78h-.69V46Z"/><path d="M36,47.93a2.47,2.47,0,0,1,.39-1.46,1.22,1.22,0,0,1,1.08-.55,1.22,1.22,0,0,1,1.07.55l.09-.48h.54v3.76a1.44,1.44,0,0,1-.42,1.11,1.75,1.75,0,0,1-1.21.38,2.47,2.47,0,0,1-.58-.07,2.1,2.1,0,0,1-.55-.21l.1-.52a1.93,1.93,0,0,0,.48.16,2.13,2.13,0,0,0,.55.07,1,1,0,0,0,.72-.23.94.94,0,0,0,.23-.69v-.43a1.17,1.17,0,0,1-.44.36,1.38,1.38,0,0,1-.59.12,1.26,1.26,0,0,1-1.07-.49A2.08,2.08,0,0,1,36,48Zm.68.07a1.63,1.63,0,0,0,.23.91.84.84,0,0,0,.72.34.94.94,0,0,0,.52-.14,1.12,1.12,0,0,0,.34-.4V47a1,1,0,0,0-.34-.38.93.93,0,0,0-.51-.14.75.75,0,0,0-.72.41,2,2,0,0,0-.24,1Z"/><path d="M44.73,48.46a.76.76,0,0,0-.25-.58,2.1,2.1,0,0,0-.86-.39,2.91,2.91,0,0,1-1.2-.56A1.17,1.17,0,0,1,42,46a1.25,1.25,0,0,1,.46-1,1.81,1.81,0,0,1,1.21-.39,1.78,1.78,0,0,1,1.27.45,1.37,1.37,0,0,1,.45,1v0h-.65a.91.91,0,0,0-.3-.7,1.05,1.05,0,0,0-.76-.28,1,1,0,0,0-.73.23.76.76,0,0,0-.26.6.67.67,0,0,0,.28.55,2.75,2.75,0,0,0,.91.38,2.5,2.5,0,0,1,1.15.59,1.23,1.23,0,0,1,.4.94,1.16,1.16,0,0,1-.48,1,2,2,0,0,1-1.25.37,2.09,2.09,0,0,1-1.29-.41,1.24,1.24,0,0,1-.54-1.09v0h.65a.84.84,0,0,0,.36.73,1.37,1.37,0,0,0,.81.26,1.21,1.21,0,0,0,.77-.22A.69.69,0,0,0,44.73,48.46Z"/><path d="M48.58,49.73c0-.11,0-.21,0-.3a2.28,2.28,0,0,1,0-.26,1.56,1.56,0,0,1-.5.45,1.26,1.26,0,0,1-.66.18,1.23,1.23,0,0,1-.89-.3,1.1,1.1,0,0,1-.3-.82,1,1,0,0,1,.43-.84,2,2,0,0,1,1.18-.3h.74v-.37a.72.72,0,0,0-.2-.53.95.95,0,0,0-1.11,0,.51.51,0,0,0-.2.4h-.65v0a.87.87,0,0,1,.38-.74,1.56,1.56,0,0,1,1.05-.34,1.52,1.52,0,0,1,1,.32,1.15,1.15,0,0,1,.39.93V49c0,.13,0,.26,0,.38a2.21,2.21,0,0,0,.08.37Zm-1.13-.5a1.19,1.19,0,0,0,.67-.19.9.9,0,0,0,.39-.44V48h-.77a1.06,1.06,0,0,0-.66.2.64.64,0,0,0-.24.49.54.54,0,0,0,.15.4A.7.7,0,0,0,47.45,49.23ZM48,44.4h.79v0l-.93.9H47.4Z"/><path d="M50,47.82a2.07,2.07,0,0,1,.45-1.37,1.53,1.53,0,0,1,1.22-.53,1.51,1.51,0,0,1,1.23.53,2.07,2.07,0,0,1,.45,1.37v.08a2.06,2.06,0,0,1-.45,1.37,1.49,1.49,0,0,1-1.22.53,1.54,1.54,0,0,1-1.23-.53A2.06,2.06,0,0,1,50,47.9Zm.68.08a1.82,1.82,0,0,0,.25,1,.91.91,0,0,0,1.49,0,1.74,1.74,0,0,0,.25-1v-.08a1.76,1.76,0,0,0-.25-1,.91.91,0,0,0-1.49,0,1.85,1.85,0,0,0-.25,1Z"/><path d="M10.46,59.73H9.77V55.32H8.67v-.52l1.79-.19Z"/><path d="M15.52,57.37,16.31,56h.8l-1.22,1.85,1.25,1.89h-.78l-.83-1.42-.83,1.42h-.79l1.25-1.89L13.94,56h.79Z"/><path d="M23.19,55.23H21.53v4.5h-.69v-4.5H19.2v-.54h4Z"/><path d="M24.49,56.49a1.38,1.38,0,0,1,.48-.42,1.26,1.26,0,0,1,.62-.15,1.2,1.2,0,0,1,.93.36,1.53,1.53,0,0,1,.34,1.1v2.35h-.68V57.38a1,1,0,0,0-.2-.69.76.76,0,0,0-.6-.22,1.05,1.05,0,0,0-.52.12.91.91,0,0,0-.37.33v2.81h-.68v-5.4h.68Z"/><path d="M30.14,59.73q0-.16-.06-.3a2.28,2.28,0,0,1,0-.26,1.52,1.52,0,0,1-.49.45,1.31,1.31,0,0,1-.66.18,1.21,1.21,0,0,1-.89-.3,1.07,1.07,0,0,1-.31-.82,1,1,0,0,1,.43-.84,2.06,2.06,0,0,1,1.18-.3h.74v-.37a.69.69,0,0,0-.2-.53.81.81,0,0,0-.57-.19.8.8,0,0,0-.53.17.49.49,0,0,0-.21.4h-.64v0a.87.87,0,0,1,.38-.74,1.56,1.56,0,0,1,1-.34,1.53,1.53,0,0,1,1,.32,1.18,1.18,0,0,1,.38.93V59a2.34,2.34,0,0,0,0,.38,1.51,1.51,0,0,0,.07.37ZM29,59.23a1.16,1.16,0,0,0,.66-.19.9.9,0,0,0,.39-.44V58H29.3a1,1,0,0,0-.66.2.62.62,0,0,0-.25.49.51.51,0,0,0,.16.4A.67.67,0,0,0,29,59.23Zm.46,1.67h-.75v-.7h.75Z"/><path d="M33.22,59.27a.81.81,0,0,0,.55-.21.65.65,0,0,0,.24-.51h.61v0a1.09,1.09,0,0,1-.41.86,1.48,1.48,0,0,1-1,.37A1.49,1.49,0,0,1,32,59.27a2.13,2.13,0,0,1-.43-1.34v-.14A2.08,2.08,0,0,1,32,56.45a1.47,1.47,0,0,1,1.21-.53,1.45,1.45,0,0,1,1,.38,1.26,1.26,0,0,1,.38,1v0H34a.84.84,0,0,0-.23-.59.73.73,0,0,0-.56-.24.79.79,0,0,0-.73.39,1.88,1.88,0,0,0-.23.95v.14a1.76,1.76,0,0,0,.23,1A.77.77,0,0,0,33.22,59.27Z"/><path d="M36.12,56.49a1.38,1.38,0,0,1,.48-.42,1.33,1.33,0,0,1,.63-.15,1.21,1.21,0,0,1,.93.36,1.57,1.57,0,0,1,.33,1.1v2.35h-.68V57.38a1,1,0,0,0-.2-.69.74.74,0,0,0-.59-.22,1.09,1.09,0,0,0-.53.12,1.06,1.06,0,0,0-.37.33v2.81h-.68v-5.4h.68Z"/><path d="M44.92,58.12v0a1.5,1.5,0,0,1-.5,1.18,1.89,1.89,0,0,1-1.35.48,1.8,1.8,0,0,1-1.4-.6,2.24,2.24,0,0,1-.53-1.54v-.9a2.19,2.19,0,0,1,.53-1.53,1.78,1.78,0,0,1,1.4-.61,2,2,0,0,1,1.36.45,1.54,1.54,0,0,1,.49,1.21v0h-.65a1.17,1.17,0,0,0-.31-.84,1.24,1.24,0,0,0-.88-.3,1.06,1.06,0,0,0-.91.46,1.82,1.82,0,0,0-.34,1.14v.9a1.87,1.87,0,0,0,.34,1.15,1.06,1.06,0,0,0,.91.46A1.2,1.2,0,0,0,44,59a1.14,1.14,0,0,0,.31-.84Z"/><path d="M45.56,57.82A2.07,2.07,0,0,1,46,56.45a1.53,1.53,0,0,1,1.22-.53,1.51,1.51,0,0,1,1.23.53,2.07,2.07,0,0,1,.45,1.37v.08a2.06,2.06,0,0,1-.45,1.37,1.49,1.49,0,0,1-1.22.53A1.54,1.54,0,0,1,46,59.27a2.06,2.06,0,0,1-.45-1.37Zm.68.08a1.82,1.82,0,0,0,.25,1,.91.91,0,0,0,1.49,0,1.74,1.74,0,0,0,.25-1v-.08a1.76,1.76,0,0,0-.25-1,.91.91,0,0,0-1.49,0,1.85,1.85,0,0,0-.25,1Zm1.33-3.5h.79v0l-.93.9h-.51Z"/><path d="M55.45,57.66a2.27,2.27,0,0,1-.12.75,1.86,1.86,0,0,1-.33.64l.75.73-.46.44-.77-.73a1.94,1.94,0,0,1-.53.23,2,2,0,0,1-.6.08A1.81,1.81,0,0,1,52,59.19a2.17,2.17,0,0,1-.56-1.53v-.9A2.2,2.2,0,0,1,52,55.23a1.81,1.81,0,0,1,1.43-.61,1.94,1.94,0,0,1,1.49.61,2.16,2.16,0,0,1,.57,1.53Zm-.68-.9a1.77,1.77,0,0,0-.37-1.14,1.27,1.27,0,0,0-1-.44,1.17,1.17,0,0,0-1,.44,1.76,1.76,0,0,0-.35,1.14v.9a1.73,1.73,0,0,0,.35,1.14,1.15,1.15,0,0,0,1,.45,1.25,1.25,0,0,0,1-.45,1.73,1.73,0,0,0,.37-1.14Z"/><path d="M58.82,59.18a1.17,1.17,0,0,1-.45.46,1.22,1.22,0,0,1-.64.16,1.18,1.18,0,0,1-.95-.39,1.81,1.81,0,0,1-.35-1.22V56h.68V58.2a1.36,1.36,0,0,0,.18.82.66.66,0,0,0,.55.23,1.11,1.11,0,0,0,.6-.15.93.93,0,0,0,.36-.42V56h.68v3.74h-.61Z"/><path d="M62.78,59.73a2,2,0,0,1-.06-.3,2.28,2.28,0,0,1,0-.26,1.56,1.56,0,0,1-.5.45,1.26,1.26,0,0,1-.66.18,1.23,1.23,0,0,1-.89-.3,1.1,1.1,0,0,1-.3-.82,1,1,0,0,1,.43-.84,2,2,0,0,1,1.18-.3h.74v-.37a.72.72,0,0,0-.2-.53.83.83,0,0,0-.57-.19.8.8,0,0,0-.53.17.49.49,0,0,0-.21.4h-.65v0a.87.87,0,0,1,.38-.74,1.56,1.56,0,0,1,1-.34,1.52,1.52,0,0,1,1,.32,1.15,1.15,0,0,1,.39.93V59c0,.13,0,.26,0,.38a2.21,2.21,0,0,0,.08.37Zm-1.14-.5a1.19,1.19,0,0,0,.67-.19.9.9,0,0,0,.39-.44V58h-.76a1,1,0,0,0-.66.2.62.62,0,0,0-.25.49.54.54,0,0,0,.15.4A.7.7,0,0,0,61.64,59.23Zm0-3.85v-.54a1,1,0,0,0,.37-.07.17.17,0,0,0,.12-.18.21.21,0,0,0-.15-.2,1.12,1.12,0,0,0-.41-.07l0-.37a1.41,1.41,0,0,1,.78.18.55.55,0,0,1,.27.47.44.44,0,0,1-.15.37.66.66,0,0,1-.37.16v.25Z"/><path d="M101.56,73.11h.69v.53h-.69v1.17h-.68V73.64H98.71v-.38l2.13-3.49h.72Zm-2.12,0h1.44V70.75h0l-.07.18Z"/><path d="M103.09,75.24h-.58l2.1-5.47h.58Z"/><path d="M108.49,73.11h.69v.53h-.69v1.17h-.68V73.64h-2.16v-.38l2.12-3.49h.72Zm-2.11,0h1.43V70.75h0l-.07.18Z"/></svg>