<svg id="Layer_1" data-name="Layer 1" xmlns="http://www.w3.org/2000/svg" viewBox="0 0 62 62"><defs><style>.cls-1{}</style></defs><title>02 ICON</title><path class="cls-1" d="M53.92,24H53.5V19.58a7.09,7.09,0,0,0-7.08-7.08H46V8.08A7.09,7.09,0,0,0,38.92,1H8.08A7.09,7.09,0,0,0,1,8.08V30.92A7.09,7.09,0,0,0,8.08,38H8.5v4.42a7.09,7.09,0,0,0,7.08,7.08H16v4.42A7.09,7.09,0,0,0,23.08,61H53.92A7.09,7.09,0,0,0,61,53.92V31.08A7.09,7.09,0,0,0,53.92,24ZM8.5,19.58V35H8.08A4.08,4.08,0,0,1,4,30.92V8.08A4.08,4.08,0,0,1,8.08,4H38.92A4.08,4.08,0,0,1,43,8.08V12.5H15.58A7.09,7.09,0,0,0,8.5,19.58ZM15.58,46.5a4.08,4.08,0,0,1-4.08-4.08V19.58a4.08,4.08,0,0,1,4.08-4.08H46.42a4.08,4.08,0,0,1,4.08,4.08V24H23.08A7.09,7.09,0,0,0,16,31.08V46.5ZM37,40.79a41.62,41.62,0,0,1,3.16-6.22c3.49-4.34,12.63,1-3.16,8.3ZM34,58H23.08A4.08,4.08,0,0,1,19,53.92V48H31.58c-2.21,1.69-5.11,3.27-8.07,3a1.5,1.5,0,1,0-.28,3c.32,0,.65.05,1,.05C28,54,31.51,52,34,49.92Zm0-15.13c-15.79-7.35-6.65-12.64-3.16-8.3A41.62,41.62,0,0,1,34,40.79Zm0-8.94a9.85,9.85,0,0,0-.82-1.24,7.15,7.15,0,0,0-4-2.51c-3.07-.71-6.05.75-6.92,3.38s.08,6.88,9.24,11.44H19V31.08A4.08,4.08,0,0,1,23.08,27H34Zm24,20A4.08,4.08,0,0,1,53.92,58H37V49.92C39.49,52,43,54,46.8,54c.32,0,.65,0,1-.05a1.5,1.5,0,1,0-.28-3c-3,.28-5.86-1.3-8.07-3H58ZM58,45H39.49c9.16-4.56,10.15-8.69,9.24-11.44s-3.85-4.09-6.92-3.38a7.15,7.15,0,0,0-4,2.51A9.85,9.85,0,0,0,37,33.93V27H53.92A4.08,4.08,0,0,1,58,31.08Z"/></svg>