<svg xmlns="http://www.w3.org/2000/svg" width="60" height="60" viewBox="0 0 60 60">
  <g id="Group_2209" data-name="Group 2209" transform="translate(-734.882 -205.393)">
    <path id="Path_2129" data-name="Path 2129" d="M764.037,223.937h0l-5.6,5.6V214.994a1.555,1.555,0,1,0-3.109,0v14.542l-5.6-5.6h0a1.5,1.5,0,1,0-2.121,2.121l6.048,6.046a4.569,4.569,0,0,0,6.455,0l6.048-6.047a1.5,1.5,0,0,0-2.121-2.121Z"/>
    <path id="Path_2130" data-name="Path 2130" d="M763.507,238.487h-19.25a1.5,1.5,0,0,0,0,3h19.25a1.5,1.5,0,0,0,0-3Z"/>
    <path id="Path_2131" data-name="Path 2131" d="M763.507,245.84h-19.25a1.5,1.5,0,0,0,0,3h19.25a1.5,1.5,0,0,0,0-3Z"/>
    <path id="Path_2132" data-name="Path 2132" d="M763.507,253.192h-19.25a1.5,1.5,0,1,0,0,3h19.25a1.5,1.5,0,1,0,0-3Z"/>
    <path id="Path_2133" data-name="Path 2133" d="M793.252,244.04l-.005-.017a19.85,19.85,0,0,1-8.867,3.167c-.7.07-1.364.1-2.011.124-.375-.018-2.854-.185-3.747-1.841-.147-.875,2.978-2.034,5.444-2.652,2.942-.739,3.494-3.9,3.376-5.469l-1.139-1.8,3.787-8.019c1.214.008,2.312.054,3.184.113a1.5,1.5,0,1,0,.206-3c-.578-.04-1.253-.073-1.98-.1l2.983-6.318a4.1,4.1,0,0,0-1.932-5.479l-1.572-.744a4.1,4.1,0,0,0-5.519,1.913l-2.953,6.251-2.623,5.554c-.338.094-.669.206-1,.315V212.1a6.712,6.712,0,0,0-6.713-6.712H741.595a6.713,6.713,0,0,0-6.713,6.712V258.68a6.714,6.714,0,0,0,6.713,6.713h30.574a6.713,6.713,0,0,0,6.713-6.713v-7.415l.642-1.359a24.552,24.552,0,0,0,3.884.335c.091,0,.165.023.257.023a15.087,15.087,0,0,0,2.5-.226c.04-.006.08-.007.12-.014.185-.032.346-.068.509-.1A25.112,25.112,0,0,0,794.117,247a1.539,1.539,0,0,0,.765-1.322v-.765C794.882,243.091,793.252,244.04,793.252,244.04Zm-15.158-14.521-6.6,13.969c-.478-1.47-.588-4.315,1.757-9.531A9.15,9.15,0,0,1,778.094,229.519Zm-2.212,29.161a3.717,3.717,0,0,1-3.713,3.713H741.595a3.718,3.718,0,0,1-3.713-3.713V212.1a3.717,3.717,0,0,1,3.713-3.712h30.574a3.716,3.716,0,0,1,3.713,3.712V227.3a11.533,11.533,0,0,0-5.365,5.428c-3.156,7.019-2.479,10.9-1.352,12.925a5.781,5.781,0,0,0,.793,1.093l-.817,1.729a2.033,2.033,0,0,0-.171,1.158l-1.236,6.807a2.019,2.019,0,0,0,1.136,1.532l2.151,1.016a2.023,2.023,0,0,0,1.906-.1l2.955-3.49Zm-.177-14.017a2.624,2.624,0,0,0,.177,2.046v3.882l-.285.6-3.768,4.856-1.206-.57,1.357-5.994.428-.9,2.135-4.522,7.606-16.1,3.925-8.31h0l.169-.36.073-.154,1.838-3.891a1.1,1.1,0,0,1,1.544-.519l1.493.705a1.1,1.1,0,0,1,.58,1.523l-1.5,3.174-4.537,9.611-5.246,11.129C778.562,241.656,776.273,242.929,775.705,244.663Z"/>
  </g>
</svg>
