<svg id="Layer_1" data-name="Layer 1" xmlns="http://www.w3.org/2000/svg" viewBox="0 0 61 61"><defs><style>.cls-1{ }</style></defs><title>icon</title><path class="cls-1" d="M36.35,31.5H4.65A4.15,4.15,0,0,0,.5,35.65v20.7A4.15,4.15,0,0,0,4.65,60.5h31.7a4.15,4.15,0,0,0,4.15-4.15V35.65A4.15,4.15,0,0,0,36.35,31.5Zm1.15,13H8A1.45,1.45,0,0,0,6.5,46v.1A1.45,1.45,0,0,0,8,47.5H37.5v8.85a1.14,1.14,0,0,1-1.15,1.15H4.65A1.14,1.14,0,0,1,3.5,56.35V41.5H33a1.5,1.5,0,0,0,0-3H3.5V35.65A1.14,1.14,0,0,1,4.65,34.5h31.7a1.14,1.14,0,0,1,1.15,1.15Z"/><rect class="cls-1" x="6.5" y="50.5" width="9" height="4" rx="1.28"/><path class="cls-1" d="M55.91.5H30.09A4.58,4.58,0,0,0,25.5,5.09V27a1.5,1.5,0,0,0,3,0V5.09A1.59,1.59,0,0,1,30.09,3.5H55.91A1.59,1.59,0,0,1,57.5,5.09V46.91a1.59,1.59,0,0,1-1.59,1.59H45a1.5,1.5,0,0,0,0,3H55.91a4.58,4.58,0,0,0,4.59-4.59V5.09A4.58,4.58,0,0,0,55.91.5Z"/><path class="cls-1" d="M44.44,42.5a.87.87,0,0,0-.94.87V44A1.5,1.5,0,0,0,45,45.5h2A7.5,7.5,0,0,1,54.5,38V14A7.5,7.5,0,0,1,47,6.5H39A7.5,7.5,0,0,1,31.5,14V27a1.5,1.5,0,0,0,3,0V16.56A10.54,10.54,0,0,0,41.56,9.5h2.88a10.54,10.54,0,0,0,7.06,7.06V35.44A10.54,10.54,0,0,0,44.44,42.5Z"/><path class="cls-1" d="M48.5,26A5.5,5.5,0,1,0,43,31.5,5.5,5.5,0,0,0,48.5,26ZM43,28.5A2.5,2.5,0,1,1,45.5,26,2.5,2.5,0,0,1,43,28.5Z"/><path class="cls-1" d="M10,25.11V22.23L8.09,24.12V10.38a2.3,2.3,0,0,1,2.29-2.29h7.74L16.23,10h2.88L22.5,6.59,19.11,3.2H16.23l1.89,1.89H10.38a5.29,5.29,0,0,0-5.29,5.29V24.12L3.2,22.23v2.88L6.59,28.5Z"/></svg>