<svg xmlns="http://www.w3.org/2000/svg" width="60" height="60" viewBox="0 0 60 60">
	<path id="Path_31062" data-name="Path 31062" d="M1083.069,641.559H1077.5V637.49a4.931,4.931,0,0,0-4.931-4.931h-29.138a4.931,4.931,0,0,0-4.931,4.931v4.069h-5.569A4.931,4.931,0,0,0,1028,646.49v41.138a4.931,4.931,0,0,0,4.931,4.931h50.138a4.931,4.931,0,0,0,4.931-4.931V646.49A4.931,4.931,0,0,0,1083.069,641.559ZM1041.5,637.49a1.933,1.933,0,0,1,1.931-1.931h29.138a1.933,1.933,0,0,1,1.931,1.931v4.069h-33Zm-8.569,7.069h50.138A1.933,1.933,0,0,1,1085,646.49v6.6l-21.935,11.7a5.983,5.983,0,0,0-10.2-.035L1031,653.086v-6.6A1.933,1.933,0,0,1,1032.931,644.559Zm28.025,23.356a3,3,0,1,1-3-3A3,3,0,0,1,1060.956,667.915Zm22.113,21.644h-50.138a1.934,1.934,0,0,1-1.931-1.931V656.486l20.968,11.183c0,.082-.012.163-.012.246a6,6,0,0,0,12,0c0-.067-.008-.133-.01-.2L1085,656.486v31.142A1.934,1.934,0,0,1,1083.069,689.559Z" transform="translate(-1028 -632.559)" />
</svg>
