<svg xmlns="http://www.w3.org/2000/svg" width="60" height="60" viewBox="0 0 60 60"><defs><style>.a{fill:#00a859;}</style></defs><path class="a" d="M56.484,34.248V5.391a1.758,1.758,0,0,0-1.758-1.758H45.82V1.758a1.758,1.758,0,1,0-3.516,0V3.633H35.273V1.758a1.758,1.758,0,0,0-3.516,0V3.633H24.727V1.758a1.758,1.758,0,1,0-3.516,0V3.633H14.18V1.758a1.758,1.758,0,1,0-3.516,0V3.633H1.758A1.758,1.758,0,0,0,0,5.391v45.82a1.758,1.758,0,0,0,1.758,1.758H31.032A15.814,15.814,0,1,0,56.484,34.248Zm-45.82-27.1V8.906a1.758,1.758,0,1,0,3.516,0V7.148h7.031V8.906a1.758,1.758,0,1,0,3.516,0V7.148h7.031V8.906a1.758,1.758,0,0,0,3.516,0V7.148H42.3V8.906a1.758,1.758,0,1,0,3.516,0V7.148h7.148V14.18H3.516V7.148Zm-7.148,42.3V17.7H52.969V31.032A15.8,15.8,0,0,0,30.907,35.58a1.748,1.748,0,0,0-.79-.189H26.6a1.758,1.758,0,1,0,0,3.516h2.663a15.686,15.686,0,0,0-.807,3.516H26.6a1.758,1.758,0,1,0,0,3.516h1.856a15.66,15.66,0,0,0,.807,3.516ZM44.18,56.484a12.3,12.3,0,1,1,12.3-12.3A12.319,12.319,0,0,1,44.18,56.484Z"/><path class="a" d="M370.749,309H365.5V303.75a1.75,1.75,0,1,0-3.5,0v7a1.75,1.75,0,0,0,1.75,1.75h7a1.75,1.75,0,0,0,0-3.5Z" transform="translate(-319.498 -266.575)"/><path class="a" d="M96.249,182h-3.5a1.75,1.75,0,1,0,0,3.5h3.5a1.75,1.75,0,1,0,0-3.5Z" transform="translate(-80.329 -160.666)"/><path class="a" d="M96.249,242h-3.5a1.75,1.75,0,1,0,0,3.5h3.5a1.75,1.75,0,1,0,0-3.5Z" transform="translate(-80.329 -213.633)"/><path class="a" d="M96.249,302h-3.5a1.75,1.75,0,0,0,0,3.5h3.5a1.75,1.75,0,1,0,0-3.5Z" transform="translate(-80.329 -266.599)"/><path class="a" d="M213.75,185.5h3.5a1.75,1.75,0,1,0,0-3.5h-3.5a1.75,1.75,0,1,0,0,3.5Z" transform="translate(-187.141 -160.666)"/><path class="a" d="M213.75,245.5h3.5a1.75,1.75,0,1,0,0-3.5h-3.5a1.75,1.75,0,1,0,0,3.5Z" transform="translate(-187.141 -213.633)"/><path class="a" d="M96.249,362h-3.5a1.75,1.75,0,1,0,0,3.5h3.5a1.75,1.75,0,1,0,0-3.5Z" transform="translate(-80.329 -319.566)"/><path class="a" d="M333.75,185.5h3.5a1.75,1.75,0,1,0,0-3.5h-3.5a1.75,1.75,0,1,0,0,3.5Z" transform="translate(-293.07 -160.666)"/></svg>