<svg xmlns="http://www.w3.org/2000/svg" width="182" height="127.001" viewBox="0 0 182 127.001">
  <g id="Group_7866" data-name="Group 7866" transform="translate(-115.999 -111.001)">
    <path id="Subtraction_1" data-name="Subtraction 1" d="M9331.22,18224H9152.781a91.67,91.67,0,0,1-1.78-18,90.577,90.577,0,0,1,15.541-50.879,91.265,91.265,0,0,1,40.037-32.971,90.882,90.882,0,0,1,86.3,8.391,91.279,91.279,0,0,1,32.971,40.037A90.433,90.433,0,0,1,9333,18206a91.71,91.71,0,0,1-1.781,18v0h0Z" transform="translate(-9035.002 -17986)" fill="#f2f2f2"/>
    <g id="Group_7865" data-name="Group 7865" transform="translate(1504.598 122.02)">
      <g id="Group_7862" data-name="Group 7862" transform="translate(-1354.598 -11.019)">
        <path id="Path_6916" data-name="Path 6916" d="M-1288.32,80.2v-82.9a6.648,6.648,0,0,0-6.648-6.648h-51.107a6.65,6.65,0,0,0-6.65,6.648V91.854a6.65,6.65,0,0,0,6.65,6.65h51.107a6.6,6.6,0,0,0,2.587-.523,6.507,6.507,0,0,0,1.13-.612,6.7,6.7,0,0,0,.984-.812,6.63,6.63,0,0,0,1.947-4.7V80.2Z" transform="translate(1355.361 11.701)" fill="#fff"/>
        <path id="Path_6917" data-name="Path 6917" d="M-1320.521-9.343h-25.553a6.65,6.65,0,0,0-6.65,6.648v94.55a6.65,6.65,0,0,0,6.65,6.648h25.553Z" transform="translate(1355.361 11.701)" fill="#fff"/>
        <path id="Path_6918" data-name="Path 6918" d="M-1294.464-11.019h-50.589a9.545,9.545,0,0,0-9.546,9.545V106.069a9.545,9.545,0,0,0,9.546,9.545h50.589a9.545,9.545,0,0,0,9.545-9.545V-1.474A9.545,9.545,0,0,0-1294.464-11.019Zm6.907,103.555a6.649,6.649,0,0,1-6.648,6.65h-51.106a6.65,6.65,0,0,1-6.65-6.65V-2.013a6.649,6.649,0,0,1,6.65-6.648h6.453a1.2,1.2,0,0,1,1.2,1.195v.73a3.375,3.375,0,0,0,3.374,3.374h29.061a3.375,3.375,0,0,0,3.374-3.374v-.73a1.194,1.194,0,0,1,1.195-1.195h6.454a6.647,6.647,0,0,1,6.648,6.648Z" transform="translate(1354.598 11.019)" fill="#00a859"/>
        <g id="Group_7861" data-name="Group 7861" transform="translate(25.271 3.944)">
          <path id="Path_6919" data-name="Path 6919" d="M-1324.95-6.205h-10.831a.856.856,0,0,1-.857-.855h0a.856.856,0,0,1,.857-.855h10.831a.855.855,0,0,1,.855.855h0A.855.855,0,0,1-1324.95-6.205Z" transform="translate(1336.638 8.338)" fill="#fff"/>
          <path id="Path_6920" data-name="Path 6920" d="M-1322.3-6.938a1.277,1.277,0,0,1-1.278,1.278,1.278,1.278,0,0,1-1.278-1.278,1.278,1.278,0,0,1,1.278-1.278A1.278,1.278,0,0,1-1322.3-6.938Z" transform="translate(1341.435 8.216)" fill="#fff"/>
        </g>
        <circle id="Ellipse_420" data-name="Ellipse 420" cx="5.628" cy="5.628" r="5.628" transform="translate(29.211 112.791)" fill="#fff"/>
        <circle id="Ellipse_421" data-name="Ellipse 421" cx="4.221" cy="4.221" r="4.221" transform="translate(30.618 114.198)" fill="#dedee6"/>
      </g>
      <g id="Group_7864" data-name="Group 7864" transform="translate(-1319.306 8.919)">
        <path id="Path_6921" data-name="Path 6921" d="M-1286.962,72.536a46.139,46.139,0,0,1-16.407-2.94,25.891,25.891,0,0,1-12.454,2.934,32.69,32.69,0,0,1-7.287-.825,3.689,3.689,0,0,1-2.838-3.311,3.7,3.7,0,0,1,2.294-3.726,15.351,15.351,0,0,0,5.818-4.481,28.176,28.176,0,0,1-8.125-19.429c0-17.522,17.5-31.778,39-31.778s39,14.255,39,31.778S-1265.458,72.536-1286.962,72.536Z" transform="translate(1325.962 -8.981)" fill="#00a859"/>
        <path id="Path_6922" data-name="Path 6922" d="M-1287.578,11.253c-19.944,0-36.111,12.935-36.111,28.89,0,7.337,3.426,14.03,9.058,19.125a19.651,19.651,0,0,1-8.546,7.458.816.816,0,0,0,.114,1.551c3.853.909,12.034,1.79,18.837-2.5a43.331,43.331,0,0,0,16.647,3.255c19.944,0,36.111-12.933,36.111-28.888S-1267.635,11.253-1287.578,11.253Z" transform="translate(1326.578 -8.365)" fill="#fff"/>
        <path id="Path_6923" data-name="Path 6923" d="M-1258.415,23.112c-6.568-7.187-17.182-11.859-29.163-11.859-19.944,0-36.111,12.935-36.111,28.89a23.734,23.734,0,0,0,2.306,10.138,42.6,42.6,0,0,0,23.4,6.853C-1276.631,57.133-1259.239,42.025-1258.415,23.112Z" transform="translate(1326.578 -8.365)" fill="#f2f2f2"/>
        <g id="Group_7863" data-name="Group 7863" transform="translate(8.667 27.444)">
          <circle id="Ellipse_422" data-name="Ellipse 422" cx="4.333" cy="4.333" r="4.333" fill="#00a859"/>
          <circle id="Ellipse_423" data-name="Ellipse 423" cx="4.333" cy="4.333" r="4.333" transform="translate(17.333)" fill="#00a859"/>
          <circle id="Ellipse_424" data-name="Ellipse 424" cx="4.333" cy="4.333" r="4.333" transform="translate(34.667)" fill="#00a859"/>
          <circle id="Ellipse_425" data-name="Ellipse 425" cx="4.333" cy="4.333" r="4.333" transform="translate(52)" fill="#00a859"/>
        </g>
      </g>
    </g>
  </g>
</svg>
