<svg xmlns="http://www.w3.org/2000/svg" width="60" height="60" viewBox="0 0 60 60">
  <g id="Group_12473" data-name="Group 12473" transform="translate(-828 -432.398)">
    <path id="Path_30838" data-name="Path 30838" d="M850.876,473.345a9.452,9.452,0,0,0-5.848-16.867h-.2a9.434,9.434,0,0,0-5.7,16.868c-6.329,2.125-10.962,7.636-11.126,14.146v1.784l.02.176a3.361,3.361,0,0,0,3.421,2.947H858.56a3.347,3.347,0,0,0,3.423-2.985l.017-.158v-1.84C861.835,480.964,857.205,475.467,850.876,473.345Zm-12.339-7.583a6.429,6.429,0,0,1,6.343-6.285h.125a6.461,6.461,0,0,1,.176,12.92h-.358a6.466,6.466,0,0,1-6.286-6.636ZM859,489.1c-.008.075-.067.3-.441.3H831.441c-.373,0-.432-.225-.441-.3V487.49c.169-6.666,6.382-12.091,13.849-12.092h.3c7.467,0,13.679,5.426,13.848,12.092Z"/>
    <path id="Path_30839" data-name="Path 30839" d="M846.456,453.568a12.381,12.381,0,0,1,2.165.44,1,1,0,0,0,.855-.133,14.825,14.825,0,0,1,8.373-2.556h.3a14.82,14.82,0,0,1,8.381,2.562,1,1,0,0,0,.856.132,12.473,12.473,0,0,1,2.172-.451.5.5,0,0,0,.268-.875,17.322,17.322,0,0,0-5.953-3.421,9.452,9.452,0,0,0-5.848-16.867h-.2a9.434,9.434,0,0,0-5.7,16.868,17.3,17.3,0,0,0-5.944,3.421A.5.5,0,0,0,846.456,453.568Zm5.081-11.885a6.429,6.429,0,0,1,6.343-6.285,6.568,6.568,0,0,1,6.429,5.024,6.47,6.47,0,0,1-6.128,7.9h-.358a6.466,6.466,0,0,1-6.286-6.636Z"/>
    <path id="Path_30840" data-name="Path 30840" d="M888,487.414c-.163-6.45-4.794-11.947-11.123-14.069a9.452,9.452,0,0,0-5.848-16.867h-.2a9.434,9.434,0,0,0-5.7,16.868,17.436,17.436,0,0,0-3.962,1.919.982.982,0,0,0-.245,1.437q.213.261.417.529a1.332,1.332,0,0,0,1.757.325,14.87,14.87,0,0,1,7.756-2.157h.3c7.467,0,13.68,5.426,13.848,12.092V489.1c-.008.075-.067.3-.441.3H865l-.034.33a6.186,6.186,0,0,1-.26,1.241,1.078,1.078,0,0,0,1.011,1.429H884.56a3.347,3.347,0,0,0,3.423-2.985l.017-.158ZM871.181,472.4h-.358a6.462,6.462,0,0,1,.057-12.921,6.569,6.569,0,0,1,6.429,5.024,6.47,6.47,0,0,1-6.128,7.9Z"/>
  </g>
</svg>
