<svg xmlns="http://www.w3.org/2000/svg" width="35" height="35" viewBox="0 0 35 35"><defs><style>.a{fill:#00a859;}</style></defs><path class="a" d="M34.574,16.6l-7.846-5.836V1.025A1.025,1.025,0,0,0,25.7,0H9.3A1.025,1.025,0,0,0,8.271,1.025v9.739L.426,16.6A1.038,1.038,0,0,0,0,17.432V33.975A1.025,1.025,0,0,0,1.025,35H33.975A1.025,1.025,0,0,0,35,33.975V17.432A1.04,1.04,0,0,0,34.574,16.6Zm-7.846-3.28,5.53,4.113-5.53,4.13ZM10.322,2.051H24.678V23.1L17.5,28.457,10.322,23.1ZM8.271,13.32v8.244l-5.53-4.13ZM32.949,32.949H2.051V19.477L16.886,30.558a1.025,1.025,0,0,0,1.227,0L32.949,19.477Z"/><path class="a" d="M215.1,133.339v-1.2a3.078,3.078,0,0,0-1.026-5.98,1.026,1.026,0,1,1,.726-1.752,1.026,1.026,0,0,0,1.451-1.451,3.067,3.067,0,0,0-1.151-.727v-1.2a1.026,1.026,0,1,0-2.052,0v1.2a3.078,3.078,0,0,0,1.026,5.98,1.026,1.026,0,1,1-.726,1.752,1.026,1.026,0,0,0-1.451,1.451,3.068,3.068,0,0,0,1.151.727v1.2a1.026,1.026,0,0,0,2.052,0Z" transform="translate(-196.578 -111.801)"/></svg>