<svg xmlns="http://www.w3.org/2000/svg" width="60" height="60" viewBox="0 0 60 60"><defs><style>.a{fill:#00a859;}</style></defs><path class="a" d="M59.27,28.457l-13.45-10V1.758A1.758,1.758,0,0,0,44.062,0H15.938A1.758,1.758,0,0,0,14.18,1.758V18.453l-13.45,10A1.78,1.78,0,0,0,0,29.883V58.242A1.758,1.758,0,0,0,1.758,60H58.242A1.758,1.758,0,0,0,60,58.242V29.883A1.783,1.783,0,0,0,59.27,28.457ZM45.82,22.834l9.48,7.052-9.48,7.081ZM17.7,3.516H42.3V39.592L30,48.783l-12.3-9.19ZM14.18,22.834V36.967L4.7,29.886Zm42.3,33.65H3.516V33.39l25.433,19a1.758,1.758,0,0,0,2.1,0l25.433-19Z"/><path class="a" d="M218.038,142.874v-2.062a5.278,5.278,0,0,0-1.76-10.255,1.76,1.76,0,1,1,1.244-3,1.76,1.76,0,1,0,2.488-2.488,5.26,5.26,0,0,0-1.973-1.247V121.76a1.76,1.76,0,1,0-3.519,0v2.062a5.278,5.278,0,0,0,1.76,10.255,1.76,1.76,0,1,1-1.244,3,1.76,1.76,0,0,0-2.488,2.488,5.26,5.26,0,0,0,1.973,1.247v2.059a1.76,1.76,0,1,0,3.519,0Z" transform="translate(-186.279 -105.947)"/></svg>
