<svg xmlns="http://www.w3.org/2000/svg" width="60" height="60" viewBox="0 0 60 60">
  <g id="Group_12477" data-name="Group 12477" transform="translate(-1028 -432.398)">
    <path id="Path_30858" data-name="Path 30858" d="M1082,447.4v-8.916a6.1,6.1,0,0,0-6.089-6.088h-35.823a6.1,6.1,0,0,0-6.088,6.088V447.4a6.093,6.093,0,0,0-6,6.084V471.31a6.092,6.092,0,0,0,6,6.083v8.917a6.1,6.1,0,0,0,6.088,6.088h35.823A6.1,6.1,0,0,0,1082,486.31v-8.917a6.092,6.092,0,0,0,6-6.083V453.486A6.094,6.094,0,0,0,1082,447.4Zm-41.912-12h35.823a3.088,3.088,0,0,1,3.089,3.088V447.4h-42v-8.912A3.087,3.087,0,0,1,1040.088,435.4ZM1079,486.31a3.089,3.089,0,0,1-3.089,3.088h-35.823A3.088,3.088,0,0,1,1037,486.31V468.486a3.087,3.087,0,0,1,3.088-3.088h35.823a3.088,3.088,0,0,1,3.089,3.088Zm6-15a3.083,3.083,0,0,1-3,3.079v-5.9a6.1,6.1,0,0,0-6.089-6.088h-35.823a6.1,6.1,0,0,0-6.088,6.088v5.9a3.083,3.083,0,0,1-3-3.079V453.486a3.087,3.087,0,0,1,3.088-3.088h47.823a3.088,3.088,0,0,1,3.089,3.088Z"/>
    <circle id="Ellipse_888" data-name="Ellipse 888" cx="2" cy="2" r="2" transform="translate(1071 454.398)"/>
    <circle id="Ellipse_889" data-name="Ellipse 889" cx="2" cy="2" r="2" transform="translate(1078 454.398)"/>
  </g>
</svg>
