<svg xmlns="http://www.w3.org/2000/svg" width="60" height="60.05" viewBox="0 0 60 60.05">
  <path id="Path_30846" data-name="Path 30846" d="M1186.594,242.332l-27.892-9.844a2.1,2.1,0,0,0-1.4,0l-27.893,9.844A2.108,2.108,0,0,0,1128,244.32v35.012a5.045,5.045,0,0,0,3.361,4.75l21.427,7.562a17.925,17.925,0,0,0,10.424,0c.251-.078.466-.156.663-.234l20.765-7.328a5.045,5.045,0,0,0,3.36-4.75V244.319A2.108,2.108,0,0,0,1186.594,242.332Zm-29.3-6.663a2.113,2.113,0,0,1,1.4,0l24.206,8.543a.222.222,0,0,1,0,.418l-3.955,1.4a.65.65,0,0,1-.435,0l-25.283-8.923Zm11.13,29.561V252.922l7.921-2.8v12.006a.427.427,0,0,1-.285.4Zm-19.7-26.536,25.5,9-5.521,1.948-25.5-9Zm7.772,33.172v14.922a2.112,2.112,0,0,1-2.815,1.991l-19.92-7.03a4.145,4.145,0,0,1-2.765-3.908v-27.9s0-2.864,4.451-1.295l19.643,6.933a2.109,2.109,0,0,1,1.406,1.988Zm.8-18.692-24.206-8.544a.222.222,0,0,1,0-.418l5.608-1.979,25.5,9-5.5,1.941A2.113,2.113,0,0,1,1157.3,253.174Zm22.051-4.106,1.2-.424c4.446-1.569,4.45,1.295,4.45,1.295v28.927a2.7,2.7,0,0,1-1.8,2.542l-20.818,7.347a2.163,2.163,0,0,1-2.883-2.039V257.565a2.109,2.109,0,0,1,1.406-1.988l4.522-1.6V269.47l13.921-4.913Z" transform="translate(-1128 -232.367)"/>
</svg>
