<svg id="Layer_1" data-name="Layer 1" xmlns="http://www.w3.org/2000/svg" viewBox="0 0 65 65"><defs><style>.cls-1{}</style></defs><title>loi nhuan hang hoa</title><path class="cls-1" d="M15.87,45A12.5,12.5,0,1,0,3.37,32.5,12.51,12.51,0,0,0,15.87,45Zm.06-7.07a2.09,2.09,0,0,0,1.53-.61,2,2,0,0,0,.63-1.52,1.78,1.78,0,0,0-.73-1.51,4.27,4.27,0,0,0-.87-.49c-.28-.11-.65-.23-1.09-.37a10.62,10.62,0,0,1-1.54-.54,5.42,5.42,0,0,1-1.37-.79,4,4,0,0,1-1.39-3.21,4.4,4.4,0,0,1,1.44-3.35,4.75,4.75,0,0,1,1.83-1.05V24a1.5,1.5,0,0,1,3,0v.42a4.48,4.48,0,0,1,3.24,3.77,1.5,1.5,0,0,1-1.5,1.5,1.54,1.54,0,0,1-1.5-1.5,2,2,0,0,0-3-.62,1.46,1.46,0,0,0-.53,1.26,1.35,1.35,0,0,0,.78,1.27,5.75,5.75,0,0,0,1,.4l1.14.34a6.35,6.35,0,0,1,2.9,1.69,4.63,4.63,0,0,1,1.19,3.22,4.79,4.79,0,0,1-1.53,3.57,5,5,0,0,1-2.15,1.22V41a1.5,1.5,0,0,1-3,0v-.47a4.84,4.84,0,0,1-2.14-1.17,4.94,4.94,0,0,1-1.52-3.66v-.26a1.5,1.5,0,0,1,3,0V36A1.92,1.92,0,0,0,15.93,37.93Z"/><path class="cls-1" d="M4.87,15.91A1.47,1.47,0,0,0,6,15.43C11.79,9.21,21.66,5.5,32.37,5.5c8.21,0,16,2.2,21.83,6.09l-4.69.2,3.18,2.92,7.19-.3-.31-7.19L56.39,4.3l.23,5.32C50.21,5.08,41.51,2.5,32.37,2.5,20.84,2.5,10.15,6.57,3.78,13.38a1.51,1.51,0,0,0,1.09,2.53Z"/><path class="cls-1" d="M57.28,49.57c-5.82,6.22-15.69,9.93-26.41,9.93-8.2,0-16-2.2-21.82-6.09l4.69-.2-3.18-2.92-7.18.3.3,7.19L6.86,60.7l-.23-5.32C13,59.92,21.74,62.5,30.87,62.5c11.54,0,22.23-4.07,28.6-10.88a1.5,1.5,0,0,0-2.19-2Z"/><path class="cls-1" d="M60.8,26.06l-4.14-4.85A3.46,3.46,0,0,0,54,20H44.22a3.46,3.46,0,0,0-2.63,1.21l-4.14,4.85a3.47,3.47,0,0,0-.82,2.24V41.55A3.45,3.45,0,0,0,40.08,45H58.17a3.46,3.46,0,0,0,3.46-3.45V28.3A3.48,3.48,0,0,0,60.8,26.06ZM40.39,27.15l3.16-3.95A.53.53,0,0,1,44,23H54.29a.53.53,0,0,1,.41.2l3.16,3.95a.52.52,0,0,1-.41.85H40.8A.52.52,0,0,1,40.39,27.15Zm18.24,5.59v7.78A1.37,1.37,0,0,1,57.41,42H40.84a1.36,1.36,0,0,1-1.21-1.48V31.84a.77.77,0,0,1,.68-.84H57.94a.78.78,0,0,1,.69.84Z"/></svg>