<svg xmlns="http://www.w3.org/2000/svg" width="60" height="60" viewBox="0 0 60 60">
  <g id="Group_12474" data-name="Group 12474" transform="translate(-1128 -332.395)">
    <path id="Path_30842" data-name="Path 30842" d="M1151.719,361.11a5,5,0,1,0-5-5A5,5,0,0,0,1151.719,361.11Zm0-6.993a2,2,0,1,1-2,2A2,2,0,0,1,1151.719,354.117Z"/>
    <path id="Path_30843" data-name="Path 30843" d="M1164.282,363.68a5,5,0,1,0,5,5A5,5,0,0,0,1164.282,363.68Zm0,6.993a2,2,0,1,1,2-2A2,2,0,0,1,1164.282,370.673Z"/>
    <path id="Path_30844" data-name="Path 30844" d="M1166.839,351.435l-19.8,19.8a1.5,1.5,0,0,0,2.121,2.121l19.8-19.8a1.5,1.5,0,1,0-2.121-2.122Z"/>
    <path id="Path_30845" data-name="Path 30845" d="M1188,362.395a8.988,8.988,0,0,0-2.315-5.784,3.769,3.769,0,0,1-.817-3.049,8.383,8.383,0,0,0-5.785-10.019,3.769,3.769,0,0,1-2.231-2.231,8.981,8.981,0,0,0-3.852-4.9,8.258,8.258,0,0,0-4.192-1.067,11.489,11.489,0,0,0-1.975.179,3.7,3.7,0,0,1-.637.055,3.766,3.766,0,0,1-2.411-.872,8.386,8.386,0,0,0-11.57,0,3.766,3.766,0,0,1-2.411.872,3.688,3.688,0,0,1-.637-.055,11.489,11.489,0,0,0-1.975-.179,8.256,8.256,0,0,0-4.192,1.067,8.981,8.981,0,0,0-3.852,4.9,3.768,3.768,0,0,1-2.232,2.231,8.384,8.384,0,0,0-5.784,10.019,3.769,3.769,0,0,1-.817,3.049,8.385,8.385,0,0,0,0,11.569,3.767,3.767,0,0,1,.817,3.048,8.384,8.384,0,0,0,5.784,10.019,3.77,3.77,0,0,1,2.232,2.232,8.981,8.981,0,0,0,3.852,4.9,8.268,8.268,0,0,0,4.192,1.066,11.392,11.392,0,0,0,1.975-.179,3.7,3.7,0,0,1,.637-.055,3.772,3.772,0,0,1,2.411.872,8.384,8.384,0,0,0,11.569,0,3.777,3.777,0,0,1,2.412-.872,3.7,3.7,0,0,1,.637.055,11.383,11.383,0,0,0,1.975.179,8.268,8.268,0,0,0,4.192-1.066,8.981,8.981,0,0,0,3.852-4.9,3.77,3.77,0,0,1,2.232-2.232,8.384,8.384,0,0,0,5.784-10.019,3.767,3.767,0,0,1,.817-3.048A8.988,8.988,0,0,0,1188,362.395Zm-4.615,3.859a6.727,6.727,0,0,0-1.472,5.492,5.415,5.415,0,0,1-3.858,6.683,6.731,6.731,0,0,0-4.021,4.021,6.054,6.054,0,0,1-2.534,3.328,5.312,5.312,0,0,1-2.692.664,8.466,8.466,0,0,1-1.457-.134,6.759,6.759,0,0,0-5.492,1.472,5.418,5.418,0,0,1-7.718,0,6.759,6.759,0,0,0-5.492-1.472,8.474,8.474,0,0,1-1.457.134,5.312,5.312,0,0,1-2.692-.664,6.05,6.05,0,0,1-2.534-3.328,6.731,6.731,0,0,0-4.021-4.021,5.415,5.415,0,0,1-3.858-6.683,6.727,6.727,0,0,0-1.472-5.492,5.417,5.417,0,0,1,0-7.717,6.73,6.73,0,0,0,1.472-5.493,5.415,5.415,0,0,1,3.859-6.683,6.73,6.73,0,0,0,4.02-4.02,6.05,6.05,0,0,1,2.534-3.328,5.312,5.312,0,0,1,2.692-.665,8.474,8.474,0,0,1,1.457.134,6.662,6.662,0,0,0,1.155.1,6.765,6.765,0,0,0,4.337-1.571,5.416,5.416,0,0,1,7.718,0,6.765,6.765,0,0,0,4.337,1.571,6.662,6.662,0,0,0,1.155-.1,8.466,8.466,0,0,1,1.457-.134,5.312,5.312,0,0,1,2.692.665,6.054,6.054,0,0,1,2.534,3.328,6.73,6.73,0,0,0,4.02,4.02,5.415,5.415,0,0,1,3.859,6.683,6.73,6.73,0,0,0,1.472,5.493,5.417,5.417,0,0,1,0,7.717Z"/>
  </g>
</svg>
