<svg xmlns="http://www.w3.org/2000/svg" width="56.525" height="64.314" viewBox="0 0 56.525 64.314">
  <g id="Group_14822" data-name="Group 14822" transform="translate(-31.006)">
    <path id="Path_7080" data-name="Path 7080" d="M87.531,15.073H64.416l6.036-5.1a5.653,5.653,0,1,0-9.036-6.027L59.268,10.72,57.121,3.944a5.653,5.653,0,1,0-9.037,6.027l6.036,5.1H31.006V52.756h22.61V64.314l5.652-5.652,5.652,5.652V52.756h22.61ZM83.762,22.61H64.921V18.841H83.762ZM65.008,5.082A1.885,1.885,0,1,1,68.02,7.093l-4.984,4.213Zm-15.161.571a1.885,1.885,0,0,1,3.681-.57L55.5,11.306,50.517,7.093a1.883,1.883,0,0,1-.669-1.44Zm3.768,13.189V22.61H34.774V18.841ZM34.774,48.988V26.378H53.616v22.61Zm24.494,4.344-1.884,1.884v-34.2l1.884-1.593,1.884,1.593v34.2Zm5.652-4.344V26.378H83.762v22.61Z"/>
    <path id="Path_7081" data-name="Path 7081" d="M331,329.992h11.3v3.768H331Z" transform="translate(-262.31 -288.541)"/>
  </g>
</svg>
