<svg xmlns="http://www.w3.org/2000/svg" width="60" height="60" viewBox="0 0 60 60">
	<g id="Group_12495" data-name="Group 12495" transform="translate(-1028 -32.387)">
		<path id="Path_30935" data-name="Path 30935" d="M1081.5,32.387a6.5,6.5,0,1,0,6.5,6.5A6.508,6.508,0,0,0,1081.5,32.387Zm0,10a3.5,3.5,0,1,1,3.5-3.5A3.5,3.5,0,0,1,1081.5,42.387Z" />
		<path id="Path_30936" data-name="Path 30936" d="M1078.852,75.522c-.248-4.877-.156-12.152.816-13.728l-.02-.013a3.784,3.784,0,0,0,.217-.541l1.467-5.3h0l1.193-4.158c.518-1.23.58-4.131-2.88-6.293-2.362-1.476-4.411-1.816-6.088-1.019a3.824,3.824,0,0,0-.512.312,1.359,1.359,0,0,0-.243,1.765c.617,1.059,2.04.632,2.04.632.676-.319,1.82-.018,3.213.853,2.064,1.291,1.732,2.5,1.644,2.762l-.941,3.251c-.008.022-.025.038-.031.06l-1.68,6.066a.78.78,0,0,1-.3.441,51.733,51.733,0,0,1-5.82,3.742c-1.644.777-3.656,1.08-4.488.674a.577.577,0,0,1-.344-.461c-.31-1.428.393-1.922.594-2.039l7.782-4.621a.828.828,0,0,0,.386-.536l1.359-6.3a.826.826,0,0,0-.633-.982l-1.318-.284a.826.826,0,0,0-.982.633l-1.083,5.026a.826.826,0,0,1-.385.536l-3.747,2.227,3.071-8.2a4.481,4.481,0,0,0-2.621-5.763L1056.3,39.69a4.447,4.447,0,0,0-.726-.192,9.686,9.686,0,0,0-9.31-7.111h-8.53A9.747,9.747,0,0,0,1028,42.123V90.887a1.5,1.5,0,0,0,3,0V86.653a9.686,9.686,0,0,0,6.734,2.734h8.53A9.687,9.687,0,0,0,1053,86.653v4.234a1.5,1.5,0,0,0,3,0V63.071l4.8,1.8a4.423,4.423,0,0,0,1.526.267c-1.285,3.248-3.491,9.178-3.491,11.633,0,.346-.007.8-.017,1.32-.1,5.6-.029,11.239,2.066,13.374a2.951,2.951,0,0,0,2.133.923l1.361,0c.018,0,.053,0,.1,0a3.83,3.83,0,0,0,2.6-1.033,4.229,4.229,0,0,0,1.17-3.264c-.053-2.619-.838-9.464-1.03-11.1.331-.952,1.361-3.857,2.422-6.35.039,2.349.114,4.985.262,6.4.264,2.535,5.869,15.345,9.719,15.345h1.443a4.425,4.425,0,0,0,3.348-1.517,3.43,3.43,0,0,0,.369-3.2C1083.809,84.589,1079.749,77.147,1078.852,75.522ZM1031,42.123a6.743,6.743,0,0,1,6.734-6.736h8.53a6.689,6.689,0,0,1,6.327,4.586,4.429,4.429,0,0,0-2.053,2.336l-1.594,4.255H1031Zm22,36.029v1.5a6.742,6.742,0,0,1-6.736,6.735h-8.53A6.742,6.742,0,0,1,1031,79.652V69.21h22Zm0-11.942h-22V49.564h16.819l-1.86,4.964a4.481,4.481,0,0,0,2.621,5.763l4.42,1.656Zm8.851-4.151-12.219-4.578a1.474,1.474,0,0,1-.863-1.9l4.578-12.219a1.476,1.476,0,0,1,1.9-.865l12.218,4.579a1.477,1.477,0,0,1,.865,1.9l-4.579,12.217A1.474,1.474,0,0,1,1061.851,62.059Zm2.417,14.287-.109.323.039.337c.01.083.992,8.372,1.049,11.147a1.523,1.523,0,0,1-.25,1.039.858.858,0,0,1-.545.195l-1.381.016c-.539-.322-1.422-2.213-1.256-11.256.012-.549.019-1.017.019-1.377,0-1.511,1.431-5.726,2.817-9.343a3.668,3.668,0,0,0,.465.294,5.357,5.357,0,0,0,2.32.486C1065.913,71.517,1064.35,76.105,1064.268,76.346ZM1081.989,89.1a1.6,1.6,0,0,1-.934.289l-1.25.028c-1.64-.678-6.621-9.805-6.92-12.684-.226-2.166-.274-7.682-.284-9.866a38.389,38.389,0,0,0,3.385-2.069,81.567,81.567,0,0,0-.112,11.232l.019.346.168.3c.049.088,4.879,8.79,5.857,11.9A.992.992,0,0,1,1081.989,89.1Z" />
	</g>
</svg>
