<svg xmlns="http://www.w3.org/2000/svg" width="60" height="60" viewBox="0 0 60 60">
  <g id="Group_12488" data-name="Group 12488" transform="translate(-1628 -132.39)">
    <path id="Path_30897" data-name="Path 30897" d="M1644.6,156.658a1.5,1.5,0,0,0,1.5,1.5h15a1.5,1.5,0,0,0,0-3h-15A1.5,1.5,0,0,0,1644.6,156.658Z" />
    <circle id="Ellipse_891" data-name="Ellipse 891" cx="1.5" cy="1.5" r="1.5" transform="translate(1639.601 155.158)" />
    <path id="Path_30898" data-name="Path 30898" d="M1661.1,163.511h-15a1.5,1.5,0,0,0,0,3h15a1.5,1.5,0,0,0,0-3Z" />
    <circle id="Ellipse_892" data-name="Ellipse 892" cx="1.5" cy="1.5" r="1.5" transform="translate(1639.601 163.511)" />
    <path id="Path_30899" data-name="Path 30899" d="M1661.1,171.864h-15a1.5,1.5,0,0,0,0,3h15a1.5,1.5,0,0,0,0-3Z" />
    <circle id="Ellipse_893" data-name="Ellipse 893" cx="1.5" cy="1.5" r="1.5" transform="translate(1639.601 171.864)" />
    <path id="Path_30900" data-name="Path 30900" d="M1679.155,141.3a11.3,11.3,0,0,0,.064-1.5v-.9a6.522,6.522,0,0,0-6.5-6.51H1639.5a6.526,6.526,0,0,0-6.5,6.51v43.084h-3.566a1.434,1.434,0,0,0-1.434,1.434v2.472s-.064,6.5,3.185,6.5H1662.7a6.523,6.523,0,0,0,6.5-6.51V142.8h8.2A1.793,1.793,0,0,0,1679.155,141.3Zm-47.116,48.093c-1.039-.619-1.037-2.214-1.039-3.505v-.9h25.189v.9c0,1.291-.039,2.71,1.039,3.505Zm34.177-51.076h0v1.763h-.009v45.8a3.507,3.507,0,1,1-7.013,0v-1.891a1.965,1.965,0,0,0-2.006-2.005H1636V138.9a3.519,3.519,0,0,1,3.507-3.51h27.738A3.384,3.384,0,0,0,1666.216,138.314Zm10,1.483h-7.013v-.9a3.506,3.506,0,1,1,7.013,0Z" />
    <path id="Path_30901" data-name="Path 30901" d="M1641.1,142.39h13a1.5,1.5,0,0,0,0-3h-13a1.5,1.5,0,0,0,0,3Z" />
    <path id="Path_30902" data-name="Path 30902" d="M1641.1,148.39h13a1.5,1.5,0,0,0,0-3h-13a1.5,1.5,0,0,0,0,3Z" />
    <path id="Path_30903" data-name="Path 30903" d="M1686.5,154.594h-4.278v-2.913a4.1,4.1,0,0,0-4.174-4.088l-1.738,0a4.1,4.1,0,0,0-4.088,4.129v31.164a2.026,2.026,0,0,0,.339,1.122l1.789,2.683a2.021,2.021,0,0,0,1.682.9h2.379a2.021,2.021,0,0,0,1.682-.9l1.789-2.683a2.016,2.016,0,0,0,.34-1.121v-25.3H1685v11.5a1.5,1.5,0,1,0,3,0v-13A1.5,1.5,0,0,0,1686.5,154.594Zm-11.277-2.871a1.1,1.1,0,0,1,1.174-1.129h1.651a1.1,1.1,0,0,1,1.174,1.129v.871a2,2,0,0,1-2,2h0a2,2,0,0,1-2-2Zm4,30.871-1.333,2h-1.333l-1.333-2v-1h4Zm-2-4h0a2,2,0,0,1-2-2v-17a2,2,0,0,1,4,0v17A2,2,0,0,1,1677.223,178.594Z" />
  </g>
</svg>
