<svg xmlns="http://www.w3.org/2000/svg" width="60" height="60" viewBox="0 0 60 60">
  <g id="Group_12508" data-name="Group 12508" transform="translate(-928 -132.39)">
    <path id="Path_30985" data-name="Path 30985" d="M982.606,160.718a1.487,1.487,0,0,0-2.092.006l-13.6,13.538a1.5,1.5,0,0,1-2.1-.006c-1.644-1.635-2.846-2.816-3.74-3.668a1.482,1.482,0,0,0-2.072.025l-.029.029a1.485,1.485,0,0,0,.017,2.125c1.518,1.455,3.754,3.656,5.816,5.718l.009.009a1.487,1.487,0,0,0,2.1,0l15.719-15.645a1.487,1.487,0,0,0,0-2.112Z"/>
    <path id="Path_30986" data-name="Path 30986" d="M945.548,182.564s-1.31-1.111-2.039-1.822c-.008-.008-.01-.013-.018-.02A38.51,38.51,0,0,1,933.136,163.3a54.476,54.476,0,0,1-2.129-14.731,2.308,2.308,0,0,1,1.937-2.3c10-1.675,20.964-7.867,25.056-10.345,4.092,2.479,15.063,8.673,25.061,10.346A2.31,2.31,0,0,1,985,148.569c-.01,1.172-.072,2.554-.2,4.061h0l-.009.056c-.013.156-.025.311-.04.47a3.488,3.488,0,0,0,.023.606c.1.763.9,2.032,2.352.824a3.13,3.13,0,0,0,.69-1.939,56.607,56.607,0,0,0,.126-6.85,2.319,2.319,0,0,0-2.139-2.2C973.587,142.544,958,132.39,958,132.39s-15.588,10.154-27.81,11.213a2.319,2.319,0,0,0-2.139,2.2c-.293,6.442.186,26.195,15.269,38.782a2.551,2.551,0,0,0,.988.511c1.342.154,1.773-.538,1.9-1.146C946.4,183.182,945.548,182.564,945.548,182.564Z"/>
    <path id="Path_30987" data-name="Path 30987" d="M985.223,166.121a2.359,2.359,0,0,0-1.854.348l-.411.41-.2.2a1.757,1.757,0,0,0-.364.613l-.005.02a.825.825,0,0,0,.288.808c.021.014.046.027.069.041a.945.945,0,0,0,.31.143,2.654,2.654,0,0,0,.307.081c.348.077.72.157,1.1.233a1.668,1.668,0,0,1,.536.183v3.383a1.637,1.637,0,0,1-.536.184c-1.517.3-2.947.675-2.978.684a4.685,4.685,0,0,0-1.568.745l-.4.29-.147.467a13.5,13.5,0,0,1-.892,2.136l-.221.426.068.475a4.949,4.949,0,0,0,.56,1.664c.031.053.778,1.329,1.637,2.614a1.689,1.689,0,0,1,.249.509l-2.392,2.392a1.587,1.587,0,0,1-.508-.248c-1.287-.86-2.562-1.607-2.628-1.645a4.949,4.949,0,0,0-1.65-.553l-.475-.068-.427.221a13.454,13.454,0,0,1-2.136.892l-.467.147-.29.394a4.674,4.674,0,0,0-.738,1.54c-.016.06-.39,1.49-.691,3.008a1.628,1.628,0,0,1-.184.535h-3.383a1.611,1.611,0,0,1-.183-.536c-.3-1.517-.676-2.947-.684-2.975a4.688,4.688,0,0,0-.746-1.572l-.29-.394-.467-.147a13.4,13.4,0,0,1-2.134-.891l-.426-.222-.477.068a4.969,4.969,0,0,0-1.663.56c-.054.031-1.329.778-2.614,1.638a1.637,1.637,0,0,1-.51.248l-2.392-2.392a1.69,1.69,0,0,1,.249-.509c.86-1.285,1.606-2.561,1.644-2.625a4.984,4.984,0,0,0,.554-1.653l.067-.475-.221-.426a13.386,13.386,0,0,1-.891-2.136l-.148-.467-.394-.29a4.681,4.681,0,0,0-1.54-.738c-.06-.016-1.49-.389-3.007-.691a1.638,1.638,0,0,1-.535-.184V169.2a1.669,1.669,0,0,1,.535-.183c1.517-.3,2.947-.675,2.978-.684a4.686,4.686,0,0,0,1.569-.745l.394-.29.148-.467a13.405,13.405,0,0,1,.891-2.136l.221-.426-.067-.475a4.941,4.941,0,0,0-.561-1.664c-.031-.054-.777-1.329-1.637-2.615a1.679,1.679,0,0,1-.249-.509l2.392-2.391a1.6,1.6,0,0,1,.509.248c1.286.86,2.561,1.606,2.627,1.644a4.94,4.94,0,0,0,1.651.554l.477.068.426-.222a13.464,13.464,0,0,1,2.134-.891l.467-.147.29-.4a4.65,4.65,0,0,0,.738-1.54c.016-.06.39-1.489.692-3.007a1.611,1.611,0,0,1,.183-.535h3.383a1.628,1.628,0,0,1,.184.536c.3,1.517.675,2.946.683,2.974a4.668,4.668,0,0,0,.746,1.572l.29.4.467.147a13.475,13.475,0,0,1,2.136.892l.427.221.475-.068a4.9,4.9,0,0,0,1.662-.561c.054-.031,1.329-.777,2.616-1.637a1.566,1.566,0,0,1,.508-.248,1.486,1.486,0,0,0,2.129,0c1.059-1.055-.188-2.3-.188-2.3a2.637,2.637,0,0,0-1.866-.709,4.062,4.062,0,0,0-2.251.765c-1.2.8-2.438,1.527-2.437,1.527a1.605,1.605,0,0,1-.209.092,16.578,16.578,0,0,0-1.535-.643,1.681,1.681,0,0,1-.06-.172c0-.014-.368-1.4-.65-2.829-.462-2.33-2.023-2.952-2.872-2.952h-3.893c-.849,0-2.41.622-2.872,2.952-.282,1.424-.646,2.815-.653,2.842a1.474,1.474,0,0,1-.057.159,16.445,16.445,0,0,0-1.536.644,1.525,1.525,0,0,1-.183-.079c-.013-.007-1.25-.731-2.462-1.541a4.058,4.058,0,0,0-2.25-.765,2.638,2.638,0,0,0-1.867.709l-2.753,2.753c-.6.6-1.263,2.142.057,4.117.8,1.2,1.526,2.435,1.526,2.435a1.633,1.633,0,0,1,.092.21c-.243.51-.458,1.024-.642,1.536-.075.03-.136.05-.171.06-.015,0-1.4.366-2.831.65-2.33.463-2.951,2.023-2.951,2.871v3.893c0,.849.621,2.409,2.951,2.872,1.426.283,2.816.646,2.841.653a1.327,1.327,0,0,1,.161.057,16.479,16.479,0,0,0,.643,1.536,1.544,1.544,0,0,1-.078.184c-.008.013-.734,1.253-1.541,2.46-1.32,1.976-.657,3.518-.057,4.118l2.753,2.753a2.638,2.638,0,0,0,1.867.709,4.058,4.058,0,0,0,2.251-.766c1.2-.8,2.435-1.526,2.434-1.526a1.762,1.762,0,0,1,.211-.092c.51.243,1.023.458,1.535.642a1.469,1.469,0,0,1,.06.173c0,.013.368,1.405.65,2.829.462,2.33,2.023,2.952,2.872,2.952h3.893c.849,0,2.41-.622,2.872-2.952.282-1.424.646-2.816.653-2.842a1.614,1.614,0,0,1,.057-.159,16.492,16.492,0,0,0,1.536-.644c.093.035.16.066.184.078s1.253.734,2.462,1.542a4.054,4.054,0,0,0,2.25.765,2.637,2.637,0,0,0,1.866-.709l2.753-2.753c.6-.6,1.263-2.142-.057-4.117-.8-1.2-1.526-2.436-1.526-2.436a1.619,1.619,0,0,1-.092-.209c.243-.51.458-1.024.642-1.536.075-.03.136-.05.171-.06.015,0,1.4-.366,2.831-.65,2.33-.463,2.952-2.023,2.952-2.872v-3.893C988,168.118,987.4,166.628,985.223,166.121Z"/>
  </g>
</svg>
