<svg xmlns="http://www.w3.org/2000/svg" viewBox="0 0 60 60"><defs><style>.cls-1{fill:var(--ion-color-vh-green);}</style></defs><title>01 ICON</title><g id="Layer_3" data-name="Layer 3"><path class="cls-1" d="M58.28,47.44,51.82,33.59a6.12,6.12,0,0,0,.69-1.23c.7-1.69,1.12-5-2.73-9.33,3.86-4.36,3.45-7.64,2.76-9.33-.82-2-3-4.33-8.53-4.67-.36-5.81-3-7.84-4.65-8.54A6.26,6.26,0,0,0,37,0C34.75,0,32.42,1.09,30,3.21,27.63,1.08,25.3,0,23.08,0A6.38,6.38,0,0,0,20.7.46C19,1.16,16.4,3.18,16,9c-5.56.33-7.71,2.66-8.54,4.65-.7,1.69-1.12,5,2.73,9.33-3.86,4.36-3.45,7.64-2.76,9.33a6.64,6.64,0,0,0,.72,1.28L1.72,47.44,0,51.13l4,.55,6.86,1L16,57.28,19,60l1.72-3.68,5.08-10.89A14,14,0,0,0,30,42.79a14,14,0,0,0,4.22,2.68l5.06,10.85L41,60l3-2.72,5.14-4.65,6.86-1,4-.55ZM49.74,31.21c-.79,1.9-3.43,2.84-7.12,2.84l-.39,0a16.33,16.33,0,0,0,4.22-10.14C49.24,26.6,50.56,29.24,49.74,31.21ZM22.4,34.15l7.6-4.8,7.6,4.8a13.46,13.46,0,0,1-15.2,0Zm10.69-6.39-3.09-2-3.09,2,.9-3.55L25,21.88l3.65-.24L30,18.24l1.35,3.4,3.65.24-2.81,2.33ZM37.77,34l-2.21-8.71,7.14-5.93-9.26-.61L30,10.15l-3.44,8.62-9.26.61,7.14,5.93L22.22,34a13.51,13.51,0,1,1,15.55,0Zm12-19.17c.81,2-.51,4.6-3.3,7.3A16.41,16.41,0,0,0,42.26,12h.33C46.31,12,49,12.93,49.76,14.85ZM37,3a3.27,3.27,0,0,1,1.25.24c2,.82,2.89,3.62,2.82,7.51A16.33,16.33,0,0,0,30.89,6.55C33.07,4.31,35.19,3,37,3Zm-15.11.22A3.17,3.17,0,0,1,23.08,3c1.77,0,3.9,1.29,6.08,3.54A16.39,16.39,0,0,0,19,10.74C18.94,6.85,19.88,4.05,21.85,3.24ZM10.26,14.79c.79-1.9,3.43-2.84,7.12-2.84l.39,0a16.33,16.33,0,0,0-4.22,10.14C10.76,19.4,9.44,16.76,10.26,14.79Zm3.28,9.06A16.41,16.41,0,0,0,17.74,34h-.33c-3.72,0-6.38-.94-7.17-2.86S10.75,26.55,13.54,23.85ZM18,55.05l-5.82-5.26L4.44,48.71,10.55,35.6A13,13,0,0,0,16,37c.36,5.81,3,7.84,4.65,8.54a5.74,5.74,0,0,0,1.64.42ZM23,43a3.27,3.27,0,0,1-1.25-.24c-2-.82-2.89-3.62-2.82-7.51a16.33,16.33,0,0,0,10.14,4.22C26.93,41.69,24.81,43,23,43Zm7.8-3.52A16.39,16.39,0,0,0,41,35.26c.06,3.89-.88,6.69-2.85,7.5a3.17,3.17,0,0,1-1.23.24C35.14,43,33,41.71,30.84,39.46Zm17,10.33L42,55.05l-4.25-9.11a6,6,0,0,0,1.58-.4C41,44.84,43.6,42.82,44,37a13,13,0,0,0,5.5-1.38l6.09,13.08Z"/></g></svg>