<svg xmlns="http://www.w3.org/2000/svg" width="60" height="60" viewBox="0 0 60 60">
  <g id="Group_12564" data-name="Group 12564" transform="translate(-629.176 -332.395)">
    <path id="Path_31070" data-name="Path 31070" d="M669.676,353.395a19.5,19.5,0,1,0,19.5,19.5A19.523,19.523,0,0,0,669.676,353.395Zm0,36a16.5,16.5,0,1,1,16.5-16.5A16.519,16.519,0,0,1,669.676,389.395Z"/>
    <path id="Path_31071" data-name="Path 31071" d="M652.9,387.829a2.994,2.994,0,0,0-2,.856,2.437,2.437,0,0,1-3.439,0,3.026,3.026,0,0,0-4.266,0,2.439,2.439,0,0,1-3.441,0,3.026,3.026,0,0,0-4.266,0,2.417,2.417,0,0,1-3.307.088V336.017a2.386,2.386,0,0,1,3.3.086,3,3,0,0,0,2.133.887h0a3,3,0,0,0,2.135-.885,2.434,2.434,0,0,1,3.437,0,3,3,0,0,0,2.133.887h0a3,3,0,0,0,2.135-.885,2.431,2.431,0,0,1,3.437,0,3,3,0,0,0,2.135.885h0a2.994,2.994,0,0,0,2.131-.885,2.44,2.44,0,0,1,3.439,0,3,3,0,0,0,2.135.885h0a2.994,2.994,0,0,0,2.131-.885,2.416,2.416,0,0,1,3.306-.088V349.26a1.275,1.275,0,0,0,1.423,1.254c.128-.012.255-.023.383-.033a1.27,1.27,0,0,0,1.194-1.255v-14.5l-.746-.747a5.464,5.464,0,0,0-7.027-.572,1.187,1.187,0,0,1-1.356,0,5.473,5.473,0,0,0-6.35,0,1.191,1.191,0,0,1-1.358,0,5.471,5.471,0,0,0-6.349,0,1.187,1.187,0,0,1-1.355,0,5.478,5.478,0,0,0-6.352,0,1.184,1.184,0,0,1-1.353,0,5.444,5.444,0,0,0-7.007.574l-.747.747v55.328l.747.747a5.413,5.413,0,0,0,3.843,1.588,5.486,5.486,0,0,0,3.184-1.016,1.187,1.187,0,0,1,1.355,0,5.476,5.476,0,0,0,6.351,0,1.19,1.19,0,0,1,1.358,0,5.477,5.477,0,0,0,7.028-.575,1.759,1.759,0,0,0,.138-2.7C653.091,388.007,652.983,387.928,652.9,387.829Z"/>
    <path id="Path_31072" data-name="Path 31072" d="M673.772,372.055a15.688,15.688,0,0,0-3.485-1.15,8.483,8.483,0,0,1-2.966-1.069,1.227,1.227,0,0,1-.48-.97,1.165,1.165,0,0,1,.513-.993,3.689,3.689,0,0,1,2.2-.578,3.255,3.255,0,0,1,2.045.54,2.529,2.529,0,0,1,.825,1.456.4.4,0,0,0,.377.316h2.915v-.142a4.657,4.657,0,0,0-1.6-3.522,5.644,5.644,0,0,0-2.944-1.2v-3.487a1.5,1.5,0,0,0-3,0v3.484a6.966,6.966,0,0,0-1.734.441,4.338,4.338,0,0,0-2,1.62,4.114,4.114,0,0,0-.692,2.285,4.161,4.161,0,0,0,1.472,3.217,8.771,8.771,0,0,0,3.643,1.581q2.018.5,2.584.7a2.661,2.661,0,0,1,1.162.693,1.453,1.453,0,0,1,.333.965,1.964,1.964,0,0,1-.791,1.543,3.6,3.6,0,0,1-2.35.66,3.477,3.477,0,0,1-2.34-.742,3.68,3.68,0,0,1-1.051-2.006c0-.006-.011,0-.014-.011a.461.461,0,0,0-.422-.306h-2.3c-.532,0-.5.306-.5.306a6.1,6.1,0,0,0,1.941,4.084,5.938,5.938,0,0,0,3.059,1.278v3.492a1.5,1.5,0,0,0,3,0v-3.475a7.892,7.892,0,0,0,2.077-.477,4.572,4.572,0,0,0,2.159-1.783,4.71,4.71,0,0,0,.764-2.574,4.759,4.759,0,0,0-.638-2.547A4.506,4.506,0,0,0,673.772,372.055Z"/>
    <path id="Path_31073" data-name="Path 31073" d="M663.176,348.981a1.5,1.5,0,0,0-1.5-1.5h-25a1.5,1.5,0,0,0,0,3h25A1.5,1.5,0,0,0,663.176,348.981Z"/>
    <path id="Path_31074" data-name="Path 31074" d="M661.676,341.481h-25a1.5,1.5,0,0,0,0,3h25a1.5,1.5,0,0,0,0-3Z"/>
    <path id="Path_31075" data-name="Path 31075" d="M654.176,354.981a1.5,1.5,0,0,0-1.5-1.5h-16a1.5,1.5,0,0,0,0,3h16A1.5,1.5,0,0,0,654.176,354.981Z"/>
    <path id="Path_31076" data-name="Path 31076" d="M641.709,366.392a1.553,1.553,0,0,0-1.554,1.555v13.541l-2.417-2.415h0a1.5,1.5,0,0,0-2.121,2.122l2.866,2.864a4.571,4.571,0,0,0,6.455,0l2.866-2.865a1.5,1.5,0,0,0-2.122-2.122v0l-2.416,2.416V367.947A1.553,1.553,0,0,0,641.709,366.392Z"/>
  </g>
</svg>
