<svg xmlns="http://www.w3.org/2000/svg" width="53.863" height="53.862" viewBox="0 0 53.863 53.862"><g transform="translate(-1527.069 -978.068)"><g transform="translate(1530.66 988.841)"><path d="M70.6,100.49A3.594,3.594,0,0,1,67.01,96.9a.9.9,0,0,0-.9-.9H37.386a.9.9,0,0,0-.9.9A3.594,3.594,0,0,1,32.9,100.49a.9.9,0,0,0-.9.9v7.182a.9.9,0,0,0,.9.9,3.594,3.594,0,0,1,3.591,3.591.9.9,0,0,0,.9.9H66.113a.9.9,0,0,0,.9-.9,3.594,3.594,0,0,1,3.591-3.591.9.9,0,0,0,.9-.9v-7.182A.9.9,0,0,0,70.6,100.49Zm-.9,7.256a5.4,5.4,0,0,0-4.414,4.414H38.209a5.4,5.4,0,0,0-4.414-4.414V102.21A5.4,5.4,0,0,0,38.209,97.8H65.29A5.4,5.4,0,0,0,69.7,102.21Z" transform="translate(-32 -96.001)" /></g><g transform="translate(1545.921 993.329)"><path d="M172.489,136a4.489,4.489,0,1,0,4.489,4.489A4.494,4.494,0,0,0,172.489,136Zm0,7.182a2.693,2.693,0,1,1,2.693-2.693A2.7,2.7,0,0,1,172.489,143.183Z" transform="translate(-168 -136.001)" /></g><g transform="translate(1527.069 978.068)"><g transform="translate(0 0)"><path d="M52.965,0H8.079a.9.9,0,0,0-.9.9V3.592H4.489a.9.9,0,0,0-.9.9V7.183H.9a.9.9,0,0,0-.9.9v23.34a.9.9,0,0,0,.9.9H45.783a.9.9,0,0,0,.9-.9V28.728h2.693a.9.9,0,0,0,.9-.9V25.137h2.693a.9.9,0,0,0,.9-.9V.9A.9.9,0,0,0,52.965,0ZM44.885,27.83v2.693H1.8V8.978h43.09Zm3.591-.9h-1.8V8.08a.9.9,0,0,0-.9-.9H5.386v-1.8h43.09Zm3.591-3.591h-1.8V4.49a.9.9,0,0,0-.9-.9H8.977V1.8h43.09Z" transform="translate(0 -0.001)" /></g></g><g transform="translate(3108 2045.009) rotate(180)"><g transform="translate(1553.102 1013.078)"><path d="M259.47,320.256l-10.772-8.08a.9.9,0,0,0-1.436.718v3.591H232.9a.9.9,0,0,0-.9.9v7.182a.9.9,0,0,0,.9.9h14.363v4.489a.9.9,0,0,0,.517.812.885.885,0,0,0,.381.085.9.9,0,0,0,.575-.207l10.772-8.977a.9.9,0,0,0-.037-1.408Zm-10.413,7.778v-3.47a.9.9,0,0,0-.9-.9H233.8V318.28h14.363a.9.9,0,0,0,.9-.9v-2.693l8.429,6.321Z" transform="translate(-232 -311.995)" /></g><g transform="translate(1545.921 1017.567)"><path d="M172.489,352H168.9a.9.9,0,0,0-.9.9v7.182a.9.9,0,0,0,.9.9h3.591a.9.9,0,0,0,.9-.9V352.9A.9.9,0,0,0,172.489,352Zm-.9,7.182h-1.8V353.8h1.8Z" transform="translate(-168 -352.001)" /></g><g transform="translate(1536.943 1017.567)"><path d="M92.489,352H88.9a.9.9,0,0,0-.9.9v7.182a.9.9,0,0,0,.9.9h3.591a.9.9,0,0,0,.9-.9V352.9A.9.9,0,0,0,92.489,352Zm-.9,7.182H89.8V353.8h1.8Z" transform="translate(-88 -352.001)" /></g><g transform="translate(1527.069 1017.567)"><path d="M4.489,352H.9a.9.9,0,0,0-.9.9v7.182a.9.9,0,0,0,.9.9H4.489a.9.9,0,0,0,.9-.9V352.9A.9.9,0,0,0,4.489,352Zm-.9,7.182H1.8V353.8h1.8Z" transform="translate(0 -352.001)" /></g></g></g></svg>