<svg xmlns="http://www.w3.org/2000/svg" width="62.727" height="60" viewBox="0 0 62.727 60"><defs><style>.a{}</style></defs><g transform="translate(0 -10.666)"><g transform="translate(30.004 10.666)"><g transform="translate(0 0)"><path class="a" d="M242.44,38.315a1.363,1.363,0,0,0-1.927,0l-3.123,3.123V12.028a1.362,1.362,0,1,0-2.725,0v32.7a1.363,1.363,0,0,0,.842,1.259,1.343,1.343,0,0,0,.52.1,1.362,1.362,0,0,0,.962-.4l5.45-5.45A1.363,1.363,0,0,0,242.44,38.315Z" transform="translate(-234.666 -10.666)"/></g></g><g transform="translate(24.548 37.945)"><path class="a" d="M199.769,229.864l-5.45-5.45a1.362,1.362,0,0,0-1.927,1.926l5.45,5.45a1.362,1.362,0,0,0,1.926-1.927Z" transform="translate(-191.994 -224.016)"/></g><g transform="translate(0 21.565)"><path class="a" d="M61.124,115l-9.832-14.752A9.53,9.53,0,0,0,43.35,96H36.818a1.364,1.364,0,0,0,0,2.728H43.35a6.807,6.807,0,0,1,5.673,3.036l9.832,14.752A6.8,6.8,0,0,1,60,120.3v17.982a4.1,4.1,0,0,1-4.091,4.092H6.818a4.1,4.1,0,0,1-4.091-4.092V120.5a6.847,6.847,0,0,1,1.358-4.089l8.82-13.388a9.519,9.519,0,0,1,7.972-4.3h5.032a1.364,1.364,0,0,0,0-2.728H20.877a12.238,12.238,0,0,0-10.249,5.524L1.846,114.857A9.49,9.49,0,0,0,0,120.5v17.78A6.828,6.828,0,0,0,6.818,145.1H55.909a6.828,6.828,0,0,0,6.818-6.819V120.3A9.508,9.508,0,0,0,61.124,115Z" transform="translate(0 -96)"/></g><g transform="translate(1.362 43.402)"><g transform="translate(0 0)"><path class="a" d="M69.3,266.667H62.486a6.825,6.825,0,0,0-6.818,6.812,4.094,4.094,0,0,1-4.091,4.087H29.758a4.094,4.094,0,0,1-4.091-4.087,6.825,6.825,0,0,0-6.818-6.812H12.03a1.362,1.362,0,1,0,0,2.725h6.818a4.094,4.094,0,0,1,4.091,4.087,6.825,6.825,0,0,0,6.818,6.812H51.577a6.825,6.825,0,0,0,6.819-6.812,4.094,4.094,0,0,1,4.091-4.087H69.3a1.362,1.362,0,1,0,0-2.725Z" transform="translate(-10.666 -266.667)"/></g></g></g></svg>