<svg xmlns="http://www.w3.org/2000/svg" width="60" height="60" viewBox="0 0 60 60">
  <g id="Group_12471" data-name="Group 12471" transform="translate(-1228 -432.398)">
    <path id="Path_30830" data-name="Path 30830" d="M1286.5,489.4h-1.672a4.051,4.051,0,0,0,.172-1.111V450.509a4.117,4.117,0,0,0-4.111-4.111h-.778a4.117,4.117,0,0,0-4.111,4.111v37.778a4.051,4.051,0,0,0,.172,1.111h-6.344a4.051,4.051,0,0,0,.172-1.111V460.509a4.117,4.117,0,0,0-4.111-4.111h-.778a4.117,4.117,0,0,0-4.111,4.111v27.778a4.051,4.051,0,0,0,.172,1.111h-6.344a4.051,4.051,0,0,0,.172-1.111V475.509a4.117,4.117,0,0,0-4.111-4.111h-.778a4.117,4.117,0,0,0-4.111,4.111v12.778a4.051,4.051,0,0,0,.172,1.111h-6.344a4.051,4.051,0,0,0,.172-1.111V470.509a4.117,4.117,0,0,0-4.111-4.111h-.778a4.117,4.117,0,0,0-4.111,4.111v17.778a4.051,4.051,0,0,0,.172,1.111H1229.5a1.5,1.5,0,0,0,0,3h57a1.5,1.5,0,0,0,0-3Zm-49.5-1.111a1.111,1.111,0,0,1-1.11,1.111h-.779a1.112,1.112,0,0,1-1.111-1.111V470.51a1.112,1.112,0,0,1,1.112-1.112h.777A1.111,1.111,0,0,1,1237,470.51Zm15,0a1.111,1.111,0,0,1-1.11,1.111h-.779a1.112,1.112,0,0,1-1.111-1.111V475.51a1.112,1.112,0,0,1,1.112-1.112h.777A1.111,1.111,0,0,1,1252,475.51Zm15,0a1.111,1.111,0,0,1-1.11,1.111h-.779a1.112,1.112,0,0,1-1.111-1.111V460.51a1.112,1.112,0,0,1,1.112-1.112h.777A1.111,1.111,0,0,1,1267,460.51Zm15,0a1.111,1.111,0,0,1-1.11,1.111h-.779a1.112,1.112,0,0,1-1.111-1.111V450.51a1.112,1.112,0,0,1,1.112-1.112h.777A1.111,1.111,0,0,1,1282,450.51Z"/>
    <path id="Path_30831" data-name="Path 30831" d="M1235.5,453.4a5.465,5.465,0,0,0,3.318-1.124l6.412,4.061a5.5,5.5,0,1,0,10.07-1.115l7.523-7.522a5.494,5.494,0,0,0,8.177-4.8c0-.083-.009-.165-.012-.247l4.97-1.657a5.5,5.5,0,1,0-.958-3.1c0,.084.009.165.013.248l-4.97,1.657a5.5,5.5,0,0,0-9.342,5.773l-7.523,7.523a5.466,5.466,0,0,0-6.338.7l-6.212-3.935A5.452,5.452,0,0,0,1241,447.9a5.5,5.5,0,1,0-5.5,5.5Zm45-18a2.5,2.5,0,1,1-2.5,2.5A2.5,2.5,0,0,1,1280.5,435.4Zm-15,5a2.5,2.5,0,1,1-2.5,2.5A2.5,2.5,0,0,1,1265.5,440.4Zm-15,15a2.5,2.5,0,1,1-2.5,2.5A2.5,2.5,0,0,1,1250.5,455.4Zm-15-10a2.5,2.5,0,1,1-2.5,2.5A2.5,2.5,0,0,1,1235.5,445.4Z"/>
  </g>
</svg>
