<svg xmlns="http://www.w3.org/2000/svg" width="60" height="60.003" viewBox="0 0 60 60.003">
  <g id="Group_15086" data-name="Group 15086" transform="translate(0 -8)">
    <g id="Group_57649" data-name="Group 57649" transform="translate(-89.912 -228.116)">
      <path id="Path_141532" data-name="Path 141532" d="M102.882,259.032a.139.139,0,0,0-.078-.238l-1.83-.267a.137.137,0,0,1-.1-.076l-.819-1.659a.14.14,0,0,0-.251,0l-.819,1.659a.137.137,0,0,1-.105.076l-1.831.267a.139.139,0,0,0-.077.238l1.324,1.291a.144.144,0,0,1,.041.124l-.313,1.823a.14.14,0,0,0,.2.148l1.637-.861a.144.144,0,0,1,.131,0l1.637.861a.14.14,0,0,0,.2-.148l-.313-1.823a.141.141,0,0,1,.041-.124Z" />
      <path id="Path_141533" data-name="Path 141533" d="M110.882,259.032a.139.139,0,0,0-.078-.238l-1.83-.267a.137.137,0,0,1-.1-.076l-.819-1.659a.14.14,0,0,0-.251,0l-.819,1.659a.137.137,0,0,1-.105.076l-1.831.267a.139.139,0,0,0-.077.238l1.324,1.291a.144.144,0,0,1,.041.124l-.313,1.823a.14.14,0,0,0,.2.148l1.637-.861a.144.144,0,0,1,.131,0l1.637.861a.14.14,0,0,0,.2-.148l-.313-1.823a.141.141,0,0,1,.041-.124Z" />
      <path id="Path_141534" data-name="Path 141534" d="M116.954,268.522a1.5,1.5,0,0,0-1.5,1.5v14.5h-3.177v-9.5a1.5,1.5,0,0,0-3,0v9.5H106.1v-3.5a1.5,1.5,0,0,0-3,0v3.5H99.924v-14.5a1.5,1.5,0,0,0-3,0v16a1.5,1.5,0,0,0,1.5,1.5h25a1.5,1.5,0,1,0,0-3h-4.97v-14.5A1.5,1.5,0,0,0,116.954,268.522Z" />
      <path id="Path_141535" data-name="Path 141535" d="M98.424,247.714h16a1.5,1.5,0,0,0,0-3h-16a1.5,1.5,0,1,0,0,3Z" />
      <path id="Path_141536" data-name="Path 141536" d="M98.424,253.714h13a1.5,1.5,0,0,0,0-3h-13a1.5,1.5,0,1,0,0,3Z" />
      <path id="Path_141537" data-name="Path 141537" d="M149.912,254.119a16,16,0,1,0-17.5,15.924V276.4a4.493,4.493,0,0,0-3,4.224v11a4.5,4.5,0,1,0,9,0v-11a4.489,4.489,0,0,0-3-4.223v-6.353A16,16,0,0,0,149.912,254.119Zm-16,39a1.5,1.5,0,0,1-1.5-1.5v-11a1.5,1.5,0,0,1,3,0v11A1.5,1.5,0,0,1,133.912,293.119Zm0-26a13,13,0,1,1,13-13A13.015,13.015,0,0,1,133.912,267.119Z" />
      <path id="Path_141538" data-name="Path 141538" d="M125.068,293.085a2.393,2.393,0,0,1-1.463-.684,3.015,3.015,0,0,0-4.266,0,2.438,2.438,0,0,1-3.439,0,3.015,3.015,0,0,0-4.266,0,2.431,2.431,0,0,1-3.437,0,3.015,3.015,0,0,0-4.268,0,2.432,2.432,0,0,1-3.437,0,3.015,3.015,0,0,0-4.268,0,2.384,2.384,0,0,1-3.3.086V239.742a2.385,2.385,0,0,1,3.3.085,3.013,3.013,0,0,0,4.268,0,2.434,2.434,0,0,1,3.437,0,3.013,3.013,0,0,0,4.268,0,2.432,2.432,0,0,1,3.437,0,3.013,3.013,0,0,0,4.266,0,2.44,2.44,0,0,1,3.439,0l.017.017a1.269,1.269,0,0,0,2.118-.957c0-1.368-.692-1.76-.692-1.76a5.474,5.474,0,0,0-6.35,0,1.192,1.192,0,0,1-1.358,0,5.473,5.473,0,0,0-6.349,0,1.184,1.184,0,0,1-1.353,0,5.481,5.481,0,0,0-6.354,0,1.183,1.183,0,0,1-1.352,0,5.446,5.446,0,0,0-7.008.574l-.746.747V293.78l.746.747a5.446,5.446,0,0,0,7.008.575,1.179,1.179,0,0,1,1.352,0,5.481,5.481,0,0,0,6.354,0,1.181,1.181,0,0,1,1.353,0,5.473,5.473,0,0,0,6.349,0,1.189,1.189,0,0,1,1.358,0,5.474,5.474,0,0,0,6.35,0,1.182,1.182,0,0,1,1.356,0,5.392,5.392,0,0,0,2.648.981,1.544,1.544,0,0,0,1.634-1.565A1.454,1.454,0,0,0,125.068,293.085Z" />
      <path id="Path_141539" data-name="Path 141539" d="M138.256,249.914l-4.99,4.99a.926.926,0,0,1-1.312,0l-1.637-1.636a1.5,1.5,0,0,0-2.121,2.122l3.064,3.064a1.91,1.91,0,0,0,2.7,0l6.418-6.419a1.5,1.5,0,0,0-2.122-2.121Z" />
    </g>
  </g>
</svg>
