<svg xmlns="http://www.w3.org/2000/svg" width="56.005" height="60" viewBox="0 0 56.005 60"><defs><style>.a{}</style></defs><g transform="translate(-16)"><path class="a" d="M239.7,280.2l-8.434-7.508a3,3,0,0,0-1.994-.761l-18.259-.017a3,3,0,0,0-3,3L208,286.926a3,3,0,0,0,3,3h1.1a5.006,5.006,0,0,0,9.81.005h4.2a5.007,5.007,0,0,0,9.81,0h1.1a3.011,3.011,0,0,0,3-3l0-6.006A1,1,0,0,0,239.7,280.2Zm-8.669-3.26h2l3.374,3h-5.376Zm-20.021-3.025,14.008.012v6.006H210v-5.018a1,1,0,0,1,1.008-1Zm8.115,17.147a3,3,0,1,1,.652-3.273,2.979,2.979,0,0,1-.652,3.273Zm14.015.012a3,3,0,1,1,.657-3.272,2.98,2.98,0,0,1-.657,3.272Zm4.591-3.415a1,1,0,0,1-.7.295h-1.1a5.006,5.006,0,0,0-9.81-.006h-4.2a5,5,0,0,0-9.805,0H211a1.008,1.008,0,0,1-1-1v-5.006h15.016v3h2V273.923h2.25a1,1,0,0,1,.665.254l.87.775a2,2,0,0,0-1.776,1.974l-.007,3a2,2,0,0,0,2,2h7.007v5.005A.993.993,0,0,1,237.731,287.655Z" transform="translate(-168.033 -237.948)"/><path class="a" d="M383.961,400.047h2v2h-2Z" transform="translate(-321.976 -350.052)"/><path class="a" d="M271.961,399.953h2v2h-2Z" transform="translate(-223.967 -349.969)"/><path class="a" d="M56.991,58H21a3,3,0,0,1-3-3V5a3,3,0,0,1,3-3H48.993v9a1,1,0,0,0,1.707.707l2.292-2.293,2.292,2.293A1,1,0,0,0,56.991,11V2a3,3,0,0,1,3,3V32h2V5a5.005,5.005,0,0,0-5-5H21a5.005,5.005,0,0,0-5,5V55a5.005,5.005,0,0,0,5,5H56.991A5,5,0,0,0,60.3,58.75l-1.325-1.5A2.988,2.988,0,0,1,56.991,58Zm-2-49.414L53.7,7.293a1,1,0,0,0-1.414,0L50.992,8.586V2h4Z" transform="translate(0)"/><path class="a" d="M64,48h4v2H64Z" transform="translate(-41.994 -41.994)"/><path class="a" d="M112,48h10.01v2H112Z" transform="translate(-84.003 -41.994)"/><path class="a" d="M64,80H80.017v2H64Z" transform="translate(-41.994 -70)"/><path class="a" d="M64,144H90.027v2H64Z" transform="translate(-41.994 -126.001)"/><path class="a" d="M288,144h6.006v2H288Z" transform="translate(-238.004 -126.001)"/><path class="a" d="M64,192H98.035v2H64Z" transform="translate(-41.994 -168.001)"/><path class="a" d="M64,240H80.017v2H64Z" transform="translate(-41.994 -210.001)"/><path class="a" d="M64,288H78.015v2H64Z" transform="translate(-41.994 -252.001)"/><path class="a" d="M64,368H74.01v2H64Z" transform="translate(-41.994 -322.002)"/><path class="a" d="M64,400H74.01v2H64Z" transform="translate(-41.994 -350.01)"/><path class="a" d="M208,240h6.006v2H208Z" transform="translate(-168.003 -210.001)"/><path class="a" d="M272,240h8.008v2H272Z" transform="translate(-224.006 -210.001)"/></g></svg>