<svg xmlns="http://www.w3.org/2000/svg" width="60" height="60" viewBox="0 0 60 60">
  <g id="Group_4747" data-name="Group 4747" transform="translate(-1517.647 -144.059)">
    <path id="Path_4493" data-name="Path 4493" d="M1570.147,165.059h-11.729a1.5,1.5,0,0,0,0,3h11.729a1.5,1.5,0,0,0,0-3Z" />
    <path id="Path_4494" data-name="Path 4494" d="M1570.147,180.059h-11.729a1.5,1.5,0,0,0,0,3h11.729a1.5,1.5,0,0,0,0-3Z" />
    <path id="Path_4495" data-name="Path 4495" d="M1570.147,195.059h-11.729a1.5,1.5,0,0,0,0,3h11.729a1.5,1.5,0,0,0,0-3Z" />
    <path id="Path_4496" data-name="Path 4496" d="M1573.9,147.057l-4.523,0a4.5,4.5,0,0,0-4.224-3h-16.729a4.493,4.493,0,0,0-4.223,3l-4.526,0a3.747,3.747,0,0,0-3.752,3.731v49.541a3.746,3.746,0,0,0,3.752,3.73l17.249-.007v.007h10.728v-.011l6.248.011a3.746,3.746,0,0,0,3.752-3.73V150.788A3.746,3.746,0,0,0,1573.9,147.057Zm-25.477,0h16.729a1.5,1.5,0,0,1,0,3h-16.729a1.5,1.5,0,0,1,0-3Zm26.229,52.256a1.749,1.749,0,0,1-1.744,1.744h-32.24a1.75,1.75,0,0,1-1.745-1.744V151.8a1.75,1.75,0,0,1,1.745-1.744h3.532a4.494,4.494,0,0,0,4.224,3h16.729a4.5,4.5,0,0,0,4.224-3h3.531a1.749,1.749,0,0,1,1.744,1.744Z" />
    <path id="Path_4497" data-name="Path 4497" d="M1549.547,171.059h-3.257a4.376,4.376,0,0,0-4.372,4.371v3.258a4.376,4.376,0,0,0,4.372,4.371h3.257a4.376,4.376,0,0,0,4.371-4.371V175.43A4.376,4.376,0,0,0,1549.547,171.059Zm1.371,7.629a1.371,1.371,0,0,1-1.371,1.371h-3.258a1.371,1.371,0,0,1-1.371-1.371V175.43a1.371,1.371,0,0,1,1.371-1.371h3.258a1.371,1.371,0,0,1,1.371,1.371Z" />
    <path id="Path_4498" data-name="Path 4498" d="M1549.547,186.059h-3.257a4.376,4.376,0,0,0-4.372,4.371v3.258a4.376,4.376,0,0,0,4.372,4.371h3.257a4.376,4.376,0,0,0,4.371-4.371V190.43A4.376,4.376,0,0,0,1549.547,186.059Zm1.371,7.629a1.371,1.371,0,0,1-1.371,1.371h-3.258a1.371,1.371,0,0,1-1.371-1.371V190.43a1.371,1.371,0,0,1,1.371-1.371h3.258a1.371,1.371,0,0,1,1.371,1.371Z" />
    <path id="Path_4499" data-name="Path 4499" d="M1552.858,155.585l-4.283,4.283a.929.929,0,0,1-1.313,0l-1.283-1.283a1.5,1.5,0,0,0-2.121,2.121l2.711,2.711a1.907,1.907,0,0,0,2.7,0l5.711-5.712a1.5,1.5,0,0,0-2.121-2.121Z" />
    <path id="Path_4500" data-name="Path 4500" d="M1552.419,165.059h-6.13a1.371,1.371,0,0,1-1.371-1.371v-.424a1.5,1.5,0,1,0-3,.006v.418a4.371,4.371,0,0,0,4.372,4.371h6.129a1.5,1.5,0,0,0,0-3Z" />
    <path id="Path_4501" data-name="Path 4501" d="M1531.421,147.059a1.5,1.5,0,0,0-1.5,1.5v18.161a.345.345,0,0,1-.344.342h-1.556a3.738,3.738,0,0,0-3.006,1.5l-6.648,9.553a2.914,2.914,0,0,0-.691,1.943l-.007,6.059h-.019v6.962a.09.09,0,0,0-.006.027.285.285,0,0,0,.006.028v2.945a.218.218,0,0,0-.006.027.089.089,0,0,0,.006.028v2.836l-.006,1.336a3.746,3.746,0,0,0,3.73,3.752h10.042a1.5,1.5,0,0,0,0-3h-8.682a2.094,2.094,0,0,1-2.089-2.088V184.394a1.336,1.336,0,0,1,1.336-1.335h7.929a3.006,3.006,0,0,0,3.006-3.006v-31.5A1.5,1.5,0,0,0,1531.421,147.059Zm-1.517,31.5a1.5,1.5,0,0,1-1.5,1.5h-6.239a.7.7,0,0,1-.534-1.153l5.757-8.5a.747.747,0,0,1,.634-.348h.27l1.63.008v.013a.218.218,0,0,0-.006.027.078.078,0,0,0,.006.026Z"/>
  </g>
</svg>
