<?xml version="1.0" encoding="utf-8"?>
<!-- Generator: Adobe Illustrator 23.0.0, SVG Export Plug-In . SVG Version: 6.00 Build 0)  -->
<svg version="1.1" id="Line_stroke_cut_Ex" xmlns="http://www.w3.org/2000/svg" xmlns:xlink="http://www.w3.org/1999/xlink" x="0px"
	 y="0px" viewBox="0 0 512 512" style="enable-background:new 0 0 512 512;" xml:space="preserve">
<path d="M409,480h-17v16h23.8c3.9,0,7.2-2.8,7.9-6.7l60-352l-15.8-2.7L409,480z"/>
<path d="M489.4,56.1l-96-16.9L390.6,55l88.2,15.5l-8.2,48.2l15.8,2.7l9.5-56C496.6,61,493.7,56.9,489.4,56.1L489.4,56.1z"/>
<path d="M368,16H24c-4.4,0-8,3.6-8,8v328h16V32h328v448H32V368H16v120c0,4.4,3.6,8,8,8h344c4.4,0,8-3.6,8-8V24
	C376,19.6,372.4,16,368,16z"/>
<path d="M107.1,293.8l-9.6,9.6l20.3,20.3c1.3,1.3,3,2,4.8,2c0.1,0,0.2,0,0.3,0c1.9-0.1,3.6-0.9,4.9-2.4l40.6-47.3l-10.3-8.8
	l-35.8,41.8L107.1,293.8z"/>
<path d="M75.2,322.2c0,13.1,10.6,23.6,23.7,23.7h33.8c13.1,0,23.6-10.6,23.7-23.7v-3.4h-13.5v3.4c0,5.6-4.5,10.1-10.1,10.1H98.9
	c-5.6,0-10.1-4.5-10.1-10.1v-33.8c0-5.6,4.5-10.1,10.1-10.1h30.4v-13.5H98.9c-13.1,0-23.6,10.6-23.7,23.7V322.2z"/>
<path d="M107.1,395.2l-9.6,9.6l20.3,20.3c1.3,1.3,3,2,4.8,2c0.1,0,0.2,0,0.3,0c1.9-0.1,3.6-0.9,4.9-2.4l40.6-47.3l-10.3-8.8
	l-35.8,41.8L107.1,395.2z"/>
<path d="M75.2,423.6c0,13.1,10.6,23.6,23.7,23.7h33.8c13.1,0,23.6-10.6,23.7-23.7v-3.4h-13.5v3.4c0,5.6-4.5,10.1-10.1,10.1H98.9
	c-5.6,0-10.1-4.5-10.1-10.1v-33.8c0-5.6,4.5-10.1,10.1-10.1h30.4v-13.5H98.9c-13.1,0-23.6,10.6-23.7,23.7V423.6z"/>
<path d="M183.4,366.1h101.4v13.5H183.4V366.1z"/>
<path d="M183.4,399.9h33.8v13.5h-33.8V399.9z"/>
<path d="M230.7,399.9h54.1v13.5h-54.1V399.9z"/>
<path d="M183.4,264.8h101.4v13.5H183.4V264.8z"/>
<path d="M183.4,298.6h33.8v13.5h-33.8V298.6z"/>
<path d="M230.7,298.6h54.1v13.5h-54.1V298.6z"/>
<path d="M56,48h48v16H56V48z"/>
<path d="M56,80h32v16H56V80z"/>
<path d="M296,48h16v16h-16V48z"/>
<path d="M328,48h16v16h-16V48z"/>
<path d="M239.9,125.5c-6.4,0-11.6,5.2-11.6,11.6c0,6.4,5.2,11.6,11.6,11.6s11.6-5.2,11.6-11.6C251.4,130.7,246.3,125.5,239.9,125.5z
	 M239.9,130.1c3.8,0,6.9,3,6.9,6.8l-12.4-4.1C235.7,131.1,237.8,130.1,239.9,130.1z M239.9,144c-3.8,0-6.9-3-6.9-6.8l12.4,4.1
	C244,143,242,144,239.9,144z"/>
<path d="M265.3,155.5c0-0.5-0.1-0.9-0.4-1.3l-4.2-6.3v-17.1l4.2-6.3c0.3-0.4,0.4-0.8,0.4-1.3V107c0-8.7-10.2-15.4-13.9-17.5v-0.9h0
	c1.3,0,2.3-1,2.3-2.3V77c0-1.3-1-2.3-2.3-2.3h-23.1c-1.3,0-2.3,1-2.3,2.3v9.2c0,1.3,1,2.3,2.3,2.3h0v0.9
	c-3.7,2.1-13.9,8.8-13.9,17.5v3.8c-2.6-1-5.3-1.1-8-0.3c-0.2-3.1-1.4-7.4-5.8-10c1.5-1.2,2.3-3.1,2.2-5c0-5.1-4.1-9.2-9.2-9.2
	c-1.9,0-3.7,0.8-5,2.2c-0.3,0.3-0.5,0.6-0.7,0.9c-1.1-0.5-2.3-0.8-3.5-0.8c-3.3,0-6.3,1.8-8,4.6c0,0-0.1,0-0.1,0
	c-7.7,0-11.7,3-13.6,5.5c-0.5,0.6-0.9,1.3-1.3,1.9c-0.9-0.6-1.8-1.1-2.8-1.4c-0.6-4.6-4.5-8.1-9.2-8.1c-1.2,0-2.4,0.3-3.5,0.8
	c-0.2-0.3-0.5-0.6-0.7-0.9c-1.3-1.4-3.1-2.2-5-2.2c-5.1,0-9.2,4.1-9.2,9.2c0,2.2,1.1,4.3,3,5.5c-0.5,1.2-0.7,2.4-0.7,3.7
	c0,1.4,0.3,2.8,1,4.1c-0.4,0.2-0.7,0.5-1,0.8c0,0,0,0-0.1,0c-3.3,3-4.6,6.7-3.8,10.5c-1.7,2.1-2.7,4.7-2.7,7.4
	c0,0.7,5,44.5,9.3,81.1c0.1,1.2,1.1,2,2.3,2h73.9c1.2,0,2.2-0.9,2.3-2c0,0,0.1-1,0.3-2.8c0.9,2.9,3.6,4.9,6.6,4.9h37
	c3.8,0,6.9-3.1,6.9-6.9c0,0,0,0,0,0L265.3,155.5z M256.4,128.9c-0.3,0.4-0.4,0.8-0.4,1.3v18.5c0,0.5,0.1,0.9,0.4,1.3l4.2,6.3v1.6
	h-41.5v-1.6l4.2-6.3c0.3-0.4,0.4-0.8,0.4-1.3v-18.5c0-0.5-0.1-0.9-0.4-1.3l-4.2-6.3v-1.6h41.5v1.6L256.4,128.9z M260.7,109.3v6.9
	h-41.5v-6.9H260.7z M230.7,79.3h18.5v4.6h-18.5V79.3z M231.7,92.9c0.8-0.4,1.3-1.2,1.3-2.1v-2.3h13.8v2.3c0,0.9,0.5,1.7,1.3,2.1
	c3.1,1.6,10.4,6.4,12.2,11.8h-40.7C221.3,99.3,228.7,94.5,231.7,92.9z M184.5,93.2c0.6,0,2.1,0.4,2.7,1.3c0.7,1.1,2.1,1.4,3.2,0.7
	c0.7-0.4,1.1-1.2,1-2c0-0.5,0.2-1.1,0.6-1.4c0.4-0.5,1-0.8,1.7-0.8c2.6,0,4.6,2.1,4.6,4.6c0,0.5,0,1.8-2.7,2.3
	c-1.3,0.2-2.1,1.4-1.9,2.7c0.1,0.8,0.7,1.5,1.5,1.8c0.6,0.2,0.8,1.4,0.8,2.4c0,2.6-2.1,4.6-4.6,4.6c-2.6,0-4.6-2.1-4.6-4.6
	c0-1.3-1-2.3-2.3-2.3c-2.6,0-4.6-2.1-4.6-4.6C179.8,95.2,181.9,93.2,184.5,93.2L184.5,93.2z M160.6,106c0.4,0.6,1.1,1,1.9,1
	c0.2,0,0.4,0,0.6-0.1c0.9-0.2,1.6-1.1,1.7-2c0.2-1.3,0.8-2.6,1.7-3.6c1.8-2.2,4.8-3.4,8.7-3.5c0,4.3,3,8,7.2,9
	c1.1,5,6.1,8.1,11.1,6.9c3.6-0.8,6.4-3.7,7-7.4c2.1,3,1.4,6.9,1.3,7.1c-0.3,1.3,0.6,2.5,1.8,2.7c0.6,0.1,1.2,0,1.7-0.3
	c0.2-0.1,4.7-2.9,9,0c0.1,0,0.1,0.1,0.2,0.1v2.8c-4.4-0.9-8.9,0.8-11.6,4.4c-3.8-5.1-11-6.1-16.2-2.3c-0.9,0.7-1.7,1.4-2.3,2.3
	c-3.8-5.1-11-6.1-16.2-2.3c-0.9,0.7-1.7,1.4-2.3,2.3c-3.8-5.1-11-6.1-16.2-2.3c-0.9,0.7-1.7,1.4-2.3,2.3c-3.1-4.2-8.7-5.8-13.6-3.8
	c0.3-1.3,1.1-2.5,2.4-3.7c0.3-0.3,0.7-0.5,1.1-0.7c4.2,2.9,10,1.8,12.8-2.5c0.6-0.9,1.1-2,1.4-3.1c2.9-0.7,5.3-2.7,6.5-5.5
	C159,104.4,159.9,105.2,160.6,106z M165.2,184.9l0.7,23.8h-11.6l-1.5-26.8C156.4,183.3,160.7,184.3,165.2,184.9z M169.9,185.4
	c1.8,0.1,3.6,0.2,5.4,0.2c1.8,0,3.6-0.1,5.4-0.2l-0.7,23.3h-9.4L169.9,185.4z M185.2,184.9c4.6-0.6,8.9-1.6,12.5-3.1l-1.5,26.8
	h-11.6L185.2,184.9z M175.2,181c-17.2,0-27.7-5.4-27.7-9.2c0-3.9,10.5-9.2,27.7-9.2s27.7,5.4,27.7,9.2
	C202.9,175.6,192.4,181,175.2,181z M149.8,130.1c0-3.8,3.1-6.9,7-6.9c3.8,0,6.9,3.1,6.9,7c0,0,0,0,0,0.1h0l0.8,28.4
	c-4.8,0.7-9.2,1.8-12.8,3.4L149.8,130.1z M181.3,158.1c-2-0.2-4.1-0.2-6.1-0.2c-2,0-4.1,0.1-6.1,0.2l-0.8-28c0-3.8,3.1-6.9,6.9-6.9
	c3.8,0,6.9,3.1,6.9,6.9L181.3,158.1z M185.9,158.6l0.8-28.4h0c0,0,0,0,0-0.1c0-3.8,3.1-6.9,6.9-7s6.9,3.1,7,6.9l0,0l-1.8,32
	C195.2,160.5,190.7,159.3,185.9,158.6L185.9,158.6z M140.3,93.5c0.6,0,1.2,0.3,1.7,0.8c0.4,0.4,0.6,0.9,0.6,1.4
	c-0.1,1.3,0.9,2.4,2.2,2.4c0.8,0,1.6-0.4,2-1c0.6-0.9,2.1-1.3,2.7-1.3c2.6,0,4.6,2.1,4.6,4.6c0,2.6-2.1,4.6-4.6,4.6
	c-1.3,0-2.3,1-2.3,2.3c0,2.6-2.1,4.6-4.6,4.6c-2.6,0-4.6-2.1-4.6-4.6c0-1,0.2-2.2,0.8-2.4c1.2-0.4,1.8-1.8,1.4-3
	c-0.3-0.8-0.9-1.3-1.8-1.5c-2.7-0.5-2.7-1.9-2.7-2.3C135.7,95.5,137.7,93.5,140.3,93.5z M131.3,130.1c0-3.8,3.1-6.9,7-6.9
	c3.8,0,6.9,3.1,6.9,7l0,0c0,0,0,0.1,0,0.1h0l2,34.3c-2.7,2-4.3,4.4-4.3,7.2c0,3.1,1.9,5.7,5.1,7.7l1.7,29.2h-9.4
	C137.1,181.3,131.5,132.5,131.3,130.1z M214.5,170.9c-1.9,16.2-3.7,32.2-4.3,37.8h-9.4l1.7-29.2c3.2-2.1,5.1-4.7,5.1-7.7
	c0-2.8-1.6-5.2-4.3-7.2l2-34.3h0c0,0,0-0.1,0-0.1c0-3.8,3.1-6.9,6.9-6.9c0.8,0,1.6,0.1,2.4,0.4c0.1,0.3,0.2,0.6,0.3,0.9l4.2,6.3
	v17.1l-4.2,6.3c-0.3,0.4-0.4,0.8-0.4,1.3L214.5,170.9L214.5,170.9z M260,208c-0.4,0.4-1,0.7-1.6,0.7h-37c-1.3,0-2.3-1-2.3-2.3
	l0-43.9h41.5l0,43.9C260.7,207,260.4,207.6,260,208z"/>
</svg>
