<svg xmlns="http://www.w3.org/2000/svg" width="60" height="60" viewBox="0 0 60 60">
  <g id="Group_12496" data-name="Group 12496" transform="translate(-1428 -332.395)">
    <path id="Path_30937" data-name="Path 30937" d="M1475.044,372.782a15.36,15.36,0,0,0-3.968-10.687,20.712,20.712,0,0,0-9.53-5.588l-3.642-1.084a17.428,17.428,0,0,1-3.018-1.223,3.727,3.727,0,0,1-2.209-3.539,4.631,4.631,0,0,1,1.512-3.606,5.3,5.3,0,0,1,3.871-1.472,4.8,4.8,0,0,1,3.654,1.6,5.206,5.206,0,0,1,1.434,2.641A5.2,5.2,0,0,0,1468.2,354h.345a5.2,5.2,0,0,0,4-1.869,5.036,5.036,0,0,0,1.106-4.133,14.918,14.918,0,0,0-4.416-8.186,15.464,15.464,0,0,0-4.232-2.885v-.7a3.836,3.836,0,0,0-3.83-3.832h-6.338a3.836,3.836,0,0,0-3.832,3.832v.69a15.752,15.752,0,0,0-4.192,2.767,14.654,14.654,0,0,0-4.781,11.164c0,4.569,1.56,8.176,4.652,10.735a18.555,18.555,0,0,0,4.52,2.629,44.612,44.612,0,0,0,5,1.752c1.385.41,2.56.808,3.422,1.154a12.819,12.819,0,0,1,2.66,1.486,5.142,5.142,0,0,1,2.115,4.362,5.825,5.825,0,0,1-1.857,4.433,6.021,6.021,0,0,1-4.477,1.778c-4.062,0-5.945-1.5-6.5-5.182a5.19,5.19,0,0,0-5.094-4.4h-.33a5.184,5.184,0,0,0-3.947,1.823,5.12,5.12,0,0,0-1.174,4.127,15.773,15.773,0,0,0,4.781,9.222,16.009,16.009,0,0,0,5.2,3.3v.494a3.835,3.835,0,0,0,3.83,3.832h6.338a3.836,3.836,0,0,0,3.832-3.832v-.61a16.621,16.621,0,0,0,4.982-3.306A15.821,15.821,0,0,0,1475.044,372.782ZM1462,385.881v2.683a.831.831,0,0,1-.831.831h-6.338a.831.831,0,0,1-.831-.831v-2.641a13.243,13.243,0,0,1-6.128-3.322,12.8,12.8,0,0,1-3.89-7.523,2.173,2.173,0,0,1,2.157-2.48h.329a2.159,2.159,0,0,1,2.129,1.842q1.158,7.735,9.465,7.736a9.037,9.037,0,0,0,6.575-2.635,8.839,8.839,0,0,0,2.758-6.575,8.1,8.1,0,0,0-3.276-6.731,15.666,15.666,0,0,0-3.3-1.868q-1.5-.606-3.765-1.281a40.555,40.555,0,0,1-4.65-1.624,15.587,15.587,0,0,1-3.822-2.2q-3.551-2.937-3.549-8.411a11.7,11.7,0,0,1,3.822-8.966A12.684,12.684,0,0,1,1454,339v-2.777a.831.831,0,0,1,.831-.831h6.338a.831.831,0,0,1,.831.831V339a12.355,12.355,0,0,1,5.148,2.971,11.911,11.911,0,0,1,3.547,6.56,2.147,2.147,0,0,1-2.15,2.467h-.346a2.17,2.17,0,0,1-2.113-1.774,8.2,8.2,0,0,0-2.213-4.129,7.789,7.789,0,0,0-5.813-2.512,8.3,8.3,0,0,0-5.936,2.3,7.587,7.587,0,0,0-2.447,5.78,6.7,6.7,0,0,0,3.732,6.152,20.094,20.094,0,0,0,3.582,1.468l3.7,1.1a17.7,17.7,0,0,1,8.17,4.74,12.389,12.389,0,0,1,3.182,8.66,12.879,12.879,0,0,1-4.132,9.7A13.541,13.541,0,0,1,1462,385.881Z" />
    <path id="Path_30938" data-name="Path 30938" d="M1467.987,334.15v2.176a17.219,17.219,0,0,1,2.631,2.046c.092.089.16.191.25.281a26.977,26.977,0,0,1,1.08,46.828c-.2.2-.378.416-.586.614a18.461,18.461,0,0,1-3.375,2.533v2.012a29.938,29.938,0,0,0,0-56.49Z" />
    <path id="Path_30939" data-name="Path 30939" d="M1443.4,385.084a26.971,26.971,0,0,1,1.465-46.268c.195-.2.375-.4.582-.6A17.388,17.388,0,0,1,1448,336.3v-2.143a29.938,29.938,0,0,0,0,56.482v-1.845a17.639,17.639,0,0,1-3.584-2.573C1444.042,385.863,1443.737,385.463,1443.4,385.084Z" />
  </g>
</svg>
