<svg xmlns="http://www.w3.org/2000/svg" width="60" height="60" viewBox="0 0 60 60">
  <g id="Group_12476" data-name="Group 12476" transform="translate(-728 -432.398)">
    <path id="Path_30855" data-name="Path 30855" d="M757.05,441.34a1.462,1.462,0,0,0,1.634-.973l.04-.125a1.428,1.428,0,0,0-1.091-1.852c-5.228-.861-9.5,2.432-11.436,4.279a1.432,1.432,0,0,0,.086,2.142l.1.083a1.443,1.443,0,0,0,1.913-.076C749.826,443.366,753.171,440.771,757.05,441.34Z" />
    <path id="Path_30856" data-name="Path 30856" d="M771.118,476.907c-3.538-1.281-5.176-4.654-5.691-5.958a14.759,14.759,0,0,0,2.582-2.361,5.318,5.318,0,0,0,1.221.492,5.255,5.255,0,0,0,1.284.158c2.863,0,5.427-2.258,6.236-5.494a8.222,8.222,0,0,0,.23-2.532V442.639a4.915,4.915,0,0,0-1.831-4.087c-1.861-1.452-2.332-1.359-3.357-1.138a1.267,1.267,0,0,1-.927-.158l-3.849-2.366-.1-.057c-11.567-5.93-21.594-.078-27.117,7.377a3.926,3.926,0,0,0-.795,2.356V461.7h0a8.355,8.355,0,0,0,.251,2.047c.809,3.236,3.373,5.494,6.236,5.494a5.018,5.018,0,0,0,2.5-.647,14.607,14.607,0,0,0,2.582,2.36c-.517,1.305-2.154,4.675-5.691,5.956-12.911,4.677-16.882,6.53-16.882,9.706V492.4h60v-5.785C788,483.437,784.029,481.584,771.118,476.907Zm2.721-13.89a5.171,5.171,0,0,1-.536,1.333l0,.008c-.957,2.159-3.338,1.106-3.338,1.106.294-.441,1.066-2.173,1.066-2.173a17.525,17.525,0,0,0,.924-4.472l.051-.025v-.344a3.152,3.152,0,0,1,1.977,2.961v.286h.005A5.091,5.091,0,0,1,773.839,463.017Zm-31.115,1.372a5.209,5.209,0,0,1-.558-1.372,5.282,5.282,0,0,1-.156-1.143,1.26,1.26,0,0,1,2.48-.306,17.377,17.377,0,0,0,.506,1.754s.772,1.732,1.066,2.173C746.062,465.495,743.681,466.548,742.724,464.389Zm2.538-15.651A1.259,1.259,0,0,0,744,450v5.385a5.134,5.134,0,0,0-.625.116,5.36,5.36,0,0,0-1.375.563V444.566a.943.943,0,0,1,.2-.569c2.319-3.13,10.837-12.825,23.228-6.551.039.02.079.042.116.065l5.216,3.2.611-.151c.881-.219.681-.621,1.931.356a1.948,1.948,0,0,1,.671,1.719v13.408a5.411,5.411,0,0,0-1.352-.549,5.167,5.167,0,0,0-.625-.116v-6.975a1.259,1.259,0,0,0-1.259-1.258H768.63a1.15,1.15,0,0,1-.308-.043,19.549,19.549,0,0,0-5.153-.686,16.68,16.68,0,0,0-8.38,2.11,6.431,6.431,0,0,1-3.271.784,12.8,12.8,0,0,1-3.274-.473l-.381-.1ZM747,457.456v-5.717h.464c2.573.689,5.98,1.041,8.83-.615a15.26,15.26,0,0,1,11.735-.975H769v6.758l-.025.011c.006.18.025.356.025.538,0,7.159-4.925,12.963-11,12.963S747,464.615,747,457.456Zm18.163,18.777L758,480.9l-7.166-4.665a14.621,14.621,0,0,0,1.288-1.748,12.244,12.244,0,0,0,.992-2.094,12.118,12.118,0,0,0,9.771,0,12.274,12.274,0,0,0,.993,2.095A14.621,14.621,0,0,0,765.166,476.233ZM785,489.4H731v-2.785c0-1.487,9.7-5,14.9-6.885a11.061,11.061,0,0,0,2.537-1.325l6.043,8.138,3.516-2.4,3.515,2.4,6.044-8.138a11.061,11.061,0,0,0,2.537,1.325c5.209,1.886,14.9,5.4,14.9,6.885Z" />
    <circle id="Ellipse_886" data-name="Ellipse 886" cx="2" cy="2" r="2" transform="translate(751.088 454.061)" />
    <circle id="Ellipse_887" data-name="Ellipse 887" cx="2" cy="2" r="2" transform="translate(760.912 454.061)" />
    <path id="Path_30857" data-name="Path 30857" d="M754.892,461.94c-.41,0-.889.138-.889.815a3.409,3.409,0,0,0,1.963,2.635l.056.034a4.5,4.5,0,0,0,.512.236c.043.017.085.038.13.053.069.026.142.041.213.063a3.947,3.947,0,0,0,2.252,0c.07-.022.144-.037.213-.063.045-.015.086-.036.13-.053a4.5,4.5,0,0,0,.512-.236l.055-.034A3.409,3.409,0,0,0,762,462.755c0-.677-.479-.815-.889-.815a.952.952,0,0,0-.889.815,2.343,2.343,0,0,1-4.444,0A.952.952,0,0,0,754.892,461.94Z" />
  </g>
</svg>
