<svg xmlns="http://www.w3.org/2000/svg" width="59.999" height="60" viewBox="0 0 59.999 60">
  <g id="Group_12747" data-name="Group 12747" transform="translate(-29.177 -332.395)">
    <path id="Path_31150" data-name="Path 31150" d="M47.278,353.163h8a1.5,1.5,0,0,0,0-3h-8a1.5,1.5,0,0,0,0,3Z" />
    <circle id="Ellipse_891" data-name="Ellipse 891" cx="1.5" cy="1.5" r="1.5" transform="translate(40.778 350.163)" />
    <path id="Path_31151" data-name="Path 31151" d="M62.278,357.516h-15a1.5,1.5,0,0,0,0,3h15a1.5,1.5,0,0,0,0-3Z" />
    <circle id="Ellipse_892" data-name="Ellipse 892" cx="1.5" cy="1.5" r="1.5" transform="translate(40.778 357.516)" />
    <path id="Path_31152" data-name="Path 31152" d="M62.278,364.869h-15a1.5,1.5,0,0,0,0,3h15a1.5,1.5,0,0,0,0-3Z" />
    <circle id="Ellipse_893" data-name="Ellipse 893" cx="1.5" cy="1.5" r="1.5" transform="translate(40.778 364.869)" />
    <path id="Path_31153" data-name="Path 31153" d="M62.278,372.222h-15a1.5,1.5,0,0,0,0,3h15a1.5,1.5,0,0,0,0-3Z" />
    <circle id="Ellipse_894" data-name="Ellipse 894" cx="1.5" cy="1.5" r="1.5" transform="translate(40.778 372.222)" />
    <path id="Path_31154" data-name="Path 31154" d="M74.676,332.395a14.505,14.505,0,0,0-12.943,8H40.679a6.524,6.524,0,0,0-6.5,6.51v35.084H30.611a1.434,1.434,0,0,0-1.434,1.434v2.472s-.065,6.5,3.185,6.5H63.875a6.523,6.523,0,0,0,6.5-6.509V360.745a14.5,14.5,0,1,0,4.3-28.35Zm-41.46,57c-1.039-.619-1.037-2.214-1.039-3.5v-.9H57.365v.9c0,1.291-.039,2.71,1.039,3.5Zm34.163-3.509a3.506,3.506,0,1,1-7.013,0v-1.892a1.966,1.966,0,0,0-2.007-2H37.176V346.9a3.519,3.519,0,0,1,3.507-3.509H60.621A14.376,14.376,0,0,0,67.379,359.4Zm7.3-27.491a11.5,11.5,0,1,1,11.5-11.5A11.514,11.514,0,0,1,74.676,358.395Z" />
    <path id="Path_31155" data-name="Path 31155" d="M75.766,345.235l-1.143-.34a5.437,5.437,0,0,1-.977-.4,1.346,1.346,0,0,1-.786-1.268,1.46,1.46,0,0,1,.532-1.263,1.965,1.965,0,0,1,3.023.618,1.546,1.546,0,0,0,1.5,1.5,1.5,1.5,0,0,0,1.5-1.5,4.489,4.489,0,0,0-3.239-3.766v-.923a1.5,1.5,0,0,0-3,0v1a4.713,4.713,0,0,0-1.835,1.046,4.4,4.4,0,0,0-1.435,3.351,3.946,3.946,0,0,0,1.386,3.209,5.584,5.584,0,0,0,1.367.794,13.316,13.316,0,0,0,1.541.54c.444.132.814.257,1.093.37a4.158,4.158,0,0,1,.87.489,1.776,1.776,0,0,1,.732,1.509,2.029,2.029,0,0,1-.634,1.519,2.088,2.088,0,0,1-1.531.609,1.917,1.917,0,0,1-2.225-1.893v-.6a1.5,1.5,0,0,0-3,0l.01.261a4.833,4.833,0,0,0,3.661,4.834v.967a1.5,1.5,0,0,0,3,0v-.964a4.967,4.967,0,0,0,2.15-1.218,4.765,4.765,0,0,0,1.522-3.572,4.61,4.61,0,0,0-1.19-3.212A6.28,6.28,0,0,0,75.766,345.235Z" />
  </g>
</svg>
