<svg id="Capa_1" enable-background="new 0 0 512 512" height="512" viewBox="0 0 512 512" width="512" xmlns="http://www.w3.org/2000/svg"><g><path d="m475.294 64.223h-27.736c-.088-19.029-15.595-34.481-34.643-34.481s-34.555 15.453-34.643 34.481h-87.628c-.089-19.029-15.595-34.482-34.644-34.482s-34.555 15.453-34.643 34.481h-87.628c-.088-19.029-15.595-34.481-34.643-34.481s-34.555 15.453-34.643 34.481h-27.737c-20.24.001-36.706 16.501-36.706 36.783v350.819c0 16.781 13.601 30.435 30.317 30.435h451.365c16.717 0 30.317-13.653 30.317-30.435v-350.819c.001-20.282-16.465-36.782-36.705-36.782zm-62.379-14.482c8.021 0 14.556 6.481 14.643 14.481h-29.286c.087-8 6.622-14.481 14.643-14.481zm-156.915 0c8.021 0 14.556 6.481 14.643 14.481h-29.287c.088-8 6.623-14.481 14.644-14.481zm-156.915 0c8.021 0 14.556 6.481 14.643 14.481h-29.286c.088-8 6.623-14.481 14.643-14.481zm-79.085 51.264c0-9.254 7.494-16.782 16.706-16.782h72.187c-2.598 2.347-6.039 3.778-9.808 3.778-5.523 0-10 4.478-10 10s4.477 10 10 10c15.309 0 28.33-9.981 32.899-23.778h133.824c-2.598 2.347-6.039 3.778-9.808 3.778-5.523 0-10 4.478-10 10s4.477 10 10 10c15.309 0 28.33-9.981 32.899-23.778h133.823c-2.598 2.347-6.039 3.778-9.808 3.778-5.523 0-10 4.478-10 10s4.477 10 10 10c15.309 0 28.33-9.981 32.899-23.778h29.481c9.212 0 16.706 7.528 16.706 16.782v22.432h-472zm472 350.819c0 5.754-4.628 10.435-10.317 10.435h-451.366c-5.689 0-10.317-4.681-10.317-10.435v-308.387h472z"/><path d="m131.958 331.121c.522 2.295.077 5.973-.354 9.529-.798 6.588-1.702 14.056 1.748 21.195 3.5 7.245 10.252 11.385 15.677 14.712 3.008 1.844 6.118 3.751 7.52 5.504 1.421 1.777 2.602 5.246 3.744 8.602 2.148 6.312 4.584 13.467 10.842 18.456 6.229 4.966 13.734 5.752 20.356 6.446 3.549.372 7.219.756 9.306 1.762 1.987.958 4.521 3.539 6.971 6.035 4.474 4.559 10.042 10.232 17.953 12.028 1.783.404 3.532.578 5.245.578 5.646 0 10.899-1.885 15.664-3.595 3.415-1.226 6.946-2.493 9.369-2.493s5.954 1.268 9.369 2.493c6.211 2.229 13.249 4.753 20.91 3.017 7.91-1.796 13.478-7.47 17.952-12.028 2.45-2.496 4.983-5.077 6.97-6.035 2.087-1.005 5.757-1.39 9.306-1.762 6.622-.693 14.127-1.479 20.357-6.446 6.257-4.989 8.693-12.144 10.842-18.456 1.142-3.354 2.323-6.824 3.745-8.602 1.401-1.753 4.512-3.659 7.519-5.504 5.425-3.326 12.176-7.466 15.677-14.71 3.45-7.142 2.546-14.609 1.748-21.197-.431-3.557-.876-7.234-.354-9.529.476-2.091 2.413-5.102 4.286-8.014 3.466-5.388 7.779-12.093 7.779-20.26s-4.313-14.871-7.779-20.259c-1.873-2.912-3.81-5.923-4.286-8.014-.522-2.295-.077-5.973.354-9.529.798-6.588 1.702-14.056-1.749-21.197-3.5-7.244-10.251-11.384-15.676-14.71-3.008-1.844-6.118-3.751-7.521-5.504-1.421-1.777-2.602-5.246-3.744-8.602-2.148-6.312-4.584-13.467-10.842-18.456-6.229-4.966-13.734-5.752-20.356-6.446-3.549-.372-7.219-.757-9.306-1.762-1.987-.957-4.521-3.539-6.97-6.035-4.474-4.56-10.043-10.233-17.953-12.028-7.659-1.736-14.698.787-20.909 3.017-3.415 1.226-6.946 2.493-9.369 2.493s-5.954-1.268-9.369-2.493c-6.211-2.229-13.25-4.754-20.909-3.017-7.911 1.795-13.479 7.469-17.954 12.028-2.45 2.496-4.982 5.078-6.97 6.035-2.087 1.005-5.757 1.39-9.306 1.762-6.622.693-14.127 1.479-20.356 6.445-6.258 4.99-8.694 12.145-10.843 18.457-1.142 3.354-2.323 6.824-3.745 8.602-1.401 1.753-4.512 3.659-7.519 5.504-5.425 3.326-12.177 7.466-15.677 14.71-3.45 7.142-2.546 14.609-1.748 21.197.431 3.557.876 7.234.354 9.529-.476 2.091-2.413 5.102-4.286 8.014-3.466 5.388-7.779 12.092-7.779 20.259s4.313 14.872 7.779 20.26c1.874 2.913 3.811 5.923 4.287 8.014zm12.535-37.712c2.677-4.161 5.711-8.878 6.967-14.395 1.294-5.686.607-11.363 0-16.373-.467-3.858-.997-8.232-.099-10.092.948-1.962 4.76-4.299 8.123-6.361 4.265-2.615 9.099-5.579 12.685-10.063 3.606-4.511 5.44-9.896 7.057-14.646 1.265-3.715 2.698-7.925 4.378-9.264 1.658-1.322 6.074-1.785 9.971-2.193 5.006-.524 10.681-1.118 15.903-3.635 5.134-2.474 9.082-6.495 12.564-10.044 2.777-2.831 5.926-6.039 8.105-6.533.245-.056.523-.081.83-.081 2.157 0 5.713 1.276 8.897 2.419 4.792 1.719 10.222 3.668 16.125 3.668s11.333-1.949 16.125-3.668c3.636-1.305 7.762-2.78 9.727-2.338 2.179.494 5.327 3.702 8.105 6.533 3.482 3.549 7.43 7.57 12.564 10.044 5.222 2.517 10.896 3.11 15.903 3.636 3.896.408 8.313.871 9.972 2.193 1.68 1.339 3.113 5.549 4.377 9.263 1.617 4.752 3.451 10.137 7.057 14.646 3.586 4.485 8.42 7.449 12.686 10.064 3.363 2.062 7.174 4.398 8.122 6.36.899 1.859.369 6.233-.098 10.092-.606 5.01-1.294 10.688 0 16.373 1.256 5.517 4.29 10.233 6.967 14.395 2.156 3.351 4.599 7.149 4.599 9.438 0 2.29-2.443 6.089-4.599 9.439-2.677 4.162-5.711 8.878-6.967 14.395-1.294 5.686-.607 11.363 0 16.373.467 3.858.997 8.232.099 10.092-.948 1.962-4.76 4.299-8.124 6.361-4.265 2.615-9.099 5.579-12.684 10.063-3.607 4.51-5.44 9.896-7.058 14.646-1.265 3.714-2.698 7.925-4.378 9.264-1.658 1.322-6.074 1.785-9.971 2.193-5.006.524-10.681 1.118-15.903 3.635-5.134 2.474-9.082 6.495-12.564 10.044-2.778 2.83-5.926 6.039-8.105 6.533-1.968.447-6.09-1.032-9.727-2.338-4.792-1.719-10.222-3.668-16.125-3.668s-11.333 1.949-16.125 3.668c-3.636 1.306-7.761 2.78-9.726 2.338-2.18-.495-5.328-3.703-8.106-6.533-3.482-3.549-7.43-7.57-12.564-10.044-5.222-2.517-10.896-3.11-15.903-3.636-3.896-.408-8.313-.871-9.972-2.193-1.68-1.339-3.113-5.549-4.377-9.263-1.617-4.752-3.451-10.137-7.057-14.646-3.586-4.484-8.42-7.449-12.685-10.064-3.363-2.062-7.175-4.398-8.123-6.361-.898-1.859-.369-6.232.099-10.091.606-5.01 1.294-10.688 0-16.373-1.256-5.517-4.29-10.232-6.967-14.395-2.156-3.351-4.599-7.149-4.599-9.439 0-2.288 2.443-6.087 4.599-9.438z"/><path d="m227.875 370.639c1.262.528 2.572.779 3.859.779 3.91 0 7.623-2.308 9.228-6.14l50.144-119.704c2.134-5.094-.266-10.953-5.36-13.087-5.094-2.131-10.954.267-13.087 5.36l-50.144 119.704c-2.134 5.095.266 10.954 5.36 13.088z"/><path d="m222.139 297.721c17.731 0 32.156-16.057 32.156-35.794s-14.425-35.795-32.156-35.795-32.156 16.058-32.156 35.795 14.425 35.794 32.156 35.794zm0-51.589c6.589 0 12.156 7.233 12.156 15.795s-5.567 15.794-12.156 15.794-12.156-7.232-12.156-15.794 5.567-15.795 12.156-15.795z"/><path d="m257.705 343.77c0 19.737 14.425 35.795 32.156 35.795s32.156-16.058 32.156-35.795-14.425-35.794-32.156-35.794-32.156 16.056-32.156 35.794zm44.312 0c0 8.562-5.567 15.795-12.156 15.795s-12.156-7.233-12.156-15.795 5.567-15.794 12.156-15.794 12.156 7.232 12.156 15.794z"/></g></svg>