<svg xmlns="http://www.w3.org/2000/svg" width="60" height="60" viewBox="0 0 60 60">
  <g id="Group_12559" data-name="Group 12559" transform="translate(-629.176 -632.559)">
    <path id="Path_31068" data-name="Path 31068" d="M645.617,662.48h27.118c.374,0,.433-.225.441-.3v-1.608c-.124-4.9-3.523-9.126-8.281-11.022a9.52,9.52,0,0,0,1.154-1.024,9.459,9.459,0,0,0-6.868-15.966H659a9.44,9.44,0,0,0-5.545,16.991c-4.758,1.9-8.157,6.119-8.282,11.022v1.608C645.185,662.255,645.244,662.48,645.617,662.48Zm7.1-20.636a6.43,6.43,0,0,1,6.343-6.285h.125a6.461,6.461,0,0,1,.176,12.92H659a6.465,6.465,0,0,1-6.286-6.636Zm6.312,9.636h.3c5.4,0,9.953,3.495,10.734,8H648.291C649.072,654.975,653.629,651.481,659.025,651.48Z" />
    <path id="Path_31069" data-name="Path 31069" d="M688.975,674.309a1.48,1.48,0,0,0-.384-.438h0a12.688,12.688,0,0,0-4.911-3.744,7.907,7.907,0,0,0-6.787.011,2.415,2.415,0,0,0-.4.172L664.1,677.469a5.866,5.866,0,0,0-5.8-4.98h-1.02a5.875,5.875,0,0,0-5.818-5.129h-8.42a5.825,5.825,0,0,0-2.948.8,4.37,4.37,0,0,0-4.294-3.6h-2.257a4.376,4.376,0,0,0-4.372,4.371v19.258a4.376,4.376,0,0,0,4.372,4.371H635.8a4.363,4.363,0,0,0,4.13-3h24.74a8.419,8.419,0,0,0,1.235-.2l22.516-13A1.5,1.5,0,0,0,688.975,674.309Zm-51.8-1.078v14.957a1.371,1.371,0,0,1-1.371,1.371h-2.258a1.371,1.371,0,0,1-1.371-1.371V668.93a1.371,1.371,0,0,1,1.371-1.371H635.8a1.371,1.371,0,0,1,1.371,1.371Zm27.569,13.335c-.023,0-.046-.007-.07-.007h-24.5V673.226a2.875,2.875,0,0,1,2.871-2.866h8.42a2.874,2.874,0,0,1,2.871,2.871v2.258H658.3a2.871,2.871,0,0,1,2.871,2.871v.169h-12a1.5,1.5,0,0,0,0,3h13.5a34.761,34.761,0,0,1,1.434-.6l14.643-8.457a4.9,4.9,0,0,1,3.121.476,12.262,12.262,0,0,1,2.86,2.078Z" />
  </g>
</svg>
