<svg xmlns="http://www.w3.org/2000/svg" width="60" height="60" viewBox="0 0 60 60">
  <g id="Group_12517" data-name="Group 12517" transform="translate(-1028 -132.39)">
    <path id="Path_31025" data-name="Path 31025" d="M1066.914,174.262a1.5,1.5,0,0,1-2.1-.006c-1.644-1.635-2.847-2.816-3.741-3.668a1.482,1.482,0,0,0-2.072.025l-.029.029a1.485,1.485,0,0,0,.017,2.125c1.518,1.455,3.754,3.656,5.817,5.718l.008.009a1.487,1.487,0,0,0,2.1,0l15.72-15.645a1.488,1.488,0,0,0,0-2.112l-.021-.021a1.487,1.487,0,0,0-2.092.006Z"/>
    <path id="Path_31026" data-name="Path 31026" d="M1085.224,166.121a2.358,2.358,0,0,0-1.854.348l-.412.41-.2.2a1.769,1.769,0,0,0-.365.613l-.005.02a.826.826,0,0,0,.289.808c.02.014.046.027.068.041a.955.955,0,0,0,.31.143,2.625,2.625,0,0,0,.308.081c.347.077.719.157,1.1.233a1.67,1.67,0,0,1,.535.183v3.383a1.638,1.638,0,0,1-.535.184c-1.518.3-2.947.675-2.979.684a4.7,4.7,0,0,0-1.568.745l-.4.29-.147.467a13.418,13.418,0,0,1-.892,2.136l-.22.426.067.475a4.916,4.916,0,0,0,.561,1.664c.031.053.777,1.329,1.636,2.614a1.664,1.664,0,0,1,.249.509l-2.391,2.392a1.6,1.6,0,0,1-.509-.248c-1.286-.86-2.562-1.607-2.628-1.645a4.941,4.941,0,0,0-1.649-.553l-.476-.068-.427.221a13.447,13.447,0,0,1-2.135.892l-.467.147-.29.394a4.683,4.683,0,0,0-.739,1.54c-.015.06-.389,1.49-.691,3.008a1.63,1.63,0,0,1-.184.535h-3.382a1.629,1.629,0,0,1-.184-.536c-.3-1.517-.676-2.947-.684-2.975a4.668,4.668,0,0,0-.746-1.572l-.29-.394-.467-.147a13.4,13.4,0,0,1-2.133-.891l-.427-.222-.477.068a4.968,4.968,0,0,0-1.663.56c-.053.031-1.329.778-2.614,1.638a1.637,1.637,0,0,1-.51.248l-2.391-2.392a1.664,1.664,0,0,1,.249-.509c.859-1.285,1.6-2.561,1.643-2.625a4.932,4.932,0,0,0,.554-1.653l.067-.475-.22-.426a13.393,13.393,0,0,1-.892-2.136l-.147-.467-.4-.29a4.682,4.682,0,0,0-1.54-.738c-.06-.016-1.489-.389-3.007-.691a1.638,1.638,0,0,1-.535-.184V169.2a1.67,1.67,0,0,1,.535-.183c1.518-.3,2.947-.675,2.979-.684a4.7,4.7,0,0,0,1.568-.745l.4-.29.147-.467a13.418,13.418,0,0,1,.892-2.136l.22-.426-.067-.475a4.894,4.894,0,0,0-.561-1.664c-.031-.054-.777-1.329-1.636-2.615a1.653,1.653,0,0,1-.249-.509l2.391-2.391a1.6,1.6,0,0,1,.509.248c1.286.86,2.562,1.606,2.627,1.644a4.941,4.941,0,0,0,1.651.554l.477.068.427-.222a13.451,13.451,0,0,1,2.133-.891l.467-.147.29-.4a4.661,4.661,0,0,0,.739-1.54c.015-.06.389-1.489.691-3.007a1.63,1.63,0,0,1,.184-.535h3.382a1.629,1.629,0,0,1,.184.536c.3,1.517.676,2.946.684,2.974a4.647,4.647,0,0,0,.746,1.572l.29.4.467.147a13.465,13.465,0,0,1,2.135.892l.427.221.476-.068a4.913,4.913,0,0,0,1.662-.561c.053-.031,1.329-.777,2.615-1.637a1.579,1.579,0,0,1,.509-.248,1.486,1.486,0,0,0,2.129,0c1.059-1.055-.189-2.3-.189-2.3a2.637,2.637,0,0,0-1.866-.709,4.067,4.067,0,0,0-2.251.765c-1.2.8-2.438,1.527-2.437,1.527a1.609,1.609,0,0,1-.209.092,16.454,16.454,0,0,0-1.535-.643,1.646,1.646,0,0,1-.059-.172c0-.014-.368-1.4-.651-2.829-.462-2.33-2.022-2.952-2.872-2.952h-3.892c-.85,0-2.41.622-2.872,2.952-.283,1.424-.647,2.815-.654,2.842a1.393,1.393,0,0,1-.056.159,16.214,16.214,0,0,0-1.536.644,1.572,1.572,0,0,1-.184-.079c-.013-.007-1.25-.731-2.462-1.541a4.059,4.059,0,0,0-2.25-.765,2.637,2.637,0,0,0-1.866.709l-2.753,2.753c-.6.6-1.264,2.142.057,4.117.8,1.2,1.526,2.435,1.526,2.435a1.8,1.8,0,0,1,.092.21c-.243.51-.458,1.024-.643,1.536a1.772,1.772,0,0,1-.171.06c-.014,0-1.4.366-2.831.65-2.33.463-2.951,2.023-2.951,2.871v3.893c0,.849.621,2.409,2.951,2.872,1.426.283,2.817.646,2.841.653a1.27,1.27,0,0,1,.161.057c.185.512.4,1.026.644,1.536-.035.093-.066.161-.078.184s-.735,1.253-1.541,2.46c-1.321,1.976-.658,3.518-.057,4.118l2.753,2.753a2.637,2.637,0,0,0,1.866.709,4.058,4.058,0,0,0,2.251-.766c1.2-.8,2.436-1.526,2.435-1.526a1.764,1.764,0,0,1,.211-.092,16.5,16.5,0,0,0,1.535.642,1.644,1.644,0,0,1,.059.173c0,.013.368,1.405.651,2.829.462,2.33,2.022,2.952,2.872,2.952h3.892c.85,0,2.41-.622,2.872-2.952.283-1.424.647-2.816.654-2.842a1.328,1.328,0,0,1,.056-.159,16.354,16.354,0,0,0,1.536-.644c.093.035.161.066.184.078s1.253.734,2.462,1.542a4.059,4.059,0,0,0,2.25.765,2.637,2.637,0,0,0,1.866-.709l2.753-2.753c.6-.6,1.264-2.142-.057-4.117-.8-1.2-1.526-2.436-1.526-2.436a1.764,1.764,0,0,1-.092-.209c.243-.51.458-1.024.643-1.536a1.772,1.772,0,0,1,.171-.06c.014,0,1.4-.366,2.831-.65,2.33-.463,2.951-2.023,2.951-2.872v-3.893C1088,168.118,1087.4,166.628,1085.224,166.121Z"/>
    <path id="Path_31027" data-name="Path 31027" d="M1043.511,179.39h-10.34a2.171,2.171,0,0,1-2.171-2.172l0-29.828h42v3.5a1.5,1.5,0,1,0,3-.008V138.4a3.006,3.006,0,0,0-3.005-3.005H1069.5v-1.5a1.5,1.5,0,0,0-3,0v1.5h-5v-1.5a1.5,1.5,0,0,0-3,0v1.5h-5v-1.5a1.5,1.5,0,0,0-3,0v1.5h-5v-1.5a1.5,1.5,0,0,0-3,0v1.5h-5v-1.5a1.5,1.5,0,0,0-3,0v1.5h-3.495A3.006,3.006,0,0,0,1028,138.4v38.823a5.171,5.171,0,0,0,5.171,5.172h10.318a1.511,1.511,0,0,0,1.511-1.511A1.489,1.489,0,0,0,1043.511,179.39Zm-12.506-41h3.495v1.5a1.5,1.5,0,1,0,3,0v-1.5h5v1.5a1.5,1.5,0,1,0,3,0v-1.5h5v1.5a1.5,1.5,0,1,0,3,0v-1.5h5v1.5a1.5,1.5,0,1,0,3,0v-1.5h5v1.5a1.5,1.5,0,1,0,3,0v-1.5h3.495l.005.005v5.995h-41.995Z"/>
  </g>
</svg>
