<svg xmlns="http://www.w3.org/2000/svg" width="60" height="60" viewBox="0 0 60 60">
  <g id="Group_12524" data-name="Group 12524" transform="translate(-828 -632.559)">
    <path id="Path_31054" data-name="Path 31054" d="M878.5,666.058h-9a1.5,1.5,0,0,0,0,3h9a1.5,1.5,0,0,0,0-3Z"/>
    <path id="Path_31055" data-name="Path 31055" d="M878.5,672.058h-9a1.5,1.5,0,0,0,0,3h9a1.5,1.5,0,0,0,0-3Z"/>
    <path id="Path_31056" data-name="Path 31056" d="M878.5,678.057h-9a1.5,1.5,0,0,0,0,3h9a1.5,1.5,0,0,0,0-3Z"/>
    <path id="Path_31057" data-name="Path 31057" d="M878.5,684.057h-9a1.5,1.5,0,0,0,0,3h9a1.5,1.5,0,0,0,0-3Z"/>
    <path id="Path_31058" data-name="Path 31058" d="M884.248,657.559l-1.523,0a4.494,4.494,0,0,0-4.224-3h-9a4.494,4.494,0,0,0-4.224,3h-1.525a3.746,3.746,0,0,0-3.752,3.73v27.539a3.747,3.747,0,0,0,3.752,3.731l9.248-.007v.007h5v-.011l6.248.011A3.747,3.747,0,0,0,888,688.828V661.289A3.746,3.746,0,0,0,884.248,657.559Zm-14.748,0h9a1.5,1.5,0,0,1,0,3h-9a1.5,1.5,0,0,1,0-3ZM885,687.815a1.749,1.749,0,0,1-1.744,1.744H864.744A1.749,1.749,0,0,1,863,687.814V662.3a1.748,1.748,0,0,1,1.744-1.744h.532a4.494,4.494,0,0,0,4.225,3h9a4.494,4.494,0,0,0,4.224-3h.531A1.749,1.749,0,0,1,885,662.3Z"/>
    <path id="Path_31059" data-name="Path 31059" d="M843.205,657.359a1.4,1.4,0,0,1,1.3.356l2.117,2.117.306-.306a8.923,8.923,0,0,1,2.081-1.537l-2.389-2.388a4.37,4.37,0,0,0-4.076-1.16,9.464,9.464,0,0,1-10.818-5.564,7.6,7.6,0,0,0,9.342-1.093l1.965-1.965a7.6,7.6,0,0,0,1.093-9.341,9.461,9.461,0,0,1,5.564,10.817,4.372,4.372,0,0,0,1.159,4.076l4.232,4.231,2.114-2.114-4.231-4.231a1.4,1.4,0,0,1-.356-1.306,12.457,12.457,0,0,0-12.9-15.182,1.343,1.343,0,0,0-.886.393,1.368,1.368,0,0,0-.006,1.944l2.1,2.1a4.594,4.594,0,0,1,0,6.495l-1.965,1.964a4.591,4.591,0,0,1-6.494,0l-2.1-2.1a1.369,1.369,0,0,0-1.944.006,1.352,1.352,0,0,0-.394.887,12.459,12.459,0,0,0,15.183,12.9Z"/>
    <path id="Path_31060" data-name="Path 31060" d="M851.147,667.295,835.639,682.8a1.5,1.5,0,0,0,2.115,2.115l15.507-15.508a1.5,1.5,0,1,0-2.114-2.115Z"/>
    <path id="Path_31061" data-name="Path 31061" d="M867.211,651.936l2.781-2.781,3.689-3.689.437-.437,1.409,1.41-4.125,4.125-1,1h4.229l3.482-3.482a5.3,5.3,0,0,0,4.465-1.232l.159-.137L888,638.677l-2.029-2.029-.9-.905-3.185-3.184-8.033,5.259-.137.159a5.3,5.3,0,0,0-1.233,4.461l-17.634,17.634a6.043,6.043,0,0,0-5.8,1.568L829.984,680.7a6.054,6.054,0,0,0,0,8.552l1.317,1.316a6.053,6.053,0,0,0,8.551,0L857,673.425v-4.273c-.066.081-.123.167-.2.243l-19.064,19.063a3.057,3.057,0,0,1-4.322,0l-1.317-1.317a3.057,3.057,0,0,1,0-4.322l19.063-19.064a3.058,3.058,0,0,1,4.323,0l1.317,1.317a2.856,2.856,0,0,1,.2.243v-4.026a6.747,6.747,0,0,1,6.521-6.726A7.529,7.529,0,0,1,867.211,651.936Zm8.647-11.858,5.629-3.685,1.465,1.465.9.905.309.309-3.685,5.629a2.49,2.49,0,0,1-2.06.4l-.779-.779-1.41-1.41-.776-.776A2.49,2.49,0,0,1,875.858,640.078Z"/>
  </g>
</svg>
