<svg xmlns="http://www.w3.org/2000/svg" width="60" height="60" viewBox="0 0 60 60">
  <path id="Path_4980" data-name="Path 4980" d="M1214.432,500.8l-7.558-10.381a3.013,3.013,0,0,0-2.437-1.241h-31.01a3,3,0,0,0-2.426,1.235l-7.677,10.545a6.99,6.99,0,0,0-2.359,5.231V525.5l-3.7,10.161a4.982,4.982,0,0,0,7.407,5.888l20.227,7.363a4.506,4.506,0,0,0,5.9-3.12,3.676,3.676,0,0,0,.1-.609h19.053a7.018,7.018,0,0,0,7.011-7.011V506.193A7,7,0,0,0,1214.432,500.8Zm-41.005-8.622h31.01l.012.006,5.092,6.994h-41.21Zm-9.582,45.872h0a2,2,0,1,1-3.758-1.368l7.524-20.673a2,2,0,1,1,3.759,1.367l-.28.77h0Zm17.141,3.046,2.566.934h0l3.407,1.24a1.5,1.5,0,0,1-1.032,2.816l-8.291-3.017-10.972-3.994,7.524-20.673a4.961,4.961,0,0,0,.213-.838l17.736-3.114a1.5,1.5,0,1,1,.521,2.955l-6.186,1.07,0,.007-3.611.637-.447.1a1.841,1.841,0,0,0-1.209.885l-.123.337a1.446,1.446,0,0,0,.864,1.853l.051.019,13.929,5.069a1.5,1.5,0,0,1-1.026,2.82l-7.38-2.687-1.294-.471a1.6,1.6,0,0,0-1.662.3,1.468,1.468,0,0,0,.478,2.464l8.832,3.215h.006l2.813,1.024a1.5,1.5,0,1,1-1.026,2.82l-3.007-1.095-7.192-2.618-1.414-.514a1.5,1.5,0,1,0-1.017,2.821l1.405.512h0l7.386,2.688a1.5,1.5,0,0,1-1.032,2.816l-3.007-1.094-3.213-1.17-2.574-.936a1.5,1.5,0,1,0-1.018,2.821Zm32.979-2.929a4.011,4.011,0,0,1-4.011,4.011h-14.687a4.466,4.466,0,0,0,.406-1,4.194,4.194,0,0,0,.109-1.256,4.477,4.477,0,0,0,2.972-8.136,4.475,4.475,0,0,0,1.014-1.848,4.661,4.661,0,0,0-3.036-5.454l-8.823-3.211,5.27-.91a4.5,4.5,0,1,0-1.563-8.863l-17.595,3.088a5,5,0,0,0-9.23.4l-.826,2.27V506.193a4.011,4.011,0,0,1,4.011-4.011h41.978a4.011,4.011,0,0,1,4.011,4.011Z" transform="translate(-1156.965 -489.182)"/>
</svg>
