<svg xmlns="http://www.w3.org/2000/svg" width="60" height="60" viewBox="0 0 60 60">
  <path id="Path_4589" data-name="Path 4589" d="M433.914,148.018a4.493,4.493,0,0,0-4.224,3H387.137a4.489,4.489,0,0,0-8.723,1.5v51a4.489,4.489,0,0,0,8.723,1.5H429.69a4.489,4.489,0,0,0,8.724-1.5v-51A4.505,4.505,0,0,0,433.914,148.018Zm-32.5,54h-8v-.5a4,4,0,0,1,2.5-3.7v1.2a1.5,1.5,0,0,0,3,0v-1.2a4,4,0,0,1,2.5,3.7Zm11-.5v.5h-8v-4.5a4,4,0,0,1,2.5-3.7v3.493a1.5,1.5,0,0,0,3,0v-3.493a4,4,0,0,1,2.5,3.7Zm11,.5h-8v-.51a4,4,0,0,1,2.5-3.694v1.2a1.5,1.5,0,0,0,3,0v-1.2a4,4,0,0,1,2.5,3.7Zm6,0h-3v-.5a6.987,6.987,0,0,0-11.19-5.594,6.992,6.992,0,0,0-13.62,0,6.952,6.952,0,0,0-4.19-1.406h0a7.008,7.008,0,0,0-7,7v.5h-3v-3H387.4c0-.039.012-.077.012-.118a1.5,1.5,0,0,0-3,0c0,.041.008.079.011.118h-.011v4.5a1.5,1.5,0,0,1-3,0v-51a1.5,1.5,0,0,1,3,0v40.5a1.5,1.5,0,0,0,3,0v-5.211h42Zm-32-18.711a1.5,1.5,0,0,0,1.5-1.5v-1.2a4,4,0,0,1,2.5,3.7v.5h-8v-.5a4,4,0,0,1,2.5-3.7v1.2A1.5,1.5,0,0,0,397.413,183.307Zm11-1.711a1.5,1.5,0,0,0,1.5-1.5V176.6a4,4,0,0,1,2.5,3.7v4.5h-8v-4.5a4,4,0,0,1,2.5-3.7V180.1A1.5,1.5,0,0,0,408.414,181.6Zm11,1.711a1.5,1.5,0,0,0,1.5-1.5v-1.2a4,4,0,0,1,2.5,3.7v.5h-8v-.51a4,4,0,0,1,2.5-3.694v1.2A1.5,1.5,0,0,0,419.414,183.307Zm10,1.5h-3v-.5a6.987,6.987,0,0,0-11.19-5.594,6.992,6.992,0,0,0-13.62,0,6.952,6.952,0,0,0-4.19-1.406h0a7.008,7.008,0,0,0-7,7v.5h-3V170.913h42Zm-32-18.4a1.5,1.5,0,0,0,1.5-1.5v-1.2a4,4,0,0,1,2.5,3.7v.5h-8v-.5a4,4,0,0,1,2.5-3.7v1.2A1.5,1.5,0,0,0,397.413,166.412Zm11-1.711a1.5,1.5,0,0,0,1.5-1.5v-3.492a4,4,0,0,1,2.5,3.7v4.5h-8v-4.5a4,4,0,0,1,2.5-3.7V163.2A1.5,1.5,0,0,0,408.414,164.7Zm11,1.711a1.5,1.5,0,0,0,1.5-1.5v-1.2a4,4,0,0,1,2.5,3.7v.5h-8V167.4a4,4,0,0,1,2.5-3.694v1.2A1.5,1.5,0,0,0,419.414,166.412Zm16,37.106a1.5,1.5,0,0,1-3,0v-40.5a1.5,1.5,0,0,0-3,0v4.895h-3v-.5a6.987,6.987,0,0,0-11.19-5.594,6.992,6.992,0,0,0-13.62,0,6.953,6.953,0,0,0-4.19-1.407h0a7.009,7.009,0,0,0-7,7v.5h-3V154.018h42v3h.011c0,.04-.011.077-.011.118a1.5,1.5,0,1,0,3,0c0-.041-.009-.078-.012-.118h.011v-4.5a1.5,1.5,0,1,1,3,0Z" transform="translate(-378.414 -148.018)"/>
</svg>
