<svg xmlns="http://www.w3.org/2000/svg" width="60" height="60" viewBox="0 0 60 60">
  <g id="Group_12502" data-name="Group 12502" transform="translate(-728 -532.401)">
    <path id="Path_30956" data-name="Path 30956" d="M756.625,565.495h-19.25a1.5,1.5,0,0,0,0,3h19.25a1.5,1.5,0,0,0,0-3Z" />
    <path id="Path_30957" data-name="Path 30957" d="M756.625,572.848h-19.25a1.5,1.5,0,0,0,0,3h19.25a1.5,1.5,0,0,0,0-3Z" />
    <path id="Path_30958" data-name="Path 30958" d="M756.625,580.2h-19.25a1.5,1.5,0,0,0,0,3h19.25a1.5,1.5,0,0,0,0-3Z" />
    <path id="Path_30959" data-name="Path 30959" d="M746.328,551.885a1.5,1.5,0,0,0-1.5,1.5l.01.261a4.835,4.835,0,0,0,3.662,4.834v.967a1.5,1.5,0,0,0,3,0v-.964a4.967,4.967,0,0,0,2.15-1.218,4.767,4.767,0,0,0,1.522-3.572,4.611,4.611,0,0,0-1.191-3.212,6.292,6.292,0,0,0-2.892-1.694l-1.142-.34a5.486,5.486,0,0,1-.978-.4,1.344,1.344,0,0,1-.785-1.268,1.463,1.463,0,0,1,.531-1.263,1.965,1.965,0,0,1,3.023.618,1.547,1.547,0,0,0,1.5,1.5,1.5,1.5,0,0,0,1.5-1.5,4.487,4.487,0,0,0-3.238-3.766v-.922a1.5,1.5,0,0,0-3,0v.994a4.7,4.7,0,0,0-1.835,1.047,4.394,4.394,0,0,0-1.435,3.35,3.944,3.944,0,0,0,1.385,3.209,5.609,5.609,0,0,0,1.368.794,12.827,12.827,0,0,0,1.541.54c.443.132.814.257,1.092.37a4.141,4.141,0,0,1,.871.489,1.776,1.776,0,0,1,.731,1.51,2.023,2.023,0,0,1-.634,1.518,2.087,2.087,0,0,1-1.531.609,1.918,1.918,0,0,1-2.225-1.893v-.6A1.5,1.5,0,0,0,746.328,551.885Z" />
    <path id="Path_30960" data-name="Path 30960" d="M786.369,571.048l-.005-.017A19.842,19.842,0,0,1,777.5,574.2c-.7.07-1.363.1-2.01.124-.375-.018-2.854-.185-3.747-1.841-.147-.874,2.977-2.034,5.444-2.652,2.941-.739,3.493-3.9,3.376-5.469l-1.14-1.8,3.788-8.019c1.214.008,2.312.054,3.184.113a1.5,1.5,0,1,0,.206-3c-.578-.04-1.253-.073-1.981-.1l2.984-6.318a4.1,4.1,0,0,0-1.933-5.479l-1.571-.744a4.1,4.1,0,0,0-5.52,1.913l-2.952,6.251L773,552.737c-.338.094-.669.206-1,.315V539.113a6.712,6.712,0,0,0-6.713-6.712H734.713A6.712,6.712,0,0,0,728,539.113v46.575a6.713,6.713,0,0,0,6.713,6.713h30.574A6.713,6.713,0,0,0,772,585.688v-7.415l.642-1.359a24.544,24.544,0,0,0,3.883.335c.092,0,.165.023.258.023a15.1,15.1,0,0,0,2.5-.226c.04-.006.08-.007.12-.014.185-.032.346-.068.509-.1a25.1,25.1,0,0,0,7.324-2.919,1.538,1.538,0,0,0,.766-1.322v-.765C788,570.1,786.369,571.048,786.369,571.048Zm-15.157-14.521-6.6,13.969c-.478-1.47-.588-4.315,1.757-9.531A9.146,9.146,0,0,1,771.212,556.527ZM769,585.688a3.717,3.717,0,0,1-3.713,3.713H734.713A3.718,3.718,0,0,1,731,585.688V539.113a3.717,3.717,0,0,1,3.713-3.712h30.574A3.716,3.716,0,0,1,769,539.113v15.194a11.528,11.528,0,0,0-5.365,5.428c-3.157,7.019-2.479,10.9-1.352,12.925a5.78,5.78,0,0,0,.793,1.093l-.817,1.729a2.025,2.025,0,0,0-.171,1.158l-1.237,6.807a2.022,2.022,0,0,0,1.137,1.532l2.151,1.016a2.023,2.023,0,0,0,1.906-.095L769,582.41Zm-.177-14.017a2.62,2.62,0,0,0,.177,2.046V577.6l-.285.6-3.768,4.856-1.206-.57,1.357-5.994.427-.9,2.135-4.521,7.606-16.1,3.925-8.31h0l.17-.36.073-.154,1.838-3.891a1.1,1.1,0,0,1,1.544-.519l1.492.705a1.1,1.1,0,0,1,.581,1.523l-1.5,3.174-4.537,9.611-5.246,11.129C771.68,568.664,769.391,569.937,768.823,571.671Z" />
  </g>
</svg>
