<svg xmlns="http://www.w3.org/2000/svg" width="442.027" height="332.344" viewBox="0 0 442.027 332.344">
  <g id="Group_17586" data-name="Group 17586" transform="translate(-32.299 -71.853)">
    <path id="Path_32950" data-name="Path 32950" d="M108.046,386.683S53,347.485,37.156,280.766,45.5,133.147,91.366,92.281,219.8,78.937,256.5,113.131l36.7,34.194s35.028,19.182,80.9,17.514,86.736,60.882,97.578,110.088-15.012,114.259-15.012,114.259Z" transform="translate(0 0)" fill="#ddecff"/>
    <path id="Path_32951" data-name="Path 32951" d="M83.02,396.673s-38.364-20.849-48.372-69.221,33.36-92.575,37.53-116.761-5-54.21,33.361-77.562,106.752-15.012,132.606-20.85,55.878-45.87,107.585-36.7,101.749,36.7,104.251,96.744-16.68,61.717,2.5,94.243,26.688,55.043,17.515,88.4-28.356,42.534-28.356,42.534Z" transform="translate(0.007 0.018)" fill="#ddecff" style="mix-blend-mode: multiply;isolation: isolate"/>
    <path id="Path_32952" data-name="Path 32952" d="M162.253,384.87c-2.386-2.5-37.388-72.558,1.591-136.776s136.824-56.711,175.8-31.692,58.072,57.546,62.048,91.741-22.273,87.569-22.273,87.569Z" transform="translate(0.878 0.979)" fill="#ddecff" style="mix-blend-mode: multiply;isolation: isolate"/>
    <g id="Group_17513" data-name="Group 17513" transform="translate(387.575 235.382)">
      <g id="Group_17507" data-name="Group 17507">
        <rect id="Rectangle_8940" data-name="Rectangle 8940" width="55.044" height="32.526" rx="5" fill="#60a8ff"/>
        <path id="Path_32953" data-name="Path 32953" d="M412.208,279.151l7.126-16.888H405.082Z" transform="translate(-384.686 -233.906)" fill="#60a8ff"/>
      </g>
      <g id="Group_17512" data-name="Group 17512" transform="translate(10.234 3.844)">
        <g id="Group_17510" data-name="Group 17510" transform="translate(17.117 1.44)">
          <g id="Group_17508" data-name="Group 17508">
            <path id="Path_32954" data-name="Path 32954" d="M411.984,244.762h12.872v1.883l6.31-3.638-6.31-3.638v1.883H411.984Z" transform="translate(-411.984 -239.368)" fill="#223a7a"/>
          </g>
          <g id="Group_17509" data-name="Group 17509" transform="translate(0 10.911)">
            <path id="Path_32955" data-name="Path 32955" d="M431.166,252.079H418.295V250.2l-6.31,3.638,6.31,3.638v-1.883h12.872Z" transform="translate(-411.984 -250.196)" fill="#fff"/>
          </g>
        </g>
        <g id="Group_17511" data-name="Group 17511">
          <path id="Path_32956" data-name="Path 32956" d="M404.215,255.475l-.613.223a19.474,19.474,0,0,1-2.9-4.555,16.344,16.344,0,0,1-1.026-5.276l.447-.186-2.721-6.514a5.335,5.335,0,0,0-1.322,1.5c-1.541,2.6-1.388,6.6.162,10.5s3.206,7.384,6.228,9.573a5.973,5.973,0,0,0,4.5,1.33Z" transform="translate(-394.998 -237.93)" fill="#223a7a"/>
          <path id="Path_32957" data-name="Path 32957" d="M406.09,254.59l-.846.307,2.786,6.669a4.977,4.977,0,0,0,.841-.364,1.623,1.623,0,0,0,.733-2.022l-1.455-3.667A1.62,1.62,0,0,0,406.09,254.59Z" transform="translate(-394.919 -237.811)" fill="#223a7a"/>
          <path id="Path_32958" data-name="Path 32958" d="M399.5,238.034a6.444,6.444,0,0,0-1.091.513l2.779,6.652.936-.391a1.62,1.62,0,0,0,.885-2.083l-1.461-3.751A1.616,1.616,0,0,0,399.5,238.034Z" transform="translate(-394.972 -237.939)" fill="#223a7a"/>
        </g>
      </g>
    </g>
    <g id="Group_17514" data-name="Group 17514" transform="translate(150.113 269.921)">
      <path id="Path_32959" data-name="Path 32959" d="M149.222,373.067v-75.06s-.834-20.225,9.8-26.062,55.462-2.71,55.462-2.71V373.067Z" transform="translate(-149.207 -268.397)" fill="#1c83ff"/>
    </g>
    <g id="Group_17551" data-name="Group 17551" transform="translate(157.874 138.29)">
      <g id="Group_17515" data-name="Group 17515" transform="translate(61.511 62.203)">
        <path id="Path_32960" data-name="Path 32960" d="M227.954,199.5s-2.711,22.726-3.753,24.6l-1.042,1.876-5.213,3.545S227.954,243.7,240.256,246s11.259-5,11.259-5l-1.876-3.961,2.5-21.684S229.83,205.133,227.954,199.5Z" transform="translate(-217.946 -199.504)" fill="#ff9d8c"/>
      </g>
      <path id="Path_32961" data-name="Path 32961" d="M211.532,231.186l8.132-3.545s5.213,8.549,17.306,13.553,12.3,2.085,12.926,0a7.926,7.926,0,0,0-.209-4.379l.895-7.3,4.836,1.611,16.787,135.792L229.047,369Z" transform="translate(-156.485 -137.083)" fill="#fff"/>
      <g id="Group_17516" data-name="Group 17516" transform="translate(94.872 92.573)">
        <path id="Path_32962" data-name="Path 32962" d="M251.05,229.641s2.918,6.742,5.629,22.588,5.212,42.534,5.838,60.882,1.042,60.256,1.042,60.256h54.419c.626,0,4.379-20.642,4.379-20.642s-23.769-20.364-25.019-23.7c-.834-2.224-.417-43.437-3.961-62.411s-8.132-22.8-17.723-27.522C265.74,234.209,251.05,229.641,251.05,229.641Z" transform="translate(-251.05 -229.641)" fill="#223a7a"/>
      </g>
      <g id="Group_17517" data-name="Group 17517" transform="translate(121.681 125.082)">
        <path id="Path_32963" data-name="Path 32963" d="M279.2,349.227a.5.5,0,0,1-.5-.5c0-1.49-.265-22.67-.521-43.153s-.521-41.668-.521-43.166a.5.5,0,1,1,1.008,0c0,1.49.265,22.67.52,43.153s.522,41.668.522,43.166A.5.5,0,0,1,279.2,349.227Z" transform="translate(-277.653 -261.9)" fill="#8593b6"/>
      </g>
      <g id="Group_17518" data-name="Group 17518" transform="translate(14.39 207.314)">
        <path id="Path_32964" data-name="Path 32964" d="M171.6,343.5l-.417,28.981h63.384s2.711-24.6,1.668-26.9S171.6,343.5,171.6,343.5Z" transform="translate(-171.187 -343.499)" fill="#223a7a"/>
      </g>
      <g id="Group_17519" data-name="Group 17519" transform="translate(73.262 64.661)" style="mix-blend-mode: multiply;isolation: isolate">
        <path id="Path_32965" data-name="Path 32965" d="M241.694,223.462a33.129,33.129,0,0,0,8.868,4.763l1.487-12.894s-16.758-7.677-22.444-13.388C230.794,208.432,233.717,217.031,241.694,223.462Z" transform="translate(-229.606 -201.943)" fill="#8e9bbb"/>
      </g>
      <g id="Group_17520" data-name="Group 17520" transform="translate(67.885 15.208)">
        <path id="Path_32966" data-name="Path 32966" d="M271.69,157.54a45.118,45.118,0,0,1,5.213,16.679c.833,9.175,0,32.735-7.506,42.743s-23.144,7.09-30.232,1.043c-6.506-5.55-12.927-11.677-14.6-23.77s3.544-35.027,18.348-39.823S271.69,157.54,271.69,157.54Z" transform="translate(-224.271 -152.87)" fill="#ff9d8c"/>
      </g>
      <g id="Group_17528" data-name="Group 17528" transform="translate(79.242 205.617)">
        <g id="Group_17521" data-name="Group 17521">
          <path id="Path_32967" data-name="Path 32967" d="M290.412,359.39s-.736,0-1.854-.03c-.262-.01-.554,0-.857-.01-1.078-.03-2.388-.06-3.709-.1l-.887-.03c-1.31-.03-2.429.131-3.477.071h-.03c-.222-.01-.544.02-.806.03a1.961,1.961,0,0,1-.333.01,4.9,4.9,0,0,1-1.381-.544,93.743,93.743,0,0,0-21.626-2.882c-9.312.04-17.666.675-19.026-.464-1.371-1.159-2.2-12.859,5.754-13.625l9.775,3.708s22.322-2.65,30.5,3.386C290.664,354.946,290.412,359.39,290.412,359.39Z" transform="translate(-235.541 -341.815)" fill="#ff9d8c"/>
        </g>
        <g id="Group_17523" data-name="Group 17523" transform="translate(31.289 10.846)">
          <g id="Group_17522" data-name="Group 17522">
            <path id="Path_32968" data-name="Path 32968" d="M279.358,359.206c-.222-.01-.544.02-.806.03a9.454,9.454,0,0,0-.857-1.149c-2.519-2.57-8.606-4.233-10.813-4.767a.379.379,0,0,1-.282-.453.387.387,0,0,1,.464-.282c3.215.776,10.037,2.761,11.972,6.016C279.1,358.692,279.257,359,279.358,359.206Z" transform="translate(-266.589 -352.577)" fill="#223a7a"/>
          </g>
        </g>
        <g id="Group_17525" data-name="Group 17525" transform="translate(34.166 8.309)">
          <g id="Group_17524" data-name="Group 17524">
            <path id="Path_32969" data-name="Path 32969" d="M283.732,359.184c-.292-.007-.595-.014-.886-.031-2.751-5.017-7.252-6.457-12.814-8.245l-.33-.109a.387.387,0,0,1-.241-.48.382.382,0,0,1,.48-.241l.32.109C276.144,352.074,280.875,353.591,283.732,359.184Z" transform="translate(-269.444 -350.06)" fill="#223a7a"/>
          </g>
        </g>
        <g id="Group_17527" data-name="Group 17527" transform="translate(37.348 6.039)">
          <g id="Group_17526" data-name="Group 17526">
            <path id="Path_32970" data-name="Path 32970" d="M288.272,359.314c-.262-.006-.554,0-.857-.011a21.979,21.979,0,0,0-14.5-10.747.378.378,0,0,1-.311-.44.39.39,0,0,1,.44-.3C280.574,349.227,286.644,355.372,288.272,359.314Z" transform="translate(-272.602 -347.808)" fill="#223a7a"/>
          </g>
        </g>
      </g>
      <g id="Group_17529" data-name="Group 17529" transform="translate(58.155)">
        <path id="Path_32971" data-name="Path 32971" d="M229.648,184.032a19.516,19.516,0,0,0,7.819-8.34,23.725,23.725,0,0,0,2.815-11.676s5.838-.938,14.6,1.668,19.182,6.15,27.939,1.147,8.757-13.031,4.483-16.368c-4.787-3.736-14.282-1.459-14.282-1.459s3.648-3.544,1.668-5.629-9.174.626-9.174.626-8.757-6.985-25.333-6.151-24.5,12.406-25.438,25.333,3.753,25.854,3.753,25.854Z" transform="translate(-214.616 -137.779)" fill="#223a7a"/>
      </g>
      <g id="Group_17531" data-name="Group 17531" transform="translate(102.53 49.132)" style="mix-blend-mode: multiply;isolation: isolate">
        <g id="Group_17530" data-name="Group 17530">
          <path id="Path_32972" data-name="Path 32972" d="M262.935,186.787c-.939,2.316-.916,5-1.153,7.462-.184,1.912-.535,4.141,1.216,5.432.837.617,4.795,2.28,2.759,3.627a5.351,5.351,0,0,1-2.96.333c-.609-.028-1.223-.054-1.831-.1-.654-.048-1.295-.246-1.949-.249a.381.381,0,0,0-.19.7,8.231,8.231,0,0,0,3.823.91,5.782,5.782,0,0,0,3.165-.557,2.266,2.266,0,0,0,1.445-1.622,2.587,2.587,0,0,0-1.245-2.232c-.789-.584-1.755-.857-2.552-1.426-1.1-.791-1.014-2.122-.936-3.354.186-2.965.869-5.878,1.134-8.829.04-.451-.584-.451-.728-.1Z" transform="translate(-258.649 -186.534)" fill="#8e9bbb"/>
        </g>
      </g>
      <g id="Group_17532" data-name="Group 17532" transform="translate(110.684 52.704)">
        <path id="Path_32973" data-name="Path 32973" d="M271.395,193.693c-.311,1.758-1.589,3-2.856,2.776s-2.041-1.83-1.729-3.588,1.589-3,2.856-2.777S271.706,191.935,271.395,193.693Z" transform="translate(-266.741 -190.078)" fill="#223a7a"/>
      </g>
      <g id="Group_17533" data-name="Group 17533" transform="translate(94.385 51.105)">
        <path id="Path_32974" data-name="Path 32974" d="M255.566,192.312c-.282,1.9-1.618,3.268-2.984,3.066s-2.245-1.906-1.963-3.8,1.618-3.268,2.985-3.066S255.849,190.417,255.566,192.312Z" transform="translate(-250.567 -188.491)" fill="#223a7a"/>
      </g>
      <g id="Group_17535" data-name="Group 17535" transform="translate(110.909 46.572)">
        <g id="Group_17534" data-name="Group 17534">
          <path id="Path_32975" data-name="Path 32975" d="M267.68,186.5c.973.164,1.957,0,2.94.066.237.017.471.051.705.074.167.016-.312-.049-.08-.01.05.008.1.015.151.024.123.022.246.047.367.077.21.051.412.13.622.176a2.393,2.393,0,0,0,.594.077l.321-.043-.2.036a1.946,1.946,0,0,0,.4-.042,1.084,1.084,0,0,0,.748-1.317,1.258,1.258,0,0,0-.213-.425c-.041-.054-.084-.109-.127-.162l.118.135c-.041-.058-.085-.116-.13-.171a.629.629,0,0,0-.223-.223c-.078-.06-.155-.123-.236-.179a2.865,2.865,0,0,0-.9-.363,7.36,7.36,0,0,0-1.792-.23,12.454,12.454,0,0,0-1.774.141,3.41,3.41,0,0,0-1.521.562,1.006,1.006,0,0,0-.47.981.968.968,0,0,0,.705.818Z" transform="translate(-266.964 -183.993)" fill="#223a7a"/>
        </g>
      </g>
      <g id="Group_17537" data-name="Group 17537" transform="translate(91.598 45.141)">
        <g id="Group_17536" data-name="Group 17536">
          <path id="Path_32976" data-name="Path 32976" d="M256.707,183.717a4.1,4.1,0,0,0-.407-.211c-.119-.054-.441-.223-.2-.09-.089-.048-.177-.1-.267-.143a6.1,6.1,0,0,0-1.26-.45,8.355,8.355,0,0,0-2.928-.2,6.817,6.817,0,0,0-2.893.9,1.846,1.846,0,0,0-.364.258c-.072.091-.142.182-.211.275l.059-.091a1.025,1.025,0,0,0-.437.85.847.847,0,0,0,.45.75,1.277,1.277,0,0,0,1.013.009h-.527a1.892,1.892,0,0,0,.785-.008c.011,0,.281-.07.1-.032s.284-.034.334-.041.371-.039.039-.007c.061-.006.122-.014.182-.021.158-.02.314-.039.473-.051.688-.055,1.375-.086,2.064-.109.64-.021,1.292-.026,1.931,0,.274.011.547.021.821.028.155,0,.089.028-.016-.005.055.018.115.028.171.044.114.031.226.069.337.111a.96.96,0,0,0,1.142-.561.972.972,0,0,0-.4-1.209Z" transform="translate(-247.801 -182.574)" fill="#223a7a"/>
        </g>
      </g>
      <g id="Group_17538" data-name="Group 17538" transform="translate(97.246 70.621)">
        <path id="Path_32977" data-name="Path 32977" d="M261.613,212.5a9.429,9.429,0,0,1,4.71-4.241c-1.747-.177-9.995-.941-12.076.241-2.332,1.323.43,6.639,5.252,6.906a6.588,6.588,0,0,0,1.406-.082A6.961,6.961,0,0,1,261.613,212.5Z" transform="translate(-253.406 -207.858)" fill="#223a7a"/>
      </g>
      <g id="Group_17539" data-name="Group 17539" transform="translate(67.349 63.245)">
        <path id="Path_32978" data-name="Path 32978" d="M223.739,201.371s.834,3.232,5.629,6.986a55.6,55.6,0,0,0,11.746,6.5l.555-2.433s-7.193-3.127-10.529-6.568-3.753-5.317-3.753-5.317Z" transform="translate(-223.739 -200.538)" fill="#dee1eb"/>
      </g>
      <g id="Group_17540" data-name="Group 17540" transform="translate(82.819 73.323)">
        <path id="Path_32979" data-name="Path 32979" d="M242.385,210.546a6.028,6.028,0,0,1,6.282,4.846c.269,1.974-1.585,4.187-5.924,2.243C237.356,215.22,238.527,210.725,242.385,210.546Z" transform="translate(-239.09 -210.538)" fill="#223a7a"/>
      </g>
      <g id="Group_17541" data-name="Group 17541" transform="translate(61.72 0.68)">
        <path id="Path_32980" data-name="Path 32980" d="M226.806,177.98s1.667-11.982,9.7-20.121c15.325-15.532,28.356-14.594,28.356-14.594s-.1-2.19-5-3.858c-4.6-1.566-6.671-.73-6.671-.73s-12.615,1.042-23.248,12.823-11.781,26.792-11.781,26.792Z" transform="translate(-218.153 -138.455)" fill="#dee1eb"/>
      </g>
      <g id="Group_17544" data-name="Group 17544" transform="translate(53.15 38.512)">
        <g id="Group_17542" data-name="Group 17542">
          <path id="Path_32981" data-name="Path 32981" d="M225.725,176.23c-10.039-1.7-15.637,6.15-16.054,14.073s5.34,13.946,13.031,13.345C240.007,202.292,238.026,178.315,225.725,176.23Z" transform="translate(-209.649 -175.995)" fill="#fff"/>
        </g>
        <g id="Group_17543" data-name="Group 17543" transform="translate(3.953 4.344)">
          <path id="Path_32982" data-name="Path 32982" d="M220.7,195.914a6.84,6.84,0,0,1-6.17-3.677,7.624,7.624,0,0,1,.293-7.879.378.378,0,1,1,.625.425,6.864,6.864,0,0,0-.255,7.092,6.076,6.076,0,0,0,5.7,3.28,6.614,6.614,0,0,0,5.474-2.955,8.353,8.353,0,0,0,.826-7.4,5.636,5.636,0,0,0-5.624-3.7.378.378,0,0,1-.1-.749,6.319,6.319,0,0,1,6.429,4.178,9.129,9.129,0,0,1-.9,8.093,7.355,7.355,0,0,1-6.082,3.29C220.837,195.913,220.766,195.914,220.7,195.914Z" transform="translate(-213.571 -180.306)" fill="#818fb3"/>
        </g>
      </g>
      <g id="Group_17545" data-name="Group 17545" transform="translate(0 91.184)">
        <path id="Path_32983" data-name="Path 32983" d="M213.832,228.262s-30.441,7.506-41.074,19.6-15.637,71.725-15.846,82.775,7.506,15.637,12.093,18.765,24.811,8.757,41.074,9.591,31.693,0,31.693,0-.052-3.544,2.45-8.756c2.32-4.835,5.264-5.838,5.264-5.838l-13.969-5s-2.447-43.831-6.255-65.052C224.883,249.946,213.832,228.262,213.832,228.262Z" transform="translate(-156.908 -228.262)" fill="#223a7a"/>
      </g>
      <g id="Group_17546" data-name="Group 17546" transform="translate(98.745 93.704)">
        <path id="Path_32984" data-name="Path 32984" d="M263.529,332.37a.487.487,0,0,1-.2-.043.5.5,0,0,1-.257-.664c2.852-6.434,5.808-19.069,7.471-27.932l.137-.716c.5-2.607,1.131-5.85-.12-8.088-.638-1.142-2.078-3.619-3.464-6-1.438-2.472-2.8-4.807-3.173-5.5-.734-1.362,1.578-5,4.925-9.985.9-1.348,1.685-2.511,2.14-3.3,1.192-2.064.4-3.954-.521-6.144l-.312-.754c-.833-2.046-1.782-4.1-2.7-6.078-.374-.81-.749-1.621-1.118-2.437q-.735-1.616-1.478-3.282a192.36,192.36,0,0,0-9.9-19.92.5.5,0,0,1,.867-.515,193.123,193.123,0,0,1,9.948,20.023q.745,1.661,1.476,3.279.553,1.218,1.115,2.43c.921,1.991,1.873,4.052,2.715,6.12l.309.744c.938,2.232,1.908,4.541.464,7.038-.473.817-1.262,1.994-2.176,3.357-1.745,2.6-5.376,8.015-4.875,8.944.369.683,1.723,3.012,3.157,5.477,1.389,2.387,2.833,4.87,3.473,6.015,1.431,2.56.765,6,.231,8.77l-.137.71c-.607,3.228-3.817,19.755-7.541,28.155A.5.5,0,0,1,263.529,332.37Z" transform="translate(-254.894 -230.763)" fill="#8593b6"/>
      </g>
      <g id="Group_17547" data-name="Group 17547" transform="translate(51.909 92.035)">
        <path id="Path_32985" data-name="Path 32985" d="M234.178,334.156a.5.5,0,0,1-.357-.148c-2.37-2.387-13.8-22.171-14.646-25.892-.466-2.037.7-7.2,1.834-12.2.876-3.871,1.782-7.874,1.524-8.957-.385-1.619-3.306-4.006-6.132-6.315-3.413-2.787-6.942-5.671-7.626-8.269-.777-2.952-.113-21.431.327-33.658.158-4.4.282-7.87.282-9.108a.5.5,0,0,1,.5-.5h0a.5.5,0,0,1,.5.5c0,1.258-.125,4.738-.283,9.145-.41,11.429-1.1,30.557-.359,33.367.6,2.279,4.154,5.182,7.289,7.744,3.092,2.525,6.011,4.911,6.475,6.863.311,1.31-.538,5.064-1.522,9.41-1.054,4.66-2.248,9.938-1.834,11.753.834,3.647,12.051,23.06,14.378,25.405a.5.5,0,0,1-.358.859Z" transform="translate(-208.417 -229.107)" fill="#8593b6"/>
      </g>
      <g id="Group_17548" data-name="Group 17548" transform="translate(36.196 128.565)">
        <path id="Path_32986" data-name="Path 32986" d="M193.33,325.222a.583.583,0,0,1-.072-.005.5.5,0,0,1-.428-.569c.37-2.621,6.154-54.822,6.419-58.82a.5.5,0,0,1,.536-.47.5.5,0,0,1,.47.536c-.266,4-6.057,56.271-6.427,58.9A.5.5,0,0,1,193.33,325.222Z" transform="translate(-192.825 -265.356)" fill="#8593b6"/>
      </g>
      <g id="Group_17549" data-name="Group 17549" transform="translate(25.562 183.253)">
        <path id="Path_32987" data-name="Path 32987" d="M234.9,338.98a.5.5,0,0,1-.189-.037c-1.282-.519-6.944-2.43-14.114-4.846-14.469-4.881-34.287-11.563-38.055-13.521a.5.5,0,0,1,.465-.894c3.7,1.922,24.288,8.865,37.913,13.46,7.184,2.424,12.86,4.336,14.17,4.867a.5.5,0,0,1-.189.971Z" transform="translate(-182.274 -319.623)" fill="#8593b6"/>
      </g>
      <g id="Group_17550" data-name="Group 17550" transform="translate(14.721 213.487)">
        <path id="Path_32988" data-name="Path 32988" d="M228.028,359.533c-12.734,0-37.422-2.3-56.176-8.93a.5.5,0,0,1,.336-.95c23.691,8.38,56.835,9.811,63,8.427a.5.5,0,0,1,.221.985A40.223,40.223,0,0,1,228.028,359.533Z" transform="translate(-171.515 -349.624)" fill="#8593b6"/>
      </g>
    </g>
    <g id="Group_17560" data-name="Group 17560" transform="translate(65.814 199.986)">
      <g id="Group_17559" data-name="Group 17559">
        <g id="Group_17552" data-name="Group 17552">
          <path id="Path_32989" data-name="Path 32989" d="M83,235.52c3.954,3.477,8.961,5.706,12.43,9.727,1.366,1.582,2.592,3.266,3.859,4.925.922,1.207,3.384,3.21,3.784,4.727.176.668.139-.237-.038-.907-.007-.029-.022-.055-.03-.084-.346-3.073-.594-6.157-.7-9.248s.085-6.179-.109-9.255c-.272-4.342-1.628-8.547-5.177-11.268-1.734-1.329-3.964-2.138-5.559-3.614-1.514-1.4-.907-3.005-.017-4.567a15.56,15.56,0,0,0,2.168-4.581,8.088,8.088,0,0,0-1.321-5.514c-2.064-3.466-6.643-7.331-10.979-6.813-3.617.433-4.027,4.6-3.976,7.511.05,2.826.331,5.642.358,8.47.027,2.9-.467,5.754-.508,8.645C77.116,228.592,79.389,232.34,83,235.52Z" transform="translate(-65.466 -199)" fill="#6baeff"/>
          <path id="Path_32990" data-name="Path 32990" d="M119.826,280.488a46.407,46.407,0,0,1,3.916-7.466c2.13-3.276,4.493-6.468,5.924-10.135,1.461-3.745,1.247-7.75,1.391-11.693.1-2.9.966-5.789.734-8.694-.111-1.394-.914-3.648-2.717-3.417-1.4.179-2.236,1.919-2.775,3.028a53.333,53.333,0,0,0-2.293,6.034c-.272.8-.533,1.6-.878,2.371-.2.446-.838,1.536-1.441,1.387-1.024-.254-.094-4.436.058-5.177.766-3.72,1.917-7.178,2.077-11.007.232-5.551-.2-12.159-5.629-15.194-1.419-.793-3.217-1.266-4.565-.08-1.33,1.171-1.706,3.2-1.9,4.87-.607,5.126.6,9.981,2.243,14.8,1.356,3.983,2.973,8.092,3.091,12.351.113,4.1-2.02,7.732-3.02,11.6a36.71,36.71,0,0,0-1.274,11.443c-.01,2.5.081,4.98.264,7.478.168,2.3.368,4.59.648,6.875.057.462.11.944.171,1.427-.882-2.123-1.19-4.555-1.92-6.689-1.3-3.792-2.806-7.507-4.051-11.318a93.651,93.651,0,0,0-3.359-9.347c-1.275-2.84-2.814-5.843-5.191-7.927a7.574,7.574,0,0,0-5.1-1.982,14.1,14.1,0,0,0-3.508.746,3.946,3.946,0,0,1-3.769-.663c-3.891-2.991-5.074-8.353-7.955-12.14-2.149-2.825-7.246-7.64-10.995-4.559-1.987,1.634-2.536,4.792-2.432,7.211a17.478,17.478,0,0,0,3.038,8.353c1.681,2.7,3.851,5.117,5.4,7.893a8.378,8.378,0,0,1,.911,5.062,12.072,12.072,0,0,0,.305,5.11C77,276.1,82.572,275.393,86.9,275.524a32.423,32.423,0,0,1,9.161,1.513,10.185,10.185,0,0,1,6.678,6.575c.86,2.38,1.32,5.084,2.941,7.106a7.557,7.557,0,0,0,2.88,2.145c1.689.747,6.84,1.071,6.877.6a23.186,23.186,0,0,1,1.342-4.731C117.66,285.929,118.691,283.2,119.826,280.488Z" transform="translate(-65.556 -198.84)" fill="#6baeff"/>
          <path id="Path_32991" data-name="Path 32991" d="M143.362,279.146c-.448-2.886-.362-6.067-1.728-8.717a.4.4,0,0,0-.533-.14c-.98.543-1.02,2.125-1.1,3.095-.132,1.608-.033,3.221-.232,4.824a36.065,36.065,0,0,1-2.013,8.378,9.008,9.008,0,0,1-6.27,5.646A15.864,15.864,0,0,0,126,294.653a11.539,11.539,0,0,0-3.219,4.438c-2.026,4.541-2.99,9.618-3.929,14.47-.632,3.267-1.148,6.549-1.941,9.783a96.008,96.008,0,0,0-2.1,9.751c-.077.166-.158.332-.229.5-.208.494.564.76.831.35,3.131-4.819,6.945-9.146,12.149-11.8,2.35-1.2,5.472-1.447,7.432-3.331,1.491-1.433,1.7-3.62,1.473-5.569-.293-2.561-1.52-4.668-2.8-6.851-.7-1.2-1.531-2.483-1.248-3.939a5.079,5.079,0,0,1,2.544-3.089c2.164-1.343,4.693-1.947,6.465-3.883a10.616,10.616,0,0,0,2.74-6.459A44.542,44.542,0,0,0,143.362,279.146Z" transform="translate(-65.176 -198.448)" fill="#6baeff"/>
          <path id="Path_32992" data-name="Path 32992" d="M100.909,295.676a41.527,41.527,0,0,0-9.851-9.12c-2-1.33-6.725-3.953-7.678-.031-.558,2.3,1.691,4.56,3.171,6,2.225,2.166,4.8,4.034,6.676,6.529-2.325.743-4.754.887-6.773,2.494-2.391,1.9-3.464,5.577-1.093,7.908a15.042,15.042,0,0,0,4.127,2.529c1.87.906,3.775,1.727,5.693,2.527,4.14,1.729,8.331,3.484,11.861,6.317,3.6,2.886,6.981,7.767,7.266,12.476.028.449-.143.04.126-.165.146.132.639-.1.637-.367a49.672,49.672,0,0,0-4.185-20.043A83.717,83.717,0,0,0,100.909,295.676Z" transform="translate(-65.419 -198.338)" fill="#6baeff"/>
        </g>
        <g id="Group_17553" data-name="Group 17553" transform="translate(25.913 31.82)">
          <path id="Path_32993" data-name="Path 32993" d="M91.3,231.041c1.524,3.162,3.118,6.253,4.81,9.339a74.9,74.9,0,0,1,4.474,9.086c1.5,3.9,3.074,7.745,4.66,11.61a114.53,114.53,0,0,1,4.3,12.3,145.738,145.738,0,0,1,4.869,25,101.557,101.557,0,0,1,.509,12.923c-.093,3.371-.473,6.706-.789,10.058a59.466,59.466,0,0,0-.275,10.519c.244,2.927.709,6.405,2.98,8.493a.522.522,0,0,0,.816-.63c-2.7-5.535-2.548-11.567-2.032-17.569.285-3.313.68-6.609.792-9.935A99.453,99.453,0,0,0,116,299.548a150.065,150.065,0,0,0-4.577-24.5,110.723,110.723,0,0,0-4.025-12.124c-1.57-3.975-3.384-7.839-4.906-11.833-2.751-7.223-6.945-13.627-10.659-20.358-.193-.35-.7-.042-.53.31Z" transform="translate(-91.27 -230.576)" fill="#43588e"/>
        </g>
        <g id="Group_17554" data-name="Group 17554" transform="translate(48.743 62.2)">
          <path id="Path_32994" data-name="Path 32994" d="M114.37,289.865c.436-5.259.9-10.324,2.676-15.342.827-2.34,1.829-4.615,2.627-6.965.659-1.941,1.646-4.6,1.138-6.668a.238.238,0,0,0-.456,0c-.34,1.179-.3,2.472-.546,3.68a32.556,32.556,0,0,1-.922,3.476c-.778,2.431-1.795,4.76-2.676,7.152a35.394,35.394,0,0,0-2.2,14.667.181.181,0,0,0,.362,0Z" transform="translate(-113.924 -260.722)" fill="#43588e"/>
        </g>
        <g id="Group_17555" data-name="Group 17555" transform="translate(18.69 60.769)">
          <path id="Path_32995" data-name="Path 32995" d="M84.123,259.65c2.088,5.044,8.364,5.335,12.935,6.464a12.122,12.122,0,0,1,7.4,5.812,44.406,44.406,0,0,1,4.229,10.176.031.031,0,0,0,.06-.017c-1.278-6.046-3.11-13.324-9.342-16.137-4.993-2.254-11.574-1.123-14.769-6.515-.157-.266-.645-.088-.518.218Z" transform="translate(-84.102 -259.302)" fill="#43588e"/>
        </g>
        <g id="Group_17556" data-name="Group 17556" transform="translate(45.876 90.44)">
          <path id="Path_32996" data-name="Path 32996" d="M111.092,288.85c.249.336.476.685.733,1.015a2.735,2.735,0,0,0,.416.447.966.966,0,0,0,.58.3.127.127,0,0,0,.109-.189,2,2,0,0,0-.435-.4c-.149-.132-.3-.261-.446-.4-.292-.276-.559-.576-.844-.859-.055-.054-.161.019-.112.086Z" transform="translate(-111.079 -288.745)" fill="#43588e"/>
        </g>
        <g id="Group_17557" data-name="Group 17557" transform="translate(32.751 106.082)">
          <path id="Path_32997" data-name="Path 32997" d="M98.139,304.73a50.832,50.832,0,0,1,9.563,10.286,62.187,62.187,0,0,1,3.483,5.729A63.916,63.916,0,0,1,114,327.384c.069.171.379.174.356-.047-.5-4.743-3.5-8.81-5.91-12.755a30.449,30.449,0,0,0-4.474-5.413,39.789,39.789,0,0,0-5.507-4.859c-.246-.173-.559.227-.323.42Z" transform="translate(-98.055 -304.267)" fill="#43588e"/>
        </g>
        <g id="Group_17558" data-name="Group 17558" transform="translate(50.765 100.923)">
          <path id="Path_32998" data-name="Path 32998" d="M126.676,299.185c-1.734.983-1.791,3.723-1.825,5.472-.064,3.361.767,6.517-.708,9.72-1.332,2.893-3.461,5.309-5.134,8-1.566,2.514-3.111,5.729-3.077,8.756,0,.175.27.273.352.095a36.5,36.5,0,0,0,1.309-4.375,18.366,18.366,0,0,1,2.137-4.514c1.609-2.5,3.587-4.767,4.894-7.45,1.376-2.829,1.175-5.63,1.083-8.695-.057-1.954-.254-5.094,1.323-6.547.247-.228-.07-.619-.354-.458Z" transform="translate(-115.93 -299.147)" fill="#43588e"/>
        </g>
      </g>
      <path id="Path_32999" data-name="Path 32999" d="M115.24,331.194c-6.986-.1-20.294-.173-20.294-.173l3.293,24.449a11.086,11.086,0,0,0,10.985,9.606h12.031a11.086,11.086,0,0,0,10.986-9.606l3.293-24.449S122.227,331.1,115.24,331.194Z" transform="translate(-65.328 -197.977)" fill="#fff"/>
    </g>
    <g id="Group_17566" data-name="Group 17566" transform="translate(220.241 285.352)">
      <g id="Group_17564" data-name="Group 17564">
        <g id="Group_17561" data-name="Group 17561" transform="translate(77.123 1.807)">
          <path id="Path_33000" data-name="Path 33000" d="M451.388,286.615l-39.858,78.952-116.2.834,35.862-80.9Z" transform="translate(-295.326 -285.504)" fill="#f6f7fa"/>
        </g>
        <g id="Group_17562" data-name="Group 17562">
          <path id="Path_33001" data-name="Path 33001" d="M218.8,365.924l.022-6.32h75.224l34.611-75.895h120.3l3.024,2.919H334.457L298.49,365.86S218.8,365.716,218.8,365.924Z" transform="translate(-218.796 -283.71)" fill="#d9dee8"/>
        </g>
        <g id="Group_17563" data-name="Group 17563" transform="translate(145.559 39.01)">
          <path id="Path_33002" data-name="Path 33002" d="M390.52,329.9c-1.313,3.938-8.438,6.98-15.914,6.792s-12.473-3.531-11.161-7.468,8.438-6.98,15.914-6.792S391.833,325.959,390.52,329.9Z" transform="translate(-363.235 -322.42)" fill="#d9dee8"/>
        </g>
      </g>
      <g id="Group_17565" data-name="Group 17565" transform="translate(79.19 2.416)">
        <path id="Path_33003" data-name="Path 33003" d="M297.881,366.345a.516.516,0,0,1-.209-.045.5.5,0,0,1-.25-.667l36.1-79.526H451.372a.5.5,0,1,1,0,1.008h-117.2L298.34,366.05A.5.5,0,0,1,297.881,366.345Z" transform="translate(-297.377 -286.107)" fill="#fff"/>
      </g>
    </g>
    <g id="Group_17568" data-name="Group 17568" transform="translate(70.099 367.501)">
      <g id="Group_17567" data-name="Group 17567" transform="translate(6.672 6.047)">
        <rect id="Rectangle_8941" data-name="Rectangle 8941" width="138.235" height="30.649" fill="#596b9b"/>
        <rect id="Rectangle_8942" data-name="Rectangle 8942" width="248.712" height="30.649" transform="translate(137.445)" fill="#7a89af"/>
      </g>
      <path id="Path_33004" data-name="Path 33004" d="M214.664,371.228H76.429v5.629H462.586v-5.629Z" transform="translate(-69.757 -365.181)" fill="#bdc4d7" style="mix-blend-mode: multiply;isolation: isolate"/>
      <rect id="Rectangle_8943" data-name="Rectangle 8943" width="150.954" height="7.506" fill="#6f7fa9"/>
      <rect id="Rectangle_8944" data-name="Rectangle 8944" width="248.712" height="7.506" transform="translate(150.164)" fill="#9ca6c3"/>
    </g>
    <g id="Group_17570" data-name="Group 17570" transform="translate(125.838 171.396)">
      <rect id="Rectangle_8945" data-name="Rectangle 8945" width="59.735" height="35.298" rx="5.426" transform="translate(0)" fill="#fff"/>
      <path id="Path_33005" data-name="Path 33005" d="M198.336,188.2l-18.328-7.734v15.467Z" transform="translate(-124.694 -170.554)" fill="#fff"/>
      <g id="Group_17569" data-name="Group 17569" transform="translate(14.915 14.273)">
        <circle id="Ellipse_933" data-name="Ellipse 933" cx="3.376" cy="3.376" r="3.376" fill="#223a7a"/>
        <circle id="Ellipse_934" data-name="Ellipse 934" cx="3.376" cy="3.376" r="3.376" transform="translate(11.577)" fill="#223a7a"/>
        <circle id="Ellipse_935" data-name="Ellipse 935" cx="3.376" cy="3.376" r="3.376" transform="translate(23.154)" fill="#223a7a"/>
      </g>
    </g>
    <g id="Group_17571" data-name="Group 17571" transform="translate(302.785 96.451)">
      <path id="Path_33006" data-name="Path 33006" d="M426.465,96.262H313.806a13.1,13.1,0,0,0-13.1,13.1v53.446a13.1,13.1,0,0,0,13.1,13.1h10.1c.283,4.844-.41,12.052-4.455,21.267a56.609,56.609,0,0,0,24.425-21.267h82.592a13.1,13.1,0,0,0,13.1-13.1V109.363A13.1,13.1,0,0,0,426.465,96.262Z" transform="translate(-300.705 -96.262)" fill="#60a8ff"/>
      <path id="Path_33007" data-name="Path 33007" d="M378.259,121.581H322.381a2.78,2.78,0,0,1-2.78-2.78h0a2.78,2.78,0,0,1,2.78-2.779h55.878a2.78,2.78,0,0,1,2.78,2.779h0A2.78,2.78,0,0,1,378.259,121.581Z" transform="translate(-300.559 -96.109)" fill="#fff"/>
      <path id="Path_33008" data-name="Path 33008" d="M418.326,137.633H321.3a1.7,1.7,0,0,1-1.7-1.7h0a1.7,1.7,0,0,1,1.7-1.7h97.022a1.7,1.7,0,0,1,1.7,1.7h0A1.7,1.7,0,0,1,418.326,137.633Z" transform="translate(-300.559 -95.968)" fill="#d2e6ff"/>
      <path id="Path_33009" data-name="Path 33009" d="M418.326,147.012H321.3a1.7,1.7,0,0,1-1.7-1.7h0a1.7,1.7,0,0,1,1.7-1.7h97.022a1.7,1.7,0,0,1,1.7,1.7h0A1.7,1.7,0,0,1,418.326,147.012Z" transform="translate(-300.559 -95.895)" fill="#d2e6ff"/>
      <path id="Path_33010" data-name="Path 33010" d="M397.161,157.012H321.3a1.7,1.7,0,0,1-1.7-1.7h0a1.7,1.7,0,0,1,1.7-1.7h75.857a1.7,1.7,0,0,1,1.7,1.7h0A1.7,1.7,0,0,1,397.161,157.012Z" transform="translate(-300.559 -95.818)" fill="#d2e6ff"/>
      <path id="Path_33011" data-name="Path 33011" d="M417.037,121.581H390.381a2.78,2.78,0,0,1-2.78-2.78h0a2.78,2.78,0,0,1,2.78-2.779h26.656a2.78,2.78,0,0,1,2.779,2.779h0A2.78,2.78,0,0,1,417.037,121.581Z" transform="translate(-300.032 -96.109)" fill="#fff"/>
    </g>
    <g id="Group_17578" data-name="Group 17578" transform="translate(320.325 209.25)">
      <rect id="Rectangle_8946" data-name="Rectangle 8946" width="34.298" height="24.707" rx="2" transform="translate(0 10.877)" fill="#fff"/>
      <g id="Group_17575" data-name="Group 17575" transform="translate(0.13 11.442)">
        <g id="Group_17572" data-name="Group 17572" transform="translate(0)">
          <path id="Path_33012" data-name="Path 33012" d="M335.467,235.028a.754.754,0,0,1-.481-.173l-16.473-13.606a.756.756,0,0,1,.962-1.165l15.979,13.2,15.571-13.548a.755.755,0,1,1,.992,1.14l-16.053,13.97A.759.759,0,0,1,335.467,235.028Z" transform="translate(-318.239 -219.547)" fill="#6f7fa9"/>
        </g>
        <g id="Group_17573" data-name="Group 17573" transform="translate(0 9.955)">
          <path id="Path_33013" data-name="Path 33013" d="M318.995,243.049a.756.756,0,0,1-.547-1.277l11.52-12.111a.756.756,0,1,1,1.094,1.042l-11.52,12.111A.752.752,0,0,1,318.995,243.049Z" transform="translate(-318.239 -229.425)" fill="#6f7fa9"/>
        </g>
        <g id="Group_17574" data-name="Group 17574" transform="translate(21.053 10.118)">
          <path id="Path_33014" data-name="Path 33014" d="M351.359,242.6a.752.752,0,0,1-.535-.222L339.35,230.877a.756.756,0,0,1,1.071-1.067l11.473,11.505a.755.755,0,0,1-.535,1.289Z" transform="translate(-339.129 -229.587)" fill="#6f7fa9"/>
        </g>
      </g>
      <g id="Group_17577" data-name="Group 17577" transform="translate(25.758)">
        <g id="Group_17576" data-name="Group 17576">
          <circle id="Ellipse_936" data-name="Ellipse 936" cx="10.112" cy="10.112" r="10.112" fill="#ff5f42"/>
        </g>
        <text id="_85" data-name="85" transform="translate(3.005 14.279)" fill="#fff" font-size="12" font-family="SegoeUI, Segoe UI"><tspan x="0" y="0">85</tspan></text>
      </g>
    </g>
    <g id="Group_17585" data-name="Group 17585" transform="translate(394.654 198.335)">
      <g id="Group_17579" data-name="Group 17579">
        <rect id="Rectangle_8947" data-name="Rectangle 8947" width="67.137" height="17.305" rx="4" fill="#223a7a"/>
      </g>
      <g id="Group_17580" data-name="Group 17580" transform="translate(4.223 4.115)">
        <path id="Path_33015" data-name="Path 33015" d="M400.13,210.521a.793.793,0,0,1-.638-.283.944.944,0,0,1-.214-.708l.256-2.241c.018-.056.009-.094-.028-.114a.143.143,0,0,0-.142.029l-1.844,1.332a.866.866,0,0,1-.708.184.881.881,0,0,1-.6-.439.855.855,0,0,1-.1-.794.911.911,0,0,1,.525-.482l2.07-.936c.057-.018.086-.047.086-.085s-.028-.067-.086-.086l-2.07-.936a.844.844,0,0,1-.511-.538.934.934,0,0,1,.086-.738.889.889,0,0,1,.6-.44.928.928,0,0,1,.708.156l1.844,1.361a.143.143,0,0,0,.142.029c.037-.019.046-.057.028-.114l-.256-2.24a.918.918,0,0,1,.228-.709.872.872,0,0,1,.68-.284.844.844,0,0,1,.851.994l-.255,2.24c-.019.056-.01.095.028.114a.143.143,0,0,0,.142-.029l1.843-1.332a.9.9,0,0,1,.724-.185.81.81,0,0,1,.581.44.857.857,0,0,1,.1.794.908.908,0,0,1-.525.482l-2.069.936c-.057.019-.086.047-.086.086s.028.067.086.085l2.069.936a.892.892,0,0,1,.525.538.833.833,0,0,1-.1.738.8.8,0,0,1-.581.439.946.946,0,0,1-.724-.155l-1.843-1.361a.143.143,0,0,0-.142-.029c-.038.02-.047.057-.028.114l.255,2.241a.814.814,0,0,1-.213.708A.914.914,0,0,1,400.13,210.521Z" transform="translate(-396.057 -201.445)" fill="#fff"/>
      </g>
      <g id="Group_17581" data-name="Group 17581" transform="translate(16.442 4.115)">
        <path id="Path_33016" data-name="Path 33016" d="M412.254,210.521a.794.794,0,0,1-.638-.283.948.948,0,0,1-.213-.708l.255-2.241c.019-.056.01-.094-.028-.114a.143.143,0,0,0-.142.029l-1.843,1.332a.867.867,0,0,1-.709.184.884.884,0,0,1-.6-.439.854.854,0,0,1-.1-.794.909.909,0,0,1,.524-.482l2.071-.936c.056-.018.086-.047.086-.085s-.029-.067-.086-.086l-2.071-.936a.842.842,0,0,1-.51-.538.933.933,0,0,1,.085-.738.891.891,0,0,1,.6-.44.929.929,0,0,1,.709.156l1.843,1.361a.143.143,0,0,0,.142.029c.038-.019.047-.057.028-.114l-.255-2.24a.922.922,0,0,1,.227-.709.874.874,0,0,1,.681-.284.842.842,0,0,1,.85.994l-.254,2.24c-.019.056-.01.095.028.114a.143.143,0,0,0,.142-.029l1.843-1.332a.9.9,0,0,1,.724-.185.81.81,0,0,1,.581.44.854.854,0,0,1,.1.794.9.9,0,0,1-.524.482l-2.07.936c-.056.019-.085.047-.085.086s.028.067.085.085l2.07.936a.888.888,0,0,1,.524.538.829.829,0,0,1-.1.738.8.8,0,0,1-.581.439.945.945,0,0,1-.724-.155l-1.843-1.361a.143.143,0,0,0-.142-.029c-.038.02-.047.057-.028.114l.254,2.241a.814.814,0,0,1-.212.708A.917.917,0,0,1,412.254,210.521Z" transform="translate(-408.182 -201.445)" fill="#fff"/>
      </g>
      <g id="Group_17582" data-name="Group 17582" transform="translate(28.66 4.115)">
        <path id="Path_33017" data-name="Path 33017" d="M424.379,210.521a.793.793,0,0,1-.638-.283.949.949,0,0,1-.214-.708l.256-2.241c.018-.056.009-.094-.028-.114a.143.143,0,0,0-.142.029l-1.843,1.332a.868.868,0,0,1-.709.184.882.882,0,0,1-.6-.439.858.858,0,0,1-.1-.794.911.911,0,0,1,.525-.482l2.071-.936c.056-.018.085-.047.085-.085s-.028-.067-.085-.086l-2.071-.936a.84.84,0,0,1-.51-.538.929.929,0,0,1,.085-.738.889.889,0,0,1,.6-.44.93.93,0,0,1,.709.156l1.843,1.361a.143.143,0,0,0,.142.029c.037-.019.046-.057.028-.114l-.256-2.24a.922.922,0,0,1,.228-.709.873.873,0,0,1,.68-.284.842.842,0,0,1,.851.994l-.255,2.24c-.019.056-.01.095.029.114a.144.144,0,0,0,.142-.029l1.843-1.332a.9.9,0,0,1,.724-.185.809.809,0,0,1,.58.44.851.851,0,0,1,.1.794.909.909,0,0,1-.524.482l-2.07.936c-.057.019-.086.047-.086.086s.028.067.086.085l2.07.936a.89.89,0,0,1,.524.538.829.829,0,0,1-.1.738.8.8,0,0,1-.58.439.944.944,0,0,1-.724-.155L425.2,207.2a.144.144,0,0,0-.142-.029c-.039.02-.048.057-.029.114l.255,2.241a.817.817,0,0,1-.212.708A.918.918,0,0,1,424.379,210.521Z" transform="translate(-420.307 -201.445)" fill="#fff"/>
      </g>
      <g id="Group_17583" data-name="Group 17583" transform="translate(40.879 4.115)">
        <path id="Path_33018" data-name="Path 33018" d="M436.5,210.521a.8.8,0,0,1-.639-.283.948.948,0,0,1-.213-.708l.256-2.241c.018-.056.009-.094-.028-.114a.143.143,0,0,0-.142.029l-1.844,1.332a.866.866,0,0,1-.708.184.882.882,0,0,1-.6-.439.855.855,0,0,1-.1-.794.911.911,0,0,1,.525-.482l2.07-.936c.057-.018.086-.047.086-.085s-.028-.067-.086-.086l-2.07-.936a.844.844,0,0,1-.511-.538.934.934,0,0,1,.086-.738.889.889,0,0,1,.6-.44.928.928,0,0,1,.708.156l1.844,1.361a.143.143,0,0,0,.142.029c.037-.019.046-.057.028-.114l-.256-2.24a.919.919,0,0,1,.228-.709.872.872,0,0,1,.68-.284.844.844,0,0,1,.851.994l-.255,2.24c-.019.056-.01.095.028.114a.143.143,0,0,0,.142-.029l1.843-1.332a.9.9,0,0,1,.724-.185.811.811,0,0,1,.581.44.857.857,0,0,1,.1.794.908.908,0,0,1-.525.482l-2.069.936c-.057.019-.086.047-.086.086s.028.067.086.085l2.069.936a.892.892,0,0,1,.525.538.833.833,0,0,1-.1.738.8.8,0,0,1-.581.439.946.946,0,0,1-.724-.155l-1.843-1.361a.143.143,0,0,0-.142-.029c-.038.02-.047.057-.028.114l.255,2.241a.814.814,0,0,1-.213.708A.915.915,0,0,1,436.5,210.521Z" transform="translate(-432.432 -201.445)" fill="#fff"/>
      </g>
      <g id="Group_17584" data-name="Group 17584" transform="translate(53.098 4.115)">
        <path id="Path_33019" data-name="Path 33019" d="M448.628,210.521a.794.794,0,0,1-.638-.283.948.948,0,0,1-.213-.708l.255-2.241c.019-.056.009-.094-.028-.114a.143.143,0,0,0-.142.029l-1.843,1.332a.867.867,0,0,1-.709.184.884.884,0,0,1-.6-.439.854.854,0,0,1-.1-.794.909.909,0,0,1,.524-.482l2.071-.936c.056-.018.086-.047.086-.085s-.029-.067-.086-.086l-2.071-.936a.84.84,0,0,1-.51-.538.933.933,0,0,1,.085-.738.891.891,0,0,1,.6-.44.929.929,0,0,1,.709.156l1.843,1.361a.143.143,0,0,0,.142.029c.037-.019.047-.057.028-.114l-.255-2.24a.922.922,0,0,1,.227-.709.874.874,0,0,1,.681-.284.842.842,0,0,1,.85.994l-.254,2.24c-.019.056-.01.095.028.114a.144.144,0,0,0,.142-.029l1.843-1.332a.9.9,0,0,1,.724-.185.81.81,0,0,1,.581.44.854.854,0,0,1,.1.794.9.9,0,0,1-.524.482l-2.07.936c-.056.019-.085.047-.085.086s.028.067.085.085l2.07.936a.888.888,0,0,1,.524.538.829.829,0,0,1-.1.738.8.8,0,0,1-.581.439.945.945,0,0,1-.724-.155l-1.843-1.361a.143.143,0,0,0-.142-.029c-.038.02-.047.057-.028.114l.254,2.241a.814.814,0,0,1-.212.708A.917.917,0,0,1,448.628,210.521Z" transform="translate(-444.556 -201.445)" fill="#67acff"/>
      </g>
    </g>
  </g>
</svg>
