<svg xmlns="http://www.w3.org/2000/svg" width="443.999" height="332.249" viewBox="0 0 443.999 332.249">
  <g id="Group_17506" data-name="Group 17506" transform="translate(-26.86 -81.187)">
    <g id="Group_17450" data-name="Group 17450" transform="translate(33.173 84.839)">
      <path id="Path_32864" data-name="Path 32864" d="M428.5,408.05c47.247-35.925,68.289-135.544-8.427-184.393-50.789-32.334-82.377-13.889-139.513-35.279-69.752-26.106-80.148-104.981-164.993-66.17-44.949,20.554-76.109,78.487-81.591,144.329-5.372,64.479,17.48,108.722,64.18,139C207.823,410.2,317.709,409.353,428.5,408.05Z" transform="translate(-33.205 -84.995)" fill="#dff3fc"/>
      <path id="Path_32865" data-name="Path 32865" d="M235.426,124.556c-7.136,28.653,19.365,57.017,47.283,68.777s59.935,10.367,89.845,4.756c12.906-2.418,26.172-5.82,36.2-14.048s15.839-22.514,10.344-34.055c-4.849-10.178-16.654-15.391-27.909-18.067s-23.208-3.771-33.234-9.4c-9.507-5.343-16.252-14.187-24.52-21.191C318.156,88.4,296.7,81.995,276.833,86.084S241.492,100.2,235.426,124.556Z" transform="translate(-34.233 -84.858)" fill="#dff3fc"/>
    </g>
    <g id="Group_17505" data-name="Group 17505" transform="translate(26.86 81.187)">
      <g id="Group_17466" data-name="Group 17466" transform="translate(29.356 0)">
        <g id="Group_17451" data-name="Group 17451" transform="translate(255.25 114.831)">
          <path id="Path_32866" data-name="Path 32866" d="M449.787,256.916V235.241h-8.22a42.051,42.051,0,0,0-4.419-10.655l5.811-5.821-15.328-15.329-5.821,5.812a42.067,42.067,0,0,0-10.655-4.42v-8.219H389.478v8.219a42.06,42.06,0,0,0-10.654,4.42L373,203.435l-15.329,15.329,5.812,5.821a42.378,42.378,0,0,0-4.42,10.655h-8.219v21.676h8.219a42.378,42.378,0,0,0,4.42,10.655l-5.812,5.821L373,288.721l5.821-5.811a42.388,42.388,0,0,0,10.654,4.42v8.219h21.677V287.33a42.4,42.4,0,0,0,10.655-4.42l5.821,5.811,15.328-15.328-5.811-5.821a42.05,42.05,0,0,0,4.419-10.655Zm-49.465,7.942A18.78,18.78,0,1,1,419.1,246.073,18.787,18.787,0,0,1,400.322,264.858Z" transform="translate(-313.122 -196.608)" fill="#a2c7eb"/>
          <path id="Path_32867" data-name="Path 32867" d="M384.182,311.7l-4.124-10.75-4.077,1.564a22.329,22.329,0,0,0-4.218-4.443l1.774-3.992-10.518-4.686-1.781,3.99a22.346,22.346,0,0,0-6.126-.164l-1.563-4.076L342.8,293.267l1.564,4.076a22.33,22.33,0,0,0-4.443,4.219l-3.993-1.775-4.686,10.518,3.991,1.782a22.49,22.49,0,0,0-.165,6.124l-4.076,1.564,4.124,10.75,4.076-1.564a22.533,22.533,0,0,0,4.219,4.443l-1.775,3.992,10.519,4.686,1.781-3.989a22.536,22.536,0,0,0,6.125.164l1.564,4.076,10.75-4.124-1.563-4.076a22.53,22.53,0,0,0,4.443-4.219l3.992,1.775,4.685-10.518-3.99-1.782a22.34,22.34,0,0,0,.165-6.125Zm-23.02,13.35a9.976,9.976,0,1,1,5.737-12.889A9.98,9.98,0,0,1,361.162,325.052Z" transform="translate(-313.02 -197.081)" fill="none" stroke="#a2c7eb" stroke-miterlimit="10" stroke-width="1"/>
          <path id="Path_32868" data-name="Path 32868" d="M348.868,273.838l-2.787-7.264-2.754,1.058a15.121,15.121,0,0,0-2.851-3l1.2-2.7-7.108-3.166-1.2,2.7a15.1,15.1,0,0,0-4.139-.111L328.17,258.6l-7.263,2.787,1.057,2.755a15.086,15.086,0,0,0-3,2.85l-2.7-1.2L313.1,272.9l2.7,1.2a15.215,15.215,0,0,0-.111,4.139l-2.754,1.057,2.786,7.264,2.755-1.057a15.2,15.2,0,0,0,2.85,3l-1.2,2.7,7.107,3.166,1.2-2.7a15.22,15.22,0,0,0,4.139.111l1.057,2.754,7.264-2.787L339.833,289a15.2,15.2,0,0,0,3-2.851l2.7,1.2,3.166-7.108-2.7-1.2a15.1,15.1,0,0,0,.111-4.139Zm-15.554,9.021a6.74,6.74,0,1,1,3.876-8.708A6.743,6.743,0,0,1,333.314,282.858Z" transform="translate(-312.928 -196.925)" fill="none" stroke="#a2c7eb" stroke-miterlimit="10" stroke-width="1"/>
        </g>
        <g id="Group_17453" data-name="Group 17453" transform="translate(220.161 30.319)">
          <path id="Path_32869" data-name="Path 32869" d="M346.159,145.912a34.25,34.25,0,1,1-34.25-34.25A34.215,34.215,0,0,1,346.159,145.912Z" transform="translate(-277.659 -111.662)" fill="#0097d8" stroke="#0097d8" stroke-miterlimit="10" stroke-width="1"/>
          <g id="Group_17452" data-name="Group 17452" transform="translate(13.011 10.477)">
            <circle id="Ellipse_921" data-name="Ellipse 921" cx="11.211" cy="11.211" r="11.211" transform="translate(8.739 2.747) rotate(-7.037)" fill="#fff"/>
            <path id="Path_32870" data-name="Path 32870" d="M333.215,168.632a34.273,34.273,0,0,1-42.478,0c2.191-9.637,4.206-17.958,6.3-20.067,2.963-2.962,10.83-4.69,14.924-4.69s12.332,2.1,13.854,3.62C328.926,150.592,331.6,159.139,333.215,168.632Z" transform="translate(-290.737 -122.304)" fill="#fff"/>
          </g>
        </g>
        <g id="Group_17456" data-name="Group 17456" transform="translate(201.906 123.729)">
          <g id="Group_17454" data-name="Group 17454">
            <path id="Path_32871" data-name="Path 32871" d="M262.61,230.822V213.909a8.356,8.356,0,0,1,8.357-8.357h53.286a8.356,8.356,0,0,1,8.357,8.357v16.913a8.356,8.356,0,0,1-8.357,8.357H270.977A8.358,8.358,0,0,1,262.61,230.822Z" transform="translate(-259.327 -205.552)" fill="#0097d8"/>
            <path id="Path_32872" data-name="Path 32872" d="M285.1,230.062,259.31,255.183l41.8-21.121" transform="translate(-259.31 -205.677)" fill="#0097d8"/>
          </g>
          <g id="Group_17455" data-name="Group 17455" transform="translate(9.75 6.606)">
            <path id="Path_32873" data-name="Path 32873" d="M269.11,213.525v-.09a1.244,1.244,0,0,1,1.244-1.244H296.7a1.244,1.244,0,0,1,1.244,1.244v.09a1.244,1.244,0,0,1-1.244,1.244H270.354A1.244,1.244,0,0,1,269.11,213.525Z" transform="translate(-269.11 -212.192)" fill="#fff"/>
            <path id="Path_32874" data-name="Path 32874" d="M299.28,213.525v-.09a1.244,1.244,0,0,1,1.244-1.244h22.992a1.244,1.244,0,0,1,1.244,1.244v.09a1.244,1.244,0,0,1-1.244,1.244H300.524A1.244,1.244,0,0,1,299.28,213.525Z" transform="translate(-269.264 -212.192)" fill="#fff"/>
            <path id="Path_32875" data-name="Path 32875" d="M289.19,219.215v-.09a1.244,1.244,0,0,1,1.244-1.244h33.03a1.244,1.244,0,0,1,1.244,1.244v.09a1.244,1.244,0,0,1-1.244,1.244h-33.03A1.244,1.244,0,0,1,289.19,219.215Z" transform="translate(-269.213 -212.221)" fill="#fff"/>
            <path id="Path_32876" data-name="Path 32876" d="M269.11,219.215v-.09a1.244,1.244,0,0,1,1.244-1.244h14.754a1.244,1.244,0,0,1,1.244,1.244v.09a1.244,1.244,0,0,1-1.244,1.244H270.354A1.244,1.244,0,0,1,269.11,219.215Z" transform="translate(-269.11 -212.221)" fill="#fff"/>
            <path id="Path_32877" data-name="Path 32877" d="M293.8,224.905v-.09a1.244,1.244,0,0,1,1.244-1.244h28.444a1.244,1.244,0,0,1,1.244,1.244v.09a1.244,1.244,0,0,1-1.244,1.244H295.044A1.244,1.244,0,0,1,293.8,224.905Z" transform="translate(-269.236 -212.25)" fill="#fff"/>
            <path id="Path_32878" data-name="Path 32878" d="M269.11,224.905v-.09a1.244,1.244,0,0,1,1.244-1.244H290a1.244,1.244,0,0,1,1.244,1.244v.09A1.244,1.244,0,0,1,290,226.149H270.354A1.244,1.244,0,0,1,269.11,224.905Z" transform="translate(-269.11 -212.25)" fill="#fff"/>
            <path id="Path_32879" data-name="Path 32879" d="M269.11,230.6v-.09a1.244,1.244,0,0,1,1.244-1.244h7.293a1.244,1.244,0,0,1,1.244,1.244v.09a1.244,1.244,0,0,1-1.244,1.244h-7.293A1.244,1.244,0,0,1,269.11,230.6Z" transform="translate(-269.11 -212.279)" fill="#fff"/>
            <path id="Path_32880" data-name="Path 32880" d="M281.53,230.6v-.09a1.244,1.244,0,0,1,1.244-1.244h40.651a1.244,1.244,0,0,1,1.244,1.244v.09a1.244,1.244,0,0,1-1.244,1.244H282.774A1.244,1.244,0,0,1,281.53,230.6Z" transform="translate(-269.173 -212.279)" fill="#fff"/>
          </g>
        </g>
        <g id="Group_17461" data-name="Group 17461" transform="translate(0 67.381)">
          <g id="Group_17460" data-name="Group 17460" transform="translate(0 0)">
            <circle id="Ellipse_922" data-name="Ellipse 922" cx="32.951" cy="32.951" r="32.951" transform="translate(0 59.75) rotate(-65.047)" fill="#0097d8"/>
            <g id="Group_17459" data-name="Group 17459" transform="translate(25.831 17.397)">
              <g id="Group_17457" data-name="Group 17457" transform="translate(0 32.372)">
                <circle id="Ellipse_923" data-name="Ellipse 923" cx="7.985" cy="7.985" r="7.985" transform="translate(0 5.292) rotate(-19.353)" fill="#fff"/>
                <path id="Path_32881" data-name="Path 32881" d="M88.347,212.01l-.386-5.064,4.193-2.866,4.578,2.2.386,5.064-4.193,2.866Z" transform="translate(-82.36 -198.965)" fill="#0097d8"/>
              </g>
              <g id="Group_17458" data-name="Group 17458" transform="translate(15.503 0)">
                <circle id="Ellipse_924" data-name="Ellipse 924" cx="7.985" cy="7.985" r="7.985" transform="translate(0 5.376) rotate(-19.671)" fill="#fff"/>
                <path id="Path_32882" data-name="Path 32882" d="M104.192,179l.275-6.439,4.853-4.241,4.578,2.2-.275,6.439L108.77,181.2Z" transform="translate(-97.946 -166.41)" fill="#0097d8"/>
              </g>
              <path id="Path_32883" data-name="Path 32883" d="M98.091,205.331,91.982,202.4,96.5,191.985q.43-.991.935-1.946l5.3-10.034,6.109,2.933-4.354,10.254q-.5,1.191-1.118,2.33Z" transform="translate(-82.381 -166.47)" fill="#fff"/>
            </g>
          </g>
          <path id="Path_32884" data-name="Path 32884" d="M123.374,210.671c1.178-.545,20.083.316,20.083.316l-13.628-12.512Z" transform="translate(-56.709 -149.167)" fill="#0097d8"/>
        </g>
        <g id="Group_17465" data-name="Group 17465" transform="translate(77.795)">
          <g id="Group_17463" data-name="Group 17463" transform="translate(0)">
            <g id="Group_17462" data-name="Group 17462" transform="translate(0)">
              <circle id="Ellipse_925" data-name="Ellipse 925" cx="32.386" cy="32.386" r="32.386" transform="translate(0 59.449) rotate(-66.607)" fill="#0097d8"/>
            </g>
          </g>
          <g id="Group_17464" data-name="Group 17464" transform="translate(18.683 14.983)">
            <rect id="Rectangle_8937" data-name="Rectangle 8937" width="2.163" height="27.198" transform="translate(22.818)" fill="#fff"/>
            <rect id="Rectangle_8938" data-name="Rectangle 8938" width="2.163" height="27.569" transform="matrix(-0.569, -0.822, 0.822, -0.569, 1.231, 44.668)" fill="#fff"/>
            <path id="Path_32885" data-name="Path 32885" d="M180.328,123.973a2.981,2.981,0,1,1-2.981-2.981A2.981,2.981,0,0,1,180.328,123.973Z" transform="translate(-153.448 -96.373)" fill="#fff"/>
          </g>
        </g>
      </g>
      <g id="Group_17504" data-name="Group 17504" transform="translate(0 89.878)">
        <g id="Group_17481" data-name="Group 17481" transform="translate(0 75.734)">
          <g id="Group_17472" data-name="Group 17472" transform="translate(189.924 18.487)">
            <g id="Group_17467" data-name="Group 17467" transform="translate(25.181)">
              <path id="Path_32886" data-name="Path 32886" d="M265.739,344.013c-1.92-29.608,11.033-60.251,32.851-77.781C299.267,295.989,286.443,326.1,265.739,344.013Z" transform="translate(-243.185 -266.232)" fill="#a2c7eb"/>
              <path id="Path_32887" data-name="Path 32887" d="M294.914,274.242A392.711,392.711,0,0,0,271.166,327.8c-8.029,22.455-14.346,46.312-28.1,65.135" transform="translate(-243.07 -266.273)" fill="none" stroke="#6f8bbf" stroke-linecap="round" stroke-miterlimit="10" stroke-width="1"/>
            </g>
            <g id="Group_17468" data-name="Group 17468" transform="translate(40.85 47.755)">
              <path id="Path_32888" data-name="Path 32888" d="M258.82,362.882c11.043-24.7,32.961-43.367,57.127-48.65C305.659,340.706,282.518,360.9,258.82,362.882Z" transform="translate(-258.82 -314.232)" fill="#a2c7eb"/>
              <path id="Path_32889" data-name="Path 32889" d="M310.021,319.7q-24.758,21.788-50.351,42.342" transform="translate(-258.824 -314.26)" fill="none" stroke="#6f8bbf" stroke-linecap="round" stroke-miterlimit="10" stroke-width="1"/>
            </g>
            <g id="Group_17469" data-name="Group 17469" transform="translate(31.717 88.965)">
              <path id="Path_32890" data-name="Path 32890" d="M252.27,384.613c14.754-22.037,41.974-33.538,64.5-27.25C300.2,379.122,272.924,390.652,252.27,384.613Z" transform="translate(-249.653 -355.654)" fill="#a2c7eb"/>
              <path id="Path_32891" data-name="Path 32891" d="M311.353,358.972a214.755,214.755,0,0,1-61.713,26.4" transform="translate(-249.64 -355.671)" fill="none" stroke="#6f8bbf" stroke-linecap="round" stroke-miterlimit="10" stroke-width="1"/>
            </g>
            <g id="Group_17470" data-name="Group 17470" transform="translate(21.711 18.147)">
              <path id="Path_32892" data-name="Path 32892" d="M260.174,355.239c4.716-24.813-2.358-52.471-18.107-70.767C235.61,308.857,241.769,337.43,260.174,355.239Z" transform="translate(-239.582 -284.472)" fill="#a2c7eb"/>
              <path id="Path_32893" data-name="Path 32893" d="M243.71,290.832a268.6,268.6,0,0,0,17.182,65.832" transform="translate(-239.604 -284.505)" fill="none" stroke="#6f8bbf" stroke-linecap="round" stroke-miterlimit="10" stroke-width="1"/>
            </g>
            <g id="Group_17471" data-name="Group 17471" transform="translate(0 47.357)">
              <path id="Path_32894" data-name="Path 32894" d="M251.964,376.52c-2.01-25.509-15.083-49.466-34.2-62.688a109.014,109.014,0,0,0,10.4,38.373C234.713,365.805,244.343,374.431,251.964,376.52Z" transform="translate(-217.76 -313.832)" fill="#a2c7eb"/>
              <path id="Path_32895" data-name="Path 32895" d="M220.61,319.022a202.652,202.652,0,0,0,31.846,58.062" transform="translate(-217.775 -313.859)" fill="none" stroke="#6f8bbf" stroke-linecap="round" stroke-miterlimit="10" stroke-width="1"/>
            </g>
          </g>
          <g id="Group_17478" data-name="Group 17478" transform="translate(331.826 59.685)">
            <g id="Group_17473" data-name="Group 17473" transform="translate(0 6.845)">
              <path id="Path_32896" data-name="Path 32896" d="M400.57,370.4c10.436-27.15,34.443-49.177,60.917-55.883C449.887,341.3,426.208,362.894,400.57,370.4Z" transform="translate(-360.595 -314.522)" fill="#a2c7eb"/>
              <path id="Path_32897" data-name="Path 32897" d="M454.865,320.192a385.749,385.749,0,0,0-42.939,38.015c-16.3,16.734-31.667,35.4-51.535,46.561" transform="translate(-360.39 -314.551)" fill="none" stroke="#6f8bbf" stroke-linecap="round" stroke-miterlimit="10" stroke-width="1"/>
            </g>
            <g id="Group_17474" data-name="Group 17474" transform="translate(26.255 54.903)">
              <path id="Path_32898" data-name="Path 32898" d="M386.78,384.431c19.888-17.5,46.909-25.181,70.428-20.027C437.271,383.794,408.538,392.34,386.78,384.431Z" transform="translate(-386.78 -362.827)" fill="#a2c7eb"/>
              <path id="Path_32899" data-name="Path 32899" d="M449.742,366.862q-30.817,9.312-61.862,17.172" transform="translate(-386.786 -362.847)" fill="none" stroke="#6f8bbf" stroke-linecap="round" stroke-miterlimit="10" stroke-width="1"/>
            </g>
            <g id="Group_17475" data-name="Group 17475" transform="translate(9.063 83.367)">
              <path id="Path_32900" data-name="Path 32900" d="M372.12,401.092c22.077-13.61,50.849-12.745,68.18,2.049C416.741,415.757,387.9,414.892,372.12,401.092Z" transform="translate(-369.513 -391.438)" fill="#a2c7eb"/>
              <path id="Path_32901" data-name="Path 32901" d="M434.864,402.393a207.993,207.993,0,0,1-65.364-1.661" transform="translate(-369.5 -391.485)" fill="none" stroke="#6f8bbf" stroke-linecap="round" stroke-miterlimit="10" stroke-width="1"/>
            </g>
            <g id="Group_17476" data-name="Group 17476" transform="translate(26.488)">
              <path id="Path_32902" data-name="Path 32902" d="M391.139,378.07c14.336-20.176,19.42-47.7,13-70.428C388.433,326.724,382.165,354.69,391.139,378.07Z" transform="translate(-387.014 -307.642)" fill="#a2c7eb"/>
              <path id="Path_32903" data-name="Path 32903" d="M403,313.962a264.531,264.531,0,0,0-11.789,65.663" transform="translate(-387.036 -307.674)" fill="none" stroke="#6f8bbf" stroke-linecap="round" stroke-miterlimit="10" stroke-width="1"/>
            </g>
            <g id="Group_17477" data-name="Group 17477" transform="translate(3.71 16.147)">
              <path id="Path_32904" data-name="Path 32904" d="M375.2,393.674c8.675-23.539,6.944-50.222-4.537-69.8a107.625,107.625,0,0,0-6.536,38.423C364.339,377.079,369.313,388.7,375.2,393.674Z" transform="translate(-364.119 -323.872)" fill="#a2c7eb"/>
              <path id="Path_32905" data-name="Path 32905" d="M371.075,329.652a199.513,199.513,0,0,0,4.348,64.718" transform="translate(-364.15 -323.902)" fill="none" stroke="#6f8bbf" stroke-linecap="round" stroke-miterlimit="10" stroke-width="1"/>
            </g>
          </g>
          <g id="Group_17480" data-name="Group 17480">
            <path id="Path_32906" data-name="Path 32906" d="M102.882,322.637c-10.639-32.542-40.33-58.836-74.869-66.3C42.534,284.492,68.872,306.9,102.882,322.637Z" transform="translate(-26.866 -247.694)" fill="#a2c7eb"/>
            <path id="Path_32907" data-name="Path 32907" d="M104.678,327.988a98.418,98.418,0,0,0-77.818-7.754A109.89,109.89,0,0,0,104.678,327.988Z" transform="translate(-26.86 -247.997)" fill="#a2c7eb"/>
            <path id="Path_32908" data-name="Path 32908" d="M111.187,335.14C86,331.65,59.623,337.858,39.168,352.09,62.363,360.522,90.191,355.054,111.187,335.14Z" transform="translate(-26.923 -248.092)" fill="#a2c7eb"/>
            <path id="Path_32909" data-name="Path 32909" d="M119.122,350.64c-24.943-.1-49.467,11.751-64.129,31a54.829,54.829,0,0,0,33.073-3.717C98.251,373.309,106.783,365.438,119.122,350.64Z" transform="translate(-27.004 -248.176)" fill="#a2c7eb"/>
            <path id="Path_32910" data-name="Path 32910" d="M136.774,376.559c-24.595-4.216-50.8,3.4-68.535,19.935a55.071,55.071,0,0,0,33.268,1.807C112.338,395.445,122.088,389.1,136.774,376.559Z" transform="translate(-27.071 -248.303)" fill="#a2c7eb"/>
            <path id="Path_32911" data-name="Path 32911" d="M110.354,324.135C94.113,302.245,89.7,272.746,98.933,247.65c7.046,11.933,13.125,24.548,15.963,37.956S117.182,313.313,110.354,324.135Z" transform="translate(-27.204 -247.65)" fill="#a2c7eb"/>
            <path id="Path_32912" data-name="Path 32912" d="M120.405,345.423a75.447,75.447,0,0,1,20.9-64.75C143.241,304.734,135.879,329.247,120.405,345.423Z" transform="translate(-27.333 -247.819)" fill="#a2c7eb"/>
            <g id="Group_17479" data-name="Group 17479" transform="translate(8.708 11.541)">
              <path id="Path_32913" data-name="Path 32913" d="M35.613,262.2c49.43,31.627,88.088,78.767,108.494,132.326" transform="translate(-35.613 -259.265)" fill="none" stroke="#6f8bbf" stroke-linecap="round" stroke-miterlimit="10" stroke-width="1"/>
              <path id="Path_32914" data-name="Path 32914" d="M100.5,259.25a392.2,392.2,0,0,1,10.908,74.337" transform="translate(-35.945 -259.25)" fill="none" stroke="#6f8bbf" stroke-linecap="round" stroke-miterlimit="10" stroke-width="1"/>
              <path id="Path_32915" data-name="Path 32915" d="M137.617,290.165a144.827,144.827,0,0,1-17.781,56.288" transform="translate(-36.043 -259.408)" fill="none" stroke="#6f8bbf" stroke-linecap="round" stroke-miterlimit="10" stroke-width="1"/>
              <path id="Path_32916" data-name="Path 32916" d="M37.318,320.829a399.968,399.968,0,0,0,68.733,6.988" transform="translate(-35.622 -259.565)" fill="none" stroke="#6f8bbf" stroke-linecap="round" stroke-miterlimit="10" stroke-width="1"/>
              <path id="Path_32917" data-name="Path 32917" d="M51.044,350.16a184.524,184.524,0,0,0,60.455-14.9" transform="translate(-35.692 -259.638)" fill="none" stroke="#6f8bbf" stroke-linecap="round" stroke-miterlimit="10" stroke-width="1"/>
              <path id="Path_32918" data-name="Path 32918" d="M63.627,378.118q28.921-14.426,57.846-28.865" transform="translate(-35.756 -259.71)" fill="none" stroke="#6f8bbf" stroke-linecap="round" stroke-miterlimit="10" stroke-width="1"/>
              <path id="Path_32919" data-name="Path 32919" d="M76.232,395.241c25.174-4.857,32.653-10.653,60.594-18.674" transform="translate(-35.821 -259.85)" fill="none" stroke="#6f8bbf" stroke-linecap="round" stroke-miterlimit="10" stroke-width="1"/>
            </g>
          </g>
        </g>
        <g id="Group_17503" data-name="Group 17503" transform="translate(76.828)">
          <g id="Group_17482" data-name="Group 17482" transform="translate(98.352 111.751)">
            <path id="Path_32920" data-name="Path 32920" d="M236.275,348.992s2.179,19.967,4.616,21.569c4.358,2.875,54.8,9.521,54.8,9.521L294.038,393.2s-69.085,6.208-72.02,2.756c-5.094-5.989-14.048-34.881-14.048-34.881Z" transform="translate(-202.966 -284.185)" fill="#e06a58"/>
            <path id="Path_32921" data-name="Path 32921" d="M202.94,297.253l5.581-13.4s15.142,7.114,20.137,15.9c5.343,9.392,11.879,59.325,11.879,59.325s-26.733,6.158-31.647,3.542S202.94,297.253,202.94,297.253Z" transform="translate(-202.94 -283.852)" fill="#f2ae30"/>
          </g>
          <path id="Path_32922" data-name="Path 32922" d="M159.923,234.79c-3.91-1.433-8.049-2.686-12.237-2.368s-8.467,2.537-9.889,6.218c-1.015,2.607-.547,5.681-2.149,8.029-1.532,2.248-4.576,3.184-7.422,3.373s-5.731-.179-8.566.189c-8.755,1.164-15,10.675-12.128,18.465,1.144,3.1,3.492,6.069,2.955,9.3-.567,3.462-4.2,5.741-5.691,8.954-1.98,4.278.388,9.461,4.3,12.376s8.994,4.009,13.928,4.746c6.8,1.015,13.809,1.492,20.525.06s13.133-4.975,16.6-10.506c1.542-2.447,2.477-5.213,4.268-7.511,3.7-4.746,10.257-6.586,15.421-9.949,5.641-3.691,9.78-10.874,6.457-16.5-3.2-5.4-11.541-6.606-14.884-11.929-1.383-2.2-1.711-4.815-2.607-7.213C167.892,238.122,165.7,236.909,159.923,234.79Z" transform="translate(-104.083 -171.838)" fill="#0a2240"/>
          <g id="Group_17483" data-name="Group 17483" transform="translate(48.359 69.946)">
            <path id="Path_32923" data-name="Path 32923" d="M182.955,301.108c.985,1.134,2.149,2.378,3.761,2.487,1.7.119,3.124-1.084,4.218-2.248a42.82,42.82,0,0,0,10.894-20.893c-1.4-.8-2.756-1.562-3.98-2.278a6.043,6.043,0,0,1-2.477-2.726,5.237,5.237,0,0,1-.368-2.567,73.365,73.365,0,0,1,4.129-19.241c-12.476-2.816-24.245-6.158-31.011-11.809-.826,3.482-1.8,10.3-3.88,17.052-2.219,7.153-5.681,14.227-11.551,17.271A123.781,123.781,0,0,1,182.955,301.108Z" transform="translate(-152.69 -241.832)" fill="#f9a07b"/>
            <path id="Path_32924" data-name="Path 32924" d="M195.062,272.893a5.22,5.22,0,0,0,.368,2.567c-7.382,8.954-23.887-2.746-31.13-16.565,2.079-6.755,3.054-13.57,3.88-17.052,6.755,5.651,18.535,9,31.011,11.809A73.281,73.281,0,0,0,195.062,272.893Z" transform="translate(-152.749 -241.832)" fill="#e06a58"/>
          </g>
          <g id="Group_17484" data-name="Group 17484" transform="translate(18.414 100.519)">
            <path id="Path_32925" data-name="Path 32925" d="M215.4,381.294c-1.632,10.8,10.028,22.435,10.317,28.205-24.763,0-76.636,1.512-103.051-2.079-1.2-6.666,11.839-21.659,11.839-36.463,0-1.96-.08-4.109-.239-6.417-.418-6.606-1.393-14.466-2.477-22.524-2.945-21.619-6.865-44.74-3.97-49.536,5.671-9.342,18.933-15.689,25.509-18.415,2.258-.935,3.731-1.443,3.84-1.5,8.248,14.068,25.031,26.066,31.369,25.529,1.761-.139,6.984-1.96,10.436-19.341,1.343.766,2.686,1.472,4.019,2.159,6.556,3.412,12.7,6.228,14.476,10.616,4.676,11.551,9.262,40.671,8.248,51.029-1.025,10.446-5.223,18.424-8.168,28.91-.686,2.457-1.313,5.064-1.821,7.87C215.6,379.96,215.5,380.617,215.4,381.294Z" transform="translate(-122.591 -272.562)" fill="#ffc73c"/>
            <path id="Path_32926" data-name="Path 32926" d="M225.72,409.8c-24.763,0-76.636,1.512-103.051-2.079-1.2-6.666,11.839-21.659,11.839-36.463,0-1.96-.08-4.109-.239-6.417-.418-6.606-1.393-14.466-2.477-22.524,4.686,4.945,11.521-15.948,14.545-9.829,16.366,33.03,29.27,41.716,51.695,41.716a86.094,86.094,0,0,0,19.52-2.438c-.686,2.457-1.313,5.064-1.821,7.87q-.179.955-.328,1.97C213.772,392.388,225.432,404.019,225.72,409.8Z" transform="translate(-122.591 -272.862)" fill="#fb3"/>
            <path id="Path_32927" data-name="Path 32927" d="M203.155,280.909c-1.065,7.73-4.218,18.147-13.391,20.893-12.4,3.711-30.334-19.45-36.274-27.738,2.258-.935,3.731-1.443,3.84-1.5,8.248,14.068,25.031,26.066,31.369,25.529,1.761-.139,6.984-1.96,10.436-19.341C200.479,279.506,201.822,280.213,203.155,280.909Z" transform="translate(-122.749 -272.562)" fill="#fce172"/>
          </g>
          <g id="Group_17488" data-name="Group 17488" transform="translate(103.824 144.652)">
            <g id="Group_17487" data-name="Group 17487">
              <g id="Group_17485" data-name="Group 17485" transform="translate(0 80.934)">
                <path id="Path_32928" data-name="Path 32928" d="M208.53,398.511l-.09,8.626,154.208.915.318-9.78Z" transform="translate(-208.44 -398.272)" fill="#325f73"/>
              </g>
              <g id="Group_17486" data-name="Group 17486" transform="translate(48.939)">
                <path id="Path_32929" data-name="Path 32929" d="M429.736,321.141l-3.432-3.482-112.323-.736L257.63,398.414l2.945,2.368Z" transform="translate(-257.63 -316.922)" fill="#325f73"/>
                <path id="Path_32930" data-name="Path 32930" d="M316.165,319.952,260.59,400.8l106.155.527,63.006-80.168Z" transform="translate(-257.645 -316.938)" fill="#0b2d50"/>
              </g>
            </g>
            <ellipse id="Ellipse_926" data-name="Ellipse 926" cx="12.357" cy="6.178" rx="12.357" ry="6.178" transform="translate(121.924 42.263)" fill="#3c738c"/>
          </g>
          <g id="Group_17497" data-name="Group 17497" transform="translate(43.274)">
            <g id="Group_17489" data-name="Group 17489" transform="translate(59.751 50.85)">
              <ellipse id="Ellipse_927" data-name="Ellipse 927" cx="17.302" cy="11.412" rx="17.302" ry="11.412" transform="translate(0 34.018) rotate(-79.444)" fill="#56c4f9"/>
            </g>
            <path id="Path_32931" data-name="Path 32931" d="M233.261,214.127c-1.154,8.178-4.805,17.192-10.128,27.151-1.87-8.158-3.064-18.1-4.716-28.036-1.681-9.959-3.82-19.918-7.531-28.056a48.7,48.7,0,0,0-2.726-5.114,18.154,18.154,0,0,1,6.546.587,21.932,21.932,0,0,1,8.954,4.885,31.4,31.4,0,0,1,8.725,14.257A31.994,31.994,0,0,1,233.261,214.127Z" transform="translate(-147.888 -171.57)" fill="#0b2d50"/>
            <g id="Group_17490" data-name="Group 17490" transform="translate(8.856 4.38)">
              <path id="Path_32932" data-name="Path 32932" d="M226.749,222.563c-.06,1.612-.169,3.253-.318,4.885-2.268,26.464-13.381,44.621-30.384,44.621-24.007,0-39.567-26.922-39.567-53.3,0-26.016,15.938-44.85,34.592-42.671,10.755,1.234,18.614,4.805,24.2,10.038a32.977,32.977,0,0,1,8.178,12.476,54.545,54.545,0,0,1,3.293,17.968c0,.02.02.04.02.06C226.839,218.573,226.819,220.543,226.749,222.563Z" transform="translate(-156.48 -175.93)" fill="#f9a07b"/>
              <path id="Path_32933" data-name="Path 32933" d="M226.806,222.661a26.6,26.6,0,0,0-3.233-7.293,75.546,75.546,0,0,1-47.028,7.551c-3.044,2.537-6.019,5.034-9.014,7.531.06-12.038.229-20.186,4.925-26.016,4.407-5.472,11.76-7.531,18.724-8.427a86.608,86.608,0,0,1,23.629.149,23.911,23.911,0,0,1,8.705,2.577,54.546,54.546,0,0,1,3.293,17.968c0,.02.02.04.02.06C226.9,218.672,226.875,220.642,226.806,222.661Z" transform="translate(-156.536 -176.029)" fill="#e06a58"/>
            </g>
            <path id="Path_32934" data-name="Path 32934" d="M230.175,206.244a44.348,44.348,0,0,1-12.058,6.964c-13.192,5.323-30.334,7.084-43.7,6.437-6.566,14.426-9.223,19.6-10.9,32.185-6.417-6.019-11.64-17.042-13.192-25.708a58.8,58.8,0,0,1,1.025-26.186,39.163,39.163,0,0,1,19.977-24.027,37.55,37.55,0,0,1,4.3-1.99c8.467-3.273,18.008-2.975,26.693-.318a31.79,31.79,0,0,1,12.078,7.024c6.775,6.119,10.964,14.406,13.67,20.614C228.921,203.14,229.608,204.861,230.175,206.244Z" transform="translate(-147.588 -171.527)" fill="#0b2d50"/>
            <path id="Path_32935" data-name="Path 32935" d="M233.074,214.083a40.506,40.506,0,0,0-2.517-8.407,28.963,28.963,0,0,0-2.368-4.447,24.386,24.386,0,0,0-12.7-10.357,46.755,46.755,0,0,0-4.775-5.721,36.852,36.852,0,0,0-20.564-10.844A39.069,39.069,0,0,0,171.46,175.9a37.543,37.543,0,0,1,4.3-1.99c8.467-3.273,18.008-2.975,26.693-.318a31.791,31.791,0,0,1,12.078,7.024,21.933,21.933,0,0,1,8.954,4.885,31.4,31.4,0,0,1,8.725,14.257A32.14,32.14,0,0,1,233.074,214.083Z" transform="translate(-147.701 -171.527)" fill="#225570"/>
            <g id="Group_17493" data-name="Group 17493" transform="translate(34.484 56.173)">
              <g id="Group_17491" data-name="Group 17491">
                <path id="Path_32936" data-name="Path 32936" d="M182.24,230.6c4.437-2.537,9.044-3.681,15.5-1.323" transform="translate(-182.24 -227.989)" fill="none" stroke="#0b2d50" stroke-linecap="round" stroke-miterlimit="10" stroke-width="2"/>
                <path id="Path_32937" data-name="Path 32937" d="M212.78,230.421c3.8-2.835,9.432-3.124,12.367,0" transform="translate(-182.396 -227.99)" fill="none" stroke="#0b2d50" stroke-linecap="round" stroke-miterlimit="10" stroke-width="2"/>
                <path id="Path_32938" data-name="Path 32938" d="M208.166,244.972c.388,2.01.179,6.457-.776,8.457" transform="translate(-182.369 -228.076)" fill="none" stroke="#cc454e" stroke-linecap="round" stroke-miterlimit="10" stroke-width="2"/>
                <ellipse id="Ellipse_928" data-name="Ellipse 928" cx="1.831" cy="2.885" rx="1.831" ry="2.885" transform="translate(8.974 12.48)" fill="#262d40"/>
                <ellipse id="Ellipse_929" data-name="Ellipse 929" cx="1.831" cy="2.885" rx="1.831" ry="2.885" transform="translate(32.901 11.136)" fill="#262d40"/>
              </g>
              <g id="Group_17492" data-name="Group 17492" transform="translate(8.66 25.363)">
                <path id="Path_32939" data-name="Path 32939" d="M205.814,257.4a14.059,14.059,0,0,1-1.045,1.642,11.362,11.362,0,0,1-5.4,4.208h-.01a7.054,7.054,0,0,1-3.472.229c-3.741-.667-4.726-4.119-4.9-6.775a14.221,14.221,0,0,1-.03-1.433,13.559,13.559,0,0,1,.139-1.791C197.049,256.765,205.814,257.4,205.814,257.4Z" transform="translate(-190.944 -253.482)" fill="#cc454e"/>
                <path id="Path_32940" data-name="Path 32940" d="M205.814,257.4a14.063,14.063,0,0,1-1.045,1.642c-3.044-.04-9.272-1.6-13.819-3.771a13.564,13.564,0,0,1,.139-1.791C197.049,256.765,205.814,257.4,205.814,257.4Z" transform="translate(-190.944 -253.482)" fill="#fff"/>
                <path id="Path_32941" data-name="Path 32941" d="M199.357,263.258a7.055,7.055,0,0,1-3.472.229c-3.741-.667-4.726-4.119-4.9-6.775a10.187,10.187,0,0,1,8.377,6.546Z" transform="translate(-190.945 -253.498)" fill="#e8729b"/>
              </g>
            </g>
            <g id="Group_17496" data-name="Group 17496" transform="translate(0 4.132)">
              <path id="Path_32942" data-name="Path 32942" d="M163.63,225.765a68.775,68.775,0,0,1,4.955-24.733c6.477-15.471,19.679-22.087,32.483-22.534a34.889,34.889,0,0,1,25.091,9.81s-5.024-8.864-14.933-11.411c-6.507-1.671-16.326-1.94-24.206,1.264-8.118,3.293-18.236,12.436-21.9,22.1s-5.432,24.7-5.432,24.7Z" transform="translate(-147.641 -175.68)" fill="#3d86e0"/>
              <g id="Group_17494" data-name="Group 17494" transform="translate(0 44.888)">
                <ellipse id="Ellipse_930" data-name="Ellipse 930" cx="12.028" cy="18.226" rx="12.028" ry="18.226" transform="translate(0 2.488) rotate(-5.935)" fill="#56c4f9"/>
                <ellipse id="Ellipse_931" data-name="Ellipse 931" cx="7.81" cy="13.739" rx="7.81" ry="13.739" transform="translate(0.885 8.268) rotate(-8.546)" fill="#3d86e0"/>
              </g>
              <g id="Group_17495" data-name="Group 17495" transform="translate(21.342 79.424)">
                <ellipse id="Ellipse_932" data-name="Ellipse 932" cx="6.407" cy="3.99" rx="6.407" ry="3.99" transform="translate(25.778 9.352)" fill="#3a92c9"/>
                <path id="Path_32943" data-name="Path 32943" d="M169.03,255.512s9.412,12.1,25.778,13.341" transform="translate(-169.03 -255.512)" fill="none" stroke="#3a92c9" stroke-linecap="round" stroke-miterlimit="10" stroke-width="2"/>
              </g>
            </g>
          </g>
          <g id="Group_17502" data-name="Group 17502" transform="translate(13.311 108.179)">
            <g id="Group_17501" data-name="Group 17501">
              <g id="Group_17500" data-name="Group 17500" transform="translate(5.111 54.361)">
                <g id="Group_17498" data-name="Group 17498">
                  <path id="Path_32944" data-name="Path 32944" d="M208,375.155l-.617,15.908s-57.535,17.241-67.036,11.789c-4.636-2.666-8.964-17.331-12.2-31.647-3.383-15.043-5.551-29.687-5.551-29.687l33.727-6.606s.02,20.564,1.164,32.453c.408,4.427.995,7.651,1.781,8.178C162.246,377.5,208,375.155,208,375.155Z" transform="translate(-122.6 -334.902)" fill="#f9a07b"/>
                  <path id="Path_32945" data-name="Path 32945" d="M157.491,367.345c-6.129,1.99-17.958,5.064-29.339,3.85-3.383-15.043-5.551-29.687-5.551-29.687l33.727-6.606C156.327,334.892,156.347,355.457,157.491,367.345Z" transform="translate(-122.6 -334.902)" fill="#e06a58"/>
                </g>
                <g id="Group_17499" data-name="Group 17499" transform="translate(80.815 32.542)">
                  <path id="Path_32946" data-name="Path 32946" d="M206.775,375.482c8.556-1.831,23.042-6.228,29.051-7.74,4.268-1.074,15.381,4.676,18.316,10.1,1.283,2.368,2.5,15.779-1.95,14.4-2.229-.7-1.86-6.447-2.557-8.795-.567-1.91-2.378-3.761-5.134-5.353,1.841,4.586,1.771,8.586,1.572,13.54a7.021,7.021,0,0,1-.637,3.184,2.285,2.285,0,0,1-2.686,1.2c-1.015-.418-1.363-1.681-1.592-2.786a90.566,90.566,0,0,1-1.9-11.959c.08,4.248-.01,8.506-.279,12.745-.2,3.243-1.811,5.024-3.791,4.457-.885-.249-1.244-1.065-1.622-2.139-.6,2.079-2.089,4.378-4.019,3.5-1.174-.527-1.9-4.766-1.691-9.123a25.529,25.529,0,0,1-12.695,3.492c-4.318.2-8.735-.607-11.332-3.542A76.328,76.328,0,0,1,206.775,375.482Z" transform="translate(-203.83 -367.611)" fill="#f9a07b"/>
                  <path id="Path_32947" data-name="Path 32947" d="M233.805,395.769a30.419,30.419,0,0,0-.885-10.257" transform="translate(-203.979 -367.702)" fill="none" stroke="#cc454e" stroke-linecap="round" stroke-miterlimit="10" stroke-width="1"/>
                </g>
              </g>
              <path id="Path_32948" data-name="Path 32948" d="M152.51,301.264c-2.447-6.895-11.411-21-11.411-21s-13.68,5.691-18.535,15.351c-8.218,16.356-4.039,63.315-4.039,63.315,11.073,4.636,33.3,4.706,42.76,3.373C161.285,362.3,157.415,315.043,152.51,301.264Z" transform="translate(-117.462 -280.262)" fill="#ffc73c"/>
            </g>
            <path id="Path_32949" data-name="Path 32949" d="M154.44,304.272a304.185,304.185,0,0,1,6.367,50.829" transform="translate(-117.651 -280.385)" fill="none" stroke="#f2ae30" stroke-linecap="round" stroke-miterlimit="10" stroke-width="1"/>
          </g>
        </g>
        <rect id="Rectangle_8939" data-name="Rectangle 8939" width="392.265" height="9.839" transform="translate(27.459 232.531)" fill="#0b2d50"/>
      </g>
    </g>
  </g>
</svg>
