<svg xmlns="http://www.w3.org/2000/svg" width="60" height="60" viewBox="0 0 60 60">
  <g id="Group_12803" data-name="Group 12803" transform="translate(-529.176 -732.559)">
    <path id="Path_31163" data-name="Path 31163" d="M549.176,772.029v-.005h-7.72l1.455-1.456h0a1.452,1.452,0,0,0-2.054-2.054l-1.89,1.892a4.425,4.425,0,0,0,0,6.249l1.891,1.891a1.452,1.452,0,1,0,2.054-2.054h0l-1.455-1.456h7.72v-.005a2.5,2.5,0,0,1,0,5h-1.352a1.447,1.447,0,0,0-1.447,1.447v.1a1.449,1.449,0,0,0,1.449,1.449h1.35a5.5,5.5,0,0,0,0-11Z" />
    <path id="Path_31164" data-name="Path 31164" d="M586.644,744.18,579.086,733.8a3.016,3.016,0,0,0-2.438-1.24H555.705a3.016,3.016,0,0,0-2.438,1.24l-7.558,10.381a7,7,0,0,0-2.533,5.39v9.27a16.992,16.992,0,1,0,19.505,20.719h19.485a7.018,7.018,0,0,0,7.01-7.011V749.57A7,7,0,0,0,586.644,744.18Zm-18.968-8.621h8.972l.012.006,5.092,6.994H567.676Zm-11.984.006.013-.006h8.971v7H550.6Zm-9.516,53.994a14,14,0,1,1,14-14A14.017,14.017,0,0,1,546.176,789.559Zm40-17.011a4.011,4.011,0,0,1-4.011,4.011H563.126c.019-.333.05-.663.05-1a17.019,17.019,0,0,0-17-17V749.57a4.01,4.01,0,0,1,4.01-4.011h31.978a4.011,4.011,0,0,1,4.011,4.011Z" />
  </g>
</svg>
