<?xml version="1.0" encoding="utf-8"?>
<!-- Generator: Adobe Illustrator 24.0.0, SVG Export Plug-In . SVG Version: 6.00 Build 0)  -->
<svg version="1.1" id="Layer_1" xmlns="http://www.w3.org/2000/svg" xmlns:xlink="http://www.w3.org/1999/xlink" x="0px" y="0px"
	 viewBox="0 0 61 61" style="enable-background:new 0 0 61 61;" xml:space="preserve">
<style type="text/css">
	.st0{}
</style>
<title>chat 02</title>
<path class="st0" d="M7.6,26.5c0,0.8,0.7,1.5,1.5,1.5c0,0,0,0,0,0h13.4c0.8,0,1.5-0.7,1.5-1.5S23.4,25,22.6,25H9.1
	C8.3,25,7.6,25.7,7.6,26.5z"/>
<path class="st0" d="M31.6,33.5c0-0.8-0.7-1.5-1.5-1.5h-21c-0.8,0-1.5,0.7-1.5,1.5S8.3,35,9.1,35h21C31,35,31.6,34.3,31.6,33.5z"/>
<path class="st0" d="M9.1,39c-0.8,0-1.5,0.7-1.5,1.5S8.3,42,9.1,42h10.6c0.8,0,1.5-0.7,1.5-1.5S20.5,39,19.7,39H9.1z"/>
<path class="st0" d="M42.5,0.5c-9.9,0-18,7.2-18,16c0,8.1,6.9,14.9,15.7,15.9c-0.5,0.8-1.2,1.5-2.1,2c-0.5,0.2-0.9,0.8-0.9,1.4
	c0,2.6,2.5,3.8,4.8,3.8c6.2,0,9.2-5.3,10.4-9.7c4.8-2.7,7.9-7.7,8-13.3C60.5,7.7,52.4,0.5,42.5,0.5z M49.8,27.8L49.8,27.8
	c-0.5,2.7-2.3,8.7-7.7,8.7c-0.5,0-0.9-0.1-1.3-0.3c2.1-1.7,3.5-4.2,3.9-6.9l0,0l0,0c-0.7,0.1-1.5,0.1-2.2,0.1c-8.3,0-15-5.8-15-13
	s6.7-13,15-13s15,5.8,15,13C57.5,21.4,54.4,25.6,49.8,27.8z"/>
<path class="st0" d="M43.3,42.5h-0.7c-0.6,0-1.2,0.5-1.2,1.2c0,2.7-2.2,4.8-4.8,4.8H22c-0.4,0-2.1,0.4-1.9,1.8
	c0.4,2.7,1.8,5.2,3.9,7c-0.4,0.2-0.9,0.2-1.3,0.3c-4.7,0-6.7-4.5-7.5-7.5l0,0l0,0V50c-0.2-0.9-1-1.5-1.9-1.4h-5
	c-2.7,0-4.8-2.2-4.8-4.8V23.3c0-2.7,2.2-4.8,4.8-4.8h12c0.6,0,1.2-0.5,1.2-1.2l0,0v-0.6c0-0.6-0.5-1.2-1.2-1.2l0,0h-12
	c-4.3,0-7.8,3.5-7.8,7.8v20.3c0,4.3,3.5,7.8,7.8,7.8h3.3c0.7,0,1.2,0.5,1.3,1.2c0,0.1,0.1,0.2,0.1,0.3c1.5,3.8,4.5,7.6,9.7,7.6
	c2.3,0,4.8-1.2,4.8-3.8c0-0.6-0.3-1.1-0.9-1.4c-1.2-0.7-2.1-1.8-2.7-3c-0.3-0.9,0.6-0.9,0.6-0.9h12.1c4.3,0,7.8-3.5,7.8-7.8
	c0,0,0,0,0,0l0,0C44.5,43.1,44,42.5,43.3,42.5C43.4,42.5,43.3,42.5,43.3,42.5z"/>
<path class="st0" d="M42.4,7.5C40.8,7.4,39.3,8,38.1,9c-0.8,0.7-1.4,1.7-1.7,2.8c-0.1,0.4,0.2,0.8,0.6,0.9c0,0,0,0,0.1,0l1.1,0.1
	c1.3,0,1.4-0.8,1.4-0.8c0.5-1.2,1.7-2,3-2c0.8,0,1.5,0.2,2.1,0.7c0.5,0.4,0.8,1,0.8,1.6c0,0.5-0.1,0.9-0.4,1.3
	c-0.5,0.6-1.1,1.1-1.7,1.5c-0.8,0.6-1.4,1.3-1.9,2.1c-0.3,0.7-0.5,1.6-0.5,2.4c0,0.1,0,0.4,0,0.8h3c-0.1-0.6,0-1.3,0.2-1.9
	c0.3-0.5,0.8-1,1.3-1.4c1-0.8,1.9-1.7,2.6-2.7c0.4-0.6,0.6-1.3,0.6-2.1c0-1.3-0.6-2.6-1.7-3.5C45.7,8,44.1,7.4,42.4,7.5z"/>
<path class="st0" d="M42.3,22.5c-0.8,0-1.5,0.7-1.5,1.5c0,0.8,0.7,1.5,1.5,1.5c0.8,0,1.5-0.7,1.5-1.5C43.9,23.2,43.2,22.5,42.3,22.5
	C42.4,22.5,42.4,22.4,42.3,22.5z"/>
</svg>
