<svg xmlns="http://www.w3.org/2000/svg" width="41.867" height="41.867" viewBox="0 0 41.867 41.867">
  <path id="Path_33020" data-name="Path 33020" d="M350.6,301.809a20.934,20.934,0,1,0,20.934,20.934A20.934,20.934,0,0,0,350.6,301.809Zm2.522,32.636a14.94,14.94,0,0,1-4.413,2.911c-1.515.446-2.782-.089-5.955-3.706s-5.077-9.164-5.721-13.462.321-7.533.737-8.072,1.533-.976,3.433-1.263,3.739-.175,4.114,1.41.758,4.214-.007,5.436-2.771.6-3.07.551-.642-.076-.716.352a14.164,14.164,0,0,0,.807,5.6,18.926,18.926,0,0,0,3.485,5.959s1.434-1.062,2.151-1.7.831-.722,1.8-.516,2.426,2.2,3.329,3.732S353.755,333.835,353.124,334.445Zm-1.133-11.3a2.023,2.023,0,1,1,2.024-2.022A2.023,2.023,0,0,1,351.991,323.147Zm6.287,0a2.023,2.023,0,1,1,2.023-2.022A2.023,2.023,0,0,1,358.277,323.147Zm6.235,0a2.023,2.023,0,1,1,2.024-2.022A2.022,2.022,0,0,1,364.512,323.147Z" transform="translate(-329.668 -301.809)" fill="#7ac143"/>
</svg>
