<svg xmlns="http://www.w3.org/2000/svg" width="60" height="60.001" viewBox="0 0 60 60.001">
  <g id="Group_12480" data-name="Group 12480" transform="translate(-928 -332.395)">
    <path id="Path_30864" data-name="Path 30864" d="M965.323,374.715a5,5,0,1,0,5-5A5,5,0,0,0,965.323,374.715Zm6.993,0a2,2,0,1,1-2-2A2,2,0,0,1,972.316,374.714Z"/>
    <path id="Path_30865" data-name="Path 30865" d="M982.883,382.281a5,5,0,1,0,5,5A5,5,0,0,0,982.883,382.281Zm0,6.993a2,2,0,1,1,2-2A2,2,0,0,1,982.883,389.274Z"/>
    <path id="Path_30866" data-name="Path 30866" d="M987.561,370.036a1.5,1.5,0,0,0-2.122,0l-19.8,19.8a1.5,1.5,0,0,0,2.122,2.121l19.8-19.8A1.5,1.5,0,0,0,987.561,370.036Z"/>
    <path id="Path_30867" data-name="Path 30867" d="M954.505,382.485a1.5,1.5,0,0,0,1.5-1.5v-.964a4.977,4.977,0,0,0,2.15-1.218,4.769,4.769,0,0,0,1.522-3.572,4.611,4.611,0,0,0-1.191-3.212,6.269,6.269,0,0,0-2.892-1.694l-1.142-.34a5.437,5.437,0,0,1-.977-.4,1.346,1.346,0,0,1-.786-1.268,1.462,1.462,0,0,1,.531-1.263,1.965,1.965,0,0,1,3.023.618,1.547,1.547,0,0,0,1.5,1.5,1.5,1.5,0,0,0,1.5-1.5,4.487,4.487,0,0,0-3.238-3.766v-.923a1.5,1.5,0,0,0-3,0v1a4.7,4.7,0,0,0-1.835,1.046,4.4,4.4,0,0,0-1.435,3.35,3.946,3.946,0,0,0,1.385,3.209,5.58,5.58,0,0,0,1.368.8,13.091,13.091,0,0,0,1.541.539c.444.132.814.258,1.092.371a4.188,4.188,0,0,1,.871.488,1.777,1.777,0,0,1,.731,1.51,2.021,2.021,0,0,1-.634,1.518,2.083,2.083,0,0,1-1.531.609,1.917,1.917,0,0,1-2.225-1.892v-.6a1.5,1.5,0,0,0-3,0l.011.261a4.932,4.932,0,0,0,1.513,3.658,4.881,4.881,0,0,0,2.148,1.175v.968A1.5,1.5,0,0,0,954.505,382.485Z"/>
    <path id="Path_30868" data-name="Path 30868" d="M969.523,365.954a.954.954,0,0,0,.9.642H971.6a.963.963,0,0,0,.906-1.275c-1.928-5.77-6.241-10.086-9.587-12.728a4.278,4.278,0,0,0,.3-.607,1,1,0,0,1,.472-.528c7.732-3.814,8.562-8.391,8.545-10.22a4.176,4.176,0,0,0-2.19-3.959,2.852,2.852,0,0,0-3.117.569,3.238,3.238,0,0,1-3.1.458,3.407,3.407,0,0,1-2.289-1.809c-.828-3.465-5.226-4.005-6.788-4.087v-.015c-.05,0-.14,0-.247.005s-.2-.005-.247-.005v.015c-1.562.082-5.96.622-6.788,4.087a3.407,3.407,0,0,1-2.289,1.809,3.238,3.238,0,0,1-3.1-.458,2.852,2.852,0,0,0-3.117-.569,4.173,4.173,0,0,0-2.189,3.959c-.017,1.829.812,6.406,8.544,10.22a1,1,0,0,1,.472.528,4.176,4.176,0,0,0,.3.607c-4.4,3.472-10.472,9.834-10.6,18.594-.07,3.412-.692,8.9-1.854,10.407l-.021.026c-.15.124-.545.381-.839.573-1.873,1.22-5.772,3.759-4.544,7.638a3.683,3.683,0,0,0,3.539,2.564h29.471a.956.956,0,0,0,.956-.956v-1.088a.956.956,0,0,0-.956-.956H931.774a.707.707,0,0,1-.68-.469c-.5-1.574,1.368-2.947,3.322-4.219a5.382,5.382,0,0,0,1.65-1.349c2.131-2.882,2.4-10.584,2.427-12.118.113-7.908,6.171-13.784,10.125-16.784a3.97,3.97,0,0,0,.931.119h9.912a3.97,3.97,0,0,0,.931-.119C963.4,356.742,967.629,360.7,969.523,365.954Zm-23.7-18.855a.951.951,0,0,1-1.394.424c-4.145-2.668-4.621-5.263-4.652-6.1a2.03,2.03,0,0,1,.318-1.327,5.942,5.942,0,0,0,5.471,1.2l.436.657a1.5,1.5,0,0,0,2.5-1.66l-.17-.254a5.158,5.158,0,0,0,2.058-2.847c.3-1.246,2.682-1.722,4.055-1.791.044,0,.08,0,.124,0,1.373.069,3.757.545,4.055,1.791a5.158,5.158,0,0,0,2.058,2.847l-.169.254a1.5,1.5,0,1,0,2.5,1.66l.436-.657a5.942,5.942,0,0,0,5.471-1.2,2.035,2.035,0,0,1,.319,1.327c-.031.836-.507,3.431-4.653,6.1a.952.952,0,0,1-1.394-.424,4.024,4.024,0,0,0-3.727-2.524h-9.912A4.024,4.024,0,0,0,945.822,347.1Zm12.683,4.476h-8a2,2,0,0,1,0-4h8a2,2,0,0,1,2,2h0A2,2,0,0,1,958.505,351.575Z"/>
  </g>
</svg>
