<svg id="Layer_1" data-name="Layer 1" xmlns="http://www.w3.org/2000/svg" viewBox="0 0 61 61"><defs><style>.cls-1{}</style></defs><path class="cls-1" d="M7.34,6.5A6.84,6.84,0,0,0,.5,13.34V42A6.84,6.84,0,0,0,7.34,48.8a1.41,1.41,0,0,0,1.41-1.41v-.18A1.41,1.41,0,0,0,7.34,45.8,3.84,3.84,0,0,1,3.5,42V13.34A3.84,3.84,0,0,1,7.34,9.5,1.41,1.41,0,0,0,8.75,8.09V7.91A1.41,1.41,0,0,0,7.34,6.5Z"/><path class="cls-1" d="M19.34,9.5h17a1.5,1.5,0,0,0,0-3h-17a1.5,1.5,0,0,0,0,3Z"/><path class="cls-1" d="M27.34,12.5h-8a1.5,1.5,0,0,0,0,3h8a1.5,1.5,0,1,0,0-3Z"/><path class="cls-1" d="M27.34,18.5h-8a1.5,1.5,0,0,0,0,3h8a1.5,1.5,0,1,0,0-3Z"/><path class="cls-1" d="M27.34,24.5h-8a1.5,1.5,0,0,0,0,3h8a1.5,1.5,0,1,0,0-3Z"/><path class="cls-1" d="M31.84,14a1.5,1.5,0,0,0,1.5,1.5H47.13a1.5,1.5,0,0,0,0-3H33.34A1.5,1.5,0,0,0,31.84,14Z"/><path class="cls-1" d="M48.63,20a1.5,1.5,0,0,0-1.5-1.5H33.34a1.5,1.5,0,0,0,0,3H47.13A1.5,1.5,0,0,0,48.63,20Z"/><path class="cls-1" d="M59.35,36.76l-4.6-4.61V7.34A6.84,6.84,0,0,0,47.91.5H18.59a6.84,6.84,0,0,0-6.84,6.84V48a6.84,6.84,0,0,0,6.84,6.84H26.5v3.66a2,2,0,0,0,2,2H58.46a2,2,0,0,0,2-2V39.52A3.86,3.86,0,0,0,59.35,36.76ZM26.5,31.54V51.8H18.59A3.84,3.84,0,0,1,14.75,48V7.34A3.84,3.84,0,0,1,18.59,3.5H47.91a3.84,3.84,0,0,1,3.84,3.84V29.7a3.57,3.57,0,0,0-1.12-.2H28.54A2,2,0,0,0,26.5,31.54Zm20,1v7h-7v-7Zm3,25h-12v-7h12Zm8,0h-5V49.7a2.21,2.21,0,0,0-2.2-2.2H36.7a2.21,2.21,0,0,0-2.2,2.2v7.8h-5v-25h7v7.8a2.21,2.21,0,0,0,2.2,2.2h8.6a2.21,2.21,0,0,0,2.2-2.2V32.5h1.13a.59.59,0,0,1,.39.16l6.21,6.22a.87.87,0,0,1,.27.64Z"/></svg>