<svg xmlns="http://www.w3.org/2000/svg" width="54.016" height="60" viewBox="0 0 54.016 60"><defs><style>.a{fill:#00a859;}</style></defs><g transform="translate(-21.277)"><g transform="translate(21.277)"><path class="a" d="M98.265,182.5a23.325,23.325,0,0,1-2.788-11.471c0-7.2,6.315-13.063,14.062-13.063s14.062,5.862,14.062,13.063a1.507,1.507,0,0,0,3.014,0c0-8.853-7.657-16.039-17.076-16.039s-17.077,7.2-17.077,16.039a26.207,26.207,0,0,0,3.18,12.929,31.228,31.228,0,0,0,6.059,7.841,1.506,1.506,0,0,0,1.07.446,1.36,1.36,0,0,0,1.04-.446,1.455,1.455,0,0,0,.015-2.1A28.246,28.246,0,0,1,98.265,182.5Z" transform="translate(-82.533 -132.881)"/><path class="a" d="M81.132,7.171a35.549,35.549,0,0,1,33.536.015,1.629,1.629,0,0,0,.692.164h0a1.526,1.526,0,0,0,1.34-.8,1.488,1.488,0,0,0-.647-2.009,38.642,38.642,0,0,0-36.366.015,1.484,1.484,0,0,0-.6,2.023A1.52,1.52,0,0,0,81.132,7.171Z" transform="translate(-70.865)"/><path class="a" d="M62.347,103.04A24.961,24.961,0,0,0,39.8,116.713a21.866,21.866,0,0,0-2.057,9.626,32.87,32.87,0,0,0,2.192,11.769,1.516,1.516,0,0,0,1.937.878,1.5,1.5,0,0,0,.886-1.919,29.449,29.449,0,0,1-2-10.727,18.97,18.97,0,0,1,1.756-8.347A21.924,21.924,0,0,1,62.362,106c11.994,0,21.752,9.12,21.752,20.338a6.263,6.263,0,0,1-12.49,0,9.261,9.261,0,0,0-18.494,0,21.687,21.687,0,0,0,6.5,15.533,22.981,22.981,0,0,0,11.154,6.249,1.128,1.128,0,0,0,.39.06,1.483,1.483,0,0,0,.39-2.916,20.3,20.3,0,0,1-9.833-5.49,18.741,18.741,0,0,1-5.614-13.42,6.263,6.263,0,0,1,12.49,0,9.261,9.261,0,0,0,18.494,0C87.1,113.5,75.992,103.04,62.347,103.04Z" transform="translate(-35.446 -88.18)"/><path class="a" d="M75.013,65.29a31.311,31.311,0,0,0-11.25-9.671,34.868,34.868,0,0,0-30.945.03,31.17,31.17,0,0,0-11.265,9.745,1.474,1.474,0,0,0,.36,2.068,1.572,1.572,0,0,0,.87.268,1.531,1.531,0,0,0,1.23-.61A28.1,28.1,0,0,1,34.2,58.3a31.8,31.8,0,0,1,28.2-.03,28.1,28.1,0,0,1,10.17,8.748,1.516,1.516,0,0,0,2.1.342A1.471,1.471,0,0,0,75.013,65.29Z" transform="translate(-21.277 -44.759)"/><path class="a" d="M220.876,273.339a19.541,19.541,0,0,1-3.109.283A12.874,12.874,0,0,1,204.451,260.9a1.488,1.488,0,1,0-2.976,0,15.866,15.866,0,0,0,7.067,13.063,16.162,16.162,0,0,0,9.224,2.633,21.307,21.307,0,0,0,3.63-.327,1.488,1.488,0,1,0-.521-2.931Z" transform="translate(-175.902 -222.742)"/></g></g></svg>