<svg xmlns="http://www.w3.org/2000/svg" width="60" height="60.001" viewBox="0 0 60 60.001">
  <g id="Group_12497" data-name="Group 12497" transform="translate(-1528 -332.395)">
    <path id="Path_30940" data-name="Path 30940" d="M1586.5,369.921h-19.922a1.5,1.5,0,0,0,0,3H1585v11.444a.53.53,0,0,1-.529.529h-.684a5.971,5.971,0,0,0-11.574,0h-1.426a5.971,5.971,0,0,0-11.574,0h-.684a.53.53,0,0,1-.529-.529v-11a4.949,4.949,0,0,0,1.154-.84,4.455,4.455,0,0,0,.276-6.275l-8.609-8.61a4.59,4.59,0,0,0-3.057-1.277H1542.6v-.152a8,8,0,1,0-3,0v.152h-6.819a4.759,4.759,0,0,0-3.525,1.31,4.587,4.587,0,0,0-1.258,3.065v12.176a4.456,4.456,0,0,0,4.633,4.242h.969v10.8a4.456,4.456,0,0,0,4.113,4.421,5.243,5.243,0,0,1,6.774,0,4.456,4.456,0,0,0,4.113-4.421V368.525l4.276,4.276a3.951,3.951,0,0,0,2.122,1.086v10.478a3.529,3.529,0,0,0,3.529,3.529h.683a5.971,5.971,0,0,0,11.575,0h1.425a5.971,5.971,0,0,0,11.575,0h.684a3.53,3.53,0,0,0,3.529-3.529V371.421A1.5,1.5,0,0,0,1586.5,369.921Zm-50.4-21.559a5,5,0,1,1,5,5A5,5,0,0,1,1536.1,348.362Zm21.212,22.323a1.868,1.868,0,0,1-2.6.276l-6.116-6.116c-.957-.957-1.478-.888-1.478-.888h-1.358a.163.163,0,0,0-.164.164v23.836a1.442,1.442,0,0,1-1.441,1.441,1.473,1.473,0,0,1-1.559-1.441V370.916a.163.163,0,0,0-.164-.164h-2.672a.163.163,0,0,0-.164.164v17.041a1.472,1.472,0,0,1-1.558,1.441,1.443,1.443,0,0,1-1.442-1.441V365.121a.163.163,0,0,0-.164-.164h-2.672a.163.163,0,0,0-.164.164v9.432h-.969a1.869,1.869,0,0,1-2.031-1.64V361.122a2,2,0,0,1,.505-1.223,2.287,2.287,0,0,1,1.676-.537h14.793a2.709,2.709,0,0,1,2.218.93l7.8,7.8A1.868,1.868,0,0,1,1557.314,370.685Zm7.685,18.71a3,3,0,1,1,3-3A3,3,0,0,1,1565,389.395Zm13,0a3,3,0,1,1,3-3A3,3,0,0,1,1578,389.395Z" />
    <path id="Path_30941" data-name="Path 30941" d="M1567.328,348.833a1.5,1.5,0,0,0-1.5,1.5l.01.261a4.835,4.835,0,0,0,3.662,4.834v.967a1.5,1.5,0,0,0,3,0v-.964a4.964,4.964,0,0,0,2.149-1.218,4.766,4.766,0,0,0,1.523-3.572,4.611,4.611,0,0,0-1.191-3.212,6.274,6.274,0,0,0-2.892-1.694l-1.143-.34a5.47,5.47,0,0,1-.977-.4,1.345,1.345,0,0,1-.785-1.268,1.459,1.459,0,0,1,.531-1.263,1.965,1.965,0,0,1,3.023.618,1.547,1.547,0,0,0,1.5,1.5,1.5,1.5,0,0,0,1.5-1.5,4.487,4.487,0,0,0-3.238-3.766v-.923a1.5,1.5,0,0,0-3,0v1a4.725,4.725,0,0,0-1.836,1.046,4.4,4.4,0,0,0-1.434,3.351,3.946,3.946,0,0,0,1.385,3.209,5.6,5.6,0,0,0,1.367.794,13.263,13.263,0,0,0,1.542.54c.443.131.814.257,1.092.37a4.1,4.1,0,0,1,.87.489,1.774,1.774,0,0,1,.732,1.509,2.025,2.025,0,0,1-.634,1.519,2.087,2.087,0,0,1-1.531.609,1.917,1.917,0,0,1-2.225-1.893v-.6A1.5,1.5,0,0,0,1567.328,348.833Z" />
    <path id="Path_30942" data-name="Path 30942" d="M1564.822,361.041v4.179a1.082,1.082,0,0,0,1.721.873l4.457-3.259,4.457,3.259a1.082,1.082,0,0,0,1.721-.873v-4.179a15,15,0,1,0-12.356,0Zm6-25.645a11.994,11.994,0,0,1,3.357,23.559v.98h0v1.506l-2.566-1.877a1.09,1.09,0,0,0-1.224,0l-2.566,1.877v-2.486a11.993,11.993,0,0,1-8.787-12.49A12.148,12.148,0,0,1,1570.821,335.4Z" />
  </g>
</svg>
