<svg xmlns="http://www.w3.org/2000/svg" width="60" height="60" viewBox="0 0 60 60">
  <g id="Group_12491" data-name="Group 12491" transform="translate(-1628 -532.401)">
    <path id="Path_30917" data-name="Path 30917" d="M1646.264,532.4h-8.53a9.746,9.746,0,0,0-9.734,9.735v8.529a9.746,9.746,0,0,0,9.734,9.736h8.53a9.747,9.747,0,0,0,9.736-9.736v-8.529A9.746,9.746,0,0,0,1646.264,532.4ZM1653,550.665a6.743,6.743,0,0,1-6.736,6.736h-8.53a6.743,6.743,0,0,1-6.734-6.736v-8.529a6.742,6.742,0,0,1,6.734-6.735h8.53a6.742,6.742,0,0,1,6.736,6.735Z" />
    <path id="Path_30918" data-name="Path 30918" d="M1646.264,564.4h-8.53a9.746,9.746,0,0,0-9.734,9.735v8.529a9.746,9.746,0,0,0,9.734,9.736h8.53a9.747,9.747,0,0,0,9.736-9.736v-8.529A9.746,9.746,0,0,0,1646.264,564.4ZM1653,582.665a6.743,6.743,0,0,1-6.736,6.736h-8.53a6.743,6.743,0,0,1-6.734-6.736v-8.529a6.742,6.742,0,0,1,6.734-6.735h8.53a6.742,6.742,0,0,1,6.736,6.735Z" />
    <path id="Path_30919" data-name="Path 30919" d="M1678.264,532.4h-8.53a9.746,9.746,0,0,0-9.734,9.735v8.529a9.746,9.746,0,0,0,9.734,9.736h8.53a9.747,9.747,0,0,0,9.736-9.736v-8.529A9.746,9.746,0,0,0,1678.264,532.4ZM1685,550.665a6.743,6.743,0,0,1-6.736,6.736h-8.53a6.743,6.743,0,0,1-6.734-6.736v-8.529a6.742,6.742,0,0,1,6.734-6.735h8.53a6.742,6.742,0,0,1,6.736,6.735Z" />
    <path id="Path_30920" data-name="Path 30920" d="M1678.264,564.4h-8.53a9.746,9.746,0,0,0-9.734,9.735v8.529a9.746,9.746,0,0,0,9.734,9.736h8.53a9.747,9.747,0,0,0,9.736-9.736v-8.529A9.746,9.746,0,0,0,1678.264,564.4ZM1685,582.665a6.743,6.743,0,0,1-6.736,6.736h-8.53a6.743,6.743,0,0,1-6.734-6.736v-8.529a6.742,6.742,0,0,1,6.734-6.735h8.53a6.742,6.742,0,0,1,6.736,6.735Z" />
  </g>
</svg>
