<svg xmlns="http://www.w3.org/2000/svg" width="57.494" height="34.275" viewBox="0 0 57.494 34.275">
  <g id="Group_14821" data-name="Group 14821" transform="translate(0 -103.385)">
    <g id="Group_14818" data-name="Group 14818" transform="translate(0 103.385)">
      <g id="Group_14817" data-name="Group 14817">
        <path id="Path_7078" data-name="Path 7078" d="M55.836,115.547a1.658,1.658,0,0,0,1.658-1.658v-8.845a1.658,1.658,0,0,0-1.658-1.658H1.658A1.658,1.658,0,0,0,0,105.043v8.845a1.658,1.658,0,0,0,1.658,1.658,4.975,4.975,0,0,1,0,9.951A1.658,1.658,0,0,0,0,127.157V136a1.658,1.658,0,0,0,1.658,1.658H55.836A1.658,1.658,0,0,0,57.494,136v-8.845a1.658,1.658,0,0,0-1.658-1.658,4.975,4.975,0,0,1,0-9.951Zm-1.658,13.1v5.695H19.349v-4.975a1.658,1.658,0,1,0-3.317,0v4.975H3.317v-5.695a8.293,8.293,0,0,0,0-16.252V106.7H16.032v4.975a1.658,1.658,0,1,0,3.317,0V106.7H54.177V112.4a8.293,8.293,0,0,0,0,16.252Z" transform="translate(0 -103.385)" />
      </g>
    </g>
    <g id="Group_14820" data-name="Group 14820" transform="translate(16.032 116.653)">
      <g id="Group_14819" data-name="Group 14819">
        <path id="Path_7079" data-name="Path 7079" d="M144.427,221.538a1.658,1.658,0,0,0-1.658,1.658v4.423a1.658,1.658,0,0,0,3.317,0V223.2A1.658,1.658,0,0,0,144.427,221.538Z" transform="translate(-142.769 -221.538)"  />
      </g>
    </g>
  </g>
</svg>
