<svg xmlns="http://www.w3.org/2000/svg" width="60" height="60" viewBox="0 0 60 60">
  <g id="Group_12478" data-name="Group 12478" transform="translate(-1228 -232.393)">
    <path id="Path_30859" data-name="Path 30859" d="M1270,286.393a5,5,0,1,0-5-5A5.006,5.006,0,0,0,1270,286.393Zm0-7a2,2,0,1,1-2,2A2,2,0,0,1,1270,279.393Z"/>
    <path id="Path_30860" data-name="Path 30860" d="M1238.24,286.392h12.519a4.246,4.246,0,0,0,4.241-4.24v-1.519a4.246,4.246,0,0,0-4.241-4.241H1238.24a4.246,4.246,0,0,0-4.24,4.241v1.519A4.245,4.245,0,0,0,1238.24,286.392ZM1237,280.633a1.24,1.24,0,0,1,1.241-1.24h12.519a1.24,1.24,0,0,1,1.24,1.24v1.52a1.24,1.24,0,0,1-1.24,1.24H1238.24a1.24,1.24,0,0,1-1.241-1.24Z"/>
    <path id="Path_30861" data-name="Path 30861" d="M1281.911,232.393h-40.823a6.1,6.1,0,0,0-6.088,6.088v13.912h-.912a6.1,6.1,0,0,0-6.088,6.088V286.3a6.1,6.1,0,0,0,6.088,6.088h40.823A6.1,6.1,0,0,0,1281,286.3V272.393h.911A6.1,6.1,0,0,0,1288,266.3V238.481A6.1,6.1,0,0,0,1281.911,232.393ZM1278,286.3a3.089,3.089,0,0,1-3.089,3.089h-40.823A3.088,3.088,0,0,1,1231,286.3V273.393h47Zm0-15.911h-47v-6h47Zm0-9h-47v-2.912a3.087,3.087,0,0,1,3.088-3.088h40.823a3.088,3.088,0,0,1,3.089,3.088Zm7,4.911a3.089,3.089,0,0,1-3.089,3.089H1281V258.481a6.1,6.1,0,0,0-6.089-6.088H1238V238.481a3.087,3.087,0,0,1,3.088-3.088h40.823a3.088,3.088,0,0,1,3.089,3.088Z"/>
  </g>
</svg>
