<svg xmlns="http://www.w3.org/2000/svg" width="60" height="60" viewBox="0 0 60 60">
  <g id="Group_12512" data-name="Group 12512" transform="translate(-1128 -132.39)">
    <path id="Path_31006" data-name="Path 31006" d="M1180.5,153.39h-8.729a1.5,1.5,0,0,0,0,3h8.729a1.5,1.5,0,0,0,0-3Z"/>
    <path id="Path_31007" data-name="Path 31007" d="M1180.5,168.39h-8.729a1.5,1.5,0,0,0,0,3h8.729a1.5,1.5,0,0,0,0-3Z"/>
    <path id="Path_31008" data-name="Path 31008" d="M1180.5,183.39h-8.729a1.5,1.5,0,0,0,0,3h8.729a1.5,1.5,0,0,0,0-3Z"/>
    <path id="Path_31009" data-name="Path 31009" d="M1184.248,135.388l-4.523,0a4.494,4.494,0,0,0-4.224-3h-13.729a4.493,4.493,0,0,0-4.223,3l-4.526,0a3.746,3.746,0,0,0-3.752,3.731V188.66a3.746,3.746,0,0,0,3.752,3.73l17.249-.007v.007H1178v-.011l6.248.011a3.746,3.746,0,0,0,3.752-3.73V139.119A3.746,3.746,0,0,0,1184.248,135.388Zm-22.477,0H1175.5a1.5,1.5,0,0,1,0,3h-13.729a1.5,1.5,0,0,1,0-3ZM1185,187.646a1.749,1.749,0,0,1-1.744,1.744h-29.24a1.75,1.75,0,0,1-1.745-1.744V140.132a1.75,1.75,0,0,1,1.745-1.744h3.532a4.494,4.494,0,0,0,4.224,3H1175.5a4.5,4.5,0,0,0,4.224-3h3.531a1.749,1.749,0,0,1,1.744,1.744Z"/>
    <path id="Path_31010" data-name="Path 31010" d="M1162.9,159.39h-3.257a4.376,4.376,0,0,0-4.372,4.371v3.258a4.376,4.376,0,0,0,4.372,4.371h3.257a4.376,4.376,0,0,0,4.371-4.371v-3.258A4.376,4.376,0,0,0,1162.9,159.39Zm1.371,7.629a1.371,1.371,0,0,1-1.371,1.371h-3.258a1.371,1.371,0,0,1-1.371-1.371v-3.258a1.371,1.371,0,0,1,1.371-1.371h3.258a1.371,1.371,0,0,1,1.371,1.371Z"/>
    <path id="Path_31011" data-name="Path 31011" d="M1162.9,174.39h-3.257a4.376,4.376,0,0,0-4.372,4.371v3.258a4.376,4.376,0,0,0,4.372,4.371h3.257a4.376,4.376,0,0,0,4.371-4.371v-3.258A4.376,4.376,0,0,0,1162.9,174.39Zm1.371,7.629a1.371,1.371,0,0,1-1.371,1.371h-3.258a1.371,1.371,0,0,1-1.371-1.371v-3.258a1.371,1.371,0,0,1,1.371-1.371h3.258a1.371,1.371,0,0,1,1.371,1.371Z"/>
    <path id="Path_31012" data-name="Path 31012" d="M1166.211,143.916l-4.283,4.283a.929.929,0,0,1-1.313,0l-1.283-1.283a1.5,1.5,0,0,0-2.121,2.121l2.711,2.711a1.909,1.909,0,0,0,2.7,0l5.711-5.712a1.5,1.5,0,0,0-2.121-2.121Z"/>
    <path id="Path_31013" data-name="Path 31013" d="M1165.772,153.39h-6.13a1.371,1.371,0,0,1-1.371-1.371V151.6a1.5,1.5,0,0,0-3,.006v.418a4.372,4.372,0,0,0,4.372,4.371h6.129a1.5,1.5,0,0,0,0-3Z"/>
    <path id="Path_31014" data-name="Path 31014" d="M1145.291,145.506l-.709.294a6.277,6.277,0,0,0-7.495.734l-2.941,2.942a5.8,5.8,0,0,0-1.64,4.12,6.981,6.981,0,0,0,.869,3.317l-.6,1.577a6.278,6.278,0,0,0-4.778,5.818v4.165a6.277,6.277,0,0,0,4.778,5.819c.245.646.352.93.6,1.577a6.98,6.98,0,0,0-.869,3.316,5.8,5.8,0,0,0,1.637,4.117l2.944,2.945a6.277,6.277,0,0,0,7.5.731l.722.3h0c.722.3.961-.892.961-.892v-2.083a.882.882,0,0,0-.51-.8c-.129-.059-.256-.119-.382-.183a.641.641,0,0,0-.64.016c-.354.223-.741.472-1.126.729-2.112,1.412-3.762.7-4.4.06l-2.945-2.945a2.823,2.823,0,0,1-.758-2,4.343,4.343,0,0,1,.818-2.407c.258-.385.506-.772.729-1.126a.626.626,0,0,0,.022-.629,18.955,18.955,0,0,1-1.146-2.768.632.632,0,0,0-.461-.43c-.408-.093-.857-.19-1.31-.28-2.493-.494-3.158-2.163-3.158-3.072v-4.165c0-.908.665-2.578,3.158-3.072.453-.09.9-.187,1.31-.28a.632.632,0,0,0,.461-.43,18.9,18.9,0,0,1,1.146-2.767.626.626,0,0,0-.022-.629c-.223-.355-.471-.741-.729-1.127a4.34,4.34,0,0,1-.818-2.407,2.823,2.823,0,0,1,.758-2l2.945-2.945c.642-.643,2.292-1.352,4.4.06.383.257.768.5,1.121.727a.654.654,0,0,0,.649.016c.109-.055.218-.107.329-.159a.965.965,0,0,0,.559-.878v-2.08C1146.271,145.224,1145.291,145.506,1145.291,145.506Z"/>
  </g>
</svg>
