<svg xmlns="http://www.w3.org/2000/svg" width="60" height="60" viewBox="0 0 60 60">
  <g id="Group_5177" data-name="Group 5177" transform="translate(-1262.199 -238.377)">
    <path id="Path_4542" data-name="Path 4542" d="M1314.7,283.377h-45a7.5,7.5,0,0,0,0,15h45a7.5,7.5,0,0,0,0-15Zm0,12h-45a4.5,4.5,0,0,1,0-9h45a4.5,4.5,0,0,1,0,9Z" fill=""/>
    <path id="Path_4543" data-name="Path 4543" d="M1286.7,289.377h-17a1.5,1.5,0,0,0,0,3h17a1.5,1.5,0,0,0,0-3Z" fill=""/>
    <path id="Path_4544" data-name="Path 4544" d="M1300.8,254.667l-7.318,12.176a1.5,1.5,0,0,1-2.572,0l-3.363-5.6a1.5,1.5,0,0,0-2.059-.514h0a1.5,1.5,0,0,0-.513,2.059l4.862,8.091a2.753,2.753,0,0,0,4.718,0l8.817-14.67a1.5,1.5,0,1,0-2.572-1.545Z" fill=""/>
    <path id="Path_4545" data-name="Path 4545" d="M1271.017,272.288c.236.629.34.9.578,1.533a6.493,6.493,0,0,0-.164,6.222.654.654,0,0,0,.581.334h3.661l-1.209-1.21c-.642-.642-1.352-2.292.061-4.4.254-.381.5-.764.723-1.116a.65.65,0,0,0,.022-.647,18.945,18.945,0,0,1-1.138-2.748.648.648,0,0,0-.474-.442c-.406-.092-.851-.189-1.3-.278-2.493-.495-3.157-2.164-3.157-3.072v-4.165c0-.908.664-2.577,3.157-3.071.45-.09.9-.186,1.3-.278a.652.652,0,0,0,.474-.442,18.864,18.864,0,0,1,1.139-2.75.649.649,0,0,0-.023-.646c-.222-.352-.468-.736-.723-1.117-1.413-2.112-.7-3.762-.061-4.4l2.945-2.945a2.825,2.825,0,0,1,2-.759,4.347,4.347,0,0,1,2.407.819c.382.255.765.5,1.117.724a.65.65,0,0,0,.647.022,18.9,18.9,0,0,1,2.749-1.138.654.654,0,0,0,.442-.474c.092-.406.188-.851.277-1.3.494-2.492,2.164-3.157,3.073-3.157h4.164c.909,0,2.578.665,3.072,3.157.089.45.186.9.278,1.3a.652.652,0,0,0,.442.474,18.944,18.944,0,0,1,2.749,1.138.65.65,0,0,0,.647-.022c.352-.222.735-.469,1.117-.724a4.347,4.347,0,0,1,2.407-.819,2.827,2.827,0,0,1,2,.759l2.945,2.945c.642.642,1.352,2.292-.061,4.4-.255.381-.5.765-.723,1.117a.646.646,0,0,0-.023.646,18.959,18.959,0,0,1,1.139,2.75.652.652,0,0,0,.473.442c.406.092.851.188,1.3.278,2.492.494,3.157,2.163,3.157,3.071v4.165c0,.908-.665,2.577-3.157,3.072-.45.089-.9.186-1.3.278a.649.649,0,0,0-.473.442,18.827,18.827,0,0,1-1.139,2.748.65.65,0,0,0,.023.647c.222.352.468.735.723,1.116,1.413,2.113.7,3.763.061,4.4l-1.21,1.21h3.662a.654.654,0,0,0,.58-.334,6.5,6.5,0,0,0-.162-6.222l.578-1.533a6.284,6.284,0,0,0,4.816-5.829v-4.165a6.278,6.278,0,0,0-4.781-5.818l-.628-1.517a6.279,6.279,0,0,0-.734-7.495l-2.943-2.942a5.81,5.81,0,0,0-4.12-1.639,6.976,6.976,0,0,0-3.316.868l-1.577-.6a6.279,6.279,0,0,0-5.819-4.778h-4.165a6.277,6.277,0,0,0-5.818,4.778l-1.577.6a6.983,6.983,0,0,0-3.317-.868,5.808,5.808,0,0,0-4.117,1.636l-2.944,2.945a6.275,6.275,0,0,0-.735,7.495l-.628,1.517a6.279,6.279,0,0,0-4.781,5.818v4.165A6.284,6.284,0,0,0,1271.017,272.288Z" fill=""/>
  </g>
</svg>
