<svg xmlns="http://www.w3.org/2000/svg" width="46.875" height="60" viewBox="0 0 46.875 60"><defs><style>.a{fill:#00a859;}</style></defs><g transform="translate(-56)"><path class="a" d="M118.907,158.461l5.472-6.583a.878.878,0,0,0-1.35-1.122l-4.69,5.643-1.025-1.665a.878.878,0,0,0-1.5.92l1.666,2.706A.878.878,0,0,0,118.907,158.461Z" transform="translate(-52.702 -132.806)"/><path class="a" d="M115.82,254.652l1.666,2.706a.878.878,0,0,0,1.423.1l5.472-6.583a.878.878,0,0,0-1.35-1.122l-4.69,5.643-1.025-1.665a.878.878,0,1,0-1.495.92Z" transform="translate(-52.703 -220.201)"/><path class="a" d="M115.82,354.319l1.666,2.706a.878.878,0,0,0,1.423.1l5.472-6.583a.878.878,0,0,0-1.35-1.122l-4.69,5.643-1.025-1.665a.878.878,0,1,0-1.495.92Z" transform="translate(-52.703 -308.186)"/><path class="a" d="M102,181.446a.879.879,0,0,0-.879.879v6.4a1.35,1.35,0,0,1-1.348,1.348H59.105a1.35,1.35,0,0,1-1.348-1.348V150.188a.879.879,0,1,0-1.758,0v38.538a3.11,3.11,0,0,0,3.105,3.107H99.77a3.11,3.11,0,0,0,3.105-3.107v-6.4A.879.879,0,0,0,102,181.446Z" transform="translate(0 -131.834)"/><path class="a" d="M99.77,6.775h-4.3V3.142a3.141,3.141,0,1,0-6.281,0V6.775H82.578V3.142a3.141,3.141,0,1,0-6.281,0V6.775H69.686V3.142a3.141,3.141,0,1,0-6.281,0V6.775h-4.3A3.11,3.11,0,0,0,56,9.881v4.4a.879.879,0,1,0,1.758,0v-4.4a1.349,1.349,0,0,1,1.348-1.348h4.3v1.4a3.141,3.141,0,1,0,6.281,0v-1.4H76.3v1.4a3.141,3.141,0,1,0,6.281,0v-1.4h6.611v1.4a3.141,3.141,0,1,0,6.281,0v-1.4h4.3a1.349,1.349,0,0,1,1.348,1.348V46.411a.879.879,0,1,0,1.758,0V9.881A3.11,3.11,0,0,0,99.77,6.775ZM67.928,9.929a1.383,1.383,0,1,1-2.766,0V3.142a1.383,1.383,0,1,1,2.766,0Zm12.892,0a1.383,1.383,0,1,1-2.766,0V3.142a1.383,1.383,0,1,1,2.766,0Zm12.892,0a1.383,1.383,0,1,1-2.766,0V3.142a1.383,1.383,0,1,1,2.766,0Z" transform="translate(0 0)"/><path class="a" d="M200.989,183.684h18.493a2.75,2.75,0,0,0,0-5.5H200.989a2.75,2.75,0,1,0,0,5.5Zm0-3.745h18.493a.995.995,0,1,1,0,1.99H200.989a.995.995,0,1,1,0-1.99Z" transform="translate(-125.533 -157.3)"/><path class="a" d="M200.989,282.9h18.493a2.75,2.75,0,0,0,0-5.5H200.989a2.75,2.75,0,1,0,0,5.5Zm0-3.745h18.493a.995.995,0,1,1,0,1.99H200.989a.995.995,0,1,1,0-1.99Z" transform="translate(-125.533 -244.885)"/><path class="a" d="M200.989,382.109h18.493a2.75,2.75,0,0,0,0-5.5H200.989a2.75,2.75,0,1,0,0,5.5Zm0-3.745h18.493a.995.995,0,0,1,0,1.99H200.989a.995.995,0,0,1,0-1.99Z" transform="translate(-125.533 -332.469)"/></g></svg>