<svg xmlns="http://www.w3.org/2000/svg" viewBox="0 0 61 61"><defs><style></style></defs><title>01 ICON</title><g id="Layer_2" data-name="Layer 2"><path class="cls-1" d="M20.5,29.5V27a5.1,5.1,0,0,0,2.15-1.22,4.78,4.78,0,0,0,1.52-3.57A4.63,4.63,0,0,0,23,19a6.31,6.31,0,0,0-2.89-1.69L19,17a5.75,5.75,0,0,1-1-.4,1.36,1.36,0,0,1-.79-1.27,1.46,1.46,0,0,1,.54-1.26,2,2,0,0,1,3,.62,1.54,1.54,0,0,0,1.5,1.5,1.5,1.5,0,0,0,1.5-1.5,4.5,4.5,0,0,0-3.24-3.77V8.5a1.5,1.5,0,0,0-3,0V11a4.72,4.72,0,0,0-1.84,1,4.39,4.39,0,0,0-1.43,3.35,3.94,3.94,0,0,0,1.38,3.21,5.42,5.42,0,0,0,1.37.79,11.07,11.07,0,0,0,1.54.54c.45.14.82.26,1.1.37a4.57,4.57,0,0,1,.87.49,1.81,1.81,0,0,1,.73,1.51,2,2,0,0,1-.64,1.52,2.09,2.09,0,0,1-1.53.61,1.91,1.91,0,0,1-2.22-1.89v-.6a1.5,1.5,0,1,0-3,0v.26A4.81,4.81,0,0,0,17.5,27V29.5a1.5,1.5,0,0,0,3,0Z"/><path class="cls-1" d="M18,46.6a1.55,1.55,0,1,0-1.55-1.55A1.54,1.54,0,0,0,18,46.6Z"/><path class="cls-1" d="M39.32,40.35a4.5,4.5,0,1,0-3.18,1.32A4.47,4.47,0,0,0,39.32,40.35Zm-4.68-3.18a1.5,1.5,0,1,1,1.5,1.5A1.5,1.5,0,0,1,34.64,37.17Z"/><path class="cls-1" d="M48.87,45.4a4.5,4.5,0,1,0,3.18,7.68,4.51,4.51,0,0,0,0-6.36A4.47,4.47,0,0,0,48.87,45.4Zm0,6a1.5,1.5,0,1,1,1.49-1.5A1.51,1.51,0,0,1,48.87,51.4Z"/><path class="cls-1" d="M51.34,34.7a1.49,1.49,0,0,0-2.12,0L33.66,50.25a1.51,1.51,0,0,0,0,2.12,1.49,1.49,0,0,0,2.12,0L51.34,36.82A1.49,1.49,0,0,0,51.34,34.7Z"/><path class="cls-1" d="M58.18,21.12,57.11,20,54.1,17l-5.92-6A7.89,7.89,0,0,0,44,8.65V5a1.5,1.5,0,0,1,3,0v.11a1.5,1.5,0,0,0,1.5,1.5h.08A1.41,1.41,0,0,0,50,5.19h0A4.63,4.63,0,0,0,45.94.52,4.51,4.51,0,0,0,41,5V8.65a7.89,7.89,0,0,0-4.18,2.25l-.81.83a18.5,18.5,0,1,0-23,24.77H5.74A5.19,5.19,0,0,0,.5,41.66,5,5,0,0,0,1.94,45a5,5,0,0,0,0,7A5,5,0,0,0,.5,55.34,5.19,5.19,0,0,0,5.74,60.5H30.4a4.73,4.73,0,0,0,.93-.1,7.49,7.49,0,0,0,1.17.1h20a8,8,0,0,0,7.67-5.82,28.23,28.23,0,0,0,.33-3.92V26.83A8.09,8.09,0,0,0,58.18,21.12ZM39,13a5,5,0,0,1,2-1.24V17.5H38a1.56,1.56,0,0,0-.57.11A17.81,17.81,0,0,0,37,15ZM3.5,19A15.5,15.5,0,1,1,19,34.5,15.5,15.5,0,0,1,3.5,19Zm10,24.5H5.61a2.07,2.07,0,0,1-2.08-1.66,2,2,0,0,1,2-2.34h19v4H22.45a1.5,1.5,0,0,0,0,3H24.5v4H5.61a2.07,2.07,0,0,1-2.08-1.66,2,2,0,0,1,2-2.34h8a1.5,1.5,0,1,0,0-3Zm-7.84,14a2.07,2.07,0,0,1-2.08-1.66,2,2,0,0,1,2-2.34H24.58a8.11,8.11,0,0,0,1.72,4ZM57.5,52.39a5.06,5.06,0,0,1-5,5.11h-20a5.06,5.06,0,0,1-5-5.11v-17a18.51,18.51,0,0,0,9.93-15,1.56,1.56,0,0,0,.57.11h9a1.5,1.5,0,0,0,0-3H44V11.76A5,5,0,0,1,46,13L56,23.22a5.17,5.17,0,0,1,1.46,3.61Z"/></g></svg>