<svg xmlns="http://www.w3.org/2000/svg" width="60" height="60" viewBox="0 0 60 60">
  <g id="Group_12482" data-name="Group 12482" transform="translate(-1328 -432.398)">
    <path id="Path_30871" data-name="Path 30871" d="M1335.136,458.388a1.5,1.5,0,0,0,1.5,1.5h13.442a1.5,1.5,0,0,0,0-3h-13.442A1.5,1.5,0,0,0,1335.136,458.388Z" />
    <path id="Path_30872" data-name="Path 30872" d="M1359.136,465.388a1.5,1.5,0,0,0-1.5-1.5h-21a1.5,1.5,0,0,0,0,3h21A1.5,1.5,0,0,0,1359.136,465.388Z" />
    <path id="Path_30873" data-name="Path 30873" d="M1336.636,470.888a1.5,1.5,0,0,0,0,3h10.56a1.5,1.5,0,0,0,0-3Z" />
    <path id="Path_30874" data-name="Path 30874" d="M1370,432.4c-9.926,0-18,7.178-18,16,0,8.14,6.879,14.865,15.739,15.858a6.666,6.666,0,0,1-2.067,2.023,1.445,1.445,0,0,0-.865,1.359c0,2.576,2.492,3.75,4.809,3.75,6.176,0,9.2-5.335,10.373-9.726A15.593,15.593,0,0,0,1388,448.4C1388,439.576,1379.926,432.4,1370,432.4Zm7.349,27.32,0,.005c-.533,2.74-2.308,8.665-7.736,8.665a4.416,4.416,0,0,1-1.338-.262,11.134,11.134,0,0,0,3.879-6.848l.012-.016.02-.019a17.129,17.129,0,0,1-2.189.155c-8.271,0-15-5.832-15-13s6.729-13,15-13,15,5.832,15,13C1385,453.252,1381.91,457.486,1377.349,459.718Z" />
    <path id="Path_30875" data-name="Path 30875" d="M1370.829,474.388h-.646a1.171,1.171,0,0,0-1.171,1.171,4.839,4.839,0,0,1-4.839,4.839h-14.621c-.384,0-2.15.39-1.925,1.773a11.15,11.15,0,0,0,3.906,6.965,4.442,4.442,0,0,1-1.338.262c-4.711,0-6.669-4.464-7.453-7.436h0l-.007-.033c-.009-.038-.019-.075-.028-.112a1.868,1.868,0,0,0-1.921-1.418h-4.957a4.839,4.839,0,0,1-4.839-4.839V455.217a4.84,4.84,0,0,1,4.839-4.839h12a1.171,1.171,0,0,0,1.171-1.171v-.648a1.171,1.171,0,0,0-1.171-1.171h-12a7.829,7.829,0,0,0-7.829,7.829v20.342a7.829,7.829,0,0,0,7.829,7.829h3.265a1.456,1.456,0,0,1,1.326,1.147,1.942,1.942,0,0,0,.111.267c1.51,3.816,4.468,7.6,9.664,7.6,2.317,0,4.809-1.174,4.809-3.75a1.445,1.445,0,0,0-.865-1.359,7.019,7.019,0,0,1-2.683-3.045c-.249-.888.593-.856.593-.856h12.124a7.827,7.827,0,0,0,7.827-7.827v0A1.171,1.171,0,0,0,1370.829,474.388Z" />
    <path id="Path_30876" data-name="Path 30876" d="M1369.928,439.421a6.334,6.334,0,0,0-4.353,1.464,5.071,5.071,0,0,0-1.674,2.749.789.789,0,0,0,.7.915l1.128.14h0c1.265-.007,1.359-.808,1.359-.808a3.191,3.191,0,0,1,2.979-1.953,2.989,2.989,0,0,1,2.068.686,2.132,2.132,0,0,1,.768,1.646,2.054,2.054,0,0,1-.434,1.266,14.3,14.3,0,0,1-1.722,1.535,7.281,7.281,0,0,0-1.922,2.11,5.214,5.214,0,0,0-.481,2.39q0,.141.012.785h2.988a4.683,4.683,0,0,1,.229-1.886,5.006,5.006,0,0,1,1.3-1.395,13.532,13.532,0,0,0,2.631-2.648,3.8,3.8,0,0,0,.615-2.063,4.489,4.489,0,0,0-1.676-3.451A6.564,6.564,0,0,0,1369.928,439.421Z" />
    <circle id="Ellipse_890" data-name="Ellipse 890" cx="1.509" cy="1.509" r="1.509" transform="translate(1368.329 454.346)" />
  </g>
</svg>
