<svg xmlns="http://www.w3.org/2000/svg" width="20" height="20" viewBox="0 0 20 20">
<g transform="translate(206.941 -314.395)">
<path d="M-189.441,329.395h-15a2.5,2.5,0,0,0-2.5,2.5,2.5,2.5,0,0,0,2.5,2.5h15a2.5,2.5,0,0,0,2.5-2.5A2.5,2.5,0,0,0-189.441,329.395Zm0,3.5h-15a1,1,0,0,1-1-1,1,1,0,0,1,1-1h15a1,1,0,0,1,1,1A1,1,0,0,1-189.441,332.895Z" /><path d="M-189.441,321.895h-15a2.5,2.5,0,0,0-2.5,2.5v1a2.5,2.5,0,0,0,2.5,2.5h15a2.5,2.5,0,0,0,2.5-2.5v-1A2.5,2.5,0,0,0-189.441,321.895Zm1,3.5a1,1,0,0,1-1,1h-15a1,1,0,0,1-1-1v-1a1,1,0,0,1,1-1h15a1,1,0,0,1,1,1Z" /><path d="M-204.441,320.395h2a2.5,2.5,0,0,0,2.5-2.5v-1a2.5,2.5,0,0,0-2.5-2.5h-2a2.5,2.5,0,0,0-2.5,2.5v1A2.5,2.5,0,0,0-204.441,320.395Zm-1-3.5a1,1,0,0,1,1-1h2a1,1,0,0,1,1,1v1a1,1,0,0,1-1,1h-2a1,1,0,0,1-1-1Z" /><path d="M-189.441,314.395h-6.5a2.5,2.5,0,0,0-2.5,2.5v1a2.5,2.5,0,0,0,2.5,2.5h6.5a2.5,2.5,0,0,0,2.5-2.5v-1A2.5,2.5,0,0,0-189.441,314.395Zm1,3.5a1,1,0,0,1-1,1h-6.5a1,1,0,0,1-1-1v-1a1,1,0,0,1,1-1h6.5a1,1,0,0,1,1,1Z" /></g></svg>