<svg xmlns="http://www.w3.org/2000/svg" width="60" height="60" viewBox="0 0 60 60">
	<g id="Group_12468" data-name="Group 12468" transform="translate(-728 -632.559)">
		<path id="Path_30822" data-name="Path 30822" d="M758,650.559a12,12,0,1,0,12,12A12.013,12.013,0,0,0,758,650.559Zm0,21a9,9,0,1,1,9-9A9.01,9.01,0,0,1,758,671.559Z" />
		<path id="Path_30823" data-name="Path 30823" d="M785.385,657.539c-2.235-.444-4.378-1.006-4.378-1.006a4.816,4.816,0,0,1-1.547-.743,22.375,22.375,0,0,0-1.486-3.562,5.255,5.255,0,0,1,.555-1.677s1.118-1.912,2.385-3.806c1.482-2.217.364-3.335.364-3.335l-1.549-1.548-.516-.516-.516-.517-1.549-1.548a1.765,1.765,0,0,0-1.208-.4,3.867,3.867,0,0,0-2.126.768c-1.894,1.267-3.807,2.384-3.807,2.384a5.232,5.232,0,0,1-1.676.556,22.4,22.4,0,0,0-3.562-1.486,4.825,4.825,0,0,1-.743-1.547s-.562-2.143-1.006-4.378c-.519-2.615-2.1-2.615-2.1-2.615h-5.84s-1.581,0-2.1,2.615c-.444,2.235-1.006,4.378-1.006,4.378a4.825,4.825,0,0,1-.743,1.547,22.4,22.4,0,0,0-3.562,1.486,5.243,5.243,0,0,1-1.677-.556s-1.912-1.117-3.806-2.384a3.867,3.867,0,0,0-2.126-.768,1.769,1.769,0,0,0-1.209.4l-1.548,1.548-.516.517-.516.516-1.549,1.548s-1.118,1.118.364,3.335c1.267,1.894,2.385,3.806,2.385,3.806a5.255,5.255,0,0,1,.555,1.677,22.335,22.335,0,0,0-1.486,3.562,4.826,4.826,0,0,1-1.547.743s-2.143.562-4.378,1.006c-2.615.519-2.615,2.1-2.615,2.1v5.84s0,1.581,2.615,2.1c2.235.444,4.378,1.006,4.378,1.006a4.825,4.825,0,0,1,1.547.743,22.413,22.413,0,0,0,1.486,3.562,5.243,5.243,0,0,1-.555,1.676s-1.118,1.913-2.385,3.807c-1.482,2.216-.364,3.334-.364,3.334l1.549,1.549.516.516.516.516,1.548,1.549a1.769,1.769,0,0,0,1.209.4,3.875,3.875,0,0,0,2.126-.768c1.894-1.267,3.806-2.385,3.806-2.385a5.255,5.255,0,0,1,1.677-.555,22.408,22.408,0,0,0,3.562,1.486,4.815,4.815,0,0,1,.743,1.547s.562,2.143,1.006,4.377c.519,2.616,2.1,2.616,2.1,2.616h5.84s1.581,0,2.1-2.616c.444-2.234,1.006-4.377,1.006-4.377a4.815,4.815,0,0,1,.743-1.547,22.408,22.408,0,0,0,3.562-1.486,5.244,5.244,0,0,1,1.676.555s1.913,1.118,3.807,2.385a3.875,3.875,0,0,0,2.126.768,1.764,1.764,0,0,0,1.208-.4l1.549-1.549.516-.516.516-.516,1.549-1.549s1.118-1.118-.364-3.334c-1.267-1.894-2.385-3.807-2.385-3.807a5.243,5.243,0,0,1-.555-1.676,22.413,22.413,0,0,0,1.486-3.562,4.815,4.815,0,0,1,1.547-.743s2.143-.562,4.378-1.006c2.615-.519,2.615-2.1,2.615-2.1v-5.84S788,658.058,785.385,657.539Zm-.385,4.29v2.762c-.058.015-.124.031-.2.045-2.225.442-4.326.987-4.54,1.043a7.863,7.863,0,0,0-2.578,1.232l-.79.58-.295.935a19.4,19.4,0,0,1-1.287,3.083l-.442.853.135.951a8.238,8.238,0,0,0,.935,2.767c.048.081,1.179,2.014,2.481,3.96.042.064.078.122.109.174l-.921.921-.516.515-.516.517-.921.921c-.052-.031-.11-.067-.173-.109-1.947-1.3-3.88-2.433-3.985-2.495a8.237,8.237,0,0,0-2.743-.921l-.951-.136-.853.443a19.4,19.4,0,0,1-3.083,1.287l-.934.3-.581.789a7.875,7.875,0,0,0-1.232,2.579c-.057.217-.6,2.317-1.042,4.539-.015.075-.031.142-.046.2h-4.064c-.015-.058-.031-.124-.046-.2-.441-2.224-.986-4.324-1.042-4.54a7.884,7.884,0,0,0-1.232-2.579l-.581-.789-.935-.3a19.464,19.464,0,0,1-3.082-1.287l-.853-.443-.951.136a8.24,8.24,0,0,0-2.767.935c-.081.048-2.014,1.179-3.961,2.481-.064.042-.121.078-.173.109l-.921-.921-.516-.516-.516-.516-.921-.921c.03-.052.066-.11.109-.173,1.3-1.947,2.433-3.88,2.495-3.985a8.247,8.247,0,0,0,.921-2.743l.135-.951-.442-.853a19.538,19.538,0,0,1-1.288-3.083l-.294-.934-.79-.581a7.861,7.861,0,0,0-2.579-1.232c-.217-.057-2.316-.6-4.539-1.042-.075-.015-.141-.031-.2-.046v-4.064c.058-.015.124-.031.2-.046,2.223-.441,4.322-.985,4.539-1.042a7.857,7.857,0,0,0,2.579-1.232l.79-.581.295-.935a19.472,19.472,0,0,1,1.287-3.082l.442-.853L741,651.8a8.257,8.257,0,0,0-.935-2.768c-.048-.081-1.179-2.013-2.481-3.96-.043-.064-.079-.121-.109-.173l.921-.921.516-.516.516-.516.921-.921c.052.03.109.066.173.109,1.947,1.3,3.879,2.433,3.985,2.494a8.229,8.229,0,0,0,2.743.922l.951.135.853-.442a19.575,19.575,0,0,1,3.082-1.288l.935-.294.581-.79a7.862,7.862,0,0,0,1.232-2.579c.057-.217.6-2.317,1.042-4.539.015-.075.031-.141.046-.2h4.064c.015.058.031.124.046.2.44,2.221.984,4.318,1.042,4.539a7.871,7.871,0,0,0,1.232,2.579l.581.79.934.294a19.505,19.505,0,0,1,3.083,1.288l.853.442.951-.135a8.264,8.264,0,0,0,2.767-.935c.081-.048,2.014-1.179,3.96-2.481.064-.043.122-.079.174-.109l.921.921.515.515.517.517.921.921c-.031.052-.066.109-.109.173-1.3,1.947-2.433,3.879-2.495,3.985A8.236,8.236,0,0,0,775,651.8l-.135.951.442.853a19.362,19.362,0,0,1,1.287,3.083l.295.934.789.581a7.882,7.882,0,0,0,2.58,1.232c.223.058,2.32.6,4.538,1.042.076.015.142.031.2.046Z" />
	</g>
</svg>
