<svg xmlns="http://www.w3.org/2000/svg" width="60" height="60" viewBox="0 0 60 60">
  <g id="Group_12487" data-name="Group 12487" transform="translate(-1428 -432.398)">
    <path id="Path_30895" data-name="Path 30895" d="M1488,454.173v-5.911a1.5,1.5,0,0,0-.116-.573,1.479,1.479,0,0,0-.322-.488l-5.621-5.634V433.9a1.5,1.5,0,0,0-1.5-1.5h-44.89a1.5,1.5,0,0,0-1.5,1.5v7.816l-5.473,5.487a1.528,1.528,0,0,0-.439,1.061H1428l.147,5.911a7.5,7.5,0,0,0,5.912,7.327v27.9h-3.99a1.5,1.5,0,0,0,0,3h55.862a1.5,1.5,0,0,0,0-3h-3.99V461.529A7.5,7.5,0,0,0,1488,454.173ZM1437.052,435.4h41.9v5h-41.9Zm-.44,8h42.923l3.356,3.364h-49.635Zm36.462,6.364v4.411a4.506,4.506,0,0,1-4.5,4.5H1464a4.506,4.506,0,0,1-4.5-4.5v-4.411h13.574Zm-16.57,0v4.411a4.5,4.5,0,0,1-4.489,4.5H1447.6a4.5,4.5,0,0,1-4.489-4.5v-4.411H1456.5Zm-25.364,4.411-.129-4.411h9.107v4.411a4.489,4.489,0,1,1-8.978,0Zm41.808,34.722a1.972,1.972,0,0,1-.1.5h-9.8a1.968,1.968,0,0,1-.1-.5v-17.18a2.037,2.037,0,0,1,2.037-2.037h5.926a2.037,2.037,0,0,1,2.037,2.037Zm6,.5h-3.056a3.613,3.613,0,0,0,.056-.5V471.714a5.042,5.042,0,0,0-5.037-5.036h-5.926a5.042,5.042,0,0,0-5.037,5.036v17.181a3.608,3.608,0,0,0,.057.5h-22.953V461.5a6.142,6.142,0,0,1,10.547.174h4.416a7.35,7.35,0,0,0,5.095-2.091.892.892,0,1,1,1.78,0,7.348,7.348,0,0,0,5.095,2.091h4.563a6.014,6.014,0,0,1,10.4-.192Zm1.626-30.725a4.5,4.5,0,0,1-4.5-4.5v-4.411h9v4.411A4.506,4.506,0,0,1,1480.574,458.673Z" />
    <path id="Path_30896" data-name="Path 30896" d="M1452,466.673h-6.846a5.108,5.108,0,0,0-5.1,5.1v6.794a5.108,5.108,0,0,0,5.1,5.1H1452a5.108,5.108,0,0,0,5.1-5.1v-6.794A5.109,5.109,0,0,0,1452,466.673Zm2.1,11.9a2.1,2.1,0,0,1-2.1,2.1h-6.846a2.1,2.1,0,0,1-2.1-2.1v-6.8a2.1,2.1,0,0,1,2.1-2.1H1452a2.1,2.1,0,0,1,2.1,2.1Z" />
  </g>
</svg>
