<svg xmlns="http://www.w3.org/2000/svg" width="60" height="60" viewBox="0 0 60 60">
  <g id="Group_12485" data-name="Group 12485" transform="translate(-1428 -532.401)">
    <path id="Path_30886" data-name="Path 30886" d="M1478.059,532.4h-40.12a9.951,9.951,0,0,0-9.939,9.941v40.119a9.951,9.951,0,0,0,9.939,9.94h40.12a9.951,9.951,0,0,0,9.941-9.94V542.342A9.952,9.952,0,0,0,1478.059,532.4Zm6.94,12v12h-54v-12Zm-47.059-9h40.119a6.92,6.92,0,0,1,6.846,6h-53.811A6.919,6.919,0,0,1,1437.94,535.4Zm40.119,54H1437.94a6.941,6.941,0,0,1-6.941-6.94V559.4h54v23.06A6.94,6.94,0,0,1,1478.059,589.4Z" />
    <path id="Path_30887" data-name="Path 30887" d="M1457.5,567.4h-19a1.5,1.5,0,0,0,0,3h19a1.5,1.5,0,0,0,0-3Z" />
    <path id="Path_30888" data-name="Path 30888" d="M1457.5,576.4h-19a1.5,1.5,0,0,0,0,3h19a1.5,1.5,0,0,0,0-3Z" />
    <path id="Path_30889" data-name="Path 30889" d="M1473,567.4a6,6,0,1,0,6,6A6.007,6.007,0,0,0,1473,567.4Zm0,9a3,3,0,1,1,3-3A3,3,0,0,1,1473,576.4Z" />
  </g>
</svg>
