<svg xmlns="http://www.w3.org/2000/svg" width="60" height="60" viewBox="0 0 60 60">
  <g id="Group_12493" data-name="Group 12493" transform="translate(-1628 -32.387)">
    <path id="Path_30927" data-name="Path 30927" d="M1670.385,59.134l-14.951-7.815a4.367,4.367,0,0,0-4.186.227,3.615,3.615,0,0,0-1.748,3.05V70.182a3.615,3.615,0,0,0,1.748,3.051,4.3,4.3,0,0,0,2.285.651,4.492,4.492,0,0,0,1.946-.446l14.861-7.771a3.565,3.565,0,0,0,.045-6.533Zm-1.391,3.851-14.861,7.772a1.369,1.369,0,0,1-1.289-.065.634.634,0,0,1-.344-.51V54.6a.634.634,0,0,1,.344-.509,1.4,1.4,0,0,1,.722-.2,1.2,1.2,0,0,1,.522.115l14.951,7.814a.689.689,0,0,1,.461.574C1669.5,62.614,1669.332,62.823,1668.994,62.985Z" />
    <path id="Path_30928" data-name="Path 30928" d="M1658,32.387a30,30,0,1,0,30,30A30.033,30.033,0,0,0,1658,32.387Zm0,57a27,27,0,1,1,27-27A27,27,0,0,1,1658,89.388Z" />
  </g>
</svg>
