<svg xmlns="http://www.w3.org/2000/svg" xmlns:xlink="http://www.w3.org/1999/xlink" width="128" height="128" viewBox="0 0 128 128">
  <defs>
    <clipPath id="clip-path">
      <rect id="Rectangle_8726" data-name="Rectangle 8726" width="128" height="128" transform="translate(1113 768)" fill="none" stroke="#707070" stroke-width="1"/>
    </clipPath>
  </defs>
  <g id="Mask_Group_36" data-name="Mask Group 36" transform="translate(-1113 -768)" clip-path="url(#clip-path)">
    <g id="Group_14312" data-name="Group 14312" transform="translate(269.999 69)">
      <path id="Path_4594" data-name="Path 4594" d="M148.27,239.651h2.1l3.2,5.718,3.051-5.718h1.841l-4.354,7.909h-1.271Z" transform="translate(695.73 547.209)" fill="#003b7c"/>
      <rect id="Rectangle_2096" data-name="Rectangle 2096" width="1.837" height="7.909" transform="translate(856.532 786.86)" fill="#003b7c"/>
      <path id="Path_4595" data-name="Path 4595" d="M178.269,239.651h8.091V241h-6.253v1.762h3.647v1.348h-3.647v1.963h6.329v1.487h-8.167Z" transform="translate(683.521 547.209)" fill="#003b7c"/>
      <path id="Path_4596" data-name="Path 4596" d="M199.964,247.561h-1.84v-6.5h-3.631v-1.409h9.119v1.409h-3.648Z" transform="translate(676.507 547.209)" fill="#003b7c"/>
      <path id="Path_4597" data-name="Path 4597" d="M213.378,239.651h1.257l5.564,4.659a6.819,6.819,0,0,1,.906.862c-.047-.661-.079-1.12-.079-1.366v-4.155h1.657v7.909h-1.256l-5.809-4.889a6.59,6.59,0,0,1-.659-.644c.061.613.074,1.027.074,1.258v4.275h-1.656Z" transform="translate(668.652 547.209)" fill="#003b7c"/>
      <path id="Path_4598" data-name="Path 4598" d="M240.046,244.4l-1.7-3.219-1.764,3.219Zm-2.529-4.752h1.778l4.537,7.909h-2.068l-.951-1.734H235.8l-.917,1.734h-1.841Z" transform="translate(660.464 547.209)" fill="#003b7c"/>
      <path id="Path_4599" data-name="Path 4599" d="M255.236,239.651h1.487l3.725,4.784,3.648-4.784h1.473v7.909h-1.7v-4.889a8.122,8.122,0,0,1,.063-.844,5.5,5.5,0,0,1-.461.829l-2.974,3.953h-.367l-2.973-3.969a3.531,3.531,0,0,1-.475-.813c.03.321.046.583.046.844v4.889h-1.487Z" transform="translate(651.235 547.209)" fill="#003b7c"/>
      <path id="Path_4600" data-name="Path 4600" d="M290.479,241.017v2.1h4.139c.568,0,.827-.107.827-.627v-.843c0-.522-.26-.629-.827-.629Zm-1.807-1.366h6.773c1.21,0,1.781.428,1.781,1.533v1.764c0,1.1-.571,1.532-1.781,1.532h-4.966v3.081h-1.807Z" transform="translate(637.345 547.209)" fill="#003b7c"/>
      <path id="Path_4601" data-name="Path 4601" d="M315.234,241.061h-6.071v5.013h6.071Zm-5.948-1.41h5.824c1.487,0,1.963.384,1.963,1.873v4.165c0,1.488-.476,1.872-1.963,1.872h-5.824c-1.485,0-1.96-.383-1.96-1.872v-4.165c0-1.489.475-1.873,1.96-1.873" transform="translate(629.573 547.209)" fill="#003b7c"/>
      <path id="Path_4602" data-name="Path 4602" d="M331.527,241.031v1.7h4.936c1.487,0,1.976.382,1.976,1.87v1.086c0,1.489-.489,1.872-1.976,1.872h-4.891c-1.486,0-1.977-.382-1.977-1.872v-.269h1.626v.654h5.594v-1.808h-4.935c-1.487,0-1.961-.384-1.961-1.87v-.872c0-1.489.474-1.873,1.961-1.873h4.491c1.408,0,1.962.369,1.962,1.733v.19h-1.625v-.543Z" transform="translate(620.16 547.209)" fill="#003b7c"/>
      <path id="Path_4603" data-name="Path 4603" d="M353.127,247.561h-1.839v-6.5h-3.632v-1.409h9.119v1.409h-3.648Z" transform="translate(612.808 547.209)" fill="#003b7c"/>
      <path id="Path_4604" data-name="Path 4604" d="M238.717,190.588h37.055l4.614-5.129H243.334l-4.617,5.129" transform="translate(657.809 569.794)" fill="#ffa800"/>
      <path id="Path_4605" data-name="Path 4605" d="M250.392,177.619h37.047l4.614-5.13H255.008l-4.616,5.13" transform="translate(652.914 575.189)" fill="#ffa800"/>
      <path id="Path_4606" data-name="Path 4606" d="M262.064,164.648h37.044l4.615-5.128H266.679c-1.406,1.566-2.977,3.307-4.615,5.128" transform="translate(647.643 580.708)" fill="#ffa800"/>
      <path id="Path_4607" data-name="Path 4607" d="M313.708,145.646H280.492a3.779,3.779,0,0,0-2.842,1.314l-3.918,4.352h37.043l3.655-4.063a.928.928,0,0,0,.232-.613,1,1,0,0,0-.955-.988" transform="translate(642.895 586.355)" fill="#ffa800"/>
      <path id="Path_4608" data-name="Path 4608" d="M199.894,193.277a.739.739,0,0,1-1.16.606l-17.822-11.84a.738.738,0,0,1,.461-1.315h17.782a.738.738,0,0,1,.738.738Zm7.5-7.428.009-4.553a2.051,2.051,0,0,0-.838-1.664l-17.7-11.755a2.051,2.051,0,0,0-2.317,0l-17.735,11.774a2.053,2.053,0,0,0-.825,1.639,2.115,2.115,0,0,0,.84,1.695L196.3,201.408a4.939,4.939,0,0,0,2.691.873h28.276a6.07,6.07,0,0,0,4.315-1.872l13.1-14.561Z" transform="translate(687.705 577.054)" fill="#ffa800"/>
    </g>
  </g>
</svg>
