<svg xmlns="http://www.w3.org/2000/svg" xmlns:xlink="http://www.w3.org/1999/xlink" width="284" height="218.074" viewBox="0 0 284 218.074"><defs><style>.a,.c{fill:#00a859;}.a,.e,.s{opacity:0.1;}.b{fill:none;stroke:#535461;stroke-miterlimit:10;stroke-width:2px;}.d{opacity:0.25;}.f{fill:#ffd037;}.g{fill:#a8a8a8;}.h,.l{opacity:0.2;}.i{fill:url(#a);}.j{fill:#fff;}.k,.l{fill:#5a5773;}.m{fill:url(#b);}.n{fill:#efb7b9;}.o{fill:#ff6484;}.p{fill:#444053;}.q{fill:#a1616a;}.r{fill:#925978;}</style><linearGradient id="a" x1="0.5" y1="1" x2="0.5" gradientUnits="objectBoundingBox"><stop offset="0" stop-color="gray" stop-opacity="0.251"/><stop offset="0.54" stop-color="gray" stop-opacity="0.122"/><stop offset="1" stop-color="gray" stop-opacity="0.102"/></linearGradient><linearGradient id="b" x1="0.5" x2="0.5" xlink:href="#a"/></defs><g transform="translate(0.01 0.019)"><path class="a" d="M398.539,170.29c-.254.186-.489.366-.738.542a24.882,24.882,0,0,1-2.883,1.758c-5.236,2.761-11.691,4.109-17.978,5.025-14.1,2.056-28.5,2.455-42.831,2.847-38.732,1.064-77.559,2.125-116.2-.326-15.266-.967-30.868-2.585-44.7-7.546q-2.974-1.064-5.832-2.346a47.9,47.9,0,0,1-10.635-6.361,23.158,23.158,0,0,1-6.641-8.157c-2.923-6.422-1.376-13.635,1.962-19.93a61.936,61.936,0,0,1,4.679-7.32c2.577-3.544,5.419-6.987,8.012-10.528,9.226-12.589,15.246-28.517,6.73-41.429-2.448-3.71-5.984-6.966-7.979-10.839-2.544-4.954-2.348-10.455-1.539-15.8q.158-1.018.333-2.015c1.382-7.923,3.982-16.459,12-21.405,8.328-5.14,20.154-4.88,30.489-3.053,16.073,2.87,30.9,8.844,45.882,14.238S281.33,47.969,297.8,48.5c14.541.468,31.5-3.035,41.152-12.142,9.373-8.844,26.993-9.518,39.692-4.175,8.717,3.666,15.22,10.271,17.963,17.7a23.1,23.1,0,0,1,1.193,4.61,21.261,21.261,0,0,1,.214,4.348c-.038.717-.112,1.427-.214,2.13-2.122,14.66-17.4,26.224-26.68,39.32-4.536,6.4-7.74,14.08-4.62,20.978,4.758,10.511,21.3,14.248,31.3,22.07a23.511,23.511,0,0,1,4.911,5.038C407.549,155.337,405.76,164.738,398.539,170.29Z" transform="translate(-121.429 -22.036)"/><g transform="translate(-0.01 -0.019)"><path class="b" d="M144.544,199.548s-11.7-20.741-29.341-26.715a36.074,36.074,0,0,1-18.278-13.673,60.556,60.556,0,0,1-5.394-9.7" transform="translate(-78.9 -116.888)"/><path class="c" d="M43.429,108.879c2.01,1.941,11.368,3.977,11.368,3.977s-2.29-9.292-4.305-11.243a5.071,5.071,0,1,0-7.063,7.277Z" transform="translate(-41.89 -80.146)"/><path class="c" d="M56.777,171.028c2.745.544,11.7-2.847,11.7-2.847s-6.984-6.554-9.732-7.1a5.07,5.07,0,1,0-1.972,9.947Z" transform="translate(-49.943 -125.48)"/><path class="c" d="M124.3,243.253c2.646-.916,8.651-8.363,8.651-8.363s-9.333-2.135-11.976-1.219a5.071,5.071,0,1,0,3.308,9.582Z" transform="translate(-98.197 -179.502)"/><path class="c" d="M196.718,283.753c2.763-.458,9.948-6.781,9.948-6.781s-8.836-3.682-11.6-3.226a5.071,5.071,0,1,0,1.651,10.007Z" transform="translate(-152.928 -209.522)"/><path class="c" d="M115.675,145.553c0,2.8-5.063,10.923-5.063,10.923s-5.073-8.119-5.076-10.918a5.071,5.071,0,1,1,10.139,0Z" transform="translate(-89.342 -110.113)"/><path class="c" d="M197.18,191.244c-.837,2.672-8.1,8.905-8.1,8.905s-2.412-9.274-1.585-11.958a5.071,5.071,0,0,1,9.668,3.03Z" transform="translate(-150.319 -143.268)"/><path class="c" d="M268.414,251.71c-.371,2.776-6.478,10.147-6.478,10.147s-3.944-8.722-3.562-11.5a5.071,5.071,0,1,1,10.051,1.351Z" transform="translate(-203.274 -188.837)"/><path class="d" d="M43.429,108.879c2.01,1.941,11.368,3.977,11.368,3.977s-2.29-9.292-4.305-11.243a5.071,5.071,0,1,0-7.063,7.277Z" transform="translate(-41.89 -80.146)"/><path class="d" d="M56.777,171.028c2.745.544,11.7-2.847,11.7-2.847s-6.984-6.554-9.732-7.1a5.07,5.07,0,1,0-1.972,9.947Z" transform="translate(-49.943 -125.48)"/><path class="d" d="M124.3,243.253c2.646-.916,8.651-8.363,8.651-8.363s-9.333-2.135-11.976-1.219a5.071,5.071,0,1,0,3.308,9.582Z" transform="translate(-98.197 -179.502)"/><path class="d" d="M196.718,283.753c2.763-.458,9.948-6.781,9.948-6.781s-8.836-3.682-11.6-3.226a5.071,5.071,0,1,0,1.651,10.007Z" transform="translate(-152.928 -209.522)"/><path class="d" d="M115.675,145.553c0,2.8-5.063,10.923-5.063,10.923s-5.073-8.119-5.076-10.918a5.071,5.071,0,1,1,10.139,0Z" transform="translate(-89.342 -110.113)"/><path class="d" d="M197.18,191.244c-.837,2.672-8.1,8.905-8.1,8.905s-2.412-9.274-1.585-11.958a5.071,5.071,0,0,1,9.668,3.03Z" transform="translate(-150.319 -143.268)"/><path class="d" d="M268.414,251.71c-.371,2.776-6.478,10.147-6.478,10.147s-3.944-8.722-3.562-11.5a5.071,5.071,0,1,1,10.051,1.351Z" transform="translate(-203.274 -188.837)"/><path class="b" d="M214.705,147.55s-2.29-23.708-16-36.318a36.064,36.064,0,0,1-11.17-19.907,60.6,60.6,0,0,1-1-11.055" transform="translate(-149.736 -65.302)"/><path class="c" d="M151.687,28.412c1.048,2.6,8.786,8.233,8.786,8.233s1.667-9.427.621-12.024a5.074,5.074,0,0,0-9.414,3.791Z" transform="translate(-123.471 -21.441)"/><path class="c" d="M138.7,90.67c2.29,1.611,11.849,2.137,11.849,2.137s-3.707-8.819-6-10.429A5.074,5.074,0,1,0,138.7,90.67Z" transform="translate(-112.468 -66.181)"/><path class="c" d="M171.368,184.08c2.8.237,11.307-4.137,11.307-4.137s-7.666-5.732-10.457-5.966a5.071,5.071,0,1,0-.85,10.1Z" transform="translate(-134.877 -135.145)"/><path class="c" d="M221.022,250.366c2.712.7,11.844-2.168,11.844-2.168s-6.587-6.946-9.3-7.648a5.071,5.071,0,1,0-2.544,9.817Z" transform="translate(-172.614 -184.68)"/><path class="c" d="M202.705,91.55c-1.132,2.56-9.055,7.931-9.055,7.931s-1.349-9.475-.216-12.037a5.07,5.07,0,1,1,9.272,4.107Z" transform="translate(-154.538 -68.4)"/><path class="c" d="M252.724,165.456c-1.847,2.1-11.014,4.86-11.014,4.86s1.547-9.445,3.4-11.549a5.069,5.069,0,1,1,7.618,6.689Z" transform="translate(-190.869 -122.541)"/><path class="c" d="M297.593,250.152c-1.466,2.387-10.035,6.651-10.035,6.651s-.071-9.572,1.394-11.958a5.075,5.075,0,0,1,8.651,5.307Z" transform="translate(-225.052 -186.198)"/></g><ellipse class="a" cx="28.377" cy="3.694" rx="28.377" ry="3.694" transform="translate(75.465 209.298)"/><g transform="translate(37.18 196.276)"><ellipse class="a" cx="8.62" cy="1.476" rx="8.62" ry="1.476" transform="translate(0.723 14.956)"/><path class="c" d="M220.857,792.94s1.4,1.829-.646,4.58-3.727,5.089-3.053,6.811c0,0,3.081-5.127,5.6-5.2S223.62,796.024,220.857,792.94Z" transform="translate(-209.641 -792.94)"/><path class="e" d="M221.106,792.94a2.247,2.247,0,0,1,.285.575c2.448,2.875,3.753,5.559,1.4,5.626-2.191.064-4.822,3.982-5.45,4.972a2.351,2.351,0,0,0,.074.226s3.081-5.127,5.6-5.2S223.869,796.024,221.106,792.94Z" transform="translate(-209.889 -792.94)"/><path class="f" d="M241.4,800.879c0,.644-.071,1.165-.16,1.165s-.163-.509-.163-1.165.092-.341.181-.341S241.4,800.235,241.4,800.879Z" transform="translate(-227.589 -798.548)"/><path class="f" d="M242.623,803.824c-.565.308-1.058.494-1.1.415s.382-.392.947-.7.341-.084.384,0S243.188,803.516,242.623,803.824Z" transform="translate(-227.916 -800.725)"/><path class="c" d="M193.923,792.94s-1.4,1.829.646,4.58,3.727,5.089,3.053,6.811c0,0-3.081-5.127-5.6-5.2S191.165,796.024,193.923,792.94Z" transform="translate(-190.09 -792.94)"/><path class="e" d="M193.907,792.94a2.246,2.246,0,0,0-.285.575c-2.448,2.875-3.753,5.559-1.4,5.626,2.193.064,4.822,3.982,5.45,4.972a1.808,1.808,0,0,1-.074.226s-3.081-5.127-5.6-5.2S191.149,796.024,193.907,792.94Z" transform="translate(-190.074 -792.94)"/><path class="f" d="M192.91,800.879c0,.644.071,1.165.16,1.165s.163-.509.163-1.165-.092-.341-.181-.341S192.91,800.235,192.91,800.879Z" transform="translate(-191.675 -798.548)"/><path class="f" d="M188.4,803.824c.565.308,1.056.494,1.1.415s-.382-.392-.946-.7-.341-.084-.384,0S187.836,803.516,188.4,803.824Z" transform="translate(-188.057 -800.725)"/><path class="g" d="M194.66,830.609s3.908-.122,5.089-.959,6.01-1.842,6.3-.5,5.872,6.689,1.46,6.725-10.251-.687-11.427-1.4S194.66,830.609,194.66,830.609Z" transform="translate(-192.98 -819.45)"/><path class="h" d="M207.588,841.586c-4.412.036-10.251-.687-11.427-1.4-.9-.547-1.252-2.5-1.371-3.4h-.13s.254,3.15,1.422,3.867,7.015,1.438,11.427,1.4c1.272,0,1.715-.463,1.689-1.135C209.023,841.327,208.537,841.579,207.588,841.586Z" transform="translate(-192.98 -825.626)"/><path class="c" d="M679.493,836.169s-10.757-.649-9.488,6.89a1.834,1.834,0,0,0,.954,1.936s.02-.557,1.1-.369a4.927,4.927,0,0,0,1.168.056,2.416,2.416,0,0,0,1.43-.59h0s3.023-1.247,4.2-6.19c0,0,.87-1.079.837-1.356l-1.817.763a3.256,3.256,0,0,1,.132,2.4s-.058-2.351-.407-2.29c-.071,0-.944.453-.944.453s1.069,2.29.254,3.939c0,0,.305-2.8-.6-3.773l-1.272.745s1.247,2.356.4,4.28c0,0,.216-2.949-.669-4.1l-1.158.9s1.17,2.323.455,3.918c0,0-.092-3.432-.707-3.692a6.66,6.66,0,0,0-1.168,1.272s.8,1.684.305,2.575c0,0-.305-2.29-.557-2.29a7.56,7.56,0,0,0-1.114,2.544,5.54,5.54,0,0,1,.87-2.7,3.038,3.038,0,0,0-1.544.8s.158-1.071,1.781-1.165A6.97,6.97,0,0,1,673,839.912a6.625,6.625,0,0,0-2.616.3,2.916,2.916,0,0,1,2.913-.552l1.142-.931a9.388,9.388,0,0,0-3.053.031s1.048-.9,3.361-.254l1.247-.743a11.355,11.355,0,0,0-2.918-.254,4.47,4.47,0,0,1,3.282.051l.891-.4s-1.341-.254-1.733-.3-.412-.15-.412-.15a4.645,4.645,0,0,1,2.516.28A11.328,11.328,0,0,0,679.493,836.169Z" transform="translate(-547.304 -825.16)"/><ellipse class="a" cx="7.613" cy="1.287" rx="7.613" ry="1.287" transform="translate(117.167 19.205)"/><path class="c" d="M617.7,837.767s-6.066-.366-5.343,3.885a1.038,1.038,0,0,0,.539,1.091s0-.315.623-.209a2.974,2.974,0,0,0,.656.033,1.392,1.392,0,0,0,.807-.333h0s1.7-.7,2.369-3.491c0,0,.489-.608.471-.763l-1.018.435a1.845,1.845,0,0,1,.074,1.354s-.033-1.326-.229-1.3c-.041,0-.532.254-.532.254a3.019,3.019,0,0,1,.148,2.221s.17-1.585-.336-2.13l-.72.422a3.185,3.185,0,0,1,.226,2.412,4.518,4.518,0,0,0-.379-2.31l-.651.509a3.109,3.109,0,0,1,.254,2.208s-.053-1.936-.4-2.081a3.982,3.982,0,0,0-.659.71s.453.952.173,1.453c0,0-.173-1.29-.313-1.3a4.274,4.274,0,0,0-.628,1.44,3.092,3.092,0,0,1,.488-1.527,1.71,1.71,0,0,0-.87.45s.089-.605,1.018-.656a3.85,3.85,0,0,1,.6-.687,3.727,3.727,0,0,0-1.476.168,1.657,1.657,0,0,1,1.644-.31l.644-.527a5.3,5.3,0,0,0-1.72.018,2.077,2.077,0,0,1,1.9-.137l.7-.417a6.287,6.287,0,0,0-1.644-.143,2.53,2.53,0,0,1,1.85.028l.509-.224s-.763-.15-.974-.173-.234-.084-.234-.084a2.626,2.626,0,0,1,1.42.158A6,6,0,0,0,617.7,837.767Z" transform="translate(-504.355 -826.356)"/><ellipse class="a" cx="4.292" cy="0.725" rx="4.292" ry="0.725" transform="translate(104.873 16.034)"/><path class="c" d="M659.771,802.352s-7.32-.443-6.457,4.689a1.252,1.252,0,0,0,.651,1.318s0-.379.751-.254a3.607,3.607,0,0,0,.794.038,1.677,1.677,0,0,0,.975-.4h0s2.058-.85,2.857-4.216c0,0,.593-.733.57-.921l-1.237.527a2.224,2.224,0,0,1,.092,1.633s-.041-1.6-.28-1.562c-.046,0-.641.308-.641.308a3.648,3.648,0,0,1,.178,2.682s.209-1.913-.4-2.57l-.87.509a3.841,3.841,0,0,1,.275,2.913s.148-2.007-.458-2.8l-.789.613a3.755,3.755,0,0,1,.313,2.666s-.064-2.336-.483-2.514a4.789,4.789,0,0,0-.794.857s.547,1.147.206,1.753c0,0-.206-1.555-.377-1.562a5.107,5.107,0,0,0-.763,1.738,3.743,3.743,0,0,1,.59-1.837,2.068,2.068,0,0,0-1.051.544s.107-.73,1.221-.794a4.786,4.786,0,0,1,.72-.829,4.531,4.531,0,0,0-1.781.206,2,2,0,0,1,1.984-.377l.779-.634a6.4,6.4,0,0,0-2.079.02,2.533,2.533,0,0,1,2.29-.165l.847-.509a8.348,8.348,0,0,0-1.984-.171,3.045,3.045,0,0,1,2.234.033l.606-.27s-.913-.181-1.181-.209-.28-.1-.28-.1a3.163,3.163,0,0,1,1.712.191A7.461,7.461,0,0,0,659.771,802.352Z" transform="translate(-534.884 -799.95)"/><ellipse class="a" cx="5.183" cy="0.875" rx="5.183" ry="0.875" transform="translate(114.664 7.982)"/></g><g transform="translate(34.786 24.294)"><path class="i" d="M420.7,241.451V117H178.65V234.311a48.189,48.189,0,0,0,10.686,6.534q2.865,1.321,5.852,2.415H417.817Z" transform="translate(-178.65 -117)"/><path class="j" d="M421.787,251.94V131H180.73V245.011a48.68,48.68,0,0,0,10.635,6.361q2.855,1.272,5.832,2.346H418.9Z" transform="translate(-180.201 -127.438)"/><rect class="k" width="241.055" height="6.396" transform="translate(0.532 0.354)"/></g><g transform="translate(38.478 26.192)"><circle class="j" cx="1.654" cy="1.654" r="1.654"/><circle class="j" cx="1.654" cy="1.654" r="1.654" transform="translate(4.453)"/><circle class="j" cx="1.654" cy="1.654" r="1.654" transform="translate(8.905)"/></g><g transform="translate(41.786 45.102)"><rect class="c" width="39.819" height="25.021" transform="translate(55.133)"/><rect class="l" width="39.819" height="25.021"/><rect class="l" width="39.819" height="25.021" transform="translate(110.266)"/><rect class="l" width="39.819" height="25.021" transform="translate(0 35.771)"/><rect class="l" width="39.819" height="25.021" transform="translate(55.133 35.771)"/><rect class="l" width="39.819" height="25.021" transform="translate(110.266 35.771)"/><rect class="l" width="39.819" height="25.021" transform="translate(0 71.539)"/><rect class="l" width="39.819" height="25.021" transform="translate(55.133 71.539)"/><rect class="l" width="39.819" height="25.021" transform="translate(110.266 71.539)"/></g><g transform="translate(87.67 51.35)"><path class="m" d="M428.448,279.787s-7.152-13.073-5.946-15.2a28.97,28.97,0,0,0,2.094-5.206s2.641-1.806,2.641-2.544,2.091-2.445,3.193-3.188.55-4.252,0-4.676a9.693,9.693,0,0,1-1.422-1.913s.763-2.124,0-2.763.112-1.272,0-1.913a25.677,25.677,0,0,1,0-2.974,4.8,4.8,0,0,0-2.814-2.035l-.081-.336-.471-1.982s2.29-4.389-1.425-6.687a6.208,6.208,0,0,0-.822-.433,2.852,2.852,0,0,0-.02-.287,17.982,17.982,0,0,0-.539-3.361c-.193-.616-.445-1.03-.763-.936a.509.509,0,0,0-.209.12,2.321,2.321,0,0,0-.394.466h0a.1.1,0,0,1-.018.028,7.98,7.98,0,0,0-.875,2.43,14.03,14.03,0,0,0-.254,1.527h0a8.4,8.4,0,0,0-.425.944c-.45,1.168-.977,3.191-.018,4.687.814,1.272,1.911,3.02,2.707,4.292l.025.041.048.079-.084.053v.2l.074,1.071.616,9.256a3.932,3.932,0,0,0-.565-.12,5.132,5.132,0,0,0-.822-.053c-.537-2.109-2.01-4.071-2.29-6.274a5.82,5.82,0,0,1-.043-.664c.023-1.387.369-2.778.341-4.163,0-.254,0-.509-.025-.763h0a2.05,2.05,0,0,0-.02-.211,6.257,6.257,0,0,0-3.4-4.74c-.639-.318-1.331-.529-1.952-.878-1.435-.8-2.354-2.254-3.656-3.249a4.047,4.047,0,0,0-3.5-.763,16.15,16.15,0,0,0-1.7.351h0a15.354,15.354,0,0,0-3.9,1.618c-.165.1-.331.2-.489.318a2.153,2.153,0,0,0-.786.919,2.407,2.407,0,0,0-.122.99c0,.242,0,.489.015.73-.071,4.071-4.458,7.221-4.819,11.2,0,.094-.015.188-.02.282v.435h0v.318c.064,1.743.969,3.366,1.135,5.1.015.155.023.308.025.463a7.694,7.694,0,0,1-.45,2.336,6.836,6.836,0,0,0-1.58.641c-1.333.857-3.74,2.338-4.618,5.17a7.573,7.573,0,0,0-.333,2.27,47.389,47.389,0,0,1-.743,8.1,15.146,15.146,0,0,1-.468,1.992.468.468,0,0,0-.015.2l-.529,6.87-.094,1.209-.132,1.72s.038.1.094.28a8.107,8.107,0,0,1,.209.794,4.27,4.27,0,0,1,.069,1.781,1.227,1.227,0,0,1-.371.654.273.273,0,0,0-.043.048,5.283,5.283,0,0,0-.4,1.751c-.046.356-.089.763-.132,1.186-.254,2.71-.412,6.765-.509,10.119-.092,3.308-.125,5.921-.125,5.921a6.756,6.756,0,0,0,1.366.677c-.036.089-.074.181-.109.277a13.365,13.365,0,0,0-.829,3.5,6.1,6.1,0,0,0,3.974,6.709,5.618,5.618,0,0,0,.684.234,2.171,2.171,0,0,0,1.74-.107c0,.15.018.3.025.44.036.621.066,1.188.081,1.664.109,2.977.847,8.183.847,8.183a10.835,10.835,0,0,1,.033,2.763,15.006,15.006,0,0,0,0,3.188s.763,1.272,0,1.913-.99,3.816-.763,4.252a.142.142,0,0,1,.013.048c.168,1.056-.781,16.744-.781,16.744s-.9,2.4-1.613,4.9c-.7,2.427-1.221,4.941-.575,5.412a5.4,5.4,0,0,0,2.013.544c0,.1-.015.209-.025.315a9.067,9.067,0,0,1-.445,2.636c-.3.433-.621,3.786-.776,5.6l-.015.2a18.761,18.761,0,0,0-.819,2.376s-2.435,6.106-1.611,7.692a1.3,1.3,0,0,0,.3.374h0a.684.684,0,0,0,.079.071c1.173.939,4.112,1.135,5.178,1.178l-.041,1.511v.056h1.387v-.038c0-.191.031-1.066.076-2.236,0-.209.015-.427.025-.651,0-.176.018-.354.025-.537a9.414,9.414,0,0,0,.6-3.4,14.906,14.906,0,0,1,.534-3.939,10.944,10.944,0,0,1,.7-1.921,8.77,8.77,0,0,0-.17-3.911,2.824,2.824,0,0,0-.509-.88v-.509a14.678,14.678,0,0,1,.326-3.262.354.354,0,0,1,0-.051c.02-.089.043-.173.066-.254l.015-.056.45.015c1.382.038,2.4.038,2.4.038a51.7,51.7,0,0,0,.992-8.076v-.331a31.453,31.453,0,0,1,.667-5.727l.888-8.613a4.529,4.529,0,0,1,0-2.544c.272-.656.835-1.875,1.226-2.715.183-.389.328-.695.389-.827l.036-.071a1.647,1.647,0,0,1-.392-.2h0c-.359-.239-.679-.707.394-1.4,1.651-1.064,1.1-3.72,1.1-3.72a1.91,1.91,0,0,1,.087-1.806c.572-.85,0-4.038,0-4.038a13.351,13.351,0,0,0,1.13-2.659c.41-1.272,1.445-7.493,1.934-10.493.16-.985.254-1.621.254-1.621l.015.155.015.168h0l.137,1.417.018.188.254,2.679a82.459,82.459,0,0,1,.191,9.8v.051a3.262,3.262,0,0,1-.186.837c-.585,1.323-.478,6.58-.448,7.742v.234a4.682,4.682,0,0,0-.31,1.8h0a1.152,1.152,0,0,0,.2.534,1.353,1.353,0,0,1,.2.827v.025a3,3,0,0,1-.031.366,6.99,6.99,0,0,1-.387,1.44,5.271,5.271,0,0,0-.366,2.364h0a.748.748,0,0,0,.145.288.679.679,0,0,1,.084.305.11.11,0,0,0,0,.028c.206,1.712-.326,9.272-.641,13.409-.127,1.633-.219,2.733-.219,2.733l-.873,9.032.087.061c.1.071.285.193.534.341v.02l-.038.272c-.125.87-.293,1.883-.476,2.656-.015.059-.028.115-.043.168a2.435,2.435,0,0,0-.934.374c-1.852,3.29-1.033,5.9,0,6.656a2.673,2.673,0,0,1,.623,1.555l.254,3.28v.377a.978.978,0,0,0,.048.3l.079.995.107,1.384h.845v-1.677H408c1.333.046,3.483.1,4.419.028h.025a1.652,1.652,0,0,0,.254-.028.64.64,0,0,0,.148-.041c.5-.239,1.733-3.745.618-4.542s-1.361-3.053-1.361-3.053c-.1-.3-.193-.575-.293-.842v-.173a13.993,13.993,0,0,1,.132-2.916,22.184,22.184,0,0,0,.29-3.483v-.323a4.347,4.347,0,0,0,.567-.186l.041-.018a4,4,0,0,0,.949-.562l3.114-13.8.328-1.605,1.87-9.132s-.659-3.188,0-3.717c.242-.193.308-1.018.293-1.972-.025-1.669-.293-3.768-.293-3.768s.88-1.382,1.323-2.231,0-3.081,0-3.081l.868-5.109a48.284,48.284,0,0,1,3.412-11.159c1.781-3.753.646-13.887-.509-19.281-.031-.14-.061-.277-.092-.41v-.02c.544-.27,1.211-.6,1.923-.936l.27-.127c.9-.425,1.86-.863,2.717-1.226l.056-.023a18.976,18.976,0,0,1,1.89-.707,3.174,3.174,0,0,1,.58-.12C433.072,287.862,428.448,279.787,428.448,279.787Zm-34.427,17.289h.458c-.053.1-.1.2-.155.3-.031.061-.061.12-.089.181-.168.349-.323.7-.45,1.053.051-.377.115-.786.186-1.224C393.988,297.292,394.006,297.177,394.021,297.076Zm-1.237,6.633a.188.188,0,0,0,0-.036l-.038-.12c-.028-.081-.053-.163-.079-.254q.237-.071.481-.16h.033v.084c-.013.12-.028.239-.043.356h0a.256.256,0,0,1,0,.046,2.465,2.465,0,0,1-.033.28c-.023.183-.046.361-.066.532-.048-.16-.1-.318-.148-.473A1.2,1.2,0,0,1,392.785,303.709Z" transform="translate(-386.5 -223.338)"/><path class="n" d="M520.876,240.512l-2.748.972-1-1.654c-.763-1.272-1.822-3.012-2.6-4.277-1.379-2.224.425-5.613.425-5.613s.326-3.4,1.486-4.45,1.483,4.45,1.483,4.45c4.659,2.117,2.163,7.1,2.163,7.1l.453,1.974Z" transform="translate(-481.567 -224.844)"/><path class="e" d="M530.025,280.253l-2.748.972-1-1.654v-.145a4.786,4.786,0,0,1,3.412-.674Z" transform="translate(-490.715 -264.584)"/><path class="o" d="M523.56,292.325l1.377-1.165-.69-10.488a4.357,4.357,0,0,1,6.2,1.376,26.792,26.792,0,0,0,0,2.967c.107.636-.74,1.272,0,1.906s0,2.756,0,2.756a9.569,9.569,0,0,0,1.366,1.906c.529.422,1.061,3.921,0,4.661s-3.051,2.437-3.051,3.178-2.544,2.544-2.544,2.544l-2.234-2.954Z" transform="translate(-488.687 -265.512)"/><path class="n" d="M395.249,539.343c-5.134-2.178-3.995-7.5-3.028-10.177a13.861,13.861,0,0,1,.679-1.588l2.88-1.748s.588,1.5,1.216,3.509C398.455,534.015,400.131,541.417,395.249,539.343Z" transform="translate(-390.145 -448.866)"/><path class="n" d="M414.6,765.7a8.653,8.653,0,0,0-.763,2.142,15.472,15.472,0,0,0-.331,3.646c.02.847.092,1.4.092,1.4l-5.72,3.934s.033-.46.089-1.137c.148-1.8.455-5.145.746-5.577a9.286,9.286,0,0,0,.43-2.626c.089-1.12.125-2.1.125-2.1S416.152,762.8,414.6,765.7Z" transform="translate(-402.44 -626.678)"/><path class="n" d="M470.967,779.307s0,1.094-.041,2.366a24.232,24.232,0,0,1-.277,3.473,14.3,14.3,0,0,0-.13,2.906c.038,1.272.13,2.417.13,2.417s-5.839-5.521-5.244-5.959a2.706,2.706,0,0,0,.463-1.214c.178-.763.338-1.781.458-2.646.142-1.03.232-1.86.232-1.86Z" transform="translate(-445.297 -637.465)"/><path class="e" d="M418.345,765.7a8.653,8.653,0,0,0-.763,2.142,46.74,46.74,0,0,1-4.682-.359c.086-1.094.125-2.1.125-2.1S419.894,762.8,418.345,765.7Z" transform="translate(-406.183 -626.678)"/><path class="e" d="M473.791,779.321s0,1.094-.041,2.366a6.367,6.367,0,0,1-4.6-1.018c.143-1.03.232-1.86.232-1.86Z" transform="translate(-448.121 -637.48)"/><path class="p" d="M437.384,501.524a49.413,49.413,0,0,0-3.285,11.124l-.847,5.089s.425,2.224,0,3.071-1.272,2.226-1.272,2.226.636,5.19,0,5.72,0,3.707,0,3.707l-2.119,10.686-2.967,13.77c-2.86,2.333-6.666-.633-6.666-.633l.84-9s1.272-15.775.743-16.421.211-2.649.211-2.649.743-1.908.214-2.649.1-2.331.1-2.331-.211-6.463.425-7.946,0-10.658,0-10.658l-.254-2.857-.148-1.583-.013-.155s-.1.634-.254,1.616c-.468,2.99-1.466,9.185-1.86,10.46a13.617,13.617,0,0,1-1.086,2.649s.55,3.178,0,4.025a1.971,1.971,0,0,0-.084,1.8s.529,2.649-1.061,3.707,0,1.59,0,1.59-1.165,2.544-1.588,3.6a4.71,4.71,0,0,0,0,2.544l-.847,8.579a31.037,31.037,0,0,0-.636,6.038,53.054,53.054,0,0,1-.954,8.05s-8.157,0-9.414-.954,2.1-10.261,2.1-10.261.954-16.314.74-16.737,0-3.6.743-4.236,0-1.908,0-1.908a15.626,15.626,0,0,1,0-3.178,11.276,11.276,0,0,0-.033-2.756s-.71-5.19-.814-8.157-.636-9.638-.636-9.638.555-4.127.639-6.091a6.917,6.917,0,0,1,.763-2.476,22.089,22.089,0,0,1,1.578-2.768s25.1-7.419,26.153-6.681c.28.2.687,1.527,1.089,3.453C438,487.683,439.1,497.784,437.384,501.524Z" transform="translate(-399.758 -413.8)"/><circle class="q" cx="7.31" cy="7.31" r="7.31" transform="translate(14.851 8.359)"/><path class="e" d="M447.962,482.306c-.842.433-1.407.73-1.407.73s-11.864,5.615-15.238,5.3c-2.61-.254-9.274-.109-12.177-.038a22.09,22.09,0,0,1,1.577-2.768s25.1-7.417,26.156-6.679C447.153,479.05,447.56,480.375,447.962,482.306Z" transform="translate(-410.835 -413.8)"/><path class="o" d="M411.663,325.327s-6.77,1.069-8.368,2.117-4.763,3.074-4.763,7.417a42.079,42.079,0,0,1-1.165,10.063c-.425,1.27,6.674,11.546,6.674,11.546L401.5,372.043s10.177-.318,13.566,0,15.248-5.3,15.248-5.3,6.992-3.707,8.475-3.816-2.967-8.157-2.967-8.157-6.888-13.027-5.722-15.146a29.274,29.274,0,0,0,2.02-5.19l-1.272-10.8a4.156,4.156,0,0,0-3.5.529c-1.59,1.165-6.992.529-6.992.529Z" transform="translate(-394.588 -297.985)"/><path class="e" d="M395.087,389.542l-2.656.74-.735,9.969s.954,2.649,0,3.5-1.165,18.963-1.165,18.963a6.928,6.928,0,0,0,6.674.529s-.529-2.013,1.061-9.322a58.251,58.251,0,0,0,1.588-11.017s0-9.111.743-10.595,0-5.19,0-5.19-1.483-2.013-1.379-2.753S395.087,389.542,395.087,389.542Z" transform="translate(-389.505 -343.345)"/><path class="e" d="M399.436,529.369a6.765,6.765,0,0,1-4.776-.173,13.85,13.85,0,0,1,.679-1.588l2.88-1.748S398.817,527.359,399.436,529.369Z" transform="translate(-392.584 -448.888)"/><path class="o" d="M394.464,389.513l-2.649.74-.74,9.969s.954,2.649,0,3.5-1.165,18.963-1.165,18.963a6.919,6.919,0,0,0,6.674.519s-.529-2.013,1.058-9.322a58.716,58.716,0,0,0,1.59-11.017s0-9.111.74-10.595,0-5.19,0-5.19-1.483-2.013-1.376-2.753S394.464,389.513,394.464,389.513Z" transform="translate(-389.042 -343.315)"/><path class="e" d="M498.564,411.15s-1.376,11.864-5.4,14.09C493.16,425.241,502.164,422.7,498.564,411.15Z" transform="translate(-466.022 -363.364)"/><path class="e" d="M434.88,415.32s4.977,2.435,3.817,4.129S434.88,415.32,434.88,415.32Z" transform="translate(-422.571 -366.473)"/><path class="e" d="M434.88,434.47s3.178,3.285,2.544,4.45S434.88,434.47,434.88,434.47Z" transform="translate(-422.571 -380.751)"/><path class="e" d="M535.63,327.47a11.259,11.259,0,0,1,1.366,3.5C537.116,332.345,535.63,327.47,535.63,327.47Z" transform="translate(-497.686 -300.975)"/><path class="e" d="M535.63,315.537s.626-.532,2.224,0S535.63,315.537,535.63,315.537Z" transform="translate(-497.686 -291.903)"/><path class="e" d="M484.541,552.945a14.731,14.731,0,0,1-7.747-.992l-1.336,3.42-.148-1.583c.219-1.328.644-2.75,1.483-3.109A12.858,12.858,0,0,0,484.541,552.945Z" transform="translate(-452.714 -467.393)"/><path class="e" d="M426.18,577.07s6.516,1.351,8.343,1.112Z" transform="translate(-416.084 -487.069)"/><path class="e" d="M428.84,583.748a13.461,13.461,0,0,1,4.17.438Z" transform="translate(-418.067 -492.04)"/><path class="e" d="M430.09,588.31a24.929,24.929,0,0,0,3.852.509Z" transform="translate(-418.999 -495.449)"/><path class="e" d="M429.46,643.365c.12-.079,5.562-1.351,6.239-.438Z" transform="translate(-418.53 -535.925)"/><path class="e" d="M429.46,651.444s4.727-.557,4.847,0S429.46,651.444,429.46,651.444Z" transform="translate(-418.53 -542.335)"/><path class="e" d="M429.46,655.672s5.045-1.043,5.641-.789S429.46,655.672,429.46,655.672Z" transform="translate(-418.53 -545.054)"/><path class="e" d="M413.64,791.781l-5.72,3.934s.033-.461.089-1.137a15.419,15.419,0,0,1,2.929-4.781,2.344,2.344,0,0,1,2.611.583C413.568,791.224,413.64,791.781,413.64,791.781Z" transform="translate(-402.47 -645.568)"/><path class="p" d="M407.063,795.773a14.2,14.2,0,0,0-1.193,5.852,9.074,9.074,0,0,1-1.211,4.71,4.64,4.64,0,0,1-.4.575s-3.974-.033-5.366-1.186a1.377,1.377,0,0,1-.374-.458c-.8-1.588,1.549-7.666,1.549-7.666a16.882,16.882,0,0,1,3.733-7.19C408.254,789.257,407.063,795.773,407.063,795.773Z" transform="translate(-395.336 -646.026)"/><path class="e" d="M406.238,827.874a4.639,4.639,0,0,1-.4.575s-3.974-.033-5.366-1.186c.684-2.264,2.867-9.116,3.89-7.951C405.322,820.406,405.991,825.671,406.238,827.874Z" transform="translate(-396.916 -667.578)"/><path class="p" d="M420.187,819.73l-.277,10.264h1.333s.216-9,.812-10.264S420.187,819.73,420.187,819.73Z" transform="translate(-411.409 -667.571)"/><path class="e" d="M470.649,803.567s-5.839-5.521-5.244-5.959a2.706,2.706,0,0,0,.463-1.214c1.122-.2,3.053.272,4.651,4.755C470.557,802.422,470.649,803.567,470.649,803.567Z" transform="translate(-445.297 -650.563)"/><path class="p" d="M467.143,810.2a.6.6,0,0,1-.14.041,41.483,41.483,0,0,1-4.636,0,1,1,0,0,1-.969-1c0-.382,0-.847-.031-1.343-.066-1.567-.254-3.432-.817-3.852-.995-.763-1.781-3.353,0-6.633,0,0,3.414-2.608,5.877,5.231,0,0,.239,2.236,1.31,3.03S467.621,809.971,467.143,810.2Z" transform="translate(-440.919 -651.037)"/><path class="e" d="M472.486,829.585a41.467,41.467,0,0,1-4.636,0,1,1,0,0,1-.969-1c0-.382,0-.847-.031-1.343.43-1.9,1.048-3.852,1.845-4.3C468.7,822.942,471.109,822.669,472.486,829.585Z" transform="translate(-446.406 -670.383)"/><path class="p" d="M423.46,798.448l.641,8.541h.814V797.72Z" transform="translate(-403.395 -646.118)"/><path class="e" d="M430.7,239.083a14.61,14.61,0,0,0-6.519,2.094,2.709,2.709,0,0,0-1.229,1.234,4.091,4.091,0,0,0-.1,1.527c.069,4.381-4.816,7.7-4.664,12.075.061,1.738.934,3.356,1.094,5.089.267,2.89-1.443,5.549-3.081,7.943a6.579,6.579,0,0,0,4.643-1.539,35.211,35.211,0,0,1,.649,17.747h2.343a1.782,1.782,0,0,1,.684.084,1.72,1.72,0,0,1,.542.4c2.191,2.181,3.659,5.4,2.822,8.381l4.987-1.87a14.813,14.813,0,0,0,3.443-1.641,4.971,4.971,0,0,0,2.127-3.066c.135-.763.092-1.674.72-2.117a3.916,3.916,0,0,1,.982-.364c1.369-.483,1.974-2.066,2.254-3.491a20.1,20.1,0,0,0,.318-5.31c-.221-2.977-1.1-6-.377-8.905.41-1.631,1.321-3.15,1.394-4.834.12-2.776-2.051-5.168-2.374-7.928-.226-1.924.468-3.87.242-5.793a6.224,6.224,0,0,0-3.275-4.725c-.613-.316-1.272-.527-1.878-.875-1.382-.8-2.264-2.244-3.519-3.236s-3.343-1.366-4.287-.076Z" transform="translate(-408.643 -235.063)"/><path class="r" d="M430.7,237.818a14.61,14.61,0,0,0-6.519,2.094,2.709,2.709,0,0,0-1.229,1.234,4.091,4.091,0,0,0-.1,1.527c.069,4.381-4.816,7.7-4.664,12.078.061,1.735.934,3.353,1.094,5.089.267,2.89-1.443,5.549-3.081,7.946a6.615,6.615,0,0,0,4.643-1.539,35.2,35.2,0,0,1,.649,17.742h2.343a1.781,1.781,0,0,1,.684.087,1.674,1.674,0,0,1,.542.4c2.191,2.183,3.659,5.4,2.822,8.381l4.987-1.87a14.814,14.814,0,0,0,3.443-1.641,4.971,4.971,0,0,0,2.127-3.066c.135-.763.092-1.674.72-2.117a3.92,3.92,0,0,1,.982-.364c1.369-.483,1.974-2.066,2.254-3.491a20.1,20.1,0,0,0,.326-5.315c-.221-2.977-1.1-6-.377-8.905.41-1.631,1.32-3.15,1.394-4.834.12-2.776-2.051-5.168-2.374-7.928-.226-1.923.468-3.867.242-5.793a6.229,6.229,0,0,0-3.275-4.725c-.613-.315-1.272-.527-1.878-.873-1.382-.8-2.264-2.247-3.519-3.239s-3.343-1.366-4.287-.076Z" transform="translate(-408.643 -234.116)"/><g class="s" transform="translate(7.557 7.499)"><path d="M442.275,252.81a2.829,2.829,0,0,0-.015.3C442.268,253.008,442.273,252.909,442.275,252.81Z" transform="translate(-435.63 -252.81)"/><path d="M514.936,280.985a27.077,27.077,0,0,0,.28-4.045A29.27,29.27,0,0,0,514.936,280.985Z" transform="translate(-489.798 -270.801)"/><path d="M425.1,305.628c-.148-1.577-.883-3.053-1.056-4.628a5.8,5.8,0,0,0-.038.87c.061,1.717.913,3.323,1.086,5.033A6.865,6.865,0,0,0,425.1,305.628Z" transform="translate(-422.015 -288.739)"/><path d="M518.186,330.914a10.909,10.909,0,0,0-.255,3.16,9.577,9.577,0,0,1,.255-1.834c.41-1.631,1.32-3.15,1.394-4.834a5.248,5.248,0,0,0-.041-.9A42.241,42.241,0,0,1,518.186,330.914Z" transform="translate(-492.03 -307.758)"/><path d="M420.843,344.36a6.615,6.615,0,0,1-3.755,1.527c-.29.453-.59.9-.888,1.333a6.615,6.615,0,0,0,4.643-1.539,35.111,35.111,0,0,1,1.481,9.529A35.191,35.191,0,0,0,420.843,344.36Z" transform="translate(-416.2 -321.067)"/><path d="M476.663,390.3c-.28,1.425-.885,3.007-2.254,3.488a3.815,3.815,0,0,0-.982.366c-.628.443-.585,1.359-.72,2.117a4.908,4.908,0,0,1-2.127,3.053,15.3,15.3,0,0,1-3.442,1.644l-4.758,1.781a6.565,6.565,0,0,1-.229,1.412l4.987-1.87a14.815,14.815,0,0,0,3.442-1.641,4.971,4.971,0,0,0,2.127-3.066c.135-.763.092-1.674.72-2.117a3.916,3.916,0,0,1,.982-.364c1.369-.483,1.974-2.066,2.254-3.491a19.955,19.955,0,0,0,.359-4.5A19.929,19.929,0,0,1,476.663,390.3Z" transform="translate(-450.459 -352.94)"/><path d="M440.63,414.55a1.682,1.682,0,0,0-.542-.4,1.819,1.819,0,0,0-.684-.087h-2.079c-.081.443-.168.885-.254,1.326h2.343a1.781,1.781,0,0,1,.684.086,1.675,1.675,0,0,1,.542.4,10.08,10.08,0,0,1,3.025,5.959A9.492,9.492,0,0,0,440.63,414.55Z" transform="translate(-431.76 -373.029)"/></g><path class="e" d="M405.37,449.046s1.893-.794,2.315,0S405.37,449.046,405.37,449.046Z" transform="translate(-400.569 -391.355)"/><path class="e" d="M408,454.4s1.893-.794,2.318,0S408,454.4,408,454.4Z" transform="translate(-402.53 -395.344)"/></g><g transform="translate(182.539 2.174)"><path class="a" d="M843.814,51.643s-9.681-.583-8.539,6.2a1.655,1.655,0,0,0,.86,1.743s.018-.509.992-.333a4.455,4.455,0,0,0,1.051.051,2.18,2.18,0,0,0,1.282-.532h0s2.72-1.122,3.778-5.57c0,0,.784-.972.763-1.221l-1.633.7a2.927,2.927,0,0,1,.117,2.158s-.051-2.117-.366-2.066c-.064,0-.847.407-.847.407s.959,2.053.234,3.547c0,0,.275-2.529-.534-3.4l-1.155.684a5.076,5.076,0,0,1,.361,3.85s.2-2.654-.6-3.687l-1.043.812s1.056,2.079.42,3.514c0,0-.084-3.091-.639-3.323a6.293,6.293,0,0,0-1.048,1.135s.72,1.527.272,2.315c0,0-.275-2.056-.509-2.066a6.848,6.848,0,0,0-1,2.29,4.963,4.963,0,0,1,.781-2.43,2.715,2.715,0,0,0-1.389.723s.14-.964,1.613-1.051a6.35,6.35,0,0,1,.952-1.1,5.966,5.966,0,0,0-2.353.272,2.659,2.659,0,0,1,2.623-.509l1.018-.84a8.779,8.779,0,0,0-2.748.028s.941-.8,3.025-.219l1.119-.669a10.051,10.051,0,0,0-2.623-.226,4.025,4.025,0,0,1,2.951.046l.8-.359s-1.206-.237-1.557-.275-.371-.135-.371-.135a4.162,4.162,0,0,1,2.262.254A10.285,10.285,0,0,0,843.814,51.643Z" transform="translate(-815.891 -46.142)"/><path class="a" d="M800.834,30.06s-8.142,5.269-3.2,10.055a1.656,1.656,0,0,0,1.725.9s-.285-.417.6-.857a4.42,4.42,0,0,0,.878-.583,2.191,2.191,0,0,0,.72-1.188h0s1.527-2.519-.254-6.727c0,0,.056-1.247-.117-1.43l-.9,1.527a2.928,2.928,0,0,1,1.374,1.667s-1.3-1.672-1.527-1.445c-.046.046-.443.832-.443.832s1.992,1.084,2.29,2.715c0,0-1.272-2.2-2.445-2.417L799,34.324a5.079,5.079,0,0,1,2.575,2.888s-1.417-2.254-2.672-2.613l-.356,1.272s2.086,1.058,2.42,2.6c0,0-1.9-2.437-2.483-2.29a6.451,6.451,0,0,0-.173,1.527s1.481.794,1.593,1.7c0,0-1.44-1.494-1.626-1.369a6.863,6.863,0,0,0,.552,2.445,4.969,4.969,0,0,1-.809-2.42,2.723,2.723,0,0,0-.692,1.4s-.458-.86.679-1.8a6.965,6.965,0,0,1,.115-1.448,5.89,5.89,0,0,0-1.735,1.613s.092-1.2,1.819-1.954l.331-1.285a8.492,8.492,0,0,0-2.2,1.651s.282-1.206,2.305-1.969l.509-1.2a10.354,10.354,0,0,0-2.249,1.374,4.047,4.047,0,0,1,2.407-1.712l.433-.763s-1.112.524-1.417.7-.379.112-.379.112a4.17,4.17,0,0,1,1.972-1.137A10.113,10.113,0,0,0,800.834,30.06Z" transform="translate(-786.708 -30.06)"/><path class="a" d="M761.1,54.123s-4.867,8.4,1.7,10.414a1.641,1.641,0,0,0,1.944,0s-.44-.239.15-1.036a4.454,4.454,0,0,0,.509-.916,2.2,2.2,0,0,0,.1-1.387h0s.216-2.936-3.282-5.88c0,0-.509-1.135-.763-1.219l-.109,1.781a2.933,2.933,0,0,1,1.982.863s-1.913-.9-2.01-.6c-.02.061-.018.941-.018.941s2.287.069,3.305,1.387c0,0-2.137-1.382-3.275-1.046l.081,1.328a5.074,5.074,0,0,1,3.6,1.407s-2.29-1.366-3.562-1.117l.254,1.3s2.341,0,3.333,1.216c0,0-2.8-1.313-3.254-.924a6.286,6.286,0,0,0,.542,1.448s1.679.036,2.193.8c0,0-1.962-.679-2.071-.481a6.858,6.858,0,0,0,1.6,1.926,4.969,4.969,0,0,1-1.819-1.781,2.724,2.724,0,0,0,.02,1.565s-.8-.557-.214-1.913a6.39,6.39,0,0,1-.552-1.341,6.046,6.046,0,0,0-.814,2.224,2.637,2.637,0,0,1,.733-2.565l-.287-1.3a8.494,8.494,0,0,0-1.209,2.468s-.3-1.2,1.163-2.8l-.1-1.3a10.155,10.155,0,0,0-1.379,2.244,4.015,4.015,0,0,1,1.366-2.618l.038-.878s-.763.969-.944,1.272-.288.26-.288.26a4.189,4.189,0,0,1,1.242-1.911A10.363,10.363,0,0,0,761.1,54.123Z" transform="translate(-759.363 -47.983)"/></g><path class="c" d="M899.235,346.65a3.641,3.641,0,1,0,3.641,3.641,3.641,3.641,0,0,0-3.641-3.641ZM888.59,318.08v3.641h3.641L898.785,335l-2.74,4.46a3.5,3.5,0,0,0-.455,1.73c0,2.437,1.667,3.641,3.926,3.641H920.8v-3.5H899.961a.43.43,0,0,1-.455-.455,2.284,2.284,0,0,1,.193-.453l1.819-2.873h13.564a3.562,3.562,0,0,0,3.185-1.911l6.557-11.274a2.113,2.113,0,0,0,.183-.911,1.751,1.751,0,0,0-1.822-1.73H896.238l-1.73-3.641Zm28.57,28.57a3.641,3.641,0,1,0,3.644,3.642,3.641,3.641,0,0,0-3.644-3.642Z" transform="translate(-673.172 -242.624)"/><path class="j" d="M916.066,327.263h-3.053V324.21h-2.29v3.053H907.67v2.29h3.053v3.053h2.29v-3.053h3.053Z" transform="translate(-675.736 -241.735)"/></g></svg>