<svg xmlns="http://www.w3.org/2000/svg" width="150.002" height="154.908" viewBox="0 0 150.002 154.908">
  <g id="Group_12794" data-name="Group 12794" transform="translate(-840 -412.152)">
    <path id="Path_31159" data-name="Path 31159" d="M-727.123,1277.073a13.766,13.766,0,0,0,13.75,13.75,13.766,13.766,0,0,0,13.75-13.75,13.766,13.766,0,0,0-13.75-13.75A13.766,13.766,0,0,0-727.123,1277.073Zm13.749-6.249a6.25,6.25,0,0,1,6.25,6.25,6.25,6.25,0,0,1-6.25,6.25,6.25,6.25,0,0,1-6.25-6.25A6.25,6.25,0,0,1-713.374,1270.824Z" transform="translate(1674.625 -723.764)" fill="#c8c7cc"/>
    <path id="Path_31160" data-name="Path 31160" d="M-815.123,1277.073a13.766,13.766,0,0,0,13.75,13.75,13.766,13.766,0,0,0,13.75-13.75,13.766,13.766,0,0,0-13.75-13.75A13.766,13.766,0,0,0-815.123,1277.073Zm13.749-6.249a6.25,6.25,0,0,1,6.25,6.25,6.25,6.25,0,0,1-6.25,6.25,6.25,6.25,0,0,1-6.25-6.25A6.25,6.25,0,0,1-801.374,1270.824Z" transform="translate(1707.624 -723.764)" fill="#c8c7cc"/>
    <path id="Path_31161" data-name="Path 31161" d="M-746.574,1186.729l-5.445.038v-19.273a1.02,1.02,0,0,0-1.021-1.02H-758.5a1.02,1.02,0,0,0-1.02,1.02v19.325l-5.471.038a1.866,1.866,0,0,0-1.6,2.811l9.319,10.885a1.866,1.866,0,0,0,3.233-.023l9.1-11.013A1.866,1.866,0,0,0-746.574,1186.729Z" transform="translate(1689.52 -754.322)" fill="#c8c7cc"/>
    <path id="Path_31162" data-name="Path 31162" d="M-759.84,1103.762H-850.9a10.647,10.647,0,0,0-4.232.888l-3.733-37.327h-36.5a3.75,3.75,0,0,0-3.75,3.75,3.75,3.75,0,0,0,3.75,3.75h29.717l4.367,43.677h.015l6.168,61.673a10.718,10.718,0,0,0,10.664,9.651H-766.3a10.718,10.718,0,0,0,10.664-9.651l6.463-64.627A10.718,10.718,0,0,0-759.84,1103.762Zm-6.463,78.562h-78.139a3.208,3.208,0,0,1-3.2-2.9l-1.21-12.1h19.217a3.75,3.75,0,0,0,3.75-3.75,3.75,3.75,0,0,0-3.75-3.75H-849.6l-.938-9.375h12.081a3.75,3.75,0,0,0,3.75-3.75,3.75,3.75,0,0,0-3.75-3.75H-851.29l-2.815-28.148a3.187,3.187,0,0,1,.816-2.479,3.187,3.187,0,0,1,2.386-1.059h91.064a3.188,3.188,0,0,1,2.386,1.059,3.19,3.19,0,0,1,.816,2.479l-1.146,11.462h-22.992a3.75,3.75,0,0,0-3.75,3.75,3.75,3.75,0,0,0,3.75,3.75h22.242l-.961,9.612h-12.493a3.75,3.75,0,0,0-3.75,3.75,3.75,3.75,0,0,0,3.75,3.75h11.743l-2.855,28.552A3.208,3.208,0,0,1-766.3,1182.325Z" transform="translate(1739.123 -650.266)" fill="#c8c7cc"/>
  </g>
</svg>
