<?xml version="1.0" encoding="utf-8"?>
<!-- Generator: Adobe Illustrator 24.0.0, SVG Export Plug-In . SVG Version: 6.00 Build 0)  -->
<svg version="1.1" id="Layer_1" xmlns="http://www.w3.org/2000/svg" xmlns:xlink="http://www.w3.org/1999/xlink" x="0px" y="0px"
	 viewBox="0 0 16 16" style="enable-background:new 0 0 16 16;" xml:space="preserve">
<style type="text/css">
	.st0{}
</style>
<g id="Group_25968" transform="translate(-0.3)">
	<g id="Group_25966" transform="translate(1.238 0.5)">
		<g id="Line_254">
			<path class="st0" d="M12.5,4H1.1C0.8,4,0.6,3.8,0.6,3.5S0.8,3,1.1,3h11.4C12.8,3,13,3.2,13,3.5S12.8,4,12.5,4z"/>
		</g>
		<g id="Line_255">
			<path class="st0" d="M12.5,7H1.1C0.8,7,0.6,6.8,0.6,6.5S0.8,6,1.1,6h11.4C12.8,6,13,6.2,13,6.5S12.8,7,12.5,7z"/>
		</g>
		<g id="Line_256">
			<path class="st0" d="M12.5,10H1.1c-0.3,0-0.5-0.2-0.5-0.5S0.8,9,1.1,9h11.4C12.8,9,13,9.2,13,9.5S12.8,10,12.5,10z"/>
		</g>
		<g id="Line_257">
			<path class="st0" d="M12.5,13H1.1c-0.3,0-0.5-0.2-0.5-0.5S0.8,12,1.1,12h11.4c0.3,0,0.5,0.2,0.5,0.5S12.8,13,12.5,13z"/>
		</g>
	</g>
</g>
</svg>
