<svg id="Layer_2" data-name="Layer 2" xmlns="http://www.w3.org/2000/svg" viewBox="0 0 62 62"><defs><style></style></defs><title>ICON</title><path class="cls-1" d="M16,33.5a1.5,1.5,0,0,0-3,0V41h3Z"/><path class="cls-1" d="M26.5,32A1.5,1.5,0,0,0,25,33.5V41h3V33.5A1.5,1.5,0,0,0,26.5,32Z"/><path class="cls-1" d="M10,33.5a1.5,1.5,0,0,0-3,0V41h3Z"/><path class="cls-1" d="M22,33.5a1.5,1.5,0,0,0-3,0V41h3Z"/><path class="cls-1" d="M7,53.5a1.5,1.5,0,0,0,3,0V50H7Z"/><path class="cls-1" d="M25,53.5a1.5,1.5,0,0,0,3,0V50H25Z"/><path class="cls-1" d="M13,53.5a1.5,1.5,0,0,0,3,0V50H13Z"/><path class="cls-1" d="M19,53.5a1.5,1.5,0,0,0,3,0V50H19Z"/><rect class="cls-1" x="7" y="44" width="21" height="3" rx="1"/><path class="cls-1" d="M60.57,36.07l-1.11-2.45-1.24-2.74L46,3.82a4.79,4.79,0,0,0-6.35-2.39L27,7.13c-.28-.54-.6-1.1-.6-1.1a10,10,0,0,0-1.16-1.58l0,0a10.6,10.6,0,0,0-2.11-1.78L23,2.56A11.06,11.06,0,0,0,21.91,2l-.16-.07a10.37,10.37,0,0,0-1.25-.47l-.2-.05a10.26,10.26,0,0,0-1.1-.24l-.35,0A10,10,0,0,0,17.5,1h0A10.51,10.51,0,0,0,7,11.05H7V16H5.8A4.8,4.8,0,0,0,1,20.8V56.2A4.8,4.8,0,0,0,5.8,61H29.2A4.8,4.8,0,0,0,34,56.2V52.41a4.75,4.75,0,0,0,2.86-.34L38,51.56v5.31A4.1,4.1,0,0,0,42.09,61h1.74A4.09,4.09,0,0,0,48,56.91V54h4.28a1.5,1.5,0,0,0,1.5-1.5V44.42l4.4-2A4.81,4.81,0,0,0,60.57,36.07ZM10,15.57V11.5A7.5,7.5,0,0,1,17.5,4h0a7.37,7.37,0,0,1,.82,0l.24,0,.57.1.26.07a4.91,4.91,0,0,1,.51.15l.25.09.5.21.22.11.51.28.16.1c.2.12.38.26.56.39l.07.06a7.75,7.75,0,0,1,1.15,1.14h0l.17.22a8.2,8.2,0,0,1,.59,1.46l-2.4,1.09-.15.07a4.79,4.79,0,0,0-1.21-1.57A4.26,4.26,0,0,0,18,7,4.51,4.51,0,0,0,13,11.5v8A1.5,1.5,0,0,0,14.5,21h0A1.5,1.5,0,0,0,16,19.5v-8a1.5,1.5,0,0,1,3,0v10a4.5,4.5,0,0,1-9,0ZM31,56.2A1.81,1.81,0,0,1,29.2,58H5.8A1.81,1.81,0,0,1,4,56.2V20.8A1.81,1.81,0,0,1,5.8,19H7v2.5a7.5,7.5,0,0,0,5.65,7.26,8.17,8.17,0,0,0,3.19.11A7.5,7.5,0,0,0,22,21.5V19h7.2A1.81,1.81,0,0,1,31,20.8Zm14,.67A1.09,1.09,0,0,1,43.83,58H42.17A1.1,1.1,0,0,1,41,56.87V56a2,2,0,0,1,4,0ZM45,49a2,2,0,0,1-4,0V32a2,2,0,0,1,4,0Zm0-22H41V26l1.33-2h1.34L45,26ZM56.94,39.69l-3.16,1.44V39.5a1.5,1.5,0,0,0-3,0V51H48V25.7a2.07,2.07,0,0,0-.34-1.12L45.87,21.9a2,2,0,0,0-1.68-.9H41.81a2,2,0,0,0-1.68.9l-1.79,2.68A2.07,2.07,0,0,0,38,25.7V48.26l-2.38,1.08A1.81,1.81,0,0,1,34,49.26V20.8A4.8,4.8,0,0,0,29.2,16H22v-.09h0V12.7L40.87,4.16a1.8,1.8,0,0,1,2.38.9L57.84,37.31A1.79,1.79,0,0,1,56.94,39.69Z"/></svg>