<svg id="Layer_2" data-name="Layer 2" xmlns="http://www.w3.org/2000/svg" viewBox="0 0 62 62"><defs><style> </style></defs><title>ICON</title><path class="cls-1" d="M19.5,24.5A1.5,1.5,0,0,0,18,23H17a1.5,1.5,0,0,0-1.5,1.5V39h4Z"/><path class="cls-1" d="M31,23H30a1.5,1.5,0,0,0-1.5,1.5V39h4V24.5A1.5,1.5,0,0,0,31,23Z"/><path class="cls-1" d="M12.5,24.5a1.5,1.5,0,0,0-3,0V39h3Z"/><path class="cls-1" d="M25.5,24.5a1.5,1.5,0,0,0-3,0V39h3Z"/><path class="cls-1" d="M9.5,52.5a1.5,1.5,0,0,0,3,0V48h-3Z"/><path class="cls-1" d="M28.5,52.5A1.5,1.5,0,0,0,30,54h1a1.5,1.5,0,0,0,1.5-1.5V48h-4Z"/><path class="cls-1" d="M15.5,52.5A1.5,1.5,0,0,0,17,54h1a1.5,1.5,0,0,0,1.5-1.5V48h-4Z"/><path class="cls-1" d="M22.5,52.5a1.5,1.5,0,0,0,3,0V48h-3Z"/><rect class="cls-1" x="9.5" y="42" width="23" height="3" rx="1"/><path class="cls-1" d="M37.2,16H5.8A4.8,4.8,0,0,0,1,20.8V56.2A4.8,4.8,0,0,0,5.8,61H37.2A4.8,4.8,0,0,0,42,56.2V20.8A4.8,4.8,0,0,0,37.2,16ZM39,56.2A1.81,1.81,0,0,1,37.2,58H5.8A1.81,1.81,0,0,1,4,56.2V20.8A1.81,1.81,0,0,1,5.8,19H37.2A1.81,1.81,0,0,1,39,20.8Z"/><path class="cls-1" d="M60.66,4.58,58.87,1.9A2,2,0,0,0,57.19,1H54.81a2,2,0,0,0-1.68.9L51.34,4.58A2.07,2.07,0,0,0,51,5.7V38H48V24.5a1.5,1.5,0,0,0-3,0v15A1.5,1.5,0,0,0,46.5,41H51v2.91A4.09,4.09,0,0,0,55.17,48h1.74A4.1,4.1,0,0,0,61,43.87V5.7A2.07,2.07,0,0,0,60.66,4.58ZM58,43.87A1.1,1.1,0,0,1,56.83,45H55.17A1.09,1.09,0,0,1,54,43.87V43a2,2,0,0,1,4,0ZM58,36a2,2,0,0,1-4,0V12a2,2,0,0,1,4,0ZM58,7H54V6l1.33-2h1.34L58,6Z"/></svg>