<svg id="Layer_2" data-name="Layer 2" xmlns="http://www.w3.org/2000/svg" viewBox="0 0 62 62"><defs><style>.cls-1{}.cls-2{fill:#fff;}</style></defs><title>Thiet ke tem mon an</title><path class="cls-1" d="M40.64,30.06a1.44,1.44,0,0,0-1.41-.83h0a3.06,3.06,0,0,0-1.18.29,3.68,3.68,0,0,0,3.15,6.63,3.1,3.1,0,0,0,1-.74,1.46,1.46,0,0,0,.24-1.62Zm-.07,4.76a2.22,2.22,0,0,1-1.89-4,1.77,1.77,0,0,1,.64-.16l1.77,3.73A1.85,1.85,0,0,1,40.57,34.82Z"/><path class="cls-1" d="M41,42.61,37.5,40.39a1.46,1.46,0,0,0-1.64,0h0a3.15,3.15,0,0,0-.84.87,3.68,3.68,0,0,0,6.18,4,3.34,3.34,0,0,0,.44-1.14A1.47,1.47,0,0,0,41,42.61Zm-1,1.85a2.22,2.22,0,0,1-3.71-2.37,1.72,1.72,0,0,1,.46-.47l3.48,2.23A1.74,1.74,0,0,1,40,44.46Z"/><path class="cls-1" d="M49.86,38a3.26,3.26,0,0,0-1,.73,1.46,1.46,0,0,0-.24,1.62l1.77,3.73a1.49,1.49,0,0,0,1.41.84h0a3.21,3.21,0,0,0,1.18-.3A3.67,3.67,0,0,0,49.86,38Zm2.51,5.3a1.57,1.57,0,0,1-.63.15L50,39.72a1.76,1.76,0,0,1,.53-.4,2.22,2.22,0,0,1,1.88,4Z"/><circle class="cls-1" cx="43.83" cy="39.16" r="0.92"/><circle class="cls-1" cx="53.37" cy="30.14" r="0.92"/><circle class="cls-1" cx="48.5" cy="46.02" r="0.92"/><circle class="cls-1" cx="30.87" cy="28.66" r="0.92"/><circle class="cls-1" cx="31.74" cy="43.45" r="0.92"/><circle class="cls-1" cx="33.8" cy="34.99" r="0.92"/><path class="cls-1" d="M54.05,19.36H53.1V17.89h.09a2.57,2.57,0,1,0,0-5.13H41.81L39.32,7.42a2.18,2.18,0,0,0-2.9-1L35.05,7a2.18,2.18,0,0,0-1,2.9l1.34,2.86H32.66v1.47H36l1,2.2H32.66v4.4H39.1l2,4.4H32.66v1.46h9.17l4,8.5a2.18,2.18,0,0,0,2.89,1.06l1.37-.64a2.18,2.18,0,0,0,1-2.9l-2.8-6h8.18V46.26a2.43,2.43,0,0,1-2.44,2.43H32.66v1.47H54.05c2.48,0,3-1.47,3-1.47A3.87,3.87,0,0,0,58,46.26v-23A3.92,3.92,0,0,0,54.05,19.36Zm-.86-5.13a1.1,1.1,0,1,1,0,2.2H50.72a.55.55,0,0,0-.55.55v.36a.55.55,0,0,0,.55.55h.92v1.47H44.89l-.69-1.47h2.49a.55.55,0,0,0,.55-.55V17a.55.55,0,0,0-.55-.55H43.52l-1-2.2ZM37,12.76,35.33,9.28a.72.72,0,0,1,.34-.95L37,7.69A.72.72,0,0,1,38,8l2.2,4.72Zm-3.47,6.6V17.89h4.25l.68,1.47Zm5.18-2.93-1-2.2h3.23l1,2.2Zm.69,1.46h3.23l.69,1.47H40Zm1.36,2.94H44l2,4.4H42.77Zm9.07,12.5a.72.72,0,0,1-.34,1l-1.37.64a.72.72,0,0,1-1-.35l-3.67-7.88h3.24Zm6.71-8.1H47.62l-2-4.4h8.48a2.44,2.44,0,0,1,2.44,2.44Z"/><rect class="cls-2" x="22.5" y="16" width="20.41" height="38"/><path class="cls-1" d="M19.5,24.5A1.5,1.5,0,0,0,18,23H17a1.5,1.5,0,0,0-1.5,1.5V39h4Z"/><path class="cls-1" d="M31,23H30a1.5,1.5,0,0,0-1.5,1.5V39h4V24.5A1.5,1.5,0,0,0,31,23Z"/><path class="cls-1" d="M12.5,24.5a1.5,1.5,0,0,0-3,0V39h3Z"/><path class="cls-1" d="M25.5,24.5a1.5,1.5,0,0,0-3,0V39h3Z"/><path class="cls-1" d="M9.5,52.5a1.5,1.5,0,0,0,3,0V48h-3Z"/><path class="cls-1" d="M28.5,52.5A1.5,1.5,0,0,0,30,54h1a1.5,1.5,0,0,0,1.5-1.5V48h-4Z"/><path class="cls-1" d="M15.5,52.5A1.5,1.5,0,0,0,17,54h1a1.5,1.5,0,0,0,1.5-1.5V48h-4Z"/><path class="cls-1" d="M22.5,52.5a1.5,1.5,0,0,0,3,0V48h-3Z"/><rect class="cls-1" x="9.5" y="42" width="23" height="3" rx="1"/><path class="cls-1" d="M37.2,16H5.8A4.8,4.8,0,0,0,1,20.8V56.2A4.8,4.8,0,0,0,5.8,61H37.2A4.8,4.8,0,0,0,42,56.2V20.8A4.8,4.8,0,0,0,37.2,16ZM39,56.2A1.81,1.81,0,0,1,37.2,58H5.8A1.81,1.81,0,0,1,4,56.2V20.8A1.81,1.81,0,0,1,5.8,19H37.2A1.81,1.81,0,0,1,39,20.8Z"/></svg>