<svg width="344" height="250" viewBox="0 0 344 250" fill="none" xmlns="http://www.w3.org/2000/svg"><path d="M197.002 97.6287H191.625V103H189.379V97.6287H184.002V95.3849H189.379V90H191.625V95.3849H197.002V97.6287Z" fill="#8FD8FC"></path><path d="M208.002 89.1077H205.107V92H203.897V89.1077H201.002V87.8996H203.897V85H205.107V87.8996H208.002V89.1077Z" fill="#8FD8FC"></path><path d="M60.3845 184.099C59.6326 179.741 57.4519 175.834 55.948 171.701C53.9929 166.366 54.9704 162.083 56.324 156.823C58.4294 148.857 58.5046 139.991 54.3689 132.702C53.2409 130.748 51.737 129.02 50.6091 126.991C49.3307 124.812 48.8044 121.956 48.5036 119.477C48.278 117.147 48.7292 114.743 48.5788 112.338C48.5036 110.309 48.1276 108.28 47.6012 106.252C46.0973 100.691 42.1119 93.5524 35.4947 93.6275C27.6743 93.7027 25.6441 103.171 25.9448 109.332C26.0952 113.616 26.8472 118.124 25.3433 122.257C23.689 126.69 19.3276 129.396 16.8461 133.378C13.1615 139.164 12.4096 146.753 14.9662 153.141C16.395 156.747 19.5532 159.979 19.7036 164.036C19.854 168.695 14.7407 171.475 12.3344 175.007C8.42421 180.868 8.19862 188.533 10.9057 194.845C17.7485 209.122 36.5475 214.081 49.8571 206.041C50.0827 206.041 50.3083 206.041 50.4587 205.891C57.2263 200.781 61.8885 192.741 60.3845 184.099Z" fill="#BFEAFF"></path><path d="M36.0961 219.942C36.2465 213.029 36.3217 206.191 36.3969 199.278C32.1859 194.619 28.7269 189.509 25.9447 183.874C25.5687 183.122 26.7718 182.672 27.1478 183.423C29.6293 188.458 32.7875 193.191 36.4721 197.399C36.5473 191.538 36.6225 185.752 36.6977 179.891C36.6225 179.891 36.6225 179.816 36.5473 179.741C32.2611 174.932 28.5765 169.672 25.5687 163.961C25.1927 163.21 26.3959 162.759 26.7718 163.51C29.5541 168.77 32.8627 173.579 36.7729 178.013C36.8481 172.527 36.9233 167.042 36.9233 161.632C34.0658 158.1 31.5092 154.343 29.2533 150.435C28.8773 149.759 29.8549 148.932 30.2308 149.684C32.1859 153.14 34.4418 156.522 36.8481 159.678C36.9233 154.192 36.9233 148.782 36.9985 143.297C36.9233 143.297 36.8481 143.222 36.7729 143.146C34.8178 140.892 33.0131 138.563 31.3588 136.158C30.9076 135.482 31.8852 134.73 32.3363 135.407C33.8402 137.511 35.3442 139.54 36.9985 141.493C36.9985 137.811 37.0737 134.204 37.0737 130.522C37.0737 129.696 38.352 129.546 38.352 130.372C38.352 135.407 38.2768 140.441 38.2016 145.476C39.5551 143.146 40.9838 140.817 42.4126 138.563C42.8637 137.886 43.8413 138.638 43.3901 139.314C41.5102 142.17 39.7807 145.025 38.1264 148.031C38.0512 152.464 38.0512 156.898 37.976 161.331C37.976 161.406 37.976 161.406 37.976 161.481C37.976 163.961 37.9008 166.441 37.9008 168.92C41.5854 164.788 44.8188 160.279 47.5259 155.32C47.9019 154.643 49.105 155.169 48.6538 155.846C45.646 161.256 42.0366 166.29 37.8256 170.799C37.7504 177.111 37.6752 183.423 37.6 189.81C40.6079 186.579 43.6157 183.348 46.6235 180.117C47.1499 179.516 48.2026 180.267 47.6011 180.868C44.2173 184.475 40.9087 188.082 37.5248 191.613C37.3744 201.081 37.2241 210.549 37.0737 220.093C37.2993 220.919 36.0209 220.769 36.0961 219.942Z" fill="#49A6D6"></path><path d="M35.1938 43.8828H286.273" stroke="#BFEAFF" stroke-width="1.9411" stroke-miterlimit="10"></path><path d="M270.933 229.185H50.4586C42.0367 229.185 35.1187 222.347 35.1187 213.856V33.8135C35.1187 25.3975 41.9615 18.4844 50.4586 18.4844H270.933C279.355 18.4844 286.273 25.3224 286.273 33.8135V213.856C286.273 222.347 279.43 229.185 270.933 229.185Z" stroke="#BFEAFF" stroke-width="1.9411" stroke-miterlimit="10"></path><path d="M59.9334 31.4848C59.9334 33.4385 58.3543 35.0165 56.3992 35.0165C54.4441 35.0165 52.865 33.4385 52.865 31.4848C52.865 29.5311 54.4441 27.9531 56.3992 27.9531C58.3543 27.9531 59.9334 29.5311 59.9334 31.4848Z" stroke="#BFEAFF" stroke-width="1.9411" stroke-miterlimit="10"></path><path d="M73.6941 31.4848C73.6941 33.4385 72.115 35.0165 70.1599 35.0165C68.2048 35.0165 66.6257 33.4385 66.6257 31.4848C66.6257 29.5311 68.2048 27.9531 70.1599 27.9531C72.115 27.9531 73.6941 29.5311 73.6941 31.4848Z" stroke="#BFEAFF" stroke-width="1.9411" stroke-miterlimit="10"></path><path d="M87.4549 31.4848C87.4549 33.4385 85.8758 35.0165 83.9207 35.0165C81.9656 35.0165 80.3865 33.4385 80.3865 31.4848C80.3865 29.5311 81.9656 27.9531 83.9207 27.9531C85.8758 27.9531 87.4549 29.5311 87.4549 31.4848Z" stroke="#BFEAFF" stroke-width="1.9411" stroke-miterlimit="10"></path><path d="M154.078 245.416C191.075 242.11 308.756 250.3 299.131 235.047C297.627 232.792 289.957 229.711 296.274 227.457C300.936 225.729 309.433 224.527 317.705 223.7C339.286 221.446 347.181 217.989 341.617 213.556C326.653 201.683 247.096 206.718 205.362 211.527C175.735 215.059 140.618 216.486 109.788 214.983C85.6502 213.781 70.4606 210.249 42.187 212.203C17.0716 213.856 13.4622 218.59 20.9066 222.648C25.1176 225.203 28.1254 226.255 19.929 229.035C13.011 231.74 0.829303 233.995 0.00214917 237C-0.148243 240.231 7.59693 243.237 22.4105 244.064C34.517 244.74 45.4956 244.064 57.4518 244.364C84.0711 245.116 101.366 252.63 134.302 249.023C142.498 248.046 147.085 246.168 156.034 245.416" fill="#EEEEEE"></path><path opacity="0.5" d="M302.064 222.874C318.682 222.874 332.142 221.371 332.142 219.493C332.142 217.614 318.682 216.111 302.064 216.111C285.446 216.111 271.986 217.614 271.986 219.493C271.986 221.371 285.446 222.874 302.064 222.874Z" fill="#A3A8AF"></path><path d="M200.399 236.475H185.661C185.285 236.475 184.984 236.775 184.984 237.151C184.984 237.527 185.285 237.827 185.661 237.827H200.399C200.775 237.827 201.076 237.527 201.076 237.151C201.076 236.7 200.775 236.475 200.399 236.475Z" fill="#49A6D6"></path><path d="M180.923 236.475H178.066C177.69 236.475 177.389 236.775 177.389 237.151C177.389 237.527 177.69 237.827 178.066 237.827H180.923C181.299 237.827 181.6 237.527 181.6 237.151C181.6 236.775 181.299 236.475 180.923 236.475Z" fill="#49A6D6"></path><path d="M256.57 230.988C256.194 230.988 255.894 231.289 255.894 231.665V233.167C255.894 233.543 256.194 233.844 256.57 233.844C256.946 233.844 257.247 233.543 257.247 233.167V231.665C257.172 231.289 256.871 230.988 256.57 230.988Z" fill="#49A6D6"></path><path d="M254.841 229.486H253.337C252.961 229.486 252.66 229.787 252.66 230.163C252.66 230.538 252.961 230.839 253.337 230.839H254.841C255.217 230.839 255.518 230.538 255.518 230.163C255.518 229.787 255.217 229.486 254.841 229.486Z" fill="#49A6D6"></path><path d="M256.57 226.404C256.194 226.404 255.894 226.705 255.894 227.081V228.583C255.894 228.959 256.194 229.26 256.57 229.26C256.946 229.26 257.247 228.959 257.247 228.583V227.081C257.172 226.63 256.871 226.404 256.57 226.404Z" fill="#49A6D6"></path><path d="M259.729 229.41H258.225C257.849 229.41 257.548 229.711 257.548 230.086C257.548 230.462 257.849 230.763 258.225 230.763H259.729C260.105 230.763 260.406 230.462 260.406 230.086C260.406 229.636 260.105 229.41 259.729 229.41Z" fill="#49A6D6"></path><path d="M34.8931 13.6016C34.5171 13.6016 34.2163 13.9021 34.2163 14.2778V15.7807C34.2163 16.1564 34.5171 16.457 34.8931 16.457C35.2691 16.457 35.5698 16.1564 35.5698 15.7807V14.2778C35.5698 13.9021 35.2691 13.6016 34.8931 13.6016Z" fill="#49A6D6"></path><path d="M33.1636 12.0977H31.6597C31.2837 12.0977 30.9829 12.3982 30.9829 12.7739C30.9829 13.1497 31.2837 13.4502 31.6597 13.4502H33.1636C33.5396 13.4502 33.8403 13.1497 33.8403 12.7739C33.8403 12.3982 33.5396 12.0977 33.1636 12.0977Z" fill="#49A6D6"></path><path d="M34.8931 9.01758C34.5171 9.01758 34.2163 9.31815 34.2163 9.69386V11.1967C34.2163 11.5724 34.5171 11.873 34.8931 11.873C35.2691 11.873 35.5698 11.5724 35.5698 11.1967V9.69386C35.5698 9.31815 35.2691 9.01758 34.8931 9.01758Z" fill="#49A6D6"></path><path d="M38.0513 12.0234H36.5474C36.1714 12.0234 35.8706 12.324 35.8706 12.6997C35.8706 13.0754 36.1714 13.376 36.5474 13.376H38.0513C38.4273 13.376 38.728 13.0754 38.728 12.6997C38.728 12.324 38.4273 12.0234 38.0513 12.0234Z" fill="#49A6D6"></path><path d="M129.865 6.76273H144.604C144.98 6.76273 145.281 6.46216 145.281 6.08644C145.281 5.71073 144.98 5.41016 144.604 5.41016H129.865C129.489 5.41016 129.189 5.71073 129.189 6.08644C129.189 6.5373 129.489 6.76273 129.865 6.76273Z" fill="#49A6D6"></path><path d="M149.341 6.76273H152.199C152.574 6.76273 152.875 6.46216 152.875 6.08644C152.875 5.71073 152.574 5.41016 152.199 5.41016H149.341C148.965 5.41016 148.664 5.71073 148.664 6.08644C148.664 6.5373 148.965 6.76273 149.341 6.76273Z" fill="#49A6D6"></path><path d="M136.783 1.65285C136.783 1.27713 137.084 0.976562 137.46 0.976562H139.34C139.716 0.976562 140.017 1.27713 140.017 1.65285C140.017 2.02856 139.716 2.32913 139.34 2.32913H137.46C137.084 2.32913 136.783 2.02856 136.783 1.65285ZM141.897 1.65285C141.897 1.27713 142.198 0.976562 142.574 0.976562H145.807C146.183 0.976562 146.484 1.27713 146.484 1.65285C146.484 2.02856 146.183 2.32913 145.807 2.32913H142.574C142.198 2.32913 141.897 2.02856 141.897 1.65285ZM148.364 1.65285C148.364 1.27713 148.664 0.976562 149.04 0.976562H152.274C152.65 0.976562 152.951 1.27713 152.951 1.65285C152.951 2.02856 152.65 2.32913 152.274 2.32913H149.04C148.664 2.32913 148.364 2.02856 148.364 1.65285Z" fill="#49A6D6"></path><path d="M9.85279 63.7959H24.5912C24.9672 63.7959 25.2679 63.4954 25.2679 63.1196C25.2679 62.7439 24.9672 62.4434 24.5912 62.4434H9.85279C9.47681 62.4434 9.17603 62.7439 9.17603 63.1196C9.25122 63.4954 9.552 63.7959 9.85279 63.7959Z" fill="#49A6D6"></path><path d="M2.25806 63.7959H5.1155C5.49148 63.7959 5.79227 63.4954 5.79227 63.1196C5.79227 62.7439 5.49148 62.4434 5.1155 62.4434H2.25806C1.88208 62.4434 1.5813 62.7439 1.5813 63.1196C1.65649 63.4954 1.95728 63.7959 2.25806 63.7959Z" fill="#49A6D6"></path><path d="M114.149 0C114.149 0 114.45 2.17914 111.894 2.17914C111.894 2.17914 114.074 2.17914 114.074 4.28314C114.074 4.28314 114.3 2.63 116.33 2.32943C116.255 2.25428 114.525 2.63 114.149 0Z" fill="#49A6D6"></path><path d="M19.5532 93.1016C19.5532 93.1016 19.854 95.2807 17.2974 95.2807C17.2974 95.2807 19.478 95.2807 19.478 97.3847C19.478 97.3847 19.7036 95.7316 21.7339 95.431C21.6587 95.3558 19.9292 95.7316 19.5532 93.1016Z" fill="#49A6D6"></path><path d="M12.1838 165.24C12.1838 164.037 13.1614 163.061 14.3645 163.061C15.5677 163.061 16.5452 164.037 16.5452 165.24C16.5452 166.442 15.5677 167.419 14.3645 167.419C13.1614 167.419 12.1838 166.442 12.1838 165.24ZM13.2366 165.24C13.2366 165.841 13.763 166.367 14.3645 166.367C14.9661 166.367 15.4925 165.841 15.4925 165.24C15.4925 164.639 14.9661 164.113 14.3645 164.113C13.763 164.188 13.2366 164.639 13.2366 165.24Z" fill="#49A6D6"></path><path d="M173.479 31.1836H171.073C170.772 31.1836 170.546 31.409 170.546 31.7096C170.546 32.0102 170.772 32.2356 171.073 32.2356H173.479C173.78 32.2356 174.005 32.0102 174.005 31.7096C174.005 31.409 173.78 31.1836 173.479 31.1836Z" fill="#49A6D6"></path><path d="M189.646 31.1836H177.389C177.088 31.1836 176.863 31.409 176.863 31.7096C176.863 32.0102 177.088 32.2356 177.389 32.2356H189.646C189.947 32.2356 190.172 32.0102 190.172 31.7096C190.172 31.4842 189.947 31.1836 189.646 31.1836Z" fill="#49A6D6"></path><path d="M183.856 35.4674C183.856 35.768 183.63 35.9934 183.329 35.9934H181.826C181.525 35.9934 181.299 35.768 181.299 35.4674C181.299 35.1668 181.525 34.9414 181.826 34.9414H183.329C183.63 34.9414 183.856 35.1668 183.856 35.4674ZM179.645 35.4674C179.645 35.768 179.419 35.9934 179.118 35.9934H176.411C176.111 35.9934 175.885 35.768 175.885 35.4674C175.885 35.1668 176.111 34.9414 176.411 34.9414H179.118C179.419 34.9414 179.645 35.1668 179.645 35.4674ZM174.306 35.4674C174.306 35.768 174.08 35.9934 173.78 35.9934H171.073C170.772 35.9934 170.546 35.768 170.546 35.4674C170.546 35.1668 170.772 34.9414 171.073 34.9414H173.78C174.005 34.9414 174.306 35.1668 174.306 35.4674Z" fill="#49A6D6"></path><path d="M92.3428 113.465C92.042 113.465 91.8164 113.69 91.8164 113.991V115.268C91.8164 115.569 92.042 115.794 92.3428 115.794C92.6436 115.794 92.8692 115.569 92.8692 115.268V113.991C92.8692 113.69 92.6436 113.465 92.3428 113.465Z" fill="#49A6D6"></path><path d="M90.9138 112.188H89.6355C89.3347 112.188 89.1091 112.413 89.1091 112.714C89.1091 113.014 89.3347 113.24 89.6355 113.24H90.9138C91.2146 113.24 91.4402 113.014 91.4402 112.714C91.4402 112.413 91.2146 112.188 90.9138 112.188Z" fill="#49A6D6"></path><path d="M92.3428 109.633C92.042 109.633 91.8164 109.858 91.8164 110.159V111.436C91.8164 111.737 92.042 111.962 92.3428 111.962C92.6436 111.962 92.8692 111.737 92.8692 111.436V110.159C92.8692 109.858 92.6436 109.633 92.3428 109.633Z" fill="#49A6D6"></path><path d="M94.9746 112.113H93.6963C93.3955 112.113 93.1699 112.339 93.1699 112.639C93.1699 112.94 93.3955 113.165 93.6963 113.165H94.9746C95.2754 113.165 95.501 112.94 95.501 112.639C95.501 112.339 95.2754 112.113 94.9746 112.113Z" fill="#49A6D6"></path><path d="M294.92 70.7852C294.619 70.7852 294.394 71.0106 294.394 71.3112V72.5886C294.394 72.8891 294.619 73.1146 294.92 73.1146C295.221 73.1146 295.447 72.8891 295.447 72.5886V71.3112C295.522 71.0106 295.221 70.7852 294.92 70.7852Z" fill="#49A6D6"></path><path d="M293.567 69.5078H292.288C291.988 69.5078 291.762 69.7332 291.762 70.0338C291.762 70.3344 291.988 70.5598 292.288 70.5598H293.567C293.867 70.5598 294.093 70.3344 294.093 70.0338C294.093 69.7332 293.867 69.5078 293.567 69.5078Z" fill="#49A6D6"></path><path d="M294.92 66.9531C294.619 66.9531 294.394 67.1786 294.394 67.4791V68.7566C294.394 69.0571 294.619 69.2826 294.92 69.2826C295.221 69.2826 295.447 69.0571 295.447 68.7566V67.4791C295.522 67.1786 295.221 66.9531 294.92 66.9531Z" fill="#49A6D6"></path><path d="M297.627 69.4316H296.349C296.048 69.4316 295.823 69.6571 295.823 69.9576C295.823 70.2582 296.048 70.4836 296.349 70.4836H297.627C297.928 70.4836 298.154 70.2582 298.154 69.9576C298.154 69.6571 297.928 69.4316 297.627 69.4316Z" fill="#49A6D6"></path><path d="M285.295 31.0344H297.552C297.853 31.0344 298.078 30.809 298.078 30.5084C298.078 30.2078 297.853 29.9824 297.552 29.9824H285.295C284.994 29.9824 284.769 30.2078 284.769 30.5084C284.769 30.809 284.994 31.0344 285.295 31.0344Z" fill="#49A6D6"></path><path d="M278.979 31.0344H281.385C281.686 31.0344 281.911 30.809 281.911 30.5084C281.911 30.2078 281.686 29.9824 281.385 29.9824H278.979C278.678 29.9824 278.452 30.2078 278.452 30.5084C278.452 30.809 278.678 31.0344 278.979 31.0344Z" fill="#49A6D6"></path><path d="M335.526 169.898C334.473 163.511 331.24 157.8 329.059 151.789C326.277 144.049 327.555 137.812 329.661 130.073C332.744 118.501 332.819 105.501 326.803 94.8306C325.149 91.9001 322.968 89.4204 321.314 86.4898C319.509 83.3338 318.682 79.1258 318.306 75.519C317.93 72.0624 318.607 68.6058 318.457 65.1492C318.306 62.1435 317.855 59.213 317.103 56.2824C314.922 48.167 309.132 37.7221 299.432 37.7973C288.002 37.9476 285.07 51.6987 285.446 60.7158C285.671 66.9527 286.799 73.5652 284.543 79.6518C282.062 86.1892 275.745 90.0967 272.061 95.8826C266.722 104.374 265.594 115.42 269.354 124.737C271.459 129.997 276.121 134.731 276.272 140.593C276.497 147.431 268.978 151.488 265.594 156.523C259.879 165.089 259.578 176.21 263.564 185.528C273.49 206.343 301.011 213.556 320.487 201.909C320.788 201.984 321.088 201.909 321.389 201.684C330.864 194.169 337.632 182.447 335.526 169.898Z" fill="#8FD8FC"></path><path d="M299.958 222.122C300.109 212.052 300.259 202.058 300.41 191.989C294.244 185.226 289.205 177.712 285.145 169.597C284.619 168.545 286.348 167.868 286.874 168.92C290.559 176.284 295.071 183.122 300.485 189.284C300.635 180.793 300.71 172.302 300.786 163.736C300.71 163.66 300.635 163.66 300.56 163.585C294.244 156.597 288.905 148.933 284.468 140.592C283.942 139.54 285.671 138.863 286.198 139.915C290.258 147.505 295.146 154.568 300.786 161.106C300.861 153.141 300.936 145.175 301.011 137.21C296.875 132.025 293.116 126.615 289.882 120.829C289.281 119.777 290.785 118.65 291.386 119.702C294.244 124.812 297.477 129.621 301.086 134.205C301.162 126.239 301.237 118.349 301.312 110.384C301.237 110.309 301.086 110.234 301.011 110.159C298.229 106.853 295.597 103.471 293.116 99.9394C292.439 98.9626 293.943 97.8354 294.62 98.8123C296.725 101.818 299.056 104.824 301.387 107.679C301.462 102.344 301.462 97.0089 301.538 91.7489C301.538 90.5466 303.418 90.3212 303.342 91.5234C303.267 98.8874 303.267 106.251 303.192 113.54C305.147 110.159 307.177 106.777 309.358 103.546C310.035 102.569 311.463 103.697 310.862 104.673C308.155 108.806 305.598 113.014 303.192 117.373C303.117 123.835 303.042 130.297 303.042 136.759C303.042 136.835 303.042 136.91 303.042 136.985C303.042 140.592 302.966 144.199 302.966 147.805C308.38 141.719 313.118 135.181 317.028 128.043C317.63 126.991 319.284 127.742 318.682 128.794C314.321 136.684 309.057 143.973 302.891 150.586C302.816 159.828 302.666 168.996 302.515 178.238C306.952 173.504 311.313 168.845 315.75 164.111C316.577 163.285 318.005 164.337 317.178 165.238C312.291 170.498 307.403 175.683 302.44 180.943C302.29 194.77 302.064 208.596 301.838 222.422C301.763 223.624 299.958 223.324 299.958 222.122Z" fill="#49A6D6"></path><g opacity="0.7"><path opacity="0.7" d="M245.968 178.69C245.817 178.765 245.592 178.841 245.441 179.066C245.366 179.066 245.366 179.141 245.291 179.141C245.141 179.216 244.99 179.291 244.84 179.442C237.546 183.049 228.673 180.268 224.687 173.055C220.928 166.217 222.958 157.725 229.124 153.142C229.575 152.766 230.177 152.465 230.703 152.09C230.853 152.015 231.079 151.939 231.229 151.789C231.38 151.714 231.605 151.639 231.756 151.489C232.282 151.188 232.959 151.038 233.636 150.812C234.538 150.512 235.516 150.361 236.418 150.286C239.275 149.986 242.283 150.437 244.84 151.789C247.622 153.067 249.953 155.321 251.532 158.176C255.367 165.39 252.961 174.407 245.968 178.69Z" fill="url(#paint0_linear)"></path><g opacity="0.7"><path opacity="0.7" d="M238.072 179.667C232.959 179.667 228.297 176.887 225.74 172.453C223.86 169.222 223.484 165.39 224.537 161.783C225.59 158.176 227.996 155.246 231.229 153.442C233.26 152.315 235.666 151.714 237.997 151.714C243.11 151.714 247.773 154.494 250.329 158.928C252.209 162.159 252.585 165.991 251.532 169.598C250.48 173.205 248.073 176.135 244.84 177.939C242.734 179.066 240.403 179.667 238.072 179.667ZM238.072 152.54C235.816 152.54 233.636 153.066 231.681 154.194C228.598 155.847 226.417 158.702 225.364 162.084C224.311 165.465 224.838 168.997 226.492 172.078C228.823 176.21 233.26 178.916 238.072 178.916C240.328 178.916 242.509 178.39 244.464 177.262C247.547 175.609 249.728 172.754 250.78 169.372C251.833 166.066 251.307 162.459 249.652 159.378C247.246 155.17 242.885 152.54 238.072 152.54Z" fill="#49A6D6"></path></g><path opacity="0.7" d="M238.072 155.396L241.155 161.708L248.073 162.76L243.11 167.569L244.238 174.482L238.148 171.251L231.981 174.482L233.185 167.569L228.222 162.76L235.064 161.708L238.072 155.396Z" fill="#49A6D6"></path></g><g opacity="0.7"><path opacity="0.7" d="M255.217 141.418C255.142 141.494 255.066 141.494 254.841 141.569C254.841 141.569 254.766 141.569 254.766 141.644C254.69 141.644 254.615 141.719 254.465 141.719C250.329 143.748 245.291 142.17 243.11 138.112C241.005 134.205 242.058 129.396 245.592 126.916C245.893 126.766 246.118 126.54 246.494 126.39C246.569 126.315 246.644 126.315 246.87 126.24C246.945 126.165 247.02 126.165 247.246 126.089C247.622 125.939 247.923 125.789 248.299 125.714C248.825 125.563 249.352 125.413 249.878 125.413C251.532 125.263 253.111 125.488 254.615 126.24C256.194 126.991 257.473 128.193 258.375 129.847C260.48 133.904 259.052 139.014 255.217 141.418Z" fill="url(#paint1_linear)"></path><g opacity="0.7"><path opacity="0.7" d="M250.78 141.945C247.923 141.945 245.216 140.367 243.862 137.887C242.81 136.009 242.584 133.905 243.186 131.876C243.712 129.847 245.141 128.194 246.945 127.142C248.148 126.466 249.427 126.09 250.705 126.09C253.563 126.09 256.27 127.668 257.623 130.148C258.676 132.026 258.902 134.13 258.3 136.159C257.774 138.188 256.345 139.841 254.54 140.893C253.337 141.569 252.059 141.945 250.78 141.945ZM250.63 126.616C249.427 126.616 248.148 126.916 247.021 127.518C245.291 128.419 244.088 129.997 243.486 131.951C242.96 133.905 243.11 135.858 244.163 137.587C245.441 139.991 247.923 141.494 250.63 141.494C251.833 141.494 253.111 141.194 254.239 140.592C255.969 139.691 257.172 138.113 257.774 136.159C258.3 134.205 258.15 132.252 257.097 130.523C255.969 128.119 253.412 126.616 250.63 126.616Z" fill="#49A6D6"></path></g><path opacity="0.7" d="M250.63 128.269L252.359 131.8L256.269 132.326L253.487 135.107L254.164 139.014L250.63 137.135L247.171 139.014L247.847 135.107L245.065 132.326L248.975 131.8L250.63 128.269Z" fill="#49A6D6"></path></g><g opacity="0.7"><path opacity="0.7" d="M92.418 108.957C92.3428 109.108 92.1172 109.258 92.042 109.408C92.042 109.483 91.9668 109.483 91.9668 109.558C91.8916 109.634 91.8164 109.709 91.666 109.859C86.7783 114.818 78.5819 115.194 73.3182 110.535C68.2049 106.027 67.4529 98.5125 71.2879 93.027C71.5887 92.5762 71.9647 92.2005 72.3407 91.7496C72.4159 91.5993 72.6414 91.449 72.7166 91.2987C72.7918 91.2236 73.0174 90.9982 73.0926 90.923C73.4686 90.5473 73.9198 90.1716 74.371 89.7959C75.0477 89.345 75.7245 88.8942 76.4764 88.5185C78.8075 87.3913 81.289 87.0156 83.7704 87.3162C86.3271 87.6167 88.959 88.6687 91.0644 90.5473C96.3282 95.4316 96.9297 103.472 92.418 108.957Z" fill="#CDE0FB"></path><g opacity="0.7"><path opacity="0.7" d="M82.2666 112.789C79.334 112.789 76.4014 111.662 74.2207 109.708C71.8144 107.604 70.3105 104.599 70.1601 101.367C70.0097 98.1363 71.0625 94.9803 73.2431 92.5757C75.3486 90.1712 78.3565 88.6683 81.5899 88.518C84.8233 88.3677 87.9815 89.4197 90.3878 91.5989C92.7941 93.7029 94.298 96.7086 94.4484 99.9397C94.5988 103.171 93.546 106.327 91.3653 108.731C89.2599 111.136 86.252 112.639 83.0186 112.789C82.7178 112.714 82.4922 112.789 82.2666 112.789ZM82.2666 89.2694C82.1163 89.2694 81.8155 89.2694 81.5899 89.2694C78.5069 89.4197 75.7246 90.7723 73.6943 93.0266C71.664 95.356 70.6113 98.2114 70.8369 101.292C70.9873 104.373 72.3408 107.153 74.5967 109.182C76.9277 111.211 79.7852 112.263 82.8682 112.038C85.9512 111.887 88.7335 110.535 90.7638 108.281C92.7941 105.951 93.8468 103.096 93.6212 100.015C93.4708 96.934 92.1173 94.1537 89.8614 92.1249C87.7559 90.2463 85.0489 89.2694 82.2666 89.2694Z" fill="#AFCDFB"></path></g><path opacity="0.7" d="M79.3338 92.2754L83.6951 96.4082L89.6356 95.2811L86.9286 100.616L89.786 105.876L83.8455 105.05L79.785 109.483L78.7322 103.472L73.1677 100.992L78.5066 98.1365L79.3338 92.2754Z" fill="#AFCDFB"></path></g><g opacity="0.7"><path opacity="0.7" d="M245.968 178.69C245.817 178.765 245.592 178.841 245.441 179.066C245.366 179.066 245.366 179.141 245.291 179.141C245.141 179.216 244.99 179.291 244.84 179.442C237.546 183.049 228.673 180.268 224.687 173.055C220.928 166.217 222.958 157.725 229.124 153.142C229.575 152.766 230.177 152.465 230.703 152.09C230.853 152.015 231.079 151.939 231.229 151.789C231.38 151.714 231.605 151.639 231.756 151.489C232.282 151.188 232.959 151.038 233.636 150.812C234.538 150.512 235.516 150.361 236.418 150.286C239.275 149.986 242.283 150.437 244.84 151.789C247.622 153.067 249.953 155.321 251.532 158.176C255.367 165.39 252.961 174.407 245.968 178.69Z" fill="url(#paint2_linear)"></path><g opacity="0.7"><path opacity="0.7" d="M238.072 179.667C232.959 179.667 228.297 176.887 225.74 172.453C223.86 169.222 223.484 165.39 224.537 161.783C225.59 158.176 227.996 155.246 231.229 153.442C233.26 152.315 235.666 151.714 237.997 151.714C243.11 151.714 247.773 154.494 250.329 158.928C252.209 162.159 252.585 165.991 251.532 169.598C250.48 173.205 248.073 176.135 244.84 177.939C242.734 179.066 240.403 179.667 238.072 179.667ZM238.072 152.54C235.816 152.54 233.636 153.066 231.681 154.194C228.598 155.847 226.417 158.702 225.364 162.084C224.311 165.465 224.838 168.997 226.492 172.078C228.823 176.21 233.26 178.916 238.072 178.916C240.328 178.916 242.509 178.39 244.464 177.262C247.547 175.609 249.728 172.754 250.78 169.372C251.833 166.066 251.307 162.459 249.652 159.378C247.246 155.17 242.885 152.54 238.072 152.54Z" fill="#49A6D6"></path></g><path opacity="0.7" d="M238.072 155.396L241.155 161.708L248.073 162.76L243.11 167.569L244.238 174.482L238.148 171.251L231.981 174.482L233.185 167.569L228.222 162.76L235.064 161.708L238.072 155.396Z" fill="#49A6D6"></path></g><g opacity="0.7"><path opacity="0.7" d="M255.217 141.418C255.142 141.494 255.066 141.494 254.841 141.569C254.841 141.569 254.766 141.569 254.766 141.644C254.69 141.644 254.615 141.719 254.465 141.719C250.329 143.748 245.291 142.17 243.11 138.112C241.005 134.205 242.058 129.396 245.592 126.916C245.893 126.766 246.118 126.54 246.494 126.39C246.569 126.315 246.644 126.315 246.87 126.24C246.945 126.165 247.02 126.165 247.246 126.089C247.622 125.939 247.923 125.789 248.299 125.714C248.825 125.563 249.352 125.413 249.878 125.413C251.532 125.263 253.111 125.488 254.615 126.24C256.194 126.991 257.473 128.193 258.375 129.847C260.48 133.904 259.052 139.014 255.217 141.418Z" fill="url(#paint3_linear)"></path><g opacity="0.7"><path opacity="0.7" d="M250.78 141.945C247.923 141.945 245.216 140.367 243.862 137.887C242.81 136.009 242.584 133.905 243.186 131.876C243.712 129.847 245.141 128.194 246.945 127.142C248.148 126.466 249.427 126.09 250.705 126.09C253.563 126.09 256.27 127.668 257.623 130.148C258.676 132.026 258.902 134.13 258.3 136.159C257.774 138.188 256.345 139.841 254.54 140.893C253.337 141.569 252.059 141.945 250.78 141.945ZM250.63 126.616C249.427 126.616 248.148 126.916 247.021 127.518C245.291 128.419 244.088 129.997 243.486 131.951C242.96 133.905 243.11 135.858 244.163 137.587C245.441 139.991 247.923 141.494 250.63 141.494C251.833 141.494 253.111 141.194 254.239 140.592C255.969 139.691 257.172 138.113 257.774 136.159C258.3 134.205 258.15 132.252 257.097 130.523C255.969 128.119 253.412 126.616 250.63 126.616Z" fill="#49A6D6"></path></g><path opacity="0.7" d="M250.63 128.269L252.359 131.8L256.269 132.326L253.487 135.107L254.164 139.014L250.63 137.135L247.171 139.014L247.847 135.107L245.065 132.326L248.975 131.8L250.63 128.269Z" fill="#49A6D6"></path></g><g opacity="0.7"><path opacity="0.7" d="M243.508 78.4187C243.432 78.4938 243.357 78.569 243.207 78.7193L243.132 78.7944C243.056 78.8695 243.056 78.8695 242.981 78.9447C239.823 82.1007 234.71 82.251 231.401 79.3204C228.168 76.465 227.717 71.731 230.123 68.3495C230.273 68.049 230.499 67.8235 230.8 67.523C230.875 67.4478 230.95 67.3727 231.1 67.2224C231.176 67.1473 231.251 67.0721 231.401 66.9218C231.702 66.6213 231.928 66.471 232.228 66.2455C232.679 65.945 233.055 65.7195 233.507 65.419C234.86 64.7427 236.59 64.5173 238.169 64.6675C239.823 64.8178 241.402 65.4941 242.831 66.6964C245.914 69.9275 246.365 75.0373 243.508 78.4187Z" fill="#CDE0FB"></path><g opacity="0.7"><path opacity="0.7" d="M237.116 80.8237C235.236 80.8237 233.431 80.1474 232.003 78.87C230.499 77.5174 229.596 75.6388 229.521 73.61C229.446 71.5811 230.048 69.6274 231.476 68.0494C232.83 66.5466 234.71 65.6449 236.74 65.5697C238.77 65.4946 240.725 66.0957 242.304 67.5234C243.808 68.876 244.711 70.7546 244.786 72.7834C244.861 74.8123 244.26 76.766 242.831 78.344C241.477 79.8468 239.597 80.7486 237.567 80.8237C237.417 80.8237 237.266 80.8237 237.116 80.8237ZM237.116 66.0206C236.966 66.0206 236.815 66.0206 236.665 66.0206C234.71 66.0957 232.98 66.9223 231.777 68.4251C230.499 69.7777 229.822 71.6563 229.897 73.61C229.972 75.5637 230.799 77.292 232.303 78.4943C233.657 79.7717 235.537 80.448 237.492 80.3728C239.447 80.2977 241.176 79.4711 242.38 77.9683C243.658 76.6157 244.335 74.7371 244.26 72.7834C244.184 70.8297 243.357 69.1014 241.853 67.8991C240.575 66.6969 238.921 66.0206 237.116 66.0206Z" fill="#AFCDFB"></path></g><path opacity="0.7" d="M235.086 67.5225L237.793 70.0773L241.477 69.3259L239.823 72.7825L241.703 76.0887L237.943 75.5627L235.386 78.343L234.86 74.661L231.326 73.083L234.785 71.2045L235.086 67.5225Z" fill="#AFCDFB"></path></g><g opacity="0.7"><path opacity="0.7" d="M92.418 108.957C92.3428 109.108 92.1172 109.258 92.042 109.408C92.042 109.483 91.9668 109.483 91.9668 109.558C91.8916 109.634 91.8164 109.709 91.666 109.859C86.7783 114.818 78.5819 115.194 73.3182 110.535C68.2049 106.027 67.4529 98.5125 71.2879 93.027C71.5887 92.5762 71.9647 92.2005 72.3407 91.7496C72.4159 91.5993 72.6414 91.449 72.7166 91.2987C72.7918 91.2236 73.0174 90.9982 73.0926 90.923C73.4686 90.5473 73.9198 90.1716 74.371 89.7959C75.0477 89.345 75.7245 88.8942 76.4764 88.5185C78.8075 87.3913 81.289 87.0156 83.7704 87.3162C86.3271 87.6167 88.959 88.6687 91.0644 90.5473C96.3282 95.4316 96.9297 103.472 92.418 108.957Z" fill="#CDE0FB"></path><g opacity="0.7"><path opacity="0.7" d="M82.2666 112.789C79.334 112.789 76.4014 111.662 74.2207 109.708C71.8144 107.604 70.3105 104.599 70.1601 101.367C70.0097 98.1363 71.0625 94.9803 73.2431 92.5757C75.3486 90.1712 78.3565 88.6683 81.5899 88.518C84.8233 88.3677 87.9815 89.4197 90.3878 91.5989C92.7941 93.7029 94.298 96.7086 94.4484 99.9397C94.5988 103.171 93.546 106.327 91.3653 108.731C89.2599 111.136 86.252 112.639 83.0186 112.789C82.7178 112.714 82.4922 112.789 82.2666 112.789ZM82.2666 89.2694C82.1163 89.2694 81.8155 89.2694 81.5899 89.2694C78.5069 89.4197 75.7246 90.7723 73.6943 93.0266C71.664 95.356 70.6113 98.2114 70.8369 101.292C70.9873 104.373 72.3408 107.153 74.5967 109.182C76.9277 111.211 79.7852 112.263 82.8682 112.038C85.9512 111.887 88.7335 110.535 90.7638 108.281C92.7941 105.951 93.8468 103.096 93.6212 100.015C93.4708 96.934 92.1173 94.1537 89.8614 92.1249C87.7559 90.2463 85.0489 89.2694 82.2666 89.2694Z" fill="#AFCDFB"></path></g><path opacity="0.7" d="M79.3338 92.2754L83.6951 96.4082L89.6356 95.2811L86.9286 100.616L89.786 105.876L83.8455 105.05L79.785 109.483L78.7322 103.472L73.1677 100.992L78.5066 98.1365L79.3338 92.2754Z" fill="#AFCDFB"></path></g><g opacity="0.7"><path opacity="0.7" d="M245.968 178.69C245.817 178.765 245.592 178.841 245.441 179.066C245.366 179.066 245.366 179.141 245.291 179.141C245.141 179.216 244.99 179.291 244.84 179.442C237.546 183.049 228.673 180.268 224.687 173.055C220.928 166.217 222.958 157.725 229.124 153.142C229.575 152.766 230.177 152.465 230.703 152.09C230.853 152.015 231.079 151.939 231.229 151.789C231.38 151.714 231.605 151.639 231.756 151.489C232.282 151.188 232.959 151.038 233.636 150.812C234.538 150.512 235.516 150.361 236.418 150.286C239.275 149.986 242.283 150.437 244.84 151.789C247.622 153.067 249.953 155.321 251.532 158.176C255.367 165.39 252.961 174.407 245.968 178.69Z" fill="url(#paint4_linear)"></path><g opacity="0.7"><path opacity="0.7" d="M238.072 179.667C232.959 179.667 228.297 176.887 225.74 172.453C223.86 169.222 223.484 165.39 224.537 161.783C225.59 158.176 227.996 155.246 231.229 153.442C233.26 152.315 235.666 151.714 237.997 151.714C243.11 151.714 247.773 154.494 250.329 158.928C252.209 162.159 252.585 165.991 251.532 169.598C250.48 173.205 248.073 176.135 244.84 177.939C242.734 179.066 240.403 179.667 238.072 179.667ZM238.072 152.54C235.816 152.54 233.636 153.066 231.681 154.194C228.598 155.847 226.417 158.702 225.364 162.084C224.311 165.465 224.838 168.997 226.492 172.078C228.823 176.21 233.26 178.916 238.072 178.916C240.328 178.916 242.509 178.39 244.464 177.262C247.547 175.609 249.728 172.754 250.78 169.372C251.833 166.066 251.307 162.459 249.652 159.378C247.246 155.17 242.885 152.54 238.072 152.54Z" fill="#49A6D6"></path></g><path opacity="0.7" d="M238.072 155.396L241.155 161.708L248.073 162.76L243.11 167.569L244.238 174.482L238.148 171.251L231.981 174.482L233.185 167.569L228.222 162.76L235.064 161.708L238.072 155.396Z" fill="#49A6D6"></path></g><g opacity="0.7"><path opacity="0.7" d="M255.217 141.418C255.142 141.494 255.066 141.494 254.841 141.569C254.841 141.569 254.766 141.569 254.766 141.644C254.69 141.644 254.615 141.719 254.465 141.719C250.329 143.748 245.291 142.17 243.11 138.112C241.005 134.205 242.058 129.396 245.592 126.916C245.893 126.766 246.118 126.54 246.494 126.39C246.569 126.315 246.644 126.315 246.87 126.24C246.945 126.165 247.02 126.165 247.246 126.089C247.622 125.939 247.923 125.789 248.299 125.714C248.825 125.563 249.352 125.413 249.878 125.413C251.532 125.263 253.111 125.488 254.615 126.24C256.194 126.991 257.473 128.193 258.375 129.847C260.48 133.904 259.052 139.014 255.217 141.418Z" fill="url(#paint5_linear)"></path><g opacity="0.7"><path opacity="0.7" d="M250.78 141.945C247.923 141.945 245.216 140.367 243.862 137.887C242.81 136.009 242.584 133.905 243.186 131.876C243.712 129.847 245.141 128.194 246.945 127.142C248.148 126.466 249.427 126.09 250.705 126.09C253.563 126.09 256.27 127.668 257.623 130.148C258.676 132.026 258.902 134.13 258.3 136.159C257.774 138.188 256.345 139.841 254.54 140.893C253.337 141.569 252.059 141.945 250.78 141.945ZM250.63 126.616C249.427 126.616 248.148 126.916 247.021 127.518C245.291 128.419 244.088 129.997 243.486 131.951C242.96 133.905 243.11 135.858 244.163 137.587C245.441 139.991 247.923 141.494 250.63 141.494C251.833 141.494 253.111 141.194 254.239 140.592C255.969 139.691 257.172 138.113 257.774 136.159C258.3 134.205 258.15 132.252 257.097 130.523C255.969 128.119 253.412 126.616 250.63 126.616Z" fill="#49A6D6"></path></g><path opacity="0.7" d="M250.63 128.269L252.359 131.8L256.269 132.326L253.487 135.107L254.164 139.014L250.63 137.135L247.171 139.014L247.847 135.107L245.065 132.326L248.975 131.8L250.63 128.269Z" fill="#49A6D6"></path></g><g opacity="0.7"><path opacity="0.7" d="M92.418 108.957C92.3428 109.108 92.1172 109.258 92.042 109.408C92.042 109.483 91.9668 109.483 91.9668 109.558C91.8916 109.634 91.8164 109.709 91.666 109.859C86.7783 114.818 78.5819 115.194 73.3182 110.535C68.2049 106.027 67.4529 98.5125 71.2879 93.027C71.5887 92.5762 71.9647 92.2005 72.3407 91.7496C72.4159 91.5993 72.6414 91.449 72.7166 91.2987C72.7918 91.2236 73.0174 90.9982 73.0926 90.923C73.4686 90.5473 73.9198 90.1716 74.371 89.7959C75.0477 89.345 75.7245 88.8942 76.4764 88.5185C78.8075 87.3913 81.289 87.0156 83.7704 87.3162C86.3271 87.6167 88.959 88.6687 91.0644 90.5473C96.3282 95.4316 96.9297 103.472 92.418 108.957Z" fill="#CDE0FB"></path><g opacity="0.7"><path opacity="0.7" d="M82.2666 112.789C79.334 112.789 76.4014 111.662 74.2207 109.708C71.8144 107.604 70.3105 104.599 70.1601 101.367C70.0097 98.1363 71.0625 94.9803 73.2431 92.5757C75.3486 90.1712 78.3565 88.6683 81.5899 88.518C84.8233 88.3677 87.9815 89.4197 90.3878 91.5989C92.7941 93.7029 94.298 96.7086 94.4484 99.9397C94.5988 103.171 93.546 106.327 91.3653 108.731C89.2599 111.136 86.252 112.639 83.0186 112.789C82.7178 112.714 82.4922 112.789 82.2666 112.789ZM82.2666 89.2694C82.1163 89.2694 81.8155 89.2694 81.5899 89.2694C78.5069 89.4197 75.7246 90.7723 73.6943 93.0266C71.664 95.356 70.6113 98.2114 70.8369 101.292C70.9873 104.373 72.3408 107.153 74.5967 109.182C76.9277 111.211 79.7852 112.263 82.8682 112.038C85.9512 111.887 88.7335 110.535 90.7638 108.281C92.7941 105.951 93.8468 103.096 93.6212 100.015C93.4708 96.934 92.1173 94.1537 89.8614 92.1249C87.7559 90.2463 85.0489 89.2694 82.2666 89.2694Z" fill="#AFCDFB"></path></g><path opacity="0.7" d="M79.3338 92.2754L83.6951 96.4082L89.6356 95.2811L86.9286 100.616L89.786 105.876L83.8455 105.05L79.785 109.483L78.7322 103.472L73.1677 100.992L78.5066 98.1365L79.3338 92.2754Z" fill="#AFCDFB"></path></g><path d="M154.695 123.301C152.198 124.711 149.424 125.416 146.372 125.416C142.822 125.416 139.949 124.272 137.753 121.983C135.568 119.694 134.475 116.665 134.475 112.896C134.475 109.046 135.689 105.89 138.117 103.427C140.556 100.953 143.643 99.7163 147.377 99.7163C150.083 99.7163 152.354 100.156 154.192 101.034V104.26C152.181 102.988 149.799 102.352 147.048 102.352C144.262 102.352 141.978 103.312 140.198 105.231C138.418 107.15 137.527 109.636 137.527 112.688C137.527 115.832 138.354 118.306 140.007 120.11C141.66 121.902 143.903 122.798 146.736 122.798C148.678 122.798 150.36 122.41 151.782 121.636V114.665H146.337V112.029H154.695V123.301ZM170.511 125.416C166.985 125.416 164.158 124.254 162.031 121.931C159.915 119.607 158.857 116.584 158.857 112.861C158.857 108.861 159.938 105.67 162.1 103.289C164.262 100.907 167.204 99.7163 170.927 99.7163C174.36 99.7163 177.123 100.872 179.216 103.185C181.32 105.497 182.372 108.52 182.372 112.254C182.372 116.312 181.297 119.52 179.147 121.879C176.996 124.237 174.118 125.416 170.511 125.416ZM170.719 102.352C168.106 102.352 165.985 103.294 164.354 105.179C162.724 107.063 161.909 109.537 161.909 112.601C161.909 115.665 162.701 118.133 164.285 120.006C165.881 121.867 167.956 122.798 170.511 122.798C173.239 122.798 175.389 121.907 176.962 120.127C178.534 118.347 179.32 115.855 179.32 112.653C179.32 109.37 178.557 106.832 177.031 105.04C175.505 103.248 173.401 102.352 170.719 102.352Z" fill="#8FD8FC"></path><path d="M211.112 131.542C210.44 131.922 209.693 132.112 208.871 132.112C207.915 132.112 207.142 131.804 206.55 131.188C205.962 130.571 205.668 129.756 205.668 128.741C205.668 127.705 205.995 126.855 206.648 126.192C207.305 125.526 208.136 125.193 209.142 125.193C209.87 125.193 210.482 125.311 210.976 125.548V126.416C210.435 126.074 209.794 125.903 209.053 125.903C208.303 125.903 207.688 126.161 207.209 126.678C206.729 127.194 206.49 127.863 206.49 128.685C206.49 129.532 206.712 130.198 207.157 130.683C207.602 131.166 208.206 131.407 208.969 131.407C209.492 131.407 209.945 131.303 210.328 131.094V129.217H208.862V128.508H211.112V131.542ZM215.37 132.112C214.421 132.112 213.66 131.799 213.087 131.174C212.517 130.548 212.232 129.734 212.232 128.732C212.232 127.655 212.523 126.796 213.105 126.155C213.688 125.513 214.48 125.193 215.482 125.193C216.406 125.193 217.15 125.504 217.714 126.127C218.28 126.749 218.563 127.563 218.563 128.568C218.563 129.661 218.274 130.525 217.695 131.16C217.116 131.795 216.341 132.112 215.37 132.112ZM215.426 125.903C214.722 125.903 214.151 126.156 213.712 126.664C213.274 127.171 213.054 127.837 213.054 128.662C213.054 129.487 213.267 130.151 213.694 130.655C214.123 131.156 214.682 131.407 215.37 131.407C216.104 131.407 216.683 131.167 217.107 130.688C217.53 130.209 217.742 129.538 217.742 128.676C217.742 127.792 217.536 127.109 217.125 126.626C216.714 126.144 216.148 125.903 215.426 125.903Z" fill="#8FD8FC"></path><path d="M101.603 161.281C100.547 161.878 99.3728 162.176 98.0815 162.176C96.5799 162.176 95.3645 161.692 94.4352 160.723C93.5107 159.755 93.0485 158.473 93.0485 156.879C93.0485 155.25 93.5621 153.915 94.5892 152.873C95.6213 151.826 96.9272 151.303 98.507 151.303C99.6516 151.303 100.613 151.489 101.39 151.861V153.225C100.539 152.687 99.5317 152.418 98.3676 152.418C97.1889 152.418 96.2229 152.824 95.4696 153.636C94.7164 154.448 94.3398 155.5 94.3398 156.791C94.3398 158.121 94.6895 159.168 95.3889 159.931C96.0884 160.689 97.0373 161.068 98.2356 161.068C99.0573 161.068 99.769 160.904 100.371 160.577V157.627H98.0668V156.512H101.603V161.281ZM108.294 162.176C106.802 162.176 105.607 161.685 104.707 160.701C103.811 159.718 103.364 158.439 103.364 156.864C103.364 155.172 103.821 153.822 104.736 152.814C105.651 151.807 106.895 151.303 108.47 151.303C109.923 151.303 111.092 151.792 111.977 152.77C112.867 153.749 113.313 155.028 113.313 156.608C113.313 158.324 112.858 159.682 111.948 160.679C111.038 161.677 109.82 162.176 108.294 162.176ZM108.382 152.418C107.277 152.418 106.379 152.817 105.69 153.614C105 154.411 104.655 155.458 104.655 156.754C104.655 158.05 104.99 159.095 105.66 159.887C106.335 160.674 107.213 161.068 108.294 161.068C109.449 161.068 110.358 160.692 111.023 159.938C111.689 159.185 112.021 158.131 112.021 156.776C112.021 155.387 111.698 154.314 111.053 153.555C110.407 152.797 109.517 152.418 108.382 152.418Z" fill="#8FD8FC"></path><defs><linearGradient id="paint0_linear" x1="222.605" y1="165.649" x2="253.329" y2="165.649" gradientUnits="userSpaceOnUse"><stop stop-color="#8FD8FC"></stop><stop offset="1" stop-color="#8FD8FC" stop-opacity="0"></stop></linearGradient><linearGradient id="paint1_linear" x1="241.993" y1="134.02" x2="259.337" y2="134.02" gradientUnits="userSpaceOnUse"><stop stop-color="#8FD8FC"></stop><stop offset="1" stop-color="#8FD8FC" stop-opacity="0"></stop></linearGradient><linearGradient id="paint2_linear" x1="222.605" y1="165.649" x2="253.329" y2="165.649" gradientUnits="userSpaceOnUse"><stop stop-color="#8FD8FC"></stop><stop offset="1" stop-color="#8FD8FC" stop-opacity="0"></stop></linearGradient><linearGradient id="paint3_linear" x1="241.993" y1="134.02" x2="259.337" y2="134.02" gradientUnits="userSpaceOnUse"><stop stop-color="#8FD8FC"></stop><stop offset="1" stop-color="#8FD8FC" stop-opacity="0"></stop></linearGradient><linearGradient id="paint4_linear" x1="222.605" y1="165.649" x2="253.329" y2="165.649" gradientUnits="userSpaceOnUse"><stop stop-color="#8FD8FC"></stop><stop offset="1" stop-color="#8FD8FC" stop-opacity="0"></stop></linearGradient><linearGradient id="paint5_linear" x1="241.993" y1="134.02" x2="259.337" y2="134.02" gradientUnits="userSpaceOnUse"><stop stop-color="#8FD8FC"></stop><stop offset="1" stop-color="#8FD8FC" stop-opacity="0"></stop></linearGradient></defs></svg>