<svg xmlns="http://www.w3.org/2000/svg" width="20" height="14" viewBox="0 0 20 14"><g transform="translate(-0.001 -116.592)"><path d="M19.416,130.592a.543.543,0,0,0,.446-.266.91.91,0,0,0,.131-.61l-1.621-12.48c-.036-.339-.282-.654-.579-.644H2.141a.652.652,0,0,0-.577.633l-1.555,12.5a.909.909,0,0,0,.132.606.542.542,0,0,0,.445.264H19.416ZM2.64,118.1H17.107l-1.365,10.993H1.271Zm14.287,10.993.879-7.08.92,7.08Z" transform="translate(0 0)"/><path d="M104.477,211.189H94.2a.588.588,0,1,0,0,1.176h10.275a.588.588,0,1,0,0-1.176Z" transform="translate(-89.983 -89.723)"/><path d="M93.938,272.955H83.678a.588.588,0,1,0,0,1.176h10.26a.588.588,0,1,0,0-1.176Z" transform="translate(-79.867 -148.306)"/></g></svg>