<svg xmlns="http://www.w3.org/2000/svg" width="20" height="20" viewBox="0 0 20 20">
  <g id="Group_12651" data-name="Group 12651" transform="translate(-547 -334.5)">
    <path id="Path_31085" data-name="Path 31085" d="M552.706,340.4a.683.683,0,0,0,.683.683h5.385a.683.683,0,0,0,0-1.365h-5.385A.683.683,0,0,0,552.706,340.4Z" transform="translate(-0.522 -0.474)" fill="#373737"/>
    <path id="Path_31086" data-name="Path 31086" d="M558.773,343.213h-5.385a.683.683,0,1,0,0,1.365h5.385a.683.683,0,0,0,0-1.365Z" transform="translate(-0.522 -0.793)" fill="#373737"/>
    <path id="Path_31087" data-name="Path 31087" d="M558.773,346.713h-5.385a.683.683,0,1,0,0,1.365h5.385a.683.683,0,0,0,0-1.365Z" transform="translate(-0.522 -1.111)" fill="#373737"/>
    <path id="Path_31088" data-name="Path 31088" d="M561.813,334.5h-9.236a3.12,3.12,0,0,0-3.116,3.117v11.816h-1.284c-1.176,0-1.176.56-1.176.805,0,2.48,0,4.261,4.733,4.261h6.807a3.12,3.12,0,0,0,3.116-3.117V340.489h2.429C567,340.489,567,339,567,338.083,567,336.009,566.011,334.5,561.813,334.5Zm-10.08,18.636c-3.071,0-3.343-.462-3.366-2.339h7.056v.585a3.108,3.108,0,0,0,.543,1.754Zm8.56-15.519v13.765a1.753,1.753,0,1,1-3.506,0v-.946a.982.982,0,0,0-1-1h-4.96V337.618a1.759,1.759,0,0,1,1.753-1.755h8.266A3.086,3.086,0,0,0,560.293,337.617Zm3.793,1.508h-2.429v-1.507a1.758,1.758,0,0,1,1.35-1.7l0,0c2.627.237,2.632,1.3,2.632,2.169C565.636,338.863,565.636,339.125,564.086,339.125Z" fill="#373737"/>
  </g>
</svg>
