<svg xmlns="http://www.w3.org/2000/svg" width="60" height="60" viewBox="0 0 60 60">
	<g id="Group_12761" data-name="Group 12761" transform="translate(-901.059 101.794)">
		<path id="Path_31157" data-name="Path 31157" d="M944.059-47.294a5.506,5.506,0,0,0,5.5,5.5,5.507,5.507,0,0,0,5.5-5.5,5.507,5.507,0,0,0-5.5-5.5A5.506,5.506,0,0,0,944.059-47.294Zm5.5-2.5a2.5,2.5,0,0,1,2.5,2.5,2.5,2.5,0,0,1-2.5,2.5,2.5,2.5,0,0,1-2.5-2.5A2.5,2.5,0,0,1,949.558-49.794Z" />
		<path id="Path_31158" data-name="Path 31158" d="M922.059-47.294a5.506,5.506,0,0,0,5.5,5.5,5.507,5.507,0,0,0,5.5-5.5,5.507,5.507,0,0,0-5.5-5.5A5.506,5.506,0,0,0,922.059-47.294Zm5.5-2.5a2.5,2.5,0,0,1,2.5,2.5,2.5,2.5,0,0,1-2.5,2.5,2.5,2.5,0,0,1-2.5-2.5A2.5,2.5,0,0,1,927.558-49.794Z" />
		<path id="Path_31159" data-name="Path 31159" d="M939.158-76.638a.747.747,0,0,0-1.293.009l-3.638,4.406a.746.746,0,0,0,.654,1.115l2.178-.015v7.709a.408.408,0,0,0,.408.408h2.184a.408.408,0,0,0,.408-.408v-7.73l2.188-.015a.747.747,0,0,0,.639-1.125Z" />
		<path id="Path_31160" data-name="Path 31160" d="M956.771-87.219H920.346a4.25,4.25,0,0,0-1.692.356l-1.494-14.931h-14.6a1.5,1.5,0,0,0-1.5,1.5,1.5,1.5,0,0,0,1.5,1.5h11.886l1.748,17.47h.006l2.467,24.669a4.287,4.287,0,0,0,4.265,3.861h31.255a4.287,4.287,0,0,0,4.266-3.861l2.585-25.85A4.287,4.287,0,0,0,956.771-87.219Zm.823,9h-7.947a1.5,1.5,0,0,0-1.5,1.5,1.5,1.5,0,0,0,1.5,1.5h7.647l-1.827,18.266a1.283,1.283,0,0,1-1.281,1.159H922.931a1.282,1.282,0,0,1-1.28-1.159l-.484-4.841h7.686a1.5,1.5,0,0,0,1.5-1.5,1.5,1.5,0,0,0-1.5-1.5h-7.986l-1.8-18.01a1.272,1.272,0,0,1,.326-.991,1.275,1.275,0,0,1,.954-.424h36.425a1.277,1.277,0,0,1,.955.424,1.276,1.276,0,0,1,.326.991Z" />
	</g>
</svg>
