<svg xmlns="http://www.w3.org/2000/svg" width="20" height="20" viewBox="0 0 20 20">
  <g id="Group_14146" data-name="Group 14146" transform="translate(-169.547 -249.42)">
    <path id="Path_31265" data-name="Path 31265" d="M185.859,249.42H173.235a3.688,3.688,0,0,0-3.688,3.688v12.624a3.688,3.688,0,0,0,3.688,3.688h12.624a3.688,3.688,0,0,0,3.688-3.688V253.108A3.688,3.688,0,0,0,185.859,249.42Zm2.188,16.312a2.19,2.19,0,0,1-2.188,2.188H173.235a2.19,2.19,0,0,1-2.188-2.188V253.108a2.19,2.19,0,0,1,2.188-2.188h12.624a2.191,2.191,0,0,1,2.188,2.188Z" fill="#373737"/>
    <path id="Path_31266" data-name="Path 31266" d="M184.168,257.031a.778.778,0,0,0-1.093,1.107l.55.505h-2.55a.777.777,0,1,0,0,1.555h2.55l-.55.506a.777.777,0,0,0,.547,1.33.768.768,0,0,0,.545-.224l1.9-1.836a.776.776,0,0,0,0-1.106Z" fill="#373737"/>
    <path id="Path_31267" data-name="Path 31267" d="M178.019,258.642h-2.55l.55-.505a.778.778,0,0,0-1.093-1.107l-1.9,1.836a.776.776,0,0,0,0,1.106l1.9,1.836a.768.768,0,0,0,.545.224.777.777,0,0,0,.547-1.33l-.55-.506h2.55a.777.777,0,1,0,0-1.555Z" fill="#373737"/>
  </g>
</svg>
