<svg xmlns="http://www.w3.org/2000/svg" width="20" height="19.999" viewBox="0 0 20 19.999">
  <g id="Group_14148" data-name="Group 14148" transform="translate(-230.238 -250.42)">
    <path id="Path_31272" data-name="Path 31272" d="M240.713,257.232a.859.859,0,0,0-1.216.009.831.831,0,0,0,.032,1.191l.388.387H237.1a.86.86,0,0,0,0,1.719h2.819l-.388.387a.831.831,0,0,0-.031,1.192.86.86,0,0,0,1.215.008l1.9-1.834a.857.857,0,0,0,0-1.223Z" transform="translate(0.683 0.742)" fill="#373737"/>
    <path id="Path_31273" data-name="Path 31273" d="M247.885,268.752H245.92a.525.525,0,0,1-.523-.527V252.613a.525.525,0,0,1,.523-.527h1.965a.833.833,0,0,0,0-1.667H245.92a2.187,2.187,0,0,0-2.181,2.193v15.613a2.187,2.187,0,0,0,2.181,2.193h1.965a.833.833,0,0,0,0-1.667Z" transform="translate(1.524)" fill="#373737"/>
    <path id="Path_31274" data-name="Path 31274" d="M233.032,250.42h-1.965a.833.833,0,0,0,0,1.667h1.965a.526.526,0,0,1,.524.527v15.613a.526.526,0,0,1-.524.527h-1.965a.833.833,0,0,0,0,1.667h1.965a2.188,2.188,0,0,0,2.182-2.193V252.613A2.188,2.188,0,0,0,233.032,250.42Z" transform="translate(0)" fill="#373737"/>
  </g>
</svg>
