<svg xmlns="http://www.w3.org/2000/svg" width="20" height="20.003" viewBox="0 0 20 20.003">
  <g id="Group_16707" data-name="Group 16707" transform="translate(17069.75 3869.75)">
    <path id="Vector" d="M5.365,1.4H.7A.7.7,0,0,1,0,.7.7.7,0,0,1,.7,0H5.365a.7.7,0,0,1,.7.7A.7.7,0,0,1,5.365,1.4Z" transform="translate(-17063.061 -3860.728)" />
    <path id="Vector-2" data-name="Vector" d="M.7,6.065a.7.7,0,0,1-.7-.7V.7A.7.7,0,0,1,.7,0a.7.7,0,0,1,.7.7V5.365A.7.7,0,0,1,.7,6.065Z" transform="translate(-17060.729 -3863.06)" />
    <path id="Vector-3" data-name="Vector" d="M9.535,19.07A9.535,9.535,0,1,1,19.07,9.535,9.548,9.548,0,0,1,9.535,19.07Zm0-17.674a8.139,8.139,0,1,0,8.139,8.139A8.148,8.148,0,0,0,9.535,1.4Z" transform="translate(-17069.75 -3869.75)" />
    <path id="Vector-4" data-name="Vector" d="M2.564,3.263a.692.692,0,0,1-.495-.205L.2,1.192A.7.7,0,0,1,1.192.2L3.058,2.069a.7.7,0,0,1,0,.989A.692.692,0,0,1,2.564,3.263Z" transform="translate(-17053.012 -3853.011)" />
  </g>
</svg>