<svg xmlns="http://www.w3.org/2000/svg" width="20" height="20.004" viewBox="0 0 20 20.004">
  <g id="Group_16708" data-name="Group 16708" transform="translate(17029.75 3866.75)">
    <path id="Vector" d="M5.364,1.4H.7A.7.7,0,0,1,0,.7.7.7,0,0,1,.7,0H5.364a.7.7,0,0,1,.7.7A.7.7,0,0,1,5.364,1.4Z" transform="translate(-17023.246 -3857.727)" />
    <path id="Vector-2" data-name="Vector" d="M9.536,19.071a9.536,9.536,0,1,1,9.536-9.536A9.549,9.549,0,0,1,9.536,19.071Zm0-17.676a8.14,8.14,0,1,0,8.14,8.14A8.149,8.149,0,0,0,9.536,1.4Z" transform="translate(-17029.75 -3866.75)" />
    <path id="Vector-3" data-name="Vector" d="M2.563,3.263a.692.692,0,0,1-.494-.205L.2,1.192A.7.7,0,0,1,1.192.2L3.058,2.069a.7.7,0,0,1,0,.989A.692.692,0,0,1,2.563,3.263Z" transform="translate(-17013.01 -3850.009)" />
  </g>
</svg>