<svg id="Layer_1" data-name="Layer 1" xmlns="http://www.w3.org/2000/svg" viewBox="0 0 90 20"><defs><style>.cls-1{fill:#d36c32;}</style></defs><title>icon</title><path class="cls-1" d="M89.61,9.7,60.16,9.05a.8.8,0,0,0-.81.8.81.81,0,0,0,.78.84h0L89.61,10a.17.17,0,0,0,.16-.18A.16.16,0,0,0,89.61,9.7Z"/><path class="cls-1" d="M29.84,9.05.39,9.7a.16.16,0,0,0-.16.16A.17.17,0,0,0,.39,10l29.45.65h0a.81.81,0,0,0,.78-.84A.8.8,0,0,0,29.84,9.05Z"/><path class="cls-1" d="M44.1,9.56l-.76-.76a1,1,0,0,0-1.48,0l-.75.76a.61.61,0,0,0,0,.88l.75.76a1,1,0,0,0,1.48,0l.76-.76A.63.63,0,0,0,44.1,9.56Z"/><path class="cls-1" d="M45.42,10.87a.64.64,0,0,0-.89,0l-.76.76a1.06,1.06,0,0,0,0,1.48l.76.76a.64.64,0,0,0,.89,0l.75-.76a1,1,0,0,0,0-1.48Z"/><path class="cls-1" d="M44.53,9.13a.64.64,0,0,0,.89,0l.75-.76a1,1,0,0,0,0-1.48l-.75-.76a.64.64,0,0,0-.89,0l-.76.76a1.06,1.06,0,0,0,0,1.48Z"/><path class="cls-1" d="M48.08,8.8a1,1,0,0,0-1.48,0l-.75.76a.61.61,0,0,0,0,.88l.75.76a1,1,0,0,0,1.48,0l.76-.76a.63.63,0,0,0,0-.88Z"/><rect class="cls-1" x="52.67" y="8.42" width="3.16" height="3.16" rx="0.63" transform="translate(8.82 41.29) rotate(-45)"/><rect class="cls-1" x="34.11" y="8.42" width="3.16" height="3.16" rx="0.63" transform="translate(3.38 28.17) rotate(-45)"/></svg>